%TF.GenerationSoftware,KiCad,Pcbnew,8.0.0-rc2-74-g5f063dd458*%
%TF.CreationDate,2024-01-29T02:33:14+02:00*%
%TF.ProjectId,SamoMCU,53616d6f-4d43-4552-9e6b-696361645f70,rev?*%
%TF.SameCoordinates,Original*%
%TF.FileFunction,Paste,Top*%
%TF.FilePolarity,Positive*%
%FSLAX46Y46*%
G04 Gerber Fmt 4.6, Leading zero omitted, Abs format (unit mm)*
G04 Created by KiCad (PCBNEW 8.0.0-rc2-74-g5f063dd458) date 2024-01-29 02:33:14*
%MOMM*%
%LPD*%
G01*
G04 APERTURE LIST*
G04 Aperture macros list*
%AMRoundRect*
0 Rectangle with rounded corners*
0 $1 Rounding radius*
0 $2 $3 $4 $5 $6 $7 $8 $9 X,Y pos of 4 corners*
0 Add a 4 corners polygon primitive as box body*
4,1,4,$2,$3,$4,$5,$6,$7,$8,$9,$2,$3,0*
0 Add four circle primitives for the rounded corners*
1,1,$1+$1,$2,$3*
1,1,$1+$1,$4,$5*
1,1,$1+$1,$6,$7*
1,1,$1+$1,$8,$9*
0 Add four rect primitives between the rounded corners*
20,1,$1+$1,$2,$3,$4,$5,0*
20,1,$1+$1,$4,$5,$6,$7,0*
20,1,$1+$1,$6,$7,$8,$9,0*
20,1,$1+$1,$8,$9,$2,$3,0*%
G04 Aperture macros list end*
%ADD10C,0.120000*%
%ADD11RoundRect,0.140000X0.140000X0.170000X-0.140000X0.170000X-0.140000X-0.170000X0.140000X-0.170000X0*%
%ADD12RoundRect,0.135000X-0.135000X-0.185000X0.135000X-0.185000X0.135000X0.185000X-0.135000X0.185000X0*%
%ADD13RoundRect,0.135000X0.135000X0.185000X-0.135000X0.185000X-0.135000X-0.185000X0.135000X-0.185000X0*%
%ADD14R,0.740000X0.200000*%
%ADD15R,0.200000X0.740000*%
%ADD16RoundRect,0.140000X-0.170000X0.140000X-0.170000X-0.140000X0.170000X-0.140000X0.170000X0.140000X0*%
%ADD17R,0.400000X0.650000*%
%ADD18RoundRect,0.140000X-0.140000X-0.170000X0.140000X-0.170000X0.140000X0.170000X-0.140000X0.170000X0*%
%ADD19C,0.200000*%
%ADD20RoundRect,0.147500X-0.147500X-0.172500X0.147500X-0.172500X0.147500X0.172500X-0.147500X0.172500X0*%
%ADD21RoundRect,0.135000X0.185000X-0.135000X0.185000X0.135000X-0.185000X0.135000X-0.185000X-0.135000X0*%
%ADD22RoundRect,0.050000X-0.050000X-0.150000X0.050000X-0.150000X0.050000X0.150000X-0.050000X0.150000X0*%
%ADD23RoundRect,0.070000X-0.190000X-0.070000X0.190000X-0.070000X0.190000X0.070000X-0.190000X0.070000X0*%
%ADD24R,0.700000X0.600000*%
%ADD25RoundRect,0.125000X0.125000X-0.125000X0.125000X0.125000X-0.125000X0.125000X-0.125000X-0.125000X0*%
%ADD26R,0.800000X0.900000*%
G04 APERTURE END LIST*
D10*
%TO.C,U3*%
X168850000Y-47000000D02*
X168250000Y-47000000D01*
X168250000Y-46400000D01*
X168850000Y-46400000D01*
X168850000Y-47000000D01*
G36*
X168850000Y-47000000D02*
G01*
X168250000Y-47000000D01*
X168250000Y-46400000D01*
X168850000Y-46400000D01*
X168850000Y-47000000D01*
G37*
X168850000Y-48100000D02*
X168250000Y-48100000D01*
X168250000Y-47500000D01*
X168850000Y-47500000D01*
X168850000Y-48100000D01*
G36*
X168850000Y-48100000D02*
G01*
X168250000Y-48100000D01*
X168250000Y-47500000D01*
X168850000Y-47500000D01*
X168850000Y-48100000D01*
G37*
X168850000Y-49200000D02*
X168250000Y-49200000D01*
X168250000Y-48600000D01*
X168850000Y-48600000D01*
X168850000Y-49200000D01*
G36*
X168850000Y-49200000D02*
G01*
X168250000Y-49200000D01*
X168250000Y-48600000D01*
X168850000Y-48600000D01*
X168850000Y-49200000D01*
G37*
X169950000Y-47000000D02*
X169350000Y-47000000D01*
X169350000Y-46400000D01*
X169950000Y-46400000D01*
X169950000Y-47000000D01*
G36*
X169950000Y-47000000D02*
G01*
X169350000Y-47000000D01*
X169350000Y-46400000D01*
X169950000Y-46400000D01*
X169950000Y-47000000D01*
G37*
X169950000Y-48100000D02*
X169350000Y-48100000D01*
X169350000Y-47500000D01*
X169950000Y-47500000D01*
X169950000Y-48100000D01*
G36*
X169950000Y-48100000D02*
G01*
X169350000Y-48100000D01*
X169350000Y-47500000D01*
X169950000Y-47500000D01*
X169950000Y-48100000D01*
G37*
X169950000Y-49200000D02*
X169350000Y-49200000D01*
X169350000Y-48600000D01*
X169950000Y-48600000D01*
X169950000Y-49200000D01*
G36*
X169950000Y-49200000D02*
G01*
X169350000Y-49200000D01*
X169350000Y-48600000D01*
X169950000Y-48600000D01*
X169950000Y-49200000D01*
G37*
X171050000Y-47000000D02*
X170450000Y-47000000D01*
X170450000Y-46400000D01*
X171050000Y-46400000D01*
X171050000Y-47000000D01*
G36*
X171050000Y-47000000D02*
G01*
X170450000Y-47000000D01*
X170450000Y-46400000D01*
X171050000Y-46400000D01*
X171050000Y-47000000D01*
G37*
X171050000Y-48100000D02*
X170450000Y-48100000D01*
X170450000Y-47500000D01*
X171050000Y-47500000D01*
X171050000Y-48100000D01*
G36*
X171050000Y-48100000D02*
G01*
X170450000Y-48100000D01*
X170450000Y-47500000D01*
X171050000Y-47500000D01*
X171050000Y-48100000D01*
G37*
X171050000Y-49200000D02*
X170450000Y-49200000D01*
X170450000Y-48600000D01*
X171050000Y-48600000D01*
X171050000Y-49200000D01*
G36*
X171050000Y-49200000D02*
G01*
X170450000Y-49200000D01*
X170450000Y-48600000D01*
X171050000Y-48600000D01*
X171050000Y-49200000D01*
G37*
%TD*%
D11*
%TO.C,C5*%
X169230000Y-42600000D03*
X168270000Y-42600000D03*
%TD*%
%TO.C,C4*%
X166830000Y-52390000D03*
X165870000Y-52390000D03*
%TD*%
D12*
%TO.C,R3*%
X176840000Y-44100000D03*
X177860000Y-44100000D03*
%TD*%
D13*
%TO.C,R6*%
X177860000Y-48300000D03*
X176840000Y-48300000D03*
%TD*%
D14*
%TO.C,U3*%
X167150000Y-46000000D03*
X167150000Y-46400000D03*
X167150000Y-46800000D03*
X167150000Y-47200000D03*
X167150000Y-47600000D03*
X167150000Y-48000000D03*
X167150000Y-48400000D03*
X167150000Y-48800000D03*
X167150000Y-49200000D03*
X167150000Y-49600000D03*
D15*
X167850000Y-50300000D03*
X168250000Y-50300000D03*
X168650000Y-50300000D03*
X169050000Y-50300000D03*
X169450000Y-50300000D03*
X169850000Y-50300000D03*
X170250000Y-50300000D03*
X170650000Y-50300000D03*
X171050000Y-50300000D03*
X171450000Y-50300000D03*
D14*
X172150000Y-49600000D03*
X172150000Y-49200000D03*
X172150000Y-48800000D03*
X172150000Y-48400000D03*
X172150000Y-48000000D03*
X172150000Y-47600000D03*
X172150000Y-47200000D03*
X172150000Y-46800000D03*
X172150000Y-46400000D03*
X172150000Y-46000000D03*
D15*
X171450000Y-45300000D03*
X171050000Y-45300000D03*
X170650000Y-45300000D03*
X170250000Y-45300000D03*
X169850000Y-45300000D03*
X169450000Y-45300000D03*
X169050000Y-45300000D03*
X168650000Y-45300000D03*
X168250000Y-45300000D03*
X167850000Y-45300000D03*
%TD*%
D11*
%TO.C,C1*%
X163020000Y-46280000D03*
X162060000Y-46280000D03*
%TD*%
%TO.C,C3*%
X171230000Y-43700000D03*
X170270000Y-43700000D03*
%TD*%
D16*
%TO.C,C8*%
X172450000Y-42620000D03*
X172450000Y-43580000D03*
%TD*%
D17*
%TO.C,U4*%
X175500000Y-47350000D03*
X174850000Y-47350000D03*
X174200000Y-47350000D03*
X174200000Y-49250000D03*
X175500000Y-49250000D03*
%TD*%
D12*
%TO.C,R5*%
X176840000Y-46100000D03*
X177860000Y-46100000D03*
%TD*%
D18*
%TO.C,C10*%
X176850000Y-45100000D03*
X177810000Y-45100000D03*
%TD*%
D19*
%TO.C,U2*%
X163250000Y-43300000D03*
X164650000Y-43300000D03*
X163600000Y-43500000D03*
X164300000Y-43500000D03*
X163950000Y-43700000D03*
X163600000Y-43900000D03*
X164300000Y-43900000D03*
X163950000Y-44100000D03*
X163600000Y-44300000D03*
X164300000Y-44300000D03*
X163250000Y-44500000D03*
X164650000Y-44500000D03*
%TD*%
D11*
%TO.C,C6*%
X169210000Y-43700000D03*
X168250000Y-43700000D03*
%TD*%
D20*
%TO.C,FB1*%
X174615000Y-51500000D03*
X175585000Y-51500000D03*
%TD*%
D21*
%TO.C,R1*%
X161680000Y-51900000D03*
X161680000Y-50880000D03*
%TD*%
D13*
%TO.C,R2*%
X177860000Y-42460000D03*
X176840000Y-42460000D03*
%TD*%
D22*
%TO.C,U1*%
X163230000Y-47680000D03*
X163230000Y-48680000D03*
D23*
X161830000Y-47430000D03*
X161830000Y-47930000D03*
X161830000Y-48430000D03*
X161830000Y-48930000D03*
X164630000Y-48930000D03*
X164630000Y-48430000D03*
X164630000Y-47930000D03*
X164630000Y-47430000D03*
%TD*%
D16*
%TO.C,C2*%
X162100000Y-43770000D03*
X162100000Y-44730000D03*
%TD*%
D24*
%TO.C,Y1*%
X166250000Y-42500000D03*
X166250000Y-43900000D03*
%TD*%
D18*
%TO.C,C13*%
X176870000Y-49500000D03*
X177830000Y-49500000D03*
%TD*%
D11*
%TO.C,C9*%
X166830000Y-51400000D03*
X165870000Y-51400000D03*
%TD*%
%TO.C,C12*%
X177830000Y-51500000D03*
X176870000Y-51500000D03*
%TD*%
%TO.C,C11*%
X175530000Y-46100000D03*
X174570000Y-46100000D03*
%TD*%
D25*
%TO.C,D1*%
X174550000Y-44900000D03*
X174550000Y-42700000D03*
%TD*%
D13*
%TO.C,R4*%
X177870000Y-47200000D03*
X176850000Y-47200000D03*
%TD*%
D26*
%TO.C,Y2*%
X164147500Y-52062500D03*
X164147500Y-50662500D03*
X163047500Y-50662500D03*
X163047500Y-52062500D03*
%TD*%
D12*
%TO.C,R7*%
X176840000Y-50500000D03*
X177860000Y-50500000D03*
%TD*%
D18*
%TO.C,C7*%
X170270000Y-42600000D03*
X171230000Y-42600000D03*
%TD*%
M02*
