%TF.GenerationSoftware,KiCad,Pcbnew,8.0.0-rc2-74-g5f063dd458*%
%TF.CreationDate,2024-01-29T02:33:14+02:00*%
%TF.ProjectId,SamoMCU,53616d6f-4d43-4552-9e6b-696361645f70,rev?*%
%TF.SameCoordinates,Original*%
%TF.FileFunction,Legend,Top*%
%TF.FilePolarity,Positive*%
%FSLAX46Y46*%
G04 Gerber Fmt 4.6, Leading zero omitted, Abs format (unit mm)*
G04 Created by KiCad (PCBNEW 8.0.0-rc2-74-g5f063dd458) date 2024-01-29 02:33:14*
%MOMM*%
%LPD*%
G01*
G04 APERTURE LIST*
%ADD10C,0.000000*%
%ADD11C,0.120000*%
%ADD12C,0.200000*%
%ADD13C,0.500000*%
G04 APERTURE END LIST*
D10*
G36*
X179000000Y-53300000D02*
G01*
X161800000Y-53300000D01*
X161800000Y-53200000D01*
G75*
G03*
X160800000Y-52200000I-1000000J0D01*
G01*
X160800000Y-41900000D01*
X179000000Y-41900000D01*
X179000000Y-53300000D01*
G37*
D11*
%TO.C,C5*%
X168857836Y-42240000D02*
X168642164Y-42240000D01*
X168857836Y-42960000D02*
X168642164Y-42960000D01*
D12*
%TO.C,SWDIO1*%
X179000000Y-49550000D02*
X180000000Y-49550000D01*
X179000000Y-51550000D02*
X179000000Y-49550000D01*
X180000000Y-51550000D02*
X179000000Y-51550000D01*
%TO.C,AXAK1*%
X171300000Y-53250000D02*
X173300000Y-53250000D01*
X171300000Y-54250000D02*
X171300000Y-53250000D01*
X173300000Y-53250000D02*
X173300000Y-54250000D01*
%TO.C,KUYARAAK1*%
X173300000Y-41850000D02*
X173300000Y-40850000D01*
X175300000Y-40850000D02*
X175300000Y-41850000D01*
X175300000Y-41850000D02*
X173300000Y-41850000D01*
D11*
%TO.C,C4*%
X166457836Y-52030000D02*
X166242164Y-52030000D01*
X166457836Y-52750000D02*
X166242164Y-52750000D01*
D12*
%TO.C,BUSY1*%
X167300000Y-53250000D02*
X169300000Y-53250000D01*
X167300000Y-54250000D02*
X167300000Y-53250000D01*
X169300000Y-53250000D02*
X169300000Y-54250000D01*
D11*
%TO.C,R3*%
X177196359Y-43720000D02*
X177503641Y-43720000D01*
X177196359Y-44480000D02*
X177503641Y-44480000D01*
%TO.C,R6*%
X177503641Y-47920000D02*
X177196359Y-47920000D01*
X177503641Y-48680000D02*
X177196359Y-48680000D01*
%TO.C,U3*%
X167000000Y-50450000D02*
X167000000Y-50000000D01*
X167450000Y-50450000D02*
X167000000Y-50450000D01*
X171850000Y-45150000D02*
X172300000Y-45150000D01*
X171850000Y-50450000D02*
X172300000Y-50450000D01*
X172300000Y-45150000D02*
X172300000Y-45600000D01*
X172300000Y-50450000D02*
X172300000Y-50000000D01*
D13*
X167291421Y-45300000D02*
G75*
G02*
X167008579Y-45300000I-141421J0D01*
G01*
X167008579Y-45300000D02*
G75*
G02*
X167291421Y-45300000I141421J0D01*
G01*
D12*
%TO.C,V_CHK1*%
X177300000Y-53250000D02*
X179300000Y-53250000D01*
X177300000Y-54250000D02*
X177300000Y-53250000D01*
X179300000Y-53250000D02*
X179300000Y-54250000D01*
D11*
%TO.C,C1*%
X162647836Y-45920000D02*
X162432164Y-45920000D01*
X162647836Y-46640000D02*
X162432164Y-46640000D01*
%TO.C,C3*%
X170857836Y-43340000D02*
X170642164Y-43340000D01*
X170857836Y-44060000D02*
X170642164Y-44060000D01*
%TO.C,C8*%
X172090000Y-42992164D02*
X172090000Y-43207836D01*
X172810000Y-42992164D02*
X172810000Y-43207836D01*
%TO.C,U4*%
X173690000Y-47600000D02*
X173690000Y-49000000D01*
X176010000Y-49000000D02*
X176010000Y-47100000D01*
D12*
%TO.C,VCC1*%
X169300000Y-41850000D02*
X169300000Y-40850000D01*
X171300000Y-40850000D02*
X171300000Y-41850000D01*
X171300000Y-41850000D02*
X169300000Y-41850000D01*
%TO.C,SWDCK1*%
X179000000Y-51550000D02*
X180000000Y-51550000D01*
X179000000Y-53550000D02*
X179000000Y-51550000D01*
X180000000Y-53550000D02*
X179000000Y-53550000D01*
D11*
%TO.C,R5*%
X177196359Y-45720000D02*
X177503641Y-45720000D01*
X177196359Y-46480000D02*
X177503641Y-46480000D01*
D12*
%TO.C,RX1*%
X165300000Y-53250000D02*
X167300000Y-53250000D01*
X165300000Y-54250000D02*
X165300000Y-53250000D01*
X167300000Y-53250000D02*
X167300000Y-54250000D01*
D11*
%TO.C,C10*%
X177222164Y-44740000D02*
X177437836Y-44740000D01*
X177222164Y-45460000D02*
X177437836Y-45460000D01*
%TO.C,U2*%
X162946500Y-45213500D02*
X162946500Y-44616750D01*
X163388250Y-45213500D02*
X162946500Y-45213500D01*
X164511750Y-42586500D02*
X164953500Y-42586500D01*
X164511750Y-42586500D02*
X164953500Y-42586500D01*
X164511750Y-42586500D02*
X164953500Y-42586500D01*
X164511750Y-45213500D02*
X164953500Y-45213500D01*
X164953500Y-42586500D02*
X164953500Y-43183250D01*
X164953500Y-42586500D02*
X164953500Y-43183250D01*
X164953500Y-42586500D02*
X164953500Y-43183250D01*
X164953500Y-45213500D02*
X164953500Y-44616750D01*
D12*
X163166500Y-42706500D02*
G75*
G02*
X162966500Y-42706500I-100000J0D01*
G01*
X162966500Y-42706500D02*
G75*
G02*
X163166500Y-42706500I100000J0D01*
G01*
%TO.C,SDA1*%
X179000000Y-43550000D02*
X180000000Y-43550000D01*
X179000000Y-45550000D02*
X179000000Y-43550000D01*
X180000000Y-45550000D02*
X179000000Y-45550000D01*
%TO.C,D/C1*%
X167300000Y-41850000D02*
X167300000Y-40850000D01*
X169300000Y-40850000D02*
X169300000Y-41850000D01*
X169300000Y-41850000D02*
X167300000Y-41850000D01*
%TO.C,RES2*%
X177300000Y-41850000D02*
X177300000Y-40850000D01*
X179300000Y-40850000D02*
X179300000Y-41850000D01*
X179300000Y-41850000D02*
X177300000Y-41850000D01*
%TO.C,SCK1*%
X161300000Y-41850000D02*
X161300000Y-40850000D01*
X163300000Y-40850000D02*
X163300000Y-41850000D01*
X163300000Y-41850000D02*
X161300000Y-41850000D01*
D11*
%TO.C,C6*%
X168837836Y-43340000D02*
X168622164Y-43340000D01*
X168837836Y-44060000D02*
X168622164Y-44060000D01*
D12*
%TO.C,INT1*%
X173300000Y-53250000D02*
X175300000Y-53250000D01*
X173300000Y-54250000D02*
X173300000Y-53250000D01*
X175300000Y-53250000D02*
X175300000Y-54250000D01*
%TO.C,MOSI1*%
X163300000Y-41850000D02*
X163300000Y-40850000D01*
X165300000Y-40850000D02*
X165300000Y-41850000D01*
X165300000Y-41850000D02*
X163300000Y-41850000D01*
D11*
%TO.C,R1*%
X161300000Y-51543641D02*
X161300000Y-51236359D01*
X162060000Y-51543641D02*
X162060000Y-51236359D01*
%TO.C,R2*%
X177503641Y-42080000D02*
X177196359Y-42080000D01*
X177503641Y-42840000D02*
X177196359Y-42840000D01*
%TO.C,U1*%
X161730000Y-49290000D02*
X164730000Y-49290000D01*
X163230000Y-47070000D02*
X164730000Y-47070000D01*
D12*
%TO.C,TX1*%
X163300000Y-53250000D02*
X165300000Y-53250000D01*
X163300000Y-54250000D02*
X163300000Y-53250000D01*
X165300000Y-53250000D02*
X165300000Y-54250000D01*
D11*
%TO.C,C2*%
X161740000Y-44142164D02*
X161740000Y-44357836D01*
X162460000Y-44142164D02*
X162460000Y-44357836D01*
%TO.C,Y1*%
X165650000Y-42100000D02*
X165650000Y-44300000D01*
X166850000Y-42100000D02*
X165650000Y-42100000D01*
X166850000Y-44300000D02*
X165650000Y-44300000D01*
X166850000Y-44300000D02*
X166850000Y-42100000D01*
D12*
%TO.C,PIITH1*%
X169300000Y-53250000D02*
X171300000Y-53250000D01*
X169300000Y-54250000D02*
X169300000Y-53250000D01*
X171300000Y-53250000D02*
X171300000Y-54250000D01*
%TO.C,RES1*%
X161300000Y-53250000D02*
X163300000Y-53250000D01*
X161300000Y-54250000D02*
X161300000Y-53250000D01*
X163300000Y-53250000D02*
X163300000Y-54250000D01*
%TO.C,YIHTA1*%
X175300000Y-53250000D02*
X177300000Y-53250000D01*
X175300000Y-54250000D02*
X175300000Y-53250000D01*
X177300000Y-53250000D02*
X177300000Y-54250000D01*
D11*
%TO.C,C13*%
X177242164Y-49140000D02*
X177457836Y-49140000D01*
X177242164Y-49860000D02*
X177457836Y-49860000D01*
%TO.C,C9*%
X166457836Y-51040000D02*
X166242164Y-51040000D01*
X166457836Y-51760000D02*
X166242164Y-51760000D01*
%TO.C,C12*%
X177457836Y-51140000D02*
X177242164Y-51140000D01*
X177457836Y-51860000D02*
X177242164Y-51860000D01*
D12*
%TO.C,RES_TC1*%
X175300000Y-41850000D02*
X175300000Y-40850000D01*
X177300000Y-40850000D02*
X177300000Y-41850000D01*
X177300000Y-41850000D02*
X175300000Y-41850000D01*
D11*
%TO.C,C11*%
X175157836Y-45740000D02*
X174942164Y-45740000D01*
X175157836Y-46460000D02*
X174942164Y-46460000D01*
%TO.C,D1*%
X173700000Y-45410000D02*
X173700000Y-42750000D01*
X173700000Y-45410000D02*
X175400000Y-45410000D01*
X175400000Y-45410000D02*
X175400000Y-42750000D01*
D12*
%TO.C,GND1*%
X171300000Y-41850000D02*
X171300000Y-40850000D01*
X173300000Y-40850000D02*
X173300000Y-41850000D01*
X173300000Y-41850000D02*
X171300000Y-41850000D01*
%TO.C,MCU_OK1*%
X179000000Y-47550000D02*
X180000000Y-47550000D01*
X179000000Y-49550000D02*
X179000000Y-47550000D01*
X180000000Y-49550000D02*
X179000000Y-49550000D01*
%TO.C,CS1*%
X165300000Y-41850000D02*
X165300000Y-40850000D01*
X167300000Y-40850000D02*
X167300000Y-41850000D01*
X167300000Y-41850000D02*
X165300000Y-41850000D01*
D11*
%TO.C,R4*%
X177513641Y-46820000D02*
X177206359Y-46820000D01*
X177513641Y-47580000D02*
X177206359Y-47580000D01*
%TO.C,Y2*%
X162447500Y-52712500D02*
X164747500Y-52712500D01*
X164747500Y-52712500D02*
X164747500Y-50012500D01*
D13*
X165197501Y-52162500D02*
G75*
G02*
X165197499Y-52162500I-1J0D01*
G01*
X165197499Y-52162500D02*
G75*
G02*
X165197501Y-52162500I1J0D01*
G01*
D12*
%TO.C,DATA1*%
X179000000Y-41550000D02*
X180000000Y-41550000D01*
X179000000Y-43550000D02*
X179000000Y-41550000D01*
X180000000Y-43550000D02*
X179000000Y-43550000D01*
D11*
%TO.C,R7*%
X177196359Y-50120000D02*
X177503641Y-50120000D01*
X177196359Y-50880000D02*
X177503641Y-50880000D01*
D12*
%TO.C,SCL1*%
X179000000Y-45550000D02*
X180000000Y-45550000D01*
X179000000Y-47550000D02*
X179000000Y-45550000D01*
X180000000Y-47550000D02*
X179000000Y-47550000D01*
D11*
%TO.C,C7*%
X170642164Y-42240000D02*
X170857836Y-42240000D01*
X170642164Y-42960000D02*
X170857836Y-42960000D01*
%TD*%
M02*
