%TF.GenerationSoftware,KiCad,Pcbnew,8.0.0-rc2-74-g5f063dd458*%
%TF.CreationDate,2024-01-29T02:33:14+02:00*%
%TF.ProjectId,SamoMCU,53616d6f-4d43-4552-9e6b-696361645f70,rev?*%
%TF.SameCoordinates,Original*%
%TF.FileFunction,Copper,L2,Bot*%
%TF.FilePolarity,Positive*%
%FSLAX46Y46*%
G04 Gerber Fmt 4.6, Leading zero omitted, Abs format (unit mm)*
G04 Created by KiCad (PCBNEW 8.0.0-rc2-74-g5f063dd458) date 2024-01-29 02:33:14*
%MOMM*%
%LPD*%
G01*
G04 APERTURE LIST*
G04 Aperture macros list*
%AMRoundRect*
0 Rectangle with rounded corners*
0 $1 Rounding radius*
0 $2 $3 $4 $5 $6 $7 $8 $9 X,Y pos of 4 corners*
0 Add a 4 corners polygon primitive as box body*
4,1,4,$2,$3,$4,$5,$6,$7,$8,$9,$2,$3,0*
0 Add four circle primitives for the rounded corners*
1,1,$1+$1,$2,$3*
1,1,$1+$1,$4,$5*
1,1,$1+$1,$6,$7*
1,1,$1+$1,$8,$9*
0 Add four rect primitives between the rounded corners*
20,1,$1+$1,$2,$3,$4,$5,0*
20,1,$1+$1,$4,$5,$6,$7,0*
20,1,$1+$1,$6,$7,$8,$9,0*
20,1,$1+$1,$8,$9,$2,$3,0*%
G04 Aperture macros list end*
%TA.AperFunction,CastellatedPad*%
%ADD10RoundRect,0.500000X-0.500000X-0.250000X0.500000X-0.250000X0.500000X0.250000X-0.500000X0.250000X0*%
%TD*%
%TA.AperFunction,CastellatedPad*%
%ADD11RoundRect,0.500000X-0.250000X0.500000X-0.250000X-0.500000X0.250000X-0.500000X0.250000X0.500000X0*%
%TD*%
%TA.AperFunction,CastellatedPad*%
%ADD12RoundRect,0.500000X0.250000X-0.500000X0.250000X0.500000X-0.250000X0.500000X-0.250000X-0.500000X0*%
%TD*%
%TA.AperFunction,ViaPad*%
%ADD13C,0.550000*%
%TD*%
%TA.AperFunction,Conductor*%
%ADD14C,0.125000*%
%TD*%
%TA.AperFunction,Conductor*%
%ADD15C,0.400000*%
%TD*%
%TA.AperFunction,Conductor*%
%ADD16C,0.250000*%
%TD*%
G04 APERTURE END LIST*
D10*
%TO.P,SWDIO1,1,1*%
%TO.N,/SWDIO*%
X180250000Y-50550000D03*
%TD*%
D11*
%TO.P,AXAK1,1,1*%
%TO.N,/AXAK*%
X172300000Y-54500000D03*
%TD*%
D12*
%TO.P,KUYARAAK1,1,1*%
%TO.N,/KUYARAAK*%
X174300000Y-40600000D03*
%TD*%
D11*
%TO.P,BUSY1,1,1*%
%TO.N,/BUSY*%
X168300000Y-54500000D03*
%TD*%
%TO.P,V_CHK1,1,1*%
%TO.N,/V_CHK*%
X178300000Y-54500000D03*
%TD*%
D12*
%TO.P,VCC1,1,1*%
%TO.N,+3V3*%
X170300000Y-40600000D03*
%TD*%
D10*
%TO.P,SWDCK1,1,1*%
%TO.N,/SWDCK*%
X180250000Y-52550000D03*
%TD*%
D11*
%TO.P,RX1,1,1*%
%TO.N,/RX*%
X166300000Y-54500000D03*
%TD*%
D10*
%TO.P,SDA1,1,1*%
%TO.N,/SDA*%
X180250000Y-44550000D03*
%TD*%
D12*
%TO.P,D/C1,1,1*%
%TO.N,/D{slash}C*%
X168300000Y-40600000D03*
%TD*%
%TO.P,RES2,1,1*%
%TO.N,/RES*%
X178300000Y-40600000D03*
%TD*%
%TO.P,SCK1,1,1*%
%TO.N,/SCK*%
X162300000Y-40600000D03*
%TD*%
D11*
%TO.P,INT1,1,1*%
%TO.N,/INT*%
X174300000Y-54500000D03*
%TD*%
D12*
%TO.P,MOSI1,1,1*%
%TO.N,/MOSI*%
X164300000Y-40600000D03*
%TD*%
D11*
%TO.P,TX1,1,1*%
%TO.N,/TX*%
X164300000Y-54500000D03*
%TD*%
%TO.P,PIITH1,1,1*%
%TO.N,/PIITH*%
X170300000Y-54500000D03*
%TD*%
%TO.P,RES1,1,1*%
%TO.N,/P_GOOD*%
X162300000Y-54500000D03*
%TD*%
%TO.P,YIHTA1,1,1*%
%TO.N,/YIHTA*%
X176300000Y-54500000D03*
%TD*%
D12*
%TO.P,RES_TC1,1,1*%
%TO.N,/RES_TC*%
X176300000Y-40600000D03*
%TD*%
%TO.P,GND1,1,1*%
%TO.N,GND*%
X172300000Y-40600000D03*
%TD*%
D10*
%TO.P,MCU_OK1,1,1*%
%TO.N,/~{MCU_OK}*%
X180250000Y-48550000D03*
%TD*%
D12*
%TO.P,CS1,1,1*%
%TO.N,/CS*%
X166300000Y-40600000D03*
%TD*%
D10*
%TO.P,DATA1,1,1*%
%TO.N,/IN_DT*%
X180250000Y-42550000D03*
%TD*%
%TO.P,SCL1,1,1*%
%TO.N,/SCL*%
X180250000Y-46550000D03*
%TD*%
D13*
%TO.N,+3V3*%
X163700000Y-46500000D03*
X169780000Y-43150000D03*
X161690000Y-50350000D03*
X173980000Y-51520000D03*
X167390000Y-52290000D03*
X161622500Y-43800000D03*
%TO.N,GND*%
X162640000Y-49090000D03*
X173570000Y-44330000D03*
X171093750Y-47318750D03*
X161480000Y-46060000D03*
X163810000Y-49070000D03*
X165430000Y-43450000D03*
X170190000Y-51620000D03*
X162640000Y-48290000D03*
X171500000Y-41960000D03*
X165100000Y-50390000D03*
X168206250Y-49243750D03*
X175110000Y-48130000D03*
X165230000Y-42170000D03*
X163800000Y-48330000D03*
X164340000Y-53000000D03*
X163068164Y-42650892D03*
X161150000Y-43100000D03*
X167570000Y-42010000D03*
X176130000Y-52820000D03*
X178700000Y-47600000D03*
X173910000Y-43040000D03*
X173570000Y-45820000D03*
X161070000Y-48840000D03*
X176190000Y-47750000D03*
X170131250Y-46356250D03*
X171290000Y-53260000D03*
X171820000Y-43100000D03*
X170131250Y-49243750D03*
X161480618Y-49480000D03*
X167810000Y-43140000D03*
X169168750Y-46356250D03*
X176990000Y-43250000D03*
X162310000Y-49760000D03*
X161090000Y-45410000D03*
X178620000Y-45460000D03*
X175740000Y-43370000D03*
X171093750Y-48281250D03*
X170131250Y-47318750D03*
X170131250Y-48281250D03*
X168206251Y-46356252D03*
X165230000Y-52430000D03*
X161590000Y-42470000D03*
X171093750Y-49243750D03*
X174720000Y-43720000D03*
X178700000Y-48510000D03*
X173290000Y-53260000D03*
X171093750Y-46356250D03*
X172300000Y-41880000D03*
X173130000Y-41900000D03*
X177340000Y-52230000D03*
X169168750Y-48281250D03*
X178310000Y-52680000D03*
X163309852Y-41841073D03*
X169400000Y-53040000D03*
X168206250Y-48281250D03*
X169168750Y-47318750D03*
X169168750Y-49243750D03*
X161120000Y-41890000D03*
X178900000Y-51440000D03*
X178630000Y-43660000D03*
X168206250Y-47318750D03*
X166990000Y-50230000D03*
%TO.N,/P_GOOD*%
X167483324Y-51405824D03*
%TO.N,/D{slash}C*%
X168950000Y-44490000D03*
%TO.N,/~{MCU_OK}*%
X173290000Y-49800000D03*
%TO.N,/MOSI*%
X165290000Y-45290000D03*
%TO.N,/RES*%
X173236798Y-47838979D03*
%TO.N,/RES_TC*%
X173199996Y-47100000D03*
%TO.N,/SCK*%
X163750000Y-45150000D03*
%TO.N,/SCL*%
X173577229Y-49129852D03*
%TO.N,/SDA*%
X173310000Y-48510000D03*
%TO.N,/SWDCK*%
X172673816Y-50517891D03*
%TO.N,/SWDIO*%
X173380000Y-50570000D03*
%TO.N,/R_MISO*%
X161090000Y-47750000D03*
X166100000Y-48070000D03*
%TO.N,/RAM_CS*%
X161300000Y-46840000D03*
X165380000Y-47260000D03*
%TO.N,/R_SCK*%
X165500000Y-48430000D03*
X165690000Y-49400000D03*
%TO.N,Net-(U4-V+)*%
X177860000Y-47770000D03*
X175500000Y-49677500D03*
%TD*%
D14*
%TO.N,+3V3*%
X167837107Y-51087107D02*
X167836446Y-51086446D01*
D15*
X168565051Y-45309265D02*
X167334949Y-45309265D01*
X163641471Y-46500000D02*
X163700000Y-46500000D01*
D14*
X161987107Y-50647107D02*
X161690000Y-50350000D01*
D15*
X172210000Y-44824214D02*
X172210000Y-48935786D01*
X169487107Y-44801422D02*
X169272158Y-45016371D01*
X171242893Y-43442893D02*
X171917107Y-44117107D01*
X161622500Y-43800000D02*
X161622500Y-44066815D01*
D14*
X167482893Y-50940000D02*
X162694214Y-50940000D01*
D15*
X161915393Y-44773922D02*
X163641471Y-46500000D01*
X165315786Y-46500000D02*
X163700000Y-46500000D01*
X166627842Y-45602158D02*
X166022893Y-46207107D01*
D14*
X168450000Y-52295000D02*
X168130000Y-52295000D01*
D15*
X171007893Y-52002107D02*
X171805000Y-51205000D01*
X171917107Y-49642893D02*
X171862893Y-49697107D01*
X169780000Y-43150000D02*
X170535786Y-43150000D01*
X168450000Y-52295000D02*
X167395000Y-52295000D01*
X172534214Y-51520000D02*
X173980000Y-51520000D01*
X169780000Y-43150000D02*
X169780000Y-44094316D01*
X167395000Y-52295000D02*
X167390000Y-52290000D01*
D14*
X168130000Y-52295000D02*
X168130000Y-51794214D01*
D15*
X171805000Y-51205000D02*
X171827107Y-51227107D01*
X171716447Y-51116447D02*
X171805000Y-51205000D01*
X168450000Y-52295000D02*
X170300786Y-52295000D01*
X171570000Y-50404214D02*
X171570000Y-50762893D01*
X171570000Y-50404214D02*
G75*
G02*
X171862886Y-49697100I1000000J14D01*
G01*
X169487106Y-44801421D02*
G75*
G03*
X169780010Y-44094316I-707106J707121D01*
G01*
X166627842Y-45602158D02*
G75*
G02*
X167334949Y-45309310I707058J-707142D01*
G01*
D14*
X162694214Y-50940000D02*
G75*
G02*
X161987100Y-50647114I-14J1000000D01*
G01*
D15*
X171827107Y-51227107D02*
G75*
G03*
X172534214Y-51519990I707093J707107D01*
G01*
X171007893Y-52002107D02*
G75*
G02*
X170300786Y-52294990I-707093J707107D01*
G01*
X166022893Y-46207107D02*
G75*
G02*
X165315786Y-46499990I-707093J707107D01*
G01*
D14*
X168130000Y-51794214D02*
G75*
G03*
X167837114Y-51087100I-1000000J14D01*
G01*
X167836446Y-51086446D02*
G75*
G03*
X167482893Y-50940005I-353546J-353554D01*
G01*
D15*
X169272158Y-45016371D02*
G75*
G02*
X168565051Y-45309240I-707058J707071D01*
G01*
X161915394Y-44773921D02*
G75*
G02*
X161622490Y-44066815I707106J707121D01*
G01*
X171716447Y-51116447D02*
G75*
G02*
X171570005Y-50762893I353553J353547D01*
G01*
X172210000Y-48935786D02*
G75*
G02*
X171917114Y-49642900I-1000000J-14D01*
G01*
X170535786Y-43150000D02*
G75*
G02*
X171242900Y-43442886I14J-1000000D01*
G01*
X172210000Y-44824214D02*
G75*
G03*
X171917114Y-44117100I-1000000J14D01*
G01*
D14*
%TO.N,GND*%
X162310000Y-49760000D02*
X161967725Y-49760000D01*
X161614171Y-49613553D02*
X161480618Y-49480000D01*
X161614171Y-49613553D02*
G75*
G03*
X161967725Y-49759982I353529J353553D01*
G01*
%TO.N,/P_GOOD*%
X165333390Y-51405824D02*
X167483324Y-51405824D01*
X162300000Y-54025000D02*
X164626283Y-51698717D01*
X165333390Y-51405824D02*
G75*
G03*
X164626293Y-51698727I10J-999976D01*
G01*
%TO.N,/D{slash}C*%
X168450000Y-43575786D02*
X168450000Y-41225000D01*
X168950000Y-44490000D02*
X168742893Y-44282893D01*
X168742893Y-44282893D02*
G75*
G02*
X168450010Y-43575786I707107J707093D01*
G01*
%TO.N,/~{MCU_OK}*%
X178082893Y-49987107D02*
X179227107Y-48842893D01*
X179934214Y-48550000D02*
X180250000Y-48550000D01*
X174184214Y-50280000D02*
X177375786Y-50280000D01*
X173290000Y-49800000D02*
X173477107Y-49987107D01*
X178082893Y-49987107D02*
G75*
G02*
X177375786Y-50279990I-707093J707107D01*
G01*
X174184214Y-50280000D02*
G75*
G02*
X173477100Y-49987114I-14J1000000D01*
G01*
X179227107Y-48842893D02*
G75*
G02*
X179934214Y-48550010I707093J-707107D01*
G01*
%TO.N,/MOSI*%
X164300000Y-42892474D02*
X164300000Y-41075000D01*
X164524350Y-43812837D02*
X165290000Y-45290000D01*
X164524350Y-43812837D02*
G75*
G02*
X164300012Y-42892474I1775650J920337D01*
G01*
%TO.N,/RES*%
X173281021Y-47838979D02*
X178007107Y-43112893D01*
X178300000Y-42405786D02*
X178300000Y-40600000D01*
X173236798Y-47838979D02*
X173281021Y-47838979D01*
X178300000Y-42405786D02*
G75*
G02*
X178007114Y-43112900I-1000000J-14D01*
G01*
%TO.N,/RES_TC*%
X176300000Y-41075000D02*
X176300000Y-43585782D01*
X176007107Y-44292889D02*
X173199996Y-47100000D01*
X176007107Y-44292889D02*
G75*
G03*
X176299987Y-43585782I-707107J707089D01*
G01*
%TO.N,/SCK*%
X162300000Y-43285786D02*
X162300000Y-41075000D01*
X163750000Y-45147058D02*
X162524865Y-43921923D01*
X163750000Y-45150000D02*
X163750000Y-45147058D01*
X162524865Y-43921923D02*
G75*
G02*
X162299983Y-43285786I799135J640323D01*
G01*
%TO.N,/SCL*%
X176294214Y-46550000D02*
X180250000Y-46550000D01*
X174325960Y-48119433D02*
X173577229Y-49129852D01*
X174422307Y-48007693D02*
X175587107Y-46842893D01*
X174422308Y-48007694D02*
G75*
G03*
X174325958Y-48119432I707192J-707206D01*
G01*
X176294214Y-46550000D02*
G75*
G03*
X175587100Y-46842886I-14J-1000000D01*
G01*
%TO.N,/SDA*%
X177684214Y-44550000D02*
X179775000Y-44550000D01*
X173310000Y-48510000D02*
X176977107Y-44842893D01*
X176977107Y-44842893D02*
G75*
G02*
X177684214Y-44550010I707093J-707107D01*
G01*
%TO.N,/SWDCK*%
X179550000Y-52530000D02*
X180250000Y-52540000D01*
X173602639Y-51032500D02*
X173325540Y-51032511D01*
X177922893Y-51112893D02*
X178930000Y-52300000D01*
X174017106Y-50912585D02*
X173602639Y-51032500D01*
X172673816Y-50517891D02*
X173091498Y-50935573D01*
X178930000Y-52300000D02*
X179550000Y-52530000D01*
X174670236Y-50820000D02*
X177215786Y-50820000D01*
X174670236Y-50820000D02*
G75*
G03*
X174017103Y-50912576I-36J-2350000D01*
G01*
X173325540Y-51032511D02*
G75*
G02*
X173091475Y-50935596I-40J331011D01*
G01*
X177215786Y-50820000D02*
G75*
G02*
X177922900Y-51112886I14J-1000000D01*
G01*
%TO.N,/SWDIO*%
X173520000Y-50570000D02*
X173540000Y-50550000D01*
X173540000Y-50550000D02*
X179775000Y-50550000D01*
X173380000Y-50570000D02*
X173520000Y-50570000D01*
%TO.N,/R_MISO*%
X161090000Y-47750000D02*
X165327433Y-47750000D01*
X165327433Y-47750000D02*
G75*
G02*
X166099985Y-48070015I-33J-1092600D01*
G01*
%TO.N,/RAM_CS*%
X161444873Y-46984873D02*
X161300000Y-46840000D01*
X165362234Y-47277766D02*
X162151980Y-47277766D01*
X165380000Y-47260000D02*
X165362234Y-47277766D01*
X162151980Y-47277766D02*
G75*
G02*
X161444890Y-46984856I20J999966D01*
G01*
%TO.N,/R_SCK*%
X165690000Y-49400000D02*
X165690000Y-48827107D01*
X165543553Y-48473553D02*
X165500000Y-48430000D01*
X165690000Y-48827107D02*
G75*
G03*
X165543556Y-48473550I-500000J7D01*
G01*
D16*
%TO.N,Net-(U4-V+)*%
X176245393Y-49384607D02*
X177860000Y-47770000D01*
X175500000Y-49677500D02*
X175538286Y-49677500D01*
X176245393Y-49384607D02*
G75*
G02*
X175538286Y-49677490I-707093J707107D01*
G01*
%TD*%
%TA.AperFunction,Conductor*%
%TO.N,GND*%
G36*
X170481084Y-43530501D02*
G01*
X170530932Y-43530500D01*
X170540634Y-43530976D01*
X170646948Y-43541446D01*
X170665970Y-43545228D01*
X170763547Y-43574827D01*
X170781463Y-43582249D01*
X170871370Y-43630305D01*
X170887506Y-43641086D01*
X170970011Y-43708794D01*
X170977211Y-43715319D01*
X171644609Y-44382717D01*
X171651133Y-44389916D01*
X171674387Y-44418251D01*
X171701320Y-44451070D01*
X171718902Y-44472493D01*
X171729685Y-44488631D01*
X171777739Y-44578536D01*
X171785165Y-44596465D01*
X171814758Y-44694022D01*
X171818543Y-44713049D01*
X171823903Y-44767474D01*
X171829023Y-44819473D01*
X171829499Y-44829174D01*
X171829499Y-44886888D01*
X171829500Y-44886901D01*
X171829500Y-48875006D01*
X171829499Y-48875024D01*
X171829499Y-48930933D01*
X171829022Y-48940635D01*
X171818553Y-49046946D01*
X171814768Y-49065979D01*
X171785175Y-49163538D01*
X171777751Y-49181462D01*
X171764806Y-49205682D01*
X171729695Y-49271371D01*
X171718912Y-49287508D01*
X171651205Y-49370010D01*
X171644683Y-49377206D01*
X171632529Y-49389360D01*
X171632523Y-49389368D01*
X171632522Y-49389369D01*
X171632520Y-49389371D01*
X171622837Y-49399053D01*
X171622808Y-49399068D01*
X171529850Y-49492029D01*
X171419681Y-49635607D01*
X171329205Y-49792322D01*
X171329204Y-49792323D01*
X171259954Y-49959513D01*
X171213118Y-50134309D01*
X171213116Y-50134320D01*
X171189499Y-50313734D01*
X171189499Y-50313738D01*
X171189500Y-50360256D01*
X171189500Y-50819857D01*
X171189504Y-50819914D01*
X171189504Y-50832185D01*
X171189504Y-50832188D01*
X171189503Y-50832188D01*
X171211182Y-50969071D01*
X171254007Y-51100880D01*
X171254009Y-51100884D01*
X171260616Y-51113852D01*
X171260845Y-51114300D01*
X171270417Y-51174732D01*
X171242640Y-51229249D01*
X170777526Y-51694365D01*
X170777525Y-51694367D01*
X170742281Y-51729610D01*
X170735083Y-51736133D01*
X170652506Y-51803902D01*
X170636368Y-51814685D01*
X170546463Y-51862739D01*
X170528532Y-51870166D01*
X170430974Y-51899758D01*
X170411940Y-51903543D01*
X170305527Y-51914022D01*
X170295825Y-51914499D01*
X170238111Y-51914499D01*
X170238099Y-51914500D01*
X168472000Y-51914500D01*
X168413809Y-51895593D01*
X168377845Y-51846093D01*
X168373000Y-51815500D01*
X168373000Y-51735320D01*
X168372990Y-51735229D01*
X168372992Y-51696391D01*
X168358115Y-51602451D01*
X168342389Y-51503151D01*
X168321213Y-51437977D01*
X168281930Y-51317071D01*
X168193108Y-51142743D01*
X168177035Y-51120620D01*
X168078109Y-50984457D01*
X168052493Y-50958840D01*
X168052489Y-50958833D01*
X168041408Y-50947753D01*
X168041401Y-50947740D01*
X167956533Y-50862874D01*
X167956528Y-50862869D01*
X167910605Y-50832185D01*
X167834838Y-50781560D01*
X167834828Y-50781555D01*
X167699623Y-50725552D01*
X167699617Y-50725550D01*
X167699616Y-50725550D01*
X167556069Y-50696999D01*
X167482890Y-50697000D01*
X162745043Y-50697000D01*
X162745031Y-50696999D01*
X162699069Y-50696999D01*
X162689367Y-50696522D01*
X162556229Y-50683411D01*
X162537200Y-50679627D01*
X162413841Y-50642208D01*
X162395920Y-50634785D01*
X162286084Y-50576078D01*
X162243676Y-50531973D01*
X162239470Y-50521928D01*
X162195899Y-50399364D01*
X162122963Y-50194195D01*
X162121459Y-50190115D01*
X162121258Y-50189589D01*
X162112335Y-50175781D01*
X162105432Y-50163175D01*
X162077132Y-50101207D01*
X162077131Y-50101206D01*
X162044086Y-50063070D01*
X161991356Y-50002216D01*
X161955808Y-49979371D01*
X161881171Y-49931404D01*
X161881168Y-49931403D01*
X161881167Y-49931402D01*
X161814923Y-49911951D01*
X161755492Y-49894500D01*
X161755491Y-49894500D01*
X161624509Y-49894500D01*
X161624507Y-49894500D01*
X161498833Y-49931402D01*
X161498828Y-49931404D01*
X161388648Y-50002213D01*
X161388643Y-50002217D01*
X161302869Y-50101205D01*
X161248456Y-50220351D01*
X161229816Y-50349997D01*
X161229816Y-50350002D01*
X161248456Y-50479648D01*
X161280311Y-50549399D01*
X161302869Y-50598794D01*
X161388644Y-50697784D01*
X161489964Y-50762898D01*
X161498833Y-50768598D01*
X161498835Y-50768599D01*
X161506399Y-50770820D01*
X161527091Y-50780032D01*
X161527096Y-50780023D01*
X161527370Y-50780156D01*
X161530441Y-50781524D01*
X161530826Y-50781761D01*
X161531470Y-50782158D01*
X161756160Y-50865675D01*
X161942875Y-50935077D01*
X161966572Y-50947781D01*
X162042734Y-51003115D01*
X162179774Y-51072938D01*
X162217067Y-51091939D01*
X162403146Y-51152397D01*
X162596391Y-51183002D01*
X162694217Y-51183000D01*
X162737065Y-51183000D01*
X164597045Y-51183000D01*
X164655236Y-51201907D01*
X164691200Y-51251407D01*
X164691200Y-51312593D01*
X164655238Y-51362091D01*
X164523627Y-51457716D01*
X164523622Y-51457720D01*
X164461936Y-51519409D01*
X164461935Y-51519411D01*
X163174143Y-52807201D01*
X163143855Y-52827881D01*
X162040316Y-53311184D01*
X162000600Y-53319500D01*
X161994997Y-53319500D01*
X161926437Y-53325730D01*
X161768662Y-53374894D01*
X161627243Y-53460384D01*
X161510384Y-53577243D01*
X161424894Y-53718662D01*
X161375730Y-53876437D01*
X161369500Y-53944997D01*
X161369500Y-53990500D01*
X161350593Y-54048691D01*
X161301093Y-54084655D01*
X161270500Y-54089500D01*
X160859500Y-54089500D01*
X160801309Y-54070593D01*
X160765345Y-54021093D01*
X160760500Y-53990500D01*
X160760500Y-48259470D01*
X160779407Y-48201279D01*
X160828907Y-48165315D01*
X160890093Y-48165315D01*
X160897568Y-48168226D01*
X160898831Y-48168596D01*
X160898833Y-48168598D01*
X161024509Y-48205500D01*
X161024510Y-48205500D01*
X161155490Y-48205500D01*
X161155491Y-48205500D01*
X161267626Y-48172573D01*
X161274836Y-48170748D01*
X161279479Y-48169758D01*
X161671112Y-48001074D01*
X161710275Y-47993000D01*
X165059171Y-47993000D01*
X165117362Y-48011907D01*
X165153326Y-48061407D01*
X165153326Y-48122593D01*
X165133991Y-48156829D01*
X165121256Y-48171527D01*
X165112868Y-48181207D01*
X165058456Y-48300351D01*
X165039816Y-48429997D01*
X165039816Y-48430002D01*
X165058456Y-48559648D01*
X165112869Y-48678794D01*
X165169200Y-48743804D01*
X165175493Y-48751874D01*
X165185840Y-48766660D01*
X165185843Y-48766664D01*
X165298974Y-48875024D01*
X165331301Y-48905987D01*
X165360246Y-48959893D01*
X165353746Y-49016644D01*
X165270192Y-49210635D01*
X165267824Y-49222022D01*
X165260954Y-49242984D01*
X165248457Y-49270350D01*
X165248455Y-49270356D01*
X165229816Y-49399997D01*
X165229816Y-49400002D01*
X165248456Y-49529648D01*
X165285037Y-49609747D01*
X165302869Y-49648794D01*
X165388644Y-49747784D01*
X165425866Y-49771705D01*
X165498655Y-49818484D01*
X165498833Y-49818598D01*
X165624509Y-49855500D01*
X165624510Y-49855500D01*
X165755490Y-49855500D01*
X165755491Y-49855500D01*
X165881167Y-49818598D01*
X165991356Y-49747784D01*
X166077131Y-49648794D01*
X166131543Y-49529649D01*
X166150184Y-49400000D01*
X166148655Y-49389369D01*
X166131543Y-49270352D01*
X166131543Y-49270351D01*
X166119120Y-49243150D01*
X166112358Y-49222701D01*
X166109758Y-49210520D01*
X165952067Y-48844410D01*
X165944092Y-48800822D01*
X165945621Y-48766664D01*
X165952180Y-48620073D01*
X165973670Y-48562787D01*
X166024728Y-48529072D01*
X166051081Y-48525500D01*
X166165490Y-48525500D01*
X166165491Y-48525500D01*
X166291167Y-48488598D01*
X166401356Y-48417784D01*
X166487131Y-48318794D01*
X166541543Y-48199649D01*
X166560184Y-48070000D01*
X166558948Y-48061407D01*
X166541543Y-47940351D01*
X166495286Y-47839063D01*
X166487131Y-47821206D01*
X166401356Y-47722216D01*
X166371372Y-47702946D01*
X166291171Y-47651404D01*
X166291168Y-47651403D01*
X166291167Y-47651402D01*
X166203740Y-47625731D01*
X166165492Y-47614500D01*
X166165491Y-47614500D01*
X166145905Y-47614500D01*
X166120888Y-47610244D01*
X166120690Y-47611061D01*
X166115959Y-47609909D01*
X165876178Y-47575976D01*
X165821211Y-47549102D01*
X165792538Y-47495051D01*
X165799996Y-47436829D01*
X165821543Y-47389649D01*
X165821543Y-47389647D01*
X165821544Y-47389646D01*
X165840184Y-47260002D01*
X165840184Y-47259997D01*
X165821543Y-47130351D01*
X165793092Y-47068052D01*
X165767131Y-47011206D01*
X165727006Y-46964899D01*
X165703188Y-46908540D01*
X165717046Y-46848945D01*
X165763287Y-46808877D01*
X165763637Y-46808730D01*
X165927671Y-46740787D01*
X166084392Y-46650307D01*
X166227963Y-46540144D01*
X166242595Y-46525510D01*
X166242601Y-46525507D01*
X166302494Y-46465614D01*
X166302498Y-46465610D01*
X166330629Y-46437480D01*
X166330629Y-46437479D01*
X166338771Y-46429338D01*
X166338778Y-46429328D01*
X166893453Y-45874654D01*
X166900636Y-45868145D01*
X166983224Y-45800375D01*
X166999350Y-45789601D01*
X167089270Y-45741544D01*
X167107185Y-45734125D01*
X167204753Y-45704534D01*
X167223769Y-45700752D01*
X167330559Y-45690240D01*
X167340242Y-45689765D01*
X167389638Y-45689768D01*
X167389642Y-45689766D01*
X167396839Y-45689767D01*
X167396880Y-45689765D01*
X168621528Y-45689765D01*
X168621865Y-45689742D01*
X168655516Y-45689744D01*
X168834935Y-45666131D01*
X169009738Y-45619299D01*
X169176931Y-45550051D01*
X169333655Y-45459571D01*
X169477227Y-45349408D01*
X169494432Y-45332203D01*
X169494436Y-45332200D01*
X169505788Y-45320847D01*
X169505790Y-45320847D01*
X169541210Y-45285427D01*
X169541210Y-45285428D01*
X169579894Y-45246744D01*
X169579894Y-45246742D01*
X169588044Y-45238593D01*
X169588045Y-45238590D01*
X169791583Y-45035054D01*
X169791584Y-45035051D01*
X169796580Y-45030056D01*
X169796681Y-45029940D01*
X169820132Y-45006491D01*
X169930297Y-44862924D01*
X170020781Y-44706206D01*
X170090036Y-44539017D01*
X170136875Y-44364220D01*
X170160498Y-44184804D01*
X170160498Y-44155945D01*
X170160500Y-44155928D01*
X170160500Y-44055608D01*
X170160501Y-44039614D01*
X170160500Y-44039610D01*
X170160500Y-43745102D01*
X170164732Y-43719842D01*
X170164052Y-43719680D01*
X170165179Y-43714944D01*
X170170815Y-43673609D01*
X170176584Y-43631298D01*
X170203179Y-43576197D01*
X170257084Y-43547251D01*
X170261256Y-43546590D01*
X170344945Y-43535178D01*
X170345968Y-43534863D01*
X170347233Y-43534673D01*
X170348876Y-43534312D01*
X170348900Y-43534423D01*
X170375035Y-43530500D01*
X170481081Y-43530500D01*
X170481084Y-43530501D01*
G37*
%TD.AperFunction*%
%TA.AperFunction,Conductor*%
G36*
X177172942Y-51063001D02*
G01*
X177210930Y-51063000D01*
X177220632Y-51063477D01*
X177240597Y-51065443D01*
X177353773Y-51076588D01*
X177372791Y-51080370D01*
X177496164Y-51117793D01*
X177514074Y-51125212D01*
X177627762Y-51185977D01*
X177643898Y-51196759D01*
X177740609Y-51276127D01*
X177753297Y-51288609D01*
X178455145Y-52115897D01*
X178470390Y-52140350D01*
X178471740Y-52143444D01*
X178878838Y-52728635D01*
X179127670Y-53086323D01*
X179131123Y-53091642D01*
X179185841Y-53182156D01*
X179210387Y-53222760D01*
X179327240Y-53339613D01*
X179468663Y-53425106D01*
X179626436Y-53474269D01*
X179695002Y-53480500D01*
X179740500Y-53480500D01*
X179798691Y-53499407D01*
X179834655Y-53548907D01*
X179839500Y-53579500D01*
X179839500Y-53990500D01*
X179820593Y-54048691D01*
X179771093Y-54084655D01*
X179740500Y-54089500D01*
X179329500Y-54089500D01*
X179271309Y-54070593D01*
X179235345Y-54021093D01*
X179230500Y-53990500D01*
X179230500Y-53945006D01*
X179230500Y-53945002D01*
X179224269Y-53876436D01*
X179175106Y-53718663D01*
X179089613Y-53577240D01*
X178972760Y-53460387D01*
X178972757Y-53460385D01*
X178972756Y-53460384D01*
X178831337Y-53374894D01*
X178673562Y-53325730D01*
X178605002Y-53319500D01*
X178604998Y-53319500D01*
X177995002Y-53319500D01*
X177994997Y-53319500D01*
X177926437Y-53325730D01*
X177768662Y-53374894D01*
X177627243Y-53460384D01*
X177510384Y-53577243D01*
X177424894Y-53718662D01*
X177394518Y-53816146D01*
X177359155Y-53866077D01*
X177301197Y-53885687D01*
X177242782Y-53867484D01*
X177206222Y-53818423D01*
X177205482Y-53816146D01*
X177175106Y-53718663D01*
X177089613Y-53577240D01*
X176972760Y-53460387D01*
X176972757Y-53460385D01*
X176972756Y-53460384D01*
X176831337Y-53374894D01*
X176673562Y-53325730D01*
X176605002Y-53319500D01*
X176604998Y-53319500D01*
X175995002Y-53319500D01*
X175994997Y-53319500D01*
X175926437Y-53325730D01*
X175768662Y-53374894D01*
X175627243Y-53460384D01*
X175510384Y-53577243D01*
X175424894Y-53718662D01*
X175394518Y-53816146D01*
X175359155Y-53866077D01*
X175301197Y-53885687D01*
X175242782Y-53867484D01*
X175206222Y-53818423D01*
X175205482Y-53816146D01*
X175175106Y-53718663D01*
X175089613Y-53577240D01*
X174972760Y-53460387D01*
X174972757Y-53460385D01*
X174972756Y-53460384D01*
X174831337Y-53374894D01*
X174673562Y-53325730D01*
X174605002Y-53319500D01*
X174604998Y-53319500D01*
X173995002Y-53319500D01*
X173994997Y-53319500D01*
X173926437Y-53325730D01*
X173768662Y-53374894D01*
X173627243Y-53460384D01*
X173510384Y-53577243D01*
X173424894Y-53718662D01*
X173394518Y-53816146D01*
X173359155Y-53866077D01*
X173301197Y-53885687D01*
X173242782Y-53867484D01*
X173206222Y-53818423D01*
X173205482Y-53816146D01*
X173175106Y-53718663D01*
X173089613Y-53577240D01*
X172972760Y-53460387D01*
X172972757Y-53460385D01*
X172972756Y-53460384D01*
X172831337Y-53374894D01*
X172673562Y-53325730D01*
X172605002Y-53319500D01*
X172604998Y-53319500D01*
X171995002Y-53319500D01*
X171994997Y-53319500D01*
X171926437Y-53325730D01*
X171768662Y-53374894D01*
X171627243Y-53460384D01*
X171510384Y-53577243D01*
X171424894Y-53718662D01*
X171394518Y-53816146D01*
X171359155Y-53866077D01*
X171301197Y-53885687D01*
X171242782Y-53867484D01*
X171206222Y-53818423D01*
X171205482Y-53816146D01*
X171175106Y-53718663D01*
X171089613Y-53577240D01*
X170972760Y-53460387D01*
X170972757Y-53460385D01*
X170972756Y-53460384D01*
X170831337Y-53374894D01*
X170673562Y-53325730D01*
X170605002Y-53319500D01*
X170604998Y-53319500D01*
X169995002Y-53319500D01*
X169994997Y-53319500D01*
X169926437Y-53325730D01*
X169768662Y-53374894D01*
X169627243Y-53460384D01*
X169510384Y-53577243D01*
X169424894Y-53718662D01*
X169394518Y-53816146D01*
X169359155Y-53866077D01*
X169301197Y-53885687D01*
X169242782Y-53867484D01*
X169206222Y-53818423D01*
X169205482Y-53816146D01*
X169175106Y-53718663D01*
X169089613Y-53577240D01*
X168972760Y-53460387D01*
X168972757Y-53460385D01*
X168972756Y-53460384D01*
X168831337Y-53374894D01*
X168673562Y-53325730D01*
X168605002Y-53319500D01*
X168604998Y-53319500D01*
X167995002Y-53319500D01*
X167994997Y-53319500D01*
X167926437Y-53325730D01*
X167768662Y-53374894D01*
X167627243Y-53460384D01*
X167510384Y-53577243D01*
X167424894Y-53718662D01*
X167394518Y-53816146D01*
X167359155Y-53866077D01*
X167301197Y-53885687D01*
X167242782Y-53867484D01*
X167206222Y-53818423D01*
X167205482Y-53816146D01*
X167175106Y-53718663D01*
X167089613Y-53577240D01*
X166972760Y-53460387D01*
X166972757Y-53460385D01*
X166972756Y-53460384D01*
X166831337Y-53374894D01*
X166673562Y-53325730D01*
X166605002Y-53319500D01*
X166604998Y-53319500D01*
X165995002Y-53319500D01*
X165994997Y-53319500D01*
X165926437Y-53325730D01*
X165768662Y-53374894D01*
X165627243Y-53460384D01*
X165510384Y-53577243D01*
X165424894Y-53718662D01*
X165394518Y-53816146D01*
X165359155Y-53866077D01*
X165301197Y-53885687D01*
X165242782Y-53867484D01*
X165206222Y-53818423D01*
X165205482Y-53816146D01*
X165175106Y-53718663D01*
X165089613Y-53577240D01*
X164972760Y-53460387D01*
X164972757Y-53460385D01*
X164972756Y-53460384D01*
X164831337Y-53374894D01*
X164673562Y-53325730D01*
X164605002Y-53319500D01*
X164604998Y-53319500D01*
X163995002Y-53319500D01*
X163994997Y-53319500D01*
X163926437Y-53325730D01*
X163768666Y-53374893D01*
X163768663Y-53374894D01*
X163645875Y-53449122D01*
X163629609Y-53458955D01*
X163570029Y-53472878D01*
X163513644Y-53449122D01*
X163481990Y-53396760D01*
X163480903Y-53357010D01*
X163483976Y-53339615D01*
X163511792Y-53182154D01*
X163539276Y-53129376D01*
X164758299Y-51910353D01*
X164758311Y-51910345D01*
X164767815Y-51900839D01*
X164767817Y-51900839D01*
X164794682Y-51873972D01*
X164801854Y-51867469D01*
X164905298Y-51782572D01*
X164921413Y-51771803D01*
X165035111Y-51711028D01*
X165053023Y-51703608D01*
X165176390Y-51666183D01*
X165195407Y-51662401D01*
X165320148Y-51650114D01*
X165328408Y-51649301D01*
X165338112Y-51648824D01*
X165376240Y-51648824D01*
X166863049Y-51648824D01*
X166902211Y-51656899D01*
X166989202Y-51694367D01*
X167108748Y-51745857D01*
X167154713Y-51786241D01*
X167168162Y-51845930D01*
X167143959Y-51902125D01*
X167123110Y-51920066D01*
X167088645Y-51942215D01*
X167088643Y-51942217D01*
X167002869Y-52041205D01*
X166948456Y-52160351D01*
X166929816Y-52289997D01*
X166929816Y-52290002D01*
X166948456Y-52419648D01*
X166960176Y-52445310D01*
X167002869Y-52538794D01*
X167088644Y-52637784D01*
X167198833Y-52708598D01*
X167324509Y-52745500D01*
X167396799Y-52745500D01*
X167403678Y-52745739D01*
X167426592Y-52747335D01*
X167426592Y-52747334D01*
X167426593Y-52747335D01*
X167434750Y-52746295D01*
X167447271Y-52745500D01*
X167455488Y-52745500D01*
X167455491Y-52745500D01*
X167459068Y-52744449D01*
X167474431Y-52741234D01*
X167952247Y-52680313D01*
X167954372Y-52679675D01*
X167982820Y-52675500D01*
X170357711Y-52675500D01*
X170357849Y-52675490D01*
X170391263Y-52675491D01*
X170570680Y-52651873D01*
X170745480Y-52605038D01*
X170912671Y-52535787D01*
X171069392Y-52445307D01*
X171212963Y-52335144D01*
X171227595Y-52320510D01*
X171227601Y-52320507D01*
X171287303Y-52260805D01*
X171287307Y-52260801D01*
X171315629Y-52232480D01*
X171315629Y-52232479D01*
X171323771Y-52224338D01*
X171323778Y-52224328D01*
X171783015Y-51765091D01*
X171837530Y-51737316D01*
X171897962Y-51746887D01*
X171902515Y-51749359D01*
X171922325Y-51760796D01*
X172089517Y-51830047D01*
X172210625Y-51862496D01*
X172264309Y-51876881D01*
X172264313Y-51876881D01*
X172264318Y-51876883D01*
X172443736Y-51900501D01*
X172534219Y-51900500D01*
X173384902Y-51900500D01*
X173410167Y-51904731D01*
X173410329Y-51904052D01*
X173415046Y-51905175D01*
X173415055Y-51905178D01*
X173893051Y-51970359D01*
X173907568Y-51973461D01*
X173914509Y-51975500D01*
X173924029Y-51975500D01*
X173937404Y-51976407D01*
X173941703Y-51976994D01*
X173941705Y-51976994D01*
X173941711Y-51976995D01*
X173946740Y-51977512D01*
X173953893Y-51978248D01*
X173955431Y-51978355D01*
X173956868Y-51978447D01*
X173957230Y-51978471D01*
X173957230Y-51978470D01*
X173957232Y-51978471D01*
X173964036Y-51977340D01*
X173967054Y-51976839D01*
X173983282Y-51975500D01*
X174045490Y-51975500D01*
X174045491Y-51975500D01*
X174171167Y-51938598D01*
X174281356Y-51867784D01*
X174367131Y-51768794D01*
X174421543Y-51649649D01*
X174440184Y-51520000D01*
X174440099Y-51519411D01*
X174421543Y-51390351D01*
X174399787Y-51342712D01*
X174367131Y-51271206D01*
X174344179Y-51244718D01*
X174320362Y-51188360D01*
X174334220Y-51128765D01*
X174380461Y-51088697D01*
X174405102Y-51081869D01*
X174468114Y-51072938D01*
X174477360Y-51072067D01*
X174668124Y-51063108D01*
X174672766Y-51063000D01*
X174713080Y-51063001D01*
X174713083Y-51063000D01*
X177172939Y-51063000D01*
X177172942Y-51063001D01*
G37*
%TD.AperFunction*%
%TA.AperFunction,Conductor*%
G36*
X178463305Y-50807613D02*
G01*
X179312060Y-51328286D01*
X179322223Y-51336301D01*
X179322524Y-51335918D01*
X179327235Y-51339608D01*
X179327240Y-51339613D01*
X179468663Y-51425106D01*
X179491810Y-51432318D01*
X179500786Y-51435652D01*
X179501512Y-51435907D01*
X179501525Y-51435913D01*
X179507806Y-51437639D01*
X179507810Y-51437639D01*
X179510511Y-51438382D01*
X179510508Y-51438392D01*
X179515552Y-51439716D01*
X179550856Y-51450717D01*
X179600786Y-51486078D01*
X179620396Y-51544036D01*
X179602194Y-51602451D01*
X179553133Y-51639012D01*
X179535387Y-51643241D01*
X178836726Y-51742925D01*
X178776448Y-51732427D01*
X178747249Y-51708964D01*
X178736582Y-51696391D01*
X178248115Y-51120620D01*
X178137929Y-50990740D01*
X178130034Y-50978420D01*
X178129984Y-50978456D01*
X178125018Y-50971366D01*
X178125017Y-50971362D01*
X178115659Y-50962004D01*
X178087880Y-50907490D01*
X178097450Y-50847058D01*
X178140713Y-50803792D01*
X178185661Y-50793000D01*
X178411538Y-50793000D01*
X178463305Y-50807613D01*
G37*
%TD.AperFunction*%
%TA.AperFunction,Conductor*%
G36*
X178463305Y-46807613D02*
G01*
X179312060Y-47328286D01*
X179322223Y-47336301D01*
X179322524Y-47335918D01*
X179327235Y-47339608D01*
X179327240Y-47339613D01*
X179468663Y-47425106D01*
X179491810Y-47432318D01*
X179500786Y-47435652D01*
X179501512Y-47435907D01*
X179501525Y-47435913D01*
X179507806Y-47437639D01*
X179507810Y-47437639D01*
X179510511Y-47438382D01*
X179510508Y-47438391D01*
X179515546Y-47439714D01*
X179566148Y-47455482D01*
X179616077Y-47490844D01*
X179635687Y-47548802D01*
X179617485Y-47607217D01*
X179568423Y-47643777D01*
X179566147Y-47644516D01*
X179468666Y-47674892D01*
X179468664Y-47674893D01*
X179327243Y-47760384D01*
X179210384Y-47877243D01*
X179124893Y-48018664D01*
X179124891Y-48018668D01*
X179075855Y-48176034D01*
X179068330Y-48193841D01*
X178942548Y-48425374D01*
X178942546Y-48425378D01*
X178929903Y-48454270D01*
X178929894Y-48454293D01*
X178928629Y-48458018D01*
X178921057Y-48488666D01*
X178909478Y-48561777D01*
X178899907Y-48591235D01*
X178883224Y-48623977D01*
X178865018Y-48649036D01*
X178821185Y-48692869D01*
X178808843Y-48703339D01*
X178799880Y-48709761D01*
X178799878Y-48709762D01*
X178794923Y-48714587D01*
X178794906Y-48714606D01*
X178761332Y-48758941D01*
X178523066Y-49197522D01*
X178506078Y-49220266D01*
X177914509Y-49811836D01*
X177907309Y-49818361D01*
X177803890Y-49903233D01*
X177787754Y-49914015D01*
X177674076Y-49974776D01*
X177656145Y-49982202D01*
X177532802Y-50019616D01*
X177513767Y-50023402D01*
X177380528Y-50036522D01*
X177370826Y-50036999D01*
X177324969Y-50036999D01*
X177324957Y-50037000D01*
X176174034Y-50037000D01*
X176115843Y-50018093D01*
X176079879Y-49968593D01*
X176079879Y-49907407D01*
X176115843Y-49857907D01*
X176125492Y-49851718D01*
X176150041Y-49837906D01*
X176176830Y-49822835D01*
X176183014Y-49819196D01*
X176183777Y-49818727D01*
X176184036Y-49818477D01*
X176184817Y-49817921D01*
X176187995Y-49815461D01*
X176188093Y-49815587D01*
X176207762Y-49801578D01*
X176222514Y-49794063D01*
X176388759Y-49673281D01*
X176432972Y-49629069D01*
X176432974Y-49629068D01*
X176477431Y-49584611D01*
X176495627Y-49566416D01*
X176495627Y-49566414D01*
X176503772Y-49558270D01*
X176503774Y-49558266D01*
X177646337Y-48415703D01*
X177668609Y-48398976D01*
X178045505Y-48191626D01*
X178045509Y-48191622D01*
X178046999Y-48190803D01*
X178050375Y-48189107D01*
X178054022Y-48186763D01*
X178161356Y-48117784D01*
X178247131Y-48018794D01*
X178301543Y-47899649D01*
X178320184Y-47770000D01*
X178319223Y-47763317D01*
X178301543Y-47640351D01*
X178289737Y-47614500D01*
X178247131Y-47521206D01*
X178161356Y-47422216D01*
X178110676Y-47389646D01*
X178051171Y-47351404D01*
X178051168Y-47351403D01*
X178051167Y-47351402D01*
X177972442Y-47328286D01*
X177925492Y-47314500D01*
X177925491Y-47314500D01*
X177794509Y-47314500D01*
X177794507Y-47314500D01*
X177668833Y-47351402D01*
X177668828Y-47351404D01*
X177558648Y-47422213D01*
X177558643Y-47422217D01*
X177472869Y-47521204D01*
X177472868Y-47521206D01*
X177456216Y-47557669D01*
X177441925Y-47580268D01*
X177438373Y-47584489D01*
X177231024Y-47961384D01*
X177214288Y-47983668D01*
X176032816Y-49165141D01*
X176025617Y-49171665D01*
X175953088Y-49231188D01*
X175896111Y-49253488D01*
X175880687Y-49253194D01*
X175577341Y-49223652D01*
X175572538Y-49222724D01*
X175572498Y-49223007D01*
X175565491Y-49222000D01*
X175565490Y-49222000D01*
X175565178Y-49222000D01*
X175555583Y-49221534D01*
X175530769Y-49219117D01*
X175523566Y-49218590D01*
X175521906Y-49218469D01*
X175520808Y-49218415D01*
X175520807Y-49218415D01*
X175508287Y-49220568D01*
X175491511Y-49222000D01*
X175434507Y-49222000D01*
X175308833Y-49258902D01*
X175308828Y-49258904D01*
X175198648Y-49329713D01*
X175198643Y-49329717D01*
X175112869Y-49428705D01*
X175058456Y-49547851D01*
X175039816Y-49677497D01*
X175039816Y-49677502D01*
X175058456Y-49807148D01*
X175099433Y-49896873D01*
X175106408Y-49957660D01*
X175076322Y-50010937D01*
X175020666Y-50036355D01*
X175009380Y-50037000D01*
X174235043Y-50037000D01*
X174235031Y-50036999D01*
X174189069Y-50036999D01*
X174179367Y-50036522D01*
X174046229Y-50023411D01*
X174027200Y-50019627D01*
X173923027Y-49988028D01*
X173872833Y-49953045D01*
X173862180Y-49935423D01*
X173737613Y-49670450D01*
X173729968Y-49609747D01*
X173759465Y-49556141D01*
X173773670Y-49545060D01*
X173878585Y-49477636D01*
X173964360Y-49378646D01*
X174018772Y-49259501D01*
X174022073Y-49236534D01*
X174023758Y-49227699D01*
X174121831Y-48816416D01*
X174138586Y-48780445D01*
X174520474Y-48265085D01*
X174521916Y-48263190D01*
X174542613Y-48236652D01*
X174545687Y-48232902D01*
X174566853Y-48208355D01*
X174570124Y-48204747D01*
X174593398Y-48180298D01*
X174595061Y-48178592D01*
X174624431Y-48149224D01*
X174624431Y-48149223D01*
X174638350Y-48135305D01*
X174638353Y-48135299D01*
X175755500Y-47018153D01*
X175762681Y-47011646D01*
X175866111Y-46926764D01*
X175882238Y-46915988D01*
X175995936Y-46855217D01*
X176013845Y-46847800D01*
X176137201Y-46810382D01*
X176156227Y-46806597D01*
X176240983Y-46798251D01*
X176289471Y-46793477D01*
X176299172Y-46793000D01*
X176337058Y-46793001D01*
X176337061Y-46793000D01*
X178411538Y-46793000D01*
X178463305Y-46807613D01*
G37*
%TD.AperFunction*%
%TA.AperFunction,Conductor*%
G36*
X161328691Y-41029407D02*
G01*
X161364655Y-41078907D01*
X161369500Y-41109500D01*
X161369500Y-41155002D01*
X161375730Y-41223562D01*
X161424894Y-41381337D01*
X161510384Y-41522756D01*
X161514082Y-41527476D01*
X161513698Y-41527776D01*
X161521711Y-41537936D01*
X162039567Y-42382098D01*
X162042387Y-42386694D01*
X162057000Y-42438462D01*
X162057000Y-43234475D01*
X162056797Y-43236850D01*
X162056833Y-43245649D01*
X162056805Y-43245735D01*
X162056999Y-43289976D01*
X162057000Y-43290409D01*
X162057000Y-43342263D01*
X162057238Y-43344629D01*
X162057289Y-43356229D01*
X162038638Y-43414502D01*
X161989296Y-43450683D01*
X161928112Y-43450952D01*
X161904767Y-43439948D01*
X161813671Y-43381404D01*
X161813668Y-43381403D01*
X161813667Y-43381402D01*
X161727936Y-43356229D01*
X161687992Y-43344500D01*
X161687991Y-43344500D01*
X161557009Y-43344500D01*
X161557007Y-43344500D01*
X161431333Y-43381402D01*
X161431328Y-43381404D01*
X161321148Y-43452213D01*
X161321143Y-43452217D01*
X161235369Y-43551205D01*
X161180956Y-43670351D01*
X161162316Y-43799997D01*
X161162316Y-43800002D01*
X161180956Y-43929648D01*
X161181846Y-43931597D01*
X161188874Y-43953331D01*
X161259509Y-44307000D01*
X161280023Y-44409715D01*
X161292077Y-44438773D01*
X161296254Y-44451066D01*
X161312455Y-44511520D01*
X161381709Y-44678709D01*
X161455547Y-44806597D01*
X161472195Y-44835431D01*
X161582355Y-44978991D01*
X161582357Y-44978993D01*
X161582361Y-44978998D01*
X161610916Y-45007552D01*
X161610917Y-45007554D01*
X162304114Y-45700751D01*
X162994891Y-46391528D01*
X163010449Y-46411731D01*
X163014466Y-46418633D01*
X163358313Y-46807971D01*
X163361966Y-46811985D01*
X163362017Y-46812039D01*
X163362023Y-46812046D01*
X163362490Y-46812544D01*
X163366384Y-46815248D01*
X163384732Y-46831728D01*
X163398644Y-46847784D01*
X163405955Y-46852482D01*
X163444685Y-46899847D01*
X163448179Y-46960933D01*
X163415100Y-47012405D01*
X163358084Y-47034604D01*
X163352431Y-47034766D01*
X162156849Y-47034766D01*
X162147144Y-47034289D01*
X162125703Y-47032176D01*
X162014005Y-47021172D01*
X161994971Y-47017385D01*
X161926785Y-46996699D01*
X161876590Y-46961713D01*
X161866951Y-46946184D01*
X161818405Y-46848945D01*
X161724891Y-46661635D01*
X161716793Y-46650785D01*
X161706082Y-46632704D01*
X161687131Y-46591206D01*
X161687130Y-46591205D01*
X161687130Y-46591204D01*
X161630207Y-46525512D01*
X161601356Y-46492216D01*
X161571372Y-46472946D01*
X161491171Y-46421404D01*
X161491168Y-46421403D01*
X161491167Y-46421402D01*
X161428329Y-46402951D01*
X161365492Y-46384500D01*
X161365491Y-46384500D01*
X161234509Y-46384500D01*
X161234507Y-46384500D01*
X161108833Y-46421402D01*
X161108828Y-46421404D01*
X160998648Y-46492213D01*
X160998643Y-46492217D01*
X160934319Y-46566451D01*
X160881923Y-46598047D01*
X160820962Y-46592811D01*
X160774721Y-46552743D01*
X160760500Y-46501620D01*
X160760500Y-41109500D01*
X160779407Y-41051309D01*
X160828907Y-41015345D01*
X160859500Y-41010500D01*
X161270500Y-41010500D01*
X161328691Y-41029407D01*
G37*
%TD.AperFunction*%
%TA.AperFunction,Conductor*%
G36*
X173328691Y-41029407D02*
G01*
X173364655Y-41078907D01*
X173369500Y-41109500D01*
X173369500Y-41155002D01*
X173375730Y-41223562D01*
X173424894Y-41381337D01*
X173510384Y-41522756D01*
X173510385Y-41522757D01*
X173510387Y-41522760D01*
X173627240Y-41639613D01*
X173768663Y-41725106D01*
X173926436Y-41774269D01*
X173995002Y-41780500D01*
X173995007Y-41780500D01*
X174604993Y-41780500D01*
X174604998Y-41780500D01*
X174673564Y-41774269D01*
X174831337Y-41725106D01*
X174972760Y-41639613D01*
X175089613Y-41522760D01*
X175175106Y-41381337D01*
X175205483Y-41283851D01*
X175240845Y-41233922D01*
X175298803Y-41214312D01*
X175357218Y-41232515D01*
X175393778Y-41281576D01*
X175394503Y-41283808D01*
X175414653Y-41348472D01*
X175424894Y-41381337D01*
X175510384Y-41522756D01*
X175514082Y-41527476D01*
X175513698Y-41527776D01*
X175521711Y-41537936D01*
X176039567Y-42382098D01*
X176042387Y-42386694D01*
X176057000Y-42438462D01*
X176057000Y-43534953D01*
X176056999Y-43534967D01*
X176056999Y-43580928D01*
X176056523Y-43590629D01*
X176043412Y-43723769D01*
X176039627Y-43742797D01*
X176002209Y-43866152D01*
X175994783Y-43884082D01*
X175934024Y-43997758D01*
X175923242Y-44013895D01*
X175838457Y-44117208D01*
X175831932Y-44124408D01*
X173466766Y-46489574D01*
X173433363Y-46511555D01*
X173037047Y-46669250D01*
X173032614Y-46671556D01*
X173032376Y-46671098D01*
X173012274Y-46680390D01*
X173008829Y-46681401D01*
X173008828Y-46681401D01*
X172898641Y-46752215D01*
X172898639Y-46752217D01*
X172812865Y-46851205D01*
X172779553Y-46924148D01*
X172738181Y-46969225D01*
X172678214Y-46981376D01*
X172622558Y-46955958D01*
X172592472Y-46902681D01*
X172590500Y-46883021D01*
X172590500Y-44767474D01*
X172590490Y-44767328D01*
X172590490Y-44764931D01*
X172590491Y-44733737D01*
X172566873Y-44554320D01*
X172520038Y-44379520D01*
X172506764Y-44347474D01*
X172461113Y-44237259D01*
X172450787Y-44212329D01*
X172405339Y-44133608D01*
X172360308Y-44055609D01*
X172250146Y-43912039D01*
X172250145Y-43912038D01*
X172221582Y-43883474D01*
X172221582Y-43883473D01*
X172166899Y-43828790D01*
X172166890Y-43828782D01*
X172147480Y-43809371D01*
X172147479Y-43809370D01*
X172144029Y-43805920D01*
X172144018Y-43805910D01*
X171550630Y-43212522D01*
X171550629Y-43212520D01*
X171540946Y-43202837D01*
X171540931Y-43202808D01*
X171447970Y-43109850D01*
X171445365Y-43107851D01*
X171304398Y-42999685D01*
X171304394Y-42999683D01*
X171304392Y-42999681D01*
X171147677Y-42909205D01*
X171147676Y-42909204D01*
X170980486Y-42839954D01*
X170980484Y-42839953D01*
X170980483Y-42839953D01*
X170954889Y-42833095D01*
X170805690Y-42793118D01*
X170805679Y-42793116D01*
X170658320Y-42773718D01*
X170626264Y-42769499D01*
X170626263Y-42769499D01*
X170535781Y-42769500D01*
X170375101Y-42769500D01*
X170349832Y-42765267D01*
X170349671Y-42765947D01*
X170344946Y-42764821D01*
X170344945Y-42764821D01*
X170344943Y-42764820D01*
X170344936Y-42764819D01*
X169866938Y-42699637D01*
X169852424Y-42696535D01*
X169845496Y-42694501D01*
X169845492Y-42694500D01*
X169845491Y-42694500D01*
X169845489Y-42694500D01*
X169835978Y-42694500D01*
X169822602Y-42693592D01*
X169818292Y-42693004D01*
X169806041Y-42691746D01*
X169806037Y-42691745D01*
X169806030Y-42691745D01*
X169805500Y-42691708D01*
X169804490Y-42691638D01*
X169803124Y-42691550D01*
X169802767Y-42691528D01*
X169802766Y-42691528D01*
X169802765Y-42691528D01*
X169792940Y-42693161D01*
X169776711Y-42694500D01*
X169714507Y-42694500D01*
X169588833Y-42731402D01*
X169588828Y-42731404D01*
X169478648Y-42802213D01*
X169478643Y-42802217D01*
X169392869Y-42901205D01*
X169338456Y-43020351D01*
X169319816Y-43149997D01*
X169319816Y-43150000D01*
X169322255Y-43166969D01*
X169323079Y-43187067D01*
X169323004Y-43188285D01*
X169323005Y-43188298D01*
X169393443Y-43704845D01*
X169394821Y-43714945D01*
X169395136Y-43715972D01*
X169395327Y-43717246D01*
X169395687Y-43718877D01*
X169395576Y-43718901D01*
X169399500Y-43745039D01*
X169399500Y-44056117D01*
X169380593Y-44114308D01*
X169331093Y-44150272D01*
X169269907Y-44150272D01*
X169246977Y-44139401D01*
X169141166Y-44071401D01*
X169136596Y-44069314D01*
X169122461Y-44063403D01*
X169118342Y-44061118D01*
X168807786Y-43926793D01*
X168761883Y-43886338D01*
X168759780Y-43882601D01*
X168755222Y-43874074D01*
X168747800Y-43856153D01*
X168710382Y-43732800D01*
X168706597Y-43713767D01*
X168706411Y-43711883D01*
X168698764Y-43634219D01*
X168693477Y-43580528D01*
X168693000Y-43570824D01*
X168693000Y-43556750D01*
X168693001Y-43532942D01*
X168693000Y-43532939D01*
X168693000Y-42424338D01*
X168702464Y-42382098D01*
X168767141Y-42245002D01*
X169170570Y-41389852D01*
X169174932Y-41381722D01*
X169175100Y-41381346D01*
X169175106Y-41381337D01*
X169175642Y-41379612D01*
X169176376Y-41377356D01*
X169189668Y-41338180D01*
X169190785Y-41333025D01*
X169191234Y-41330954D01*
X169191416Y-41330993D01*
X169193492Y-41322330D01*
X169205483Y-41283849D01*
X169240844Y-41233922D01*
X169298802Y-41214312D01*
X169357217Y-41232515D01*
X169393777Y-41281576D01*
X169394516Y-41283852D01*
X169424892Y-41381334D01*
X169424893Y-41381335D01*
X169510384Y-41522756D01*
X169510385Y-41522757D01*
X169510387Y-41522760D01*
X169627240Y-41639613D01*
X169768663Y-41725106D01*
X169926436Y-41774269D01*
X169995002Y-41780500D01*
X169995007Y-41780500D01*
X170604993Y-41780500D01*
X170604998Y-41780500D01*
X170673564Y-41774269D01*
X170831337Y-41725106D01*
X170972760Y-41639613D01*
X171089613Y-41522760D01*
X171175106Y-41381337D01*
X171224269Y-41223564D01*
X171230500Y-41154998D01*
X171230500Y-41109500D01*
X171249407Y-41051309D01*
X171298907Y-41015345D01*
X171329500Y-41010500D01*
X173270500Y-41010500D01*
X173328691Y-41029407D01*
G37*
%TD.AperFunction*%
%TA.AperFunction,Conductor*%
G36*
X178463305Y-44807613D02*
G01*
X179312060Y-45328286D01*
X179322223Y-45336301D01*
X179322524Y-45335918D01*
X179327235Y-45339608D01*
X179327240Y-45339613D01*
X179468663Y-45425106D01*
X179491810Y-45432318D01*
X179500786Y-45435652D01*
X179501512Y-45435907D01*
X179501525Y-45435913D01*
X179507806Y-45437639D01*
X179507810Y-45437639D01*
X179510511Y-45438382D01*
X179510508Y-45438391D01*
X179515546Y-45439714D01*
X179566148Y-45455482D01*
X179616077Y-45490844D01*
X179635687Y-45548802D01*
X179617485Y-45607217D01*
X179568423Y-45643777D01*
X179566147Y-45644516D01*
X179468668Y-45674891D01*
X179327235Y-45760389D01*
X179322526Y-45764079D01*
X179322227Y-45763698D01*
X179312068Y-45771705D01*
X178463305Y-46292387D01*
X178411537Y-46307000D01*
X176236283Y-46307000D01*
X176236192Y-46307008D01*
X176196385Y-46307008D01*
X176093648Y-46323278D01*
X176033216Y-46313706D01*
X175989952Y-46270440D01*
X175980382Y-46210008D01*
X176008157Y-46155495D01*
X177145500Y-45018153D01*
X177152681Y-45011646D01*
X177256111Y-44926764D01*
X177272238Y-44915988D01*
X177385936Y-44855217D01*
X177403845Y-44847800D01*
X177527201Y-44810382D01*
X177546227Y-44806597D01*
X177630983Y-44798251D01*
X177679471Y-44793477D01*
X177689172Y-44793000D01*
X177727058Y-44793001D01*
X177727061Y-44793000D01*
X178411538Y-44793000D01*
X178463305Y-44807613D01*
G37*
%TD.AperFunction*%
%TA.AperFunction,Conductor*%
G36*
X167357218Y-41232515D02*
G01*
X167393778Y-41281576D01*
X167394503Y-41283808D01*
X167414653Y-41348472D01*
X167424894Y-41381337D01*
X167510384Y-41522756D01*
X167510385Y-41522757D01*
X167510387Y-41522760D01*
X167536966Y-41549339D01*
X167551696Y-41569848D01*
X167552225Y-41569518D01*
X167554801Y-41573640D01*
X167554804Y-41573645D01*
X168181567Y-42386694D01*
X168186407Y-42392972D01*
X168206960Y-42450603D01*
X168207000Y-42453415D01*
X168207000Y-43634134D01*
X168207008Y-43634219D01*
X168207008Y-43673612D01*
X168237610Y-43866848D01*
X168298070Y-44052929D01*
X168298070Y-44052930D01*
X168368045Y-44190268D01*
X168373991Y-44204624D01*
X168505546Y-44609574D01*
X168506322Y-44612904D01*
X168506463Y-44612863D01*
X168508950Y-44621328D01*
X168511460Y-44627776D01*
X168515612Y-44640556D01*
X168515624Y-44640592D01*
X168517932Y-44647258D01*
X168518235Y-44648082D01*
X168518239Y-44648091D01*
X168525876Y-44660081D01*
X168532427Y-44672137D01*
X168562868Y-44738792D01*
X168562869Y-44738794D01*
X168585517Y-44764931D01*
X168609334Y-44821291D01*
X168595475Y-44880886D01*
X168549234Y-44920954D01*
X168517775Y-44927327D01*
X168517826Y-44927667D01*
X168517806Y-44927670D01*
X168515085Y-44927872D01*
X168510697Y-44928762D01*
X168503160Y-44928762D01*
X168503120Y-44928765D01*
X167278820Y-44928765D01*
X167278168Y-44928806D01*
X167244492Y-44928806D01*
X167244491Y-44928806D01*
X167244487Y-44928806D01*
X167132352Y-44943562D01*
X167065069Y-44952417D01*
X166904570Y-44995414D01*
X166890274Y-44999244D01*
X166890271Y-44999245D01*
X166890262Y-44999248D01*
X166723084Y-45068484D01*
X166723078Y-45068487D01*
X166566366Y-45158954D01*
X166422783Y-45269115D01*
X166397282Y-45294612D01*
X166397241Y-45294650D01*
X166358800Y-45333091D01*
X166316303Y-45375583D01*
X166316277Y-45375612D01*
X165792526Y-45899365D01*
X165792525Y-45899367D01*
X165757281Y-45934610D01*
X165750083Y-45941133D01*
X165667506Y-46008902D01*
X165651368Y-46019685D01*
X165561463Y-46067739D01*
X165543532Y-46075166D01*
X165445974Y-46104758D01*
X165426940Y-46108543D01*
X165320527Y-46119022D01*
X165310825Y-46119499D01*
X165253111Y-46119499D01*
X165253099Y-46119500D01*
X164295101Y-46119500D01*
X164269832Y-46115267D01*
X164269671Y-46115947D01*
X164264946Y-46114821D01*
X164264945Y-46114821D01*
X164264943Y-46114820D01*
X164264936Y-46114819D01*
X163879497Y-46062259D01*
X163839440Y-46047509D01*
X163654393Y-45928869D01*
X163537118Y-45853679D01*
X163537115Y-45853677D01*
X163535372Y-45852560D01*
X163518801Y-45839222D01*
X163340604Y-45661025D01*
X163312827Y-45606508D01*
X163314685Y-45594774D01*
X163297028Y-45596291D01*
X163249447Y-45569868D01*
X162223131Y-44543552D01*
X162223130Y-44543551D01*
X162223129Y-44543549D01*
X162187881Y-44508302D01*
X162181368Y-44501115D01*
X162171122Y-44488631D01*
X162140296Y-44451070D01*
X162113585Y-44418523D01*
X162102803Y-44402387D01*
X162090573Y-44379507D01*
X162057540Y-44317710D01*
X162046172Y-44263067D01*
X162067522Y-43998941D01*
X162091056Y-43942466D01*
X162143293Y-43910608D01*
X162204279Y-43915537D01*
X162250721Y-43955373D01*
X162251050Y-43955917D01*
X162281976Y-44007366D01*
X162304784Y-44035848D01*
X162318443Y-44058948D01*
X162318859Y-44059571D01*
X162339741Y-44080454D01*
X162346993Y-44088550D01*
X162351608Y-44094310D01*
X162362024Y-44107308D01*
X162363513Y-44108213D01*
X162382094Y-44122806D01*
X163140987Y-44881699D01*
X163163124Y-44915496D01*
X163319003Y-45312186D01*
X163319005Y-45312189D01*
X163324655Y-45320847D01*
X163329307Y-45327974D01*
X163336454Y-45340955D01*
X163362867Y-45398792D01*
X163362868Y-45398794D01*
X163394270Y-45435033D01*
X163418088Y-45491392D01*
X163417335Y-45494627D01*
X163426095Y-45493240D01*
X163464131Y-45507737D01*
X163529974Y-45550052D01*
X163558833Y-45568598D01*
X163684509Y-45605500D01*
X163684510Y-45605500D01*
X163815490Y-45605500D01*
X163815491Y-45605500D01*
X163941167Y-45568598D01*
X164051356Y-45497784D01*
X164137131Y-45398794D01*
X164191543Y-45279649D01*
X164210184Y-45150000D01*
X164191543Y-45020351D01*
X164137131Y-44901206D01*
X164051356Y-44802216D01*
X164007582Y-44774084D01*
X163941171Y-44731404D01*
X163941168Y-44731403D01*
X163941167Y-44731402D01*
X163938234Y-44730540D01*
X163918060Y-44721234D01*
X163917828Y-44721680D01*
X163913512Y-44719431D01*
X163913509Y-44719429D01*
X163607699Y-44596465D01*
X163518360Y-44560542D01*
X163485289Y-44538693D01*
X162717059Y-43770463D01*
X162704887Y-43755669D01*
X162683255Y-43723472D01*
X162646113Y-43668188D01*
X162638046Y-43653685D01*
X162633577Y-43643778D01*
X162591057Y-43549509D01*
X162585525Y-43533863D01*
X162585284Y-43532942D01*
X162556596Y-43423280D01*
X162553759Y-43406943D01*
X162543383Y-43289347D01*
X162543000Y-43280646D01*
X162543000Y-42438460D01*
X162557613Y-42386693D01*
X162644537Y-42244997D01*
X163078283Y-41537941D01*
X163086302Y-41527779D01*
X163085917Y-41527477D01*
X163089604Y-41522768D01*
X163089613Y-41522760D01*
X163175106Y-41381337D01*
X163182323Y-41358171D01*
X163185632Y-41349271D01*
X163185909Y-41348482D01*
X163185913Y-41348474D01*
X163187639Y-41342193D01*
X163188383Y-41339488D01*
X163188393Y-41339490D01*
X163189719Y-41334439D01*
X163205482Y-41283852D01*
X163240844Y-41233922D01*
X163298802Y-41214312D01*
X163357217Y-41232515D01*
X163393777Y-41281577D01*
X163394516Y-41283852D01*
X163424892Y-41381334D01*
X163424893Y-41381335D01*
X163510384Y-41522756D01*
X163514082Y-41527476D01*
X163513698Y-41527776D01*
X163521711Y-41537936D01*
X164039567Y-42382098D01*
X164042387Y-42386694D01*
X164057000Y-42438462D01*
X164057000Y-42950266D01*
X164057024Y-42950515D01*
X164057035Y-42999811D01*
X164057036Y-42999817D01*
X164077532Y-43213511D01*
X164118343Y-43424277D01*
X164179095Y-43630183D01*
X164259234Y-43829347D01*
X164259238Y-43829356D01*
X164281958Y-43873213D01*
X164282014Y-43873352D01*
X164286364Y-43881746D01*
X164286365Y-43881747D01*
X164308607Y-43924658D01*
X164308607Y-43924659D01*
X164328324Y-43962700D01*
X164328325Y-43962701D01*
X164790396Y-44854171D01*
X164801260Y-44892820D01*
X164829193Y-45292100D01*
X164830057Y-45295513D01*
X164832073Y-45305704D01*
X164848456Y-45419648D01*
X164856827Y-45437977D01*
X164902869Y-45538794D01*
X164988644Y-45637784D01*
X165098833Y-45708598D01*
X165224509Y-45745500D01*
X165224510Y-45745500D01*
X165355490Y-45745500D01*
X165355491Y-45745500D01*
X165481167Y-45708598D01*
X165591356Y-45637784D01*
X165677131Y-45538794D01*
X165731543Y-45419649D01*
X165737879Y-45375583D01*
X165750184Y-45290002D01*
X165750184Y-45289997D01*
X165731543Y-45160351D01*
X165695458Y-45081337D01*
X165677131Y-45041206D01*
X165591356Y-44942216D01*
X165591355Y-44942215D01*
X165591354Y-44942214D01*
X165589748Y-44941182D01*
X165580590Y-44934526D01*
X165247164Y-44661740D01*
X165221957Y-44630674D01*
X165217669Y-44622402D01*
X164747817Y-43715917D01*
X164747817Y-43715916D01*
X164741456Y-43703643D01*
X164738890Y-43698310D01*
X164657201Y-43514603D01*
X164653052Y-43503532D01*
X164649143Y-43490845D01*
X164594734Y-43314246D01*
X164591934Y-43302759D01*
X164556603Y-43107837D01*
X164555196Y-43096119D01*
X164545904Y-42940810D01*
X164543177Y-42895229D01*
X164543000Y-42889315D01*
X164543000Y-42882929D01*
X164543001Y-42849630D01*
X164543000Y-42849627D01*
X164543000Y-42438460D01*
X164557613Y-42386693D01*
X164644537Y-42244997D01*
X165078283Y-41537941D01*
X165086302Y-41527779D01*
X165085917Y-41527477D01*
X165089604Y-41522768D01*
X165089613Y-41522760D01*
X165175106Y-41381337D01*
X165182323Y-41358171D01*
X165185632Y-41349271D01*
X165185909Y-41348482D01*
X165185913Y-41348474D01*
X165187639Y-41342193D01*
X165188383Y-41339488D01*
X165188393Y-41339490D01*
X165189719Y-41334439D01*
X165205482Y-41283852D01*
X165240844Y-41233922D01*
X165298802Y-41214312D01*
X165357217Y-41232515D01*
X165393777Y-41281577D01*
X165394516Y-41283852D01*
X165424892Y-41381334D01*
X165424893Y-41381335D01*
X165510384Y-41522756D01*
X165510385Y-41522757D01*
X165510387Y-41522760D01*
X165627240Y-41639613D01*
X165768663Y-41725106D01*
X165926436Y-41774269D01*
X165995002Y-41780500D01*
X165995007Y-41780500D01*
X166604993Y-41780500D01*
X166604998Y-41780500D01*
X166673564Y-41774269D01*
X166831337Y-41725106D01*
X166972760Y-41639613D01*
X167089613Y-41522760D01*
X167175106Y-41381337D01*
X167205483Y-41283851D01*
X167240845Y-41233922D01*
X167298803Y-41214312D01*
X167357218Y-41232515D01*
G37*
%TD.AperFunction*%
%TA.AperFunction,Conductor*%
G36*
X179798691Y-41029407D02*
G01*
X179834655Y-41078907D01*
X179839500Y-41109500D01*
X179839500Y-41520500D01*
X179820593Y-41578691D01*
X179771093Y-41614655D01*
X179740500Y-41619500D01*
X179694997Y-41619500D01*
X179626437Y-41625730D01*
X179468662Y-41674894D01*
X179327243Y-41760384D01*
X179210384Y-41877243D01*
X179124894Y-42018662D01*
X179075730Y-42176437D01*
X179069500Y-42244997D01*
X179069500Y-42855002D01*
X179075730Y-42923562D01*
X179124894Y-43081337D01*
X179210384Y-43222756D01*
X179210385Y-43222757D01*
X179210387Y-43222760D01*
X179327240Y-43339613D01*
X179327242Y-43339614D01*
X179327243Y-43339615D01*
X179335324Y-43344500D01*
X179468663Y-43425106D01*
X179566146Y-43455482D01*
X179616077Y-43490845D01*
X179635687Y-43548803D01*
X179617484Y-43607218D01*
X179568423Y-43643778D01*
X179566166Y-43644511D01*
X179468663Y-43674894D01*
X179407476Y-43711883D01*
X179327235Y-43760389D01*
X179322526Y-43764079D01*
X179322227Y-43763698D01*
X179312068Y-43771705D01*
X178463305Y-44292387D01*
X178411537Y-44307000D01*
X177626283Y-44307000D01*
X177626192Y-44307008D01*
X177586388Y-44307008D01*
X177393150Y-44337611D01*
X177389657Y-44338746D01*
X177328472Y-44338741D01*
X177278974Y-44302774D01*
X177260071Y-44244582D01*
X177278982Y-44186393D01*
X177289061Y-44174591D01*
X178134713Y-43328940D01*
X178134719Y-43328936D01*
X178148341Y-43315313D01*
X178148365Y-43315300D01*
X178178941Y-43284723D01*
X178178942Y-43284725D01*
X178248116Y-43215551D01*
X178363117Y-43057262D01*
X178451939Y-42882933D01*
X178512397Y-42696854D01*
X178543002Y-42503609D01*
X178543000Y-42438459D01*
X178557613Y-42386693D01*
X179078283Y-41537941D01*
X179086302Y-41527779D01*
X179085917Y-41527477D01*
X179089604Y-41522768D01*
X179089613Y-41522760D01*
X179175106Y-41381337D01*
X179182323Y-41358171D01*
X179185632Y-41349271D01*
X179185909Y-41348482D01*
X179185913Y-41348474D01*
X179187639Y-41342193D01*
X179188383Y-41339488D01*
X179188392Y-41339490D01*
X179189719Y-41334439D01*
X179224269Y-41223564D01*
X179230500Y-41154998D01*
X179230500Y-41109500D01*
X179249407Y-41051309D01*
X179298907Y-41015345D01*
X179329500Y-41010500D01*
X179740500Y-41010500D01*
X179798691Y-41029407D01*
G37*
%TD.AperFunction*%
%TA.AperFunction,Conductor*%
G36*
X177357217Y-41232515D02*
G01*
X177393777Y-41281577D01*
X177394516Y-41283852D01*
X177424892Y-41381334D01*
X177424893Y-41381335D01*
X177510384Y-41522756D01*
X177514082Y-41527476D01*
X177513699Y-41527775D01*
X177521712Y-41537938D01*
X177605729Y-41674894D01*
X178039201Y-42381502D01*
X178053513Y-42440989D01*
X178053337Y-42442971D01*
X178043411Y-42543770D01*
X178039626Y-42562801D01*
X178002209Y-42686155D01*
X177994785Y-42704079D01*
X177934021Y-42817763D01*
X177923239Y-42833900D01*
X177838443Y-42937226D01*
X177831918Y-42944426D01*
X176617677Y-44158667D01*
X176563160Y-44186444D01*
X176502728Y-44176873D01*
X176459463Y-44133608D01*
X176449892Y-44073176D01*
X176453514Y-44058087D01*
X176512398Y-43876850D01*
X176543002Y-43683605D01*
X176543000Y-43585778D01*
X176543000Y-43542930D01*
X176543000Y-42438460D01*
X176557613Y-42386693D01*
X176644537Y-42244997D01*
X177078283Y-41537941D01*
X177086302Y-41527779D01*
X177085917Y-41527477D01*
X177089604Y-41522768D01*
X177089613Y-41522760D01*
X177175106Y-41381337D01*
X177182323Y-41358171D01*
X177185632Y-41349271D01*
X177185909Y-41348482D01*
X177185913Y-41348474D01*
X177187639Y-41342193D01*
X177188383Y-41339488D01*
X177188393Y-41339490D01*
X177189719Y-41334439D01*
X177205482Y-41283852D01*
X177240844Y-41233922D01*
X177298802Y-41214312D01*
X177357217Y-41232515D01*
G37*
%TD.AperFunction*%
%TD*%
%TA.AperFunction,Conductor*%
%TO.N,+3V3*%
G36*
X169793226Y-42876803D02*
G01*
X170319881Y-42948620D01*
X170327615Y-42953134D01*
X170330000Y-42960213D01*
X170330000Y-43339786D01*
X170326573Y-43348059D01*
X170319881Y-43351379D01*
X169793232Y-43423195D01*
X169784572Y-43420917D01*
X169780058Y-43413183D01*
X169779951Y-43411645D01*
X169779000Y-43150086D01*
X169779000Y-43150000D01*
X169779951Y-42888354D01*
X169783408Y-42880094D01*
X169791694Y-42876697D01*
X169793226Y-42876803D01*
G37*
%TD.AperFunction*%
%TD*%
%TA.AperFunction,Conductor*%
%TO.N,+3V3*%
G36*
X161941665Y-50249453D02*
G01*
X161947978Y-50255804D01*
X161948179Y-50256330D01*
X162090837Y-50657625D01*
X162090379Y-50666568D01*
X162089541Y-50668044D01*
X162028498Y-50759405D01*
X162021053Y-50764380D01*
X162014694Y-50763872D01*
X161596100Y-50608281D01*
X161589539Y-50602186D01*
X161589209Y-50593238D01*
X161589351Y-50592875D01*
X161687313Y-50353971D01*
X161693622Y-50347617D01*
X161693693Y-50347587D01*
X161917180Y-50255804D01*
X161932710Y-50249426D01*
X161941665Y-50249453D01*
G37*
%TD.AperFunction*%
%TD*%
%TA.AperFunction,Conductor*%
%TO.N,+3V3*%
G36*
X163436997Y-46009839D02*
G01*
X163797026Y-46240668D01*
X163802141Y-46248018D01*
X163801535Y-46254958D01*
X163701606Y-46498514D01*
X163699025Y-46502376D01*
X163514348Y-46685715D01*
X163506062Y-46689112D01*
X163497802Y-46685655D01*
X163497335Y-46685157D01*
X163153506Y-46295839D01*
X163150598Y-46287369D01*
X163154002Y-46279822D01*
X163422410Y-46011414D01*
X163430682Y-46007988D01*
X163436997Y-46009839D01*
G37*
%TD.AperFunction*%
%TD*%
%TA.AperFunction,Conductor*%
%TO.N,Net-(U4-V+)*%
G36*
X177615592Y-47668725D02*
G01*
X177856180Y-47767436D01*
X177862533Y-47773746D01*
X177862563Y-47773819D01*
X177961274Y-48014407D01*
X177961244Y-48023362D01*
X177956090Y-48029099D01*
X177567179Y-48243060D01*
X177558278Y-48244045D01*
X177553266Y-48241082D01*
X177388917Y-48076733D01*
X177385490Y-48068460D01*
X177386937Y-48062824D01*
X177600901Y-47673907D01*
X177607890Y-47668313D01*
X177615592Y-47668725D01*
G37*
%TD.AperFunction*%
%TD*%
%TA.AperFunction,Conductor*%
%TO.N,/SCL*%
G36*
X173857701Y-48659319D02*
G01*
X173945733Y-48724552D01*
X173950340Y-48732230D01*
X173950148Y-48736666D01*
X173834467Y-49221791D01*
X173829215Y-49229043D01*
X173820372Y-49230458D01*
X173818647Y-49229902D01*
X173581160Y-49132511D01*
X173574805Y-49126201D01*
X173574776Y-49126130D01*
X173476482Y-48886724D01*
X173476510Y-48877769D01*
X173481990Y-48871858D01*
X173548342Y-48838050D01*
X173563413Y-48822978D01*
X173565775Y-48821159D01*
X173844850Y-48658609D01*
X173853721Y-48657407D01*
X173857701Y-48659319D01*
G37*
%TD.AperFunction*%
%TD*%
%TA.AperFunction,Conductor*%
%TO.N,+3V3*%
G36*
X167403330Y-52016942D02*
G01*
X167928994Y-52093541D01*
X167936685Y-52098124D01*
X167939005Y-52105118D01*
X167939005Y-52484697D01*
X167935578Y-52492970D01*
X167928785Y-52496303D01*
X167403131Y-52563325D01*
X167394491Y-52560972D01*
X167390045Y-52553199D01*
X167389951Y-52551775D01*
X167389000Y-52290000D01*
X167389950Y-52028475D01*
X167393407Y-52020218D01*
X167401693Y-52016821D01*
X167403330Y-52016942D01*
G37*
%TD.AperFunction*%
%TD*%
%TA.AperFunction,Conductor*%
%TO.N,/RES_TC*%
G36*
X176726554Y-41013812D02*
G01*
X177005228Y-41284815D01*
X177008770Y-41293040D01*
X177007044Y-41299321D01*
X176365924Y-42344418D01*
X176358677Y-42349678D01*
X176355951Y-42350000D01*
X176244049Y-42350000D01*
X176235776Y-42346573D01*
X176234076Y-42344418D01*
X175592955Y-41299321D01*
X175591550Y-41290477D01*
X175594770Y-41284816D01*
X175873446Y-41013811D01*
X175881603Y-41010500D01*
X176718397Y-41010500D01*
X176726554Y-41013812D01*
G37*
%TD.AperFunction*%
%TD*%
%TA.AperFunction,Conductor*%
%TO.N,/SCL*%
G36*
X179565184Y-45844771D02*
G01*
X179836188Y-46123446D01*
X179839500Y-46131602D01*
X179839500Y-46968396D01*
X179836188Y-46976553D01*
X179565184Y-47255228D01*
X179556959Y-47258770D01*
X179550678Y-47257044D01*
X178505582Y-46615924D01*
X178500322Y-46608677D01*
X178500000Y-46605951D01*
X178500000Y-46494048D01*
X178503427Y-46485775D01*
X178505578Y-46484078D01*
X179550678Y-45842954D01*
X179559522Y-45841550D01*
X179565184Y-45844771D01*
G37*
%TD.AperFunction*%
%TD*%
%TA.AperFunction,Conductor*%
%TO.N,/R_MISO*%
G36*
X161205984Y-47500562D02*
G01*
X161206036Y-47500583D01*
X161632929Y-47684454D01*
X161639171Y-47690873D01*
X161640000Y-47695199D01*
X161640000Y-47804800D01*
X161636573Y-47813073D01*
X161632928Y-47815546D01*
X161206098Y-47999389D01*
X161197144Y-47999514D01*
X161190724Y-47993271D01*
X161190676Y-47993157D01*
X161115134Y-47812500D01*
X161090886Y-47754512D01*
X161090857Y-47745559D01*
X161090856Y-47745559D01*
X161190676Y-47506841D01*
X161197029Y-47500532D01*
X161205984Y-47500562D01*
G37*
%TD.AperFunction*%
%TD*%
%TA.AperFunction,Conductor*%
%TO.N,/SCK*%
G36*
X162726554Y-41013812D02*
G01*
X163005228Y-41284815D01*
X163008770Y-41293040D01*
X163007044Y-41299321D01*
X162365924Y-42344418D01*
X162358677Y-42349678D01*
X162355951Y-42350000D01*
X162244049Y-42350000D01*
X162235776Y-42346573D01*
X162234076Y-42344418D01*
X161592955Y-41299321D01*
X161591550Y-41290477D01*
X161594770Y-41284816D01*
X161873446Y-41013811D01*
X161881603Y-41010500D01*
X162718397Y-41010500D01*
X162726554Y-41013812D01*
G37*
%TD.AperFunction*%
%TD*%
%TA.AperFunction,Conductor*%
%TO.N,/SDA*%
G36*
X173656513Y-48079869D02*
G01*
X173660158Y-48082342D01*
X173737657Y-48159841D01*
X173741084Y-48168114D01*
X173740255Y-48172440D01*
X173568438Y-48604251D01*
X173562195Y-48610671D01*
X173553241Y-48610796D01*
X173553126Y-48610749D01*
X173313819Y-48512563D01*
X173307466Y-48506253D01*
X173307436Y-48506180D01*
X173267940Y-48409918D01*
X173209250Y-48266871D01*
X173209280Y-48257918D01*
X173215633Y-48251608D01*
X173215683Y-48251587D01*
X173231506Y-48245291D01*
X173235877Y-48244815D01*
X173235877Y-48244471D01*
X173236798Y-48244471D01*
X173362102Y-48224625D01*
X173475140Y-48167029D01*
X173504460Y-48137708D01*
X173508397Y-48135117D01*
X173647561Y-48079744D01*
X173656513Y-48079869D01*
G37*
%TD.AperFunction*%
%TD*%
%TA.AperFunction,Conductor*%
%TO.N,/P_GOOD*%
G36*
X167382599Y-51162552D02*
G01*
X167382647Y-51162666D01*
X167482436Y-51401310D01*
X167482466Y-51410265D01*
X167482436Y-51410338D01*
X167382647Y-51648981D01*
X167376294Y-51655291D01*
X167367339Y-51655261D01*
X167367225Y-51655213D01*
X166940396Y-51471370D01*
X166934153Y-51464950D01*
X166933324Y-51460624D01*
X166933324Y-51351023D01*
X166936751Y-51342750D01*
X166940392Y-51340279D01*
X167367227Y-51156433D01*
X167376179Y-51156309D01*
X167382599Y-51162552D01*
G37*
%TD.AperFunction*%
%TD*%
%TA.AperFunction,Conductor*%
%TO.N,/P_GOOD*%
G36*
X163260459Y-52987448D02*
G01*
X163338891Y-53065880D01*
X163342318Y-53074153D01*
X163342140Y-53076188D01*
X163164840Y-54079835D01*
X163160026Y-54087386D01*
X163153318Y-54089500D01*
X162215060Y-54089500D01*
X162206787Y-54086073D01*
X162203653Y-54080398D01*
X162073732Y-53509431D01*
X162075237Y-53500605D01*
X162080444Y-53496120D01*
X163247495Y-52985003D01*
X163256445Y-52984824D01*
X163260459Y-52987448D01*
G37*
%TD.AperFunction*%
%TD*%
%TA.AperFunction,Conductor*%
%TO.N,/R_MISO*%
G36*
X166089975Y-47793581D02*
G01*
X166097687Y-47798134D01*
X166100036Y-47805124D01*
X166100962Y-48065303D01*
X166097565Y-48073589D01*
X166097510Y-48073643D01*
X165915469Y-48254590D01*
X165907186Y-48257992D01*
X165898923Y-48254540D01*
X165897594Y-48252941D01*
X165624404Y-47857420D01*
X165622522Y-47848666D01*
X165622556Y-47848488D01*
X165631183Y-47805124D01*
X165643819Y-47741600D01*
X165648794Y-47734156D01*
X165656932Y-47732299D01*
X166089975Y-47793581D01*
G37*
%TD.AperFunction*%
%TD*%
%TA.AperFunction,Conductor*%
%TO.N,/SWDCK*%
G36*
X172925897Y-50417171D02*
G01*
X172932207Y-50423524D01*
X172932254Y-50423639D01*
X172977870Y-50538283D01*
X172978555Y-50544439D01*
X172974508Y-50569999D01*
X172974508Y-50570000D01*
X172994353Y-50695302D01*
X173051950Y-50808342D01*
X173098292Y-50854684D01*
X173101719Y-50862957D01*
X173098292Y-50871230D01*
X173023974Y-50945548D01*
X173015701Y-50948975D01*
X173011375Y-50948146D01*
X172579564Y-50776329D01*
X172573144Y-50770086D01*
X172573019Y-50761133D01*
X172671252Y-50521709D01*
X172677562Y-50515357D01*
X172677635Y-50515327D01*
X172916944Y-50417141D01*
X172925897Y-50417171D01*
G37*
%TD.AperFunction*%
%TD*%
%TA.AperFunction,Conductor*%
%TO.N,/~{MCU_OK}*%
G36*
X173542724Y-49699017D02*
G01*
X173548802Y-49704835D01*
X173734891Y-50100674D01*
X173735310Y-50109619D01*
X173734031Y-50112152D01*
X173673173Y-50203235D01*
X173665728Y-50208210D01*
X173659841Y-50207866D01*
X173501973Y-50156758D01*
X173196773Y-50057955D01*
X173189958Y-50052147D01*
X173189246Y-50043220D01*
X173189552Y-50042385D01*
X173287313Y-49803971D01*
X173293622Y-49797617D01*
X173293693Y-49797587D01*
X173533772Y-49698990D01*
X173542724Y-49699017D01*
G37*
%TD.AperFunction*%
%TD*%
%TA.AperFunction,Conductor*%
%TO.N,/SWDCK*%
G36*
X179751377Y-51803265D02*
G01*
X179754089Y-51806133D01*
X179787787Y-51856665D01*
X179837534Y-51931266D01*
X179839500Y-51937754D01*
X179839500Y-52741728D01*
X179836073Y-52750001D01*
X179832883Y-52752266D01*
X179309034Y-53004943D01*
X179300094Y-53005451D01*
X179294346Y-53001087D01*
X178624017Y-52037510D01*
X178622107Y-52028762D01*
X178626052Y-52021909D01*
X178710693Y-51950102D01*
X178716606Y-51947442D01*
X179742702Y-51801041D01*
X179751377Y-51803265D01*
G37*
%TD.AperFunction*%
%TD*%
%TA.AperFunction,Conductor*%
%TO.N,/SWDIO*%
G36*
X179565184Y-49844771D02*
G01*
X179836188Y-50123446D01*
X179839500Y-50131602D01*
X179839500Y-50968396D01*
X179836188Y-50976553D01*
X179565184Y-51255228D01*
X179556959Y-51258770D01*
X179550678Y-51257044D01*
X178505582Y-50615924D01*
X178500322Y-50608677D01*
X178500000Y-50605951D01*
X178500000Y-50494048D01*
X178503427Y-50485775D01*
X178505578Y-50484078D01*
X179550678Y-49842954D01*
X179559522Y-49841550D01*
X179565184Y-49844771D01*
G37*
%TD.AperFunction*%
%TD*%
%TA.AperFunction,Conductor*%
%TO.N,/RAM_CS*%
G36*
X165279269Y-47016744D02*
G01*
X165279492Y-47017245D01*
X165379112Y-47255486D01*
X165379142Y-47264441D01*
X165379112Y-47264514D01*
X165279182Y-47503495D01*
X165272829Y-47509805D01*
X165264100Y-47509867D01*
X164840946Y-47343185D01*
X164834504Y-47336964D01*
X164833534Y-47332299D01*
X164833534Y-47222665D01*
X164836961Y-47214392D01*
X164840217Y-47212095D01*
X165263685Y-47011187D01*
X165272626Y-47010738D01*
X165279269Y-47016744D01*
G37*
%TD.AperFunction*%
%TD*%
%TA.AperFunction,Conductor*%
%TO.N,/D{slash}C*%
G36*
X168654398Y-44062558D02*
G01*
X169044696Y-44231373D01*
X169050929Y-44237803D01*
X169050874Y-44246557D01*
X168952412Y-44486306D01*
X168946099Y-44492657D01*
X168946028Y-44492686D01*
X168707603Y-44590452D01*
X168698648Y-44590420D01*
X168692339Y-44584066D01*
X168692036Y-44583242D01*
X168547359Y-44137900D01*
X168548062Y-44128973D01*
X168551985Y-44124558D01*
X168643261Y-44063570D01*
X168652040Y-44061824D01*
X168654398Y-44062558D01*
G37*
%TD.AperFunction*%
%TD*%
%TA.AperFunction,Conductor*%
%TO.N,/MOSI*%
G36*
X164726554Y-41013812D02*
G01*
X165005228Y-41284815D01*
X165008770Y-41293040D01*
X165007044Y-41299321D01*
X164365924Y-42344418D01*
X164358677Y-42349678D01*
X164355951Y-42350000D01*
X164244049Y-42350000D01*
X164235776Y-42346573D01*
X164234076Y-42344418D01*
X163592955Y-41299321D01*
X163591550Y-41290477D01*
X163594770Y-41284816D01*
X163873446Y-41013811D01*
X163881603Y-41010500D01*
X164718397Y-41010500D01*
X164726554Y-41013812D01*
G37*
%TD.AperFunction*%
%TD*%
%TA.AperFunction,Conductor*%
%TO.N,+3V3*%
G36*
X161884863Y-43799954D02*
G01*
X161893122Y-43803410D01*
X161896519Y-43811696D01*
X161896481Y-43812597D01*
X161857244Y-44298000D01*
X161853162Y-44305970D01*
X161847865Y-44308532D01*
X161475687Y-44382569D01*
X161466904Y-44380822D01*
X161461931Y-44373385D01*
X161370308Y-43914626D01*
X161372048Y-43905842D01*
X161377263Y-43901543D01*
X161620119Y-43799934D01*
X161624672Y-43799028D01*
X161884863Y-43799954D01*
G37*
%TD.AperFunction*%
%TD*%
%TA.AperFunction,Conductor*%
%TO.N,/MOSI*%
G36*
X165100011Y-44781021D02*
G01*
X165474482Y-45087388D01*
X165478715Y-45095278D01*
X165476129Y-45103852D01*
X165475375Y-45104687D01*
X165293907Y-45287415D01*
X165285645Y-45290871D01*
X165285567Y-45290871D01*
X165025874Y-45290035D01*
X165017612Y-45286581D01*
X165014241Y-45279151D01*
X164983613Y-44841338D01*
X164986454Y-44832846D01*
X164989898Y-44830135D01*
X165087221Y-44779689D01*
X165096142Y-44778926D01*
X165100011Y-44781021D01*
G37*
%TD.AperFunction*%
%TD*%
%TA.AperFunction,Conductor*%
%TO.N,/D{slash}C*%
G36*
X168726554Y-41013812D02*
G01*
X169005950Y-41285517D01*
X169009492Y-41293742D01*
X169008375Y-41298897D01*
X168515665Y-42343292D01*
X168509035Y-42349312D01*
X168505083Y-42350000D01*
X168393253Y-42350000D01*
X168384980Y-42346573D01*
X168383987Y-42345443D01*
X167701719Y-41460392D01*
X167699382Y-41451748D01*
X167701426Y-41446502D01*
X168005870Y-41015449D01*
X168013442Y-41010670D01*
X168015427Y-41010500D01*
X168718397Y-41010500D01*
X168726554Y-41013812D01*
G37*
%TD.AperFunction*%
%TD*%
%TA.AperFunction,Conductor*%
%TO.N,/~{MCU_OK}*%
G36*
X179275626Y-48221147D02*
G01*
X179831534Y-48408228D01*
X179838280Y-48414113D01*
X179839500Y-48419315D01*
X179839500Y-49322810D01*
X179836073Y-49331083D01*
X179828466Y-49334491D01*
X178768424Y-49394897D01*
X178759969Y-49391946D01*
X178759485Y-49391489D01*
X178680983Y-49312987D01*
X178677556Y-49304714D01*
X178678974Y-49299131D01*
X178924332Y-48847494D01*
X178929299Y-48842657D01*
X178938342Y-48838050D01*
X179028050Y-48748342D01*
X179085646Y-48635304D01*
X179104276Y-48517672D01*
X179105549Y-48513923D01*
X179261614Y-48226651D01*
X179268575Y-48221018D01*
X179275626Y-48221147D01*
G37*
%TD.AperFunction*%
%TD*%
%TA.AperFunction,Conductor*%
%TO.N,+3V3*%
G36*
X173975427Y-51249082D02*
G01*
X173979941Y-51256816D01*
X173980048Y-51258354D01*
X173981000Y-51520000D01*
X173981000Y-51520086D01*
X173980048Y-51781645D01*
X173976591Y-51789905D01*
X173968305Y-51793302D01*
X173966767Y-51793195D01*
X173440119Y-51721379D01*
X173432385Y-51716865D01*
X173430000Y-51709786D01*
X173430000Y-51330213D01*
X173433427Y-51321940D01*
X173440118Y-51318620D01*
X173966768Y-51246804D01*
X173975427Y-51249082D01*
G37*
%TD.AperFunction*%
%TD*%
%TA.AperFunction,Conductor*%
%TO.N,+3V3*%
G36*
X163713226Y-46226803D02*
G01*
X164239881Y-46298620D01*
X164247615Y-46303134D01*
X164250000Y-46310213D01*
X164250000Y-46689786D01*
X164246573Y-46698059D01*
X164239881Y-46701379D01*
X163713232Y-46773195D01*
X163704572Y-46770917D01*
X163700058Y-46763183D01*
X163699951Y-46761645D01*
X163699000Y-46500086D01*
X163699000Y-46500000D01*
X163699951Y-46238354D01*
X163703408Y-46230094D01*
X163711694Y-46226697D01*
X163713226Y-46226803D01*
G37*
%TD.AperFunction*%
%TD*%
%TA.AperFunction,Conductor*%
%TO.N,/R_SCK*%
G36*
X165753073Y-48853427D02*
G01*
X165755546Y-48857072D01*
X165939389Y-49283901D01*
X165939514Y-49292855D01*
X165933271Y-49299275D01*
X165933157Y-49299323D01*
X165694514Y-49399112D01*
X165685559Y-49399142D01*
X165685486Y-49399112D01*
X165446842Y-49299323D01*
X165440532Y-49292970D01*
X165440562Y-49284015D01*
X165440565Y-49284007D01*
X165624454Y-48857072D01*
X165630874Y-48850829D01*
X165635200Y-48850000D01*
X165744800Y-48850000D01*
X165753073Y-48853427D01*
G37*
%TD.AperFunction*%
%TD*%
%TA.AperFunction,Conductor*%
%TO.N,GND*%
G36*
X162310866Y-49760499D02*
G01*
X162204762Y-50014067D01*
X161744119Y-49778518D01*
X161806613Y-49670264D01*
X162204762Y-49505933D01*
X162310866Y-49760499D01*
G37*
%TD.AperFunction*%
%TD*%
%TA.AperFunction,Conductor*%
%TO.N,/RES*%
G36*
X173601327Y-47435304D02*
G01*
X173604300Y-47437462D01*
X173681828Y-47514990D01*
X173685255Y-47523263D01*
X173684166Y-47528193D01*
X173495575Y-47934079D01*
X173488981Y-47940138D01*
X173480523Y-47939973D01*
X173240617Y-47841542D01*
X173234264Y-47835232D01*
X173234234Y-47835159D01*
X173201095Y-47754390D01*
X173136342Y-47596567D01*
X173136372Y-47587614D01*
X173142725Y-47581304D01*
X173143526Y-47581009D01*
X173592402Y-47434612D01*
X173601327Y-47435304D01*
G37*
%TD.AperFunction*%
%TD*%
%TA.AperFunction,Conductor*%
%TO.N,/SWDIO*%
G36*
X173918567Y-50484598D02*
G01*
X173925033Y-50490791D01*
X173926022Y-50495500D01*
X173926022Y-50605137D01*
X173922595Y-50613410D01*
X173919385Y-50615685D01*
X173496343Y-50818736D01*
X173487401Y-50819226D01*
X173480732Y-50813251D01*
X173480486Y-50812702D01*
X173398103Y-50615685D01*
X173380886Y-50574512D01*
X173380857Y-50565559D01*
X173380856Y-50565559D01*
X173480836Y-50326459D01*
X173487188Y-50320151D01*
X173495871Y-50320072D01*
X173918567Y-50484598D01*
G37*
%TD.AperFunction*%
%TD*%
%TA.AperFunction,Conductor*%
%TO.N,/RAM_CS*%
G36*
X161552962Y-46738921D02*
G01*
X161558925Y-46744493D01*
X161745436Y-47118079D01*
X161746065Y-47127012D01*
X161745777Y-47127783D01*
X161703972Y-47228699D01*
X161697640Y-47235031D01*
X161689950Y-47235471D01*
X161207334Y-47097657D01*
X161200320Y-47092091D01*
X161199297Y-47083194D01*
X161199716Y-47081980D01*
X161297223Y-46844139D01*
X161303530Y-46837786D01*
X161544009Y-46738898D01*
X161552962Y-46738921D01*
G37*
%TD.AperFunction*%
%TD*%
%TA.AperFunction,Conductor*%
%TO.N,/SDA*%
G36*
X179565184Y-43844771D02*
G01*
X179836188Y-44123446D01*
X179839500Y-44131602D01*
X179839500Y-44968396D01*
X179836188Y-44976553D01*
X179565184Y-45255228D01*
X179556959Y-45258770D01*
X179550678Y-45257044D01*
X178505582Y-44615924D01*
X178500322Y-44608677D01*
X178500000Y-44605951D01*
X178500000Y-44494048D01*
X178503427Y-44485775D01*
X178505578Y-44484078D01*
X179550678Y-43842954D01*
X179559522Y-43841550D01*
X179565184Y-43844771D01*
G37*
%TD.AperFunction*%
%TD*%
%TA.AperFunction,Conductor*%
%TO.N,/RES*%
G36*
X178726554Y-41013812D02*
G01*
X179005228Y-41284815D01*
X179008770Y-41293040D01*
X179007044Y-41299321D01*
X178365924Y-42344418D01*
X178358677Y-42349678D01*
X178355951Y-42350000D01*
X178244049Y-42350000D01*
X178235776Y-42346573D01*
X178234076Y-42344418D01*
X177592955Y-41299321D01*
X177591550Y-41290477D01*
X177594770Y-41284816D01*
X177873446Y-41013811D01*
X177881603Y-41010500D01*
X178718397Y-41010500D01*
X178726554Y-41013812D01*
G37*
%TD.AperFunction*%
%TD*%
%TA.AperFunction,Conductor*%
%TO.N,Net-(U4-V+)*%
G36*
X175512794Y-49403745D02*
G01*
X175952481Y-49446565D01*
X175960382Y-49450777D01*
X175961074Y-49451709D01*
X176089866Y-49644467D01*
X176091613Y-49653250D01*
X176086638Y-49660695D01*
X176085875Y-49661164D01*
X175616694Y-49925121D01*
X175607803Y-49926191D01*
X175600760Y-49920661D01*
X175600164Y-49919440D01*
X175500083Y-49680239D01*
X175499176Y-49675688D01*
X175499221Y-49660695D01*
X175499961Y-49415355D01*
X175503413Y-49407093D01*
X175511696Y-49403691D01*
X175512794Y-49403745D01*
G37*
%TD.AperFunction*%
%TD*%
%TA.AperFunction,Conductor*%
%TO.N,/R_SCK*%
G36*
X165762811Y-48429955D02*
G01*
X165771070Y-48433412D01*
X165774467Y-48441698D01*
X165774455Y-48442178D01*
X165753000Y-48921653D01*
X165749207Y-48929765D01*
X165741312Y-48932830D01*
X165632199Y-48932830D01*
X165624106Y-48929579D01*
X165314156Y-48632701D01*
X165310552Y-48624504D01*
X165313800Y-48616159D01*
X165313870Y-48616087D01*
X165496553Y-48432463D01*
X165504813Y-48429017D01*
X165762811Y-48429955D01*
G37*
%TD.AperFunction*%
%TD*%
%TA.AperFunction,Conductor*%
%TO.N,+3V3*%
G36*
X170041646Y-43149951D02*
G01*
X170049905Y-43153408D01*
X170053302Y-43161694D01*
X170053195Y-43163232D01*
X169981380Y-43689881D01*
X169976866Y-43697615D01*
X169969787Y-43700000D01*
X169590213Y-43700000D01*
X169581940Y-43696573D01*
X169578620Y-43689881D01*
X169506804Y-43163232D01*
X169509082Y-43154572D01*
X169516816Y-43150058D01*
X169518347Y-43149951D01*
X169780000Y-43149000D01*
X170041646Y-43149951D01*
G37*
%TD.AperFunction*%
%TD*%
%TA.AperFunction,Conductor*%
%TO.N,GND*%
G36*
X161942215Y-49696831D02*
G01*
X161939033Y-49821789D01*
X161480618Y-49755000D01*
X161479619Y-49479975D01*
X161734685Y-49374762D01*
X161942215Y-49696831D01*
G37*
%TD.AperFunction*%
%TD*%
%TA.AperFunction,Conductor*%
%TO.N,/SCK*%
G36*
X163414218Y-44718602D02*
G01*
X163844306Y-44891537D01*
X163850703Y-44897803D01*
X163850796Y-44906757D01*
X163850765Y-44906833D01*
X163752563Y-45146180D01*
X163746253Y-45152533D01*
X163746180Y-45152563D01*
X163506919Y-45250730D01*
X163497964Y-45250700D01*
X163491654Y-45244347D01*
X163491624Y-45244273D01*
X163321464Y-44811238D01*
X163321627Y-44802288D01*
X163324077Y-44798692D01*
X163401585Y-44721184D01*
X163409857Y-44717758D01*
X163414218Y-44718602D01*
G37*
%TD.AperFunction*%
%TD*%
%TA.AperFunction,Conductor*%
%TO.N,/RES_TC*%
G36*
X173546509Y-46669869D02*
G01*
X173550154Y-46672342D01*
X173627653Y-46749841D01*
X173631080Y-46758114D01*
X173630251Y-46762440D01*
X173458434Y-47194251D01*
X173452191Y-47200671D01*
X173443237Y-47200796D01*
X173443122Y-47200749D01*
X173203815Y-47102563D01*
X173197462Y-47096253D01*
X173197432Y-47096180D01*
X173157936Y-46999918D01*
X173099246Y-46856871D01*
X173099276Y-46847918D01*
X173105629Y-46841608D01*
X173105679Y-46841587D01*
X173537557Y-46669744D01*
X173546509Y-46669869D01*
G37*
%TD.AperFunction*%
%TD*%
M02*
