%TF.GenerationSoftware,KiCad,Pcbnew,8.0.0-rc2-74-g5f063dd458*%
%TF.CreationDate,2024-01-29T02:33:14+02:00*%
%TF.ProjectId,SamoMCU,53616d6f-4d43-4552-9e6b-696361645f70,rev?*%
%TF.SameCoordinates,Original*%
%TF.FileFunction,Legend,Bot*%
%TF.FilePolarity,Positive*%
%FSLAX46Y46*%
G04 Gerber Fmt 4.6, Leading zero omitted, Abs format (unit mm)*
G04 Created by KiCad (PCBNEW 8.0.0-rc2-74-g5f063dd458) date 2024-01-29 02:33:14*
%MOMM*%
%LPD*%
G01*
G04 APERTURE LIST*
%ADD10C,0.000000*%
%ADD11C,0.150000*%
%ADD12C,0.250000*%
G04 APERTURE END LIST*
D10*
G36*
X165112619Y-48272827D02*
G01*
X165179117Y-48276300D01*
X165207784Y-48278904D01*
X165232302Y-48282088D01*
X165251848Y-48285850D01*
X165265602Y-48290191D01*
X165267793Y-48291451D01*
X165269736Y-48293247D01*
X165271431Y-48295577D01*
X165272878Y-48298438D01*
X165274077Y-48301829D01*
X165275028Y-48305748D01*
X165275731Y-48310192D01*
X165276185Y-48315161D01*
X165276392Y-48320651D01*
X165276351Y-48326661D01*
X165275524Y-48340234D01*
X165273705Y-48355864D01*
X165270894Y-48373534D01*
X165267090Y-48393231D01*
X165262295Y-48414937D01*
X165256507Y-48438639D01*
X165249727Y-48464319D01*
X165241955Y-48491964D01*
X165233191Y-48521556D01*
X165223434Y-48553081D01*
X165212685Y-48586524D01*
X165185132Y-48672589D01*
X165162249Y-48739266D01*
X165152056Y-48766095D01*
X165142426Y-48788992D01*
X165133158Y-48808261D01*
X165124050Y-48824208D01*
X165114901Y-48837136D01*
X165105509Y-48847352D01*
X165095672Y-48855159D01*
X165085189Y-48860864D01*
X165073859Y-48864770D01*
X165061480Y-48867182D01*
X165047851Y-48868406D01*
X165032769Y-48868746D01*
X165018268Y-48868407D01*
X165011515Y-48867926D01*
X165005063Y-48867189D01*
X164998888Y-48866157D01*
X164992965Y-48864793D01*
X164987271Y-48863059D01*
X164981781Y-48860919D01*
X164976473Y-48858334D01*
X164971321Y-48855267D01*
X164966303Y-48851681D01*
X164961393Y-48847538D01*
X164956569Y-48842801D01*
X164951806Y-48837432D01*
X164947081Y-48831394D01*
X164942369Y-48824649D01*
X164937647Y-48817160D01*
X164932891Y-48808889D01*
X164928077Y-48799800D01*
X164923180Y-48789853D01*
X164918178Y-48779013D01*
X164913046Y-48767242D01*
X164907760Y-48754501D01*
X164902296Y-48740754D01*
X164890740Y-48710091D01*
X164878187Y-48674953D01*
X164864446Y-48635039D01*
X164849324Y-48590052D01*
X164823493Y-48509884D01*
X164804070Y-48445468D01*
X164796696Y-48418611D01*
X164790847Y-48395025D01*
X164786497Y-48374488D01*
X164783620Y-48356777D01*
X164782189Y-48341671D01*
X164782179Y-48328948D01*
X164783565Y-48318384D01*
X164786320Y-48309759D01*
X164790419Y-48302849D01*
X164795836Y-48297432D01*
X164802544Y-48293287D01*
X164810519Y-48290191D01*
X164824893Y-48285850D01*
X164844977Y-48282088D01*
X164869949Y-48278904D01*
X164898989Y-48276300D01*
X164965982Y-48272827D01*
X165039383Y-48271670D01*
X165112619Y-48272827D01*
G37*
G36*
X162840000Y-45960000D02*
G01*
X160760000Y-45960000D01*
X160760000Y-44270000D01*
X162840000Y-44270000D01*
X162840000Y-45960000D01*
G37*
G36*
X164324985Y-48625565D02*
G01*
X164326888Y-48626265D01*
X164332436Y-48629009D01*
X164340196Y-48633468D01*
X164350034Y-48639551D01*
X164375403Y-48656211D01*
X164407470Y-48678246D01*
X164445160Y-48704911D01*
X164487397Y-48735462D01*
X164533106Y-48769155D01*
X164581213Y-48805246D01*
X164647738Y-48857108D01*
X164675572Y-48879575D01*
X164700000Y-48900000D01*
X164721183Y-48918585D01*
X164739281Y-48935533D01*
X164754454Y-48951043D01*
X164766862Y-48965319D01*
X164776666Y-48978561D01*
X164784026Y-48990971D01*
X164789101Y-49002751D01*
X164790833Y-49008467D01*
X164792053Y-49014101D01*
X164792782Y-49019679D01*
X164793041Y-49025225D01*
X164792225Y-49036322D01*
X164789766Y-49047595D01*
X164785824Y-49059246D01*
X164783792Y-49065356D01*
X164781634Y-49071126D01*
X164779310Y-49076569D01*
X164776778Y-49081694D01*
X164773994Y-49086515D01*
X164770918Y-49091043D01*
X164767508Y-49095288D01*
X164763721Y-49099264D01*
X164759515Y-49102982D01*
X164754849Y-49106452D01*
X164749680Y-49109688D01*
X164743967Y-49112700D01*
X164737667Y-49115500D01*
X164730738Y-49118100D01*
X164723139Y-49120512D01*
X164714828Y-49122746D01*
X164705762Y-49124815D01*
X164695900Y-49126730D01*
X164685199Y-49128504D01*
X164673618Y-49130146D01*
X164661114Y-49131670D01*
X164647646Y-49133087D01*
X164633172Y-49134408D01*
X164617649Y-49135645D01*
X164583290Y-49137913D01*
X164544234Y-49139985D01*
X164500144Y-49141954D01*
X164450686Y-49143913D01*
X164140241Y-49154496D01*
X164164936Y-49013385D01*
X164169819Y-48984532D01*
X164176387Y-48953881D01*
X164184423Y-48921949D01*
X164193709Y-48889251D01*
X164204029Y-48856306D01*
X164215165Y-48823629D01*
X164226901Y-48791738D01*
X164239019Y-48761149D01*
X164251302Y-48732379D01*
X164263534Y-48705945D01*
X164275497Y-48682363D01*
X164286975Y-48662151D01*
X164297749Y-48645824D01*
X164307604Y-48633901D01*
X164312119Y-48629752D01*
X164316322Y-48626897D01*
X164320187Y-48625401D01*
X164323686Y-48625329D01*
X164324985Y-48625565D01*
G37*
G36*
X166860158Y-50283385D02*
G01*
X166858439Y-50285028D01*
X166852034Y-50286648D01*
X166825597Y-50289814D01*
X166721251Y-50295787D01*
X166554068Y-50301182D01*
X166330991Y-50305875D01*
X165744939Y-50312654D01*
X165018658Y-50315135D01*
X163708529Y-50310725D01*
X163309615Y-50306205D01*
X163163046Y-50301024D01*
X163182540Y-50265746D01*
X163233602Y-50265746D01*
X163270079Y-50268378D01*
X163374603Y-50270927D01*
X163758359Y-50275447D01*
X164326001Y-50278645D01*
X165018658Y-50279857D01*
X165711590Y-50277377D01*
X166275870Y-50270597D01*
X166654279Y-50260509D01*
X166755902Y-50254536D01*
X166789602Y-50248107D01*
X166494867Y-49705546D01*
X165886932Y-48619597D01*
X165284950Y-47556799D01*
X165008074Y-47083691D01*
X164986356Y-47118638D01*
X164931566Y-47213777D01*
X164737317Y-47558177D01*
X164112019Y-48678246D01*
X163491571Y-49794788D01*
X163233602Y-50265746D01*
X163182540Y-50265746D01*
X164080710Y-48640323D01*
X165011602Y-46974329D01*
X165031639Y-47005445D01*
X165086568Y-47099565D01*
X165285887Y-47449697D01*
X165579133Y-47970486D01*
X165935880Y-48607690D01*
X166840699Y-50248107D01*
X166860158Y-50283385D01*
G37*
G36*
X164838484Y-49331571D02*
G01*
X164848291Y-49334551D01*
X164857705Y-49339060D01*
X164866963Y-49344996D01*
X164874001Y-49350224D01*
X164880563Y-49355359D01*
X164886646Y-49360453D01*
X164892250Y-49365556D01*
X164897374Y-49370722D01*
X164902015Y-49376002D01*
X164906174Y-49381447D01*
X164909848Y-49387109D01*
X164913036Y-49393040D01*
X164915737Y-49399291D01*
X164917950Y-49405914D01*
X164919673Y-49412961D01*
X164920906Y-49420483D01*
X164921646Y-49428533D01*
X164921892Y-49437161D01*
X164921644Y-49446420D01*
X164920900Y-49456361D01*
X164919658Y-49467035D01*
X164917917Y-49478495D01*
X164915677Y-49490793D01*
X164912935Y-49503979D01*
X164909691Y-49518105D01*
X164905943Y-49533224D01*
X164901690Y-49549387D01*
X164896930Y-49566645D01*
X164891663Y-49585050D01*
X164879600Y-49625509D01*
X164865490Y-49671178D01*
X164849324Y-49722468D01*
X164828943Y-49782406D01*
X164819295Y-49808796D01*
X164809968Y-49832877D01*
X164800929Y-49854704D01*
X164792150Y-49874335D01*
X164783597Y-49891827D01*
X164775241Y-49907236D01*
X164767050Y-49920619D01*
X164758994Y-49932034D01*
X164751041Y-49941536D01*
X164743160Y-49949183D01*
X164735321Y-49955032D01*
X164727492Y-49959140D01*
X164719642Y-49961562D01*
X164711741Y-49962357D01*
X164704831Y-49961768D01*
X164696728Y-49960044D01*
X164677297Y-49953441D01*
X164654155Y-49943056D01*
X164628011Y-49929395D01*
X164599573Y-49912963D01*
X164569548Y-49894268D01*
X164538645Y-49873817D01*
X164507571Y-49852114D01*
X164477034Y-49829668D01*
X164447743Y-49806983D01*
X164420406Y-49784568D01*
X164395729Y-49762928D01*
X164374422Y-49742569D01*
X164357192Y-49723998D01*
X164344748Y-49707721D01*
X164340541Y-49700602D01*
X164337797Y-49694246D01*
X164337453Y-49692037D01*
X164337736Y-49689388D01*
X164338632Y-49686313D01*
X164340125Y-49682829D01*
X164342203Y-49678949D01*
X164344850Y-49674689D01*
X164351797Y-49665087D01*
X164360853Y-49654141D01*
X164371903Y-49641970D01*
X164384834Y-49628694D01*
X164399533Y-49614430D01*
X164415885Y-49599298D01*
X164433777Y-49583417D01*
X164453095Y-49566906D01*
X164473726Y-49549883D01*
X164495556Y-49532467D01*
X164518471Y-49514777D01*
X164542358Y-49496933D01*
X164567102Y-49479052D01*
X164636707Y-49429305D01*
X164666522Y-49408637D01*
X164693330Y-49390637D01*
X164717369Y-49375199D01*
X164738875Y-49362222D01*
X164758086Y-49351600D01*
X164775241Y-49343232D01*
X164790577Y-49337014D01*
X164804331Y-49332842D01*
X164816742Y-49330613D01*
X164828048Y-49330224D01*
X164838484Y-49331571D01*
G37*
G36*
X165083212Y-48983491D02*
G01*
X165093410Y-48984859D01*
X165103324Y-48986651D01*
X165112908Y-48988871D01*
X165122114Y-48991527D01*
X165130896Y-48994622D01*
X165139208Y-48998164D01*
X165147004Y-49002159D01*
X165154236Y-49006611D01*
X165160858Y-49011527D01*
X165166824Y-49016913D01*
X165177001Y-49028126D01*
X165185732Y-49039891D01*
X165193058Y-49052140D01*
X165199022Y-49064806D01*
X165203666Y-49077821D01*
X165207031Y-49091118D01*
X165209160Y-49104627D01*
X165210095Y-49118281D01*
X165209877Y-49132013D01*
X165208549Y-49145755D01*
X165206152Y-49159439D01*
X165202729Y-49172996D01*
X165198322Y-49186360D01*
X165192972Y-49199462D01*
X165186721Y-49212235D01*
X165179613Y-49224611D01*
X165171687Y-49236521D01*
X165162987Y-49247899D01*
X165153555Y-49258676D01*
X165143432Y-49268784D01*
X165132661Y-49278156D01*
X165121283Y-49286723D01*
X165109340Y-49294419D01*
X165096875Y-49301175D01*
X165083929Y-49306923D01*
X165070545Y-49311595D01*
X165056764Y-49315124D01*
X165042629Y-49317442D01*
X165028180Y-49318481D01*
X165013462Y-49318173D01*
X164998514Y-49316451D01*
X164983380Y-49313246D01*
X164973925Y-49310575D01*
X164964751Y-49307213D01*
X164955871Y-49303193D01*
X164947296Y-49298549D01*
X164939039Y-49293313D01*
X164931112Y-49287519D01*
X164923527Y-49281198D01*
X164916297Y-49274385D01*
X164909434Y-49267112D01*
X164902950Y-49259412D01*
X164896857Y-49251318D01*
X164891169Y-49242863D01*
X164885896Y-49234079D01*
X164881051Y-49225001D01*
X164876647Y-49215660D01*
X164872696Y-49206090D01*
X164869210Y-49196323D01*
X164866201Y-49186393D01*
X164863682Y-49176333D01*
X164861665Y-49166175D01*
X164860162Y-49155952D01*
X164859185Y-49145698D01*
X164858747Y-49135445D01*
X164858860Y-49125227D01*
X164859537Y-49115075D01*
X164860789Y-49105024D01*
X164862629Y-49095105D01*
X164865068Y-49085353D01*
X164868121Y-49075800D01*
X164871798Y-49066478D01*
X164876111Y-49057422D01*
X164881074Y-49048663D01*
X164885759Y-49042194D01*
X164891182Y-49036020D01*
X164897298Y-49030147D01*
X164904060Y-49024582D01*
X164911421Y-49019328D01*
X164919336Y-49014394D01*
X164927756Y-49009783D01*
X164936637Y-49005503D01*
X164945931Y-49001558D01*
X164955592Y-48997955D01*
X164975828Y-48991798D01*
X164996974Y-48987077D01*
X165018658Y-48983840D01*
X165040507Y-48982132D01*
X165062149Y-48982000D01*
X165083212Y-48983491D01*
G37*
G36*
X165246362Y-49329486D02*
G01*
X165252490Y-49330177D01*
X165258876Y-49331314D01*
X165265547Y-49332911D01*
X165272528Y-49334977D01*
X165279844Y-49337525D01*
X165287522Y-49340567D01*
X165295588Y-49344114D01*
X165304068Y-49348178D01*
X165312986Y-49352770D01*
X165322370Y-49357902D01*
X165332244Y-49363586D01*
X165353569Y-49376655D01*
X165377168Y-49392070D01*
X165403248Y-49409924D01*
X165432014Y-49430311D01*
X165463675Y-49453322D01*
X165498436Y-49479052D01*
X165544993Y-49514803D01*
X165585472Y-49546948D01*
X165619917Y-49575930D01*
X165634888Y-49589373D01*
X165648366Y-49602193D01*
X165660356Y-49614445D01*
X165670863Y-49626183D01*
X165679891Y-49637464D01*
X165687447Y-49648344D01*
X165693536Y-49658877D01*
X165698162Y-49669119D01*
X165701330Y-49679127D01*
X165703047Y-49688955D01*
X165703316Y-49698658D01*
X165702144Y-49708294D01*
X165699535Y-49717916D01*
X165695495Y-49727581D01*
X165690028Y-49737344D01*
X165683141Y-49747261D01*
X165674837Y-49757387D01*
X165665123Y-49767778D01*
X165654003Y-49778490D01*
X165641483Y-49789577D01*
X165612261Y-49813102D01*
X165577500Y-49838797D01*
X165537241Y-49867107D01*
X165500886Y-49891722D01*
X165468318Y-49912548D01*
X165439193Y-49929437D01*
X165425812Y-49936358D01*
X165413163Y-49942238D01*
X165401200Y-49947059D01*
X165389881Y-49950802D01*
X165379164Y-49953448D01*
X165369003Y-49954978D01*
X165359357Y-49955374D01*
X165350182Y-49954617D01*
X165341434Y-49952688D01*
X165333071Y-49949569D01*
X165325049Y-49945241D01*
X165317324Y-49939684D01*
X165309854Y-49932881D01*
X165302596Y-49924813D01*
X165295505Y-49915460D01*
X165288539Y-49904804D01*
X165281654Y-49892827D01*
X165274807Y-49879510D01*
X165267956Y-49864833D01*
X165261055Y-49848778D01*
X165246937Y-49812461D01*
X165232105Y-49770408D01*
X165216213Y-49722468D01*
X165184925Y-49624056D01*
X165172565Y-49582810D01*
X165162360Y-49546355D01*
X165154283Y-49514303D01*
X165148310Y-49486266D01*
X165144415Y-49461856D01*
X165142571Y-49440687D01*
X165142753Y-49422370D01*
X165144934Y-49406519D01*
X165149090Y-49392744D01*
X165155194Y-49380660D01*
X165163220Y-49369877D01*
X165173143Y-49360010D01*
X165184936Y-49350669D01*
X165198574Y-49341468D01*
X165203540Y-49338659D01*
X165208531Y-49336192D01*
X165213573Y-49334079D01*
X165218694Y-49332332D01*
X165223917Y-49330962D01*
X165229270Y-49329981D01*
X165234778Y-49329400D01*
X165240467Y-49329231D01*
X165246362Y-49329486D01*
G37*
G36*
X165749641Y-48621966D02*
G01*
X165750514Y-48622452D01*
X165751523Y-48623252D01*
X165752663Y-48624358D01*
X165755318Y-48627452D01*
X165758444Y-48631668D01*
X165762003Y-48636939D01*
X165765961Y-48643196D01*
X165770280Y-48650373D01*
X165774925Y-48658402D01*
X165779859Y-48667217D01*
X165785047Y-48676751D01*
X165796037Y-48697704D01*
X165807605Y-48720724D01*
X165819463Y-48745274D01*
X165831631Y-48772711D01*
X165844048Y-48804033D01*
X165856298Y-48838167D01*
X165867970Y-48874038D01*
X165878650Y-48910570D01*
X165887924Y-48946688D01*
X165891905Y-48964256D01*
X165895379Y-48981318D01*
X165898296Y-48997739D01*
X165900602Y-49013385D01*
X165925297Y-49154496D01*
X165614852Y-49143913D01*
X165521304Y-49139985D01*
X165447889Y-49135645D01*
X165417892Y-49133087D01*
X165391920Y-49130146D01*
X165369638Y-49126730D01*
X165350710Y-49122746D01*
X165334799Y-49118100D01*
X165321571Y-49112700D01*
X165310689Y-49106452D01*
X165301817Y-49099264D01*
X165294619Y-49091043D01*
X165288760Y-49081694D01*
X165283903Y-49071126D01*
X165279713Y-49059246D01*
X165277567Y-49053361D01*
X165275774Y-49047595D01*
X165274355Y-49041924D01*
X165273333Y-49036322D01*
X165272729Y-49030764D01*
X165272566Y-49025225D01*
X165272866Y-49019679D01*
X165273650Y-49014101D01*
X165274940Y-49008467D01*
X165276759Y-49002751D01*
X165279128Y-48996927D01*
X165282070Y-48990971D01*
X165285605Y-48984857D01*
X165289757Y-48978561D01*
X165294548Y-48972057D01*
X165299998Y-48965319D01*
X165306130Y-48958323D01*
X165312967Y-48951043D01*
X165320530Y-48943455D01*
X165328840Y-48935533D01*
X165337921Y-48927251D01*
X165347793Y-48918585D01*
X165370002Y-48900000D01*
X165395642Y-48879575D01*
X165424890Y-48857108D01*
X165457919Y-48832399D01*
X165494908Y-48805246D01*
X165590158Y-48733423D01*
X165669533Y-48675159D01*
X165700787Y-48652869D01*
X165725095Y-48636078D01*
X165741466Y-48625488D01*
X165746365Y-48622738D01*
X165748908Y-48621802D01*
X165749641Y-48621966D01*
G37*
D11*
X166542857Y-50594271D02*
X166500000Y-50551414D01*
X166500000Y-50551414D02*
X166414286Y-50508557D01*
X166414286Y-50508557D02*
X166200000Y-50508557D01*
X166200000Y-50508557D02*
X166114286Y-50551414D01*
X166114286Y-50551414D02*
X166071428Y-50594271D01*
X166071428Y-50594271D02*
X166028571Y-50679985D01*
X166028571Y-50679985D02*
X166028571Y-50765700D01*
X166028571Y-50765700D02*
X166071428Y-50894271D01*
X166071428Y-50894271D02*
X166585714Y-51408557D01*
X166585714Y-51408557D02*
X166028571Y-51408557D01*
X165471428Y-50508557D02*
X165385714Y-50508557D01*
X165385714Y-50508557D02*
X165300000Y-50551414D01*
X165300000Y-50551414D02*
X165257143Y-50594271D01*
X165257143Y-50594271D02*
X165214285Y-50679985D01*
X165214285Y-50679985D02*
X165171428Y-50851414D01*
X165171428Y-50851414D02*
X165171428Y-51065700D01*
X165171428Y-51065700D02*
X165214285Y-51237128D01*
X165214285Y-51237128D02*
X165257143Y-51322842D01*
X165257143Y-51322842D02*
X165300000Y-51365700D01*
X165300000Y-51365700D02*
X165385714Y-51408557D01*
X165385714Y-51408557D02*
X165471428Y-51408557D01*
X165471428Y-51408557D02*
X165557143Y-51365700D01*
X165557143Y-51365700D02*
X165600000Y-51322842D01*
X165600000Y-51322842D02*
X165642857Y-51237128D01*
X165642857Y-51237128D02*
X165685714Y-51065700D01*
X165685714Y-51065700D02*
X165685714Y-50851414D01*
X165685714Y-50851414D02*
X165642857Y-50679985D01*
X165642857Y-50679985D02*
X165600000Y-50594271D01*
X165600000Y-50594271D02*
X165557143Y-50551414D01*
X165557143Y-50551414D02*
X165471428Y-50508557D01*
X164828571Y-50594271D02*
X164785714Y-50551414D01*
X164785714Y-50551414D02*
X164700000Y-50508557D01*
X164700000Y-50508557D02*
X164485714Y-50508557D01*
X164485714Y-50508557D02*
X164400000Y-50551414D01*
X164400000Y-50551414D02*
X164357142Y-50594271D01*
X164357142Y-50594271D02*
X164314285Y-50679985D01*
X164314285Y-50679985D02*
X164314285Y-50765700D01*
X164314285Y-50765700D02*
X164357142Y-50894271D01*
X164357142Y-50894271D02*
X164871428Y-51408557D01*
X164871428Y-51408557D02*
X164314285Y-51408557D01*
X163542857Y-50808557D02*
X163542857Y-51408557D01*
X163757142Y-50465700D02*
X163971428Y-51108557D01*
X163971428Y-51108557D02*
X163414285Y-51108557D01*
D12*
G36*
X166676343Y-44900158D02*
G01*
X166719330Y-44923789D01*
X166756210Y-44958105D01*
X166787229Y-44998039D01*
X166787229Y-45343886D01*
X166754110Y-45382878D01*
X166723970Y-45405191D01*
X166676902Y-45422934D01*
X166640928Y-45426441D01*
X166590996Y-45418908D01*
X166546729Y-45393509D01*
X166520516Y-45362693D01*
X166498749Y-45315481D01*
X166487140Y-45267098D01*
X166481214Y-45217024D01*
X166479239Y-45159727D01*
X166480553Y-45109360D01*
X166485094Y-45059968D01*
X166494826Y-45009827D01*
X166495847Y-45006099D01*
X166514731Y-44957663D01*
X166544696Y-44919637D01*
X166589385Y-44896796D01*
X166627006Y-44892281D01*
X166676343Y-44900158D01*
G37*
G36*
X173390090Y-44900158D02*
G01*
X173433077Y-44923789D01*
X173469958Y-44958105D01*
X173500976Y-44998039D01*
X173500976Y-45343886D01*
X173467858Y-45382878D01*
X173437718Y-45405191D01*
X173390650Y-45422934D01*
X173354675Y-45426441D01*
X173304743Y-45418908D01*
X173260476Y-45393509D01*
X173234263Y-45362693D01*
X173212496Y-45315481D01*
X173200887Y-45267098D01*
X173194961Y-45217024D01*
X173192986Y-45159727D01*
X173194300Y-45109360D01*
X173198841Y-45059968D01*
X173208573Y-45009827D01*
X173209595Y-45006099D01*
X173228478Y-44957663D01*
X173258443Y-44919637D01*
X173303132Y-44896796D01*
X173340753Y-44892281D01*
X173390090Y-44900158D01*
G37*
G36*
X163314432Y-45176687D02*
G01*
X163362822Y-45184791D01*
X163408427Y-45202619D01*
X163421318Y-45211263D01*
X163453709Y-45248649D01*
X163467961Y-45296694D01*
X163468702Y-45312379D01*
X163461725Y-45361323D01*
X163436950Y-45402260D01*
X163391569Y-45427342D01*
X163342916Y-45433279D01*
X163292933Y-45426179D01*
X163249860Y-45408122D01*
X163208644Y-45377897D01*
X163176343Y-45337536D01*
X163176343Y-45174382D01*
X163263049Y-45174382D01*
X163314432Y-45176687D01*
G37*
G36*
X165849707Y-44894781D02*
G01*
X165894048Y-44916935D01*
X165919678Y-44939909D01*
X165947857Y-44982966D01*
X165965259Y-45034181D01*
X165973548Y-45083430D01*
X165975366Y-45103796D01*
X165632937Y-45103796D01*
X165636555Y-45054672D01*
X165646647Y-45006634D01*
X165667639Y-44958311D01*
X165677634Y-44943572D01*
X165714408Y-44909340D01*
X165761348Y-44890908D01*
X165798290Y-44887397D01*
X165849707Y-44894781D01*
G37*
G36*
X168349742Y-45176687D02*
G01*
X168398132Y-45184791D01*
X168443738Y-45202619D01*
X168456629Y-45211263D01*
X168489020Y-45248649D01*
X168503272Y-45296694D01*
X168504012Y-45312379D01*
X168497035Y-45361323D01*
X168472260Y-45402260D01*
X168426880Y-45427342D01*
X168378227Y-45433279D01*
X168328243Y-45426179D01*
X168285170Y-45408122D01*
X168243954Y-45377897D01*
X168211653Y-45337536D01*
X168211653Y-45174382D01*
X168298360Y-45174382D01*
X168349742Y-45176687D01*
G37*
G36*
X176300436Y-45956639D02*
G01*
X162841294Y-45956639D01*
X162841294Y-45441828D01*
X162966294Y-45441828D01*
X163001221Y-45548318D01*
X163049131Y-45538554D01*
X163095254Y-45518276D01*
X163133267Y-45483620D01*
X163154605Y-45445980D01*
X163191135Y-45483304D01*
X163234840Y-45512323D01*
X163257431Y-45522916D01*
X163305345Y-45538693D01*
X163355663Y-45547188D01*
X163390544Y-45548806D01*
X163443575Y-45544853D01*
X163496301Y-45530953D01*
X163541686Y-45507045D01*
X163541989Y-45506796D01*
X163832623Y-45506796D01*
X163879755Y-45526145D01*
X163913712Y-45536106D01*
X163965003Y-45545631D01*
X164015493Y-45548757D01*
X164023133Y-45548806D01*
X164075737Y-45544898D01*
X164127544Y-45531160D01*
X164171547Y-45507529D01*
X164196545Y-45486280D01*
X164226416Y-45447301D01*
X164241293Y-45413007D01*
X164834996Y-45413007D01*
X164843423Y-45461283D01*
X164852826Y-45481395D01*
X164885269Y-45519297D01*
X164901674Y-45530488D01*
X164949824Y-45547357D01*
X164970795Y-45548806D01*
X165019501Y-45540148D01*
X165039427Y-45530488D01*
X165076978Y-45497819D01*
X165088032Y-45481395D01*
X165104451Y-45433426D01*
X165105861Y-45413007D01*
X165097434Y-45364637D01*
X165088032Y-45344863D01*
X165055714Y-45307411D01*
X165039427Y-45296259D01*
X164991530Y-45279390D01*
X164970795Y-45277941D01*
X164921648Y-45286599D01*
X164901674Y-45296259D01*
X164863898Y-45328675D01*
X164852826Y-45344863D01*
X164836406Y-45392410D01*
X164834996Y-45413007D01*
X164241293Y-45413007D01*
X164246511Y-45400980D01*
X164256830Y-45347318D01*
X164258339Y-45314333D01*
X164258339Y-45140921D01*
X165481018Y-45140921D01*
X165482240Y-45178290D01*
X165484682Y-45210774D01*
X165974633Y-45210774D01*
X165968620Y-45259538D01*
X165954666Y-45308685D01*
X165942393Y-45334361D01*
X165912991Y-45373659D01*
X165873347Y-45403274D01*
X165870586Y-45404703D01*
X165823935Y-45421556D01*
X165772889Y-45427173D01*
X165723651Y-45423470D01*
X165675154Y-45411357D01*
X165672260Y-45410321D01*
X165625854Y-45389987D01*
X165581905Y-45364603D01*
X165578960Y-45362693D01*
X165511060Y-45456482D01*
X165552517Y-45485620D01*
X165598850Y-45510017D01*
X165632449Y-45523649D01*
X165681153Y-45537972D01*
X165732223Y-45546349D01*
X165780704Y-45548806D01*
X165835903Y-45545753D01*
X165886706Y-45536594D01*
X165933112Y-45521329D01*
X165975122Y-45499958D01*
X166016758Y-45469310D01*
X166052367Y-45432595D01*
X166081948Y-45389814D01*
X166095778Y-45363426D01*
X166113836Y-45317997D01*
X166126735Y-45269148D01*
X166134475Y-45216880D01*
X166137055Y-45161193D01*
X166136952Y-45158995D01*
X166314619Y-45158995D01*
X166314646Y-45159727D01*
X166316634Y-45213781D01*
X166322679Y-45265546D01*
X166332754Y-45314287D01*
X166346859Y-45360006D01*
X166367467Y-45406608D01*
X166396166Y-45451364D01*
X166430970Y-45488726D01*
X166442602Y-45498492D01*
X166485121Y-45525025D01*
X166533602Y-45541731D01*
X166582333Y-45548364D01*
X166599651Y-45548806D01*
X166648364Y-45544891D01*
X166698769Y-45530828D01*
X166743557Y-45506537D01*
X166782728Y-45472019D01*
X166787229Y-45466985D01*
X166787229Y-45814298D01*
X166944033Y-45831639D01*
X166944033Y-45530000D01*
X167125994Y-45530000D01*
X167265212Y-45530000D01*
X167265212Y-45002191D01*
X167267227Y-44952304D01*
X167273272Y-44918904D01*
X167315038Y-44893747D01*
X167363651Y-44907387D01*
X167368771Y-44910355D01*
X167406731Y-44943939D01*
X167424214Y-44966531D01*
X167424214Y-45530000D01*
X167550732Y-45530000D01*
X167550732Y-45002191D01*
X167552747Y-44952304D01*
X167558792Y-44918904D01*
X167600558Y-44893747D01*
X167648055Y-44906463D01*
X167654780Y-44910355D01*
X167692299Y-44943939D01*
X167709734Y-44966531D01*
X167709734Y-45530000D01*
X167849685Y-45530000D01*
X167849685Y-45441828D01*
X168001605Y-45441828D01*
X168036531Y-45548318D01*
X168084441Y-45538554D01*
X168130565Y-45518276D01*
X168168578Y-45483620D01*
X168189916Y-45445980D01*
X168226446Y-45483304D01*
X168270150Y-45512323D01*
X168292742Y-45522916D01*
X168340656Y-45538693D01*
X168390973Y-45547188D01*
X168425854Y-45548806D01*
X168478886Y-45544853D01*
X168531612Y-45530953D01*
X168533421Y-45530000D01*
X168779274Y-45530000D01*
X168971004Y-45530000D01*
X169288764Y-45125289D01*
X168993475Y-44790921D01*
X168810537Y-44790921D01*
X169109490Y-45121137D01*
X168779274Y-45530000D01*
X168533421Y-45530000D01*
X168576997Y-45507045D01*
X168603175Y-45485547D01*
X168634817Y-45446815D01*
X168656103Y-45401784D01*
X168667034Y-45350455D01*
X168668632Y-45319218D01*
X168662953Y-45264202D01*
X168645917Y-45215903D01*
X168617524Y-45174321D01*
X168577773Y-45139455D01*
X168534164Y-45114902D01*
X168483052Y-45096379D01*
X168433269Y-45085302D01*
X168377974Y-45078656D01*
X168327684Y-45076502D01*
X168317166Y-45076441D01*
X168211653Y-45076441D01*
X168211653Y-45028080D01*
X168218748Y-44976704D01*
X168244565Y-44933753D01*
X168254640Y-44925254D01*
X168299032Y-44903716D01*
X168347873Y-44894855D01*
X168376029Y-44893747D01*
X168427530Y-44897468D01*
X168464200Y-44903272D01*
X168513817Y-44914228D01*
X168562063Y-44928520D01*
X168572644Y-44932093D01*
X168611235Y-44821695D01*
X168563893Y-44805512D01*
X168513037Y-44791545D01*
X168475436Y-44783593D01*
X168426984Y-44776003D01*
X168377595Y-44771733D01*
X168352337Y-44771137D01*
X168299303Y-44773455D01*
X168244137Y-44782021D01*
X168196194Y-44796897D01*
X168150245Y-44821627D01*
X168130809Y-44837083D01*
X168095389Y-44878039D01*
X168071561Y-44926993D01*
X168060112Y-44977224D01*
X168057536Y-45019043D01*
X168057536Y-45174382D01*
X168057536Y-45348771D01*
X168051302Y-45397247D01*
X168044347Y-45412030D01*
X168003421Y-45441207D01*
X168001605Y-45441828D01*
X167849685Y-45441828D01*
X167849685Y-44790921D01*
X167731472Y-44790921D01*
X167720969Y-44870544D01*
X167688058Y-44830671D01*
X167652337Y-44798981D01*
X167608549Y-44777255D01*
X167562700Y-44771137D01*
X167513241Y-44779342D01*
X167486496Y-44792142D01*
X167452059Y-44828193D01*
X167435938Y-44865659D01*
X167403087Y-44827618D01*
X167366085Y-44797515D01*
X167320375Y-44776933D01*
X167273517Y-44771137D01*
X167224344Y-44778293D01*
X167198046Y-44789455D01*
X167161638Y-44822829D01*
X167145289Y-44853203D01*
X167131440Y-44903789D01*
X167126465Y-44955772D01*
X167125994Y-44980453D01*
X167125994Y-45530000D01*
X166944033Y-45530000D01*
X166944033Y-44790921D01*
X166807501Y-44790921D01*
X166797732Y-44885931D01*
X166764301Y-44846936D01*
X166723743Y-44813839D01*
X166700034Y-44799958D01*
X166653942Y-44781297D01*
X166602410Y-44771841D01*
X166583531Y-44771137D01*
X166531530Y-44774943D01*
X166481002Y-44788100D01*
X166434237Y-44813426D01*
X166426727Y-44819253D01*
X166390068Y-44856811D01*
X166363354Y-44899019D01*
X166342937Y-44948908D01*
X166341242Y-44954319D01*
X166328372Y-45005762D01*
X166320469Y-45055511D01*
X166315893Y-45109046D01*
X166314619Y-45158995D01*
X166136952Y-45158995D01*
X166134521Y-45106986D01*
X166126919Y-45055741D01*
X166114248Y-45007457D01*
X166096510Y-44962135D01*
X166070823Y-44915554D01*
X166039649Y-44874731D01*
X166002989Y-44839665D01*
X165980251Y-44822672D01*
X165935342Y-44797760D01*
X165885797Y-44781001D01*
X165831616Y-44772395D01*
X165799511Y-44771137D01*
X165746190Y-44774692D01*
X165697235Y-44785356D01*
X165647962Y-44805545D01*
X165629762Y-44816078D01*
X165588489Y-44847686D01*
X165553513Y-44886641D01*
X165527418Y-44927981D01*
X165519853Y-44943084D01*
X165501080Y-44992011D01*
X165489551Y-45039913D01*
X165482877Y-45091967D01*
X165482428Y-45103796D01*
X165481018Y-45140921D01*
X164258339Y-45140921D01*
X164258339Y-44609448D01*
X164481577Y-44609448D01*
X164481577Y-44493921D01*
X164101535Y-44493921D01*
X164101535Y-45328499D01*
X164091720Y-45376576D01*
X164070516Y-45401039D01*
X164024186Y-45419300D01*
X163989427Y-45422288D01*
X163939691Y-45417612D01*
X163928855Y-45415205D01*
X163881263Y-45400818D01*
X163872679Y-45397620D01*
X163832623Y-45506796D01*
X163541989Y-45506796D01*
X163567864Y-45485547D01*
X163599506Y-45446815D01*
X163620792Y-45401784D01*
X163631723Y-45350455D01*
X163633321Y-45319218D01*
X163627643Y-45264202D01*
X163610607Y-45215903D01*
X163582213Y-45174321D01*
X163542463Y-45139455D01*
X163498854Y-45114902D01*
X163447741Y-45096379D01*
X163397959Y-45085302D01*
X163342664Y-45078656D01*
X163292373Y-45076502D01*
X163281856Y-45076441D01*
X163176343Y-45076441D01*
X163176343Y-45028080D01*
X163183437Y-44976704D01*
X163209255Y-44933753D01*
X163219330Y-44925254D01*
X163263722Y-44903716D01*
X163312563Y-44894855D01*
X163340718Y-44893747D01*
X163392219Y-44897468D01*
X163428890Y-44903272D01*
X163478507Y-44914228D01*
X163526752Y-44928520D01*
X163537334Y-44932093D01*
X163575924Y-44821695D01*
X163528582Y-44805512D01*
X163477726Y-44791545D01*
X163440125Y-44783593D01*
X163391673Y-44776003D01*
X163342285Y-44771733D01*
X163317027Y-44771137D01*
X163263993Y-44773455D01*
X163208826Y-44782021D01*
X163160883Y-44796897D01*
X163114935Y-44821627D01*
X163095498Y-44837083D01*
X163060078Y-44878039D01*
X163036250Y-44926993D01*
X163024802Y-44977224D01*
X163022226Y-45019043D01*
X163022226Y-45174382D01*
X163022226Y-45348771D01*
X163015992Y-45397247D01*
X163009036Y-45412030D01*
X162968110Y-45441207D01*
X162966294Y-45441828D01*
X162841294Y-45441828D01*
X162841294Y-44476580D01*
X169300000Y-44476580D01*
X169300000Y-45530000D01*
X169456803Y-45530000D01*
X169456803Y-44493921D01*
X169300000Y-44476580D01*
X162841294Y-44476580D01*
X162841294Y-44451179D01*
X169716434Y-44451179D01*
X170310188Y-45678988D01*
X170434752Y-45623056D01*
X169867782Y-44451179D01*
X170416434Y-44451179D01*
X171010188Y-45678988D01*
X171134752Y-45623056D01*
X171037618Y-45422288D01*
X171558513Y-45422288D01*
X171567550Y-45470954D01*
X171594661Y-45511926D01*
X171635205Y-45539586D01*
X171684542Y-45548806D01*
X171733574Y-45539586D01*
X171774180Y-45511926D01*
X171801474Y-45470954D01*
X171810572Y-45422288D01*
X171800301Y-45371928D01*
X171774180Y-45334361D01*
X171751950Y-45319218D01*
X172223586Y-45319218D01*
X172229012Y-45370692D01*
X172247308Y-45419012D01*
X172269504Y-45449888D01*
X172307846Y-45484246D01*
X172350175Y-45509163D01*
X172389916Y-45524870D01*
X172437524Y-45537493D01*
X172487231Y-45545440D01*
X172539037Y-45548713D01*
X172549651Y-45548806D01*
X172599430Y-45546959D01*
X172651236Y-45540465D01*
X172703586Y-45527767D01*
X172727704Y-45519253D01*
X172776287Y-45496978D01*
X172819271Y-45471124D01*
X172853489Y-45444515D01*
X172770202Y-45349504D01*
X172729777Y-45377587D01*
X172684583Y-45400715D01*
X172670795Y-45406413D01*
X172623819Y-45420645D01*
X172573779Y-45427622D01*
X172549651Y-45428394D01*
X172498772Y-45424719D01*
X172450179Y-45411142D01*
X172432903Y-45402260D01*
X172397749Y-45366325D01*
X172389427Y-45329720D01*
X172400590Y-45281120D01*
X172402128Y-45278429D01*
X172439138Y-45245921D01*
X172452442Y-45239106D01*
X172500069Y-45220849D01*
X172548613Y-45206595D01*
X172567236Y-45201737D01*
X172615168Y-45187831D01*
X172662653Y-45170818D01*
X172689906Y-45158995D01*
X173028367Y-45158995D01*
X173028394Y-45159727D01*
X173030382Y-45213781D01*
X173036427Y-45265546D01*
X173046502Y-45314287D01*
X173060607Y-45360006D01*
X173081215Y-45406608D01*
X173109913Y-45451364D01*
X173144718Y-45488726D01*
X173156350Y-45498492D01*
X173198868Y-45525025D01*
X173247349Y-45541731D01*
X173296081Y-45548364D01*
X173313398Y-45548806D01*
X173362111Y-45544891D01*
X173412517Y-45530828D01*
X173457305Y-45506537D01*
X173496475Y-45472019D01*
X173500976Y-45466985D01*
X173500976Y-45814298D01*
X173657780Y-45831639D01*
X173657780Y-45490921D01*
X173879553Y-45490921D01*
X173924188Y-45514307D01*
X173973465Y-45531684D01*
X173977006Y-45532686D01*
X174027522Y-45543706D01*
X174079908Y-45548554D01*
X174095219Y-45548806D01*
X174148576Y-45545616D01*
X174202313Y-45534155D01*
X174248326Y-45514360D01*
X174279255Y-45490921D01*
X174718771Y-45490921D01*
X174763407Y-45514307D01*
X174812683Y-45531684D01*
X174816224Y-45532686D01*
X174866740Y-45543706D01*
X174919127Y-45548554D01*
X174934438Y-45548806D01*
X174987794Y-45545616D01*
X175041531Y-45534155D01*
X175051189Y-45530000D01*
X175583147Y-45530000D01*
X175739951Y-45530000D01*
X175739951Y-45015380D01*
X175744813Y-44964403D01*
X175765352Y-44919881D01*
X175808820Y-44894903D01*
X175846441Y-44890816D01*
X175895134Y-44899017D01*
X175913363Y-44906692D01*
X175954828Y-44932803D01*
X175972226Y-44947725D01*
X176005704Y-44983932D01*
X176018632Y-45001458D01*
X176018632Y-45530000D01*
X176175436Y-45530000D01*
X176175436Y-44495387D01*
X176018632Y-44478534D01*
X176018632Y-44881046D01*
X175982797Y-44843975D01*
X175942703Y-44814460D01*
X175913607Y-44798981D01*
X175864067Y-44780953D01*
X175813478Y-44772116D01*
X175789776Y-44771137D01*
X175740958Y-44774755D01*
X175689295Y-44789452D01*
X175644477Y-44818678D01*
X175634438Y-44829023D01*
X175605236Y-44874163D01*
X175589207Y-44924767D01*
X175583347Y-44978101D01*
X175583147Y-44990956D01*
X175583147Y-45530000D01*
X175051189Y-45530000D01*
X175087544Y-45514360D01*
X175130076Y-45482128D01*
X175162427Y-45441142D01*
X175184189Y-45393471D01*
X175194646Y-45345485D01*
X175196999Y-45306029D01*
X175196999Y-44904982D01*
X175361374Y-44904982D01*
X175361374Y-44790921D01*
X175196999Y-44790921D01*
X175196999Y-44625568D01*
X175040195Y-44606762D01*
X175040195Y-44790921D01*
X174790823Y-44790921D01*
X174808408Y-44904982D01*
X175040195Y-44904982D01*
X175040195Y-45304563D01*
X175033648Y-45353726D01*
X175010397Y-45393224D01*
X174964819Y-45416725D01*
X174912700Y-45422288D01*
X174862221Y-45418081D01*
X174837962Y-45412519D01*
X174791737Y-45395348D01*
X174775436Y-45387117D01*
X174718771Y-45490921D01*
X174279255Y-45490921D01*
X174290858Y-45482128D01*
X174323208Y-45441142D01*
X174344971Y-45393471D01*
X174355428Y-45345485D01*
X174357780Y-45306029D01*
X174357780Y-44904982D01*
X174522156Y-44904982D01*
X174522156Y-44790921D01*
X174357780Y-44790921D01*
X174357780Y-44625568D01*
X174200976Y-44606762D01*
X174200976Y-44790921D01*
X173951605Y-44790921D01*
X173969190Y-44904982D01*
X174200976Y-44904982D01*
X174200976Y-45304563D01*
X174194429Y-45353726D01*
X174171179Y-45393224D01*
X174125601Y-45416725D01*
X174073482Y-45422288D01*
X174023002Y-45418081D01*
X173998743Y-45412519D01*
X173952519Y-45395348D01*
X173936217Y-45387117D01*
X173879553Y-45490921D01*
X173657780Y-45490921D01*
X173657780Y-44790921D01*
X173521249Y-44790921D01*
X173511479Y-44885931D01*
X173478048Y-44846936D01*
X173437491Y-44813839D01*
X173413782Y-44799958D01*
X173367689Y-44781297D01*
X173316158Y-44771841D01*
X173297278Y-44771137D01*
X173245277Y-44774943D01*
X173194749Y-44788100D01*
X173147984Y-44813426D01*
X173140474Y-44819253D01*
X173103816Y-44856811D01*
X173077102Y-44899019D01*
X173056684Y-44948908D01*
X173054989Y-44954319D01*
X173042120Y-45005762D01*
X173034216Y-45055511D01*
X173029640Y-45109046D01*
X173028367Y-45158995D01*
X172689906Y-45158995D01*
X172694975Y-45156796D01*
X172738292Y-45131198D01*
X172774120Y-45097234D01*
X172779972Y-45089630D01*
X172801535Y-45045727D01*
X172809749Y-44995357D01*
X172810013Y-44983384D01*
X172804128Y-44934250D01*
X172784627Y-44887286D01*
X172774354Y-44872009D01*
X172740261Y-44836779D01*
X172695930Y-44808481D01*
X172672016Y-44797759D01*
X172623236Y-44782602D01*
X172574082Y-44774283D01*
X172520349Y-44771163D01*
X172514724Y-44771137D01*
X172464254Y-44773088D01*
X172412571Y-44779834D01*
X172361066Y-44792818D01*
X172352302Y-44795806D01*
X172303164Y-44815807D01*
X172259795Y-44839174D01*
X172234089Y-44856622D01*
X172299790Y-44955296D01*
X172342319Y-44930760D01*
X172388390Y-44910731D01*
X172394801Y-44908401D01*
X172442205Y-44895879D01*
X172494658Y-44890369D01*
X172510572Y-44890083D01*
X172560718Y-44893243D01*
X172609200Y-44907287D01*
X172618039Y-44912554D01*
X172647953Y-44952425D01*
X172650523Y-44972149D01*
X172634159Y-45018066D01*
X172591368Y-45046221D01*
X172577006Y-45052260D01*
X172528035Y-45069235D01*
X172480247Y-45083730D01*
X172462212Y-45088897D01*
X172414870Y-45103306D01*
X172368227Y-45120869D01*
X172336671Y-45135303D01*
X172294282Y-45161750D01*
X172259138Y-45197556D01*
X172253384Y-45205645D01*
X172231996Y-45252374D01*
X172224052Y-45302163D01*
X172223586Y-45319218D01*
X171751950Y-45319218D01*
X171733574Y-45306700D01*
X171684542Y-45297480D01*
X171635205Y-45306700D01*
X171594661Y-45334361D01*
X171566456Y-45377423D01*
X171558513Y-45422288D01*
X171037618Y-45422288D01*
X170797146Y-44925254D01*
X171558513Y-44925254D01*
X171567550Y-44973492D01*
X171594661Y-45014647D01*
X171635205Y-45042674D01*
X171684542Y-45052016D01*
X171733574Y-45042674D01*
X171774180Y-45014647D01*
X171801474Y-44973492D01*
X171810572Y-44925254D01*
X171801229Y-44876894D01*
X171793963Y-44862240D01*
X171760475Y-44824661D01*
X171748534Y-44816810D01*
X171701731Y-44801011D01*
X171684542Y-44799958D01*
X171635205Y-44809178D01*
X171594661Y-44836838D01*
X171566456Y-44880038D01*
X171558513Y-44925254D01*
X170797146Y-44925254D01*
X170539776Y-44393293D01*
X170416434Y-44451179D01*
X169867782Y-44451179D01*
X169839776Y-44393293D01*
X169716434Y-44451179D01*
X162841294Y-44451179D01*
X162841294Y-44268293D01*
X176300436Y-44268293D01*
X176300436Y-45956639D01*
G37*
D11*
X178887030Y-49341200D02*
X178801316Y-49369771D01*
X178801316Y-49369771D02*
X178658458Y-49369771D01*
X178658458Y-49369771D02*
X178601316Y-49341200D01*
X178601316Y-49341200D02*
X178572744Y-49312628D01*
X178572744Y-49312628D02*
X178544173Y-49255485D01*
X178544173Y-49255485D02*
X178544173Y-49198342D01*
X178544173Y-49198342D02*
X178572744Y-49141200D01*
X178572744Y-49141200D02*
X178601316Y-49112628D01*
X178601316Y-49112628D02*
X178658458Y-49084057D01*
X178658458Y-49084057D02*
X178772744Y-49055485D01*
X178772744Y-49055485D02*
X178829887Y-49026914D01*
X178829887Y-49026914D02*
X178858458Y-48998342D01*
X178858458Y-48998342D02*
X178887030Y-48941200D01*
X178887030Y-48941200D02*
X178887030Y-48884057D01*
X178887030Y-48884057D02*
X178858458Y-48826914D01*
X178858458Y-48826914D02*
X178829887Y-48798342D01*
X178829887Y-48798342D02*
X178772744Y-48769771D01*
X178772744Y-48769771D02*
X178629887Y-48769771D01*
X178629887Y-48769771D02*
X178544173Y-48798342D01*
X178344172Y-48769771D02*
X178201315Y-49369771D01*
X178201315Y-49369771D02*
X178087029Y-48941200D01*
X178087029Y-48941200D02*
X177972744Y-49369771D01*
X177972744Y-49369771D02*
X177829887Y-48769771D01*
X177601315Y-49369771D02*
X177601315Y-48769771D01*
X177601315Y-48769771D02*
X177458458Y-48769771D01*
X177458458Y-48769771D02*
X177372744Y-48798342D01*
X177372744Y-48798342D02*
X177315601Y-48855485D01*
X177315601Y-48855485D02*
X177287030Y-48912628D01*
X177287030Y-48912628D02*
X177258458Y-49026914D01*
X177258458Y-49026914D02*
X177258458Y-49112628D01*
X177258458Y-49112628D02*
X177287030Y-49226914D01*
X177287030Y-49226914D02*
X177315601Y-49284057D01*
X177315601Y-49284057D02*
X177372744Y-49341200D01*
X177372744Y-49341200D02*
X177458458Y-49369771D01*
X177458458Y-49369771D02*
X177601315Y-49369771D01*
X177001315Y-49369771D02*
X177001315Y-48769771D01*
X176601316Y-48769771D02*
X176487030Y-48769771D01*
X176487030Y-48769771D02*
X176429887Y-48798342D01*
X176429887Y-48798342D02*
X176372744Y-48855485D01*
X176372744Y-48855485D02*
X176344173Y-48969771D01*
X176344173Y-48969771D02*
X176344173Y-49169771D01*
X176344173Y-49169771D02*
X176372744Y-49284057D01*
X176372744Y-49284057D02*
X176429887Y-49341200D01*
X176429887Y-49341200D02*
X176487030Y-49369771D01*
X176487030Y-49369771D02*
X176601316Y-49369771D01*
X176601316Y-49369771D02*
X176658459Y-49341200D01*
X176658459Y-49341200D02*
X176715601Y-49284057D01*
X176715601Y-49284057D02*
X176744173Y-49169771D01*
X176744173Y-49169771D02*
X176744173Y-48969771D01*
X176744173Y-48969771D02*
X176715601Y-48855485D01*
X176715601Y-48855485D02*
X176658459Y-48798342D01*
X176658459Y-48798342D02*
X176601316Y-48769771D01*
X172183966Y-53367982D02*
X172183966Y-53034649D01*
X171983966Y-53434649D02*
X172683966Y-53201316D01*
X172683966Y-53201316D02*
X171983966Y-52967982D01*
X172683966Y-52801316D02*
X171983966Y-52334649D01*
X172683966Y-52334649D02*
X171983966Y-52801316D01*
X172183966Y-52101315D02*
X172183966Y-51767982D01*
X171983966Y-52167982D02*
X172683966Y-51934649D01*
X172683966Y-51934649D02*
X171983966Y-51701315D01*
X171983966Y-51467982D02*
X172683966Y-51467982D01*
X171983966Y-51067982D02*
X172383966Y-51367982D01*
X172683966Y-51067982D02*
X172283966Y-51467982D01*
X173983966Y-44165350D02*
X174683966Y-44165350D01*
X173983966Y-43765350D02*
X174383966Y-44065350D01*
X174683966Y-43765350D02*
X174283966Y-44165350D01*
X174683966Y-43465350D02*
X174117300Y-43465350D01*
X174117300Y-43465350D02*
X174050633Y-43432017D01*
X174050633Y-43432017D02*
X174017300Y-43398683D01*
X174017300Y-43398683D02*
X173983966Y-43332017D01*
X173983966Y-43332017D02*
X173983966Y-43198683D01*
X173983966Y-43198683D02*
X174017300Y-43132017D01*
X174017300Y-43132017D02*
X174050633Y-43098683D01*
X174050633Y-43098683D02*
X174117300Y-43065350D01*
X174117300Y-43065350D02*
X174683966Y-43065350D01*
X174317300Y-42598684D02*
X173983966Y-42598684D01*
X174683966Y-42832017D02*
X174317300Y-42598684D01*
X174317300Y-42598684D02*
X174683966Y-42365350D01*
X174183966Y-42165350D02*
X174183966Y-41832017D01*
X173983966Y-42232017D02*
X174683966Y-41998684D01*
X174683966Y-41998684D02*
X173983966Y-41765350D01*
X168350633Y-53101316D02*
X168317300Y-53001316D01*
X168317300Y-53001316D02*
X168283966Y-52967982D01*
X168283966Y-52967982D02*
X168217300Y-52934649D01*
X168217300Y-52934649D02*
X168117300Y-52934649D01*
X168117300Y-52934649D02*
X168050633Y-52967982D01*
X168050633Y-52967982D02*
X168017300Y-53001316D01*
X168017300Y-53001316D02*
X167983966Y-53067982D01*
X167983966Y-53067982D02*
X167983966Y-53334649D01*
X167983966Y-53334649D02*
X168683966Y-53334649D01*
X168683966Y-53334649D02*
X168683966Y-53101316D01*
X168683966Y-53101316D02*
X168650633Y-53034649D01*
X168650633Y-53034649D02*
X168617300Y-53001316D01*
X168617300Y-53001316D02*
X168550633Y-52967982D01*
X168550633Y-52967982D02*
X168483966Y-52967982D01*
X168483966Y-52967982D02*
X168417300Y-53001316D01*
X168417300Y-53001316D02*
X168383966Y-53034649D01*
X168383966Y-53034649D02*
X168350633Y-53101316D01*
X168350633Y-53101316D02*
X168350633Y-53334649D01*
X168683966Y-52634649D02*
X168117300Y-52634649D01*
X168117300Y-52634649D02*
X168050633Y-52601316D01*
X168050633Y-52601316D02*
X168017300Y-52567982D01*
X168017300Y-52567982D02*
X167983966Y-52501316D01*
X167983966Y-52501316D02*
X167983966Y-52367982D01*
X167983966Y-52367982D02*
X168017300Y-52301316D01*
X168017300Y-52301316D02*
X168050633Y-52267982D01*
X168050633Y-52267982D02*
X168117300Y-52234649D01*
X168117300Y-52234649D02*
X168683966Y-52234649D01*
X168017300Y-51934649D02*
X167983966Y-51834649D01*
X167983966Y-51834649D02*
X167983966Y-51667983D01*
X167983966Y-51667983D02*
X168017300Y-51601316D01*
X168017300Y-51601316D02*
X168050633Y-51567983D01*
X168050633Y-51567983D02*
X168117300Y-51534649D01*
X168117300Y-51534649D02*
X168183966Y-51534649D01*
X168183966Y-51534649D02*
X168250633Y-51567983D01*
X168250633Y-51567983D02*
X168283966Y-51601316D01*
X168283966Y-51601316D02*
X168317300Y-51667983D01*
X168317300Y-51667983D02*
X168350633Y-51801316D01*
X168350633Y-51801316D02*
X168383966Y-51867983D01*
X168383966Y-51867983D02*
X168417300Y-51901316D01*
X168417300Y-51901316D02*
X168483966Y-51934649D01*
X168483966Y-51934649D02*
X168550633Y-51934649D01*
X168550633Y-51934649D02*
X168617300Y-51901316D01*
X168617300Y-51901316D02*
X168650633Y-51867983D01*
X168650633Y-51867983D02*
X168683966Y-51801316D01*
X168683966Y-51801316D02*
X168683966Y-51634649D01*
X168683966Y-51634649D02*
X168650633Y-51534649D01*
X168317300Y-51101316D02*
X167983966Y-51101316D01*
X168683966Y-51334649D02*
X168317300Y-51101316D01*
X168317300Y-51101316D02*
X168683966Y-50867982D01*
X178683966Y-53434649D02*
X177983966Y-53201316D01*
X177983966Y-53201316D02*
X178683966Y-52967982D01*
X177917300Y-52901316D02*
X177917300Y-52367982D01*
X178050633Y-51801316D02*
X178017300Y-51834649D01*
X178017300Y-51834649D02*
X177983966Y-51934649D01*
X177983966Y-51934649D02*
X177983966Y-52001316D01*
X177983966Y-52001316D02*
X178017300Y-52101316D01*
X178017300Y-52101316D02*
X178083966Y-52167983D01*
X178083966Y-52167983D02*
X178150633Y-52201316D01*
X178150633Y-52201316D02*
X178283966Y-52234649D01*
X178283966Y-52234649D02*
X178383966Y-52234649D01*
X178383966Y-52234649D02*
X178517300Y-52201316D01*
X178517300Y-52201316D02*
X178583966Y-52167983D01*
X178583966Y-52167983D02*
X178650633Y-52101316D01*
X178650633Y-52101316D02*
X178683966Y-52001316D01*
X178683966Y-52001316D02*
X178683966Y-51934649D01*
X178683966Y-51934649D02*
X178650633Y-51834649D01*
X178650633Y-51834649D02*
X178617300Y-51801316D01*
X177983966Y-51501316D02*
X178683966Y-51501316D01*
X177983966Y-51101316D02*
X178383966Y-51401316D01*
X178683966Y-51101316D02*
X178283966Y-51501316D01*
X170683966Y-43632017D02*
X169983966Y-43398684D01*
X169983966Y-43398684D02*
X170683966Y-43165350D01*
X170050633Y-42532017D02*
X170017300Y-42565350D01*
X170017300Y-42565350D02*
X169983966Y-42665350D01*
X169983966Y-42665350D02*
X169983966Y-42732017D01*
X169983966Y-42732017D02*
X170017300Y-42832017D01*
X170017300Y-42832017D02*
X170083966Y-42898684D01*
X170083966Y-42898684D02*
X170150633Y-42932017D01*
X170150633Y-42932017D02*
X170283966Y-42965350D01*
X170283966Y-42965350D02*
X170383966Y-42965350D01*
X170383966Y-42965350D02*
X170517300Y-42932017D01*
X170517300Y-42932017D02*
X170583966Y-42898684D01*
X170583966Y-42898684D02*
X170650633Y-42832017D01*
X170650633Y-42832017D02*
X170683966Y-42732017D01*
X170683966Y-42732017D02*
X170683966Y-42665350D01*
X170683966Y-42665350D02*
X170650633Y-42565350D01*
X170650633Y-42565350D02*
X170617300Y-42532017D01*
X170050633Y-41832017D02*
X170017300Y-41865350D01*
X170017300Y-41865350D02*
X169983966Y-41965350D01*
X169983966Y-41965350D02*
X169983966Y-42032017D01*
X169983966Y-42032017D02*
X170017300Y-42132017D01*
X170017300Y-42132017D02*
X170083966Y-42198684D01*
X170083966Y-42198684D02*
X170150633Y-42232017D01*
X170150633Y-42232017D02*
X170283966Y-42265350D01*
X170283966Y-42265350D02*
X170383966Y-42265350D01*
X170383966Y-42265350D02*
X170517300Y-42232017D01*
X170517300Y-42232017D02*
X170583966Y-42198684D01*
X170583966Y-42198684D02*
X170650633Y-42132017D01*
X170650633Y-42132017D02*
X170683966Y-42032017D01*
X170683966Y-42032017D02*
X170683966Y-41965350D01*
X170683966Y-41965350D02*
X170650633Y-41865350D01*
X170650633Y-41865350D02*
X170617300Y-41832017D01*
X178887030Y-50341200D02*
X178801316Y-50369771D01*
X178801316Y-50369771D02*
X178658458Y-50369771D01*
X178658458Y-50369771D02*
X178601316Y-50341200D01*
X178601316Y-50341200D02*
X178572744Y-50312628D01*
X178572744Y-50312628D02*
X178544173Y-50255485D01*
X178544173Y-50255485D02*
X178544173Y-50198342D01*
X178544173Y-50198342D02*
X178572744Y-50141200D01*
X178572744Y-50141200D02*
X178601316Y-50112628D01*
X178601316Y-50112628D02*
X178658458Y-50084057D01*
X178658458Y-50084057D02*
X178772744Y-50055485D01*
X178772744Y-50055485D02*
X178829887Y-50026914D01*
X178829887Y-50026914D02*
X178858458Y-49998342D01*
X178858458Y-49998342D02*
X178887030Y-49941200D01*
X178887030Y-49941200D02*
X178887030Y-49884057D01*
X178887030Y-49884057D02*
X178858458Y-49826914D01*
X178858458Y-49826914D02*
X178829887Y-49798342D01*
X178829887Y-49798342D02*
X178772744Y-49769771D01*
X178772744Y-49769771D02*
X178629887Y-49769771D01*
X178629887Y-49769771D02*
X178544173Y-49798342D01*
X178344172Y-49769771D02*
X178201315Y-50369771D01*
X178201315Y-50369771D02*
X178087029Y-49941200D01*
X178087029Y-49941200D02*
X177972744Y-50369771D01*
X177972744Y-50369771D02*
X177829887Y-49769771D01*
X177601315Y-50369771D02*
X177601315Y-49769771D01*
X177601315Y-49769771D02*
X177458458Y-49769771D01*
X177458458Y-49769771D02*
X177372744Y-49798342D01*
X177372744Y-49798342D02*
X177315601Y-49855485D01*
X177315601Y-49855485D02*
X177287030Y-49912628D01*
X177287030Y-49912628D02*
X177258458Y-50026914D01*
X177258458Y-50026914D02*
X177258458Y-50112628D01*
X177258458Y-50112628D02*
X177287030Y-50226914D01*
X177287030Y-50226914D02*
X177315601Y-50284057D01*
X177315601Y-50284057D02*
X177372744Y-50341200D01*
X177372744Y-50341200D02*
X177458458Y-50369771D01*
X177458458Y-50369771D02*
X177601315Y-50369771D01*
X176658458Y-50312628D02*
X176687030Y-50341200D01*
X176687030Y-50341200D02*
X176772744Y-50369771D01*
X176772744Y-50369771D02*
X176829887Y-50369771D01*
X176829887Y-50369771D02*
X176915601Y-50341200D01*
X176915601Y-50341200D02*
X176972744Y-50284057D01*
X176972744Y-50284057D02*
X177001315Y-50226914D01*
X177001315Y-50226914D02*
X177029887Y-50112628D01*
X177029887Y-50112628D02*
X177029887Y-50026914D01*
X177029887Y-50026914D02*
X177001315Y-49912628D01*
X177001315Y-49912628D02*
X176972744Y-49855485D01*
X176972744Y-49855485D02*
X176915601Y-49798342D01*
X176915601Y-49798342D02*
X176829887Y-49769771D01*
X176829887Y-49769771D02*
X176772744Y-49769771D01*
X176772744Y-49769771D02*
X176687030Y-49798342D01*
X176687030Y-49798342D02*
X176658458Y-49826914D01*
X176401315Y-50369771D02*
X176401315Y-49769771D01*
X176058458Y-50369771D02*
X176315601Y-50026914D01*
X176058458Y-49769771D02*
X176401315Y-50112628D01*
X165983966Y-52934649D02*
X166317300Y-53167982D01*
X165983966Y-53334649D02*
X166683966Y-53334649D01*
X166683966Y-53334649D02*
X166683966Y-53067982D01*
X166683966Y-53067982D02*
X166650633Y-53001316D01*
X166650633Y-53001316D02*
X166617300Y-52967982D01*
X166617300Y-52967982D02*
X166550633Y-52934649D01*
X166550633Y-52934649D02*
X166450633Y-52934649D01*
X166450633Y-52934649D02*
X166383966Y-52967982D01*
X166383966Y-52967982D02*
X166350633Y-53001316D01*
X166350633Y-53001316D02*
X166317300Y-53067982D01*
X166317300Y-53067982D02*
X166317300Y-53334649D01*
X166683966Y-52701316D02*
X165983966Y-52234649D01*
X166683966Y-52234649D02*
X165983966Y-52701316D01*
X178887030Y-46341200D02*
X178801316Y-46369771D01*
X178801316Y-46369771D02*
X178658458Y-46369771D01*
X178658458Y-46369771D02*
X178601316Y-46341200D01*
X178601316Y-46341200D02*
X178572744Y-46312628D01*
X178572744Y-46312628D02*
X178544173Y-46255485D01*
X178544173Y-46255485D02*
X178544173Y-46198342D01*
X178544173Y-46198342D02*
X178572744Y-46141200D01*
X178572744Y-46141200D02*
X178601316Y-46112628D01*
X178601316Y-46112628D02*
X178658458Y-46084057D01*
X178658458Y-46084057D02*
X178772744Y-46055485D01*
X178772744Y-46055485D02*
X178829887Y-46026914D01*
X178829887Y-46026914D02*
X178858458Y-45998342D01*
X178858458Y-45998342D02*
X178887030Y-45941200D01*
X178887030Y-45941200D02*
X178887030Y-45884057D01*
X178887030Y-45884057D02*
X178858458Y-45826914D01*
X178858458Y-45826914D02*
X178829887Y-45798342D01*
X178829887Y-45798342D02*
X178772744Y-45769771D01*
X178772744Y-45769771D02*
X178629887Y-45769771D01*
X178629887Y-45769771D02*
X178544173Y-45798342D01*
X178287029Y-46369771D02*
X178287029Y-45769771D01*
X178287029Y-45769771D02*
X178144172Y-45769771D01*
X178144172Y-45769771D02*
X178058458Y-45798342D01*
X178058458Y-45798342D02*
X178001315Y-45855485D01*
X178001315Y-45855485D02*
X177972744Y-45912628D01*
X177972744Y-45912628D02*
X177944172Y-46026914D01*
X177944172Y-46026914D02*
X177944172Y-46112628D01*
X177944172Y-46112628D02*
X177972744Y-46226914D01*
X177972744Y-46226914D02*
X178001315Y-46284057D01*
X178001315Y-46284057D02*
X178058458Y-46341200D01*
X178058458Y-46341200D02*
X178144172Y-46369771D01*
X178144172Y-46369771D02*
X178287029Y-46369771D01*
X177715601Y-46198342D02*
X177429887Y-46198342D01*
X177772744Y-46369771D02*
X177572744Y-45769771D01*
X177572744Y-45769771D02*
X177372744Y-46369771D01*
X167983966Y-43665350D02*
X168683966Y-43665350D01*
X168683966Y-43665350D02*
X168683966Y-43498683D01*
X168683966Y-43498683D02*
X168650633Y-43398683D01*
X168650633Y-43398683D02*
X168583966Y-43332017D01*
X168583966Y-43332017D02*
X168517300Y-43298683D01*
X168517300Y-43298683D02*
X168383966Y-43265350D01*
X168383966Y-43265350D02*
X168283966Y-43265350D01*
X168283966Y-43265350D02*
X168150633Y-43298683D01*
X168150633Y-43298683D02*
X168083966Y-43332017D01*
X168083966Y-43332017D02*
X168017300Y-43398683D01*
X168017300Y-43398683D02*
X167983966Y-43498683D01*
X167983966Y-43498683D02*
X167983966Y-43665350D01*
X168717300Y-42465350D02*
X167817300Y-43065350D01*
X168050633Y-41832017D02*
X168017300Y-41865350D01*
X168017300Y-41865350D02*
X167983966Y-41965350D01*
X167983966Y-41965350D02*
X167983966Y-42032017D01*
X167983966Y-42032017D02*
X168017300Y-42132017D01*
X168017300Y-42132017D02*
X168083966Y-42198684D01*
X168083966Y-42198684D02*
X168150633Y-42232017D01*
X168150633Y-42232017D02*
X168283966Y-42265350D01*
X168283966Y-42265350D02*
X168383966Y-42265350D01*
X168383966Y-42265350D02*
X168517300Y-42232017D01*
X168517300Y-42232017D02*
X168583966Y-42198684D01*
X168583966Y-42198684D02*
X168650633Y-42132017D01*
X168650633Y-42132017D02*
X168683966Y-42032017D01*
X168683966Y-42032017D02*
X168683966Y-41965350D01*
X168683966Y-41965350D02*
X168650633Y-41865350D01*
X168650633Y-41865350D02*
X168617300Y-41832017D01*
X177983966Y-43732017D02*
X178317300Y-43965350D01*
X177983966Y-44132017D02*
X178683966Y-44132017D01*
X178683966Y-44132017D02*
X178683966Y-43865350D01*
X178683966Y-43865350D02*
X178650633Y-43798684D01*
X178650633Y-43798684D02*
X178617300Y-43765350D01*
X178617300Y-43765350D02*
X178550633Y-43732017D01*
X178550633Y-43732017D02*
X178450633Y-43732017D01*
X178450633Y-43732017D02*
X178383966Y-43765350D01*
X178383966Y-43765350D02*
X178350633Y-43798684D01*
X178350633Y-43798684D02*
X178317300Y-43865350D01*
X178317300Y-43865350D02*
X178317300Y-44132017D01*
X178017300Y-43465350D02*
X177983966Y-43365350D01*
X177983966Y-43365350D02*
X177983966Y-43198684D01*
X177983966Y-43198684D02*
X178017300Y-43132017D01*
X178017300Y-43132017D02*
X178050633Y-43098684D01*
X178050633Y-43098684D02*
X178117300Y-43065350D01*
X178117300Y-43065350D02*
X178183966Y-43065350D01*
X178183966Y-43065350D02*
X178250633Y-43098684D01*
X178250633Y-43098684D02*
X178283966Y-43132017D01*
X178283966Y-43132017D02*
X178317300Y-43198684D01*
X178317300Y-43198684D02*
X178350633Y-43332017D01*
X178350633Y-43332017D02*
X178383966Y-43398684D01*
X178383966Y-43398684D02*
X178417300Y-43432017D01*
X178417300Y-43432017D02*
X178483966Y-43465350D01*
X178483966Y-43465350D02*
X178550633Y-43465350D01*
X178550633Y-43465350D02*
X178617300Y-43432017D01*
X178617300Y-43432017D02*
X178650633Y-43398684D01*
X178650633Y-43398684D02*
X178683966Y-43332017D01*
X178683966Y-43332017D02*
X178683966Y-43165350D01*
X178683966Y-43165350D02*
X178650633Y-43065350D01*
X177917300Y-42932017D02*
X177917300Y-42398683D01*
X177983966Y-42232017D02*
X178683966Y-42232017D01*
X178683966Y-42232017D02*
X178683966Y-42065350D01*
X178683966Y-42065350D02*
X178650633Y-41965350D01*
X178650633Y-41965350D02*
X178583966Y-41898684D01*
X178583966Y-41898684D02*
X178517300Y-41865350D01*
X178517300Y-41865350D02*
X178383966Y-41832017D01*
X178383966Y-41832017D02*
X178283966Y-41832017D01*
X178283966Y-41832017D02*
X178150633Y-41865350D01*
X178150633Y-41865350D02*
X178083966Y-41898684D01*
X178083966Y-41898684D02*
X178017300Y-41965350D01*
X178017300Y-41965350D02*
X177983966Y-42065350D01*
X177983966Y-42065350D02*
X177983966Y-42232017D01*
X162017300Y-43632017D02*
X161983966Y-43532017D01*
X161983966Y-43532017D02*
X161983966Y-43365351D01*
X161983966Y-43365351D02*
X162017300Y-43298684D01*
X162017300Y-43298684D02*
X162050633Y-43265351D01*
X162050633Y-43265351D02*
X162117300Y-43232017D01*
X162117300Y-43232017D02*
X162183966Y-43232017D01*
X162183966Y-43232017D02*
X162250633Y-43265351D01*
X162250633Y-43265351D02*
X162283966Y-43298684D01*
X162283966Y-43298684D02*
X162317300Y-43365351D01*
X162317300Y-43365351D02*
X162350633Y-43498684D01*
X162350633Y-43498684D02*
X162383966Y-43565351D01*
X162383966Y-43565351D02*
X162417300Y-43598684D01*
X162417300Y-43598684D02*
X162483966Y-43632017D01*
X162483966Y-43632017D02*
X162550633Y-43632017D01*
X162550633Y-43632017D02*
X162617300Y-43598684D01*
X162617300Y-43598684D02*
X162650633Y-43565351D01*
X162650633Y-43565351D02*
X162683966Y-43498684D01*
X162683966Y-43498684D02*
X162683966Y-43332017D01*
X162683966Y-43332017D02*
X162650633Y-43232017D01*
X162050633Y-42532017D02*
X162017300Y-42565350D01*
X162017300Y-42565350D02*
X161983966Y-42665350D01*
X161983966Y-42665350D02*
X161983966Y-42732017D01*
X161983966Y-42732017D02*
X162017300Y-42832017D01*
X162017300Y-42832017D02*
X162083966Y-42898684D01*
X162083966Y-42898684D02*
X162150633Y-42932017D01*
X162150633Y-42932017D02*
X162283966Y-42965350D01*
X162283966Y-42965350D02*
X162383966Y-42965350D01*
X162383966Y-42965350D02*
X162517300Y-42932017D01*
X162517300Y-42932017D02*
X162583966Y-42898684D01*
X162583966Y-42898684D02*
X162650633Y-42832017D01*
X162650633Y-42832017D02*
X162683966Y-42732017D01*
X162683966Y-42732017D02*
X162683966Y-42665350D01*
X162683966Y-42665350D02*
X162650633Y-42565350D01*
X162650633Y-42565350D02*
X162617300Y-42532017D01*
X161983966Y-42232017D02*
X162683966Y-42232017D01*
X161983966Y-41832017D02*
X162383966Y-42132017D01*
X162683966Y-41832017D02*
X162283966Y-42232017D01*
X173983966Y-53334649D02*
X174683966Y-53334649D01*
X173983966Y-53001316D02*
X174683966Y-53001316D01*
X174683966Y-53001316D02*
X173983966Y-52601316D01*
X173983966Y-52601316D02*
X174683966Y-52601316D01*
X174683966Y-52367983D02*
X174683966Y-51967983D01*
X173983966Y-52167983D02*
X174683966Y-52167983D01*
X163983966Y-44065350D02*
X164683966Y-44065350D01*
X164683966Y-44065350D02*
X164183966Y-43832017D01*
X164183966Y-43832017D02*
X164683966Y-43598683D01*
X164683966Y-43598683D02*
X163983966Y-43598683D01*
X164683966Y-43132017D02*
X164683966Y-42998683D01*
X164683966Y-42998683D02*
X164650633Y-42932017D01*
X164650633Y-42932017D02*
X164583966Y-42865350D01*
X164583966Y-42865350D02*
X164450633Y-42832017D01*
X164450633Y-42832017D02*
X164217300Y-42832017D01*
X164217300Y-42832017D02*
X164083966Y-42865350D01*
X164083966Y-42865350D02*
X164017300Y-42932017D01*
X164017300Y-42932017D02*
X163983966Y-42998683D01*
X163983966Y-42998683D02*
X163983966Y-43132017D01*
X163983966Y-43132017D02*
X164017300Y-43198683D01*
X164017300Y-43198683D02*
X164083966Y-43265350D01*
X164083966Y-43265350D02*
X164217300Y-43298683D01*
X164217300Y-43298683D02*
X164450633Y-43298683D01*
X164450633Y-43298683D02*
X164583966Y-43265350D01*
X164583966Y-43265350D02*
X164650633Y-43198683D01*
X164650633Y-43198683D02*
X164683966Y-43132017D01*
X164017300Y-42565350D02*
X163983966Y-42465350D01*
X163983966Y-42465350D02*
X163983966Y-42298684D01*
X163983966Y-42298684D02*
X164017300Y-42232017D01*
X164017300Y-42232017D02*
X164050633Y-42198684D01*
X164050633Y-42198684D02*
X164117300Y-42165350D01*
X164117300Y-42165350D02*
X164183966Y-42165350D01*
X164183966Y-42165350D02*
X164250633Y-42198684D01*
X164250633Y-42198684D02*
X164283966Y-42232017D01*
X164283966Y-42232017D02*
X164317300Y-42298684D01*
X164317300Y-42298684D02*
X164350633Y-42432017D01*
X164350633Y-42432017D02*
X164383966Y-42498684D01*
X164383966Y-42498684D02*
X164417300Y-42532017D01*
X164417300Y-42532017D02*
X164483966Y-42565350D01*
X164483966Y-42565350D02*
X164550633Y-42565350D01*
X164550633Y-42565350D02*
X164617300Y-42532017D01*
X164617300Y-42532017D02*
X164650633Y-42498684D01*
X164650633Y-42498684D02*
X164683966Y-42432017D01*
X164683966Y-42432017D02*
X164683966Y-42265350D01*
X164683966Y-42265350D02*
X164650633Y-42165350D01*
X163983966Y-41865350D02*
X164683966Y-41865350D01*
X164683966Y-53434649D02*
X164683966Y-53034649D01*
X163983966Y-53234649D02*
X164683966Y-53234649D01*
X164683966Y-52867983D02*
X163983966Y-52401316D01*
X164683966Y-52401316D02*
X163983966Y-52867983D01*
X169983966Y-53334649D02*
X170683966Y-53334649D01*
X170683966Y-53334649D02*
X170683966Y-53067982D01*
X170683966Y-53067982D02*
X170650633Y-53001316D01*
X170650633Y-53001316D02*
X170617300Y-52967982D01*
X170617300Y-52967982D02*
X170550633Y-52934649D01*
X170550633Y-52934649D02*
X170450633Y-52934649D01*
X170450633Y-52934649D02*
X170383966Y-52967982D01*
X170383966Y-52967982D02*
X170350633Y-53001316D01*
X170350633Y-53001316D02*
X170317300Y-53067982D01*
X170317300Y-53067982D02*
X170317300Y-53334649D01*
X169983966Y-52634649D02*
X170683966Y-52634649D01*
X169983966Y-52301316D02*
X170683966Y-52301316D01*
X170683966Y-52067983D02*
X170683966Y-51667983D01*
X169983966Y-51867983D02*
X170683966Y-51867983D01*
X169983966Y-51434650D02*
X170683966Y-51434650D01*
X170350633Y-51434650D02*
X170350633Y-51034650D01*
X169983966Y-51034650D02*
X170683966Y-51034650D01*
X161983966Y-52934649D02*
X162317300Y-53167982D01*
X161983966Y-53334649D02*
X162683966Y-53334649D01*
X162683966Y-53334649D02*
X162683966Y-53067982D01*
X162683966Y-53067982D02*
X162650633Y-53001316D01*
X162650633Y-53001316D02*
X162617300Y-52967982D01*
X162617300Y-52967982D02*
X162550633Y-52934649D01*
X162550633Y-52934649D02*
X162450633Y-52934649D01*
X162450633Y-52934649D02*
X162383966Y-52967982D01*
X162383966Y-52967982D02*
X162350633Y-53001316D01*
X162350633Y-53001316D02*
X162317300Y-53067982D01*
X162317300Y-53067982D02*
X162317300Y-53334649D01*
X162350633Y-52634649D02*
X162350633Y-52401316D01*
X161983966Y-52301316D02*
X161983966Y-52634649D01*
X161983966Y-52634649D02*
X162683966Y-52634649D01*
X162683966Y-52634649D02*
X162683966Y-52301316D01*
X162017300Y-52034649D02*
X161983966Y-51934649D01*
X161983966Y-51934649D02*
X161983966Y-51767983D01*
X161983966Y-51767983D02*
X162017300Y-51701316D01*
X162017300Y-51701316D02*
X162050633Y-51667983D01*
X162050633Y-51667983D02*
X162117300Y-51634649D01*
X162117300Y-51634649D02*
X162183966Y-51634649D01*
X162183966Y-51634649D02*
X162250633Y-51667983D01*
X162250633Y-51667983D02*
X162283966Y-51701316D01*
X162283966Y-51701316D02*
X162317300Y-51767983D01*
X162317300Y-51767983D02*
X162350633Y-51901316D01*
X162350633Y-51901316D02*
X162383966Y-51967983D01*
X162383966Y-51967983D02*
X162417300Y-52001316D01*
X162417300Y-52001316D02*
X162483966Y-52034649D01*
X162483966Y-52034649D02*
X162550633Y-52034649D01*
X162550633Y-52034649D02*
X162617300Y-52001316D01*
X162617300Y-52001316D02*
X162650633Y-51967983D01*
X162650633Y-51967983D02*
X162683966Y-51901316D01*
X162683966Y-51901316D02*
X162683966Y-51734649D01*
X162683966Y-51734649D02*
X162650633Y-51634649D01*
X176317300Y-53201316D02*
X175983966Y-53201316D01*
X176683966Y-53434649D02*
X176317300Y-53201316D01*
X176317300Y-53201316D02*
X176683966Y-52967982D01*
X175983966Y-52734649D02*
X176683966Y-52734649D01*
X175983966Y-52401316D02*
X176683966Y-52401316D01*
X176350633Y-52401316D02*
X176350633Y-52001316D01*
X175983966Y-52001316D02*
X176683966Y-52001316D01*
X176683966Y-51767983D02*
X176683966Y-51367983D01*
X175983966Y-51567983D02*
X176683966Y-51567983D01*
X176183966Y-51167983D02*
X176183966Y-50834650D01*
X175983966Y-51234650D02*
X176683966Y-51001317D01*
X176683966Y-51001317D02*
X175983966Y-50767983D01*
X175983966Y-43565350D02*
X176317300Y-43798683D01*
X175983966Y-43965350D02*
X176683966Y-43965350D01*
X176683966Y-43965350D02*
X176683966Y-43698683D01*
X176683966Y-43698683D02*
X176650633Y-43632017D01*
X176650633Y-43632017D02*
X176617300Y-43598683D01*
X176617300Y-43598683D02*
X176550633Y-43565350D01*
X176550633Y-43565350D02*
X176450633Y-43565350D01*
X176450633Y-43565350D02*
X176383966Y-43598683D01*
X176383966Y-43598683D02*
X176350633Y-43632017D01*
X176350633Y-43632017D02*
X176317300Y-43698683D01*
X176317300Y-43698683D02*
X176317300Y-43965350D01*
X176017300Y-43298683D02*
X175983966Y-43198683D01*
X175983966Y-43198683D02*
X175983966Y-43032017D01*
X175983966Y-43032017D02*
X176017300Y-42965350D01*
X176017300Y-42965350D02*
X176050633Y-42932017D01*
X176050633Y-42932017D02*
X176117300Y-42898683D01*
X176117300Y-42898683D02*
X176183966Y-42898683D01*
X176183966Y-42898683D02*
X176250633Y-42932017D01*
X176250633Y-42932017D02*
X176283966Y-42965350D01*
X176283966Y-42965350D02*
X176317300Y-43032017D01*
X176317300Y-43032017D02*
X176350633Y-43165350D01*
X176350633Y-43165350D02*
X176383966Y-43232017D01*
X176383966Y-43232017D02*
X176417300Y-43265350D01*
X176417300Y-43265350D02*
X176483966Y-43298683D01*
X176483966Y-43298683D02*
X176550633Y-43298683D01*
X176550633Y-43298683D02*
X176617300Y-43265350D01*
X176617300Y-43265350D02*
X176650633Y-43232017D01*
X176650633Y-43232017D02*
X176683966Y-43165350D01*
X176683966Y-43165350D02*
X176683966Y-42998683D01*
X176683966Y-42998683D02*
X176650633Y-42898683D01*
X175917300Y-42765350D02*
X175917300Y-42232016D01*
X176683966Y-42165350D02*
X176683966Y-41765350D01*
X175983966Y-41965350D02*
X176683966Y-41965350D01*
X172650633Y-43298683D02*
X172683966Y-43365350D01*
X172683966Y-43365350D02*
X172683966Y-43465350D01*
X172683966Y-43465350D02*
X172650633Y-43565350D01*
X172650633Y-43565350D02*
X172583966Y-43632017D01*
X172583966Y-43632017D02*
X172517300Y-43665350D01*
X172517300Y-43665350D02*
X172383966Y-43698683D01*
X172383966Y-43698683D02*
X172283966Y-43698683D01*
X172283966Y-43698683D02*
X172150633Y-43665350D01*
X172150633Y-43665350D02*
X172083966Y-43632017D01*
X172083966Y-43632017D02*
X172017300Y-43565350D01*
X172017300Y-43565350D02*
X171983966Y-43465350D01*
X171983966Y-43465350D02*
X171983966Y-43398683D01*
X171983966Y-43398683D02*
X172017300Y-43298683D01*
X172017300Y-43298683D02*
X172050633Y-43265350D01*
X172050633Y-43265350D02*
X172283966Y-43265350D01*
X172283966Y-43265350D02*
X172283966Y-43398683D01*
X171983966Y-42965350D02*
X172683966Y-42965350D01*
X172683966Y-42965350D02*
X171983966Y-42565350D01*
X171983966Y-42565350D02*
X172683966Y-42565350D01*
X171983966Y-42232017D02*
X172683966Y-42232017D01*
X172683966Y-42232017D02*
X172683966Y-42065350D01*
X172683966Y-42065350D02*
X172650633Y-41965350D01*
X172650633Y-41965350D02*
X172583966Y-41898684D01*
X172583966Y-41898684D02*
X172517300Y-41865350D01*
X172517300Y-41865350D02*
X172383966Y-41832017D01*
X172383966Y-41832017D02*
X172283966Y-41832017D01*
X172283966Y-41832017D02*
X172150633Y-41865350D01*
X172150633Y-41865350D02*
X172083966Y-41898684D01*
X172083966Y-41898684D02*
X172017300Y-41965350D01*
X172017300Y-41965350D02*
X171983966Y-42065350D01*
X171983966Y-42065350D02*
X171983966Y-42232017D01*
X178858458Y-48369771D02*
X178858458Y-47769771D01*
X178858458Y-47769771D02*
X178658458Y-48198342D01*
X178658458Y-48198342D02*
X178458458Y-47769771D01*
X178458458Y-47769771D02*
X178458458Y-48369771D01*
X178315602Y-48426914D02*
X177858459Y-48426914D01*
X177601316Y-47769771D02*
X177487030Y-47769771D01*
X177487030Y-47769771D02*
X177429887Y-47798342D01*
X177429887Y-47798342D02*
X177372744Y-47855485D01*
X177372744Y-47855485D02*
X177344173Y-47969771D01*
X177344173Y-47969771D02*
X177344173Y-48169771D01*
X177344173Y-48169771D02*
X177372744Y-48284057D01*
X177372744Y-48284057D02*
X177429887Y-48341200D01*
X177429887Y-48341200D02*
X177487030Y-48369771D01*
X177487030Y-48369771D02*
X177601316Y-48369771D01*
X177601316Y-48369771D02*
X177658459Y-48341200D01*
X177658459Y-48341200D02*
X177715601Y-48284057D01*
X177715601Y-48284057D02*
X177744173Y-48169771D01*
X177744173Y-48169771D02*
X177744173Y-47969771D01*
X177744173Y-47969771D02*
X177715601Y-47855485D01*
X177715601Y-47855485D02*
X177658459Y-47798342D01*
X177658459Y-47798342D02*
X177601316Y-47769771D01*
X177087030Y-48369771D02*
X177087030Y-47769771D01*
X176744173Y-48369771D02*
X177001316Y-48026914D01*
X176744173Y-47769771D02*
X177087030Y-48112628D01*
X166050633Y-42498684D02*
X166017300Y-42532017D01*
X166017300Y-42532017D02*
X165983966Y-42632017D01*
X165983966Y-42632017D02*
X165983966Y-42698684D01*
X165983966Y-42698684D02*
X166017300Y-42798684D01*
X166017300Y-42798684D02*
X166083966Y-42865351D01*
X166083966Y-42865351D02*
X166150633Y-42898684D01*
X166150633Y-42898684D02*
X166283966Y-42932017D01*
X166283966Y-42932017D02*
X166383966Y-42932017D01*
X166383966Y-42932017D02*
X166517300Y-42898684D01*
X166517300Y-42898684D02*
X166583966Y-42865351D01*
X166583966Y-42865351D02*
X166650633Y-42798684D01*
X166650633Y-42798684D02*
X166683966Y-42698684D01*
X166683966Y-42698684D02*
X166683966Y-42632017D01*
X166683966Y-42632017D02*
X166650633Y-42532017D01*
X166650633Y-42532017D02*
X166617300Y-42498684D01*
X166017300Y-42232017D02*
X165983966Y-42132017D01*
X165983966Y-42132017D02*
X165983966Y-41965351D01*
X165983966Y-41965351D02*
X166017300Y-41898684D01*
X166017300Y-41898684D02*
X166050633Y-41865351D01*
X166050633Y-41865351D02*
X166117300Y-41832017D01*
X166117300Y-41832017D02*
X166183966Y-41832017D01*
X166183966Y-41832017D02*
X166250633Y-41865351D01*
X166250633Y-41865351D02*
X166283966Y-41898684D01*
X166283966Y-41898684D02*
X166317300Y-41965351D01*
X166317300Y-41965351D02*
X166350633Y-42098684D01*
X166350633Y-42098684D02*
X166383966Y-42165351D01*
X166383966Y-42165351D02*
X166417300Y-42198684D01*
X166417300Y-42198684D02*
X166483966Y-42232017D01*
X166483966Y-42232017D02*
X166550633Y-42232017D01*
X166550633Y-42232017D02*
X166617300Y-42198684D01*
X166617300Y-42198684D02*
X166650633Y-42165351D01*
X166650633Y-42165351D02*
X166683966Y-42098684D01*
X166683966Y-42098684D02*
X166683966Y-41932017D01*
X166683966Y-41932017D02*
X166650633Y-41832017D01*
X178858458Y-45369771D02*
X178858458Y-44769771D01*
X178572744Y-45369771D02*
X178572744Y-44769771D01*
X178572744Y-44769771D02*
X178229887Y-45369771D01*
X178229887Y-45369771D02*
X178229887Y-44769771D01*
X178087031Y-45426914D02*
X177629888Y-45426914D01*
X177487030Y-45369771D02*
X177487030Y-44769771D01*
X177487030Y-44769771D02*
X177344173Y-44769771D01*
X177344173Y-44769771D02*
X177258459Y-44798342D01*
X177258459Y-44798342D02*
X177201316Y-44855485D01*
X177201316Y-44855485D02*
X177172745Y-44912628D01*
X177172745Y-44912628D02*
X177144173Y-45026914D01*
X177144173Y-45026914D02*
X177144173Y-45112628D01*
X177144173Y-45112628D02*
X177172745Y-45226914D01*
X177172745Y-45226914D02*
X177201316Y-45284057D01*
X177201316Y-45284057D02*
X177258459Y-45341200D01*
X177258459Y-45341200D02*
X177344173Y-45369771D01*
X177344173Y-45369771D02*
X177487030Y-45369771D01*
X176972745Y-44769771D02*
X176629888Y-44769771D01*
X176801316Y-45369771D02*
X176801316Y-44769771D01*
X178887030Y-47341200D02*
X178801316Y-47369771D01*
X178801316Y-47369771D02*
X178658458Y-47369771D01*
X178658458Y-47369771D02*
X178601316Y-47341200D01*
X178601316Y-47341200D02*
X178572744Y-47312628D01*
X178572744Y-47312628D02*
X178544173Y-47255485D01*
X178544173Y-47255485D02*
X178544173Y-47198342D01*
X178544173Y-47198342D02*
X178572744Y-47141200D01*
X178572744Y-47141200D02*
X178601316Y-47112628D01*
X178601316Y-47112628D02*
X178658458Y-47084057D01*
X178658458Y-47084057D02*
X178772744Y-47055485D01*
X178772744Y-47055485D02*
X178829887Y-47026914D01*
X178829887Y-47026914D02*
X178858458Y-46998342D01*
X178858458Y-46998342D02*
X178887030Y-46941200D01*
X178887030Y-46941200D02*
X178887030Y-46884057D01*
X178887030Y-46884057D02*
X178858458Y-46826914D01*
X178858458Y-46826914D02*
X178829887Y-46798342D01*
X178829887Y-46798342D02*
X178772744Y-46769771D01*
X178772744Y-46769771D02*
X178629887Y-46769771D01*
X178629887Y-46769771D02*
X178544173Y-46798342D01*
X177944172Y-47312628D02*
X177972744Y-47341200D01*
X177972744Y-47341200D02*
X178058458Y-47369771D01*
X178058458Y-47369771D02*
X178115601Y-47369771D01*
X178115601Y-47369771D02*
X178201315Y-47341200D01*
X178201315Y-47341200D02*
X178258458Y-47284057D01*
X178258458Y-47284057D02*
X178287029Y-47226914D01*
X178287029Y-47226914D02*
X178315601Y-47112628D01*
X178315601Y-47112628D02*
X178315601Y-47026914D01*
X178315601Y-47026914D02*
X178287029Y-46912628D01*
X178287029Y-46912628D02*
X178258458Y-46855485D01*
X178258458Y-46855485D02*
X178201315Y-46798342D01*
X178201315Y-46798342D02*
X178115601Y-46769771D01*
X178115601Y-46769771D02*
X178058458Y-46769771D01*
X178058458Y-46769771D02*
X177972744Y-46798342D01*
X177972744Y-46798342D02*
X177944172Y-46826914D01*
X177401315Y-47369771D02*
X177687029Y-47369771D01*
X177687029Y-47369771D02*
X177687029Y-46769771D01*
M02*
