M48
; DRILL file {KiCad 8.0.0-rc2-74-g5f063dd458} date 2024-01-29T02:33:11+0200
; FORMAT={-:-/ absolute / metric / decimal}
; #@! TF.CreationDate,2024-01-29T02:33:11+02:00
; #@! TF.GenerationSoftware,Kicad,Pcbnew,8.0.0-rc2-74-g5f063dd458
; #@! TF.FileFunction,Plated,1,2,PTH
FMAT,2
METRIC
; #@! TA.AperFunction,Plated,PTH,ViaDrill
T1C0.300
; #@! TA.AperFunction,Plated,PTH,ComponentDrill
T2C0.800
%
G90
G05
T1
X161.07Y-48.84
X161.09Y-45.41
X161.09Y-47.75
X161.12Y-41.89
X161.15Y-43.1
X161.3Y-46.84
X161.48Y-46.06
X161.481Y-49.48
X161.59Y-42.47
X161.623Y-43.8
X161.69Y-50.35
X162.31Y-49.76
X162.64Y-48.29
X162.64Y-49.09
X163.068Y-42.651
X163.31Y-41.841
X163.7Y-46.5
X163.75Y-45.15
X163.8Y-48.33
X163.81Y-49.07
X164.34Y-53.0
X165.1Y-50.39
X165.23Y-42.17
X165.23Y-52.43
X165.29Y-45.29
X165.38Y-47.26
X165.43Y-43.45
X165.5Y-48.43
X165.69Y-49.4
X166.1Y-48.07
X166.99Y-50.23
X167.39Y-52.29
X167.483Y-51.406
X167.57Y-42.01
X167.81Y-43.14
X168.206Y-47.319
X168.206Y-48.281
X168.206Y-49.244
X168.206Y-46.356
X168.95Y-44.49
X169.169Y-46.356
X169.169Y-47.319
X169.169Y-48.281
X169.169Y-49.244
X169.4Y-53.04
X169.78Y-43.15
X170.131Y-46.356
X170.131Y-47.319
X170.131Y-48.281
X170.131Y-49.244
X170.19Y-51.62
X171.094Y-46.356
X171.094Y-47.319
X171.094Y-48.281
X171.094Y-49.244
X171.29Y-53.26
X171.5Y-41.96
X171.82Y-43.1
X172.3Y-41.88
X172.674Y-50.518
X173.13Y-41.9
X173.2Y-47.1
X173.237Y-47.839
X173.29Y-49.8
X173.29Y-53.26
X173.31Y-48.51
X173.38Y-50.57
X173.57Y-44.33
X173.57Y-45.82
X173.577Y-49.13
X173.91Y-43.04
X173.98Y-51.52
X174.72Y-43.72
X175.11Y-48.13
X175.5Y-49.677
X175.74Y-43.37
X176.13Y-52.82
X176.19Y-47.75
X176.99Y-43.25
X177.34Y-52.23
X177.86Y-47.77
X178.31Y-52.68
X178.62Y-45.46
X178.63Y-43.66
X178.7Y-47.6
X178.7Y-48.51
X178.9Y-51.44
T2
X162.3Y-40.6
X162.3Y-54.5
X164.3Y-40.6
X164.3Y-54.5
X166.3Y-40.6
X166.3Y-54.5
X168.3Y-40.6
X168.3Y-54.5
X170.3Y-40.6
X170.3Y-54.5
X172.3Y-40.6
X172.3Y-54.5
X174.3Y-40.6
X174.3Y-54.5
X176.3Y-40.6
X176.3Y-54.5
X178.3Y-40.6
X178.3Y-54.5
X180.25Y-42.55
X180.25Y-44.55
X180.25Y-46.55
X180.25Y-48.55
X180.25Y-50.55
X180.25Y-52.55
M30
