%TF.GenerationSoftware,KiCad,Pcbnew,8.0.0-rc2-74-g5f063dd458*%
%TF.CreationDate,2024-01-29T02:35:24+02:00*%
%TF.ProjectId,SamoProg,53616d6f-5072-46f6-972e-6b696361645f,rev?*%
%TF.SameCoordinates,Original*%
%TF.FileFunction,Copper,L1,Top*%
%TF.FilePolarity,Positive*%
%FSLAX46Y46*%
G04 Gerber Fmt 4.6, Leading zero omitted, Abs format (unit mm)*
G04 Created by KiCad (PCBNEW 8.0.0-rc2-74-g5f063dd458) date 2024-01-29 02:35:24*
%MOMM*%
%LPD*%
G01*
G04 APERTURE LIST*
G04 Aperture macros list*
%AMRoundRect*
0 Rectangle with rounded corners*
0 $1 Rounding radius*
0 $2 $3 $4 $5 $6 $7 $8 $9 X,Y pos of 4 corners*
0 Add a 4 corners polygon primitive as box body*
4,1,4,$2,$3,$4,$5,$6,$7,$8,$9,$2,$3,0*
0 Add four circle primitives for the rounded corners*
1,1,$1+$1,$2,$3*
1,1,$1+$1,$4,$5*
1,1,$1+$1,$6,$7*
1,1,$1+$1,$8,$9*
0 Add four rect primitives between the rounded corners*
20,1,$1+$1,$2,$3,$4,$5,0*
20,1,$1+$1,$4,$5,$6,$7,0*
20,1,$1+$1,$6,$7,$8,$9,0*
20,1,$1+$1,$8,$9,$2,$3,0*%
G04 Aperture macros list end*
%TA.AperFunction,SMDPad,CuDef*%
%ADD10RoundRect,0.225000X0.250000X-0.225000X0.250000X0.225000X-0.250000X0.225000X-0.250000X-0.225000X0*%
%TD*%
%TA.AperFunction,SMDPad,CuDef*%
%ADD11C,0.500000*%
%TD*%
%TA.AperFunction,CastellatedPad*%
%ADD12RoundRect,0.500000X0.250000X-0.500000X0.250000X0.500000X-0.250000X0.500000X-0.250000X-0.500000X0*%
%TD*%
%TA.AperFunction,SMDPad,CuDef*%
%ADD13RoundRect,0.135000X0.185000X-0.135000X0.185000X0.135000X-0.185000X0.135000X-0.185000X-0.135000X0*%
%TD*%
%TA.AperFunction,SMDPad,CuDef*%
%ADD14RoundRect,0.147500X-0.147500X-0.172500X0.147500X-0.172500X0.147500X0.172500X-0.147500X0.172500X0*%
%TD*%
%TA.AperFunction,SMDPad,CuDef*%
%ADD15RoundRect,0.140000X-0.140000X-0.170000X0.140000X-0.170000X0.140000X0.170000X-0.140000X0.170000X0*%
%TD*%
%TA.AperFunction,SMDPad,CuDef*%
%ADD16RoundRect,0.135000X0.135000X0.185000X-0.135000X0.185000X-0.135000X-0.185000X0.135000X-0.185000X0*%
%TD*%
%TA.AperFunction,SMDPad,CuDef*%
%ADD17RoundRect,0.135000X-0.135000X-0.185000X0.135000X-0.185000X0.135000X0.185000X-0.135000X0.185000X0*%
%TD*%
%TA.AperFunction,SMDPad,CuDef*%
%ADD18R,1.000000X0.600000*%
%TD*%
%TA.AperFunction,SMDPad,CuDef*%
%ADD19R,1.150000X0.300000*%
%TD*%
%TA.AperFunction,ComponentPad*%
%ADD20O,1.850000X1.050000*%
%TD*%
%TA.AperFunction,ComponentPad*%
%ADD21O,2.150000X1.050000*%
%TD*%
%TA.AperFunction,SMDPad,CuDef*%
%ADD22RoundRect,0.140000X0.170000X-0.140000X0.170000X0.140000X-0.170000X0.140000X-0.170000X-0.140000X0*%
%TD*%
%TA.AperFunction,SMDPad,CuDef*%
%ADD23RoundRect,0.062500X0.375000X0.062500X-0.375000X0.062500X-0.375000X-0.062500X0.375000X-0.062500X0*%
%TD*%
%TA.AperFunction,SMDPad,CuDef*%
%ADD24RoundRect,0.062500X0.062500X0.375000X-0.062500X0.375000X-0.062500X-0.375000X0.062500X-0.375000X0*%
%TD*%
%TA.AperFunction,SMDPad,CuDef*%
%ADD25R,3.450000X3.450000*%
%TD*%
%TA.AperFunction,SMDPad,CuDef*%
%ADD26RoundRect,0.150000X-0.150000X0.587500X-0.150000X-0.587500X0.150000X-0.587500X0.150000X0.587500X0*%
%TD*%
%TA.AperFunction,CastellatedPad*%
%ADD27RoundRect,0.500000X-0.250000X0.500000X-0.250000X-0.500000X0.250000X-0.500000X0.250000X0.500000X0*%
%TD*%
%TA.AperFunction,SMDPad,CuDef*%
%ADD28R,1.000000X1.450000*%
%TD*%
%TA.AperFunction,CastellatedPad*%
%ADD29RoundRect,0.500000X-0.500000X-0.250000X0.500000X-0.250000X0.500000X0.250000X-0.500000X0.250000X0*%
%TD*%
%TA.AperFunction,SMDPad,CuDef*%
%ADD30RoundRect,0.147500X0.147500X0.172500X-0.147500X0.172500X-0.147500X-0.172500X0.147500X-0.172500X0*%
%TD*%
%TA.AperFunction,SMDPad,CuDef*%
%ADD31R,0.700000X0.450000*%
%TD*%
%TA.AperFunction,SMDPad,CuDef*%
%ADD32RoundRect,0.140000X0.140000X0.170000X-0.140000X0.170000X-0.140000X-0.170000X0.140000X-0.170000X0*%
%TD*%
%TA.AperFunction,SMDPad,CuDef*%
%ADD33RoundRect,0.225000X-0.225000X-0.250000X0.225000X-0.250000X0.225000X0.250000X-0.225000X0.250000X0*%
%TD*%
%TA.AperFunction,SMDPad,CuDef*%
%ADD34RoundRect,0.140000X-0.170000X0.140000X-0.170000X-0.140000X0.170000X-0.140000X0.170000X0.140000X0*%
%TD*%
%TA.AperFunction,SMDPad,CuDef*%
%ADD35R,0.700000X0.340000*%
%TD*%
%TA.AperFunction,SMDPad,CuDef*%
%ADD36R,0.400000X1.000000*%
%TD*%
%TA.AperFunction,ViaPad*%
%ADD37C,0.550000*%
%TD*%
%TA.AperFunction,Conductor*%
%ADD38C,0.125000*%
%TD*%
%TA.AperFunction,Conductor*%
%ADD39C,0.250000*%
%TD*%
G04 APERTURE END LIST*
D10*
%TO.P,C3,1*%
%TO.N,GND*%
X134600000Y-45775000D03*
%TO.P,C3,2*%
%TO.N,USB_P*%
X134600000Y-44225000D03*
%TD*%
D11*
%TO.P,FID1,*%
%TO.N,*%
X128200000Y-40600000D03*
%TD*%
D12*
%TO.P,SWDIO,1,1*%
%TO.N,/SWDIO*%
X141400000Y-31800000D03*
%TD*%
D13*
%TO.P,R9,1*%
%TO.N,/iTXD*%
X140200000Y-35110000D03*
%TO.P,R9,2*%
%TO.N,/TXD*%
X140200000Y-34090000D03*
%TD*%
D14*
%TO.P,D3,1,K*%
%TO.N,GND*%
X138750000Y-46100000D03*
%TO.P,D3,2,A*%
%TO.N,Net-(D3-A)*%
X139720000Y-46100000D03*
%TD*%
D15*
%TO.P,C4,1*%
%TO.N,Net-(U3-PG10)*%
X147520000Y-39800000D03*
%TO.P,C4,2*%
%TO.N,GND*%
X148480000Y-39800000D03*
%TD*%
D16*
%TO.P,R8,1*%
%TO.N,/TPWR_C*%
X147510000Y-43400000D03*
%TO.P,R8,2*%
%TO.N,GND*%
X146490000Y-43400000D03*
%TD*%
D17*
%TO.P,R7,1*%
%TO.N,TPWR*%
X146490000Y-44600000D03*
%TO.P,R7,2*%
%TO.N,/TPWR_C*%
X147510000Y-44600000D03*
%TD*%
D13*
%TO.P,R14,1*%
%TO.N,/xSWD*%
X143000000Y-35110000D03*
%TO.P,R14,2*%
%TO.N,/SWDIO*%
X143000000Y-34090000D03*
%TD*%
D18*
%TO.P,J1,A1_B12,GND*%
%TO.N,GND*%
X133000000Y-37400000D03*
%TO.P,J1,A4_B9,VBUS*%
%TO.N,USB_P*%
X133000000Y-38200000D03*
D19*
%TO.P,J1,A5,CC1*%
%TO.N,/CC1*%
X132925000Y-39350000D03*
%TO.P,J1,A6,DP1*%
%TO.N,Net-(J1-DP1)*%
X132925000Y-40350000D03*
%TO.P,J1,A7,DN1*%
%TO.N,Net-(J1-DN1)*%
X132925000Y-40850000D03*
%TO.P,J1,A8,SBU1*%
%TO.N,unconnected-(J1-SBU1-PadA8)*%
X132925000Y-41850000D03*
D18*
%TO.P,J1,A9_B4,VBUS*%
%TO.N,USB_P*%
X133000000Y-43000000D03*
%TO.P,J1,A12_B1,GND*%
%TO.N,GND*%
X133000000Y-43800000D03*
D19*
%TO.P,J1,B5,CC2*%
%TO.N,/CC2*%
X132925000Y-42350000D03*
%TO.P,J1,B6,DP2*%
%TO.N,Net-(J1-DP1)*%
X132925000Y-41350000D03*
%TO.P,J1,B7,DN2*%
%TO.N,Net-(J1-DN1)*%
X132925000Y-39850000D03*
%TO.P,J1,B8,SBU2*%
%TO.N,unconnected-(J1-SBU2-PadB8)*%
X132925000Y-38850000D03*
D20*
%TO.P,J1,SH1,SHIELD*%
%TO.N,GND*%
X128200000Y-36280000D03*
%TO.P,J1,SH2,SHIELD*%
X128200000Y-44920000D03*
D21*
%TO.P,J1,SH3,SHIELD*%
X132350000Y-36280000D03*
%TO.P,J1,SH4,SHIELD*%
X132350000Y-44920000D03*
%TD*%
D22*
%TO.P,C10,1*%
%TO.N,3V3*%
X141400000Y-35080000D03*
%TO.P,C10,2*%
%TO.N,GND*%
X141400000Y-34120000D03*
%TD*%
D16*
%TO.P,R3,1*%
%TO.N,GND*%
X135310000Y-42600000D03*
%TO.P,R3,2*%
%TO.N,/CC2*%
X134290000Y-42600000D03*
%TD*%
D23*
%TO.P,U3,1,VDD*%
%TO.N,3V3*%
X143400000Y-41850000D03*
%TO.P,U3,2,PF0*%
%TO.N,Net-(U3-PF0)*%
X143400000Y-41350000D03*
%TO.P,U3,3,PF1*%
%TO.N,Net-(U3-PF1)*%
X143400000Y-40850000D03*
%TO.P,U3,4,PG10*%
%TO.N,Net-(U3-PG10)*%
X143400000Y-40350000D03*
%TO.P,U3,5,PA0*%
%TO.N,unconnected-(U3-PA0-Pad5)*%
X143400000Y-39850000D03*
%TO.P,U3,6,PA1*%
%TO.N,/TPWR_C*%
X143400000Y-39350000D03*
%TO.P,U3,7,PA2*%
%TO.N,unconnected-(U3-PA2-Pad7)*%
X143400000Y-38850000D03*
%TO.P,U3,8,PA3*%
%TO.N,unconnected-(U3-PA3-Pad8)*%
X143400000Y-38350000D03*
D24*
%TO.P,U3,9,PA4*%
%TO.N,unconnected-(U3-PA4-Pad9)*%
X142712500Y-37662500D03*
%TO.P,U3,10,PA5*%
%TO.N,/xSWCLK*%
X142212500Y-37662500D03*
%TO.P,U3,11,PA6*%
%TO.N,/xSWD*%
X141712500Y-37662500D03*
%TO.P,U3,12,PA7*%
%TO.N,/iSWDO*%
X141212500Y-37662500D03*
%TO.P,U3,13,PB0*%
%TO.N,/LED0*%
X140712500Y-37662500D03*
%TO.P,U3,14,VSSA*%
%TO.N,GND*%
X140212500Y-37662500D03*
%TO.P,U3,15,VDDA*%
%TO.N,3V3*%
X139712500Y-37662500D03*
%TO.P,U3,16,VSS*%
%TO.N,GND*%
X139212500Y-37662500D03*
D23*
%TO.P,U3,17,VDD*%
%TO.N,3V3*%
X138525000Y-38350000D03*
%TO.P,U3,18,PA8*%
%TO.N,unconnected-(U3-PA8-Pad18)*%
X138525000Y-38850000D03*
%TO.P,U3,19,PA9*%
%TO.N,/iTXD*%
X138525000Y-39350000D03*
%TO.P,U3,20,PA10*%
%TO.N,/iRXD*%
X138525000Y-39850000D03*
%TO.P,U3,21,PA11*%
%TO.N,/D_N*%
X138525000Y-40350000D03*
%TO.P,U3,22,PA12*%
%TO.N,/D_P*%
X138525000Y-40850000D03*
%TO.P,U3,23,PA13*%
%TO.N,unconnected-(U3-PA13-Pad23)*%
X138525000Y-41350000D03*
%TO.P,U3,24,PA14*%
%TO.N,unconnected-(U3-PA14-Pad24)*%
X138525000Y-41850000D03*
D24*
%TO.P,U3,25,PA15*%
%TO.N,unconnected-(U3-PA15-Pad25)*%
X139212500Y-42537500D03*
%TO.P,U3,26,PB3*%
%TO.N,/LED1*%
X139712500Y-42537500D03*
%TO.P,U3,27,PB4*%
%TO.N,/LED2*%
X140212500Y-42537500D03*
%TO.P,U3,28,PB5*%
%TO.N,/iRST*%
X140712500Y-42537500D03*
%TO.P,U3,29,PB6*%
%TO.N,unconnected-(U3-PB6-Pad29)*%
X141212500Y-42537500D03*
%TO.P,U3,30,PB7*%
%TO.N,unconnected-(U3-PB7-Pad30)*%
X141712500Y-42537500D03*
%TO.P,U3,31,PB8*%
%TO.N,Net-(U3-PB8)*%
X142212500Y-42537500D03*
%TO.P,U3,32,VSS*%
%TO.N,GND*%
X142712500Y-42537500D03*
D25*
%TO.P,U3,33,VSS*%
X140962500Y-40100000D03*
%TD*%
D14*
%TO.P,D4,1,K*%
%TO.N,GND*%
X130415000Y-32500000D03*
%TO.P,D4,2,A*%
%TO.N,Net-(D4-A)*%
X131385000Y-32500000D03*
%TD*%
D12*
%TO.P,TX,1,1*%
%TO.N,/TXD*%
X139400000Y-31800000D03*
%TD*%
D17*
%TO.P,R16,1*%
%TO.N,/LED2*%
X138690000Y-44900000D03*
%TO.P,R16,2*%
%TO.N,Net-(D3-A)*%
X139710000Y-44900000D03*
%TD*%
%TO.P,R6,1*%
%TO.N,Net-(Q1-D)*%
X144490000Y-44600000D03*
%TO.P,R6,2*%
%TO.N,TPWR*%
X145510000Y-44600000D03*
%TD*%
D12*
%TO.P,SWDCK,1,1*%
%TO.N,/SWCLK*%
X143400000Y-31800000D03*
%TD*%
D26*
%TO.P,U4,1,GND*%
%TO.N,GND*%
X137550000Y-34462500D03*
%TO.P,U4,2,VO*%
%TO.N,3V3*%
X135650000Y-34462500D03*
%TO.P,U4,3,VI*%
%TO.N,USB_P*%
X136600000Y-36337500D03*
%TD*%
D16*
%TO.P,R15,1*%
%TO.N,/LED1*%
X137310000Y-44900000D03*
%TO.P,R15,2*%
%TO.N,Net-(D2-A)*%
X136290000Y-44900000D03*
%TD*%
D27*
%TO.P,RES,1,1*%
%TO.N,/RST*%
X147200000Y-46800000D03*
%TD*%
D17*
%TO.P,R12,1*%
%TO.N,/iSWDO*%
X141400000Y-36200000D03*
%TO.P,R12,2*%
%TO.N,/xSWD*%
X142420000Y-36200000D03*
%TD*%
D15*
%TO.P,C8,1*%
%TO.N,3V3*%
X144520000Y-43400000D03*
%TO.P,C8,2*%
%TO.N,GND*%
X145480000Y-43400000D03*
%TD*%
D28*
%TO.P,SW1,1,1*%
%TO.N,3V3*%
X146150000Y-37975000D03*
X146150000Y-32825000D03*
%TO.P,SW1,2,2*%
%TO.N,Net-(U3-PB8)*%
X147850000Y-37975000D03*
X147850000Y-32825000D03*
%TD*%
D15*
%TO.P,C2,1*%
%TO.N,USB_P*%
X136400000Y-42600000D03*
%TO.P,C2,2*%
%TO.N,GND*%
X137360000Y-42600000D03*
%TD*%
D29*
%TO.P,VCC,1,1*%
%TO.N,TPWR*%
X149200000Y-41800000D03*
%TD*%
D17*
%TO.P,R1,1*%
%TO.N,Net-(Q1-D)*%
X144490000Y-46000000D03*
%TO.P,R1,2*%
%TO.N,/RST*%
X145510000Y-46000000D03*
%TD*%
D12*
%TO.P,RX,1,1*%
%TO.N,/RXD*%
X137400000Y-31800000D03*
%TD*%
D16*
%TO.P,R4,1*%
%TO.N,Net-(U3-PG10)*%
X146510000Y-39800000D03*
%TO.P,R4,2*%
%TO.N,3V3*%
X145490000Y-39800000D03*
%TD*%
%TO.P,R11,1*%
%TO.N,3V3*%
X130220000Y-34400000D03*
%TO.P,R11,2*%
%TO.N,Net-(D1-A)*%
X129200000Y-34400000D03*
%TD*%
%TO.P,R17,1*%
%TO.N,/LED0*%
X133510000Y-32500000D03*
%TO.P,R17,2*%
%TO.N,Net-(D4-A)*%
X132490000Y-32500000D03*
%TD*%
D14*
%TO.P,D1,1,K*%
%TO.N,GND*%
X127115000Y-34400000D03*
%TO.P,D1,2,A*%
%TO.N,Net-(D1-A)*%
X128085000Y-34400000D03*
%TD*%
D13*
%TO.P,R10,1*%
%TO.N,/iRXD*%
X139200000Y-35110000D03*
%TO.P,R10,2*%
%TO.N,/RXD*%
X139200000Y-34090000D03*
%TD*%
D30*
%TO.P,D2,1,K*%
%TO.N,GND*%
X137285000Y-46100000D03*
%TO.P,D2,2,A*%
%TO.N,Net-(D2-A)*%
X136315000Y-46100000D03*
%TD*%
D16*
%TO.P,R2,1*%
%TO.N,GND*%
X135310000Y-39000000D03*
%TO.P,R2,2*%
%TO.N,/CC1*%
X134290000Y-39000000D03*
%TD*%
D15*
%TO.P,C1,1*%
%TO.N,USB_P*%
X137920000Y-36400000D03*
%TO.P,C1,2*%
%TO.N,GND*%
X138880000Y-36400000D03*
%TD*%
D27*
%TO.P,GND,1,1*%
%TO.N,GND*%
X130200000Y-46800000D03*
%TD*%
D31*
%TO.P,Q1,1,G*%
%TO.N,/iRST*%
X141095815Y-44750000D03*
%TO.P,Q1,2,S*%
%TO.N,GND*%
X141095815Y-46050000D03*
%TO.P,Q1,3,D*%
%TO.N,Net-(Q1-D)*%
X143095815Y-45400000D03*
%TD*%
D13*
%TO.P,R13,1*%
%TO.N,/xSWCLK*%
X144000000Y-35110000D03*
%TO.P,R13,2*%
%TO.N,/SWCLK*%
X144000000Y-34090000D03*
%TD*%
D32*
%TO.P,C7,1*%
%TO.N,3V3*%
X137280000Y-38200000D03*
%TO.P,C7,2*%
%TO.N,GND*%
X136320000Y-38200000D03*
%TD*%
D33*
%TO.P,C6,1*%
%TO.N,GND*%
X132225000Y-34400000D03*
%TO.P,C6,2*%
%TO.N,3V3*%
X133775000Y-34400000D03*
%TD*%
D34*
%TO.P,C9,1*%
%TO.N,/TPWR_C*%
X148430000Y-43520000D03*
%TO.P,C9,2*%
%TO.N,GND*%
X148430000Y-44480000D03*
%TD*%
D35*
%TO.P,U1,1*%
%TO.N,Net-(J1-DN1)*%
X135450000Y-40100000D03*
%TO.P,U1,2*%
%TO.N,GND*%
X135450000Y-40600000D03*
%TO.P,U1,3*%
%TO.N,Net-(J1-DP1)*%
X135450000Y-41100000D03*
%TO.P,U1,4*%
%TO.N,/D_P*%
X136950000Y-41100000D03*
%TO.P,U1,5*%
%TO.N,USB_P*%
X136950000Y-40600000D03*
%TO.P,U1,6*%
%TO.N,/D_N*%
X136950000Y-40100000D03*
%TD*%
D36*
%TO.P,Y1,1,1*%
%TO.N,Net-(U3-PF0)*%
X144800000Y-41800000D03*
%TO.P,Y1,2,2*%
%TO.N,GND*%
X146000000Y-41800000D03*
%TO.P,Y1,3,3*%
%TO.N,Net-(U3-PF1)*%
X147200000Y-41800000D03*
%TD*%
D12*
%TO.P,+5V,1,1*%
%TO.N,USB_P*%
X128200000Y-31800000D03*
%TD*%
D16*
%TO.P,R5,1*%
%TO.N,GND*%
X143460000Y-43680000D03*
%TO.P,R5,2*%
%TO.N,Net-(U3-PB8)*%
X142440000Y-43680000D03*
%TD*%
D37*
%TO.N,GND*%
X127152500Y-43740000D03*
X142112500Y-41250000D03*
X140962500Y-38950000D03*
X135300000Y-38000000D03*
X138630000Y-44110000D03*
X133812500Y-33340000D03*
X129550000Y-39000000D03*
X128900000Y-37920000D03*
X134560000Y-40610000D03*
X135442500Y-32620000D03*
X130770000Y-39650000D03*
X144800000Y-32850000D03*
X134092500Y-41820000D03*
X130900000Y-35300000D03*
X146762500Y-40590000D03*
X128350000Y-42900000D03*
X144300000Y-36600000D03*
X141490000Y-43750000D03*
X127200000Y-35250000D03*
X135200000Y-41800000D03*
X136392500Y-33140000D03*
X135612500Y-44360000D03*
X127500000Y-45900000D03*
X148412500Y-36640000D03*
X145062500Y-36900000D03*
X127662500Y-37880000D03*
X127480000Y-33570000D03*
X140962500Y-41250000D03*
X134952500Y-43260000D03*
X147002500Y-39060000D03*
X141470000Y-33380000D03*
X147027964Y-36897004D03*
X148172500Y-40550000D03*
X136750000Y-43600000D03*
X146080000Y-45360000D03*
X129900000Y-43400000D03*
X139812500Y-38950000D03*
X130350000Y-40950000D03*
X139812500Y-40100000D03*
X140162500Y-44100000D03*
X129640000Y-33310000D03*
X130880000Y-37180000D03*
X138402500Y-33680000D03*
X134270000Y-35980000D03*
X130820000Y-41900000D03*
X148220000Y-45320000D03*
X133000000Y-45950000D03*
X131492500Y-33370000D03*
X146000002Y-41800000D03*
X128690000Y-35180000D03*
X137262500Y-41800000D03*
X138462500Y-42650000D03*
X130840000Y-44140000D03*
X140560000Y-33150000D03*
X141890000Y-45470000D03*
X130470000Y-33380000D03*
X145462500Y-35400000D03*
X148462500Y-34300000D03*
X132710000Y-33270000D03*
X143420000Y-44570000D03*
X140590000Y-45460000D03*
X145262500Y-34000000D03*
X135530000Y-45370000D03*
X140962500Y-40100000D03*
X145792500Y-42730000D03*
X137672500Y-33300000D03*
X138010000Y-45550000D03*
X142112500Y-38950000D03*
X142182500Y-35380000D03*
X136670000Y-34920000D03*
X139812500Y-41250000D03*
X145072500Y-45300000D03*
X142112500Y-40100000D03*
%TO.N,USB_P*%
X137210000Y-36337500D03*
X131540000Y-39090000D03*
%TO.N,3V3*%
X143400000Y-42280000D03*
X139706468Y-36739300D03*
X145230000Y-37850000D03*
X134860000Y-34430000D03*
X131029998Y-34400000D03*
X137790000Y-38330006D03*
%TO.N,/TPWR_C*%
X144460000Y-39340000D03*
X147510000Y-44010000D03*
%TO.N,Net-(U3-PB8)*%
X142300000Y-44690000D03*
X147850000Y-37975000D03*
%TO.N,TPWR*%
X146010000Y-44600000D03*
%TO.N,/iTXD*%
X139770000Y-35890000D03*
X136900000Y-39000000D03*
%TO.N,/iRXD*%
X138520000Y-35120000D03*
X136200000Y-39170000D03*
%TO.N,/LED0*%
X140600000Y-36740000D03*
X134510000Y-32920000D03*
%TD*%
D38*
%TO.N,GND*%
X138880000Y-36400000D02*
X137550000Y-35070000D01*
X140212500Y-37662500D02*
X140212500Y-39350000D01*
X139212500Y-37146714D02*
X139212500Y-37662500D01*
X142712500Y-42264214D02*
G75*
G03*
X142419614Y-41557100I-1000000J14D01*
G01*
X139212500Y-37146714D02*
G75*
G03*
X138919614Y-36439600I-1000000J14D01*
G01*
X139505393Y-38642893D02*
G75*
G02*
X139212510Y-37935786I707107J707093D01*
G01*
D39*
%TO.N,USB_P*%
X132137107Y-38492893D02*
X131540000Y-39090000D01*
X136232238Y-40941022D02*
X136400000Y-42600000D01*
X136315624Y-40699211D02*
X136295502Y-40724629D01*
X137210000Y-36337500D02*
X137857500Y-36337500D01*
X136264302Y-42871395D02*
X136400000Y-42600000D01*
X136950000Y-40600000D02*
X136561942Y-40585627D01*
X134600000Y-44225000D02*
X135490833Y-43700045D01*
X131832893Y-42402893D02*
X132137107Y-42707107D01*
X134012893Y-43292893D02*
X134600000Y-43880000D01*
X134600000Y-43880000D02*
X134600000Y-44225000D01*
X136600000Y-36337500D02*
X137210000Y-36337500D01*
X131540000Y-39090000D02*
X131540000Y-41695786D01*
X136232238Y-40941022D02*
G75*
G02*
X136295482Y-40724613I298462J30222D01*
G01*
X132844214Y-43000000D02*
G75*
G02*
X132137100Y-42707114I-14J1000000D01*
G01*
X136264302Y-42871395D02*
G75*
G02*
X135490849Y-43700072I-1788902J894395D01*
G01*
X131540000Y-41695786D02*
G75*
G03*
X131832886Y-42402900I1000000J-14D01*
G01*
X132137107Y-38492893D02*
G75*
G02*
X132844214Y-38200010I707093J-707107D01*
G01*
X134012893Y-43292893D02*
G75*
G03*
X133305786Y-43000010I-707093J-707107D01*
G01*
X136561942Y-40585628D02*
G75*
G03*
X136315607Y-40699197I-11142J-299772D01*
G01*
D38*
%TO.N,Net-(U3-PG10)*%
X143400000Y-40350000D02*
X145545786Y-40350000D01*
X146252893Y-40057107D02*
X146510000Y-39800000D01*
D39*
X147520000Y-39800000D02*
X146510000Y-39800000D01*
D38*
X145545786Y-40350000D02*
G75*
G03*
X146252900Y-40057114I14J1000000D01*
G01*
D39*
%TO.N,3V3*%
X145490000Y-39430000D02*
X145857107Y-39062893D01*
X139712500Y-37662500D02*
X139712500Y-36745332D01*
X137790006Y-38330006D02*
X137790000Y-38330006D01*
X133775000Y-34400000D02*
X134830000Y-34400000D01*
X134830000Y-34400000D02*
X134860000Y-34430000D01*
X134860000Y-34430000D02*
X135617500Y-34430000D01*
X137810000Y-38350000D02*
X137790006Y-38330006D01*
X145490000Y-39800000D02*
X145490000Y-39430000D01*
X145230000Y-37850000D02*
X146025000Y-37850000D01*
X141400000Y-35080000D02*
X139740700Y-36739300D01*
X139712500Y-36745332D02*
X139706468Y-36739300D01*
X146150000Y-32825000D02*
X146150000Y-37975000D01*
X135827107Y-37167107D02*
X135796446Y-37136446D01*
X136354629Y-37383840D02*
X135827107Y-37167107D01*
D38*
X130220000Y-34400000D02*
X131029998Y-34400000D01*
D39*
X143400000Y-42280000D02*
X144520000Y-43400000D01*
X137430000Y-38350000D02*
X137810000Y-38350000D01*
X143400000Y-41850000D02*
X143400000Y-42280000D01*
X135650000Y-36782964D02*
X135650000Y-34462500D01*
X139740700Y-36739300D02*
X139706468Y-36739300D01*
X137810000Y-38350000D02*
X138525000Y-38350000D01*
X137280000Y-38200000D02*
X136681708Y-37601708D01*
X136681708Y-37601708D02*
G75*
G03*
X136354630Y-37383837I-707108J-707092D01*
G01*
X145857107Y-39062893D02*
G75*
G03*
X146149990Y-38355786I-707107J707093D01*
G01*
X135796446Y-37136446D02*
G75*
G02*
X135650017Y-36782964I353354J353446D01*
G01*
D38*
%TO.N,/TPWR_C*%
X143400000Y-39350000D02*
X144450000Y-39350000D01*
D39*
X147510000Y-44600000D02*
X147510000Y-43400000D01*
X147510000Y-43400000D02*
X147510000Y-44010000D01*
D38*
X144450000Y-39350000D02*
X144460000Y-39340000D01*
D39*
X147510000Y-43520000D02*
X147510000Y-44010000D01*
X148600000Y-43520000D02*
X147510000Y-43520000D01*
D38*
%TO.N,Net-(D1-A)*%
X128085000Y-34400000D02*
X129200000Y-34400000D01*
%TO.N,Net-(D2-A)*%
X136315000Y-46200000D02*
X136315000Y-44925000D01*
%TO.N,Net-(D3-A)*%
X139710000Y-44900000D02*
X139710000Y-46190000D01*
%TO.N,Net-(D4-A)*%
X131385000Y-32500000D02*
X132490000Y-32500000D01*
%TO.N,Net-(J1-DN1)*%
X133930000Y-40525736D02*
X133930000Y-39927567D01*
X133817868Y-40762132D02*
X133842132Y-40737868D01*
X132925000Y-40850000D02*
X133605736Y-40850000D01*
X133842132Y-40737868D02*
G75*
G03*
X133930025Y-40525736I-212132J212168D01*
G01*
X133817868Y-40762132D02*
G75*
G02*
X133605736Y-40850025I-212168J212132D01*
G01*
X133063149Y-39859176D02*
G75*
G02*
X135488276Y-40105234I-2321949J-34958924D01*
G01*
%TO.N,/CC2*%
X134040000Y-42350000D02*
X134290000Y-42600000D01*
X132925000Y-42350000D02*
X134040000Y-42350000D01*
%TO.N,/CC1*%
X133295619Y-39327263D02*
G75*
G03*
X134130865Y-39086827I-122419J1996263D01*
G01*
%TO.N,Net-(J1-DP1)*%
X132274264Y-40350000D02*
X132925000Y-40350000D01*
X131870000Y-40945736D02*
X131870000Y-40754264D01*
X132925000Y-41350000D02*
X132274264Y-41350000D01*
X131957868Y-40542132D02*
X132062132Y-40437868D01*
X132062132Y-41262132D02*
X131957868Y-41157868D01*
X131870000Y-40945736D02*
G75*
G03*
X131957886Y-41157850I300000J36D01*
G01*
X132274264Y-41350000D02*
G75*
G02*
X132062150Y-41262114I36J300000D01*
G01*
X135445588Y-41100773D02*
G75*
G02*
X133157832Y-41341594I-2891488J16481573D01*
G01*
X132274264Y-40350000D02*
G75*
G03*
X132062150Y-40437886I36J-300000D01*
G01*
X131957868Y-40542132D02*
G75*
G03*
X131869975Y-40754264I212132J-212168D01*
G01*
%TO.N,/iRST*%
X140712500Y-42537500D02*
X140712500Y-43952471D01*
X141005394Y-44659577D02*
G75*
G02*
X140712521Y-43952471I707106J707077D01*
G01*
D39*
%TO.N,Net-(Q1-D)*%
X144490000Y-46000000D02*
X144490000Y-44600000D01*
X144210000Y-46000000D02*
X144490000Y-46000000D01*
X143902893Y-45692893D02*
X144210000Y-46000000D01*
X143902893Y-45692893D02*
G75*
G03*
X143195786Y-45400010I-707093J-707107D01*
G01*
%TO.N,/RST*%
X145510000Y-46000000D02*
X145985786Y-46000000D01*
X146692893Y-46292893D02*
G75*
G03*
X145985786Y-46000010I-707093J-707107D01*
G01*
D38*
%TO.N,Net-(U3-PB8)*%
X142212500Y-42537500D02*
X142218816Y-43061722D01*
X142440000Y-43680000D02*
X142440000Y-44550000D01*
X142258296Y-43250518D02*
X142440000Y-43680000D01*
X142440000Y-44550000D02*
X142300000Y-44690000D01*
X147850000Y-32825000D02*
X147850000Y-37975000D01*
X142218816Y-43061722D02*
G75*
G03*
X142258294Y-43250519I499984J6022D01*
G01*
D39*
%TO.N,TPWR*%
X146010000Y-44600000D02*
X146490000Y-44600000D01*
X145510000Y-44600000D02*
X146010000Y-44600000D01*
D38*
%TO.N,/iTXD*%
X140200000Y-35460000D02*
X139770000Y-35890000D01*
X137275361Y-39161920D02*
X136900000Y-39000000D01*
X138525000Y-39350000D02*
X137555645Y-39236981D01*
X140200000Y-35110000D02*
X140200000Y-35460000D01*
X137555645Y-39236980D02*
G75*
G02*
X137275358Y-39161927I115755J993180D01*
G01*
%TO.N,/iRXD*%
X136233704Y-39192037D02*
X136200000Y-39170000D01*
X138525000Y-39850000D02*
X137866315Y-39777523D01*
X138520000Y-35120000D02*
X139190000Y-35120000D01*
X137866315Y-39777522D02*
G75*
G02*
X136233701Y-39192041I407785J3706122D01*
G01*
%TO.N,/xSWD*%
X143000000Y-35110000D02*
X142420000Y-36200000D01*
X142005393Y-36764607D02*
X142420000Y-36350000D01*
X141712500Y-37471714D02*
G75*
G02*
X142005386Y-36764600I1000000J14D01*
G01*
%TO.N,/iSWDO*%
X141212500Y-37662500D02*
X141400000Y-36200000D01*
%TO.N,/LED0*%
X140712500Y-36852500D02*
X140600000Y-36740000D01*
X140712500Y-37662500D02*
X140712500Y-36852500D01*
X133510000Y-32500000D02*
X134510000Y-32920000D01*
%TO.N,/LED1*%
X138030744Y-43740256D02*
X138590000Y-43560296D01*
X138590000Y-43560296D02*
X139350280Y-43315963D01*
X137310000Y-44900000D02*
X137342440Y-44588580D01*
X139350280Y-43315962D02*
G75*
G03*
X139696753Y-42864078I-152980J476062D01*
G01*
X138030744Y-43740257D02*
G75*
G03*
X137342458Y-44588582I306356J-951943D01*
G01*
%TO.N,/LED2*%
X140158190Y-42973448D02*
X140212500Y-42537500D01*
X138690000Y-44900000D02*
X139915563Y-43511599D01*
X139915563Y-43511599D02*
G75*
G03*
X140158212Y-42973451I-749663J661799D01*
G01*
%TO.N,/SWCLK*%
X144000000Y-34090000D02*
X143400000Y-31800000D01*
%TO.N,/SWDIO*%
X143000000Y-34090000D02*
X141400000Y-31800000D01*
%TO.N,/xSWCLK*%
X142505393Y-36932108D02*
X143089359Y-36348142D01*
X142212500Y-37639215D02*
G75*
G02*
X142505386Y-36932101I1000000J15D01*
G01*
X143089358Y-36348141D02*
G75*
G03*
X143980068Y-35147269I-3603758J3603741D01*
G01*
%TO.N,/RXD*%
X138718831Y-33141449D02*
X138319733Y-32882903D01*
X139200000Y-34090000D02*
X139165565Y-33842771D01*
X138077239Y-32661599D02*
X137400000Y-31800000D01*
X138718831Y-33141450D02*
G75*
G02*
X139165535Y-33842775I-543731J-839250D01*
G01*
X138319733Y-32882902D02*
G75*
G02*
X138077227Y-32661608I543667J839302D01*
G01*
%TO.N,/TXD*%
X140200000Y-34090000D02*
X139400000Y-31800000D01*
%TO.N,/D_P*%
X137837258Y-40944861D02*
X138525000Y-40850000D01*
X136950000Y-41100000D02*
X137762962Y-40956536D01*
X137762962Y-40956537D02*
G75*
G02*
X137837258Y-40944862I347338J-1968163D01*
G01*
%TO.N,/D_N*%
X137880794Y-40279882D02*
X138525000Y-40350000D01*
X136950000Y-40100000D02*
X137700484Y-40251884D01*
X137880794Y-40279881D02*
G75*
G02*
X137700485Y-40251880I216506J1988681D01*
G01*
%TO.N,Net-(U3-PF1)*%
X143400000Y-40850000D02*
X145890465Y-40930859D01*
X146861247Y-41400082D02*
X147200000Y-41800000D01*
X146861247Y-41400082D02*
G75*
G03*
X145890466Y-40930821I-1013947J-858818D01*
G01*
%TO.N,Net-(U3-PF0)*%
X143611815Y-41357845D02*
G75*
G02*
X144697660Y-41727137I-74015J-1998655D01*
G01*
%TD*%
%TA.AperFunction,Conductor*%
%TO.N,GND*%
G36*
X127228691Y-32229407D02*
G01*
X127264655Y-32278907D01*
X127269500Y-32309500D01*
X127269500Y-32355002D01*
X127275730Y-32423562D01*
X127324894Y-32581337D01*
X127410384Y-32722756D01*
X127410385Y-32722757D01*
X127410387Y-32722760D01*
X127527240Y-32839613D01*
X127668663Y-32925106D01*
X127826436Y-32974269D01*
X127895002Y-32980500D01*
X127895007Y-32980500D01*
X128504993Y-32980500D01*
X128504998Y-32980500D01*
X128573564Y-32974269D01*
X128731337Y-32925106D01*
X128872760Y-32839613D01*
X128989613Y-32722760D01*
X129075106Y-32581337D01*
X129124269Y-32423564D01*
X129130500Y-32354998D01*
X129130500Y-32309500D01*
X129149407Y-32251309D01*
X129198907Y-32215345D01*
X129229500Y-32210500D01*
X130810500Y-32210500D01*
X130868691Y-32229407D01*
X130904655Y-32278907D01*
X130909500Y-32309500D01*
X130909500Y-32710934D01*
X130915789Y-32758702D01*
X130964673Y-32863535D01*
X131046465Y-32945327D01*
X131151298Y-32994211D01*
X131199066Y-33000500D01*
X131199067Y-33000500D01*
X131570932Y-33000500D01*
X131570934Y-33000500D01*
X131618702Y-32994211D01*
X131723535Y-32945327D01*
X131724036Y-32944825D01*
X131740899Y-32931297D01*
X131903004Y-32828164D01*
X131962247Y-32812881D01*
X132012134Y-32830048D01*
X132120973Y-32904694D01*
X132137420Y-32915974D01*
X132151427Y-32927612D01*
X132171244Y-32947428D01*
X132171247Y-32947430D01*
X132272080Y-32994450D01*
X132272081Y-32994450D01*
X132272083Y-32994451D01*
X132318031Y-33000500D01*
X132661968Y-33000499D01*
X132707917Y-32994451D01*
X132808755Y-32947429D01*
X132887429Y-32868755D01*
X132910276Y-32819759D01*
X132952002Y-32775013D01*
X133012063Y-32763338D01*
X133067516Y-32789195D01*
X133089723Y-32819759D01*
X133102897Y-32848010D01*
X133112571Y-32868755D01*
X133191245Y-32947429D01*
X133191246Y-32947429D01*
X133191247Y-32947430D01*
X133292080Y-32994450D01*
X133292081Y-32994450D01*
X133292083Y-32994451D01*
X133338031Y-33000500D01*
X133638614Y-33000499D01*
X133645878Y-33000765D01*
X133676493Y-33003019D01*
X133872548Y-32978807D01*
X133932616Y-32990440D01*
X133956008Y-33008406D01*
X134173653Y-33234529D01*
X134175130Y-33236045D01*
X134175259Y-33236176D01*
X134175261Y-33236177D01*
X134175262Y-33236179D01*
X134178927Y-33238657D01*
X134198287Y-33255832D01*
X134208644Y-33267784D01*
X134318833Y-33338598D01*
X134444509Y-33375500D01*
X134444510Y-33375500D01*
X134575490Y-33375500D01*
X134575491Y-33375500D01*
X134701167Y-33338598D01*
X134811356Y-33267784D01*
X134897131Y-33168794D01*
X134951543Y-33049649D01*
X134960350Y-32988396D01*
X134970184Y-32920002D01*
X134970184Y-32919997D01*
X134951543Y-32790351D01*
X134941298Y-32767917D01*
X134897131Y-32671206D01*
X134811356Y-32572216D01*
X134754175Y-32535468D01*
X134701171Y-32501404D01*
X134701168Y-32501403D01*
X134701167Y-32501402D01*
X134638329Y-32482951D01*
X134575492Y-32464500D01*
X134575491Y-32464500D01*
X134531591Y-32464500D01*
X134513185Y-32462774D01*
X134496502Y-32459617D01*
X134496501Y-32459617D01*
X134484663Y-32459727D01*
X134180530Y-32462564D01*
X134122166Y-32444200D01*
X134102447Y-32425595D01*
X134100814Y-32423564D01*
X134058982Y-32371526D01*
X134037261Y-32314327D01*
X134053308Y-32255284D01*
X134100996Y-32216949D01*
X134136143Y-32210500D01*
X136370500Y-32210500D01*
X136428691Y-32229407D01*
X136464655Y-32278907D01*
X136469500Y-32309500D01*
X136469500Y-32355002D01*
X136475730Y-32423562D01*
X136524894Y-32581337D01*
X136610384Y-32722756D01*
X136610385Y-32722757D01*
X136610387Y-32722760D01*
X136727240Y-32839613D01*
X136868663Y-32925106D01*
X137026436Y-32974269D01*
X137095002Y-32980500D01*
X137095007Y-32980500D01*
X137704993Y-32980500D01*
X137704998Y-32980500D01*
X137773564Y-32974269D01*
X137859695Y-32947430D01*
X137916149Y-32929839D01*
X137977329Y-32930578D01*
X138016248Y-32955002D01*
X138024258Y-32963162D01*
X138024264Y-32963167D01*
X138024266Y-32963169D01*
X138130216Y-33049679D01*
X138130218Y-33049680D01*
X138182328Y-33083424D01*
X138182326Y-33083425D01*
X138182341Y-33083432D01*
X138583133Y-33343075D01*
X138590049Y-33347989D01*
X138682374Y-33419738D01*
X138694823Y-33431252D01*
X138770667Y-33514540D01*
X138780969Y-33528010D01*
X138792819Y-33546614D01*
X138808134Y-33605852D01*
X138800573Y-33638189D01*
X138723211Y-33822082D01*
X138723206Y-33822096D01*
X138719384Y-33837833D01*
X138712909Y-33856297D01*
X138705548Y-33872084D01*
X138699500Y-33918027D01*
X138699500Y-34261964D01*
X138699501Y-34261975D01*
X138705548Y-34307916D01*
X138752569Y-34408752D01*
X138752570Y-34408753D01*
X138752571Y-34408755D01*
X138831245Y-34487429D01*
X138831246Y-34487429D01*
X138831247Y-34487430D01*
X138878046Y-34509253D01*
X138922794Y-34550981D01*
X138934468Y-34611042D01*
X138908610Y-34666495D01*
X138868672Y-34692502D01*
X138861333Y-34695049D01*
X138861331Y-34695050D01*
X138850497Y-34701404D01*
X138836553Y-34709582D01*
X138836278Y-34709743D01*
X138828096Y-34714041D01*
X138826818Y-34714638D01*
X138766094Y-34722136D01*
X138745756Y-34715867D01*
X138727771Y-34708121D01*
X138709365Y-34700193D01*
X138709363Y-34700192D01*
X138709362Y-34700192D01*
X138705333Y-34699354D01*
X138697601Y-34697418D01*
X138585494Y-34664500D01*
X138585491Y-34664500D01*
X138454509Y-34664500D01*
X138454507Y-34664500D01*
X138328833Y-34701402D01*
X138328828Y-34701404D01*
X138218648Y-34772213D01*
X138218643Y-34772217D01*
X138132869Y-34871205D01*
X138078456Y-34990351D01*
X138059816Y-35119997D01*
X138059816Y-35120002D01*
X138078456Y-35249648D01*
X138103384Y-35304231D01*
X138132869Y-35368794D01*
X138218644Y-35467784D01*
X138280333Y-35507429D01*
X138327211Y-35537556D01*
X138328833Y-35538598D01*
X138454509Y-35575500D01*
X138454510Y-35575500D01*
X138585490Y-35575500D01*
X138585491Y-35575500D01*
X138697626Y-35542573D01*
X138704836Y-35540748D01*
X138709479Y-35539758D01*
X138764394Y-35516104D01*
X138825314Y-35510450D01*
X138849903Y-35519549D01*
X138868487Y-35529396D01*
X138904105Y-35542577D01*
X138912492Y-35545681D01*
X138919952Y-35548794D01*
X138932083Y-35554451D01*
X138978031Y-35560500D01*
X139265680Y-35560499D01*
X139323869Y-35579406D01*
X139359833Y-35628906D01*
X139359834Y-35690091D01*
X139355733Y-35700625D01*
X139328455Y-35760353D01*
X139309816Y-35889997D01*
X139309816Y-35890002D01*
X139328456Y-36019648D01*
X139357499Y-36083242D01*
X139382869Y-36138794D01*
X139456664Y-36223959D01*
X139480481Y-36280314D01*
X139466623Y-36339910D01*
X139435369Y-36372070D01*
X139405115Y-36391513D01*
X139405111Y-36391517D01*
X139319337Y-36490505D01*
X139264924Y-36609651D01*
X139246284Y-36739297D01*
X139246284Y-36739302D01*
X139264923Y-36868943D01*
X139264925Y-36868949D01*
X139269794Y-36879611D01*
X139276403Y-36904074D01*
X139277078Y-36903940D01*
X139278030Y-36908701D01*
X139278031Y-36908705D01*
X139402252Y-37316549D01*
X139402705Y-37318037D01*
X139407000Y-37346882D01*
X139407000Y-38061431D01*
X139407001Y-38061438D01*
X139421098Y-38132313D01*
X139421099Y-38132315D01*
X139464845Y-38197784D01*
X139474807Y-38212693D01*
X139555186Y-38266401D01*
X139626065Y-38280500D01*
X139798934Y-38280499D01*
X139869814Y-38266401D01*
X139950193Y-38212693D01*
X140003901Y-38132314D01*
X140018000Y-38061435D01*
X140018000Y-37666419D01*
X140018000Y-37344854D01*
X140021602Y-37318393D01*
X140076354Y-37120999D01*
X140086578Y-37084135D01*
X140120350Y-37033117D01*
X140177662Y-37011692D01*
X140236621Y-37028046D01*
X140261507Y-37051642D01*
X140387531Y-37221645D01*
X140406995Y-37279651D01*
X140407000Y-37280601D01*
X140407000Y-38061431D01*
X140407001Y-38061438D01*
X140421098Y-38132313D01*
X140421099Y-38132315D01*
X140464845Y-38197784D01*
X140474807Y-38212693D01*
X140555186Y-38266401D01*
X140626065Y-38280500D01*
X140798934Y-38280499D01*
X140869814Y-38266401D01*
X140907498Y-38241220D01*
X140966386Y-38224612D01*
X141017499Y-38241219D01*
X141055186Y-38266401D01*
X141126065Y-38280500D01*
X141298934Y-38280499D01*
X141369814Y-38266401D01*
X141407498Y-38241220D01*
X141466386Y-38224612D01*
X141517499Y-38241219D01*
X141555186Y-38266401D01*
X141626065Y-38280500D01*
X141798934Y-38280499D01*
X141869814Y-38266401D01*
X141907498Y-38241220D01*
X141966386Y-38224612D01*
X142017499Y-38241219D01*
X142055186Y-38266401D01*
X142126065Y-38280500D01*
X142298934Y-38280499D01*
X142369814Y-38266401D01*
X142407498Y-38241220D01*
X142466386Y-38224612D01*
X142517499Y-38241219D01*
X142555186Y-38266401D01*
X142626065Y-38280500D01*
X142682999Y-38280499D01*
X142741189Y-38299405D01*
X142777154Y-38348905D01*
X142782000Y-38379497D01*
X142782000Y-38436430D01*
X142782001Y-38436438D01*
X142796098Y-38507313D01*
X142796099Y-38507314D01*
X142821279Y-38544999D01*
X142837887Y-38603887D01*
X142821280Y-38655000D01*
X142796099Y-38692686D01*
X142782000Y-38763565D01*
X142782000Y-38936431D01*
X142782001Y-38936438D01*
X142796098Y-39007313D01*
X142796099Y-39007314D01*
X142821279Y-39044999D01*
X142837887Y-39103887D01*
X142821280Y-39155000D01*
X142796099Y-39192686D01*
X142782000Y-39263565D01*
X142782000Y-39436431D01*
X142782001Y-39436438D01*
X142796098Y-39507313D01*
X142796099Y-39507314D01*
X142821279Y-39544999D01*
X142837887Y-39603887D01*
X142821280Y-39655000D01*
X142796099Y-39692686D01*
X142782000Y-39763565D01*
X142782000Y-39936431D01*
X142782001Y-39936438D01*
X142796098Y-40007313D01*
X142796099Y-40007314D01*
X142821279Y-40044999D01*
X142837887Y-40103887D01*
X142821280Y-40155000D01*
X142796099Y-40192686D01*
X142782000Y-40263565D01*
X142782000Y-40436431D01*
X142782001Y-40436438D01*
X142796098Y-40507313D01*
X142796099Y-40507314D01*
X142821279Y-40544999D01*
X142837887Y-40603887D01*
X142821280Y-40655000D01*
X142796099Y-40692686D01*
X142782000Y-40763565D01*
X142782000Y-40936431D01*
X142782001Y-40936438D01*
X142796098Y-41007313D01*
X142796099Y-41007314D01*
X142821279Y-41044999D01*
X142837887Y-41103887D01*
X142821280Y-41155000D01*
X142796099Y-41192686D01*
X142782000Y-41263565D01*
X142782000Y-41436431D01*
X142782001Y-41436438D01*
X142796098Y-41507313D01*
X142796099Y-41507314D01*
X142821279Y-41544999D01*
X142837887Y-41603887D01*
X142821280Y-41655000D01*
X142796099Y-41692686D01*
X142782000Y-41763565D01*
X142782000Y-41936431D01*
X142782001Y-41936438D01*
X142796098Y-42007313D01*
X142796099Y-42007315D01*
X142840010Y-42073031D01*
X142849807Y-42087693D01*
X142867479Y-42099501D01*
X142905284Y-42124762D01*
X142943163Y-42172812D01*
X142948274Y-42221165D01*
X142939816Y-42279995D01*
X142939816Y-42280002D01*
X142958456Y-42409648D01*
X143012869Y-42528794D01*
X143098644Y-42627784D01*
X143208833Y-42698598D01*
X143208834Y-42698598D01*
X143209632Y-42699111D01*
X143212998Y-42700803D01*
X143591383Y-42908973D01*
X143613667Y-42925709D01*
X143813741Y-43125783D01*
X143830845Y-43148743D01*
X143859857Y-43202462D01*
X144046098Y-43547311D01*
X144047608Y-43550106D01*
X144059500Y-43597150D01*
X144059500Y-43607554D01*
X144062862Y-43633094D01*
X144065645Y-43654232D01*
X144065645Y-43654233D01*
X144113410Y-43756664D01*
X144113411Y-43756665D01*
X144113412Y-43756667D01*
X144193333Y-43836588D01*
X144193334Y-43836588D01*
X144193335Y-43836589D01*
X144295766Y-43884354D01*
X144295767Y-43884354D01*
X144295769Y-43884355D01*
X144342446Y-43890500D01*
X144342447Y-43890500D01*
X144697552Y-43890500D01*
X144697554Y-43890500D01*
X144744231Y-43884355D01*
X144846667Y-43836588D01*
X144926588Y-43756667D01*
X144974355Y-43654231D01*
X144980500Y-43607554D01*
X144980500Y-43192446D01*
X144974355Y-43145769D01*
X144974046Y-43145107D01*
X144926589Y-43043335D01*
X144926588Y-43043334D01*
X144926588Y-43043333D01*
X144846667Y-42963412D01*
X144846665Y-42963411D01*
X144846664Y-42963410D01*
X144744233Y-42915645D01*
X144713113Y-42911548D01*
X144697554Y-42909500D01*
X144697553Y-42909500D01*
X144684058Y-42909500D01*
X144639138Y-42898722D01*
X144269342Y-42710434D01*
X144244258Y-42692216D01*
X144045707Y-42493665D01*
X144028974Y-42471385D01*
X143897225Y-42231909D01*
X143885743Y-42171814D01*
X143911777Y-42116444D01*
X143928962Y-42101878D01*
X143950193Y-42087693D01*
X144003901Y-42007314D01*
X144018000Y-41936435D01*
X144017999Y-41805331D01*
X144036906Y-41747141D01*
X144086406Y-41711177D01*
X144147591Y-41711176D01*
X144148843Y-41711593D01*
X144170653Y-41719010D01*
X144193815Y-41726888D01*
X144204472Y-41731217D01*
X144227868Y-41742351D01*
X144261685Y-41758443D01*
X144301997Y-41793647D01*
X144339571Y-41851093D01*
X144395391Y-41936435D01*
X144403351Y-41948604D01*
X144419500Y-42002795D01*
X144419500Y-42317772D01*
X144419501Y-42317782D01*
X144429972Y-42370426D01*
X144429973Y-42370429D01*
X144469864Y-42430129D01*
X144469867Y-42430133D01*
X144529572Y-42470027D01*
X144582223Y-42480500D01*
X145017776Y-42480499D01*
X145017780Y-42480498D01*
X145017782Y-42480498D01*
X145035000Y-42477073D01*
X145070428Y-42470027D01*
X145130133Y-42430133D01*
X145170027Y-42370428D01*
X145180500Y-42317777D01*
X145180499Y-41282224D01*
X145178543Y-41272389D01*
X145185735Y-41211629D01*
X145227268Y-41166700D01*
X145278850Y-41154129D01*
X145878455Y-41173597D01*
X145886671Y-41174208D01*
X146054349Y-41193755D01*
X146070529Y-41197028D01*
X146228639Y-41243034D01*
X146244051Y-41248954D01*
X146392297Y-41320613D01*
X146406510Y-41329014D01*
X146540767Y-41424331D01*
X146553392Y-41434985D01*
X146645377Y-41526802D01*
X146666720Y-41558554D01*
X146810270Y-41900593D01*
X146811786Y-41904204D01*
X146819500Y-41942516D01*
X146819500Y-42317772D01*
X146819501Y-42317782D01*
X146829972Y-42370426D01*
X146829973Y-42370429D01*
X146869864Y-42430129D01*
X146869867Y-42430133D01*
X146929572Y-42470027D01*
X146982223Y-42480500D01*
X147417776Y-42480499D01*
X147417780Y-42480498D01*
X147417782Y-42480498D01*
X147435000Y-42477073D01*
X147470428Y-42470027D01*
X147530133Y-42430133D01*
X147570027Y-42370428D01*
X147580500Y-42317777D01*
X147580499Y-41282224D01*
X147580147Y-41280456D01*
X147570027Y-41229573D01*
X147570026Y-41229570D01*
X147530135Y-41169870D01*
X147530133Y-41169867D01*
X147470428Y-41129973D01*
X147470425Y-41129972D01*
X147470424Y-41129972D01*
X147417786Y-41119501D01*
X147417778Y-41119500D01*
X147417777Y-41119500D01*
X147417776Y-41119500D01*
X146982214Y-41119500D01*
X146979419Y-41119776D01*
X146978166Y-41119500D01*
X146977361Y-41119501D01*
X146977361Y-41119324D01*
X146919657Y-41106657D01*
X146903800Y-41095107D01*
X146812263Y-41013389D01*
X146630033Y-40891501D01*
X146432648Y-40796088D01*
X146432645Y-40796087D01*
X146432641Y-40796085D01*
X146223936Y-40728998D01*
X146223929Y-40728996D01*
X146030833Y-40695501D01*
X145976730Y-40666927D01*
X145949755Y-40612008D01*
X145960212Y-40551723D01*
X146004107Y-40509098D01*
X146017150Y-40503807D01*
X146022929Y-40501930D01*
X146140384Y-40442085D01*
X146156585Y-40435562D01*
X146582110Y-40306621D01*
X146588275Y-40304753D01*
X146616984Y-40300499D01*
X146681965Y-40300499D01*
X146681968Y-40300499D01*
X146727917Y-40294451D01*
X146727918Y-40294451D01*
X146828753Y-40247430D01*
X146828753Y-40247429D01*
X146828755Y-40247429D01*
X146837325Y-40238857D01*
X146864540Y-40219584D01*
X146965742Y-40171082D01*
X147026386Y-40162984D01*
X147049842Y-40170393D01*
X147183998Y-40232010D01*
X147186097Y-40233214D01*
X147295766Y-40284354D01*
X147295767Y-40284354D01*
X147295769Y-40284355D01*
X147342446Y-40290500D01*
X147342447Y-40290500D01*
X147697552Y-40290500D01*
X147697554Y-40290500D01*
X147744231Y-40284355D01*
X147846667Y-40236588D01*
X147926588Y-40156667D01*
X147974355Y-40054231D01*
X147980500Y-40007554D01*
X147980500Y-39592446D01*
X147974355Y-39545769D01*
X147970012Y-39536456D01*
X147926589Y-39443335D01*
X147926588Y-39443334D01*
X147926588Y-39443333D01*
X147846667Y-39363412D01*
X147846665Y-39363411D01*
X147846664Y-39363410D01*
X147744233Y-39315645D01*
X147713113Y-39311548D01*
X147697554Y-39309500D01*
X147342446Y-39309500D01*
X147322841Y-39312081D01*
X147295769Y-39315645D01*
X147186104Y-39366782D01*
X147184021Y-39367976D01*
X147049847Y-39429601D01*
X146989076Y-39436706D01*
X146965740Y-39428913D01*
X146864540Y-39380412D01*
X146837326Y-39361141D01*
X146828756Y-39352571D01*
X146828752Y-39352569D01*
X146727919Y-39305549D01*
X146704943Y-39302524D01*
X146681969Y-39299500D01*
X146681967Y-39299500D01*
X146338035Y-39299500D01*
X146338032Y-39299501D01*
X146330830Y-39300449D01*
X146270670Y-39289295D01*
X146228556Y-39244910D01*
X146220573Y-39184248D01*
X146249771Y-39130479D01*
X146251039Y-39129297D01*
X146283019Y-39100000D01*
X146494234Y-38906500D01*
X146549913Y-38881134D01*
X146561109Y-38880499D01*
X146667772Y-38880499D01*
X146667776Y-38880499D01*
X146667780Y-38880498D01*
X146667782Y-38880498D01*
X146685000Y-38877073D01*
X146720428Y-38870027D01*
X146780133Y-38830133D01*
X146820027Y-38770428D01*
X146830500Y-38717777D01*
X146830499Y-37232224D01*
X146830498Y-37232222D01*
X146830498Y-37232216D01*
X146828766Y-37223509D01*
X146826897Y-37206791D01*
X146826874Y-37205916D01*
X146824302Y-37195876D01*
X146820725Y-37183082D01*
X146820027Y-37179571D01*
X146810305Y-37165022D01*
X146803355Y-37152829D01*
X146793353Y-37131971D01*
X146475300Y-36707900D01*
X146455511Y-36650003D01*
X146455500Y-36648500D01*
X146455500Y-34151498D01*
X146474407Y-34093307D01*
X146475299Y-34092100D01*
X146793353Y-33668028D01*
X146814866Y-33631158D01*
X146815176Y-33630448D01*
X146815876Y-33629171D01*
X146816164Y-33628606D01*
X146816181Y-33628614D01*
X146818045Y-33625211D01*
X146820025Y-33620431D01*
X146820025Y-33620430D01*
X146820027Y-33620428D01*
X146820277Y-33619167D01*
X146823577Y-33606814D01*
X146827352Y-33595637D01*
X146827406Y-33591743D01*
X146829299Y-33573811D01*
X146830500Y-33567777D01*
X146830499Y-32309499D01*
X146849406Y-32251309D01*
X146898906Y-32215345D01*
X146929499Y-32210500D01*
X147070500Y-32210500D01*
X147128691Y-32229407D01*
X147164655Y-32278907D01*
X147169500Y-32309500D01*
X147169500Y-33514916D01*
X147169302Y-33521182D01*
X147169010Y-33525776D01*
X147169500Y-33535413D01*
X147169500Y-33567777D01*
X147176426Y-33602598D01*
X147176783Y-33604968D01*
X147177924Y-33610208D01*
X147178287Y-33611953D01*
X147179972Y-33620427D01*
X147179972Y-33620428D01*
X147191468Y-33637632D01*
X147197584Y-33646785D01*
X147201057Y-33652376D01*
X147216387Y-33678999D01*
X147582505Y-34097420D01*
X147606595Y-34153663D01*
X147607000Y-34162611D01*
X147607000Y-36637387D01*
X147588093Y-36695578D01*
X147582505Y-36702579D01*
X147216386Y-37121001D01*
X147216380Y-37121008D01*
X147188986Y-37162403D01*
X147188985Y-37162405D01*
X147185539Y-37169532D01*
X147180439Y-37178444D01*
X147179973Y-37179570D01*
X147178716Y-37185890D01*
X147174808Y-37199989D01*
X147173037Y-37204927D01*
X147173036Y-37204929D01*
X147173020Y-37206118D01*
X147171128Y-37224037D01*
X147169500Y-37232222D01*
X147169500Y-38717772D01*
X147169501Y-38717782D01*
X147179972Y-38770426D01*
X147179973Y-38770429D01*
X147219864Y-38830129D01*
X147219867Y-38830133D01*
X147279572Y-38870027D01*
X147319599Y-38877988D01*
X147332212Y-38880498D01*
X147332213Y-38880498D01*
X147332223Y-38880500D01*
X148367776Y-38880499D01*
X148367780Y-38880498D01*
X148367782Y-38880498D01*
X148385000Y-38877073D01*
X148420428Y-38870027D01*
X148480133Y-38830133D01*
X148520027Y-38770428D01*
X148530500Y-38717777D01*
X148530499Y-37285080D01*
X148530699Y-37278791D01*
X148530981Y-37274338D01*
X148530983Y-37274333D01*
X148530982Y-37274327D01*
X148530990Y-37274209D01*
X148530499Y-37264552D01*
X148530499Y-37232226D01*
X148530499Y-37232224D01*
X148523582Y-37197450D01*
X148523237Y-37195141D01*
X148522085Y-37189843D01*
X148521724Y-37188107D01*
X148520027Y-37179572D01*
X148508555Y-37162403D01*
X148502406Y-37153201D01*
X148498947Y-37147632D01*
X148483611Y-37120999D01*
X148483608Y-37120996D01*
X148483609Y-37120996D01*
X148117495Y-36702580D01*
X148093405Y-36646336D01*
X148093000Y-36637388D01*
X148093000Y-34162608D01*
X148111907Y-34104417D01*
X148117493Y-34097419D01*
X148483611Y-33678998D01*
X148508881Y-33640823D01*
X148510984Y-33637646D01*
X148510989Y-33637638D01*
X148510988Y-33637638D01*
X148510993Y-33637632D01*
X148513694Y-33632049D01*
X148513697Y-33632038D01*
X148514455Y-33630473D01*
X148519560Y-33621553D01*
X148520025Y-33620431D01*
X148520025Y-33620430D01*
X148520027Y-33620428D01*
X148521286Y-33614093D01*
X148525202Y-33599975D01*
X148526962Y-33595071D01*
X148526978Y-33593901D01*
X148528871Y-33575964D01*
X148530500Y-33567777D01*
X148530499Y-32309499D01*
X148549406Y-32251309D01*
X148598906Y-32215345D01*
X148629499Y-32210500D01*
X148690500Y-32210500D01*
X148748691Y-32229407D01*
X148784655Y-32278907D01*
X148789500Y-32309500D01*
X148789500Y-40770500D01*
X148770593Y-40828691D01*
X148721093Y-40864655D01*
X148690500Y-40869500D01*
X148644997Y-40869500D01*
X148576437Y-40875730D01*
X148418662Y-40924894D01*
X148277243Y-41010384D01*
X148160384Y-41127243D01*
X148074894Y-41268662D01*
X148025730Y-41426437D01*
X148019500Y-41494997D01*
X148019500Y-42105002D01*
X148025730Y-42173562D01*
X148074894Y-42331337D01*
X148160384Y-42472756D01*
X148160385Y-42472757D01*
X148160387Y-42472760D01*
X148277240Y-42589613D01*
X148277242Y-42589614D01*
X148277243Y-42589615D01*
X148322552Y-42617005D01*
X148418663Y-42675106D01*
X148576436Y-42724269D01*
X148645002Y-42730500D01*
X148690500Y-42730500D01*
X148748691Y-42749407D01*
X148784655Y-42798907D01*
X148789500Y-42829500D01*
X148789500Y-42966616D01*
X148770593Y-43024807D01*
X148721093Y-43060771D01*
X148677578Y-43064769D01*
X148637555Y-43059500D01*
X148637554Y-43059500D01*
X148222446Y-43059500D01*
X148222442Y-43059500D01*
X148175771Y-43065644D01*
X148161650Y-43072228D01*
X148137443Y-43079919D01*
X148130574Y-43081161D01*
X148060972Y-43108579D01*
X147999900Y-43112315D01*
X147964297Y-43094915D01*
X147963693Y-43094450D01*
X147941026Y-43076999D01*
X147911693Y-43040391D01*
X147907429Y-43031245D01*
X147828755Y-42952571D01*
X147828753Y-42952570D01*
X147828752Y-42952569D01*
X147727919Y-42905549D01*
X147699751Y-42901841D01*
X147681969Y-42899500D01*
X147681967Y-42899500D01*
X147338035Y-42899500D01*
X147338024Y-42899501D01*
X147292083Y-42905548D01*
X147191247Y-42952569D01*
X147112569Y-43031247D01*
X147065549Y-43132080D01*
X147065549Y-43132081D01*
X147059500Y-43178032D01*
X147059500Y-43621964D01*
X147059501Y-43621975D01*
X147065548Y-43667915D01*
X147065549Y-43667919D01*
X147071004Y-43679618D01*
X147078883Y-43704893D01*
X147079779Y-43710175D01*
X147090371Y-43737957D01*
X147093434Y-43799066D01*
X147092945Y-43800812D01*
X147080691Y-43843043D01*
X147079871Y-43847121D01*
X147079342Y-43847014D01*
X147072569Y-43871345D01*
X147068456Y-43880351D01*
X147049816Y-44009997D01*
X147049816Y-44010002D01*
X147068455Y-44139643D01*
X147068456Y-44139646D01*
X147068456Y-44139647D01*
X147068457Y-44139649D01*
X147086552Y-44179271D01*
X147088623Y-44183806D01*
X147095597Y-44244593D01*
X147091069Y-44260212D01*
X147088887Y-44265933D01*
X147050484Y-44313565D01*
X146991418Y-44329528D01*
X146934250Y-44307724D01*
X146906664Y-44272495D01*
X146887429Y-44231245D01*
X146808755Y-44152571D01*
X146808753Y-44152570D01*
X146808752Y-44152569D01*
X146707919Y-44105549D01*
X146684943Y-44102524D01*
X146661969Y-44099500D01*
X146661967Y-44099500D01*
X146318035Y-44099500D01*
X146318024Y-44099501D01*
X146272085Y-44105548D01*
X146178739Y-44149076D01*
X146118010Y-44156532D01*
X146109009Y-44154341D01*
X146075495Y-44144500D01*
X146075491Y-44144500D01*
X145944509Y-44144500D01*
X145944505Y-44144500D01*
X145898718Y-44157945D01*
X145837558Y-44156198D01*
X145828988Y-44152679D01*
X145727919Y-44105549D01*
X145704943Y-44102524D01*
X145681969Y-44099500D01*
X145681967Y-44099500D01*
X145338035Y-44099500D01*
X145338024Y-44099501D01*
X145292083Y-44105548D01*
X145191247Y-44152569D01*
X145112569Y-44231247D01*
X145089724Y-44280239D01*
X145047995Y-44324987D01*
X144987934Y-44336661D01*
X144932481Y-44310802D01*
X144910276Y-44280239D01*
X144887430Y-44231247D01*
X144887429Y-44231246D01*
X144887429Y-44231245D01*
X144808755Y-44152571D01*
X144808753Y-44152570D01*
X144808752Y-44152569D01*
X144707919Y-44105549D01*
X144684943Y-44102524D01*
X144661969Y-44099500D01*
X144661967Y-44099500D01*
X144318035Y-44099500D01*
X144318024Y-44099501D01*
X144272083Y-44105548D01*
X144171247Y-44152569D01*
X144092569Y-44231247D01*
X144045549Y-44332080D01*
X144045549Y-44332081D01*
X144039500Y-44378032D01*
X144039500Y-44821964D01*
X144039501Y-44821975D01*
X144045548Y-44867915D01*
X144045549Y-44867919D01*
X144051004Y-44879618D01*
X144058883Y-44904893D01*
X144059779Y-44910174D01*
X144059780Y-44910177D01*
X144059781Y-44910181D01*
X144168741Y-45195948D01*
X144178004Y-45220241D01*
X144184500Y-45255512D01*
X144184500Y-45310345D01*
X144165593Y-45368536D01*
X144116093Y-45404500D01*
X144054907Y-45404500D01*
X144027311Y-45390439D01*
X143880020Y-45283429D01*
X143854551Y-45270452D01*
X143833895Y-45256388D01*
X143830517Y-45253399D01*
X143822337Y-45246161D01*
X143803469Y-45235155D01*
X143656200Y-45149249D01*
X143622705Y-45111713D01*
X143621260Y-45112680D01*
X143575950Y-45044870D01*
X143575948Y-45044867D01*
X143516243Y-45004973D01*
X143516240Y-45004972D01*
X143516239Y-45004972D01*
X143463601Y-44994501D01*
X143463593Y-44994500D01*
X143463592Y-44994500D01*
X143463591Y-44994500D01*
X142815737Y-44994500D01*
X142757546Y-44975593D01*
X142721582Y-44926093D01*
X142721582Y-44864907D01*
X142725679Y-44854384D01*
X142741543Y-44819649D01*
X142760184Y-44690000D01*
X142757496Y-44671311D01*
X142756634Y-44651876D01*
X142756716Y-44650370D01*
X142709545Y-44321257D01*
X142720006Y-44260975D01*
X142721040Y-44259069D01*
X142857187Y-44015155D01*
X142875718Y-43967492D01*
X142875719Y-43967487D01*
X142876524Y-43965417D01*
X142879074Y-43959446D01*
X142879358Y-43958837D01*
X142884451Y-43947917D01*
X142890500Y-43901969D01*
X142890499Y-43458032D01*
X142884451Y-43412083D01*
X142853878Y-43346519D01*
X142837430Y-43311247D01*
X142837429Y-43311246D01*
X142837429Y-43311245D01*
X142758755Y-43232571D01*
X142758753Y-43232570D01*
X142758752Y-43232569D01*
X142718612Y-43213851D01*
X142698899Y-43201665D01*
X142544583Y-43079162D01*
X142510762Y-43028174D01*
X142509600Y-42979676D01*
X142516381Y-42949855D01*
X142516381Y-42949845D01*
X142516420Y-42949572D01*
X142517784Y-42938629D01*
X142517999Y-42936438D01*
X142518000Y-42936435D01*
X142517999Y-42138566D01*
X142503901Y-42067686D01*
X142490261Y-42047273D01*
X142450195Y-41987310D01*
X142450193Y-41987307D01*
X142369814Y-41933599D01*
X142298935Y-41919500D01*
X142298934Y-41919500D01*
X142126068Y-41919500D01*
X142126061Y-41919501D01*
X142055186Y-41933598D01*
X142055182Y-41933600D01*
X142017499Y-41958779D01*
X141958611Y-41975387D01*
X141907498Y-41958779D01*
X141869814Y-41933599D01*
X141798935Y-41919500D01*
X141798934Y-41919500D01*
X141626068Y-41919500D01*
X141626061Y-41919501D01*
X141555186Y-41933598D01*
X141555182Y-41933600D01*
X141517499Y-41958779D01*
X141458611Y-41975387D01*
X141407498Y-41958779D01*
X141369814Y-41933599D01*
X141298935Y-41919500D01*
X141298934Y-41919500D01*
X141126068Y-41919500D01*
X141126061Y-41919501D01*
X141055186Y-41933598D01*
X141055182Y-41933600D01*
X141017499Y-41958779D01*
X140958611Y-41975387D01*
X140907498Y-41958779D01*
X140869814Y-41933599D01*
X140798935Y-41919500D01*
X140798934Y-41919500D01*
X140626068Y-41919500D01*
X140626061Y-41919501D01*
X140555186Y-41933598D01*
X140555182Y-41933600D01*
X140517499Y-41958779D01*
X140458611Y-41975387D01*
X140407498Y-41958779D01*
X140369814Y-41933599D01*
X140298935Y-41919500D01*
X140298934Y-41919500D01*
X140126068Y-41919500D01*
X140126061Y-41919501D01*
X140055186Y-41933598D01*
X140055182Y-41933600D01*
X140017499Y-41958779D01*
X139958611Y-41975387D01*
X139907498Y-41958779D01*
X139869814Y-41933599D01*
X139798935Y-41919500D01*
X139798934Y-41919500D01*
X139626068Y-41919500D01*
X139626061Y-41919501D01*
X139555186Y-41933598D01*
X139555182Y-41933600D01*
X139517499Y-41958779D01*
X139458611Y-41975387D01*
X139407498Y-41958779D01*
X139369814Y-41933599D01*
X139298935Y-41919500D01*
X139241999Y-41919500D01*
X139183808Y-41900593D01*
X139147844Y-41851093D01*
X139142999Y-41820500D01*
X139142999Y-41763568D01*
X139142998Y-41763561D01*
X139128901Y-41692686D01*
X139128900Y-41692684D01*
X139103721Y-41655001D01*
X139087112Y-41596112D01*
X139103720Y-41544999D01*
X139128901Y-41507314D01*
X139143000Y-41436435D01*
X139142999Y-41263566D01*
X139128901Y-41192686D01*
X139128542Y-41192148D01*
X139103721Y-41155001D01*
X139087112Y-41096112D01*
X139103720Y-41044999D01*
X139128901Y-41007314D01*
X139143000Y-40936435D01*
X139142999Y-40763566D01*
X139128901Y-40692686D01*
X139128900Y-40692684D01*
X139103721Y-40655001D01*
X139087112Y-40596112D01*
X139103720Y-40544999D01*
X139128901Y-40507314D01*
X139143000Y-40436435D01*
X139142999Y-40263566D01*
X139128901Y-40192686D01*
X139128900Y-40192684D01*
X139103721Y-40155001D01*
X139087112Y-40096112D01*
X139103720Y-40044999D01*
X139128901Y-40007314D01*
X139143000Y-39936435D01*
X139142999Y-39763566D01*
X139128901Y-39692686D01*
X139125626Y-39687784D01*
X139103721Y-39655001D01*
X139087112Y-39596112D01*
X139103720Y-39544999D01*
X139128901Y-39507314D01*
X139143000Y-39436435D01*
X139142999Y-39263566D01*
X139128901Y-39192686D01*
X139124266Y-39185749D01*
X139103721Y-39155001D01*
X139087112Y-39096112D01*
X139103720Y-39044999D01*
X139128901Y-39007314D01*
X139143000Y-38936435D01*
X139142999Y-38763566D01*
X139128901Y-38692686D01*
X139128900Y-38692684D01*
X139103721Y-38655001D01*
X139087112Y-38596112D01*
X139103720Y-38544999D01*
X139128901Y-38507314D01*
X139143000Y-38436435D01*
X139142999Y-38263566D01*
X139128901Y-38192686D01*
X139075193Y-38112307D01*
X138994814Y-38058599D01*
X138923935Y-38044500D01*
X138397614Y-38044500D01*
X138365900Y-38039283D01*
X137964995Y-37903709D01*
X137951473Y-37901703D01*
X137938115Y-37898765D01*
X137855496Y-37874507D01*
X137855492Y-37874506D01*
X137855491Y-37874506D01*
X137758768Y-37874506D01*
X137700577Y-37855599D01*
X137688764Y-37845510D01*
X137686588Y-37843334D01*
X137686588Y-37843333D01*
X137606667Y-37763412D01*
X137606665Y-37763411D01*
X137606664Y-37763410D01*
X137504233Y-37715645D01*
X137473113Y-37711548D01*
X137457554Y-37709500D01*
X137457553Y-37709500D01*
X137444058Y-37709500D01*
X137399138Y-37698722D01*
X137029342Y-37510434D01*
X137004258Y-37492216D01*
X136906542Y-37394500D01*
X136906541Y-37394498D01*
X136885239Y-37373195D01*
X136857462Y-37318678D01*
X136867035Y-37258246D01*
X136910301Y-37214982D01*
X136913379Y-37213480D01*
X136942491Y-37199906D01*
X137024906Y-37117491D01*
X137074163Y-37011859D01*
X137080500Y-36963724D01*
X137080500Y-36892000D01*
X137099407Y-36833809D01*
X137148907Y-36797845D01*
X137179500Y-36793000D01*
X137275490Y-36793000D01*
X137275491Y-36793000D01*
X137275492Y-36792999D01*
X137275496Y-36792999D01*
X137322946Y-36779065D01*
X137350082Y-36771097D01*
X137369456Y-36767454D01*
X137376963Y-36766807D01*
X137418789Y-36754669D01*
X137479943Y-36756609D01*
X137498271Y-36765434D01*
X137550566Y-36797624D01*
X137568668Y-36811924D01*
X137593332Y-36836587D01*
X137593335Y-36836589D01*
X137695766Y-36884354D01*
X137695767Y-36884354D01*
X137695769Y-36884355D01*
X137742446Y-36890500D01*
X137742447Y-36890500D01*
X138097552Y-36890500D01*
X138097554Y-36890500D01*
X138144231Y-36884355D01*
X138246667Y-36836588D01*
X138326588Y-36756667D01*
X138374355Y-36654231D01*
X138380500Y-36607554D01*
X138380500Y-36192446D01*
X138374355Y-36145769D01*
X138371102Y-36138794D01*
X138326589Y-36043335D01*
X138326588Y-36043334D01*
X138326588Y-36043333D01*
X138246667Y-35963412D01*
X138246665Y-35963411D01*
X138246664Y-35963410D01*
X138144233Y-35915645D01*
X138107444Y-35910802D01*
X138097554Y-35909500D01*
X137742446Y-35909500D01*
X137742442Y-35909500D01*
X137695769Y-35915644D01*
X137691974Y-35917414D01*
X137668414Y-35923891D01*
X137668607Y-35924853D01*
X137663841Y-35925809D01*
X137581796Y-35950850D01*
X137525307Y-35951240D01*
X137376958Y-35908191D01*
X137365230Y-35906843D01*
X137348649Y-35903481D01*
X137302743Y-35890002D01*
X137275492Y-35882000D01*
X137275491Y-35882000D01*
X137179500Y-35882000D01*
X137121309Y-35863093D01*
X137085345Y-35813593D01*
X137080500Y-35783000D01*
X137080500Y-35711277D01*
X137080496Y-35711246D01*
X137074163Y-35663141D01*
X137024906Y-35557509D01*
X136942491Y-35475094D01*
X136836859Y-35425837D01*
X136788724Y-35419500D01*
X136411276Y-35419500D01*
X136363141Y-35425837D01*
X136257509Y-35475094D01*
X136175094Y-35557509D01*
X136144223Y-35623710D01*
X136102496Y-35668457D01*
X136042435Y-35680132D01*
X135986982Y-35654274D01*
X135957319Y-35600760D01*
X135955500Y-35581870D01*
X135955500Y-35568900D01*
X135963115Y-35530823D01*
X135963710Y-35529396D01*
X136107870Y-35183410D01*
X136108945Y-35180772D01*
X136109073Y-35180451D01*
X136110031Y-35175062D01*
X136117777Y-35150552D01*
X136124163Y-35136859D01*
X136130500Y-35088724D01*
X136130500Y-33836276D01*
X136124163Y-33788141D01*
X136074906Y-33682509D01*
X135992491Y-33600094D01*
X135886859Y-33550837D01*
X135838724Y-33544500D01*
X135461276Y-33544500D01*
X135413141Y-33550837D01*
X135307509Y-33600094D01*
X135225094Y-33682509D01*
X135175837Y-33788141D01*
X135169500Y-33836277D01*
X135169500Y-33910242D01*
X135150593Y-33968433D01*
X135101093Y-34004397D01*
X135042911Y-34005320D01*
X135026963Y-34000692D01*
X135026960Y-34000691D01*
X135015230Y-33999343D01*
X134998649Y-33995981D01*
X134957930Y-33984025D01*
X134925492Y-33974500D01*
X134925491Y-33974500D01*
X134794509Y-33974500D01*
X134794507Y-33974500D01*
X134794503Y-33974501D01*
X134731031Y-33993137D01*
X134705702Y-33997114D01*
X134704336Y-33997149D01*
X134704329Y-33997149D01*
X134704328Y-33997150D01*
X134704326Y-33997150D01*
X134704322Y-33997151D01*
X134638228Y-34012073D01*
X134577302Y-34006445D01*
X134567848Y-34001766D01*
X134272686Y-33835546D01*
X134246473Y-33820784D01*
X134244183Y-33819314D01*
X134242624Y-33818519D01*
X134239022Y-33816588D01*
X134198029Y-33793503D01*
X134198023Y-33793501D01*
X134198020Y-33793499D01*
X134188759Y-33790179D01*
X134177229Y-33785199D01*
X134126868Y-33759539D01*
X134031918Y-33744500D01*
X134031916Y-33744500D01*
X133518084Y-33744500D01*
X133518082Y-33744500D01*
X133423129Y-33759539D01*
X133423128Y-33759540D01*
X133308684Y-33817852D01*
X133217852Y-33908684D01*
X133159540Y-34023128D01*
X133159539Y-34023129D01*
X133144500Y-34118082D01*
X133144500Y-34681917D01*
X133159539Y-34776870D01*
X133159540Y-34776871D01*
X133217852Y-34891315D01*
X133217854Y-34891318D01*
X133308682Y-34982146D01*
X133308684Y-34982147D01*
X133423128Y-35040459D01*
X133423129Y-35040460D01*
X133423130Y-35040460D01*
X133423132Y-35040461D01*
X133482343Y-35049839D01*
X133518082Y-35055500D01*
X133518084Y-35055500D01*
X134031918Y-35055500D01*
X134057883Y-35051387D01*
X134126868Y-35040461D01*
X134178591Y-35014105D01*
X134192726Y-35008231D01*
X134198031Y-35006495D01*
X134238977Y-34983435D01*
X134242668Y-34981459D01*
X134244281Y-34980638D01*
X134246622Y-34979129D01*
X134511629Y-34829891D01*
X134571609Y-34817813D01*
X134593941Y-34823079D01*
X134681062Y-34854662D01*
X134694302Y-34856845D01*
X134706076Y-34859533D01*
X134794509Y-34885500D01*
X134794510Y-34885500D01*
X134925490Y-34885500D01*
X134925491Y-34885500D01*
X134925492Y-34885499D01*
X134925496Y-34885499D01*
X134974174Y-34871205D01*
X135000082Y-34863597D01*
X135019456Y-34859954D01*
X135026963Y-34859307D01*
X135026966Y-34859306D01*
X135026967Y-34859306D01*
X135042908Y-34854680D01*
X135104062Y-34856620D01*
X135152397Y-34894135D01*
X135169500Y-34949757D01*
X135169500Y-35088727D01*
X135175836Y-35136857D01*
X135183024Y-35152273D01*
X135190353Y-35174582D01*
X135192128Y-35183407D01*
X135192130Y-35183413D01*
X135336885Y-35530824D01*
X135344500Y-35568901D01*
X135344500Y-36829557D01*
X135344514Y-36829783D01*
X135344514Y-36836587D01*
X135344514Y-36846335D01*
X135362109Y-36957448D01*
X135364345Y-36971567D01*
X135364346Y-36971571D01*
X135403522Y-37092139D01*
X135403523Y-37092143D01*
X135461085Y-37205099D01*
X135461094Y-37205114D01*
X135535619Y-37307671D01*
X135535622Y-37307674D01*
X135569239Y-37341284D01*
X135580444Y-37352486D01*
X135580450Y-37352497D01*
X135580453Y-37352495D01*
X135592752Y-37364794D01*
X135601110Y-37374297D01*
X135609848Y-37385617D01*
X135609849Y-37385618D01*
X135620281Y-37393575D01*
X135630241Y-37402284D01*
X135639520Y-37411563D01*
X135639522Y-37411564D01*
X135639526Y-37411568D01*
X135651899Y-37418711D01*
X135662440Y-37425733D01*
X135673802Y-37434400D01*
X135673804Y-37434401D01*
X135673806Y-37434402D01*
X135685947Y-37439390D01*
X135697821Y-37445225D01*
X135709182Y-37451785D01*
X135709184Y-37451785D01*
X135709188Y-37451788D01*
X135722997Y-37455488D01*
X135734985Y-37459537D01*
X136079799Y-37601205D01*
X136235505Y-37665177D01*
X136241448Y-37667851D01*
X136314837Y-37703824D01*
X136326127Y-37710314D01*
X136355640Y-37729973D01*
X136391409Y-37753800D01*
X136401764Y-37761730D01*
X136463269Y-37815617D01*
X136468031Y-37820075D01*
X136499898Y-37851941D01*
X136499900Y-37851942D01*
X136573741Y-37925783D01*
X136590845Y-37948743D01*
X136786534Y-38311086D01*
X136807608Y-38350106D01*
X136819500Y-38397150D01*
X136819500Y-38407554D01*
X136825645Y-38454231D01*
X136825645Y-38454232D01*
X136826354Y-38459612D01*
X136815204Y-38519773D01*
X136770822Y-38561891D01*
X136756095Y-38567524D01*
X136746207Y-38570428D01*
X136708832Y-38581402D01*
X136708828Y-38581404D01*
X136598648Y-38652213D01*
X136598646Y-38652214D01*
X136598644Y-38652215D01*
X136598644Y-38652216D01*
X136582466Y-38670887D01*
X136525405Y-38736738D01*
X136473008Y-38768333D01*
X136412047Y-38763097D01*
X136397067Y-38755193D01*
X136391171Y-38751404D01*
X136391168Y-38751403D01*
X136391167Y-38751402D01*
X136307936Y-38726963D01*
X136265492Y-38714500D01*
X136265491Y-38714500D01*
X136134509Y-38714500D01*
X136134507Y-38714500D01*
X136008833Y-38751402D01*
X136008828Y-38751404D01*
X135898648Y-38822213D01*
X135898643Y-38822217D01*
X135812869Y-38921205D01*
X135758456Y-39040351D01*
X135739816Y-39169997D01*
X135739816Y-39170002D01*
X135758456Y-39299648D01*
X135789661Y-39367976D01*
X135812869Y-39418794D01*
X135898644Y-39517784D01*
X135942185Y-39545766D01*
X136007424Y-39587693D01*
X136008833Y-39588598D01*
X136134509Y-39625500D01*
X136182405Y-39625500D01*
X136198679Y-39626847D01*
X136217795Y-39630035D01*
X136403439Y-39624257D01*
X136462188Y-39641345D01*
X136499674Y-39689702D01*
X136501578Y-39750858D01*
X136476523Y-39793210D01*
X136469869Y-39799864D01*
X136429973Y-39859572D01*
X136429972Y-39859575D01*
X136419501Y-39912213D01*
X136419500Y-39912223D01*
X136419500Y-40219558D01*
X136400593Y-40277749D01*
X136353345Y-40312951D01*
X136296152Y-40333064D01*
X136197580Y-40390267D01*
X136197580Y-40390268D01*
X136127046Y-40451322D01*
X136070674Y-40475110D01*
X136047407Y-40469686D01*
X136051077Y-40475179D01*
X136048675Y-40536317D01*
X136033418Y-40563498D01*
X136027244Y-40571296D01*
X136026984Y-40571674D01*
X136019692Y-40580906D01*
X135995895Y-40626959D01*
X135966593Y-40683667D01*
X135965989Y-40684835D01*
X135965415Y-40686800D01*
X135964901Y-40687553D01*
X135964218Y-40689261D01*
X135963839Y-40689109D01*
X135930942Y-40737350D01*
X135873340Y-40757982D01*
X135851079Y-40756124D01*
X135817777Y-40749500D01*
X135817776Y-40749500D01*
X135082227Y-40749500D01*
X135082217Y-40749501D01*
X135029573Y-40759972D01*
X135029570Y-40759973D01*
X134969870Y-40799864D01*
X134969865Y-40799869D01*
X134929972Y-40859572D01*
X134926241Y-40868581D01*
X134923032Y-40867251D01*
X134901524Y-40905649D01*
X134896754Y-40909783D01*
X134870316Y-40931261D01*
X134819947Y-40952685D01*
X134282116Y-41018669D01*
X134278730Y-41019026D01*
X134138546Y-41031349D01*
X134078923Y-41017610D01*
X134038763Y-40971449D01*
X134033405Y-40910499D01*
X134050068Y-40876616D01*
X134049039Y-40875928D01*
X134099870Y-40799869D01*
X134111175Y-40782954D01*
X134152116Y-40684143D01*
X134172993Y-40579244D01*
X134172993Y-40579235D01*
X134173000Y-40579169D01*
X134173000Y-40522027D01*
X134173000Y-40521454D01*
X134173005Y-40482918D01*
X134173004Y-40482915D01*
X134173005Y-40474452D01*
X134173000Y-40474382D01*
X134173000Y-40306621D01*
X134191907Y-40248430D01*
X134241407Y-40212466D01*
X134281989Y-40208127D01*
X134653411Y-40245813D01*
X134655657Y-40246067D01*
X134846831Y-40269954D01*
X134902227Y-40295930D01*
X134922761Y-40332861D01*
X134926242Y-40331420D01*
X134929973Y-40340429D01*
X134963275Y-40390268D01*
X134969867Y-40400133D01*
X135029572Y-40440027D01*
X135082223Y-40450500D01*
X135817776Y-40450499D01*
X135817780Y-40450498D01*
X135817782Y-40450498D01*
X135835000Y-40447073D01*
X135870428Y-40440027D01*
X135900793Y-40419737D01*
X135959679Y-40403129D01*
X135970369Y-40407072D01*
X135965839Y-40353995D01*
X135969749Y-40341826D01*
X135972748Y-40326743D01*
X135980500Y-40287777D01*
X135980499Y-39912224D01*
X135970027Y-39859572D01*
X135930133Y-39799867D01*
X135870428Y-39759973D01*
X135870425Y-39759972D01*
X135870424Y-39759972D01*
X135817786Y-39749501D01*
X135817778Y-39749500D01*
X135817777Y-39749500D01*
X135817776Y-39749500D01*
X135082227Y-39749500D01*
X135082217Y-39749501D01*
X135029574Y-39759972D01*
X135029569Y-39759974D01*
X135009399Y-39773451D01*
X134950510Y-39790058D01*
X134943265Y-39789506D01*
X134302632Y-39716992D01*
X134302626Y-39716991D01*
X134302622Y-39716991D01*
X134274867Y-39714499D01*
X134131458Y-39701627D01*
X134075191Y-39677592D01*
X134043796Y-39625075D01*
X134049267Y-39564135D01*
X134089512Y-39518049D01*
X134136647Y-39504091D01*
X134174808Y-39502680D01*
X134178162Y-39502164D01*
X134181504Y-39501650D01*
X134196555Y-39500499D01*
X134461965Y-39500499D01*
X134461968Y-39500499D01*
X134507917Y-39494451D01*
X134608755Y-39447429D01*
X134687429Y-39368755D01*
X134734451Y-39267917D01*
X134740500Y-39221969D01*
X134740499Y-38778032D01*
X134734451Y-38732083D01*
X134687429Y-38631245D01*
X134608755Y-38552571D01*
X134608753Y-38552570D01*
X134608752Y-38552569D01*
X134507919Y-38505549D01*
X134484943Y-38502524D01*
X134461969Y-38499500D01*
X134461967Y-38499500D01*
X134118035Y-38499500D01*
X134118024Y-38499501D01*
X134072083Y-38505548D01*
X133971247Y-38552569D01*
X133892569Y-38631247D01*
X133864622Y-38691181D01*
X133822894Y-38735929D01*
X133762833Y-38747603D01*
X133707380Y-38721745D01*
X133677800Y-38668653D01*
X133668125Y-38620008D01*
X133672006Y-38619235D01*
X133668916Y-38580148D01*
X133668124Y-38579991D01*
X133668681Y-38577186D01*
X133668661Y-38576922D01*
X133668850Y-38576340D01*
X133670025Y-38570430D01*
X133670027Y-38570428D01*
X133680500Y-38517777D01*
X133680499Y-37882224D01*
X133670027Y-37829572D01*
X133663681Y-37820075D01*
X133630135Y-37769870D01*
X133630133Y-37769867D01*
X133570428Y-37729973D01*
X133570425Y-37729972D01*
X133570424Y-37729972D01*
X133517787Y-37719501D01*
X133517777Y-37719500D01*
X133517776Y-37719500D01*
X132548979Y-37719500D01*
X132490788Y-37700593D01*
X132454824Y-37651093D01*
X132450826Y-37633419D01*
X132450500Y-37630947D01*
X132450500Y-37630943D01*
X132409577Y-37478216D01*
X132330520Y-37341284D01*
X132218716Y-37229480D01*
X132081784Y-37150423D01*
X131929057Y-37109500D01*
X131770943Y-37109500D01*
X131618216Y-37150423D01*
X131481284Y-37229480D01*
X131369480Y-37341284D01*
X131290423Y-37478216D01*
X131249500Y-37630943D01*
X131249500Y-37789057D01*
X131290423Y-37941784D01*
X131369480Y-38078716D01*
X131481284Y-38190520D01*
X131618216Y-38269577D01*
X131690560Y-38288961D01*
X131741873Y-38322284D01*
X131763800Y-38379405D01*
X131747965Y-38438506D01*
X131712656Y-38471327D01*
X131352958Y-38669216D01*
X131349634Y-38670887D01*
X131238648Y-38742213D01*
X131238643Y-38742217D01*
X131152869Y-38841205D01*
X131098456Y-38960351D01*
X131079816Y-39089997D01*
X131079816Y-39090002D01*
X131098455Y-39219646D01*
X131102464Y-39228423D01*
X131108770Y-39252374D01*
X131109801Y-39252182D01*
X131110690Y-39256956D01*
X131181998Y-39502680D01*
X131226200Y-39655000D01*
X131230578Y-39670084D01*
X131234500Y-39697675D01*
X131234500Y-41742351D01*
X131234508Y-41742488D01*
X131234508Y-41798530D01*
X131266649Y-42001483D01*
X131330149Y-42196920D01*
X131330149Y-42196921D01*
X131423438Y-42380016D01*
X131544217Y-42546257D01*
X131544219Y-42546259D01*
X131588430Y-42590472D01*
X131588432Y-42590474D01*
X131606008Y-42608050D01*
X131616870Y-42618912D01*
X131651084Y-42653127D01*
X131651086Y-42653128D01*
X131741585Y-42743627D01*
X131769362Y-42798144D01*
X131759791Y-42858576D01*
X131716526Y-42901841D01*
X131697205Y-42909257D01*
X131618219Y-42930421D01*
X131618218Y-42930421D01*
X131485037Y-43007313D01*
X131481284Y-43009480D01*
X131369480Y-43121284D01*
X131290423Y-43258216D01*
X131249500Y-43410943D01*
X131249500Y-43569057D01*
X131290423Y-43721784D01*
X131369480Y-43858716D01*
X131481284Y-43970520D01*
X131618216Y-44049577D01*
X131770943Y-44090500D01*
X131770945Y-44090500D01*
X131929055Y-44090500D01*
X131929057Y-44090500D01*
X132081784Y-44049577D01*
X132218716Y-43970520D01*
X132330520Y-43858716D01*
X132409577Y-43721784D01*
X132450500Y-43569057D01*
X132450500Y-43569043D01*
X132450825Y-43566581D01*
X132451596Y-43564963D01*
X132452179Y-43562789D01*
X132452582Y-43562896D01*
X132477164Y-43511355D01*
X132530933Y-43482158D01*
X132548968Y-43480499D01*
X133517776Y-43480499D01*
X133517780Y-43480498D01*
X133517782Y-43480498D01*
X133535000Y-43477073D01*
X133570428Y-43470027D01*
X133608086Y-43444863D01*
X133666971Y-43428255D01*
X133724375Y-43449431D01*
X133725851Y-43450618D01*
X133789448Y-43502809D01*
X133793038Y-43505755D01*
X133800238Y-43512280D01*
X133879244Y-43591286D01*
X133907021Y-43645803D01*
X133908122Y-43656464D01*
X133939091Y-44291074D01*
X133939738Y-44299950D01*
X133939845Y-44301048D01*
X133940968Y-44306403D01*
X133940571Y-44306486D01*
X133944500Y-44331065D01*
X133944500Y-44481917D01*
X133959539Y-44576870D01*
X133959540Y-44576871D01*
X134017182Y-44690000D01*
X134017854Y-44691318D01*
X134108682Y-44782146D01*
X134108684Y-44782147D01*
X134223128Y-44840459D01*
X134223129Y-44840460D01*
X134223130Y-44840460D01*
X134223132Y-44840461D01*
X134282343Y-44849839D01*
X134318082Y-44855500D01*
X134318084Y-44855500D01*
X134881918Y-44855500D01*
X134911996Y-44850735D01*
X134976868Y-44840461D01*
X135091318Y-44782146D01*
X135182146Y-44691318D01*
X135240461Y-44576868D01*
X135242195Y-44565918D01*
X135258723Y-44524847D01*
X135375250Y-44357465D01*
X135381767Y-44345407D01*
X135395078Y-44320775D01*
X135395083Y-44320765D01*
X135395084Y-44320764D01*
X135397038Y-44315911D01*
X135398380Y-44311057D01*
X135405588Y-44292506D01*
X135429274Y-44246020D01*
X135447477Y-44220964D01*
X135505325Y-44163118D01*
X135505324Y-44163117D01*
X135523250Y-44145192D01*
X135524232Y-44142173D01*
X135530617Y-44134271D01*
X135530684Y-44134198D01*
X135639930Y-43977272D01*
X135670888Y-43948562D01*
X135681636Y-43942223D01*
X135760196Y-43895890D01*
X135971769Y-43735897D01*
X136163600Y-43552697D01*
X136333156Y-43348707D01*
X136334975Y-43346519D01*
X136335121Y-43346640D01*
X136347013Y-43333667D01*
X136352279Y-43329021D01*
X136624932Y-43088479D01*
X136648579Y-43073000D01*
X136726667Y-43036588D01*
X136806588Y-42956667D01*
X136854355Y-42854231D01*
X136860500Y-42807554D01*
X136860500Y-42392446D01*
X136854355Y-42345769D01*
X136820689Y-42273573D01*
X136818159Y-42266963D01*
X136818149Y-42266968D01*
X136816287Y-42262478D01*
X136816285Y-42262474D01*
X136811554Y-42253633D01*
X136809139Y-42248805D01*
X136806588Y-42243333D01*
X136806585Y-42243330D01*
X136806169Y-42242437D01*
X136801490Y-42234824D01*
X136648752Y-41949361D01*
X136637547Y-41912622D01*
X136601834Y-41559459D01*
X136614791Y-41499662D01*
X136660422Y-41458900D01*
X136700332Y-41450499D01*
X137317772Y-41450499D01*
X137317776Y-41450499D01*
X137317780Y-41450498D01*
X137317782Y-41450498D01*
X137335000Y-41447073D01*
X137370428Y-41440027D01*
X137430133Y-41400133D01*
X137470027Y-41340428D01*
X137470027Y-41340425D01*
X137473758Y-41331420D01*
X137475786Y-41332260D01*
X137499262Y-41290331D01*
X137505144Y-41285305D01*
X137545219Y-41253694D01*
X137589320Y-41233932D01*
X137750836Y-41205429D01*
X137750844Y-41205429D01*
X137762996Y-41203284D01*
X137762998Y-41203285D01*
X137790793Y-41198379D01*
X137851383Y-41206884D01*
X137895404Y-41249379D01*
X137907000Y-41295871D01*
X137907000Y-41436431D01*
X137907001Y-41436438D01*
X137921098Y-41507313D01*
X137921099Y-41507314D01*
X137946279Y-41544999D01*
X137962887Y-41603887D01*
X137946280Y-41655000D01*
X137921099Y-41692686D01*
X137907000Y-41763565D01*
X137907000Y-41936431D01*
X137907001Y-41936438D01*
X137921098Y-42007313D01*
X137921099Y-42007315D01*
X137965010Y-42073031D01*
X137974807Y-42087693D01*
X138055186Y-42141401D01*
X138126065Y-42155500D01*
X138808000Y-42155499D01*
X138866191Y-42174406D01*
X138902155Y-42223906D01*
X138907000Y-42254499D01*
X138907000Y-42936431D01*
X138907001Y-42936438D01*
X138921098Y-43007313D01*
X138921099Y-43007315D01*
X138953442Y-43055719D01*
X138970051Y-43114607D01*
X138948874Y-43172011D01*
X138901417Y-43204973D01*
X138570517Y-43311315D01*
X138570301Y-43311363D01*
X138531777Y-43323759D01*
X138515428Y-43329021D01*
X138515408Y-43329027D01*
X138515393Y-43329032D01*
X138460705Y-43346607D01*
X138460501Y-43346695D01*
X138004443Y-43493447D01*
X138004427Y-43493451D01*
X137996759Y-43495919D01*
X137996725Y-43495918D01*
X137858390Y-43540418D01*
X137675617Y-43634748D01*
X137675608Y-43634753D01*
X137510831Y-43757831D01*
X137368504Y-43906334D01*
X137252524Y-44076200D01*
X137166034Y-44262817D01*
X137143957Y-44342932D01*
X137110270Y-44394008D01*
X137090355Y-44406354D01*
X136991247Y-44452569D01*
X136912569Y-44531247D01*
X136889724Y-44580239D01*
X136847995Y-44624987D01*
X136787934Y-44636661D01*
X136732481Y-44610802D01*
X136710276Y-44580239D01*
X136687430Y-44531247D01*
X136687429Y-44531246D01*
X136687429Y-44531245D01*
X136608755Y-44452571D01*
X136608753Y-44452570D01*
X136608752Y-44452569D01*
X136507919Y-44405549D01*
X136484943Y-44402524D01*
X136461969Y-44399500D01*
X136461967Y-44399500D01*
X136118035Y-44399500D01*
X136118024Y-44399501D01*
X136072083Y-44405548D01*
X135971247Y-44452569D01*
X135892569Y-44531247D01*
X135845549Y-44632080D01*
X135845549Y-44632081D01*
X135839500Y-44678032D01*
X135839500Y-45121964D01*
X135839501Y-45121975D01*
X135845548Y-45167915D01*
X135865900Y-45211559D01*
X135868651Y-45218052D01*
X135878450Y-45243690D01*
X135884557Y-45253399D01*
X135890475Y-45264261D01*
X135892569Y-45268752D01*
X135897539Y-45275849D01*
X135897536Y-45275850D01*
X135902928Y-45282609D01*
X136002989Y-45441707D01*
X136017964Y-45501031D01*
X136005077Y-45543643D01*
X135875243Y-45770165D01*
X135875237Y-45770178D01*
X135859868Y-45810492D01*
X135857090Y-45817058D01*
X135845789Y-45841295D01*
X135839500Y-45889067D01*
X135839500Y-46290500D01*
X135820593Y-46348691D01*
X135771093Y-46384655D01*
X135740500Y-46389500D01*
X126709500Y-46389500D01*
X126651309Y-46370593D01*
X126615345Y-46321093D01*
X126610500Y-46290500D01*
X126610500Y-40600004D01*
X127444751Y-40600004D01*
X127463685Y-40768053D01*
X127463688Y-40768065D01*
X127519544Y-40927690D01*
X127519544Y-40927691D01*
X127609520Y-41070886D01*
X127609523Y-41070890D01*
X127729110Y-41190477D01*
X127729112Y-41190478D01*
X127729113Y-41190479D01*
X127853541Y-41268663D01*
X127872310Y-41280456D01*
X127909985Y-41293639D01*
X128031934Y-41336311D01*
X128031938Y-41336312D01*
X128031941Y-41336313D01*
X128031942Y-41336313D01*
X128031946Y-41336314D01*
X128199996Y-41355249D01*
X128200000Y-41355249D01*
X128200004Y-41355249D01*
X128368053Y-41336314D01*
X128368055Y-41336313D01*
X128368059Y-41336313D01*
X128527690Y-41280456D01*
X128670890Y-41190477D01*
X128790477Y-41070890D01*
X128880456Y-40927690D01*
X128936313Y-40768059D01*
X128936819Y-40763568D01*
X128955249Y-40600004D01*
X128955249Y-40599995D01*
X128936314Y-40431946D01*
X128936311Y-40431934D01*
X128909039Y-40353995D01*
X128880456Y-40272310D01*
X128863805Y-40245811D01*
X128790479Y-40129113D01*
X128790478Y-40129112D01*
X128790477Y-40129110D01*
X128670890Y-40009523D01*
X128670887Y-40009521D01*
X128670886Y-40009520D01*
X128527691Y-39919544D01*
X128368065Y-39863688D01*
X128368053Y-39863685D01*
X128200004Y-39844751D01*
X128199996Y-39844751D01*
X128031946Y-39863685D01*
X128031934Y-39863688D01*
X127872309Y-39919544D01*
X127872308Y-39919544D01*
X127729113Y-40009520D01*
X127609520Y-40129113D01*
X127519544Y-40272308D01*
X127519544Y-40272309D01*
X127463688Y-40431934D01*
X127463685Y-40431946D01*
X127444751Y-40599995D01*
X127444751Y-40600004D01*
X126610500Y-40600004D01*
X126610500Y-34610934D01*
X127609500Y-34610934D01*
X127615789Y-34658702D01*
X127664673Y-34763535D01*
X127746465Y-34845327D01*
X127851298Y-34894211D01*
X127899066Y-34900500D01*
X127899067Y-34900500D01*
X128270932Y-34900500D01*
X128270934Y-34900500D01*
X128318702Y-34894211D01*
X128423535Y-34845327D01*
X128424036Y-34844825D01*
X128440899Y-34831297D01*
X128608188Y-34724865D01*
X128667434Y-34709582D01*
X128717323Y-34726749D01*
X128847422Y-34815975D01*
X128861427Y-34827612D01*
X128881244Y-34847428D01*
X128881247Y-34847430D01*
X128982080Y-34894450D01*
X128982081Y-34894450D01*
X128982083Y-34894451D01*
X129028031Y-34900500D01*
X129371968Y-34900499D01*
X129417917Y-34894451D01*
X129518755Y-34847429D01*
X129597429Y-34768755D01*
X129620276Y-34719759D01*
X129662002Y-34675013D01*
X129722063Y-34663338D01*
X129777516Y-34689195D01*
X129799723Y-34719759D01*
X129815380Y-34753335D01*
X129822571Y-34768755D01*
X129901245Y-34847429D01*
X129901246Y-34847429D01*
X129901247Y-34847430D01*
X130002080Y-34894450D01*
X130002081Y-34894450D01*
X130002083Y-34894451D01*
X130048031Y-34900500D01*
X130391968Y-34900499D01*
X130437917Y-34894451D01*
X130437918Y-34894451D01*
X130538752Y-34847431D01*
X130538753Y-34847429D01*
X130538755Y-34847429D01*
X130558572Y-34827610D01*
X130572573Y-34815978D01*
X130627531Y-34778285D01*
X130686212Y-34760966D01*
X130722687Y-34769005D01*
X130840632Y-34819806D01*
X130844648Y-34820641D01*
X130852374Y-34822574D01*
X130964507Y-34855500D01*
X130964508Y-34855500D01*
X131095488Y-34855500D01*
X131095489Y-34855500D01*
X131221165Y-34818598D01*
X131331354Y-34747784D01*
X131417129Y-34648794D01*
X131471541Y-34529649D01*
X131488924Y-34408752D01*
X131490182Y-34400002D01*
X131490182Y-34399997D01*
X131471541Y-34270351D01*
X131467710Y-34261963D01*
X131417129Y-34151206D01*
X131331354Y-34052216D01*
X131260133Y-34006445D01*
X131221169Y-33981404D01*
X131221166Y-33981403D01*
X131221165Y-33981402D01*
X131158041Y-33962867D01*
X131095490Y-33944500D01*
X131095489Y-33944500D01*
X130964507Y-33944500D01*
X130964505Y-33944500D01*
X130964501Y-33944501D01*
X130852399Y-33977416D01*
X130845194Y-33979241D01*
X130840526Y-33980238D01*
X130840517Y-33980241D01*
X130722686Y-34030993D01*
X130661762Y-34036647D01*
X130627529Y-34021712D01*
X130625712Y-34020466D01*
X130572579Y-33984025D01*
X130558572Y-33972387D01*
X130538755Y-33952571D01*
X130538752Y-33952569D01*
X130437919Y-33905549D01*
X130414943Y-33902524D01*
X130391969Y-33899500D01*
X130391967Y-33899500D01*
X130048035Y-33899500D01*
X130048024Y-33899501D01*
X130002083Y-33905548D01*
X129901247Y-33952569D01*
X129822569Y-34031247D01*
X129799724Y-34080239D01*
X129757995Y-34124987D01*
X129697934Y-34136661D01*
X129642481Y-34110802D01*
X129620276Y-34080239D01*
X129597430Y-34031247D01*
X129597429Y-34031246D01*
X129597429Y-34031245D01*
X129518755Y-33952571D01*
X129518753Y-33952570D01*
X129518752Y-33952569D01*
X129417919Y-33905549D01*
X129394943Y-33902524D01*
X129371969Y-33899500D01*
X129371967Y-33899500D01*
X129028035Y-33899500D01*
X129028024Y-33899501D01*
X128982083Y-33905548D01*
X128881246Y-33952570D01*
X128881242Y-33952572D01*
X128861427Y-33972387D01*
X128847419Y-33984025D01*
X128717323Y-34073248D01*
X128658641Y-34090567D01*
X128608188Y-34075132D01*
X128440903Y-33968703D01*
X128424047Y-33955184D01*
X128423537Y-33954674D01*
X128419023Y-33952569D01*
X128318702Y-33905789D01*
X128270934Y-33899500D01*
X127899066Y-33899500D01*
X127851298Y-33905789D01*
X127746465Y-33954673D01*
X127664673Y-34036465D01*
X127615789Y-34141298D01*
X127609500Y-34189066D01*
X127609500Y-34610934D01*
X126610500Y-34610934D01*
X126610500Y-32309500D01*
X126629407Y-32251309D01*
X126678907Y-32215345D01*
X126709500Y-32210500D01*
X127170500Y-32210500D01*
X127228691Y-32229407D01*
G37*
%TD.AperFunction*%
%TA.AperFunction,Conductor*%
G36*
X139331891Y-43596971D02*
G01*
X139381275Y-43633094D01*
X139399995Y-43691345D01*
X139380901Y-43749475D01*
X139375217Y-43756543D01*
X138973452Y-44211689D01*
X138938486Y-44237058D01*
X138581185Y-44391385D01*
X138541934Y-44399500D01*
X138518038Y-44399500D01*
X138518023Y-44399501D01*
X138472083Y-44405548D01*
X138371247Y-44452569D01*
X138292569Y-44531247D01*
X138245549Y-44632080D01*
X138245549Y-44632081D01*
X138239500Y-44678032D01*
X138239500Y-45121964D01*
X138239501Y-45121975D01*
X138245548Y-45167916D01*
X138292569Y-45268752D01*
X138292570Y-45268753D01*
X138292571Y-45268755D01*
X138371245Y-45347429D01*
X138371246Y-45347429D01*
X138371247Y-45347430D01*
X138472080Y-45394450D01*
X138472081Y-45394450D01*
X138472083Y-45394451D01*
X138518031Y-45400500D01*
X138861968Y-45400499D01*
X138907917Y-45394451D01*
X139008755Y-45347429D01*
X139087429Y-45268755D01*
X139108691Y-45223156D01*
X139150418Y-45178411D01*
X139210480Y-45166736D01*
X139265933Y-45192594D01*
X139290325Y-45230942D01*
X139290873Y-45230704D01*
X139292392Y-45234193D01*
X139292611Y-45234537D01*
X139292811Y-45235152D01*
X139292812Y-45235156D01*
X139292815Y-45235163D01*
X139355480Y-45347429D01*
X139407502Y-45440630D01*
X139419354Y-45500656D01*
X139407903Y-45536408D01*
X139278185Y-45773440D01*
X139278182Y-45773446D01*
X139264498Y-45811009D01*
X139261206Y-45818953D01*
X139250790Y-45841293D01*
X139250789Y-45841295D01*
X139244500Y-45889067D01*
X139244500Y-46290500D01*
X139225593Y-46348691D01*
X139176093Y-46384655D01*
X139145500Y-46389500D01*
X136889500Y-46389500D01*
X136831309Y-46370593D01*
X136795345Y-46321093D01*
X136790500Y-46290500D01*
X136790500Y-45889067D01*
X136788943Y-45877240D01*
X136784211Y-45841298D01*
X136766680Y-45803704D01*
X136762565Y-45793408D01*
X136754759Y-45770171D01*
X136614668Y-45525755D01*
X136602136Y-45465870D01*
X136611570Y-45433152D01*
X136625677Y-45404211D01*
X136712641Y-45225795D01*
X136712642Y-45225791D01*
X136713611Y-45223804D01*
X136756102Y-45179780D01*
X136816356Y-45169140D01*
X136871355Y-45195948D01*
X136892326Y-45225340D01*
X136912569Y-45268752D01*
X136912570Y-45268753D01*
X136912571Y-45268755D01*
X136991245Y-45347429D01*
X136991246Y-45347429D01*
X136991247Y-45347430D01*
X137092080Y-45394450D01*
X137092081Y-45394450D01*
X137092083Y-45394451D01*
X137138031Y-45400500D01*
X137481968Y-45400499D01*
X137527917Y-45394451D01*
X137628755Y-45347429D01*
X137707429Y-45268755D01*
X137754451Y-45167917D01*
X137760500Y-45121969D01*
X137760499Y-44678032D01*
X137754451Y-44632083D01*
X137728705Y-44576871D01*
X137707430Y-44531247D01*
X137707429Y-44531246D01*
X137707429Y-44531245D01*
X137669858Y-44493674D01*
X137642083Y-44439160D01*
X137648399Y-44385789D01*
X137665131Y-44345397D01*
X137674062Y-44328613D01*
X137743941Y-44223183D01*
X137755924Y-44208415D01*
X137844685Y-44118317D01*
X137859269Y-44106118D01*
X137963644Y-44034671D01*
X137980297Y-44025487D01*
X138100658Y-43973509D01*
X138109564Y-43970162D01*
X138664003Y-43791753D01*
X138664003Y-43791754D01*
X138664019Y-43791747D01*
X139270709Y-43596775D01*
X139331891Y-43596971D01*
G37*
%TD.AperFunction*%
%TA.AperFunction,Conductor*%
G36*
X141517499Y-43116219D02*
G01*
X141555186Y-43141401D01*
X141626065Y-43155500D01*
X141798934Y-43155499D01*
X141856579Y-43144033D01*
X141917339Y-43151225D01*
X141962269Y-43192758D01*
X141974873Y-43239201D01*
X141984265Y-43720887D01*
X141985018Y-43733322D01*
X141985185Y-43736077D01*
X141985379Y-43737982D01*
X141985925Y-43742729D01*
X141985925Y-43742731D01*
X141985926Y-43742733D01*
X141986823Y-43746511D01*
X141989500Y-43769376D01*
X141989500Y-43901963D01*
X141989501Y-43901975D01*
X141995547Y-43947913D01*
X142010968Y-43980982D01*
X142015440Y-43992359D01*
X142022811Y-44015154D01*
X142022817Y-44015167D01*
X142088653Y-44133116D01*
X142100505Y-44193142D01*
X142076774Y-44246489D01*
X141973007Y-44365303D01*
X141973001Y-44365311D01*
X141964907Y-44378843D01*
X141954769Y-44392849D01*
X141912869Y-44441205D01*
X141912867Y-44441209D01*
X141858456Y-44560351D01*
X141839816Y-44689997D01*
X141839816Y-44690002D01*
X141858456Y-44819648D01*
X141899802Y-44910181D01*
X141912869Y-44938794D01*
X141998644Y-45037784D01*
X142026211Y-45055500D01*
X142096230Y-45100499D01*
X142108833Y-45108598D01*
X142234509Y-45145500D01*
X142234510Y-45145500D01*
X142365490Y-45145500D01*
X142365491Y-45145500D01*
X142365492Y-45145499D01*
X142365496Y-45145499D01*
X142404284Y-45134108D01*
X142438423Y-45124085D01*
X142499582Y-45125831D01*
X142548036Y-45163193D01*
X142565315Y-45219074D01*
X142565315Y-45642772D01*
X142565316Y-45642782D01*
X142575787Y-45695426D01*
X142575788Y-45695429D01*
X142603208Y-45736465D01*
X142615682Y-45755133D01*
X142675387Y-45795027D01*
X142728038Y-45805500D01*
X143409207Y-45805499D01*
X143421173Y-45806225D01*
X143454788Y-45810318D01*
X143525913Y-45808264D01*
X143584624Y-45825484D01*
X143591573Y-45830694D01*
X143683038Y-45905755D01*
X143690238Y-45912280D01*
X143794421Y-46016463D01*
X143806428Y-46031013D01*
X143815683Y-46044701D01*
X143993035Y-46220113D01*
X144021111Y-46274475D01*
X144011873Y-46334959D01*
X143968847Y-46378461D01*
X143923417Y-46389500D01*
X140294500Y-46389500D01*
X140236309Y-46370593D01*
X140200345Y-46321093D01*
X140195500Y-46290500D01*
X140195500Y-45889067D01*
X140193943Y-45877240D01*
X140189211Y-45841298D01*
X140169858Y-45799796D01*
X140166364Y-45791291D01*
X140157684Y-45767013D01*
X140157682Y-45767009D01*
X140157681Y-45767007D01*
X140146275Y-45747969D01*
X140141472Y-45738921D01*
X140140327Y-45736465D01*
X140140326Y-45736464D01*
X140135816Y-45730022D01*
X140131987Y-45724118D01*
X140114800Y-45695428D01*
X140017644Y-45533250D01*
X140003960Y-45473617D01*
X140016125Y-45434128D01*
X140127187Y-45235155D01*
X140145718Y-45187492D01*
X140145719Y-45187487D01*
X140146524Y-45185417D01*
X140149074Y-45179446D01*
X140149557Y-45178411D01*
X140154451Y-45167917D01*
X140160500Y-45121969D01*
X140160499Y-44678032D01*
X140154451Y-44632083D01*
X140128705Y-44576871D01*
X140107430Y-44531247D01*
X140107429Y-44531246D01*
X140107429Y-44531245D01*
X140028755Y-44452571D01*
X140028753Y-44452570D01*
X140028752Y-44452569D01*
X139927919Y-44405549D01*
X139897285Y-44401516D01*
X139881969Y-44399500D01*
X139881968Y-44399500D01*
X139675367Y-44399500D01*
X139617176Y-44380593D01*
X139581212Y-44331093D01*
X139581212Y-44269907D01*
X139601145Y-44234985D01*
X140129729Y-43636172D01*
X140129729Y-43636170D01*
X140136233Y-43628803D01*
X140136382Y-43628594D01*
X140159443Y-43602467D01*
X140260653Y-43445745D01*
X140280250Y-43402281D01*
X140321405Y-43357006D01*
X140381313Y-43344567D01*
X140437090Y-43369717D01*
X140467433Y-43422849D01*
X140469500Y-43442975D01*
X140469500Y-44010247D01*
X140469518Y-44010441D01*
X140469518Y-44025684D01*
X140469518Y-44050290D01*
X140498765Y-44234984D01*
X140500120Y-44243537D01*
X140554413Y-44410647D01*
X140559257Y-44440762D01*
X140560273Y-44652686D01*
X140564387Y-44682513D01*
X140565315Y-44696039D01*
X140565315Y-44992772D01*
X140565316Y-44992782D01*
X140575787Y-45045426D01*
X140575788Y-45045429D01*
X140612586Y-45100500D01*
X140615682Y-45105133D01*
X140675387Y-45145027D01*
X140728038Y-45155500D01*
X141463591Y-45155499D01*
X141463595Y-45155498D01*
X141463597Y-45155498D01*
X141480815Y-45152073D01*
X141516243Y-45145027D01*
X141575948Y-45105133D01*
X141615842Y-45045428D01*
X141626315Y-44992777D01*
X141626314Y-44507224D01*
X141621280Y-44481916D01*
X141615842Y-44454573D01*
X141615841Y-44454570D01*
X141575950Y-44394870D01*
X141575948Y-44394867D01*
X141516243Y-44354973D01*
X141516240Y-44354972D01*
X141516239Y-44354972D01*
X141463602Y-44344501D01*
X141463592Y-44344500D01*
X141463591Y-44344500D01*
X141288193Y-44344500D01*
X141241393Y-44332740D01*
X141238271Y-44331065D01*
X141037646Y-44223440D01*
X140995307Y-44179271D01*
X140989712Y-44164945D01*
X140972890Y-44109485D01*
X140969107Y-44090464D01*
X140955975Y-43957090D01*
X140955500Y-43947403D01*
X140955500Y-43942223D01*
X140955502Y-43909631D01*
X140955500Y-43909627D01*
X140955501Y-43901667D01*
X140955500Y-43901641D01*
X140955500Y-43242204D01*
X140974407Y-43184013D01*
X141023907Y-43148049D01*
X141073815Y-43145107D01*
X141124625Y-43155213D01*
X141126065Y-43155500D01*
X141298934Y-43155499D01*
X141369814Y-43141401D01*
X141407498Y-43116220D01*
X141466386Y-43099612D01*
X141517499Y-43116219D01*
G37*
%TD.AperFunction*%
%TA.AperFunction,Conductor*%
G36*
X148102207Y-43947663D02*
G01*
X148130571Y-43958837D01*
X148149620Y-43963879D01*
X148166129Y-43969859D01*
X148175769Y-43974355D01*
X148222446Y-43980500D01*
X148222447Y-43980500D01*
X148637552Y-43980500D01*
X148637554Y-43980500D01*
X148677579Y-43975230D01*
X148737737Y-43986379D01*
X148779855Y-44030761D01*
X148789500Y-44073383D01*
X148789500Y-46290500D01*
X148770593Y-46348691D01*
X148721093Y-46384655D01*
X148690500Y-46389500D01*
X148229500Y-46389500D01*
X148171309Y-46370593D01*
X148135345Y-46321093D01*
X148130500Y-46290500D01*
X148130500Y-46245006D01*
X148130500Y-46245002D01*
X148124269Y-46176436D01*
X148075106Y-46018663D01*
X147989613Y-45877240D01*
X147872760Y-45760387D01*
X147872757Y-45760385D01*
X147872756Y-45760384D01*
X147731337Y-45674894D01*
X147573562Y-45625730D01*
X147505002Y-45619500D01*
X147504998Y-45619500D01*
X146955805Y-45619500D01*
X146942595Y-45618615D01*
X146924898Y-45616232D01*
X146924895Y-45616232D01*
X146294416Y-45655678D01*
X146043656Y-45671368D01*
X145986395Y-45657366D01*
X145863881Y-45583574D01*
X145844960Y-45568776D01*
X145828755Y-45552571D01*
X145828753Y-45552570D01*
X145828752Y-45552569D01*
X145727919Y-45505549D01*
X145704943Y-45502524D01*
X145681969Y-45499500D01*
X145681967Y-45499500D01*
X145338035Y-45499500D01*
X145338024Y-45499501D01*
X145292083Y-45505548D01*
X145191247Y-45552569D01*
X145112569Y-45631247D01*
X145093336Y-45672494D01*
X145051608Y-45717242D01*
X144991547Y-45728916D01*
X144936094Y-45703058D01*
X144911108Y-45665925D01*
X144801996Y-45379758D01*
X144795500Y-45344487D01*
X144795500Y-45255511D01*
X144801996Y-45220241D01*
X144830674Y-45145027D01*
X144911107Y-44934073D01*
X144949505Y-44886438D01*
X145008570Y-44870469D01*
X145065741Y-44892268D01*
X145093335Y-44927505D01*
X145112569Y-44968752D01*
X145112570Y-44968753D01*
X145112571Y-44968755D01*
X145191245Y-45047429D01*
X145191246Y-45047429D01*
X145191247Y-45047430D01*
X145292080Y-45094450D01*
X145292081Y-45094450D01*
X145292083Y-45094451D01*
X145338031Y-45100500D01*
X145681968Y-45100499D01*
X145727917Y-45094451D01*
X145828755Y-45047429D01*
X145828755Y-45047428D01*
X145828988Y-45047320D01*
X145889717Y-45039863D01*
X145898714Y-45042053D01*
X145917026Y-45047430D01*
X145944505Y-45055499D01*
X145944506Y-45055499D01*
X145944509Y-45055500D01*
X145944510Y-45055500D01*
X146075488Y-45055500D01*
X146075491Y-45055500D01*
X146109007Y-45045658D01*
X146170165Y-45047403D01*
X146178729Y-45050918D01*
X146272083Y-45094451D01*
X146318031Y-45100500D01*
X146661968Y-45100499D01*
X146707917Y-45094451D01*
X146808755Y-45047429D01*
X146887429Y-44968755D01*
X146910276Y-44919759D01*
X146952002Y-44875013D01*
X147012063Y-44863338D01*
X147067516Y-44889195D01*
X147089723Y-44919759D01*
X147112570Y-44968752D01*
X147112571Y-44968755D01*
X147191245Y-45047429D01*
X147191246Y-45047429D01*
X147191247Y-45047430D01*
X147292080Y-45094450D01*
X147292081Y-45094450D01*
X147292083Y-45094451D01*
X147338031Y-45100500D01*
X147681968Y-45100499D01*
X147727917Y-45094451D01*
X147828755Y-45047429D01*
X147907429Y-44968755D01*
X147954451Y-44867917D01*
X147960500Y-44821969D01*
X147960499Y-44378032D01*
X147956086Y-44344501D01*
X147954452Y-44332086D01*
X147954451Y-44332084D01*
X147954451Y-44332083D01*
X147948994Y-44320382D01*
X147941112Y-44295091D01*
X147940218Y-44289818D01*
X147940216Y-44289814D01*
X147940216Y-44289810D01*
X147940215Y-44289809D01*
X147928927Y-44260204D01*
X147925861Y-44199096D01*
X147931374Y-44183812D01*
X147951543Y-44139649D01*
X147951543Y-44139647D01*
X147951544Y-44139646D01*
X147967929Y-44025684D01*
X147994925Y-43970776D01*
X148049039Y-43942223D01*
X148102207Y-43947663D01*
G37*
%TD.AperFunction*%
%TA.AperFunction,Conductor*%
G36*
X134946458Y-41431045D02*
G01*
X135063695Y-41451952D01*
X135120588Y-41453061D01*
X135121677Y-41453083D01*
X135121677Y-41453082D01*
X135121678Y-41453083D01*
X135128835Y-41452093D01*
X135128835Y-41452092D01*
X135132687Y-41451560D01*
X135132751Y-41452025D01*
X135146833Y-41450499D01*
X135817772Y-41450499D01*
X135817776Y-41450499D01*
X135866716Y-41440765D01*
X135927478Y-41447957D01*
X135972407Y-41489491D01*
X135984527Y-41527902D01*
X136030209Y-41979639D01*
X136027922Y-42012930D01*
X135952098Y-42325629D01*
X135952096Y-42325636D01*
X135951620Y-42327603D01*
X135951388Y-42327546D01*
X135947492Y-42339432D01*
X135945645Y-42345767D01*
X135945645Y-42345769D01*
X135941137Y-42380016D01*
X135939500Y-42392447D01*
X135939500Y-42473291D01*
X135936937Y-42495672D01*
X135823114Y-42986117D01*
X135806320Y-43022541D01*
X135781919Y-43055589D01*
X135774650Y-43064334D01*
X135649614Y-43198298D01*
X135641390Y-43206152D01*
X135501817Y-43324893D01*
X135492746Y-43331753D01*
X135355295Y-43423782D01*
X135317351Y-43439024D01*
X134865313Y-43518463D01*
X134804728Y-43509913D01*
X134792489Y-43502809D01*
X134458202Y-43275370D01*
X134420726Y-43227004D01*
X134418837Y-43165848D01*
X134453254Y-43115261D01*
X134500975Y-43095364D01*
X134507917Y-43094451D01*
X134608755Y-43047429D01*
X134687429Y-42968755D01*
X134734451Y-42867917D01*
X134740500Y-42821969D01*
X134740499Y-42378032D01*
X134734451Y-42332083D01*
X134701993Y-42262478D01*
X134687430Y-42231247D01*
X134687429Y-42231246D01*
X134687429Y-42231245D01*
X134608755Y-42152571D01*
X134608753Y-42152570D01*
X134608752Y-42152569D01*
X134507919Y-42105549D01*
X134480017Y-42101876D01*
X134461969Y-42099500D01*
X134461967Y-42099500D01*
X134118035Y-42099500D01*
X134118025Y-42099501D01*
X134067499Y-42106152D01*
X134054580Y-42106999D01*
X133980141Y-42106999D01*
X133980133Y-42107000D01*
X133779500Y-42107000D01*
X133721309Y-42088093D01*
X133685345Y-42038593D01*
X133680500Y-42008000D01*
X133680499Y-41682227D01*
X133680498Y-41682217D01*
X133678085Y-41670085D01*
X133685278Y-41609324D01*
X133726812Y-41564395D01*
X133768208Y-41552019D01*
X134040911Y-41532767D01*
X134621671Y-41471633D01*
X134621672Y-41471632D01*
X134621680Y-41471632D01*
X134813057Y-41444803D01*
X134915333Y-41430466D01*
X134946458Y-41431045D01*
G37*
%TD.AperFunction*%
%TA.AperFunction,Conductor*%
G36*
X145428691Y-32229407D02*
G01*
X145464655Y-32278907D01*
X145469500Y-32309500D01*
X145469500Y-33567775D01*
X145471235Y-33576497D01*
X145473100Y-33593177D01*
X145473123Y-33594067D01*
X145473125Y-33594084D01*
X145475693Y-33604109D01*
X145479273Y-33616911D01*
X145479972Y-33620427D01*
X145479973Y-33620430D01*
X145489691Y-33634973D01*
X145496643Y-33647169D01*
X145506645Y-33668028D01*
X145824700Y-34092100D01*
X145844489Y-34149997D01*
X145844500Y-34151500D01*
X145844500Y-36648499D01*
X145825593Y-36706690D01*
X145824700Y-36707899D01*
X145506641Y-37131977D01*
X145485116Y-37168877D01*
X145484812Y-37169572D01*
X145484124Y-37170828D01*
X145483822Y-37171423D01*
X145483803Y-37171413D01*
X145481943Y-37174812D01*
X145479972Y-37179572D01*
X145479726Y-37180812D01*
X145476429Y-37193157D01*
X145472650Y-37204348D01*
X145472649Y-37204355D01*
X145472594Y-37208265D01*
X145470705Y-37226161D01*
X145469500Y-37232223D01*
X145469500Y-37258358D01*
X145450593Y-37316549D01*
X145430803Y-37336872D01*
X145379011Y-37376651D01*
X145321345Y-37397102D01*
X145302623Y-37394664D01*
X145302502Y-37395508D01*
X145295491Y-37394500D01*
X145164509Y-37394500D01*
X145164507Y-37394500D01*
X145038833Y-37431402D01*
X145038828Y-37431404D01*
X144928648Y-37502213D01*
X144928643Y-37502217D01*
X144842869Y-37601205D01*
X144788456Y-37720351D01*
X144769816Y-37849997D01*
X144769816Y-37850002D01*
X144788456Y-37979648D01*
X144825809Y-38061438D01*
X144842869Y-38098794D01*
X144928644Y-38197784D01*
X145038833Y-38268598D01*
X145164509Y-38305500D01*
X145248408Y-38305500D01*
X145306599Y-38324407D01*
X145319754Y-38335865D01*
X145441846Y-38462779D01*
X145468563Y-38517822D01*
X145469500Y-38531413D01*
X145469500Y-38672256D01*
X145469325Y-38678144D01*
X145466963Y-38717776D01*
X145466416Y-38726963D01*
X145470900Y-38763566D01*
X145492693Y-38941484D01*
X145481000Y-39001542D01*
X145464431Y-39023525D01*
X145433628Y-39054328D01*
X145425517Y-39061591D01*
X145406977Y-39076441D01*
X145385771Y-39101665D01*
X145379998Y-39107958D01*
X145302419Y-39185538D01*
X145245539Y-39242418D01*
X145245535Y-39242423D01*
X145202075Y-39317699D01*
X145201144Y-39317161D01*
X145192031Y-39332119D01*
X145188340Y-39336510D01*
X145176089Y-39347727D01*
X145171245Y-39352570D01*
X145171245Y-39352571D01*
X145092571Y-39431245D01*
X145092570Y-39431246D01*
X145086447Y-39437370D01*
X145083768Y-39434691D01*
X145048367Y-39461317D01*
X144987190Y-39462328D01*
X144937102Y-39427188D01*
X144917236Y-39369317D01*
X144918230Y-39353591D01*
X144920184Y-39340001D01*
X144920184Y-39339997D01*
X144901543Y-39210351D01*
X144893475Y-39192684D01*
X144847131Y-39091206D01*
X144761356Y-38992216D01*
X144692410Y-38947907D01*
X144651171Y-38921404D01*
X144651168Y-38921403D01*
X144651167Y-38921402D01*
X144588329Y-38902951D01*
X144525492Y-38884500D01*
X144525491Y-38884500D01*
X144394509Y-38884500D01*
X144394507Y-38884500D01*
X144319581Y-38906501D01*
X144268833Y-38921402D01*
X144268832Y-38921402D01*
X144267778Y-38921712D01*
X144158017Y-38971679D01*
X144097222Y-38978580D01*
X144043981Y-38948429D01*
X144018631Y-38892743D01*
X144017999Y-38881588D01*
X144017999Y-38763566D01*
X144003901Y-38692686D01*
X144003900Y-38692684D01*
X143978721Y-38655001D01*
X143962112Y-38596112D01*
X143978720Y-38544999D01*
X144003901Y-38507314D01*
X144018000Y-38436435D01*
X144017999Y-38263566D01*
X144003901Y-38192686D01*
X143950193Y-38112307D01*
X143869814Y-38058599D01*
X143798935Y-38044500D01*
X143116999Y-38044500D01*
X143058808Y-38025593D01*
X143022844Y-37976093D01*
X143017999Y-37945500D01*
X143017999Y-37263568D01*
X143017998Y-37263561D01*
X143003901Y-37192686D01*
X143003900Y-37192684D01*
X142950195Y-37112310D01*
X142950193Y-37112307D01*
X142881837Y-37066633D01*
X142843960Y-37018586D01*
X142841558Y-36957448D01*
X142866835Y-36914318D01*
X143216964Y-36564190D01*
X143216970Y-36564186D01*
X143230889Y-36550267D01*
X143249584Y-36531570D01*
X143261188Y-36519970D01*
X143261189Y-36519971D01*
X143400230Y-36380973D01*
X143657068Y-36083239D01*
X143891315Y-35767423D01*
X143906410Y-35743587D01*
X143941865Y-35710073D01*
X144190264Y-35571696D01*
X144225515Y-35560032D01*
X144267917Y-35554451D01*
X144368755Y-35507429D01*
X144447429Y-35428755D01*
X144494451Y-35327917D01*
X144500500Y-35281969D01*
X144500499Y-34938032D01*
X144494451Y-34892083D01*
X144462275Y-34823081D01*
X144447430Y-34791247D01*
X144447429Y-34791246D01*
X144447429Y-34791245D01*
X144368755Y-34712571D01*
X144368753Y-34712570D01*
X144368752Y-34712569D01*
X144319761Y-34689724D01*
X144275013Y-34647996D01*
X144263338Y-34587935D01*
X144289196Y-34532482D01*
X144319761Y-34510276D01*
X144346889Y-34497625D01*
X144368755Y-34487429D01*
X144447429Y-34408755D01*
X144494451Y-34307917D01*
X144500500Y-34261969D01*
X144500499Y-33918032D01*
X144494451Y-33872083D01*
X144447429Y-33771245D01*
X144368755Y-33692571D01*
X144368753Y-33692570D01*
X144368752Y-33692569D01*
X144328405Y-33673755D01*
X144301037Y-33654821D01*
X144287129Y-33641224D01*
X144147259Y-33504479D01*
X144118868Y-33450281D01*
X144119337Y-33414546D01*
X144297215Y-32512297D01*
X144299824Y-32502008D01*
X144324269Y-32423564D01*
X144330500Y-32354998D01*
X144330500Y-32348200D01*
X144330963Y-32338634D01*
X144332498Y-32322823D01*
X144333990Y-32307454D01*
X144333989Y-32307446D01*
X144333991Y-32307436D01*
X144334107Y-32305028D01*
X144335425Y-32305091D01*
X144352900Y-32251309D01*
X144402400Y-32215345D01*
X144432993Y-32210500D01*
X145370500Y-32210500D01*
X145428691Y-32229407D01*
G37*
%TD.AperFunction*%
%TA.AperFunction,Conductor*%
G36*
X140452013Y-32465284D02*
G01*
X140498242Y-32505366D01*
X140507965Y-32527011D01*
X140524892Y-32581334D01*
X140524893Y-32581335D01*
X140610384Y-32722756D01*
X140610385Y-32722757D01*
X140610387Y-32722760D01*
X140727240Y-32839613D01*
X140868663Y-32925106D01*
X141026436Y-32974269D01*
X141095002Y-32980500D01*
X141114023Y-32980500D01*
X141152765Y-32988395D01*
X141741259Y-33238657D01*
X142237939Y-33449874D01*
X142280349Y-33484275D01*
X142414532Y-33676324D01*
X142431161Y-33717557D01*
X142495151Y-34122117D01*
X142496135Y-34126131D01*
X142495427Y-34126304D01*
X142499500Y-34151245D01*
X142499500Y-34261963D01*
X142499501Y-34261975D01*
X142505548Y-34307916D01*
X142552569Y-34408752D01*
X142552570Y-34408753D01*
X142552571Y-34408755D01*
X142631245Y-34487429D01*
X142680240Y-34510276D01*
X142724986Y-34552002D01*
X142736661Y-34612064D01*
X142710803Y-34667516D01*
X142680240Y-34689722D01*
X142631248Y-34712568D01*
X142552569Y-34791247D01*
X142505549Y-34892080D01*
X142505549Y-34892081D01*
X142499500Y-34938032D01*
X142499500Y-35110352D01*
X142497347Y-35130886D01*
X142494381Y-35144871D01*
X142494380Y-35144878D01*
X142490434Y-35459450D01*
X142470798Y-35517399D01*
X142448151Y-35539357D01*
X142229598Y-35692087D01*
X142208807Y-35702049D01*
X142208947Y-35702348D01*
X142101247Y-35752569D01*
X142022569Y-35831247D01*
X141999724Y-35880239D01*
X141957995Y-35924987D01*
X141897934Y-35936661D01*
X141842481Y-35910802D01*
X141820276Y-35880239D01*
X141797430Y-35831247D01*
X141797429Y-35831246D01*
X141797429Y-35831245D01*
X141718755Y-35752571D01*
X141718753Y-35752570D01*
X141718752Y-35752569D01*
X141644361Y-35717880D01*
X141599613Y-35676152D01*
X141587938Y-35616091D01*
X141613796Y-35560638D01*
X141648240Y-35539428D01*
X141647367Y-35537556D01*
X141711971Y-35507430D01*
X141756667Y-35486588D01*
X141836588Y-35406667D01*
X141884355Y-35304231D01*
X141890500Y-35257554D01*
X141890500Y-34902446D01*
X141884355Y-34855769D01*
X141883847Y-34854680D01*
X141836589Y-34753335D01*
X141836588Y-34753334D01*
X141836588Y-34753333D01*
X141756667Y-34673412D01*
X141756665Y-34673411D01*
X141756664Y-34673410D01*
X141654233Y-34625645D01*
X141623113Y-34621548D01*
X141607554Y-34619500D01*
X141192446Y-34619500D01*
X141176887Y-34621548D01*
X141145767Y-34625645D01*
X141145766Y-34625645D01*
X141043335Y-34673410D01*
X140963410Y-34753335D01*
X140915645Y-34855766D01*
X140915645Y-34855767D01*
X140915179Y-34859306D01*
X140909757Y-34900498D01*
X140909500Y-34902447D01*
X140909500Y-34915940D01*
X140898723Y-34960857D01*
X140887720Y-34982467D01*
X140844469Y-35025743D01*
X140784040Y-35035332D01*
X140729516Y-35007570D01*
X140701722Y-34953061D01*
X140700792Y-34941263D01*
X140700711Y-34941269D01*
X140700498Y-34938031D01*
X140694451Y-34892083D01*
X140662275Y-34823081D01*
X140647430Y-34791247D01*
X140647429Y-34791246D01*
X140647429Y-34791245D01*
X140568755Y-34712571D01*
X140568753Y-34712570D01*
X140568752Y-34712569D01*
X140519761Y-34689724D01*
X140475013Y-34647996D01*
X140463338Y-34587935D01*
X140489196Y-34532482D01*
X140519761Y-34510276D01*
X140546889Y-34497625D01*
X140568755Y-34487429D01*
X140647429Y-34408755D01*
X140694451Y-34307917D01*
X140700500Y-34261969D01*
X140700499Y-33918032D01*
X140694451Y-33872083D01*
X140647429Y-33771245D01*
X140568755Y-33692571D01*
X140568753Y-33692570D01*
X140568752Y-33692569D01*
X140491270Y-33656438D01*
X140467923Y-33641224D01*
X140275679Y-33473035D01*
X140244333Y-33420489D01*
X140242232Y-33390023D01*
X140242408Y-33387987D01*
X140314814Y-32547961D01*
X140338648Y-32491610D01*
X140391054Y-32460030D01*
X140452013Y-32465284D01*
G37*
%TD.AperFunction*%
%TD*%
%TA.AperFunction,Conductor*%
%TO.N,USB_P*%
G36*
X131846733Y-38618917D02*
G01*
X132011082Y-38783266D01*
X132014509Y-38791539D01*
X132013060Y-38797179D01*
X131799099Y-39186090D01*
X131792109Y-39191686D01*
X131784407Y-39191274D01*
X131543819Y-39092563D01*
X131537466Y-39086253D01*
X131537436Y-39086180D01*
X131438725Y-38845592D01*
X131438755Y-38836637D01*
X131443907Y-38830901D01*
X131832822Y-38616938D01*
X131841721Y-38615954D01*
X131846733Y-38618917D01*
G37*
%TD.AperFunction*%
%TD*%
%TA.AperFunction,Conductor*%
%TO.N,USB_P*%
G36*
X136465625Y-42002210D02*
G01*
X136468542Y-42005754D01*
X136652726Y-42349987D01*
X136653608Y-42358899D01*
X136650453Y-42364004D01*
X136407649Y-42593847D01*
X136399285Y-42597046D01*
X136392115Y-42594338D01*
X136136253Y-42381088D01*
X136132092Y-42373158D01*
X136132374Y-42369343D01*
X136134907Y-42358899D01*
X136214164Y-42032046D01*
X136219442Y-42024815D01*
X136224352Y-42023165D01*
X136457050Y-41999633D01*
X136465625Y-42002210D01*
G37*
%TD.AperFunction*%
%TD*%
%TA.AperFunction,Conductor*%
%TO.N,USB_P*%
G36*
X137726912Y-36104090D02*
G01*
X137731224Y-36108042D01*
X137915873Y-36392113D01*
X137917508Y-36400917D01*
X137914398Y-36406700D01*
X137677433Y-36647232D01*
X137669185Y-36650721D01*
X137662965Y-36648985D01*
X137365567Y-36465926D01*
X137360318Y-36458671D01*
X137360000Y-36455962D01*
X137360000Y-36221161D01*
X137363427Y-36212888D01*
X137368282Y-36209971D01*
X137718000Y-36103228D01*
X137726912Y-36104090D01*
G37*
%TD.AperFunction*%
%TD*%
%TA.AperFunction,Conductor*%
%TO.N,USB_P*%
G36*
X137751561Y-36210051D02*
G01*
X137758551Y-36215647D01*
X137760000Y-36221287D01*
X137760000Y-36453712D01*
X137756573Y-36461985D01*
X137751561Y-36464948D01*
X137325265Y-36588657D01*
X137316364Y-36587672D01*
X137311210Y-36581935D01*
X137262292Y-36464948D01*
X137210886Y-36342012D01*
X137210857Y-36333059D01*
X137210856Y-36333059D01*
X137311211Y-36093062D01*
X137317563Y-36086754D01*
X137325262Y-36086342D01*
X137751561Y-36210051D01*
G37*
%TD.AperFunction*%
%TD*%
%TA.AperFunction,Conductor*%
%TO.N,USB_P*%
G36*
X136604032Y-40431949D02*
G01*
X136929100Y-40589155D01*
X136935056Y-40595842D01*
X136934539Y-40604782D01*
X136929069Y-40610236D01*
X136605288Y-40765658D01*
X136596347Y-40766149D01*
X136594801Y-40765477D01*
X136508351Y-40720244D01*
X136502610Y-40713373D01*
X136502539Y-40713133D01*
X136439023Y-40488544D01*
X136440069Y-40479652D01*
X136447036Y-40474121D01*
X136595697Y-40431241D01*
X136604032Y-40431949D01*
G37*
%TD.AperFunction*%
%TD*%
%TA.AperFunction,Conductor*%
%TO.N,USB_P*%
G36*
X135390207Y-43618043D02*
G01*
X135393571Y-43621683D01*
X135512566Y-43823616D01*
X135513814Y-43832483D01*
X135512088Y-43836241D01*
X135378443Y-44028212D01*
X135374856Y-44031340D01*
X135374905Y-44031407D01*
X135374157Y-44031950D01*
X135284450Y-44121657D01*
X135226853Y-44234696D01*
X135224963Y-44246627D01*
X135223009Y-44251480D01*
X135076940Y-44461299D01*
X135069401Y-44466131D01*
X135061961Y-44465005D01*
X134603710Y-44227872D01*
X134597938Y-44221027D01*
X134597801Y-44220561D01*
X134480615Y-43787359D01*
X134481763Y-43778480D01*
X134488854Y-43773012D01*
X134489870Y-43772785D01*
X135381467Y-43616100D01*
X135390207Y-43618043D01*
G37*
%TD.AperFunction*%
%TD*%
%TA.AperFunction,Conductor*%
%TO.N,USB_P*%
G36*
X134273197Y-43373861D02*
G01*
X134858941Y-43772385D01*
X134863854Y-43779872D01*
X134862402Y-43788063D01*
X134603560Y-44220934D01*
X134596373Y-44226275D01*
X134595202Y-44226507D01*
X134137742Y-44293049D01*
X134129062Y-44290849D01*
X134124480Y-44283155D01*
X134124372Y-44282041D01*
X134099866Y-43779872D01*
X134088666Y-43550366D01*
X134091685Y-43541938D01*
X134092058Y-43541546D01*
X134258344Y-43375260D01*
X134266616Y-43371834D01*
X134273197Y-43373861D01*
G37*
%TD.AperFunction*%
%TD*%
%TA.AperFunction,Conductor*%
%TO.N,USB_P*%
G36*
X136907775Y-36042035D02*
G01*
X137194196Y-36209114D01*
X137199615Y-36216241D01*
X137200000Y-36219219D01*
X137200000Y-36455780D01*
X137196573Y-36464053D01*
X137194195Y-36465886D01*
X136907777Y-36632963D01*
X136898904Y-36634172D01*
X136893623Y-36631144D01*
X136725975Y-36464053D01*
X136607313Y-36345785D01*
X136603873Y-36337519D01*
X136607285Y-36329241D01*
X136893624Y-36043854D01*
X136901901Y-36040442D01*
X136907775Y-36042035D01*
G37*
%TD.AperFunction*%
%TD*%
%TA.AperFunction,Conductor*%
%TO.N,USB_P*%
G36*
X137103635Y-36087327D02*
G01*
X137108789Y-36093064D01*
X137209112Y-36332986D01*
X137209142Y-36341941D01*
X137209112Y-36342014D01*
X137108789Y-36581935D01*
X137102436Y-36588245D01*
X137094734Y-36588657D01*
X136668439Y-36464948D01*
X136661449Y-36459352D01*
X136660000Y-36453712D01*
X136660000Y-36221287D01*
X136663427Y-36213014D01*
X136668439Y-36210051D01*
X137094736Y-36086342D01*
X137103635Y-36087327D01*
G37*
%TD.AperFunction*%
%TD*%
%TA.AperFunction,Conductor*%
%TO.N,USB_P*%
G36*
X131784435Y-39191210D02*
G01*
X131790745Y-39197563D01*
X131791157Y-39205265D01*
X131667449Y-39631561D01*
X131661853Y-39638551D01*
X131656213Y-39640000D01*
X131423787Y-39640000D01*
X131415514Y-39636573D01*
X131412551Y-39631561D01*
X131288842Y-39205263D01*
X131289827Y-39196364D01*
X131295562Y-39191211D01*
X131535487Y-39090886D01*
X131544441Y-39090857D01*
X131784435Y-39191210D01*
G37*
%TD.AperFunction*%
%TD*%
%TA.AperFunction,Conductor*%
%TO.N,USB_P*%
G36*
X133025904Y-42699768D02*
G01*
X133034115Y-42703341D01*
X133037394Y-42711674D01*
X133037303Y-42712938D01*
X133001743Y-42993362D01*
X132997303Y-43001138D01*
X132993984Y-43002939D01*
X132506231Y-43172825D01*
X132497291Y-43172310D01*
X132494918Y-43170785D01*
X132169916Y-42901469D01*
X132165732Y-42893551D01*
X132167652Y-42885961D01*
X132297132Y-42692177D01*
X132304575Y-42687204D01*
X132307060Y-42686981D01*
X133025904Y-42699768D01*
G37*
%TD.AperFunction*%
%TD*%
%TA.AperFunction,Conductor*%
%TO.N,USB_P*%
G36*
X136131552Y-42530376D02*
G01*
X136395280Y-42597826D01*
X136402446Y-42603196D01*
X136402930Y-42604100D01*
X136545011Y-42900261D01*
X136545500Y-42909203D01*
X136542202Y-42914096D01*
X136205124Y-43211474D01*
X136196653Y-43214377D01*
X136190708Y-43212308D01*
X135999459Y-43079412D01*
X135994620Y-43071877D01*
X135994738Y-43067159D01*
X136030261Y-42914096D01*
X136117295Y-42539075D01*
X136122503Y-42531792D01*
X136131337Y-42530324D01*
X136131552Y-42530376D01*
G37*
%TD.AperFunction*%
%TD*%
%TA.AperFunction,Conductor*%
%TO.N,USB_P*%
G36*
X132506228Y-38027172D02*
G01*
X132993984Y-38197060D01*
X133000670Y-38203017D01*
X133001743Y-38206637D01*
X133037303Y-38487061D01*
X133034944Y-38495700D01*
X133027168Y-38500140D01*
X133025904Y-38500231D01*
X132307066Y-38513018D01*
X132298733Y-38509739D01*
X132297133Y-38507824D01*
X132167652Y-38314038D01*
X132165906Y-38305256D01*
X132169916Y-38298530D01*
X132494920Y-38029212D01*
X132503474Y-38026573D01*
X132506228Y-38027172D01*
G37*
%TD.AperFunction*%
%TD*%
%TA.AperFunction,Conductor*%
%TO.N,Net-(U3-PG10)*%
G36*
X143802521Y-40231030D02*
G01*
X143839888Y-40244219D01*
X143954695Y-40284744D01*
X143961355Y-40290729D01*
X143962500Y-40295777D01*
X143962500Y-40404222D01*
X143959073Y-40412495D01*
X143954694Y-40415255D01*
X143802521Y-40468969D01*
X143795258Y-40469141D01*
X143436267Y-40361205D01*
X143429331Y-40355541D01*
X143428431Y-40346631D01*
X143434095Y-40339695D01*
X143436267Y-40338795D01*
X143795259Y-40230858D01*
X143802521Y-40231030D01*
G37*
%TD.AperFunction*%
%TD*%
%TA.AperFunction,Conductor*%
%TO.N,Net-(U3-PG10)*%
G36*
X146250537Y-39684627D02*
G01*
X146504924Y-39796839D01*
X146511110Y-39803313D01*
X146511776Y-39805829D01*
X146556843Y-40110015D01*
X146554665Y-40118701D01*
X146548662Y-40122927D01*
X146097749Y-40259562D01*
X146088838Y-40258682D01*
X146084629Y-40254866D01*
X146023640Y-40163587D01*
X146021893Y-40154804D01*
X146022739Y-40152197D01*
X146037553Y-40120000D01*
X146235186Y-39690441D01*
X146241757Y-39684358D01*
X146250537Y-39684627D01*
G37*
%TD.AperFunction*%
%TD*%
%TA.AperFunction,Conductor*%
%TO.N,Net-(U3-PG10)*%
G36*
X147303183Y-39527151D02*
G01*
X147418712Y-39671868D01*
X147515173Y-39792701D01*
X147517656Y-39801304D01*
X147515173Y-39807299D01*
X147303185Y-40072847D01*
X147295345Y-40077175D01*
X147289158Y-40076180D01*
X146966817Y-39928131D01*
X146960729Y-39921564D01*
X146960000Y-39917499D01*
X146960000Y-39682500D01*
X146963427Y-39674227D01*
X146966812Y-39671870D01*
X147289160Y-39523818D01*
X147298106Y-39523480D01*
X147303183Y-39527151D01*
G37*
%TD.AperFunction*%
%TD*%
%TA.AperFunction,Conductor*%
%TO.N,Net-(U3-PG10)*%
G36*
X146755420Y-39533820D02*
G01*
X147043357Y-39671816D01*
X147049336Y-39678482D01*
X147050000Y-39682367D01*
X147050000Y-39917632D01*
X147046573Y-39925905D01*
X147043357Y-39928183D01*
X146755421Y-40066178D01*
X146746479Y-40066663D01*
X146741595Y-40063372D01*
X146515838Y-39807743D01*
X146512931Y-39799275D01*
X146515838Y-39792256D01*
X146741596Y-39536625D01*
X146749639Y-39532694D01*
X146755420Y-39533820D01*
G37*
%TD.AperFunction*%
%TD*%
%TA.AperFunction,Conductor*%
%TO.N,3V3*%
G36*
X139950773Y-36840456D02*
G01*
X139951017Y-36840558D01*
X139957327Y-36846911D01*
X139957777Y-36854479D01*
X139839878Y-37279527D01*
X139834365Y-37286583D01*
X139828604Y-37288100D01*
X139596167Y-37288100D01*
X139587894Y-37284673D01*
X139584975Y-37279809D01*
X139547929Y-37158181D01*
X139455483Y-36854657D01*
X139456350Y-36845746D01*
X139462159Y-36840457D01*
X139701955Y-36740186D01*
X139710909Y-36740157D01*
X139950773Y-36840456D01*
G37*
%TD.AperFunction*%
%TD*%
%TA.AperFunction,Conductor*%
%TO.N,3V3*%
G36*
X134107006Y-33955135D02*
G01*
X134112974Y-33958496D01*
X134669041Y-34271644D01*
X134674568Y-34278690D01*
X134675000Y-34281839D01*
X134675000Y-34518160D01*
X134671573Y-34526433D01*
X134669041Y-34528355D01*
X134107008Y-34844863D01*
X134098118Y-34845936D01*
X134091771Y-34841503D01*
X133865000Y-34526433D01*
X133778918Y-34406834D01*
X133776867Y-34398118D01*
X133778919Y-34393165D01*
X133859046Y-34281839D01*
X134091772Y-33958494D01*
X134099385Y-33953783D01*
X134107006Y-33955135D01*
G37*
%TD.AperFunction*%
%TD*%
%TA.AperFunction,Conductor*%
%TO.N,3V3*%
G36*
X134754005Y-34179617D02*
G01*
X134758551Y-34184995D01*
X134859112Y-34425486D01*
X134859142Y-34434441D01*
X134859112Y-34434514D01*
X134759062Y-34673781D01*
X134752709Y-34680091D01*
X134744281Y-34680267D01*
X134323680Y-34527796D01*
X134317070Y-34521754D01*
X134315967Y-34516796D01*
X134315967Y-34284353D01*
X134319394Y-34276080D01*
X134325089Y-34272940D01*
X134745180Y-34178096D01*
X134754005Y-34179617D01*
G37*
%TD.AperFunction*%
%TD*%
%TA.AperFunction,Conductor*%
%TO.N,3V3*%
G36*
X135356119Y-34152223D02*
G01*
X135642912Y-34453990D01*
X135646127Y-34462348D01*
X135642491Y-34470531D01*
X135642463Y-34470558D01*
X135356638Y-34740393D01*
X135348269Y-34743580D01*
X135342307Y-34741745D01*
X135055401Y-34558450D01*
X135050274Y-34551108D01*
X135050000Y-34548590D01*
X135050000Y-34312036D01*
X135053427Y-34303763D01*
X135056212Y-34301703D01*
X135342154Y-34149947D01*
X135351067Y-34149097D01*
X135356119Y-34152223D01*
G37*
%TD.AperFunction*%
%TD*%
%TA.AperFunction,Conductor*%
%TO.N,3V3*%
G36*
X135401561Y-34302551D02*
G01*
X135408551Y-34308147D01*
X135410000Y-34313787D01*
X135410000Y-34546212D01*
X135406573Y-34554485D01*
X135401561Y-34557448D01*
X134975265Y-34681157D01*
X134966364Y-34680172D01*
X134961210Y-34674435D01*
X134912292Y-34557448D01*
X134860886Y-34434512D01*
X134860857Y-34425559D01*
X134860856Y-34425559D01*
X134961211Y-34185562D01*
X134967563Y-34179254D01*
X134975262Y-34178842D01*
X135401561Y-34302551D01*
G37*
%TD.AperFunction*%
%TD*%
%TA.AperFunction,Conductor*%
%TO.N,3V3*%
G36*
X145565451Y-39194386D02*
G01*
X145566195Y-39195069D01*
X145731012Y-39359886D01*
X145734377Y-39366957D01*
X145759285Y-39608083D01*
X145756726Y-39616664D01*
X145754266Y-39618933D01*
X145499405Y-39793769D01*
X145490644Y-39795623D01*
X145483138Y-39790740D01*
X145482838Y-39790279D01*
X145481863Y-39788704D01*
X145303406Y-39500409D01*
X145301966Y-39491573D01*
X145304397Y-39486727D01*
X145548966Y-39195812D01*
X145556913Y-39191686D01*
X145565451Y-39194386D01*
G37*
%TD.AperFunction*%
%TD*%
%TA.AperFunction,Conductor*%
%TO.N,3V3*%
G36*
X145657227Y-37410678D02*
G01*
X146143279Y-37966176D01*
X146146148Y-37974658D01*
X146142178Y-37982685D01*
X146142161Y-37982701D01*
X145658396Y-38404269D01*
X145649907Y-38407120D01*
X145642277Y-38403559D01*
X145233268Y-37978397D01*
X145230000Y-37970286D01*
X145230000Y-37730766D01*
X145233427Y-37722493D01*
X145234566Y-37721492D01*
X145641296Y-37409102D01*
X145649944Y-37406781D01*
X145657227Y-37410678D01*
G37*
%TD.AperFunction*%
%TD*%
%TA.AperFunction,Conductor*%
%TO.N,3V3*%
G36*
X145771561Y-37722551D02*
G01*
X145778551Y-37728147D01*
X145780000Y-37733787D01*
X145780000Y-37966212D01*
X145776573Y-37974485D01*
X145771561Y-37977448D01*
X145345265Y-38101157D01*
X145336364Y-38100172D01*
X145331210Y-38094435D01*
X145282292Y-37977448D01*
X145230886Y-37854512D01*
X145230857Y-37845559D01*
X145230856Y-37845559D01*
X145331211Y-37605562D01*
X145337563Y-37599254D01*
X145345262Y-37598842D01*
X145771561Y-37722551D01*
G37*
%TD.AperFunction*%
%TD*%
%TA.AperFunction,Conductor*%
%TO.N,3V3*%
G36*
X141395165Y-35077772D02*
G01*
X141402235Y-35083265D01*
X141402890Y-35084610D01*
X141511981Y-35350262D01*
X141511954Y-35359216D01*
X141506718Y-35365001D01*
X141047057Y-35613247D01*
X141038149Y-35614163D01*
X141033224Y-35611225D01*
X140868619Y-35446620D01*
X140865192Y-35438347D01*
X140866464Y-35433043D01*
X141085674Y-35002517D01*
X141092480Y-34996701D01*
X141099193Y-34996544D01*
X141395165Y-35077772D01*
G37*
%TD.AperFunction*%
%TD*%
%TA.AperFunction,Conductor*%
%TO.N,3V3*%
G36*
X140026578Y-36288402D02*
G01*
X140190942Y-36452766D01*
X140194369Y-36461039D01*
X140192635Y-36467169D01*
X139965743Y-36836069D01*
X139958490Y-36841320D01*
X139951336Y-36840763D01*
X139710287Y-36741863D01*
X139703934Y-36735553D01*
X139703904Y-36735480D01*
X139672106Y-36657981D01*
X139605408Y-36495416D01*
X139605438Y-36486463D01*
X139611140Y-36480443D01*
X140013215Y-36286140D01*
X140022154Y-36285626D01*
X140026578Y-36288402D01*
G37*
%TD.AperFunction*%
%TD*%
%TA.AperFunction,Conductor*%
%TO.N,3V3*%
G36*
X146156636Y-32834991D02*
G01*
X146159636Y-32837991D01*
X146645229Y-33543072D01*
X146647099Y-33551829D01*
X146644953Y-33556728D01*
X146278510Y-34045320D01*
X146270805Y-34049882D01*
X146269150Y-34050000D01*
X146030850Y-34050000D01*
X146022577Y-34046573D01*
X146021490Y-34045320D01*
X145655046Y-33556728D01*
X145652824Y-33548053D01*
X145654768Y-33543076D01*
X146140364Y-32837990D01*
X146147879Y-32833121D01*
X146156636Y-32834991D01*
G37*
%TD.AperFunction*%
%TD*%
%TA.AperFunction,Conductor*%
%TO.N,3V3*%
G36*
X146277423Y-36753427D02*
G01*
X146278510Y-36754680D01*
X146644953Y-37243271D01*
X146647175Y-37251946D01*
X146645229Y-37256927D01*
X146159636Y-37962008D01*
X146152121Y-37966878D01*
X146143364Y-37965008D01*
X146140364Y-37962008D01*
X145968056Y-37711817D01*
X145654769Y-37256925D01*
X145652900Y-37248170D01*
X145655044Y-37243273D01*
X146021490Y-36754680D01*
X146029195Y-36750118D01*
X146030850Y-36750000D01*
X146269150Y-36750000D01*
X146277423Y-36753427D01*
G37*
%TD.AperFunction*%
%TD*%
%TA.AperFunction,Conductor*%
%TO.N,3V3*%
G36*
X130465981Y-34135852D02*
G01*
X130754918Y-34334014D01*
X130759802Y-34341519D01*
X130760000Y-34343662D01*
X130760000Y-34456337D01*
X130756573Y-34464610D01*
X130754917Y-34465986D01*
X130465983Y-34664146D01*
X130457223Y-34665999D01*
X130450597Y-34662242D01*
X130225838Y-34407743D01*
X130222931Y-34399275D01*
X130225838Y-34392256D01*
X130450598Y-34137755D01*
X130458641Y-34133824D01*
X130465981Y-34135852D01*
G37*
%TD.AperFunction*%
%TD*%
%TA.AperFunction,Conductor*%
%TO.N,3V3*%
G36*
X130929273Y-34156728D02*
G01*
X130929321Y-34156842D01*
X131029110Y-34395486D01*
X131029140Y-34404441D01*
X131029110Y-34404514D01*
X130929321Y-34643157D01*
X130922968Y-34649467D01*
X130914013Y-34649437D01*
X130913899Y-34649389D01*
X130487070Y-34465546D01*
X130480827Y-34459126D01*
X130479998Y-34454800D01*
X130479998Y-34345199D01*
X130483425Y-34336926D01*
X130487066Y-34334455D01*
X130913901Y-34150609D01*
X130922853Y-34150485D01*
X130929273Y-34156728D01*
G37*
%TD.AperFunction*%
%TD*%
%TA.AperFunction,Conductor*%
%TO.N,3V3*%
G36*
X144166957Y-42866465D02*
G01*
X144597481Y-43085673D01*
X144603298Y-43092480D01*
X144603455Y-43099196D01*
X144522228Y-43395164D01*
X144516734Y-43402235D01*
X144515389Y-43402890D01*
X144249737Y-43511980D01*
X144240783Y-43511953D01*
X144234998Y-43506717D01*
X144174752Y-43395164D01*
X143986751Y-43047055D01*
X143985836Y-43038149D01*
X143988772Y-43033226D01*
X144153380Y-42868618D01*
X144161652Y-42865192D01*
X144166957Y-42866465D01*
G37*
%TD.AperFunction*%
%TD*%
%TA.AperFunction,Conductor*%
%TO.N,3V3*%
G36*
X143653362Y-42178755D02*
G01*
X143659099Y-42183909D01*
X143873060Y-42572820D01*
X143874045Y-42581721D01*
X143871082Y-42586733D01*
X143706733Y-42751082D01*
X143698460Y-42754509D01*
X143692820Y-42753060D01*
X143303909Y-42539099D01*
X143298313Y-42532109D01*
X143298725Y-42524407D01*
X143397436Y-42283819D01*
X143403746Y-42277466D01*
X143403819Y-42277436D01*
X143644407Y-42178725D01*
X143653362Y-42178755D01*
G37*
%TD.AperFunction*%
%TD*%
%TA.AperFunction,Conductor*%
%TO.N,3V3*%
G36*
X137557947Y-37988928D02*
G01*
X137835809Y-38221492D01*
X137839954Y-38229430D01*
X137840000Y-38230464D01*
X137840000Y-38464234D01*
X137836573Y-38472507D01*
X137829272Y-38475894D01*
X137428210Y-38509315D01*
X137419680Y-38506587D01*
X137416588Y-38502499D01*
X137404080Y-38475000D01*
X137282770Y-38208290D01*
X137282465Y-38199342D01*
X137286112Y-38194311D01*
X137543133Y-37988763D01*
X137551733Y-37986273D01*
X137557947Y-37988928D01*
G37*
%TD.AperFunction*%
%TD*%
%TA.AperFunction,Conductor*%
%TO.N,3V3*%
G36*
X137689225Y-38086882D02*
G01*
X137689921Y-38088277D01*
X137789112Y-38325492D01*
X137789142Y-38334447D01*
X137789112Y-38334520D01*
X137689313Y-38573186D01*
X137682960Y-38579496D01*
X137674005Y-38579466D01*
X137673914Y-38579428D01*
X137437095Y-38478037D01*
X137430838Y-38471630D01*
X137430000Y-38467281D01*
X137430000Y-38231709D01*
X137433427Y-38223436D01*
X137435787Y-38221613D01*
X137673218Y-38082692D01*
X137682090Y-38081472D01*
X137689225Y-38086882D01*
G37*
%TD.AperFunction*%
%TD*%
%TA.AperFunction,Conductor*%
%TO.N,3V3*%
G36*
X143525333Y-41853427D02*
G01*
X143527933Y-41857379D01*
X143649822Y-42164080D01*
X143649693Y-42173034D01*
X143643463Y-42179195D01*
X143404514Y-42279112D01*
X143395559Y-42279142D01*
X143395486Y-42279112D01*
X143156536Y-42179195D01*
X143150226Y-42172842D01*
X143150177Y-42164083D01*
X143272067Y-41857378D01*
X143278307Y-41850956D01*
X143282940Y-41850000D01*
X143517060Y-41850000D01*
X143525333Y-41853427D01*
G37*
%TD.AperFunction*%
%TD*%
%TA.AperFunction,Conductor*%
%TO.N,3V3*%
G36*
X135654773Y-34479499D02*
G01*
X135660682Y-34485408D01*
X135936521Y-35102791D01*
X135936767Y-35111743D01*
X135936639Y-35112064D01*
X135778000Y-35492800D01*
X135771655Y-35499119D01*
X135767200Y-35500000D01*
X135532800Y-35500000D01*
X135524527Y-35496573D01*
X135522000Y-35492800D01*
X135363360Y-35112064D01*
X135363341Y-35103109D01*
X135363462Y-35102827D01*
X135639318Y-34485407D01*
X135645821Y-34479253D01*
X135654773Y-34479499D01*
G37*
%TD.AperFunction*%
%TD*%
%TA.AperFunction,Conductor*%
%TO.N,3V3*%
G36*
X138328072Y-38222311D02*
G01*
X138334810Y-38228206D01*
X138336023Y-38233393D01*
X138336023Y-38465842D01*
X138332596Y-38474115D01*
X138327133Y-38477199D01*
X137904973Y-38581663D01*
X137896119Y-38580324D01*
X137891369Y-38574820D01*
X137845800Y-38465842D01*
X137790886Y-38334518D01*
X137790857Y-38325565D01*
X137790856Y-38325565D01*
X137891030Y-38086000D01*
X137897382Y-38079692D01*
X137905570Y-38079433D01*
X138328072Y-38222311D01*
G37*
%TD.AperFunction*%
%TD*%
%TA.AperFunction,Conductor*%
%TO.N,3V3*%
G36*
X136926957Y-37666465D02*
G01*
X137357481Y-37885673D01*
X137363298Y-37892480D01*
X137363455Y-37899196D01*
X137282228Y-38195164D01*
X137276734Y-38202235D01*
X137275389Y-38202890D01*
X137009737Y-38311980D01*
X137000783Y-38311953D01*
X136994998Y-38306717D01*
X136934752Y-38195164D01*
X136746751Y-37847055D01*
X136745836Y-37838149D01*
X136748772Y-37833226D01*
X136913380Y-37668618D01*
X136921652Y-37665192D01*
X136926957Y-37666465D01*
G37*
%TD.AperFunction*%
%TD*%
%TA.AperFunction,Conductor*%
%TO.N,3V3*%
G36*
X146154661Y-37989161D02*
G01*
X146158859Y-37994394D01*
X146441980Y-38692467D01*
X146441914Y-38701421D01*
X146439041Y-38705491D01*
X145877944Y-39219523D01*
X145869529Y-39222585D01*
X145861768Y-39219169D01*
X145695762Y-39053163D01*
X145692422Y-39046313D01*
X145650540Y-38704409D01*
X145652522Y-38696343D01*
X146138389Y-37992145D01*
X146145906Y-37987283D01*
X146154661Y-37989161D01*
G37*
%TD.AperFunction*%
%TD*%
%TA.AperFunction,Conductor*%
%TO.N,/TPWR_C*%
G36*
X143802521Y-39231030D02*
G01*
X143839888Y-39244219D01*
X143954695Y-39284744D01*
X143961355Y-39290729D01*
X143962500Y-39295777D01*
X143962500Y-39404222D01*
X143959073Y-39412495D01*
X143954694Y-39415255D01*
X143802521Y-39468969D01*
X143795258Y-39469141D01*
X143436267Y-39361205D01*
X143429331Y-39355541D01*
X143428431Y-39346631D01*
X143434095Y-39339695D01*
X143436267Y-39338795D01*
X143795259Y-39230858D01*
X143802521Y-39231030D01*
G37*
%TD.AperFunction*%
%TD*%
%TA.AperFunction,Conductor*%
%TO.N,/TPWR_C*%
G36*
X144359273Y-39096735D02*
G01*
X144359418Y-39097069D01*
X144459112Y-39335486D01*
X144459142Y-39344441D01*
X144459112Y-39344514D01*
X144359244Y-39583347D01*
X144352891Y-39589657D01*
X144344011Y-39589658D01*
X143919250Y-39415477D01*
X143912896Y-39409168D01*
X143911989Y-39404652D01*
X143911989Y-39295029D01*
X143915416Y-39286756D01*
X143918838Y-39284382D01*
X144343776Y-39090933D01*
X144352726Y-39090626D01*
X144359273Y-39096735D01*
G37*
%TD.AperFunction*%
%TD*%
%TA.AperFunction,Conductor*%
%TO.N,/TPWR_C*%
G36*
X147517898Y-43406227D02*
G01*
X147763856Y-43631293D01*
X147767647Y-43639407D01*
X147766890Y-43644093D01*
X147637872Y-43982468D01*
X147631723Y-43988978D01*
X147626940Y-43990000D01*
X147393060Y-43990000D01*
X147384787Y-43986573D01*
X147382128Y-43982468D01*
X147253109Y-43644093D01*
X147253363Y-43635142D01*
X147256143Y-43631293D01*
X147502102Y-43406227D01*
X147510518Y-43403170D01*
X147517898Y-43406227D01*
G37*
%TD.AperFunction*%
%TD*%
%TA.AperFunction,Conductor*%
%TO.N,/TPWR_C*%
G36*
X147635213Y-44013427D02*
G01*
X147637872Y-44017532D01*
X147766890Y-44355906D01*
X147766636Y-44364857D01*
X147763856Y-44368706D01*
X147517898Y-44593772D01*
X147509482Y-44596829D01*
X147502102Y-44593772D01*
X147256143Y-44368706D01*
X147252352Y-44360592D01*
X147253108Y-44355909D01*
X147382128Y-44017531D01*
X147388277Y-44011022D01*
X147393060Y-44010000D01*
X147626940Y-44010000D01*
X147635213Y-44013427D01*
G37*
%TD.AperFunction*%
%TD*%
%TA.AperFunction,Conductor*%
%TO.N,/TPWR_C*%
G36*
X147557391Y-44013427D02*
G01*
X147560818Y-44021700D01*
X147557391Y-44029973D01*
X147552248Y-44032974D01*
X147309718Y-44100305D01*
X147300829Y-44099216D01*
X147295314Y-44092161D01*
X147296403Y-44083272D01*
X147299191Y-44079966D01*
X147381772Y-44012631D01*
X147389166Y-44010000D01*
X147549118Y-44010000D01*
X147557391Y-44013427D01*
G37*
%TD.AperFunction*%
%TD*%
%TA.AperFunction,Conductor*%
%TO.N,/TPWR_C*%
G36*
X147517898Y-43406227D02*
G01*
X147763856Y-43631293D01*
X147767647Y-43639407D01*
X147766890Y-43644093D01*
X147637872Y-43982468D01*
X147631723Y-43988978D01*
X147626940Y-43990000D01*
X147393060Y-43990000D01*
X147384787Y-43986573D01*
X147382128Y-43982468D01*
X147253109Y-43644093D01*
X147253363Y-43635142D01*
X147256143Y-43631293D01*
X147502102Y-43406227D01*
X147510518Y-43403170D01*
X147517898Y-43406227D01*
G37*
%TD.AperFunction*%
%TD*%
%TA.AperFunction,Conductor*%
%TO.N,/TPWR_C*%
G36*
X147634486Y-43463427D02*
G01*
X147637449Y-43468439D01*
X147761157Y-43894734D01*
X147760172Y-43903635D01*
X147754435Y-43908789D01*
X147514514Y-44009112D01*
X147505559Y-44009142D01*
X147505486Y-44009112D01*
X147265564Y-43908789D01*
X147259254Y-43902436D01*
X147258842Y-43894737D01*
X147382551Y-43468438D01*
X147388147Y-43461449D01*
X147393787Y-43460000D01*
X147626213Y-43460000D01*
X147634486Y-43463427D01*
G37*
%TD.AperFunction*%
%TD*%
%TA.AperFunction,Conductor*%
%TO.N,/TPWR_C*%
G36*
X147517898Y-43406227D02*
G01*
X147763856Y-43631293D01*
X147767647Y-43639407D01*
X147766890Y-43644093D01*
X147637872Y-43982468D01*
X147631723Y-43988978D01*
X147626940Y-43990000D01*
X147393060Y-43990000D01*
X147384787Y-43986573D01*
X147382128Y-43982468D01*
X147253109Y-43644093D01*
X147253363Y-43635142D01*
X147256143Y-43631293D01*
X147502102Y-43406227D01*
X147510518Y-43403170D01*
X147517898Y-43406227D01*
G37*
%TD.AperFunction*%
%TD*%
%TA.AperFunction,Conductor*%
%TO.N,/TPWR_C*%
G36*
X147564437Y-43426333D02*
G01*
X147569683Y-43433590D01*
X147570000Y-43436294D01*
X147570000Y-43645000D01*
X147740423Y-43873114D01*
X147755048Y-43892690D01*
X147757254Y-43901369D01*
X147752678Y-43909066D01*
X147750137Y-43910509D01*
X147513478Y-44008152D01*
X147504524Y-44008139D01*
X147268592Y-43910026D01*
X147262270Y-43903686D01*
X147262283Y-43894731D01*
X147263119Y-43893096D01*
X147548340Y-43430156D01*
X147555596Y-43424911D01*
X147564437Y-43426333D01*
G37*
%TD.AperFunction*%
%TD*%
%TA.AperFunction,Conductor*%
%TO.N,/TPWR_C*%
G36*
X147780839Y-43187782D02*
G01*
X148045437Y-43391487D01*
X148049902Y-43399249D01*
X148050000Y-43400758D01*
X148050000Y-43635256D01*
X148046573Y-43643529D01*
X148040418Y-43646763D01*
X147684953Y-43712177D01*
X147676196Y-43710304D01*
X147672516Y-43706183D01*
X147513511Y-43408448D01*
X147512637Y-43399538D01*
X147516390Y-43393910D01*
X147766263Y-43188022D01*
X147774826Y-43185407D01*
X147780839Y-43187782D01*
G37*
%TD.AperFunction*%
%TD*%
%TA.AperFunction,Conductor*%
%TO.N,/TPWR_C*%
G36*
X148207514Y-43253910D02*
G01*
X148211835Y-43257147D01*
X148424752Y-43512507D01*
X148427418Y-43521056D01*
X148424752Y-43527493D01*
X148211835Y-43782852D01*
X148203905Y-43787011D01*
X148198561Y-43786245D01*
X147847412Y-43647919D01*
X147840970Y-43641698D01*
X147840000Y-43637033D01*
X147840000Y-43402966D01*
X147843427Y-43394693D01*
X147847411Y-43392080D01*
X148198562Y-43253754D01*
X148207514Y-43253910D01*
G37*
%TD.AperFunction*%
%TD*%
%TA.AperFunction,Conductor*%
%TO.N,Net-(D1-A)*%
G36*
X128969403Y-34137757D02*
G01*
X129194160Y-34392255D01*
X129197068Y-34400725D01*
X129194160Y-34407745D01*
X128969403Y-34662242D01*
X128961358Y-34666175D01*
X128954016Y-34664146D01*
X128665083Y-34465986D01*
X128660198Y-34458480D01*
X128660000Y-34456337D01*
X128660000Y-34343662D01*
X128663427Y-34335389D01*
X128665076Y-34334018D01*
X128954018Y-34135852D01*
X128962776Y-34134000D01*
X128969403Y-34137757D01*
G37*
%TD.AperFunction*%
%TD*%
%TA.AperFunction,Conductor*%
%TO.N,Net-(D1-A)*%
G36*
X128318609Y-34110759D02*
G01*
X128669580Y-34334052D01*
X128674721Y-34341384D01*
X128675000Y-34343923D01*
X128675000Y-34456076D01*
X128671573Y-34464349D01*
X128669580Y-34465948D01*
X128318612Y-34689239D01*
X128309793Y-34690788D01*
X128303038Y-34686474D01*
X128089434Y-34407107D01*
X128087131Y-34398453D01*
X128089434Y-34392893D01*
X128128818Y-34341384D01*
X128303039Y-34113524D01*
X128310785Y-34109035D01*
X128318609Y-34110759D01*
G37*
%TD.AperFunction*%
%TD*%
%TA.AperFunction,Conductor*%
%TO.N,Net-(D2-A)*%
G36*
X136297898Y-44906227D02*
G01*
X136543275Y-45130761D01*
X136547066Y-45138875D01*
X136545894Y-45144519D01*
X136380704Y-45483426D01*
X136373999Y-45489362D01*
X136370187Y-45490000D01*
X136258963Y-45490000D01*
X136250690Y-45486573D01*
X136249059Y-45484529D01*
X136035475Y-45144929D01*
X136033971Y-45136101D01*
X136037479Y-45130070D01*
X136282102Y-44906226D01*
X136290518Y-44903170D01*
X136297898Y-44906227D01*
G37*
%TD.AperFunction*%
%TD*%
%TA.AperFunction,Conductor*%
%TO.N,Net-(D2-A)*%
G36*
X136378993Y-45488427D02*
G01*
X136380871Y-45490882D01*
X136593820Y-45862415D01*
X136594961Y-45871297D01*
X136591035Y-45877323D01*
X136322366Y-46095031D01*
X136313781Y-46097577D01*
X136307634Y-46095031D01*
X136038964Y-45877323D01*
X136034694Y-45869452D01*
X136036178Y-45862416D01*
X136249129Y-45490882D01*
X136256216Y-45485408D01*
X136259280Y-45485000D01*
X136370720Y-45485000D01*
X136378993Y-45488427D01*
G37*
%TD.AperFunction*%
%TD*%
%TA.AperFunction,Conductor*%
%TO.N,Net-(D3-A)*%
G36*
X139774143Y-45488427D02*
G01*
X139775907Y-45490687D01*
X139998553Y-45862343D01*
X139999865Y-45871201D01*
X139995882Y-45877446D01*
X139727366Y-46095031D01*
X139718781Y-46097577D01*
X139712634Y-46095031D01*
X139443811Y-45877199D01*
X139439541Y-45869328D01*
X139440912Y-45862493D01*
X139644171Y-45491082D01*
X139651149Y-45485471D01*
X139654435Y-45485000D01*
X139765870Y-45485000D01*
X139774143Y-45488427D01*
G37*
%TD.AperFunction*%
%TD*%
%TA.AperFunction,Conductor*%
%TO.N,Net-(D3-A)*%
G36*
X139717898Y-44906227D02*
G01*
X139962893Y-45130411D01*
X139966684Y-45138525D01*
X139965211Y-45144745D01*
X139775848Y-45484002D01*
X139768824Y-45489556D01*
X139765632Y-45490000D01*
X139654368Y-45490000D01*
X139646095Y-45486573D01*
X139644152Y-45484002D01*
X139454788Y-45144745D01*
X139453748Y-45135851D01*
X139457104Y-45130413D01*
X139702102Y-44906226D01*
X139710518Y-44903170D01*
X139717898Y-44906227D01*
G37*
%TD.AperFunction*%
%TD*%
%TA.AperFunction,Conductor*%
%TO.N,Net-(D4-A)*%
G36*
X131621075Y-32212328D02*
G01*
X131969580Y-32434052D01*
X131974721Y-32441384D01*
X131975000Y-32443923D01*
X131975000Y-32556076D01*
X131971573Y-32564349D01*
X131969580Y-32565948D01*
X131618612Y-32789239D01*
X131609793Y-32790788D01*
X131603038Y-32786474D01*
X131389434Y-32507107D01*
X131387131Y-32498453D01*
X131389434Y-32492893D01*
X131601840Y-32215093D01*
X131609587Y-32210603D01*
X131611134Y-32210500D01*
X131614795Y-32210500D01*
X131621075Y-32212328D01*
G37*
%TD.AperFunction*%
%TD*%
%TA.AperFunction,Conductor*%
%TO.N,Net-(D4-A)*%
G36*
X132259403Y-32237757D02*
G01*
X132484160Y-32492255D01*
X132487068Y-32500725D01*
X132484160Y-32507745D01*
X132259403Y-32762242D01*
X132251358Y-32766175D01*
X132244016Y-32764146D01*
X131955083Y-32565986D01*
X131950198Y-32558480D01*
X131950000Y-32556337D01*
X131950000Y-32443662D01*
X131953427Y-32435389D01*
X131955076Y-32434018D01*
X132244018Y-32235852D01*
X132252776Y-32234000D01*
X132259403Y-32237757D01*
G37*
%TD.AperFunction*%
%TD*%
%TA.AperFunction,Conductor*%
%TO.N,Net-(J1-DN1)*%
G36*
X133502991Y-40702767D02*
G01*
X133504633Y-40703931D01*
X133599393Y-40784217D01*
X133603490Y-40792180D01*
X133603521Y-40792692D01*
X133607922Y-40906594D01*
X133604817Y-40914994D01*
X133603593Y-40916140D01*
X133504592Y-40996282D01*
X133496005Y-40998824D01*
X133494282Y-40998511D01*
X132967480Y-40861357D01*
X132960337Y-40855956D01*
X132959105Y-40847086D01*
X132964506Y-40839943D01*
X132967471Y-40838714D01*
X133494121Y-40701536D01*
X133502991Y-40702767D01*
G37*
%TD.AperFunction*%
%TD*%
%TA.AperFunction,Conductor*%
%TO.N,/CC2*%
G36*
X133504168Y-42202431D02*
G01*
X133644196Y-42284114D01*
X133649615Y-42291241D01*
X133650000Y-42294219D01*
X133650000Y-42405780D01*
X133646573Y-42414053D01*
X133644195Y-42415886D01*
X133504170Y-42497567D01*
X133495326Y-42498782D01*
X132967475Y-42361321D01*
X132960334Y-42355921D01*
X132959103Y-42347051D01*
X132964504Y-42339909D01*
X132967476Y-42338678D01*
X133495328Y-42201216D01*
X133504168Y-42202431D01*
G37*
%TD.AperFunction*%
%TD*%
%TA.AperFunction,Conductor*%
%TO.N,/CC1*%
G36*
X133494750Y-39204910D02*
G01*
X133500153Y-39212051D01*
X133500524Y-39214582D01*
X133501411Y-39239235D01*
X133526523Y-39358646D01*
X133526281Y-39364412D01*
X133502989Y-39442157D01*
X133497332Y-39449098D01*
X133489742Y-39450320D01*
X132976746Y-39359535D01*
X132969197Y-39354719D01*
X132967264Y-39345975D01*
X132972080Y-39338426D01*
X132975830Y-39336694D01*
X133485880Y-39203682D01*
X133494750Y-39204910D01*
G37*
%TD.AperFunction*%
%TD*%
%TA.AperFunction,Conductor*%
%TO.N,/CC1*%
G36*
X134029219Y-38833558D02*
G01*
X134282561Y-38994339D01*
X134287710Y-39001665D01*
X134287062Y-39008787D01*
X134158291Y-39312243D01*
X134151905Y-39318521D01*
X134146601Y-39319337D01*
X133814977Y-39293186D01*
X133806999Y-39289119D01*
X133804920Y-39285570D01*
X133766440Y-39181224D01*
X133766792Y-39172278D01*
X133767988Y-39170253D01*
X134013528Y-38836503D01*
X134021190Y-38831871D01*
X134029219Y-38833558D01*
G37*
%TD.AperFunction*%
%TD*%
%TA.AperFunction,Conductor*%
%TO.N,Net-(J1-DP1)*%
G36*
X132633758Y-40274620D02*
G01*
X132882151Y-40338382D01*
X132889312Y-40343759D01*
X132890575Y-40352624D01*
X132885198Y-40359785D01*
X132882198Y-40361035D01*
X132355725Y-40498505D01*
X132346854Y-40497280D01*
X132345403Y-40496275D01*
X132241276Y-40411897D01*
X132237834Y-40407286D01*
X132195031Y-40303980D01*
X132195031Y-40295027D01*
X132199939Y-40289400D01*
X132345849Y-40204203D01*
X132354655Y-40202975D01*
X132633758Y-40274620D01*
G37*
%TD.AperFunction*%
%TD*%
%TA.AperFunction,Conductor*%
%TO.N,Net-(J1-DP1)*%
G36*
X132355713Y-41201491D02*
G01*
X132882199Y-41338965D01*
X132889337Y-41344369D01*
X132890562Y-41353240D01*
X132885157Y-41360379D01*
X132882151Y-41361617D01*
X132354656Y-41497023D01*
X132345847Y-41495794D01*
X132199941Y-41410600D01*
X132194525Y-41403469D01*
X132195031Y-41396020D01*
X132237835Y-41292711D01*
X132241273Y-41288105D01*
X132345405Y-41203723D01*
X132353988Y-41201178D01*
X132355713Y-41201491D01*
G37*
%TD.AperFunction*%
%TD*%
%TA.AperFunction,Conductor*%
%TO.N,Net-(J1-DP1)*%
G36*
X135106078Y-40985679D02*
G01*
X135423623Y-41090812D01*
X135430400Y-41096665D01*
X135431053Y-41105596D01*
X135425200Y-41112373D01*
X135425049Y-41112447D01*
X135103418Y-41268343D01*
X135096261Y-41269333D01*
X134957650Y-41244615D01*
X134950107Y-41239789D01*
X134948099Y-41234588D01*
X134934092Y-41125590D01*
X134936437Y-41116948D01*
X134938316Y-41115021D01*
X135095029Y-40987705D01*
X135103608Y-40985149D01*
X135106078Y-40985679D01*
G37*
%TD.AperFunction*%
%TD*%
%TA.AperFunction,Conductor*%
%TO.N,/iRST*%
G36*
X140722805Y-42571595D02*
G01*
X140723705Y-42573767D01*
X140831641Y-42932758D01*
X140831469Y-42940021D01*
X140777755Y-43092194D01*
X140771770Y-43098855D01*
X140766722Y-43100000D01*
X140658278Y-43100000D01*
X140650005Y-43096573D01*
X140647245Y-43092194D01*
X140593530Y-42940021D01*
X140593358Y-42932758D01*
X140701295Y-42573767D01*
X140706959Y-42566831D01*
X140715869Y-42565931D01*
X140722805Y-42571595D01*
G37*
%TD.AperFunction*%
%TD*%
%TA.AperFunction,Conductor*%
%TO.N,/iRST*%
G36*
X140864861Y-44341257D02*
G01*
X141197424Y-44519659D01*
X141203094Y-44526590D01*
X141202391Y-44535135D01*
X141100396Y-44742389D01*
X141093668Y-44748299D01*
X141086984Y-44748553D01*
X140754557Y-44663070D01*
X140747398Y-44657691D01*
X140745771Y-44651797D01*
X140744537Y-44394330D01*
X140747924Y-44386043D01*
X140751756Y-44383469D01*
X140854864Y-44340763D01*
X140863817Y-44340763D01*
X140864861Y-44341257D01*
G37*
%TD.AperFunction*%
%TD*%
%TA.AperFunction,Conductor*%
%TO.N,Net-(Q1-D)*%
G36*
X144497898Y-44606227D02*
G01*
X144743856Y-44831293D01*
X144747647Y-44839407D01*
X144746890Y-44844093D01*
X144617872Y-45182468D01*
X144611723Y-45188978D01*
X144606940Y-45190000D01*
X144373060Y-45190000D01*
X144364787Y-45186573D01*
X144362128Y-45182468D01*
X144233109Y-44844093D01*
X144233363Y-44835142D01*
X144236143Y-44831293D01*
X144482102Y-44606227D01*
X144490518Y-44603170D01*
X144497898Y-44606227D01*
G37*
%TD.AperFunction*%
%TD*%
%TA.AperFunction,Conductor*%
%TO.N,Net-(Q1-D)*%
G36*
X144615213Y-45413427D02*
G01*
X144617872Y-45417532D01*
X144746890Y-45755906D01*
X144746636Y-45764857D01*
X144743856Y-45768706D01*
X144497898Y-45993772D01*
X144489482Y-45996829D01*
X144482102Y-45993772D01*
X144236143Y-45768706D01*
X144232352Y-45760592D01*
X144233108Y-45755909D01*
X144362128Y-45417531D01*
X144368277Y-45411022D01*
X144373060Y-45410000D01*
X144606940Y-45410000D01*
X144615213Y-45413427D01*
G37*
%TD.AperFunction*%
%TD*%
%TA.AperFunction,Conductor*%
%TO.N,Net-(Q1-D)*%
G36*
X144354440Y-45683605D02*
G01*
X144358711Y-45688771D01*
X144375211Y-45727764D01*
X144486956Y-45991844D01*
X144487024Y-46000798D01*
X144482733Y-46006096D01*
X144227954Y-46178312D01*
X144219181Y-46180106D01*
X144213174Y-46176938D01*
X143946128Y-45912813D01*
X143942656Y-45904558D01*
X143946035Y-45896269D01*
X144112031Y-45730273D01*
X144118020Y-45727072D01*
X144345659Y-45681855D01*
X144354440Y-45683605D01*
G37*
%TD.AperFunction*%
%TD*%
%TA.AperFunction,Conductor*%
%TO.N,Net-(Q1-D)*%
G36*
X143451018Y-45244315D02*
G01*
X143683587Y-45379978D01*
X143728870Y-45406393D01*
X143734290Y-45413521D01*
X143733081Y-45422394D01*
X143732703Y-45422999D01*
X143604078Y-45615507D01*
X143596633Y-45620482D01*
X143594688Y-45620702D01*
X143449435Y-45624895D01*
X143442770Y-45623042D01*
X143113108Y-45411097D01*
X143108002Y-45403740D01*
X143109593Y-45394928D01*
X143114624Y-45390590D01*
X143440320Y-45243756D01*
X143449269Y-45243481D01*
X143451018Y-45244315D01*
G37*
%TD.AperFunction*%
%TD*%
%TA.AperFunction,Conductor*%
%TO.N,/RST*%
G36*
X145755793Y-45735021D02*
G01*
X145982441Y-45871535D01*
X145987759Y-45878739D01*
X145988102Y-45881786D01*
X145983462Y-46118584D01*
X145979873Y-46126789D01*
X145977892Y-46128322D01*
X145755837Y-46264835D01*
X145746994Y-46266249D01*
X145740939Y-46262613D01*
X145515839Y-46007724D01*
X145512932Y-45999256D01*
X145515839Y-45992237D01*
X145740987Y-45737297D01*
X145749031Y-45733365D01*
X145755793Y-45735021D01*
G37*
%TD.AperFunction*%
%TD*%
%TA.AperFunction,Conductor*%
%TO.N,/RST*%
G36*
X146944950Y-45804273D02*
G01*
X146948547Y-45810156D01*
X147092583Y-46374910D01*
X147091308Y-46383772D01*
X147084138Y-46389137D01*
X147081247Y-46389500D01*
X145929813Y-46389500D01*
X145921540Y-46386073D01*
X145919863Y-46383955D01*
X145761423Y-46127828D01*
X145759673Y-46121673D01*
X145759673Y-45885990D01*
X145763100Y-45877717D01*
X145770640Y-45874313D01*
X146936479Y-45801370D01*
X146944950Y-45804273D01*
G37*
%TD.AperFunction*%
%TD*%
%TA.AperFunction,Conductor*%
%TO.N,Net-(U3-PB8)*%
G36*
X142222777Y-42571599D02*
G01*
X142223677Y-42573772D01*
X142331535Y-42932406D01*
X142331128Y-42940283D01*
X142284180Y-43052744D01*
X142277830Y-43059059D01*
X142273764Y-43059931D01*
X142163821Y-43063514D01*
X142155441Y-43060358D01*
X142152989Y-43057080D01*
X142094387Y-42940633D01*
X142093633Y-42932006D01*
X142201268Y-42573773D01*
X142206930Y-42566838D01*
X142215840Y-42565937D01*
X142222777Y-42571599D01*
G37*
%TD.AperFunction*%
%TD*%
%TA.AperFunction,Conductor*%
%TO.N,Net-(U3-PB8)*%
G36*
X142447898Y-43686227D02*
G01*
X142692893Y-43910411D01*
X142696684Y-43918525D01*
X142695211Y-43924745D01*
X142505848Y-44264002D01*
X142498824Y-44269556D01*
X142495632Y-44270000D01*
X142384368Y-44270000D01*
X142376095Y-44266573D01*
X142374152Y-44264002D01*
X142184788Y-43924745D01*
X142183748Y-43915851D01*
X142187104Y-43910413D01*
X142432102Y-43686226D01*
X142440518Y-43683170D01*
X142447898Y-43686227D01*
G37*
%TD.AperFunction*%
%TD*%
%TA.AperFunction,Conductor*%
%TO.N,Net-(U3-PB8)*%
G36*
X142500630Y-44187588D02*
G01*
X142503939Y-44194201D01*
X142573092Y-44676688D01*
X142570873Y-44685364D01*
X142563170Y-44689930D01*
X142561553Y-44690048D01*
X142304888Y-44690982D01*
X142296602Y-44687585D01*
X142192561Y-44583008D01*
X142113239Y-44503278D01*
X142109833Y-44494996D01*
X142112720Y-44487331D01*
X142374003Y-44188164D01*
X142382026Y-44184188D01*
X142382815Y-44184161D01*
X142492357Y-44184161D01*
X142500630Y-44187588D01*
G37*
%TD.AperFunction*%
%TD*%
%TA.AperFunction,Conductor*%
%TO.N,Net-(U3-PB8)*%
G36*
X142286231Y-43110916D02*
G01*
X142404438Y-43204754D01*
X142600705Y-43360559D01*
X142605054Y-43368387D01*
X142603745Y-43375246D01*
X142442685Y-43676043D01*
X142435759Y-43681719D01*
X142434504Y-43682024D01*
X142183562Y-43728559D01*
X142174803Y-43726698D01*
X142169925Y-43719188D01*
X142169731Y-43717283D01*
X142163062Y-43375246D01*
X142158161Y-43123870D01*
X142161426Y-43115533D01*
X142169476Y-43111949D01*
X142278575Y-43108386D01*
X142286231Y-43110916D01*
G37*
%TD.AperFunction*%
%TD*%
%TA.AperFunction,Conductor*%
%TO.N,Net-(U3-PB8)*%
G36*
X147856636Y-32834991D02*
G01*
X147859636Y-32837991D01*
X148344839Y-33542506D01*
X148346709Y-33551263D01*
X148344008Y-33556846D01*
X147915996Y-34046004D01*
X147907969Y-34049974D01*
X147907191Y-34050000D01*
X147792809Y-34050000D01*
X147784536Y-34046573D01*
X147784004Y-34046005D01*
X147784003Y-34046004D01*
X147355990Y-33556846D01*
X147353122Y-33548364D01*
X147355158Y-33542509D01*
X147840364Y-32837990D01*
X147847879Y-32833121D01*
X147856636Y-32834991D01*
G37*
%TD.AperFunction*%
%TD*%
%TA.AperFunction,Conductor*%
%TO.N,Net-(U3-PB8)*%
G36*
X147915464Y-36753427D02*
G01*
X147915996Y-36753995D01*
X148344008Y-37243152D01*
X148346877Y-37251635D01*
X148344839Y-37257493D01*
X147859636Y-37962008D01*
X147852121Y-37966878D01*
X147843364Y-37965008D01*
X147840364Y-37962008D01*
X147355160Y-37257493D01*
X147353290Y-37248736D01*
X147355989Y-37243154D01*
X147784004Y-36753994D01*
X147792031Y-36750026D01*
X147792809Y-36750000D01*
X147907191Y-36750000D01*
X147915464Y-36753427D01*
G37*
%TD.AperFunction*%
%TD*%
%TA.AperFunction,Conductor*%
%TO.N,Net-(U3-PB8)*%
G36*
X147913073Y-37428427D02*
G01*
X147915546Y-37432072D01*
X148099389Y-37858901D01*
X148099514Y-37867855D01*
X148093271Y-37874275D01*
X148093157Y-37874323D01*
X147854514Y-37974112D01*
X147845559Y-37974142D01*
X147845486Y-37974112D01*
X147606842Y-37874323D01*
X147600532Y-37867970D01*
X147600562Y-37859015D01*
X147600565Y-37859007D01*
X147784454Y-37432072D01*
X147790874Y-37425829D01*
X147795200Y-37425000D01*
X147904800Y-37425000D01*
X147913073Y-37428427D01*
G37*
%TD.AperFunction*%
%TD*%
%TA.AperFunction,Conductor*%
%TO.N,TPWR*%
G36*
X146258403Y-44336626D02*
G01*
X146387114Y-44482367D01*
X146484160Y-44592255D01*
X146487068Y-44600725D01*
X146484160Y-44607745D01*
X146258405Y-44863372D01*
X146250360Y-44867305D01*
X146244578Y-44866178D01*
X145956643Y-44728183D01*
X145950664Y-44721517D01*
X145950000Y-44717632D01*
X145950000Y-44482367D01*
X145953427Y-44474094D01*
X145956641Y-44471816D01*
X146244579Y-44333820D01*
X146253520Y-44333336D01*
X146258403Y-44336626D01*
G37*
%TD.AperFunction*%
%TD*%
%TA.AperFunction,Conductor*%
%TO.N,TPWR*%
G36*
X146482111Y-44472283D02*
G01*
X146488816Y-44478216D01*
X146490000Y-44483344D01*
X146490000Y-44716655D01*
X146486573Y-44724928D01*
X146482110Y-44727717D01*
X146125610Y-44850494D01*
X146116672Y-44849948D01*
X146111006Y-44843946D01*
X146062405Y-44727717D01*
X146010886Y-44604512D01*
X146010857Y-44595559D01*
X146010856Y-44595559D01*
X146111006Y-44356052D01*
X146117359Y-44349743D01*
X146125610Y-44349505D01*
X146482111Y-44472283D01*
G37*
%TD.AperFunction*%
%TD*%
%TA.AperFunction,Conductor*%
%TO.N,TPWR*%
G36*
X145755420Y-44333820D02*
G01*
X146043357Y-44471816D01*
X146049336Y-44478482D01*
X146050000Y-44482367D01*
X146050000Y-44717632D01*
X146046573Y-44725905D01*
X146043357Y-44728183D01*
X145755421Y-44866178D01*
X145746479Y-44866663D01*
X145741595Y-44863372D01*
X145515838Y-44607743D01*
X145512931Y-44599275D01*
X145515838Y-44592256D01*
X145741596Y-44336625D01*
X145749639Y-44332694D01*
X145755420Y-44333820D01*
G37*
%TD.AperFunction*%
%TD*%
%TA.AperFunction,Conductor*%
%TO.N,TPWR*%
G36*
X145903426Y-44349974D02*
G01*
X145908927Y-44355895D01*
X146009112Y-44595486D01*
X146009142Y-44604441D01*
X146009112Y-44604514D01*
X145908927Y-44844104D01*
X145902574Y-44850414D01*
X145894497Y-44850711D01*
X145518064Y-44727636D01*
X145511265Y-44721808D01*
X145510000Y-44716515D01*
X145510000Y-44483484D01*
X145513427Y-44475211D01*
X145518062Y-44472364D01*
X145894499Y-44349288D01*
X145903426Y-44349974D01*
G37*
%TD.AperFunction*%
%TD*%
%TA.AperFunction,Conductor*%
%TO.N,/iTXD*%
G36*
X140116513Y-35459869D02*
G01*
X140120158Y-35462342D01*
X140197657Y-35539841D01*
X140201084Y-35548114D01*
X140200255Y-35552440D01*
X140028438Y-35984251D01*
X140022195Y-35990671D01*
X140013241Y-35990796D01*
X140013126Y-35990749D01*
X139773819Y-35892563D01*
X139767466Y-35886253D01*
X139767436Y-35886180D01*
X139727940Y-35789918D01*
X139669250Y-35646871D01*
X139669280Y-35637918D01*
X139675633Y-35631608D01*
X139675683Y-35631587D01*
X140107561Y-35459744D01*
X140116513Y-35459869D01*
G37*
%TD.AperFunction*%
%TD*%
%TA.AperFunction,Conductor*%
%TO.N,/iTXD*%
G36*
X137101851Y-38814689D02*
G01*
X137102613Y-38815534D01*
X137257084Y-39004633D01*
X137355103Y-39124624D01*
X137357683Y-39133199D01*
X137357344Y-39135052D01*
X137328747Y-39241849D01*
X137323297Y-39248955D01*
X137318129Y-39250503D01*
X136912340Y-39274276D01*
X136903881Y-39271339D01*
X136899976Y-39263280D01*
X136899956Y-39262660D01*
X136899052Y-39004632D01*
X136902450Y-38996348D01*
X137085306Y-38814636D01*
X137093589Y-38811236D01*
X137101851Y-38814689D01*
G37*
%TD.AperFunction*%
%TD*%
%TA.AperFunction,Conductor*%
%TO.N,/iTXD*%
G36*
X138520023Y-39224944D02*
G01*
X138528281Y-39228409D01*
X138531670Y-39236697D01*
X138531655Y-39237230D01*
X138526462Y-39340758D01*
X138522625Y-39348849D01*
X138516761Y-39351703D01*
X138094225Y-39424405D01*
X138086322Y-39422966D01*
X137962690Y-39350456D01*
X137957287Y-39343315D01*
X137956988Y-39339009D01*
X137969368Y-39232828D01*
X137973730Y-39225007D01*
X137981039Y-39222483D01*
X138520023Y-39224944D01*
G37*
%TD.AperFunction*%
%TD*%
%TA.AperFunction,Conductor*%
%TO.N,/iTXD*%
G36*
X140207084Y-35117534D02*
G01*
X140400108Y-35366999D01*
X140402461Y-35375639D01*
X140398610Y-35382920D01*
X140118087Y-35631247D01*
X140109621Y-35634164D01*
X140102059Y-35630759D01*
X140022739Y-35551439D01*
X140020621Y-35548543D01*
X139895312Y-35306393D01*
X139894553Y-35297471D01*
X139899655Y-35291000D01*
X140191787Y-35114676D01*
X140200639Y-35113336D01*
X140207084Y-35117534D01*
G37*
%TD.AperFunction*%
%TD*%
%TA.AperFunction,Conductor*%
%TO.N,/iRXD*%
G36*
X138151829Y-39725608D02*
G01*
X138482346Y-39835585D01*
X138489114Y-39841449D01*
X138489754Y-39850381D01*
X138483890Y-39857149D01*
X138480711Y-39858204D01*
X138094788Y-39927199D01*
X138086869Y-39925809D01*
X137963018Y-39854135D01*
X137957575Y-39847026D01*
X137957249Y-39842732D01*
X137968946Y-39736422D01*
X137973257Y-39728575D01*
X137980506Y-39726003D01*
X138148070Y-39725011D01*
X138151829Y-39725608D01*
G37*
%TD.AperFunction*%
%TD*%
%TA.AperFunction,Conductor*%
%TO.N,/iRXD*%
G36*
X138969726Y-34857257D02*
G01*
X139193772Y-35102102D01*
X139196829Y-35110518D01*
X139193772Y-35117898D01*
X138969449Y-35363045D01*
X138961335Y-35366836D01*
X138955339Y-35365485D01*
X138616222Y-35185796D01*
X138610516Y-35178895D01*
X138610000Y-35175458D01*
X138610000Y-35064201D01*
X138613427Y-35055928D01*
X138615777Y-35054111D01*
X138955175Y-34855062D01*
X138964045Y-34853833D01*
X138969726Y-34857257D01*
G37*
%TD.AperFunction*%
%TD*%
%TA.AperFunction,Conductor*%
%TO.N,/iRXD*%
G36*
X138635984Y-34870562D02*
G01*
X138636036Y-34870583D01*
X139062929Y-35054454D01*
X139069171Y-35060873D01*
X139070000Y-35065199D01*
X139070000Y-35174800D01*
X139066573Y-35183073D01*
X139062928Y-35185546D01*
X138636098Y-35369389D01*
X138627144Y-35369514D01*
X138620724Y-35363271D01*
X138620676Y-35363157D01*
X138545134Y-35182500D01*
X138520886Y-35124512D01*
X138520857Y-35115559D01*
X138520856Y-35115559D01*
X138620676Y-34876841D01*
X138627029Y-34870532D01*
X138635984Y-34870562D01*
G37*
%TD.AperFunction*%
%TD*%
%TA.AperFunction,Conductor*%
%TO.N,/iRXD*%
G36*
X136453080Y-39068872D02*
G01*
X136458979Y-39074322D01*
X136584586Y-39318769D01*
X136585319Y-39327693D01*
X136584529Y-39329572D01*
X136532251Y-39428733D01*
X136525361Y-39434454D01*
X136522265Y-39434971D01*
X136212025Y-39444625D01*
X136203649Y-39441457D01*
X136199967Y-39433295D01*
X136199961Y-39432969D01*
X136199947Y-39428733D01*
X136199141Y-39177402D01*
X136202541Y-39169118D01*
X136206394Y-39166543D01*
X136444126Y-39068847D01*
X136453080Y-39068872D01*
G37*
%TD.AperFunction*%
%TD*%
%TA.AperFunction,Conductor*%
%TO.N,/xSWD*%
G36*
X143001711Y-35112450D02*
G01*
X143004220Y-35115402D01*
X143023205Y-35147205D01*
X143156632Y-35370714D01*
X143157930Y-35379574D01*
X143153354Y-35386255D01*
X142790563Y-35643538D01*
X142781832Y-35645528D01*
X142778299Y-35644323D01*
X142680616Y-35592345D01*
X142674922Y-35585433D01*
X142674413Y-35581869D01*
X142679866Y-35147202D01*
X142683396Y-35138976D01*
X142690562Y-35135696D01*
X142993176Y-35109743D01*
X143001711Y-35112450D01*
G37*
%TD.AperFunction*%
%TD*%
%TA.AperFunction,Conductor*%
%TO.N,/xSWD*%
G36*
X142664879Y-35621995D02*
G01*
X142761726Y-35673528D01*
X142767420Y-35680440D01*
X142767827Y-35685408D01*
X142691728Y-36254440D01*
X142687235Y-36262186D01*
X142678580Y-36264486D01*
X142677338Y-36264251D01*
X142425237Y-36202284D01*
X142418021Y-36196981D01*
X142417248Y-36195465D01*
X142288034Y-35888839D01*
X142287980Y-35879887D01*
X142292113Y-35874709D01*
X142652682Y-35622733D01*
X142661425Y-35620804D01*
X142664879Y-35621995D01*
G37*
%TD.AperFunction*%
%TD*%
%TA.AperFunction,Conductor*%
%TO.N,/xSWD*%
G36*
X142161968Y-36118577D02*
G01*
X142414940Y-36197494D01*
X142421817Y-36203228D01*
X142422579Y-36205037D01*
X142522219Y-36510798D01*
X142521524Y-36519726D01*
X142516742Y-36524670D01*
X142116784Y-36745061D01*
X142107884Y-36746053D01*
X142102864Y-36743087D01*
X142025310Y-36665533D01*
X142021883Y-36657260D01*
X142022198Y-36654564D01*
X142054062Y-36520000D01*
X142147109Y-36127050D01*
X142152349Y-36119792D01*
X142161189Y-36118364D01*
X142161968Y-36118577D01*
G37*
%TD.AperFunction*%
%TD*%
%TA.AperFunction,Conductor*%
%TO.N,/xSWD*%
G36*
X141721146Y-37118764D02*
G01*
X141821258Y-37160231D01*
X141827590Y-37166563D01*
X141828446Y-37170140D01*
X141837317Y-37285140D01*
X141836751Y-37289742D01*
X141726668Y-37619798D01*
X141720800Y-37626562D01*
X141711867Y-37627195D01*
X141705103Y-37621327D01*
X141704050Y-37618149D01*
X141645526Y-37289742D01*
X141635380Y-37232807D01*
X141637266Y-37224116D01*
X141707041Y-37122930D01*
X141714558Y-37118067D01*
X141721146Y-37118764D01*
G37*
%TD.AperFunction*%
%TD*%
%TA.AperFunction,Conductor*%
%TO.N,/iSWDO*%
G36*
X141336099Y-37107632D02*
G01*
X141343869Y-37112083D01*
X141346310Y-37119424D01*
X141337694Y-37658304D01*
X141334135Y-37666521D01*
X141325808Y-37669816D01*
X141325343Y-37669799D01*
X141221783Y-37664016D01*
X141213713Y-37660133D01*
X141210882Y-37654185D01*
X141143047Y-37230730D01*
X141144569Y-37222857D01*
X141206669Y-37119424D01*
X141218557Y-37099622D01*
X141225754Y-37094294D01*
X141230075Y-37094040D01*
X141336099Y-37107632D01*
G37*
%TD.AperFunction*%
%TD*%
%TA.AperFunction,Conductor*%
%TO.N,/iSWDO*%
G36*
X141407535Y-36208089D02*
G01*
X141407955Y-36208575D01*
X141624563Y-36473255D01*
X141627151Y-36481828D01*
X141624764Y-36487822D01*
X141390730Y-36790455D01*
X141382958Y-36794904D01*
X141379987Y-36794903D01*
X141269768Y-36780772D01*
X141261998Y-36776321D01*
X141260236Y-36773096D01*
X141142885Y-36443979D01*
X141143334Y-36435038D01*
X141146007Y-36431420D01*
X141391006Y-36207350D01*
X141399423Y-36204297D01*
X141407535Y-36208089D01*
G37*
%TD.AperFunction*%
%TD*%
%TA.AperFunction,Conductor*%
%TO.N,/LED0*%
G36*
X140774995Y-37103427D02*
G01*
X140777755Y-37107806D01*
X140831469Y-37259978D01*
X140831641Y-37267241D01*
X140723705Y-37626232D01*
X140718041Y-37633168D01*
X140709131Y-37634068D01*
X140702195Y-37628404D01*
X140701295Y-37626232D01*
X140593358Y-37267241D01*
X140593530Y-37259978D01*
X140647245Y-37107806D01*
X140653230Y-37101145D01*
X140658278Y-37100000D01*
X140766722Y-37100000D01*
X140774995Y-37103427D01*
G37*
%TD.AperFunction*%
%TD*%
%TA.AperFunction,Conductor*%
%TO.N,/LED0*%
G36*
X140860910Y-36739948D02*
G01*
X140869169Y-36743405D01*
X140872566Y-36751691D01*
X140872359Y-36753840D01*
X140776814Y-37254707D01*
X140771897Y-37262192D01*
X140765321Y-37264215D01*
X140655891Y-37264215D01*
X140647618Y-37260788D01*
X140646492Y-37259483D01*
X140411539Y-36942539D01*
X140409365Y-36933852D01*
X140412644Y-36927319D01*
X140596553Y-36742463D01*
X140604813Y-36739017D01*
X140860910Y-36739948D01*
G37*
%TD.AperFunction*%
%TD*%
%TA.AperFunction,Conductor*%
%TO.N,/LED0*%
G36*
X133786677Y-32328858D02*
G01*
X133923942Y-32499613D01*
X134048769Y-32654894D01*
X134051281Y-32663489D01*
X134050437Y-32666755D01*
X134007358Y-32769325D01*
X134000995Y-32775625D01*
X133998005Y-32776406D01*
X133653758Y-32818918D01*
X133645127Y-32816531D01*
X133641553Y-32811875D01*
X133626174Y-32775625D01*
X133512879Y-32508572D01*
X133512804Y-32499620D01*
X133517197Y-32494247D01*
X133771110Y-32326427D01*
X133779899Y-32324725D01*
X133786677Y-32328858D01*
G37*
%TD.AperFunction*%
%TD*%
%TA.AperFunction,Conductor*%
%TO.N,/LED0*%
G36*
X134506535Y-32648458D02*
G01*
X134510038Y-32656699D01*
X134510039Y-32656769D01*
X134510904Y-32915495D01*
X134507505Y-32923779D01*
X134507449Y-32923835D01*
X134323978Y-33106077D01*
X134315694Y-33109476D01*
X134307432Y-33106021D01*
X134307303Y-33105890D01*
X133984291Y-32770295D01*
X133981023Y-32761958D01*
X133981933Y-32757652D01*
X134024377Y-32656596D01*
X134030739Y-32650298D01*
X134035052Y-32649430D01*
X134498231Y-32645109D01*
X134506535Y-32648458D01*
G37*
%TD.AperFunction*%
%TD*%
%TA.AperFunction,Conductor*%
%TO.N,/LED2*%
G36*
X139065216Y-44391704D02*
G01*
X139147389Y-44464239D01*
X139151323Y-44472284D01*
X139150644Y-44477004D01*
X138964033Y-44991010D01*
X138957988Y-44997617D01*
X138949042Y-44998015D01*
X138948931Y-44997974D01*
X138695160Y-44902929D01*
X138688615Y-44896818D01*
X138687888Y-44894709D01*
X138614623Y-44589568D01*
X138616024Y-44580725D01*
X138621359Y-44576098D01*
X139052834Y-44389734D01*
X139061788Y-44389601D01*
X139065216Y-44391704D01*
G37*
%TD.AperFunction*%
%TD*%
%TA.AperFunction,Conductor*%
%TO.N,/SWCLK*%
G36*
X143923748Y-33545872D02*
G01*
X143926020Y-33547605D01*
X143952916Y-33573900D01*
X144202142Y-33817558D01*
X144205662Y-33825792D01*
X144203157Y-33833160D01*
X144006653Y-34082835D01*
X143998843Y-34087217D01*
X143991400Y-34085608D01*
X143698284Y-33908185D01*
X143692981Y-33900970D01*
X143693248Y-33894462D01*
X143798358Y-33580654D01*
X143804234Y-33573900D01*
X143806479Y-33573056D01*
X143914879Y-33544654D01*
X143923748Y-33545872D01*
G37*
%TD.AperFunction*%
%TD*%
%TA.AperFunction,Conductor*%
%TO.N,/SWCLK*%
G36*
X144018914Y-32212470D02*
G01*
X144143508Y-32295665D01*
X144148485Y-32303109D01*
X144148490Y-32307658D01*
X143913381Y-33500203D01*
X143908419Y-33507657D01*
X143904867Y-33509258D01*
X143797168Y-33537476D01*
X143788297Y-33536258D01*
X143786351Y-33534832D01*
X142866472Y-32702035D01*
X142862638Y-32693942D01*
X142864303Y-32687323D01*
X143148311Y-32216159D01*
X143155517Y-32210844D01*
X143158331Y-32210500D01*
X144012417Y-32210500D01*
X144018914Y-32212470D01*
G37*
%TD.AperFunction*%
%TD*%
%TA.AperFunction,Conductor*%
%TO.N,/SWDIO*%
G36*
X142276057Y-32213927D02*
G01*
X142279263Y-32219938D01*
X142477969Y-33228346D01*
X142476207Y-33237126D01*
X142473191Y-33240199D01*
X142382291Y-33303711D01*
X142373547Y-33305640D01*
X142371011Y-33304887D01*
X141192655Y-32803782D01*
X141186383Y-32797391D01*
X141185797Y-32790550D01*
X141308803Y-32219735D01*
X141313895Y-32212370D01*
X141320240Y-32210500D01*
X142267784Y-32210500D01*
X142276057Y-32213927D01*
G37*
%TD.AperFunction*%
%TD*%
%TA.AperFunction,Conductor*%
%TO.N,/SWDIO*%
G36*
X142714880Y-33567361D02*
G01*
X143131231Y-33814366D01*
X143136597Y-33821534D01*
X143135652Y-33829806D01*
X143003700Y-34084773D01*
X142996854Y-34090545D01*
X142993768Y-34091086D01*
X142690390Y-34103007D01*
X142681989Y-34099908D01*
X142678375Y-34093144D01*
X142607069Y-33642332D01*
X142609161Y-33633626D01*
X142611924Y-33630914D01*
X142702210Y-33567831D01*
X142710953Y-33565903D01*
X142714880Y-33567361D01*
G37*
%TD.AperFunction*%
%TD*%
%TA.AperFunction,Conductor*%
%TO.N,/xSWCLK*%
G36*
X144005687Y-35118275D02*
G01*
X144147434Y-35369756D01*
X144148511Y-35378646D01*
X144142987Y-35385693D01*
X144142936Y-35385722D01*
X143796826Y-35578532D01*
X143787931Y-35579565D01*
X143784631Y-35578039D01*
X143691692Y-35515930D01*
X143686718Y-35508484D01*
X143686497Y-35506493D01*
X143683496Y-35385722D01*
X143680197Y-35252956D01*
X143683417Y-35244602D01*
X143687324Y-35241896D01*
X143990931Y-35113246D01*
X143999885Y-35113175D01*
X144005687Y-35118275D01*
G37*
%TD.AperFunction*%
%TD*%
%TA.AperFunction,Conductor*%
%TO.N,/RXD*%
G36*
X139144062Y-33542955D02*
G01*
X139147582Y-33545459D01*
X139411322Y-33819157D01*
X139414595Y-33827492D01*
X139411919Y-33834725D01*
X139206778Y-34083147D01*
X139198867Y-34087344D01*
X139191699Y-34085707D01*
X138898922Y-33908569D01*
X138893618Y-33901355D01*
X138894193Y-33894025D01*
X139023008Y-33587829D01*
X139029374Y-33581534D01*
X139029724Y-33581398D01*
X139135116Y-33542597D01*
X139144062Y-33542955D01*
G37*
%TD.AperFunction*%
%TD*%
%TA.AperFunction,Conductor*%
%TO.N,/TXD*%
G36*
X140078141Y-33547247D02*
G01*
X140080761Y-33548978D01*
X140121685Y-33584782D01*
X140384210Y-33814458D01*
X140388180Y-33822485D01*
X140386038Y-33830049D01*
X140206626Y-34082096D01*
X140199036Y-34086849D01*
X140191037Y-34085321D01*
X139897388Y-33907641D01*
X139892084Y-33900426D01*
X139892000Y-33895207D01*
X139956261Y-33592163D01*
X139961329Y-33584782D01*
X139963843Y-33583547D01*
X140069202Y-33546741D01*
X140078141Y-33547247D01*
G37*
%TD.AperFunction*%
%TD*%
%TA.AperFunction,Conductor*%
%TO.N,/TXD*%
G36*
X140018893Y-32212469D02*
G01*
X140144244Y-32296157D01*
X140149222Y-32303601D01*
X140149405Y-32306893D01*
X140049892Y-33461405D01*
X140045767Y-33469353D01*
X140042094Y-33471445D01*
X139937201Y-33508088D01*
X139928260Y-33507582D01*
X139926221Y-33506326D01*
X138943997Y-32752895D01*
X138939518Y-32745141D01*
X138940605Y-32738478D01*
X139121814Y-32367656D01*
X139195405Y-32217063D01*
X139202116Y-32211135D01*
X139205917Y-32210500D01*
X140012397Y-32210500D01*
X140018893Y-32212469D01*
G37*
%TD.AperFunction*%
%TD*%
%TA.AperFunction,Conductor*%
%TO.N,/D_P*%
G36*
X138516623Y-40848456D02*
G01*
X138524295Y-40853074D01*
X138526563Y-40859317D01*
X138532851Y-40962904D01*
X138529931Y-40971370D01*
X138521881Y-40975292D01*
X138521471Y-40975309D01*
X137982672Y-40989070D01*
X137974314Y-40985856D01*
X137970783Y-40978973D01*
X137970278Y-40975309D01*
X137956178Y-40873090D01*
X137958442Y-40864429D01*
X137961657Y-40861516D01*
X138084549Y-40786290D01*
X138092394Y-40784700D01*
X138516623Y-40848456D01*
G37*
%TD.AperFunction*%
%TD*%
%TA.AperFunction,Conductor*%
%TO.N,/D_P*%
G36*
X137447829Y-40946187D02*
G01*
X137455679Y-40950494D01*
X137458076Y-40955784D01*
X137477058Y-41063352D01*
X137475121Y-41072095D01*
X137472782Y-41074571D01*
X137304860Y-41207026D01*
X137296242Y-41209459D01*
X137294095Y-41208998D01*
X136977076Y-41109022D01*
X136970217Y-41103266D01*
X136969437Y-41094345D01*
X136975193Y-41087486D01*
X136975452Y-41087355D01*
X137296973Y-40931467D01*
X137303345Y-40930366D01*
X137447829Y-40946187D01*
G37*
%TD.AperFunction*%
%TD*%
%TA.AperFunction,Conductor*%
%TO.N,/D_N*%
G36*
X138151846Y-40225614D02*
G01*
X138418236Y-40314252D01*
X138482452Y-40335620D01*
X138489220Y-40341484D01*
X138489860Y-40350416D01*
X138483996Y-40357184D01*
X138480831Y-40358237D01*
X138094889Y-40427706D01*
X138086966Y-40426324D01*
X137963078Y-40354802D01*
X137957627Y-40347698D01*
X137957297Y-40343405D01*
X137968872Y-40237055D01*
X137973174Y-40229202D01*
X137980389Y-40226623D01*
X138148048Y-40225018D01*
X138151846Y-40225614D01*
G37*
%TD.AperFunction*%
%TD*%
%TA.AperFunction,Conductor*%
%TO.N,/D_N*%
G36*
X137302999Y-40000082D02*
G01*
X137304766Y-40001272D01*
X137473541Y-40138832D01*
X137477789Y-40146715D01*
X137477617Y-40150222D01*
X137456070Y-40256689D01*
X137451070Y-40264118D01*
X137444920Y-40266064D01*
X137302854Y-40269922D01*
X137297431Y-40268754D01*
X136976348Y-40113054D01*
X136970399Y-40106360D01*
X136970925Y-40097421D01*
X136977619Y-40091472D01*
X136978163Y-40091298D01*
X137294098Y-39999109D01*
X137302999Y-40000082D01*
G37*
%TD.AperFunction*%
%TD*%
%TA.AperFunction,Conductor*%
%TO.N,Net-(U3-PF1)*%
G36*
X143815491Y-40739974D02*
G01*
X143957240Y-40802604D01*
X143963422Y-40809082D01*
X143964205Y-40813686D01*
X143960694Y-40921853D01*
X143957000Y-40930010D01*
X143951781Y-40932838D01*
X143802014Y-40969484D01*
X143795863Y-40969323D01*
X143438231Y-40861766D01*
X143431296Y-40856102D01*
X143430397Y-40847192D01*
X143436061Y-40840257D01*
X143438540Y-40839269D01*
X143807709Y-40739383D01*
X143815491Y-40739974D01*
G37*
%TD.AperFunction*%
%TD*%
%TA.AperFunction,Conductor*%
%TO.N,Net-(U3-PF1)*%
G36*
X147004120Y-41313625D02*
G01*
X147006047Y-41316822D01*
X147196123Y-41789516D01*
X147196030Y-41798470D01*
X147189633Y-41804736D01*
X147189247Y-41804884D01*
X147010461Y-41869537D01*
X147001515Y-41869128D01*
X146995694Y-41863062D01*
X146971277Y-41804884D01*
X146826360Y-41459586D01*
X146826319Y-41450632D01*
X146829587Y-41446131D01*
X146918422Y-41370883D01*
X146987632Y-41312258D01*
X146996157Y-41309527D01*
X147004120Y-41313625D01*
G37*
%TD.AperFunction*%
%TD*%
%TA.AperFunction,Conductor*%
%TO.N,Net-(U3-PF0)*%
G36*
X144605651Y-41448129D02*
G01*
X144606232Y-41449070D01*
X144795190Y-41790166D01*
X144796201Y-41799064D01*
X144790625Y-41806071D01*
X144790571Y-41806100D01*
X144609487Y-41905177D01*
X144600584Y-41906142D01*
X144594079Y-41901317D01*
X144422887Y-41639586D01*
X144421227Y-41630787D01*
X144422263Y-41627854D01*
X144474784Y-41525280D01*
X144478584Y-41520961D01*
X144589390Y-41445085D01*
X144598149Y-41443240D01*
X144605651Y-41448129D01*
G37*
%TD.AperFunction*%
%TD*%
M02*
