%TF.GenerationSoftware,KiCad,Pcbnew,8.0.0-rc2-74-g5f063dd458*%
%TF.CreationDate,2024-01-29T02:35:24+02:00*%
%TF.ProjectId,SamoProg,53616d6f-5072-46f6-972e-6b696361645f,rev?*%
%TF.SameCoordinates,Original*%
%TF.FileFunction,Legend,Bot*%
%TF.FilePolarity,Positive*%
%FSLAX46Y46*%
G04 Gerber Fmt 4.6, Leading zero omitted, Abs format (unit mm)*
G04 Created by KiCad (PCBNEW 8.0.0-rc2-74-g5f063dd458) date 2024-01-29 02:35:24*
%MOMM*%
%LPD*%
G01*
G04 APERTURE LIST*
%ADD10C,0.000000*%
%ADD11C,0.150000*%
%ADD12C,0.250000*%
G04 APERTURE END LIST*
D10*
G36*
X146453246Y-34774463D02*
G01*
X146463053Y-34777443D01*
X146472467Y-34781952D01*
X146481725Y-34787888D01*
X146488763Y-34793116D01*
X146495325Y-34798251D01*
X146501408Y-34803345D01*
X146507012Y-34808448D01*
X146512136Y-34813614D01*
X146516777Y-34818894D01*
X146520936Y-34824339D01*
X146524610Y-34830001D01*
X146527798Y-34835932D01*
X146530499Y-34842183D01*
X146532712Y-34848806D01*
X146534435Y-34855853D01*
X146535668Y-34863375D01*
X146536408Y-34871425D01*
X146536654Y-34880053D01*
X146536406Y-34889312D01*
X146535662Y-34899253D01*
X146534420Y-34909927D01*
X146532679Y-34921387D01*
X146530439Y-34933685D01*
X146527697Y-34946871D01*
X146524453Y-34960997D01*
X146520705Y-34976116D01*
X146516452Y-34992279D01*
X146511692Y-35009537D01*
X146506425Y-35027942D01*
X146494362Y-35068401D01*
X146480252Y-35114070D01*
X146464086Y-35165360D01*
X146443705Y-35225298D01*
X146434057Y-35251688D01*
X146424730Y-35275769D01*
X146415691Y-35297596D01*
X146406912Y-35317227D01*
X146398359Y-35334719D01*
X146390003Y-35350128D01*
X146381812Y-35363511D01*
X146373756Y-35374926D01*
X146365803Y-35384428D01*
X146357922Y-35392075D01*
X146350083Y-35397924D01*
X146342254Y-35402032D01*
X146334404Y-35404454D01*
X146326503Y-35405249D01*
X146319593Y-35404660D01*
X146311490Y-35402936D01*
X146292059Y-35396333D01*
X146268917Y-35385948D01*
X146242773Y-35372287D01*
X146214335Y-35355855D01*
X146184310Y-35337160D01*
X146153407Y-35316709D01*
X146122333Y-35295006D01*
X146091796Y-35272560D01*
X146062505Y-35249875D01*
X146035168Y-35227460D01*
X146010491Y-35205820D01*
X145989184Y-35185461D01*
X145971954Y-35166890D01*
X145959510Y-35150613D01*
X145955303Y-35143494D01*
X145952559Y-35137138D01*
X145952215Y-35134929D01*
X145952498Y-35132280D01*
X145953394Y-35129205D01*
X145954887Y-35125721D01*
X145956965Y-35121841D01*
X145959612Y-35117581D01*
X145966559Y-35107979D01*
X145975615Y-35097033D01*
X145986665Y-35084862D01*
X145999596Y-35071586D01*
X146014295Y-35057322D01*
X146030647Y-35042190D01*
X146048539Y-35026309D01*
X146067857Y-35009798D01*
X146088488Y-34992775D01*
X146110318Y-34975359D01*
X146133233Y-34957669D01*
X146157120Y-34939825D01*
X146181864Y-34921944D01*
X146251469Y-34872197D01*
X146281284Y-34851529D01*
X146308092Y-34833529D01*
X146332131Y-34818091D01*
X146353637Y-34805114D01*
X146372848Y-34794492D01*
X146390003Y-34786124D01*
X146405339Y-34779906D01*
X146419093Y-34775734D01*
X146431504Y-34773505D01*
X146442810Y-34773116D01*
X146453246Y-34774463D01*
G37*
G36*
X145939747Y-34068457D02*
G01*
X145941650Y-34069157D01*
X145947198Y-34071901D01*
X145954958Y-34076360D01*
X145964796Y-34082443D01*
X145990165Y-34099103D01*
X146022232Y-34121138D01*
X146059922Y-34147803D01*
X146102159Y-34178354D01*
X146147868Y-34212047D01*
X146195975Y-34248138D01*
X146262500Y-34300000D01*
X146290334Y-34322467D01*
X146314762Y-34342892D01*
X146335945Y-34361477D01*
X146354043Y-34378425D01*
X146369216Y-34393935D01*
X146381624Y-34408211D01*
X146391428Y-34421453D01*
X146398788Y-34433863D01*
X146403863Y-34445643D01*
X146405595Y-34451359D01*
X146406815Y-34456993D01*
X146407544Y-34462571D01*
X146407803Y-34468117D01*
X146406987Y-34479214D01*
X146404528Y-34490487D01*
X146400586Y-34502138D01*
X146398554Y-34508248D01*
X146396396Y-34514018D01*
X146394072Y-34519461D01*
X146391540Y-34524586D01*
X146388756Y-34529407D01*
X146385680Y-34533935D01*
X146382270Y-34538180D01*
X146378483Y-34542156D01*
X146374277Y-34545874D01*
X146369611Y-34549344D01*
X146364442Y-34552580D01*
X146358729Y-34555592D01*
X146352429Y-34558392D01*
X146345500Y-34560992D01*
X146337901Y-34563404D01*
X146329590Y-34565638D01*
X146320524Y-34567707D01*
X146310662Y-34569622D01*
X146299961Y-34571396D01*
X146288380Y-34573038D01*
X146275876Y-34574562D01*
X146262408Y-34575979D01*
X146247934Y-34577300D01*
X146232411Y-34578537D01*
X146198052Y-34580805D01*
X146158996Y-34582877D01*
X146114906Y-34584846D01*
X146065448Y-34586805D01*
X145755003Y-34597388D01*
X145779698Y-34456277D01*
X145784581Y-34427424D01*
X145791149Y-34396773D01*
X145799185Y-34364841D01*
X145808471Y-34332143D01*
X145818791Y-34299198D01*
X145829927Y-34266521D01*
X145841663Y-34234630D01*
X145853781Y-34204041D01*
X145866064Y-34175271D01*
X145878296Y-34148837D01*
X145890259Y-34125255D01*
X145901737Y-34105043D01*
X145912511Y-34088716D01*
X145922366Y-34076793D01*
X145926881Y-34072644D01*
X145931084Y-34069789D01*
X145934949Y-34068293D01*
X145938448Y-34068221D01*
X145939747Y-34068457D01*
G37*
G36*
X146727381Y-33715719D02*
G01*
X146793879Y-33719192D01*
X146822546Y-33721796D01*
X146847064Y-33724980D01*
X146866610Y-33728742D01*
X146880364Y-33733083D01*
X146882555Y-33734343D01*
X146884498Y-33736139D01*
X146886193Y-33738469D01*
X146887640Y-33741330D01*
X146888839Y-33744721D01*
X146889790Y-33748640D01*
X146890493Y-33753084D01*
X146890947Y-33758053D01*
X146891154Y-33763543D01*
X146891113Y-33769553D01*
X146890286Y-33783126D01*
X146888467Y-33798756D01*
X146885656Y-33816426D01*
X146881852Y-33836123D01*
X146877057Y-33857829D01*
X146871269Y-33881531D01*
X146864489Y-33907211D01*
X146856717Y-33934856D01*
X146847953Y-33964448D01*
X146838196Y-33995973D01*
X146827447Y-34029416D01*
X146799894Y-34115481D01*
X146777011Y-34182158D01*
X146766818Y-34208987D01*
X146757188Y-34231884D01*
X146747920Y-34251153D01*
X146738812Y-34267100D01*
X146729663Y-34280028D01*
X146720271Y-34290244D01*
X146710434Y-34298051D01*
X146699951Y-34303756D01*
X146688621Y-34307662D01*
X146676242Y-34310074D01*
X146662613Y-34311298D01*
X146647531Y-34311638D01*
X146633030Y-34311299D01*
X146626277Y-34310818D01*
X146619825Y-34310081D01*
X146613650Y-34309049D01*
X146607727Y-34307685D01*
X146602033Y-34305951D01*
X146596543Y-34303811D01*
X146591235Y-34301226D01*
X146586083Y-34298159D01*
X146581065Y-34294573D01*
X146576155Y-34290430D01*
X146571331Y-34285693D01*
X146566568Y-34280324D01*
X146561843Y-34274286D01*
X146557131Y-34267541D01*
X146552409Y-34260052D01*
X146547653Y-34251781D01*
X146542839Y-34242692D01*
X146537942Y-34232745D01*
X146532940Y-34221905D01*
X146527808Y-34210134D01*
X146522522Y-34197393D01*
X146517058Y-34183646D01*
X146505502Y-34152983D01*
X146492949Y-34117845D01*
X146479208Y-34077931D01*
X146464086Y-34032944D01*
X146438255Y-33952776D01*
X146418832Y-33888360D01*
X146411458Y-33861503D01*
X146405609Y-33837917D01*
X146401259Y-33817380D01*
X146398382Y-33799669D01*
X146396951Y-33784563D01*
X146396941Y-33771840D01*
X146398327Y-33761276D01*
X146401082Y-33752651D01*
X146405181Y-33745741D01*
X146410598Y-33740324D01*
X146417306Y-33736179D01*
X146425281Y-33733083D01*
X146439655Y-33728742D01*
X146459739Y-33724980D01*
X146484711Y-33721796D01*
X146513751Y-33719192D01*
X146580744Y-33715719D01*
X146654145Y-33714562D01*
X146727381Y-33715719D01*
G37*
G36*
X146697974Y-34426383D02*
G01*
X146708172Y-34427751D01*
X146718086Y-34429543D01*
X146727670Y-34431763D01*
X146736876Y-34434419D01*
X146745658Y-34437514D01*
X146753970Y-34441056D01*
X146761766Y-34445051D01*
X146768998Y-34449503D01*
X146775620Y-34454419D01*
X146781586Y-34459805D01*
X146791763Y-34471018D01*
X146800494Y-34482783D01*
X146807820Y-34495032D01*
X146813784Y-34507698D01*
X146818428Y-34520713D01*
X146821793Y-34534010D01*
X146823922Y-34547519D01*
X146824857Y-34561173D01*
X146824639Y-34574905D01*
X146823311Y-34588647D01*
X146820914Y-34602331D01*
X146817491Y-34615888D01*
X146813084Y-34629252D01*
X146807734Y-34642354D01*
X146801483Y-34655127D01*
X146794375Y-34667503D01*
X146786449Y-34679413D01*
X146777749Y-34690791D01*
X146768317Y-34701568D01*
X146758194Y-34711676D01*
X146747423Y-34721048D01*
X146736045Y-34729615D01*
X146724102Y-34737311D01*
X146711637Y-34744067D01*
X146698691Y-34749815D01*
X146685307Y-34754487D01*
X146671526Y-34758016D01*
X146657391Y-34760334D01*
X146642942Y-34761373D01*
X146628224Y-34761065D01*
X146613276Y-34759343D01*
X146598142Y-34756138D01*
X146588687Y-34753467D01*
X146579513Y-34750105D01*
X146570633Y-34746085D01*
X146562058Y-34741441D01*
X146553801Y-34736205D01*
X146545874Y-34730411D01*
X146538289Y-34724090D01*
X146531059Y-34717277D01*
X146524196Y-34710004D01*
X146517712Y-34702304D01*
X146511619Y-34694210D01*
X146505931Y-34685755D01*
X146500658Y-34676971D01*
X146495813Y-34667893D01*
X146491409Y-34658552D01*
X146487458Y-34648982D01*
X146483972Y-34639215D01*
X146480963Y-34629285D01*
X146478444Y-34619225D01*
X146476427Y-34609067D01*
X146474924Y-34598844D01*
X146473947Y-34588590D01*
X146473509Y-34578337D01*
X146473622Y-34568119D01*
X146474299Y-34557967D01*
X146475551Y-34547916D01*
X146477391Y-34537997D01*
X146479830Y-34528245D01*
X146482883Y-34518692D01*
X146486560Y-34509370D01*
X146490873Y-34500314D01*
X146495836Y-34491555D01*
X146500521Y-34485086D01*
X146505944Y-34478912D01*
X146512060Y-34473039D01*
X146518822Y-34467474D01*
X146526183Y-34462220D01*
X146534098Y-34457286D01*
X146542518Y-34452675D01*
X146551399Y-34448395D01*
X146560693Y-34444450D01*
X146570354Y-34440847D01*
X146590590Y-34434690D01*
X146611736Y-34429969D01*
X146633420Y-34426732D01*
X146655269Y-34425024D01*
X146676911Y-34424892D01*
X146697974Y-34426383D01*
G37*
G36*
X146861124Y-34772378D02*
G01*
X146867252Y-34773069D01*
X146873638Y-34774206D01*
X146880309Y-34775803D01*
X146887290Y-34777869D01*
X146894606Y-34780417D01*
X146902284Y-34783459D01*
X146910350Y-34787006D01*
X146918830Y-34791070D01*
X146927748Y-34795662D01*
X146937132Y-34800794D01*
X146947006Y-34806478D01*
X146968331Y-34819547D01*
X146991930Y-34834962D01*
X147018010Y-34852816D01*
X147046776Y-34873203D01*
X147078437Y-34896214D01*
X147113198Y-34921944D01*
X147159755Y-34957695D01*
X147200234Y-34989840D01*
X147234679Y-35018822D01*
X147249650Y-35032265D01*
X147263128Y-35045085D01*
X147275118Y-35057337D01*
X147285625Y-35069075D01*
X147294653Y-35080356D01*
X147302209Y-35091236D01*
X147308298Y-35101769D01*
X147312924Y-35112011D01*
X147316092Y-35122019D01*
X147317809Y-35131847D01*
X147318078Y-35141550D01*
X147316906Y-35151186D01*
X147314297Y-35160808D01*
X147310257Y-35170473D01*
X147304790Y-35180236D01*
X147297903Y-35190153D01*
X147289599Y-35200279D01*
X147279885Y-35210670D01*
X147268765Y-35221382D01*
X147256245Y-35232469D01*
X147227023Y-35255994D01*
X147192262Y-35281689D01*
X147152003Y-35309999D01*
X147115648Y-35334614D01*
X147083080Y-35355440D01*
X147053955Y-35372329D01*
X147040574Y-35379250D01*
X147027925Y-35385130D01*
X147015962Y-35389951D01*
X147004643Y-35393694D01*
X146993926Y-35396340D01*
X146983765Y-35397870D01*
X146974119Y-35398266D01*
X146964944Y-35397509D01*
X146956196Y-35395580D01*
X146947833Y-35392461D01*
X146939811Y-35388133D01*
X146932086Y-35382576D01*
X146924616Y-35375773D01*
X146917358Y-35367705D01*
X146910267Y-35358352D01*
X146903301Y-35347696D01*
X146896416Y-35335719D01*
X146889569Y-35322402D01*
X146882718Y-35307725D01*
X146875817Y-35291670D01*
X146861699Y-35255353D01*
X146846867Y-35213300D01*
X146830975Y-35165360D01*
X146799687Y-35066948D01*
X146787327Y-35025702D01*
X146777122Y-34989247D01*
X146769045Y-34957195D01*
X146763072Y-34929158D01*
X146759177Y-34904748D01*
X146757333Y-34883579D01*
X146757515Y-34865262D01*
X146759696Y-34849411D01*
X146763852Y-34835636D01*
X146769956Y-34823552D01*
X146777982Y-34812769D01*
X146787905Y-34802902D01*
X146799698Y-34793561D01*
X146813336Y-34784360D01*
X146818302Y-34781551D01*
X146823293Y-34779084D01*
X146828335Y-34776971D01*
X146833456Y-34775224D01*
X146838679Y-34773854D01*
X146844032Y-34772873D01*
X146849540Y-34772292D01*
X146855229Y-34772123D01*
X146861124Y-34772378D01*
G37*
G36*
X147364403Y-34064858D02*
G01*
X147365276Y-34065344D01*
X147366285Y-34066144D01*
X147367425Y-34067250D01*
X147370080Y-34070344D01*
X147373206Y-34074560D01*
X147376765Y-34079831D01*
X147380723Y-34086088D01*
X147385042Y-34093265D01*
X147389687Y-34101294D01*
X147394621Y-34110109D01*
X147399809Y-34119643D01*
X147410799Y-34140596D01*
X147422367Y-34163616D01*
X147434225Y-34188166D01*
X147446393Y-34215603D01*
X147458810Y-34246925D01*
X147471060Y-34281059D01*
X147482732Y-34316930D01*
X147493412Y-34353462D01*
X147502686Y-34389580D01*
X147506667Y-34407148D01*
X147510141Y-34424210D01*
X147513058Y-34440631D01*
X147515364Y-34456277D01*
X147540059Y-34597388D01*
X147229614Y-34586805D01*
X147136066Y-34582877D01*
X147062651Y-34578537D01*
X147032654Y-34575979D01*
X147006682Y-34573038D01*
X146984400Y-34569622D01*
X146965472Y-34565638D01*
X146949561Y-34560992D01*
X146936333Y-34555592D01*
X146925451Y-34549344D01*
X146916579Y-34542156D01*
X146909381Y-34533935D01*
X146903522Y-34524586D01*
X146898665Y-34514018D01*
X146894475Y-34502138D01*
X146892329Y-34496253D01*
X146890536Y-34490487D01*
X146889117Y-34484816D01*
X146888095Y-34479214D01*
X146887491Y-34473656D01*
X146887328Y-34468117D01*
X146887628Y-34462571D01*
X146888412Y-34456993D01*
X146889702Y-34451359D01*
X146891521Y-34445643D01*
X146893890Y-34439819D01*
X146896832Y-34433863D01*
X146900367Y-34427749D01*
X146904519Y-34421453D01*
X146909310Y-34414949D01*
X146914760Y-34408211D01*
X146920892Y-34401215D01*
X146927729Y-34393935D01*
X146935292Y-34386347D01*
X146943602Y-34378425D01*
X146952683Y-34370143D01*
X146962555Y-34361477D01*
X146984764Y-34342892D01*
X147010404Y-34322467D01*
X147039652Y-34300000D01*
X147072681Y-34275291D01*
X147109670Y-34248138D01*
X147204920Y-34176315D01*
X147284295Y-34118051D01*
X147315549Y-34095761D01*
X147339857Y-34078970D01*
X147356228Y-34068380D01*
X147361127Y-34065630D01*
X147363670Y-34064694D01*
X147364403Y-34064858D01*
G37*
G36*
X148474920Y-35726277D02*
G01*
X148473201Y-35727920D01*
X148466796Y-35729540D01*
X148440359Y-35732706D01*
X148336013Y-35738679D01*
X148168830Y-35744074D01*
X147945753Y-35748767D01*
X147359701Y-35755546D01*
X146633420Y-35758027D01*
X145323291Y-35753617D01*
X144924377Y-35749097D01*
X144777808Y-35743916D01*
X144797302Y-35708638D01*
X144848364Y-35708638D01*
X144884841Y-35711270D01*
X144989365Y-35713819D01*
X145373121Y-35718339D01*
X145940763Y-35721537D01*
X146633420Y-35722749D01*
X147326352Y-35720269D01*
X147890632Y-35713489D01*
X148269041Y-35703401D01*
X148370664Y-35697428D01*
X148404364Y-35690999D01*
X148109629Y-35148438D01*
X147501694Y-34062489D01*
X146899712Y-32999691D01*
X146622836Y-32526583D01*
X146601118Y-32561530D01*
X146546328Y-32656669D01*
X146352079Y-33001069D01*
X145726781Y-34121138D01*
X145106333Y-35237680D01*
X144848364Y-35708638D01*
X144797302Y-35708638D01*
X145695472Y-34083215D01*
X146626364Y-32417221D01*
X146646401Y-32448337D01*
X146701330Y-32542457D01*
X146900649Y-32892589D01*
X147193895Y-33413378D01*
X147550642Y-34050582D01*
X148455461Y-35690999D01*
X148474920Y-35726277D01*
G37*
D11*
X148205357Y-35994271D02*
X148162500Y-35951414D01*
X148162500Y-35951414D02*
X148076786Y-35908557D01*
X148076786Y-35908557D02*
X147862500Y-35908557D01*
X147862500Y-35908557D02*
X147776786Y-35951414D01*
X147776786Y-35951414D02*
X147733928Y-35994271D01*
X147733928Y-35994271D02*
X147691071Y-36079985D01*
X147691071Y-36079985D02*
X147691071Y-36165700D01*
X147691071Y-36165700D02*
X147733928Y-36294271D01*
X147733928Y-36294271D02*
X148248214Y-36808557D01*
X148248214Y-36808557D02*
X147691071Y-36808557D01*
X147133928Y-35908557D02*
X147048214Y-35908557D01*
X147048214Y-35908557D02*
X146962500Y-35951414D01*
X146962500Y-35951414D02*
X146919643Y-35994271D01*
X146919643Y-35994271D02*
X146876785Y-36079985D01*
X146876785Y-36079985D02*
X146833928Y-36251414D01*
X146833928Y-36251414D02*
X146833928Y-36465700D01*
X146833928Y-36465700D02*
X146876785Y-36637128D01*
X146876785Y-36637128D02*
X146919643Y-36722842D01*
X146919643Y-36722842D02*
X146962500Y-36765700D01*
X146962500Y-36765700D02*
X147048214Y-36808557D01*
X147048214Y-36808557D02*
X147133928Y-36808557D01*
X147133928Y-36808557D02*
X147219643Y-36765700D01*
X147219643Y-36765700D02*
X147262500Y-36722842D01*
X147262500Y-36722842D02*
X147305357Y-36637128D01*
X147305357Y-36637128D02*
X147348214Y-36465700D01*
X147348214Y-36465700D02*
X147348214Y-36251414D01*
X147348214Y-36251414D02*
X147305357Y-36079985D01*
X147305357Y-36079985D02*
X147262500Y-35994271D01*
X147262500Y-35994271D02*
X147219643Y-35951414D01*
X147219643Y-35951414D02*
X147133928Y-35908557D01*
X146491071Y-35994271D02*
X146448214Y-35951414D01*
X146448214Y-35951414D02*
X146362500Y-35908557D01*
X146362500Y-35908557D02*
X146148214Y-35908557D01*
X146148214Y-35908557D02*
X146062500Y-35951414D01*
X146062500Y-35951414D02*
X146019642Y-35994271D01*
X146019642Y-35994271D02*
X145976785Y-36079985D01*
X145976785Y-36079985D02*
X145976785Y-36165700D01*
X145976785Y-36165700D02*
X146019642Y-36294271D01*
X146019642Y-36294271D02*
X146533928Y-36808557D01*
X146533928Y-36808557D02*
X145976785Y-36808557D01*
X145205357Y-36208557D02*
X145205357Y-36808557D01*
X145419642Y-35865700D02*
X145633928Y-36508557D01*
X145633928Y-36508557D02*
X145076785Y-36508557D01*
D12*
G36*
X130438843Y-39900158D02*
G01*
X130481830Y-39923789D01*
X130518710Y-39958105D01*
X130549729Y-39998039D01*
X130549729Y-40343886D01*
X130516610Y-40382878D01*
X130486470Y-40405191D01*
X130439402Y-40422934D01*
X130403428Y-40426441D01*
X130353496Y-40418908D01*
X130309229Y-40393509D01*
X130283016Y-40362693D01*
X130261249Y-40315481D01*
X130249640Y-40267098D01*
X130243714Y-40217024D01*
X130241739Y-40159727D01*
X130243053Y-40109360D01*
X130247594Y-40059968D01*
X130257326Y-40009827D01*
X130258347Y-40006099D01*
X130277231Y-39957663D01*
X130307196Y-39919637D01*
X130351885Y-39896796D01*
X130389506Y-39892281D01*
X130438843Y-39900158D01*
G37*
G36*
X137152590Y-39900158D02*
G01*
X137195577Y-39923789D01*
X137232458Y-39958105D01*
X137263476Y-39998039D01*
X137263476Y-40343886D01*
X137230358Y-40382878D01*
X137200218Y-40405191D01*
X137153150Y-40422934D01*
X137117175Y-40426441D01*
X137067243Y-40418908D01*
X137022976Y-40393509D01*
X136996763Y-40362693D01*
X136974996Y-40315481D01*
X136963387Y-40267098D01*
X136957461Y-40217024D01*
X136955486Y-40159727D01*
X136956800Y-40109360D01*
X136961341Y-40059968D01*
X136971073Y-40009827D01*
X136972095Y-40006099D01*
X136990978Y-39957663D01*
X137020943Y-39919637D01*
X137065632Y-39896796D01*
X137103253Y-39892281D01*
X137152590Y-39900158D01*
G37*
G36*
X127076932Y-40176687D02*
G01*
X127125322Y-40184791D01*
X127170927Y-40202619D01*
X127183818Y-40211263D01*
X127216209Y-40248649D01*
X127230461Y-40296694D01*
X127231202Y-40312379D01*
X127224225Y-40361323D01*
X127199450Y-40402260D01*
X127154069Y-40427342D01*
X127105416Y-40433279D01*
X127055433Y-40426179D01*
X127012360Y-40408122D01*
X126971144Y-40377897D01*
X126938843Y-40337536D01*
X126938843Y-40174382D01*
X127025549Y-40174382D01*
X127076932Y-40176687D01*
G37*
G36*
X129612207Y-39894781D02*
G01*
X129656548Y-39916935D01*
X129682178Y-39939909D01*
X129710357Y-39982966D01*
X129727759Y-40034181D01*
X129736048Y-40083430D01*
X129737866Y-40103796D01*
X129395437Y-40103796D01*
X129399055Y-40054672D01*
X129409147Y-40006634D01*
X129430139Y-39958311D01*
X129440134Y-39943572D01*
X129476908Y-39909340D01*
X129523848Y-39890908D01*
X129560790Y-39887397D01*
X129612207Y-39894781D01*
G37*
G36*
X132112242Y-40176687D02*
G01*
X132160632Y-40184791D01*
X132206238Y-40202619D01*
X132219129Y-40211263D01*
X132251520Y-40248649D01*
X132265772Y-40296694D01*
X132266512Y-40312379D01*
X132259535Y-40361323D01*
X132234760Y-40402260D01*
X132189380Y-40427342D01*
X132140727Y-40433279D01*
X132090743Y-40426179D01*
X132047670Y-40408122D01*
X132006454Y-40377897D01*
X131974153Y-40337536D01*
X131974153Y-40174382D01*
X132060860Y-40174382D01*
X132112242Y-40176687D01*
G37*
G36*
X140062936Y-40956639D02*
G01*
X126603794Y-40956639D01*
X126603794Y-40441828D01*
X126728794Y-40441828D01*
X126763721Y-40548318D01*
X126811631Y-40538554D01*
X126857754Y-40518276D01*
X126895767Y-40483620D01*
X126917105Y-40445980D01*
X126953635Y-40483304D01*
X126997340Y-40512323D01*
X127019931Y-40522916D01*
X127067845Y-40538693D01*
X127118163Y-40547188D01*
X127153044Y-40548806D01*
X127206075Y-40544853D01*
X127258801Y-40530953D01*
X127304186Y-40507045D01*
X127304489Y-40506796D01*
X127595123Y-40506796D01*
X127642255Y-40526145D01*
X127676212Y-40536106D01*
X127727503Y-40545631D01*
X127777993Y-40548757D01*
X127785633Y-40548806D01*
X127838237Y-40544898D01*
X127890044Y-40531160D01*
X127934047Y-40507529D01*
X127959045Y-40486280D01*
X127988916Y-40447301D01*
X128003793Y-40413007D01*
X128597496Y-40413007D01*
X128605923Y-40461283D01*
X128615326Y-40481395D01*
X128647769Y-40519297D01*
X128664174Y-40530488D01*
X128712324Y-40547357D01*
X128733295Y-40548806D01*
X128782001Y-40540148D01*
X128801927Y-40530488D01*
X128839478Y-40497819D01*
X128850532Y-40481395D01*
X128866951Y-40433426D01*
X128868361Y-40413007D01*
X128859934Y-40364637D01*
X128850532Y-40344863D01*
X128818214Y-40307411D01*
X128801927Y-40296259D01*
X128754030Y-40279390D01*
X128733295Y-40277941D01*
X128684148Y-40286599D01*
X128664174Y-40296259D01*
X128626398Y-40328675D01*
X128615326Y-40344863D01*
X128598906Y-40392410D01*
X128597496Y-40413007D01*
X128003793Y-40413007D01*
X128009011Y-40400980D01*
X128019330Y-40347318D01*
X128020839Y-40314333D01*
X128020839Y-40140921D01*
X129243518Y-40140921D01*
X129244740Y-40178290D01*
X129247182Y-40210774D01*
X129737133Y-40210774D01*
X129731120Y-40259538D01*
X129717166Y-40308685D01*
X129704893Y-40334361D01*
X129675491Y-40373659D01*
X129635847Y-40403274D01*
X129633086Y-40404703D01*
X129586435Y-40421556D01*
X129535389Y-40427173D01*
X129486151Y-40423470D01*
X129437654Y-40411357D01*
X129434760Y-40410321D01*
X129388354Y-40389987D01*
X129344405Y-40364603D01*
X129341460Y-40362693D01*
X129273560Y-40456482D01*
X129315017Y-40485620D01*
X129361350Y-40510017D01*
X129394949Y-40523649D01*
X129443653Y-40537972D01*
X129494723Y-40546349D01*
X129543204Y-40548806D01*
X129598403Y-40545753D01*
X129649206Y-40536594D01*
X129695612Y-40521329D01*
X129737622Y-40499958D01*
X129779258Y-40469310D01*
X129814867Y-40432595D01*
X129844448Y-40389814D01*
X129858278Y-40363426D01*
X129876336Y-40317997D01*
X129889235Y-40269148D01*
X129896975Y-40216880D01*
X129899555Y-40161193D01*
X129899452Y-40158995D01*
X130077119Y-40158995D01*
X130077146Y-40159727D01*
X130079134Y-40213781D01*
X130085179Y-40265546D01*
X130095254Y-40314287D01*
X130109359Y-40360006D01*
X130129967Y-40406608D01*
X130158666Y-40451364D01*
X130193470Y-40488726D01*
X130205102Y-40498492D01*
X130247621Y-40525025D01*
X130296102Y-40541731D01*
X130344833Y-40548364D01*
X130362151Y-40548806D01*
X130410864Y-40544891D01*
X130461269Y-40530828D01*
X130506057Y-40506537D01*
X130545228Y-40472019D01*
X130549729Y-40466985D01*
X130549729Y-40814298D01*
X130706533Y-40831639D01*
X130706533Y-40530000D01*
X130888494Y-40530000D01*
X131027712Y-40530000D01*
X131027712Y-40002191D01*
X131029727Y-39952304D01*
X131035772Y-39918904D01*
X131077538Y-39893747D01*
X131126151Y-39907387D01*
X131131271Y-39910355D01*
X131169231Y-39943939D01*
X131186714Y-39966531D01*
X131186714Y-40530000D01*
X131313232Y-40530000D01*
X131313232Y-40002191D01*
X131315247Y-39952304D01*
X131321292Y-39918904D01*
X131363058Y-39893747D01*
X131410555Y-39906463D01*
X131417280Y-39910355D01*
X131454799Y-39943939D01*
X131472234Y-39966531D01*
X131472234Y-40530000D01*
X131612185Y-40530000D01*
X131612185Y-40441828D01*
X131764105Y-40441828D01*
X131799031Y-40548318D01*
X131846941Y-40538554D01*
X131893065Y-40518276D01*
X131931078Y-40483620D01*
X131952416Y-40445980D01*
X131988946Y-40483304D01*
X132032650Y-40512323D01*
X132055242Y-40522916D01*
X132103156Y-40538693D01*
X132153473Y-40547188D01*
X132188354Y-40548806D01*
X132241386Y-40544853D01*
X132294112Y-40530953D01*
X132295921Y-40530000D01*
X132541774Y-40530000D01*
X132733504Y-40530000D01*
X133051264Y-40125289D01*
X132755975Y-39790921D01*
X132573037Y-39790921D01*
X132871990Y-40121137D01*
X132541774Y-40530000D01*
X132295921Y-40530000D01*
X132339497Y-40507045D01*
X132365675Y-40485547D01*
X132397317Y-40446815D01*
X132418603Y-40401784D01*
X132429534Y-40350455D01*
X132431132Y-40319218D01*
X132425453Y-40264202D01*
X132408417Y-40215903D01*
X132380024Y-40174321D01*
X132340273Y-40139455D01*
X132296664Y-40114902D01*
X132245552Y-40096379D01*
X132195769Y-40085302D01*
X132140474Y-40078656D01*
X132090184Y-40076502D01*
X132079666Y-40076441D01*
X131974153Y-40076441D01*
X131974153Y-40028080D01*
X131981248Y-39976704D01*
X132007065Y-39933753D01*
X132017140Y-39925254D01*
X132061532Y-39903716D01*
X132110373Y-39894855D01*
X132138529Y-39893747D01*
X132190030Y-39897468D01*
X132226700Y-39903272D01*
X132276317Y-39914228D01*
X132324563Y-39928520D01*
X132335144Y-39932093D01*
X132373735Y-39821695D01*
X132326393Y-39805512D01*
X132275537Y-39791545D01*
X132237936Y-39783593D01*
X132189484Y-39776003D01*
X132140095Y-39771733D01*
X132114837Y-39771137D01*
X132061803Y-39773455D01*
X132006637Y-39782021D01*
X131958694Y-39796897D01*
X131912745Y-39821627D01*
X131893309Y-39837083D01*
X131857889Y-39878039D01*
X131834061Y-39926993D01*
X131822612Y-39977224D01*
X131820036Y-40019043D01*
X131820036Y-40174382D01*
X131820036Y-40348771D01*
X131813802Y-40397247D01*
X131806847Y-40412030D01*
X131765921Y-40441207D01*
X131764105Y-40441828D01*
X131612185Y-40441828D01*
X131612185Y-39790921D01*
X131493972Y-39790921D01*
X131483469Y-39870544D01*
X131450558Y-39830671D01*
X131414837Y-39798981D01*
X131371049Y-39777255D01*
X131325200Y-39771137D01*
X131275741Y-39779342D01*
X131248996Y-39792142D01*
X131214559Y-39828193D01*
X131198438Y-39865659D01*
X131165587Y-39827618D01*
X131128585Y-39797515D01*
X131082875Y-39776933D01*
X131036017Y-39771137D01*
X130986844Y-39778293D01*
X130960546Y-39789455D01*
X130924138Y-39822829D01*
X130907789Y-39853203D01*
X130893940Y-39903789D01*
X130888965Y-39955772D01*
X130888494Y-39980453D01*
X130888494Y-40530000D01*
X130706533Y-40530000D01*
X130706533Y-39790921D01*
X130570001Y-39790921D01*
X130560232Y-39885931D01*
X130526801Y-39846936D01*
X130486243Y-39813839D01*
X130462534Y-39799958D01*
X130416442Y-39781297D01*
X130364910Y-39771841D01*
X130346031Y-39771137D01*
X130294030Y-39774943D01*
X130243502Y-39788100D01*
X130196737Y-39813426D01*
X130189227Y-39819253D01*
X130152568Y-39856811D01*
X130125854Y-39899019D01*
X130105437Y-39948908D01*
X130103742Y-39954319D01*
X130090872Y-40005762D01*
X130082969Y-40055511D01*
X130078393Y-40109046D01*
X130077119Y-40158995D01*
X129899452Y-40158995D01*
X129897021Y-40106986D01*
X129889419Y-40055741D01*
X129876748Y-40007457D01*
X129859010Y-39962135D01*
X129833323Y-39915554D01*
X129802149Y-39874731D01*
X129765489Y-39839665D01*
X129742751Y-39822672D01*
X129697842Y-39797760D01*
X129648297Y-39781001D01*
X129594116Y-39772395D01*
X129562011Y-39771137D01*
X129508690Y-39774692D01*
X129459735Y-39785356D01*
X129410462Y-39805545D01*
X129392262Y-39816078D01*
X129350989Y-39847686D01*
X129316013Y-39886641D01*
X129289918Y-39927981D01*
X129282353Y-39943084D01*
X129263580Y-39992011D01*
X129252051Y-40039913D01*
X129245377Y-40091967D01*
X129244928Y-40103796D01*
X129243518Y-40140921D01*
X128020839Y-40140921D01*
X128020839Y-39609448D01*
X128244077Y-39609448D01*
X128244077Y-39493921D01*
X127864035Y-39493921D01*
X127864035Y-40328499D01*
X127854220Y-40376576D01*
X127833016Y-40401039D01*
X127786686Y-40419300D01*
X127751927Y-40422288D01*
X127702191Y-40417612D01*
X127691355Y-40415205D01*
X127643763Y-40400818D01*
X127635179Y-40397620D01*
X127595123Y-40506796D01*
X127304489Y-40506796D01*
X127330364Y-40485547D01*
X127362006Y-40446815D01*
X127383292Y-40401784D01*
X127394223Y-40350455D01*
X127395821Y-40319218D01*
X127390143Y-40264202D01*
X127373107Y-40215903D01*
X127344713Y-40174321D01*
X127304963Y-40139455D01*
X127261354Y-40114902D01*
X127210241Y-40096379D01*
X127160459Y-40085302D01*
X127105164Y-40078656D01*
X127054873Y-40076502D01*
X127044356Y-40076441D01*
X126938843Y-40076441D01*
X126938843Y-40028080D01*
X126945937Y-39976704D01*
X126971755Y-39933753D01*
X126981830Y-39925254D01*
X127026222Y-39903716D01*
X127075063Y-39894855D01*
X127103218Y-39893747D01*
X127154719Y-39897468D01*
X127191390Y-39903272D01*
X127241007Y-39914228D01*
X127289252Y-39928520D01*
X127299834Y-39932093D01*
X127338424Y-39821695D01*
X127291082Y-39805512D01*
X127240226Y-39791545D01*
X127202625Y-39783593D01*
X127154173Y-39776003D01*
X127104785Y-39771733D01*
X127079527Y-39771137D01*
X127026493Y-39773455D01*
X126971326Y-39782021D01*
X126923383Y-39796897D01*
X126877435Y-39821627D01*
X126857998Y-39837083D01*
X126822578Y-39878039D01*
X126798750Y-39926993D01*
X126787302Y-39977224D01*
X126784726Y-40019043D01*
X126784726Y-40174382D01*
X126784726Y-40348771D01*
X126778492Y-40397247D01*
X126771536Y-40412030D01*
X126730610Y-40441207D01*
X126728794Y-40441828D01*
X126603794Y-40441828D01*
X126603794Y-39476580D01*
X133062500Y-39476580D01*
X133062500Y-40530000D01*
X133219303Y-40530000D01*
X133219303Y-39493921D01*
X133062500Y-39476580D01*
X126603794Y-39476580D01*
X126603794Y-39451179D01*
X133478934Y-39451179D01*
X134072688Y-40678988D01*
X134197252Y-40623056D01*
X133630282Y-39451179D01*
X134178934Y-39451179D01*
X134772688Y-40678988D01*
X134897252Y-40623056D01*
X134800118Y-40422288D01*
X135321013Y-40422288D01*
X135330050Y-40470954D01*
X135357161Y-40511926D01*
X135397705Y-40539586D01*
X135447042Y-40548806D01*
X135496074Y-40539586D01*
X135536680Y-40511926D01*
X135563974Y-40470954D01*
X135573072Y-40422288D01*
X135562801Y-40371928D01*
X135536680Y-40334361D01*
X135514450Y-40319218D01*
X135986086Y-40319218D01*
X135991512Y-40370692D01*
X136009808Y-40419012D01*
X136032004Y-40449888D01*
X136070346Y-40484246D01*
X136112675Y-40509163D01*
X136152416Y-40524870D01*
X136200024Y-40537493D01*
X136249731Y-40545440D01*
X136301537Y-40548713D01*
X136312151Y-40548806D01*
X136361930Y-40546959D01*
X136413736Y-40540465D01*
X136466086Y-40527767D01*
X136490204Y-40519253D01*
X136538787Y-40496978D01*
X136581771Y-40471124D01*
X136615989Y-40444515D01*
X136532702Y-40349504D01*
X136492277Y-40377587D01*
X136447083Y-40400715D01*
X136433295Y-40406413D01*
X136386319Y-40420645D01*
X136336279Y-40427622D01*
X136312151Y-40428394D01*
X136261272Y-40424719D01*
X136212679Y-40411142D01*
X136195403Y-40402260D01*
X136160249Y-40366325D01*
X136151927Y-40329720D01*
X136163090Y-40281120D01*
X136164628Y-40278429D01*
X136201638Y-40245921D01*
X136214942Y-40239106D01*
X136262569Y-40220849D01*
X136311113Y-40206595D01*
X136329736Y-40201737D01*
X136377668Y-40187831D01*
X136425153Y-40170818D01*
X136452406Y-40158995D01*
X136790867Y-40158995D01*
X136790894Y-40159727D01*
X136792882Y-40213781D01*
X136798927Y-40265546D01*
X136809002Y-40314287D01*
X136823107Y-40360006D01*
X136843715Y-40406608D01*
X136872413Y-40451364D01*
X136907218Y-40488726D01*
X136918850Y-40498492D01*
X136961368Y-40525025D01*
X137009849Y-40541731D01*
X137058581Y-40548364D01*
X137075898Y-40548806D01*
X137124611Y-40544891D01*
X137175017Y-40530828D01*
X137219805Y-40506537D01*
X137258975Y-40472019D01*
X137263476Y-40466985D01*
X137263476Y-40814298D01*
X137420280Y-40831639D01*
X137420280Y-40490921D01*
X137642053Y-40490921D01*
X137686688Y-40514307D01*
X137735965Y-40531684D01*
X137739506Y-40532686D01*
X137790022Y-40543706D01*
X137842408Y-40548554D01*
X137857719Y-40548806D01*
X137911076Y-40545616D01*
X137964813Y-40534155D01*
X138010826Y-40514360D01*
X138041755Y-40490921D01*
X138481271Y-40490921D01*
X138525907Y-40514307D01*
X138575183Y-40531684D01*
X138578724Y-40532686D01*
X138629240Y-40543706D01*
X138681627Y-40548554D01*
X138696938Y-40548806D01*
X138750294Y-40545616D01*
X138804031Y-40534155D01*
X138813689Y-40530000D01*
X139345647Y-40530000D01*
X139502451Y-40530000D01*
X139502451Y-40015380D01*
X139507313Y-39964403D01*
X139527852Y-39919881D01*
X139571320Y-39894903D01*
X139608941Y-39890816D01*
X139657634Y-39899017D01*
X139675863Y-39906692D01*
X139717328Y-39932803D01*
X139734726Y-39947725D01*
X139768204Y-39983932D01*
X139781132Y-40001458D01*
X139781132Y-40530000D01*
X139937936Y-40530000D01*
X139937936Y-39495387D01*
X139781132Y-39478534D01*
X139781132Y-39881046D01*
X139745297Y-39843975D01*
X139705203Y-39814460D01*
X139676107Y-39798981D01*
X139626567Y-39780953D01*
X139575978Y-39772116D01*
X139552276Y-39771137D01*
X139503458Y-39774755D01*
X139451795Y-39789452D01*
X139406977Y-39818678D01*
X139396938Y-39829023D01*
X139367736Y-39874163D01*
X139351707Y-39924767D01*
X139345847Y-39978101D01*
X139345647Y-39990956D01*
X139345647Y-40530000D01*
X138813689Y-40530000D01*
X138850044Y-40514360D01*
X138892576Y-40482128D01*
X138924927Y-40441142D01*
X138946689Y-40393471D01*
X138957146Y-40345485D01*
X138959499Y-40306029D01*
X138959499Y-39904982D01*
X139123874Y-39904982D01*
X139123874Y-39790921D01*
X138959499Y-39790921D01*
X138959499Y-39625568D01*
X138802695Y-39606762D01*
X138802695Y-39790921D01*
X138553323Y-39790921D01*
X138570908Y-39904982D01*
X138802695Y-39904982D01*
X138802695Y-40304563D01*
X138796148Y-40353726D01*
X138772897Y-40393224D01*
X138727319Y-40416725D01*
X138675200Y-40422288D01*
X138624721Y-40418081D01*
X138600462Y-40412519D01*
X138554237Y-40395348D01*
X138537936Y-40387117D01*
X138481271Y-40490921D01*
X138041755Y-40490921D01*
X138053358Y-40482128D01*
X138085708Y-40441142D01*
X138107471Y-40393471D01*
X138117928Y-40345485D01*
X138120280Y-40306029D01*
X138120280Y-39904982D01*
X138284656Y-39904982D01*
X138284656Y-39790921D01*
X138120280Y-39790921D01*
X138120280Y-39625568D01*
X137963476Y-39606762D01*
X137963476Y-39790921D01*
X137714105Y-39790921D01*
X137731690Y-39904982D01*
X137963476Y-39904982D01*
X137963476Y-40304563D01*
X137956929Y-40353726D01*
X137933679Y-40393224D01*
X137888101Y-40416725D01*
X137835982Y-40422288D01*
X137785502Y-40418081D01*
X137761243Y-40412519D01*
X137715019Y-40395348D01*
X137698717Y-40387117D01*
X137642053Y-40490921D01*
X137420280Y-40490921D01*
X137420280Y-39790921D01*
X137283749Y-39790921D01*
X137273979Y-39885931D01*
X137240548Y-39846936D01*
X137199991Y-39813839D01*
X137176282Y-39799958D01*
X137130189Y-39781297D01*
X137078658Y-39771841D01*
X137059778Y-39771137D01*
X137007777Y-39774943D01*
X136957249Y-39788100D01*
X136910484Y-39813426D01*
X136902974Y-39819253D01*
X136866316Y-39856811D01*
X136839602Y-39899019D01*
X136819184Y-39948908D01*
X136817489Y-39954319D01*
X136804620Y-40005762D01*
X136796716Y-40055511D01*
X136792140Y-40109046D01*
X136790867Y-40158995D01*
X136452406Y-40158995D01*
X136457475Y-40156796D01*
X136500792Y-40131198D01*
X136536620Y-40097234D01*
X136542472Y-40089630D01*
X136564035Y-40045727D01*
X136572249Y-39995357D01*
X136572513Y-39983384D01*
X136566628Y-39934250D01*
X136547127Y-39887286D01*
X136536854Y-39872009D01*
X136502761Y-39836779D01*
X136458430Y-39808481D01*
X136434516Y-39797759D01*
X136385736Y-39782602D01*
X136336582Y-39774283D01*
X136282849Y-39771163D01*
X136277224Y-39771137D01*
X136226754Y-39773088D01*
X136175071Y-39779834D01*
X136123566Y-39792818D01*
X136114802Y-39795806D01*
X136065664Y-39815807D01*
X136022295Y-39839174D01*
X135996589Y-39856622D01*
X136062290Y-39955296D01*
X136104819Y-39930760D01*
X136150890Y-39910731D01*
X136157301Y-39908401D01*
X136204705Y-39895879D01*
X136257158Y-39890369D01*
X136273072Y-39890083D01*
X136323218Y-39893243D01*
X136371700Y-39907287D01*
X136380539Y-39912554D01*
X136410453Y-39952425D01*
X136413023Y-39972149D01*
X136396659Y-40018066D01*
X136353868Y-40046221D01*
X136339506Y-40052260D01*
X136290535Y-40069235D01*
X136242747Y-40083730D01*
X136224712Y-40088897D01*
X136177370Y-40103306D01*
X136130727Y-40120869D01*
X136099171Y-40135303D01*
X136056782Y-40161750D01*
X136021638Y-40197556D01*
X136015884Y-40205645D01*
X135994496Y-40252374D01*
X135986552Y-40302163D01*
X135986086Y-40319218D01*
X135514450Y-40319218D01*
X135496074Y-40306700D01*
X135447042Y-40297480D01*
X135397705Y-40306700D01*
X135357161Y-40334361D01*
X135328956Y-40377423D01*
X135321013Y-40422288D01*
X134800118Y-40422288D01*
X134559646Y-39925254D01*
X135321013Y-39925254D01*
X135330050Y-39973492D01*
X135357161Y-40014647D01*
X135397705Y-40042674D01*
X135447042Y-40052016D01*
X135496074Y-40042674D01*
X135536680Y-40014647D01*
X135563974Y-39973492D01*
X135573072Y-39925254D01*
X135563729Y-39876894D01*
X135556463Y-39862240D01*
X135522975Y-39824661D01*
X135511034Y-39816810D01*
X135464231Y-39801011D01*
X135447042Y-39799958D01*
X135397705Y-39809178D01*
X135357161Y-39836838D01*
X135328956Y-39880038D01*
X135321013Y-39925254D01*
X134559646Y-39925254D01*
X134302276Y-39393293D01*
X134178934Y-39451179D01*
X133630282Y-39451179D01*
X133602276Y-39393293D01*
X133478934Y-39451179D01*
X126603794Y-39451179D01*
X126603794Y-39268293D01*
X140062936Y-39268293D01*
X140062936Y-40956639D01*
G37*
D11*
X140992800Y-37877254D02*
X140945180Y-37734397D01*
X140945180Y-37734397D02*
X140945180Y-37496302D01*
X140945180Y-37496302D02*
X140992800Y-37401064D01*
X140992800Y-37401064D02*
X141040419Y-37353445D01*
X141040419Y-37353445D02*
X141135657Y-37305826D01*
X141135657Y-37305826D02*
X141230895Y-37305826D01*
X141230895Y-37305826D02*
X141326133Y-37353445D01*
X141326133Y-37353445D02*
X141373752Y-37401064D01*
X141373752Y-37401064D02*
X141421371Y-37496302D01*
X141421371Y-37496302D02*
X141468990Y-37686778D01*
X141468990Y-37686778D02*
X141516609Y-37782016D01*
X141516609Y-37782016D02*
X141564228Y-37829635D01*
X141564228Y-37829635D02*
X141659466Y-37877254D01*
X141659466Y-37877254D02*
X141754704Y-37877254D01*
X141754704Y-37877254D02*
X141849942Y-37829635D01*
X141849942Y-37829635D02*
X141897561Y-37782016D01*
X141897561Y-37782016D02*
X141945180Y-37686778D01*
X141945180Y-37686778D02*
X141945180Y-37448683D01*
X141945180Y-37448683D02*
X141897561Y-37305826D01*
X141945180Y-36972492D02*
X140945180Y-36734397D01*
X140945180Y-36734397D02*
X141659466Y-36543921D01*
X141659466Y-36543921D02*
X140945180Y-36353445D01*
X140945180Y-36353445D02*
X141945180Y-36115350D01*
X140945180Y-35734397D02*
X141945180Y-35734397D01*
X141945180Y-35734397D02*
X141945180Y-35496302D01*
X141945180Y-35496302D02*
X141897561Y-35353445D01*
X141897561Y-35353445D02*
X141802323Y-35258207D01*
X141802323Y-35258207D02*
X141707085Y-35210588D01*
X141707085Y-35210588D02*
X141516609Y-35162969D01*
X141516609Y-35162969D02*
X141373752Y-35162969D01*
X141373752Y-35162969D02*
X141183276Y-35210588D01*
X141183276Y-35210588D02*
X141088038Y-35258207D01*
X141088038Y-35258207D02*
X140992800Y-35353445D01*
X140992800Y-35353445D02*
X140945180Y-35496302D01*
X140945180Y-35496302D02*
X140945180Y-35734397D01*
X140945180Y-34734397D02*
X141945180Y-34734397D01*
X141945180Y-34067731D02*
X141945180Y-33877255D01*
X141945180Y-33877255D02*
X141897561Y-33782017D01*
X141897561Y-33782017D02*
X141802323Y-33686779D01*
X141802323Y-33686779D02*
X141611847Y-33639160D01*
X141611847Y-33639160D02*
X141278514Y-33639160D01*
X141278514Y-33639160D02*
X141088038Y-33686779D01*
X141088038Y-33686779D02*
X140992800Y-33782017D01*
X140992800Y-33782017D02*
X140945180Y-33877255D01*
X140945180Y-33877255D02*
X140945180Y-34067731D01*
X140945180Y-34067731D02*
X140992800Y-34162969D01*
X140992800Y-34162969D02*
X141088038Y-34258207D01*
X141088038Y-34258207D02*
X141278514Y-34305826D01*
X141278514Y-34305826D02*
X141611847Y-34305826D01*
X141611847Y-34305826D02*
X141802323Y-34258207D01*
X141802323Y-34258207D02*
X141897561Y-34162969D01*
X141897561Y-34162969D02*
X141945180Y-34067731D01*
X139945180Y-35067731D02*
X139945180Y-34496303D01*
X138945180Y-34782017D02*
X139945180Y-34782017D01*
X139945180Y-34258207D02*
X138945180Y-33591541D01*
X139945180Y-33591541D02*
X138945180Y-34258207D01*
X142992800Y-38353445D02*
X142945180Y-38210588D01*
X142945180Y-38210588D02*
X142945180Y-37972493D01*
X142945180Y-37972493D02*
X142992800Y-37877255D01*
X142992800Y-37877255D02*
X143040419Y-37829636D01*
X143040419Y-37829636D02*
X143135657Y-37782017D01*
X143135657Y-37782017D02*
X143230895Y-37782017D01*
X143230895Y-37782017D02*
X143326133Y-37829636D01*
X143326133Y-37829636D02*
X143373752Y-37877255D01*
X143373752Y-37877255D02*
X143421371Y-37972493D01*
X143421371Y-37972493D02*
X143468990Y-38162969D01*
X143468990Y-38162969D02*
X143516609Y-38258207D01*
X143516609Y-38258207D02*
X143564228Y-38305826D01*
X143564228Y-38305826D02*
X143659466Y-38353445D01*
X143659466Y-38353445D02*
X143754704Y-38353445D01*
X143754704Y-38353445D02*
X143849942Y-38305826D01*
X143849942Y-38305826D02*
X143897561Y-38258207D01*
X143897561Y-38258207D02*
X143945180Y-38162969D01*
X143945180Y-38162969D02*
X143945180Y-37924874D01*
X143945180Y-37924874D02*
X143897561Y-37782017D01*
X143945180Y-37448683D02*
X142945180Y-37210588D01*
X142945180Y-37210588D02*
X143659466Y-37020112D01*
X143659466Y-37020112D02*
X142945180Y-36829636D01*
X142945180Y-36829636D02*
X143945180Y-36591541D01*
X142945180Y-36210588D02*
X143945180Y-36210588D01*
X143945180Y-36210588D02*
X143945180Y-35972493D01*
X143945180Y-35972493D02*
X143897561Y-35829636D01*
X143897561Y-35829636D02*
X143802323Y-35734398D01*
X143802323Y-35734398D02*
X143707085Y-35686779D01*
X143707085Y-35686779D02*
X143516609Y-35639160D01*
X143516609Y-35639160D02*
X143373752Y-35639160D01*
X143373752Y-35639160D02*
X143183276Y-35686779D01*
X143183276Y-35686779D02*
X143088038Y-35734398D01*
X143088038Y-35734398D02*
X142992800Y-35829636D01*
X142992800Y-35829636D02*
X142945180Y-35972493D01*
X142945180Y-35972493D02*
X142945180Y-36210588D01*
X143040419Y-34639160D02*
X142992800Y-34686779D01*
X142992800Y-34686779D02*
X142945180Y-34829636D01*
X142945180Y-34829636D02*
X142945180Y-34924874D01*
X142945180Y-34924874D02*
X142992800Y-35067731D01*
X142992800Y-35067731D02*
X143088038Y-35162969D01*
X143088038Y-35162969D02*
X143183276Y-35210588D01*
X143183276Y-35210588D02*
X143373752Y-35258207D01*
X143373752Y-35258207D02*
X143516609Y-35258207D01*
X143516609Y-35258207D02*
X143707085Y-35210588D01*
X143707085Y-35210588D02*
X143802323Y-35162969D01*
X143802323Y-35162969D02*
X143897561Y-35067731D01*
X143897561Y-35067731D02*
X143945180Y-34924874D01*
X143945180Y-34924874D02*
X143945180Y-34829636D01*
X143945180Y-34829636D02*
X143897561Y-34686779D01*
X143897561Y-34686779D02*
X143849942Y-34639160D01*
X142945180Y-34210588D02*
X143945180Y-34210588D01*
X142945180Y-33639160D02*
X143516609Y-34067731D01*
X143945180Y-33639160D02*
X143373752Y-34210588D01*
X146507679Y-44719046D02*
X146983870Y-45052379D01*
X146507679Y-45290474D02*
X147507679Y-45290474D01*
X147507679Y-45290474D02*
X147507679Y-44909522D01*
X147507679Y-44909522D02*
X147460060Y-44814284D01*
X147460060Y-44814284D02*
X147412441Y-44766665D01*
X147412441Y-44766665D02*
X147317203Y-44719046D01*
X147317203Y-44719046D02*
X147174346Y-44719046D01*
X147174346Y-44719046D02*
X147079108Y-44766665D01*
X147079108Y-44766665D02*
X147031489Y-44814284D01*
X147031489Y-44814284D02*
X146983870Y-44909522D01*
X146983870Y-44909522D02*
X146983870Y-45290474D01*
X147031489Y-44290474D02*
X147031489Y-43957141D01*
X146507679Y-43814284D02*
X146507679Y-44290474D01*
X146507679Y-44290474D02*
X147507679Y-44290474D01*
X147507679Y-44290474D02*
X147507679Y-43814284D01*
X146555299Y-43433331D02*
X146507679Y-43290474D01*
X146507679Y-43290474D02*
X146507679Y-43052379D01*
X146507679Y-43052379D02*
X146555299Y-42957141D01*
X146555299Y-42957141D02*
X146602918Y-42909522D01*
X146602918Y-42909522D02*
X146698156Y-42861903D01*
X146698156Y-42861903D02*
X146793394Y-42861903D01*
X146793394Y-42861903D02*
X146888632Y-42909522D01*
X146888632Y-42909522D02*
X146936251Y-42957141D01*
X146936251Y-42957141D02*
X146983870Y-43052379D01*
X146983870Y-43052379D02*
X147031489Y-43242855D01*
X147031489Y-43242855D02*
X147079108Y-43338093D01*
X147079108Y-43338093D02*
X147126727Y-43385712D01*
X147126727Y-43385712D02*
X147221965Y-43433331D01*
X147221965Y-43433331D02*
X147317203Y-43433331D01*
X147317203Y-43433331D02*
X147412441Y-43385712D01*
X147412441Y-43385712D02*
X147460060Y-43338093D01*
X147460060Y-43338093D02*
X147507679Y-43242855D01*
X147507679Y-43242855D02*
X147507679Y-43004760D01*
X147507679Y-43004760D02*
X147460060Y-42861903D01*
X147795832Y-41254819D02*
X147462499Y-42254819D01*
X147462499Y-42254819D02*
X147129166Y-41254819D01*
X146224404Y-42159580D02*
X146272023Y-42207200D01*
X146272023Y-42207200D02*
X146414880Y-42254819D01*
X146414880Y-42254819D02*
X146510118Y-42254819D01*
X146510118Y-42254819D02*
X146652975Y-42207200D01*
X146652975Y-42207200D02*
X146748213Y-42111961D01*
X146748213Y-42111961D02*
X146795832Y-42016723D01*
X146795832Y-42016723D02*
X146843451Y-41826247D01*
X146843451Y-41826247D02*
X146843451Y-41683390D01*
X146843451Y-41683390D02*
X146795832Y-41492914D01*
X146795832Y-41492914D02*
X146748213Y-41397676D01*
X146748213Y-41397676D02*
X146652975Y-41302438D01*
X146652975Y-41302438D02*
X146510118Y-41254819D01*
X146510118Y-41254819D02*
X146414880Y-41254819D01*
X146414880Y-41254819D02*
X146272023Y-41302438D01*
X146272023Y-41302438D02*
X146224404Y-41350057D01*
X145224404Y-42159580D02*
X145272023Y-42207200D01*
X145272023Y-42207200D02*
X145414880Y-42254819D01*
X145414880Y-42254819D02*
X145510118Y-42254819D01*
X145510118Y-42254819D02*
X145652975Y-42207200D01*
X145652975Y-42207200D02*
X145748213Y-42111961D01*
X145748213Y-42111961D02*
X145795832Y-42016723D01*
X145795832Y-42016723D02*
X145843451Y-41826247D01*
X145843451Y-41826247D02*
X145843451Y-41683390D01*
X145843451Y-41683390D02*
X145795832Y-41492914D01*
X145795832Y-41492914D02*
X145748213Y-41397676D01*
X145748213Y-41397676D02*
X145652975Y-41302438D01*
X145652975Y-41302438D02*
X145510118Y-41254819D01*
X145510118Y-41254819D02*
X145414880Y-41254819D01*
X145414880Y-41254819D02*
X145272023Y-41302438D01*
X145272023Y-41302438D02*
X145224404Y-41350057D01*
X136945180Y-34591541D02*
X137421371Y-34924874D01*
X136945180Y-35162969D02*
X137945180Y-35162969D01*
X137945180Y-35162969D02*
X137945180Y-34782017D01*
X137945180Y-34782017D02*
X137897561Y-34686779D01*
X137897561Y-34686779D02*
X137849942Y-34639160D01*
X137849942Y-34639160D02*
X137754704Y-34591541D01*
X137754704Y-34591541D02*
X137611847Y-34591541D01*
X137611847Y-34591541D02*
X137516609Y-34639160D01*
X137516609Y-34639160D02*
X137468990Y-34686779D01*
X137468990Y-34686779D02*
X137421371Y-34782017D01*
X137421371Y-34782017D02*
X137421371Y-35162969D01*
X137945180Y-34258207D02*
X136945180Y-33591541D01*
X137945180Y-33591541D02*
X136945180Y-34258207D01*
X130697561Y-44611904D02*
X130745180Y-44707142D01*
X130745180Y-44707142D02*
X130745180Y-44849999D01*
X130745180Y-44849999D02*
X130697561Y-44992856D01*
X130697561Y-44992856D02*
X130602323Y-45088094D01*
X130602323Y-45088094D02*
X130507085Y-45135713D01*
X130507085Y-45135713D02*
X130316609Y-45183332D01*
X130316609Y-45183332D02*
X130173752Y-45183332D01*
X130173752Y-45183332D02*
X129983276Y-45135713D01*
X129983276Y-45135713D02*
X129888038Y-45088094D01*
X129888038Y-45088094D02*
X129792800Y-44992856D01*
X129792800Y-44992856D02*
X129745180Y-44849999D01*
X129745180Y-44849999D02*
X129745180Y-44754761D01*
X129745180Y-44754761D02*
X129792800Y-44611904D01*
X129792800Y-44611904D02*
X129840419Y-44564285D01*
X129840419Y-44564285D02*
X130173752Y-44564285D01*
X130173752Y-44564285D02*
X130173752Y-44754761D01*
X129745180Y-44135713D02*
X130745180Y-44135713D01*
X130745180Y-44135713D02*
X129745180Y-43564285D01*
X129745180Y-43564285D02*
X130745180Y-43564285D01*
X129745180Y-43088094D02*
X130745180Y-43088094D01*
X130745180Y-43088094D02*
X130745180Y-42849999D01*
X130745180Y-42849999D02*
X130697561Y-42707142D01*
X130697561Y-42707142D02*
X130602323Y-42611904D01*
X130602323Y-42611904D02*
X130507085Y-42564285D01*
X130507085Y-42564285D02*
X130316609Y-42516666D01*
X130316609Y-42516666D02*
X130173752Y-42516666D01*
X130173752Y-42516666D02*
X129983276Y-42564285D01*
X129983276Y-42564285D02*
X129888038Y-42611904D01*
X129888038Y-42611904D02*
X129792800Y-42707142D01*
X129792800Y-42707142D02*
X129745180Y-42849999D01*
X129745180Y-42849999D02*
X129745180Y-43088094D01*
X128138633Y-36258207D02*
X128138633Y-35496303D01*
X127757680Y-35877255D02*
X128519585Y-35877255D01*
X128757680Y-34543922D02*
X128757680Y-35020112D01*
X128757680Y-35020112D02*
X128281490Y-35067731D01*
X128281490Y-35067731D02*
X128329109Y-35020112D01*
X128329109Y-35020112D02*
X128376728Y-34924874D01*
X128376728Y-34924874D02*
X128376728Y-34686779D01*
X128376728Y-34686779D02*
X128329109Y-34591541D01*
X128329109Y-34591541D02*
X128281490Y-34543922D01*
X128281490Y-34543922D02*
X128186252Y-34496303D01*
X128186252Y-34496303D02*
X127948157Y-34496303D01*
X127948157Y-34496303D02*
X127852919Y-34543922D01*
X127852919Y-34543922D02*
X127805300Y-34591541D01*
X127805300Y-34591541D02*
X127757680Y-34686779D01*
X127757680Y-34686779D02*
X127757680Y-34924874D01*
X127757680Y-34924874D02*
X127805300Y-35020112D01*
X127805300Y-35020112D02*
X127852919Y-35067731D01*
X128757680Y-34210588D02*
X127757680Y-33877255D01*
X127757680Y-33877255D02*
X128757680Y-33543922D01*
M02*
