%TF.GenerationSoftware,KiCad,Pcbnew,8.0.0-rc2-74-g5f063dd458*%
%TF.CreationDate,2024-01-29T02:35:24+02:00*%
%TF.ProjectId,SamoProg,53616d6f-5072-46f6-972e-6b696361645f,rev?*%
%TF.SameCoordinates,Original*%
%TF.FileFunction,Legend,Top*%
%TF.FilePolarity,Positive*%
%FSLAX46Y46*%
G04 Gerber Fmt 4.6, Leading zero omitted, Abs format (unit mm)*
G04 Created by KiCad (PCBNEW 8.0.0-rc2-74-g5f063dd458) date 2024-01-29 02:35:24*
%MOMM*%
%LPD*%
G01*
G04 APERTURE LIST*
%ADD10C,0.000000*%
%ADD11C,0.120000*%
%ADD12C,0.200000*%
%ADD13C,0.100000*%
%ADD14C,0.127000*%
G04 APERTURE END LIST*
D10*
G36*
X149062500Y-46600000D02*
G01*
X126362500Y-46600000D01*
X126362500Y-31900000D01*
X149062500Y-31900000D01*
X149062500Y-46600000D01*
G37*
D11*
%TO.C,C3*%
X134090000Y-45140580D02*
X134090000Y-44859420D01*
X135110000Y-45140580D02*
X135110000Y-44859420D01*
D12*
%TO.C,SWDIO*%
X140400000Y-33050000D02*
X140400000Y-32050000D01*
X142400000Y-32050000D02*
X142400000Y-33050000D01*
X142400000Y-33050000D02*
X140400000Y-33050000D01*
D11*
%TO.C,R9*%
X139820000Y-34753641D02*
X139820000Y-34446359D01*
X140580000Y-34753641D02*
X140580000Y-34446359D01*
D13*
%TO.C,D3*%
X138195000Y-46100000D02*
G75*
G02*
X138095000Y-46100000I-50000J0D01*
G01*
X138095000Y-46100000D02*
G75*
G02*
X138195000Y-46100000I50000J0D01*
G01*
D11*
%TO.C,C4*%
X147892164Y-39440000D02*
X148107836Y-39440000D01*
X147892164Y-40160000D02*
X148107836Y-40160000D01*
%TO.C,R8*%
X147153641Y-43020000D02*
X146846359Y-43020000D01*
X147153641Y-43780000D02*
X146846359Y-43780000D01*
%TO.C,R7*%
X146846359Y-44220000D02*
X147153641Y-44220000D01*
X146846359Y-44980000D02*
X147153641Y-44980000D01*
%TO.C,R14*%
X142620000Y-34753641D02*
X142620000Y-34446359D01*
X143380000Y-34753641D02*
X143380000Y-34446359D01*
D14*
%TO.C,J1*%
X125600000Y-36130000D02*
X125600000Y-45070000D01*
X125600000Y-36130000D02*
X126950000Y-36130000D01*
X125600000Y-45070000D02*
X126950000Y-45070000D01*
X130950000Y-36130000D02*
X129450000Y-36130000D01*
X130950000Y-45070000D02*
X129450000Y-45070000D01*
D12*
X134300000Y-37400000D02*
G75*
G02*
X134100000Y-37400000I-100000J0D01*
G01*
X134100000Y-37400000D02*
G75*
G02*
X134300000Y-37400000I100000J0D01*
G01*
D11*
%TO.C,C10*%
X141040000Y-34707836D02*
X141040000Y-34492164D01*
X141760000Y-34707836D02*
X141760000Y-34492164D01*
%TO.C,R3*%
X134953641Y-42220000D02*
X134646359Y-42220000D01*
X134953641Y-42980000D02*
X134646359Y-42980000D01*
%TO.C,U3*%
X138352500Y-37490000D02*
X138352500Y-37965000D01*
X138352500Y-42710000D02*
X138352500Y-42235000D01*
X138827500Y-37490000D02*
X138352500Y-37490000D01*
X138827500Y-42710000D02*
X138352500Y-42710000D01*
X143097500Y-37490000D02*
X143572500Y-37490000D01*
X143097500Y-42710000D02*
X143572500Y-42710000D01*
X143572500Y-37490000D02*
X143572500Y-37965000D01*
D13*
%TO.C,D4*%
X129860000Y-32500000D02*
G75*
G02*
X129760000Y-32500000I-50000J0D01*
G01*
X129760000Y-32500000D02*
G75*
G02*
X129860000Y-32500000I50000J0D01*
G01*
D12*
%TO.C,TX*%
X138400000Y-33050000D02*
X138400000Y-32050000D01*
X140400000Y-32050000D02*
X140400000Y-33050000D01*
X140400000Y-33050000D02*
X138400000Y-33050000D01*
D11*
%TO.C,R16*%
X139046359Y-44520000D02*
X139353641Y-44520000D01*
X139046359Y-45280000D02*
X139353641Y-45280000D01*
%TO.C,R6*%
X144846359Y-44220000D02*
X145153641Y-44220000D01*
X144846359Y-44980000D02*
X145153641Y-44980000D01*
D12*
%TO.C,SWDCK*%
X142400000Y-33050000D02*
X142400000Y-32050000D01*
X144400000Y-32050000D02*
X144400000Y-33050000D01*
X144400000Y-33050000D02*
X142400000Y-33050000D01*
D11*
%TO.C,U4*%
X135040000Y-35400000D02*
X135040000Y-34750000D01*
X135040000Y-35400000D02*
X135040000Y-36050000D01*
X138160000Y-35400000D02*
X138160000Y-33725000D01*
X138160000Y-35400000D02*
X138160000Y-36050000D01*
%TO.C,R15*%
X136953641Y-44520000D02*
X136646359Y-44520000D01*
X136953641Y-45280000D02*
X136646359Y-45280000D01*
D12*
%TO.C,RES*%
X146200000Y-45550000D02*
X148200000Y-45550000D01*
X146200000Y-46550000D02*
X146200000Y-45550000D01*
X148200000Y-45550000D02*
X148200000Y-46550000D01*
D11*
%TO.C,R12*%
X141756359Y-35820000D02*
X142063641Y-35820000D01*
X141756359Y-36580000D02*
X142063641Y-36580000D01*
%TO.C,C8*%
X144892164Y-43040000D02*
X145107836Y-43040000D01*
X144892164Y-43760000D02*
X145107836Y-43760000D01*
%TO.C,SW1*%
X145140000Y-32940000D02*
X145140000Y-37860000D01*
X145140000Y-32940000D02*
X145390000Y-32940000D01*
X145140000Y-37860000D02*
X145390000Y-37860000D01*
X148610000Y-32940000D02*
X148860000Y-32940000D01*
X148610000Y-37860000D02*
X148860000Y-37860000D01*
X148860000Y-37860000D02*
X148860000Y-32940000D01*
%TO.C,C2*%
X136772164Y-42240000D02*
X136987836Y-42240000D01*
X136772164Y-42960000D02*
X136987836Y-42960000D01*
D12*
%TO.C,VCC*%
X147950000Y-40800000D02*
X148950000Y-40800000D01*
X147950000Y-42800000D02*
X147950000Y-40800000D01*
X148950000Y-42800000D02*
X147950000Y-42800000D01*
D11*
%TO.C,R1*%
X144846359Y-45620000D02*
X145153641Y-45620000D01*
X144846359Y-46380000D02*
X145153641Y-46380000D01*
D12*
%TO.C,RX*%
X136400000Y-33050000D02*
X136400000Y-32050000D01*
X138400000Y-32050000D02*
X138400000Y-33050000D01*
X138400000Y-33050000D02*
X136400000Y-33050000D01*
D11*
%TO.C,R4*%
X146153641Y-39420000D02*
X145846359Y-39420000D01*
X146153641Y-40180000D02*
X145846359Y-40180000D01*
%TO.C,R11*%
X129863641Y-34020000D02*
X129556359Y-34020000D01*
X129863641Y-34780000D02*
X129556359Y-34780000D01*
%TO.C,R17*%
X133153641Y-32120000D02*
X132846359Y-32120000D01*
X133153641Y-32880000D02*
X132846359Y-32880000D01*
D13*
%TO.C,D1*%
X126560000Y-34400000D02*
G75*
G02*
X126460000Y-34400000I-50000J0D01*
G01*
X126460000Y-34400000D02*
G75*
G02*
X126560000Y-34400000I50000J0D01*
G01*
D11*
%TO.C,R10*%
X138820000Y-34753641D02*
X138820000Y-34446359D01*
X139580000Y-34753641D02*
X139580000Y-34446359D01*
D13*
%TO.C,D2*%
X137940000Y-46100000D02*
G75*
G02*
X137840000Y-46100000I-50000J0D01*
G01*
X137840000Y-46100000D02*
G75*
G02*
X137940000Y-46100000I50000J0D01*
G01*
D11*
%TO.C,R2*%
X134953641Y-38620000D02*
X134646359Y-38620000D01*
X134953641Y-39380000D02*
X134646359Y-39380000D01*
%TO.C,C1*%
X138292164Y-36040000D02*
X138507836Y-36040000D01*
X138292164Y-36760000D02*
X138507836Y-36760000D01*
D12*
%TO.C,GND*%
X129200000Y-45550000D02*
X131200000Y-45550000D01*
X129200000Y-46550000D02*
X129200000Y-45550000D01*
X131200000Y-45550000D02*
X131200000Y-46550000D01*
D11*
%TO.C,Q1*%
X141415815Y-46560000D02*
X142825815Y-46560000D01*
X142825815Y-44240000D02*
X140795815Y-44240000D01*
X142825815Y-44240000D02*
X142825815Y-44900000D01*
X142825815Y-45900000D02*
X142825815Y-46560000D01*
%TO.C,R13*%
X143620000Y-34753641D02*
X143620000Y-34446359D01*
X144380000Y-34753641D02*
X144380000Y-34446359D01*
%TO.C,C7*%
X136907836Y-37840000D02*
X136692164Y-37840000D01*
X136907836Y-38560000D02*
X136692164Y-38560000D01*
%TO.C,C6*%
X132859420Y-33890000D02*
X133140580Y-33890000D01*
X132859420Y-34910000D02*
X133140580Y-34910000D01*
%TO.C,C9*%
X148070000Y-43892164D02*
X148070000Y-44107836D01*
X148790000Y-43892164D02*
X148790000Y-44107836D01*
%TO.C,U1*%
X135300000Y-39700000D02*
X136850000Y-39700000D01*
X136850000Y-41500000D02*
X135550000Y-41500000D01*
%TO.C,Y1*%
X144300000Y-41000000D02*
X145200000Y-41000000D01*
X144300000Y-42600000D02*
X144300000Y-41000000D01*
X145300000Y-42600000D02*
X144300000Y-42600000D01*
X147000000Y-41000000D02*
X147700000Y-41000000D01*
X147700000Y-41000000D02*
X147700000Y-42600000D01*
X147700000Y-42600000D02*
X147000000Y-42600000D01*
D12*
%TO.C,+5V*%
X127200000Y-33050000D02*
X127200000Y-32050000D01*
X129200000Y-32050000D02*
X129200000Y-33050000D01*
X129200000Y-33050000D02*
X127200000Y-33050000D01*
D11*
%TO.C,R5*%
X143103641Y-43300000D02*
X142796359Y-43300000D01*
X143103641Y-44060000D02*
X142796359Y-44060000D01*
%TD*%
M02*
