M48
; DRILL file {KiCad 8.0.0-rc2-74-g5f063dd458} date 2024-01-29T02:35:19+0200
; FORMAT={-:-/ absolute / metric / decimal}
; #@! TF.CreationDate,2024-01-29T02:35:19+02:00
; #@! TF.GenerationSoftware,Kicad,Pcbnew,8.0.0-rc2-74-g5f063dd458
; #@! TF.FileFunction,Plated,1,2,PTH
FMAT,2
METRIC
; #@! TA.AperFunction,Plated,PTH,ViaDrill
T1C0.300
; #@! TA.AperFunction,Plated,PTH,ComponentDrill
T2C0.650
; #@! TA.AperFunction,Plated,PTH,ComponentDrill
T3C0.800
%
G90
G05
T1
X127.152Y-43.74
X127.2Y-35.25
X127.48Y-33.57
X127.5Y-45.9
X127.662Y-37.88
X128.35Y-42.9
X128.69Y-35.18
X128.9Y-37.92
X129.55Y-39.0
X129.64Y-33.31
X129.9Y-43.4
X130.35Y-40.95
X130.47Y-33.38
X130.77Y-39.65
X130.82Y-41.9
X130.84Y-44.14
X130.88Y-37.18
X130.9Y-35.3
X131.03Y-34.4
X131.493Y-33.37
X131.54Y-39.09
X132.71Y-33.27
X133.0Y-45.95
X133.812Y-33.34
X134.093Y-41.82
X134.27Y-35.98
X134.51Y-32.92
X134.56Y-40.61
X134.86Y-34.43
X134.952Y-43.26
X135.2Y-41.8
X135.3Y-38.0
X135.442Y-32.62
X135.53Y-45.37
X135.612Y-44.36
X136.2Y-39.17
X136.392Y-33.14
X136.67Y-34.92
X136.75Y-43.6
X136.9Y-39.0
X137.21Y-36.337
X137.262Y-41.8
X137.672Y-33.3
X137.79Y-38.33
X138.01Y-45.55
X138.403Y-33.68
X138.463Y-42.65
X138.52Y-35.12
X138.63Y-44.11
X139.706Y-36.739
X139.77Y-35.89
X139.812Y-38.95
X139.812Y-40.1
X139.812Y-41.25
X140.162Y-44.1
X140.56Y-33.15
X140.59Y-45.46
X140.6Y-36.74
X140.963Y-38.95
X140.963Y-40.1
X140.963Y-41.25
X141.47Y-33.38
X141.49Y-43.75
X141.89Y-45.47
X142.112Y-38.95
X142.112Y-40.1
X142.112Y-41.25
X142.183Y-35.38
X142.3Y-44.69
X143.4Y-42.28
X143.42Y-44.57
X144.3Y-36.6
X144.46Y-39.34
X144.8Y-32.85
X145.062Y-36.9
X145.072Y-45.3
X145.23Y-37.85
X145.262Y-34.0
X145.463Y-35.4
X145.792Y-42.73
X146.0Y-41.8
X146.01Y-44.6
X146.08Y-45.36
X146.762Y-40.59
X147.002Y-39.06
X147.028Y-36.897
X147.51Y-44.01
X147.85Y-37.975
X148.172Y-40.55
X148.22Y-45.32
X148.412Y-36.64
X148.463Y-34.3
T3
X128.2Y-31.8
X130.2Y-46.8
X137.4Y-31.8
X139.4Y-31.8
X141.4Y-31.8
X143.4Y-31.8
X147.2Y-46.8
X149.2Y-41.8
T2
G00X128.6Y-36.28
M15
G01X127.8Y-36.28
M16
G05
G00X128.6Y-44.92
M15
G01X127.8Y-44.92
M16
G05
G00X132.9Y-36.28
M15
G01X131.8Y-36.28
M16
G05
G00X132.9Y-44.92
M15
G01X131.8Y-44.92
M16
G05
M30
