%TF.GenerationSoftware,KiCad,Pcbnew,8.0.0-rc2-74-g5f063dd458*%
%TF.CreationDate,2024-01-29T02:35:24+02:00*%
%TF.ProjectId,SamoProg,53616d6f-5072-46f6-972e-6b696361645f,rev?*%
%TF.SameCoordinates,Original*%
%TF.FileFunction,Soldermask,Top*%
%TF.FilePolarity,Negative*%
%FSLAX46Y46*%
G04 Gerber Fmt 4.6, Leading zero omitted, Abs format (unit mm)*
G04 Created by KiCad (PCBNEW 8.0.0-rc2-74-g5f063dd458) date 2024-01-29 02:35:24*
%MOMM*%
%LPD*%
G01*
G04 APERTURE LIST*
G04 Aperture macros list*
%AMRoundRect*
0 Rectangle with rounded corners*
0 $1 Rounding radius*
0 $2 $3 $4 $5 $6 $7 $8 $9 X,Y pos of 4 corners*
0 Add a 4 corners polygon primitive as box body*
4,1,4,$2,$3,$4,$5,$6,$7,$8,$9,$2,$3,0*
0 Add four circle primitives for the rounded corners*
1,1,$1+$1,$2,$3*
1,1,$1+$1,$4,$5*
1,1,$1+$1,$6,$7*
1,1,$1+$1,$8,$9*
0 Add four rect primitives between the rounded corners*
20,1,$1+$1,$2,$3,$4,$5,0*
20,1,$1+$1,$4,$5,$6,$7,0*
20,1,$1+$1,$6,$7,$8,$9,0*
20,1,$1+$1,$8,$9,$2,$3,0*%
G04 Aperture macros list end*
%ADD10RoundRect,0.225000X0.250000X-0.225000X0.250000X0.225000X-0.250000X0.225000X-0.250000X-0.225000X0*%
%ADD11C,1.500000*%
%ADD12RoundRect,0.500000X0.250000X-0.500000X0.250000X0.500000X-0.250000X0.500000X-0.250000X-0.500000X0*%
%ADD13RoundRect,0.135000X0.185000X-0.135000X0.185000X0.135000X-0.185000X0.135000X-0.185000X-0.135000X0*%
%ADD14RoundRect,0.147500X-0.147500X-0.172500X0.147500X-0.172500X0.147500X0.172500X-0.147500X0.172500X0*%
%ADD15RoundRect,0.140000X-0.140000X-0.170000X0.140000X-0.170000X0.140000X0.170000X-0.140000X0.170000X0*%
%ADD16RoundRect,0.135000X0.135000X0.185000X-0.135000X0.185000X-0.135000X-0.185000X0.135000X-0.185000X0*%
%ADD17RoundRect,0.135000X-0.135000X-0.185000X0.135000X-0.185000X0.135000X0.185000X-0.135000X0.185000X0*%
%ADD18C,0.700000*%
%ADD19RoundRect,0.102000X-0.500000X0.300000X-0.500000X-0.300000X0.500000X-0.300000X0.500000X0.300000X0*%
%ADD20RoundRect,0.102000X-0.575000X0.150000X-0.575000X-0.150000X0.575000X-0.150000X0.575000X0.150000X0*%
%ADD21O,2.054000X1.254000*%
%ADD22O,2.354000X1.254000*%
%ADD23RoundRect,0.140000X0.170000X-0.140000X0.170000X0.140000X-0.170000X0.140000X-0.170000X-0.140000X0*%
%ADD24RoundRect,0.062500X0.375000X0.062500X-0.375000X0.062500X-0.375000X-0.062500X0.375000X-0.062500X0*%
%ADD25RoundRect,0.062500X0.062500X0.375000X-0.062500X0.375000X-0.062500X-0.375000X0.062500X-0.375000X0*%
%ADD26R,3.450000X3.450000*%
%ADD27RoundRect,0.150000X-0.150000X0.587500X-0.150000X-0.587500X0.150000X-0.587500X0.150000X0.587500X0*%
%ADD28RoundRect,0.500000X-0.250000X0.500000X-0.250000X-0.500000X0.250000X-0.500000X0.250000X0.500000X0*%
%ADD29R,1.000000X1.450000*%
%ADD30RoundRect,0.500000X-0.500000X-0.250000X0.500000X-0.250000X0.500000X0.250000X-0.500000X0.250000X0*%
%ADD31RoundRect,0.147500X0.147500X0.172500X-0.147500X0.172500X-0.147500X-0.172500X0.147500X-0.172500X0*%
%ADD32R,0.700000X0.450000*%
%ADD33RoundRect,0.140000X0.140000X0.170000X-0.140000X0.170000X-0.140000X-0.170000X0.140000X-0.170000X0*%
%ADD34RoundRect,0.225000X-0.225000X-0.250000X0.225000X-0.250000X0.225000X0.250000X-0.225000X0.250000X0*%
%ADD35RoundRect,0.140000X-0.170000X0.140000X-0.170000X-0.140000X0.170000X-0.140000X0.170000X0.140000X0*%
%ADD36R,0.700000X0.340000*%
%ADD37R,0.400000X1.000000*%
G04 APERTURE END LIST*
D10*
%TO.C,C3*%
X134600000Y-45775000D03*
X134600000Y-44225000D03*
%TD*%
D11*
%TO.C,FID1*%
X128200000Y-40600000D03*
%TD*%
D12*
%TO.C,SWDIO*%
X141400000Y-31800000D03*
%TD*%
D13*
%TO.C,R9*%
X140200000Y-35110000D03*
X140200000Y-34090000D03*
%TD*%
D14*
%TO.C,D3*%
X138750000Y-46100000D03*
X139720000Y-46100000D03*
%TD*%
D15*
%TO.C,C4*%
X147520000Y-39800000D03*
X148480000Y-39800000D03*
%TD*%
D16*
%TO.C,R8*%
X147510000Y-43400000D03*
X146490000Y-43400000D03*
%TD*%
D17*
%TO.C,R7*%
X146490000Y-44600000D03*
X147510000Y-44600000D03*
%TD*%
D13*
%TO.C,R14*%
X143000000Y-35110000D03*
X143000000Y-34090000D03*
%TD*%
D18*
%TO.C,J1*%
X131850000Y-37710000D03*
X131850000Y-43490000D03*
D19*
X133000000Y-37400000D03*
X133000000Y-38200000D03*
D20*
X132925000Y-39350000D03*
X132925000Y-40350000D03*
X132925000Y-40850000D03*
X132925000Y-41850000D03*
D19*
X133000000Y-43000000D03*
X133000000Y-43800000D03*
D20*
X132925000Y-42350000D03*
X132925000Y-41350000D03*
X132925000Y-39850000D03*
X132925000Y-38850000D03*
D21*
X128200000Y-36280000D03*
X128200000Y-44920000D03*
D22*
X132350000Y-36280000D03*
X132350000Y-44920000D03*
%TD*%
D23*
%TO.C,C10*%
X141400000Y-35080000D03*
X141400000Y-34120000D03*
%TD*%
D16*
%TO.C,R3*%
X135310000Y-42600000D03*
X134290000Y-42600000D03*
%TD*%
D24*
%TO.C,U3*%
X143400000Y-41850000D03*
X143400000Y-41350000D03*
X143400000Y-40850000D03*
X143400000Y-40350000D03*
X143400000Y-39850000D03*
X143400000Y-39350000D03*
X143400000Y-38850000D03*
X143400000Y-38350000D03*
D25*
X142712500Y-37662500D03*
X142212500Y-37662500D03*
X141712500Y-37662500D03*
X141212500Y-37662500D03*
X140712500Y-37662500D03*
X140212500Y-37662500D03*
X139712500Y-37662500D03*
X139212500Y-37662500D03*
D24*
X138525000Y-38350000D03*
X138525000Y-38850000D03*
X138525000Y-39350000D03*
X138525000Y-39850000D03*
X138525000Y-40350000D03*
X138525000Y-40850000D03*
X138525000Y-41350000D03*
X138525000Y-41850000D03*
D25*
X139212500Y-42537500D03*
X139712500Y-42537500D03*
X140212500Y-42537500D03*
X140712500Y-42537500D03*
X141212500Y-42537500D03*
X141712500Y-42537500D03*
X142212500Y-42537500D03*
X142712500Y-42537500D03*
D26*
X140962500Y-40100000D03*
%TD*%
D14*
%TO.C,D4*%
X130415000Y-32500000D03*
X131385000Y-32500000D03*
%TD*%
D12*
%TO.C,TX*%
X139400000Y-31800000D03*
%TD*%
D17*
%TO.C,R16*%
X138690000Y-44900000D03*
X139710000Y-44900000D03*
%TD*%
%TO.C,R6*%
X144490000Y-44600000D03*
X145510000Y-44600000D03*
%TD*%
D12*
%TO.C,SWDCK*%
X143400000Y-31800000D03*
%TD*%
D27*
%TO.C,U4*%
X137550000Y-34462500D03*
X135650000Y-34462500D03*
X136600000Y-36337500D03*
%TD*%
D16*
%TO.C,R15*%
X137310000Y-44900000D03*
X136290000Y-44900000D03*
%TD*%
D28*
%TO.C,RES*%
X147200000Y-46800000D03*
%TD*%
D17*
%TO.C,R12*%
X141400000Y-36200000D03*
X142420000Y-36200000D03*
%TD*%
D15*
%TO.C,C8*%
X144520000Y-43400000D03*
X145480000Y-43400000D03*
%TD*%
D29*
%TO.C,SW1*%
X146150000Y-37975000D03*
X146150000Y-32825000D03*
X147850000Y-37975000D03*
X147850000Y-32825000D03*
%TD*%
D15*
%TO.C,C2*%
X136400000Y-42600000D03*
X137360000Y-42600000D03*
%TD*%
D30*
%TO.C,VCC*%
X149200000Y-41800000D03*
%TD*%
D17*
%TO.C,R1*%
X144490000Y-46000000D03*
X145510000Y-46000000D03*
%TD*%
D12*
%TO.C,RX*%
X137400000Y-31800000D03*
%TD*%
D16*
%TO.C,R4*%
X146510000Y-39800000D03*
X145490000Y-39800000D03*
%TD*%
%TO.C,R11*%
X130220000Y-34400000D03*
X129200000Y-34400000D03*
%TD*%
%TO.C,R17*%
X133510000Y-32500000D03*
X132490000Y-32500000D03*
%TD*%
D14*
%TO.C,D1*%
X127115000Y-34400000D03*
X128085000Y-34400000D03*
%TD*%
D13*
%TO.C,R10*%
X139200000Y-35110000D03*
X139200000Y-34090000D03*
%TD*%
D31*
%TO.C,D2*%
X137285000Y-46100000D03*
X136315000Y-46100000D03*
%TD*%
D16*
%TO.C,R2*%
X135310000Y-39000000D03*
X134290000Y-39000000D03*
%TD*%
D15*
%TO.C,C1*%
X137920000Y-36400000D03*
X138880000Y-36400000D03*
%TD*%
D28*
%TO.C,GND*%
X130200000Y-46800000D03*
%TD*%
D32*
%TO.C,Q1*%
X141095815Y-44750000D03*
X141095815Y-46050000D03*
X143095815Y-45400000D03*
%TD*%
D13*
%TO.C,R13*%
X144000000Y-35110000D03*
X144000000Y-34090000D03*
%TD*%
D33*
%TO.C,C7*%
X137280000Y-38200000D03*
X136320000Y-38200000D03*
%TD*%
D34*
%TO.C,C6*%
X132225000Y-34400000D03*
X133775000Y-34400000D03*
%TD*%
D35*
%TO.C,C9*%
X148430000Y-43520000D03*
X148430000Y-44480000D03*
%TD*%
D36*
%TO.C,U1*%
X135450000Y-40100000D03*
X135450000Y-40600000D03*
X135450000Y-41100000D03*
X136950000Y-41100000D03*
X136950000Y-40600000D03*
X136950000Y-40100000D03*
%TD*%
D37*
%TO.C,Y1*%
X144800000Y-41800000D03*
X146000000Y-41800000D03*
X147200000Y-41800000D03*
%TD*%
D12*
%TO.C,+5V*%
X128200000Y-31800000D03*
%TD*%
D16*
%TO.C,R5*%
X143460000Y-43680000D03*
X142440000Y-43680000D03*
%TD*%
M02*
