%TF.GenerationSoftware,KiCad,Pcbnew,8.0.0-rc2-74-g5f063dd458*%
%TF.CreationDate,2024-01-29T02:35:24+02:00*%
%TF.ProjectId,SamoProg,53616d6f-5072-46f6-972e-6b696361645f,rev?*%
%TF.SameCoordinates,Original*%
%TF.FileFunction,Copper,L2,Bot*%
%TF.FilePolarity,Positive*%
%FSLAX46Y46*%
G04 Gerber Fmt 4.6, Leading zero omitted, Abs format (unit mm)*
G04 Created by KiCad (PCBNEW 8.0.0-rc2-74-g5f063dd458) date 2024-01-29 02:35:24*
%MOMM*%
%LPD*%
G01*
G04 APERTURE LIST*
G04 Aperture macros list*
%AMRoundRect*
0 Rectangle with rounded corners*
0 $1 Rounding radius*
0 $2 $3 $4 $5 $6 $7 $8 $9 X,Y pos of 4 corners*
0 Add a 4 corners polygon primitive as box body*
4,1,4,$2,$3,$4,$5,$6,$7,$8,$9,$2,$3,0*
0 Add four circle primitives for the rounded corners*
1,1,$1+$1,$2,$3*
1,1,$1+$1,$4,$5*
1,1,$1+$1,$6,$7*
1,1,$1+$1,$8,$9*
0 Add four rect primitives between the rounded corners*
20,1,$1+$1,$2,$3,$4,$5,0*
20,1,$1+$1,$4,$5,$6,$7,0*
20,1,$1+$1,$6,$7,$8,$9,0*
20,1,$1+$1,$8,$9,$2,$3,0*%
G04 Aperture macros list end*
%TA.AperFunction,CastellatedPad*%
%ADD10RoundRect,0.500000X0.250000X-0.500000X0.250000X0.500000X-0.250000X0.500000X-0.250000X-0.500000X0*%
%TD*%
%TA.AperFunction,ComponentPad*%
%ADD11O,1.850000X1.050000*%
%TD*%
%TA.AperFunction,ComponentPad*%
%ADD12O,2.150000X1.050000*%
%TD*%
%TA.AperFunction,CastellatedPad*%
%ADD13RoundRect,0.500000X-0.250000X0.500000X-0.250000X-0.500000X0.250000X-0.500000X0.250000X0.500000X0*%
%TD*%
%TA.AperFunction,CastellatedPad*%
%ADD14RoundRect,0.500000X-0.500000X-0.250000X0.500000X-0.250000X0.500000X0.250000X-0.500000X0.250000X0*%
%TD*%
%TA.AperFunction,ViaPad*%
%ADD15C,0.550000*%
%TD*%
%TA.AperFunction,Conductor*%
%ADD16C,0.250000*%
%TD*%
%TA.AperFunction,Conductor*%
%ADD17C,0.125000*%
%TD*%
G04 APERTURE END LIST*
D10*
%TO.P,SWDIO,1,1*%
%TO.N,/SWDIO*%
X141400000Y-31800000D03*
%TD*%
D11*
%TO.P,J1,SH1,SHIELD*%
%TO.N,GND*%
X128200000Y-36280000D03*
%TO.P,J1,SH2,SHIELD*%
X128200000Y-44920000D03*
D12*
%TO.P,J1,SH3,SHIELD*%
X132350000Y-36280000D03*
%TO.P,J1,SH4,SHIELD*%
X132350000Y-44920000D03*
%TD*%
D10*
%TO.P,TX,1,1*%
%TO.N,/TXD*%
X139400000Y-31800000D03*
%TD*%
%TO.P,SWDCK,1,1*%
%TO.N,/SWCLK*%
X143400000Y-31800000D03*
%TD*%
D13*
%TO.P,RES,1,1*%
%TO.N,/RST*%
X147200000Y-46800000D03*
%TD*%
D14*
%TO.P,VCC,1,1*%
%TO.N,TPWR*%
X149200000Y-41800000D03*
%TD*%
D10*
%TO.P,RX,1,1*%
%TO.N,/RXD*%
X137400000Y-31800000D03*
%TD*%
D13*
%TO.P,GND,1,1*%
%TO.N,GND*%
X130200000Y-46800000D03*
%TD*%
D10*
%TO.P,+5V,1,1*%
%TO.N,USB_P*%
X128200000Y-31800000D03*
%TD*%
D15*
%TO.N,GND*%
X127152500Y-43740000D03*
X142112500Y-41250000D03*
X140962500Y-38950000D03*
X135300000Y-38000000D03*
X138630000Y-44110000D03*
X133812500Y-33340000D03*
X129550000Y-39000000D03*
X128900000Y-37920000D03*
X134560000Y-40610000D03*
X135442500Y-32620000D03*
X130770000Y-39650000D03*
X144800000Y-32850000D03*
X134092500Y-41820000D03*
X130900000Y-35300000D03*
X146762500Y-40590000D03*
X128350000Y-42900000D03*
X144300000Y-36600000D03*
X141490000Y-43750000D03*
X127200000Y-35250000D03*
X135200000Y-41800000D03*
X136392500Y-33140000D03*
X135612500Y-44360000D03*
X127500000Y-45900000D03*
X148412500Y-36640000D03*
X145062500Y-36900000D03*
X127662500Y-37880000D03*
X127480000Y-33570000D03*
X140962500Y-41250000D03*
X134952500Y-43260000D03*
X147002500Y-39060000D03*
X141470000Y-33380000D03*
X147027964Y-36897004D03*
X148172500Y-40550000D03*
X136750000Y-43600000D03*
X146080000Y-45360000D03*
X129900000Y-43400000D03*
X139812500Y-38950000D03*
X130350000Y-40950000D03*
X139812500Y-40100000D03*
X140162500Y-44100000D03*
X129640000Y-33310000D03*
X130880000Y-37180000D03*
X138402500Y-33680000D03*
X134270000Y-35980000D03*
X130820000Y-41900000D03*
X148220000Y-45320000D03*
X133000000Y-45950000D03*
X131492500Y-33370000D03*
X146000002Y-41800000D03*
X128690000Y-35180000D03*
X137262500Y-41800000D03*
X138462500Y-42650000D03*
X130840000Y-44140000D03*
X140560000Y-33150000D03*
X141890000Y-45470000D03*
X130470000Y-33380000D03*
X145462500Y-35400000D03*
X148462500Y-34300000D03*
X132710000Y-33270000D03*
X143420000Y-44570000D03*
X140590000Y-45460000D03*
X145262500Y-34000000D03*
X135530000Y-45370000D03*
X140962500Y-40100000D03*
X145792500Y-42730000D03*
X137672500Y-33300000D03*
X138010000Y-45550000D03*
X142112500Y-38950000D03*
X142182500Y-35380000D03*
X136670000Y-34920000D03*
X139812500Y-41250000D03*
X145072500Y-45300000D03*
X142112500Y-40100000D03*
%TO.N,USB_P*%
X137210000Y-36337500D03*
X131540000Y-39090000D03*
%TO.N,3V3*%
X143400000Y-42280000D03*
X139706468Y-36739300D03*
X145230000Y-37850000D03*
X134860000Y-34430000D03*
X131029998Y-34400000D03*
X137790000Y-38330006D03*
%TO.N,/TPWR_C*%
X144460000Y-39340000D03*
X147510000Y-44010000D03*
%TO.N,Net-(U3-PB8)*%
X142300000Y-44690000D03*
X147850000Y-37975000D03*
%TO.N,TPWR*%
X146010000Y-44600000D03*
%TO.N,/iTXD*%
X139770000Y-35890000D03*
X136900000Y-39000000D03*
%TO.N,/iRXD*%
X138520000Y-35120000D03*
X136200000Y-39170000D03*
%TO.N,/LED0*%
X140600000Y-36740000D03*
X134510000Y-32920000D03*
%TD*%
D16*
%TO.N,USB_P*%
X132395786Y-39090000D02*
X131540000Y-39090000D01*
X130050000Y-35784214D02*
X130050000Y-37185786D01*
X137210000Y-36337500D02*
X135976714Y-36337500D01*
X128200000Y-31800000D02*
X128200000Y-33105786D01*
X135269607Y-36630393D02*
X133102893Y-38797107D01*
X128492893Y-33812893D02*
X129757107Y-35077107D01*
X130342893Y-37892893D02*
X131540000Y-39090000D01*
X132395786Y-39090000D02*
G75*
G03*
X133102900Y-38797114I14J1000000D01*
G01*
X128200000Y-33105786D02*
G75*
G03*
X128492886Y-33812900I1000000J-14D01*
G01*
X130050000Y-37185786D02*
G75*
G03*
X130342886Y-37892900I1000000J-14D01*
G01*
X135269607Y-36630393D02*
G75*
G02*
X135976714Y-36337510I707093J-707107D01*
G01*
X130050000Y-35784214D02*
G75*
G03*
X129757114Y-35077100I-1000000J14D01*
G01*
%TO.N,3V3*%
X139706468Y-36739300D02*
X139244914Y-36739300D01*
D17*
X134830000Y-34400000D02*
X131029998Y-34400000D01*
D16*
X137790000Y-38194214D02*
X137790000Y-38330006D01*
D17*
X134860000Y-34430000D02*
X134830000Y-34400000D01*
D16*
X138537807Y-37032193D02*
X138082893Y-37487107D01*
X145102893Y-37722893D02*
X145230000Y-37850000D01*
X139706468Y-36739300D02*
X140104275Y-37137107D01*
X143400000Y-37430000D02*
X144395786Y-37430000D01*
X143400000Y-37430000D02*
X143400000Y-42280000D01*
X140811382Y-37430000D02*
X143400000Y-37430000D01*
X138537807Y-37032193D02*
G75*
G02*
X139244914Y-36739310I707093J-707107D01*
G01*
X145102893Y-37722893D02*
G75*
G03*
X144395786Y-37430010I-707093J-707107D01*
G01*
X138082893Y-37487107D02*
G75*
G03*
X137790010Y-38194214I707107J-707093D01*
G01*
X140104275Y-37137107D02*
G75*
G03*
X140811382Y-37430013I707125J707107D01*
G01*
D17*
%TO.N,/TPWR_C*%
X144460000Y-39340000D02*
X144460000Y-41935786D01*
X146534214Y-44010000D02*
X147510000Y-44010000D01*
X144752893Y-42642893D02*
X145827107Y-43717107D01*
X144460000Y-41935786D02*
G75*
G03*
X144752886Y-42642900I1000000J-14D01*
G01*
X145827107Y-43717107D02*
G75*
G03*
X146534214Y-44009990I707093J707107D01*
G01*
%TO.N,Net-(U3-PB8)*%
X144067107Y-38732893D02*
X144016447Y-38783553D01*
X143870000Y-39137107D02*
X143870000Y-42284629D01*
X146970786Y-38440000D02*
X144774214Y-38440000D01*
X143281421Y-43708579D02*
X142300000Y-44690000D01*
X147850000Y-37975000D02*
X147677893Y-38147107D01*
X143792483Y-42836045D02*
X143789691Y-42845779D01*
X143792483Y-42836045D02*
G75*
G03*
X143870008Y-42284629I-1922483J551445D01*
G01*
X144016447Y-38783553D02*
G75*
G03*
X143870005Y-39137107I353553J-353547D01*
G01*
X147677893Y-38147107D02*
G75*
G02*
X146970786Y-38439990I-707093J707107D01*
G01*
X144774214Y-38440000D02*
G75*
G03*
X144067100Y-38732886I-14J-1000000D01*
G01*
X143281420Y-43708578D02*
G75*
G03*
X143789674Y-42845774I-1414220J1414178D01*
G01*
%TO.N,TPWR*%
X148257107Y-44422893D02*
X148226446Y-44453554D01*
X148550000Y-42450000D02*
X148550000Y-43715786D01*
X147872893Y-44600000D02*
X146010000Y-44600000D01*
X148550000Y-43715786D02*
G75*
G02*
X148257114Y-44422900I-1000000J-14D01*
G01*
X147872893Y-44600000D02*
G75*
G03*
X148226449Y-44453557I7J500000D01*
G01*
%TO.N,/iTXD*%
X136900000Y-39000000D02*
X136900000Y-38323363D01*
X137192893Y-37616256D02*
X138626256Y-36182893D01*
X139333363Y-35890000D02*
X139770000Y-35890000D01*
X138626256Y-36182893D02*
G75*
G02*
X139333363Y-35889974I707144J-707107D01*
G01*
X136900000Y-38323363D02*
G75*
G02*
X137192912Y-37616275I1000000J-37D01*
G01*
%TO.N,/iRXD*%
X138520000Y-35521381D02*
X138520000Y-35120000D01*
X136200000Y-39170000D02*
X136200000Y-38669809D01*
X136492893Y-37962702D02*
X138227107Y-36228488D01*
X138227106Y-36228487D02*
G75*
G03*
X138519986Y-35521381I-707106J707087D01*
G01*
X136492894Y-37962703D02*
G75*
G03*
X136200007Y-38669809I707106J-707097D01*
G01*
%TO.N,/LED0*%
X135567107Y-33977107D02*
X134510000Y-32920000D01*
X140657107Y-34817107D02*
X140402893Y-34562893D01*
X140600000Y-36740000D02*
X140657107Y-36682893D01*
X140950000Y-35975786D02*
X140950000Y-35524214D01*
X136274214Y-34270000D02*
X139695786Y-34270000D01*
X136274214Y-34270000D02*
G75*
G02*
X135567100Y-33977114I-14J1000000D01*
G01*
X140950000Y-35524214D02*
G75*
G03*
X140657114Y-34817100I-1000000J14D01*
G01*
X140950000Y-35975786D02*
G75*
G02*
X140657114Y-36682900I-1000000J-14D01*
G01*
X139695786Y-34270000D02*
G75*
G02*
X140402900Y-34562886I14J-1000000D01*
G01*
%TD*%
%TA.AperFunction,Conductor*%
%TO.N,GND*%
G36*
X127228691Y-32229407D02*
G01*
X127264655Y-32278907D01*
X127269500Y-32309500D01*
X127269500Y-32355002D01*
X127275730Y-32423562D01*
X127324894Y-32581337D01*
X127410384Y-32722756D01*
X127410389Y-32722762D01*
X127431064Y-32743438D01*
X127443387Y-32758457D01*
X127963709Y-33537554D01*
X127975536Y-33561945D01*
X127990149Y-33606920D01*
X127990149Y-33606921D01*
X128083438Y-33790016D01*
X128204217Y-33956257D01*
X128204219Y-33956259D01*
X128248430Y-34000472D01*
X128248432Y-34000474D01*
X128259360Y-34011402D01*
X128276870Y-34028912D01*
X128311084Y-34063127D01*
X128311086Y-34063128D01*
X129537641Y-35289683D01*
X129544165Y-35296882D01*
X129621265Y-35390829D01*
X129632048Y-35406968D01*
X129687032Y-35509841D01*
X129694458Y-35527770D01*
X129728316Y-35639389D01*
X129732102Y-35658424D01*
X129744022Y-35779473D01*
X129744499Y-35789175D01*
X129744499Y-35840568D01*
X129744500Y-35840581D01*
X129744500Y-37232351D01*
X129744508Y-37232488D01*
X129744508Y-37288530D01*
X129776649Y-37491483D01*
X129840149Y-37686920D01*
X129840149Y-37686921D01*
X129933438Y-37870016D01*
X130054217Y-38036257D01*
X130054219Y-38036259D01*
X130098430Y-38080472D01*
X130098432Y-38080474D01*
X130109431Y-38091473D01*
X130126870Y-38108912D01*
X130161084Y-38143127D01*
X130161086Y-38143128D01*
X130894290Y-38876332D01*
X130911026Y-38898616D01*
X131118372Y-39275503D01*
X131118375Y-39275508D01*
X131124045Y-39282652D01*
X131136555Y-39303072D01*
X131152869Y-39338794D01*
X131238644Y-39437784D01*
X131348833Y-39508598D01*
X131474509Y-39545500D01*
X131474510Y-39545500D01*
X131605490Y-39545500D01*
X131605491Y-39545500D01*
X131605492Y-39545499D01*
X131605496Y-39545499D01*
X131660444Y-39529364D01*
X131680082Y-39523597D01*
X131699456Y-39519954D01*
X131706963Y-39519307D01*
X131706965Y-39519306D01*
X131706969Y-39519306D01*
X132120079Y-39399423D01*
X132147670Y-39395500D01*
X132443033Y-39395500D01*
X132443164Y-39395490D01*
X132498527Y-39395492D01*
X132618035Y-39376565D01*
X132701483Y-39363350D01*
X132701485Y-39363349D01*
X132701487Y-39363349D01*
X132896920Y-39299851D01*
X133080014Y-39206563D01*
X133246259Y-39085781D01*
X133290472Y-39041569D01*
X133290474Y-39041568D01*
X133332584Y-38999458D01*
X133353127Y-38978916D01*
X133353128Y-38978914D01*
X135482201Y-36849841D01*
X135489378Y-36843337D01*
X135583335Y-36766229D01*
X135599464Y-36755453D01*
X135702341Y-36700467D01*
X135720267Y-36693042D01*
X135831895Y-36659181D01*
X135850919Y-36655397D01*
X135908034Y-36649773D01*
X135971973Y-36643477D01*
X135981674Y-36643000D01*
X136025096Y-36643001D01*
X136025099Y-36643000D01*
X136602329Y-36643000D01*
X136629920Y-36646923D01*
X137043028Y-36766805D01*
X137043030Y-36766805D01*
X137043036Y-36766807D01*
X137054773Y-36768156D01*
X137071346Y-36771517D01*
X137080765Y-36774283D01*
X137119251Y-36785584D01*
X137169757Y-36820120D01*
X137190318Y-36877747D01*
X137173079Y-36936454D01*
X137161362Y-36950577D01*
X136743667Y-37368273D01*
X136351363Y-37760577D01*
X136351362Y-37760578D01*
X136350063Y-37761876D01*
X136350050Y-37761883D01*
X136251882Y-37860051D01*
X136136888Y-38018330D01*
X136136882Y-38018339D01*
X136048066Y-38192653D01*
X136048062Y-38192663D01*
X135987603Y-38378741D01*
X135956999Y-38571981D01*
X135956999Y-38593006D01*
X135947130Y-38636096D01*
X135784291Y-38972926D01*
X135782222Y-38977353D01*
X135781962Y-38977928D01*
X135781962Y-38977930D01*
X135779699Y-38988361D01*
X135773005Y-39008492D01*
X135758457Y-39040349D01*
X135758455Y-39040356D01*
X135739816Y-39169997D01*
X135739816Y-39170002D01*
X135758456Y-39299648D01*
X135805046Y-39401665D01*
X135812869Y-39418794D01*
X135898644Y-39517784D01*
X136008833Y-39588598D01*
X136134509Y-39625500D01*
X136134510Y-39625500D01*
X136265490Y-39625500D01*
X136265491Y-39625500D01*
X136391167Y-39588598D01*
X136501356Y-39517784D01*
X136574597Y-39433258D01*
X136626989Y-39401665D01*
X136687950Y-39406900D01*
X136702937Y-39414809D01*
X136708833Y-39418598D01*
X136834509Y-39455500D01*
X136834510Y-39455500D01*
X136965490Y-39455500D01*
X136965491Y-39455500D01*
X137091167Y-39418598D01*
X137201356Y-39347784D01*
X137287131Y-39248794D01*
X137341543Y-39129649D01*
X137353396Y-39047214D01*
X137360184Y-39000002D01*
X137360184Y-38999997D01*
X137346203Y-38902763D01*
X137341543Y-38870351D01*
X137329120Y-38843150D01*
X137322358Y-38822701D01*
X137319758Y-38810520D01*
X137292040Y-38746169D01*
X137286387Y-38685246D01*
X137317623Y-38632634D01*
X137373817Y-38608431D01*
X137433506Y-38621880D01*
X137457780Y-38642171D01*
X137488644Y-38677790D01*
X137488646Y-38677791D01*
X137488647Y-38677792D01*
X137595045Y-38746170D01*
X137598833Y-38748604D01*
X137724509Y-38785506D01*
X137724510Y-38785506D01*
X137855490Y-38785506D01*
X137855491Y-38785506D01*
X137981167Y-38748604D01*
X138091356Y-38677790D01*
X138177131Y-38578800D01*
X138231543Y-38459655D01*
X138250184Y-38330006D01*
X138246937Y-38307430D01*
X138246007Y-38289438D01*
X138246083Y-38287517D01*
X138185093Y-37902265D01*
X138194668Y-37841836D01*
X138195493Y-37840255D01*
X138207950Y-37816948D01*
X138218720Y-37800831D01*
X138295764Y-37706949D01*
X138302271Y-37699769D01*
X138750389Y-37251652D01*
X138757569Y-37245145D01*
X138851535Y-37168029D01*
X138867664Y-37157253D01*
X138970541Y-37102267D01*
X138988467Y-37094842D01*
X139100095Y-37060981D01*
X139119117Y-37057198D01*
X139187869Y-37050427D01*
X139231496Y-37055944D01*
X139517153Y-37160153D01*
X139530938Y-37166414D01*
X139812431Y-37321279D01*
X139897851Y-37368273D01*
X139911115Y-37378235D01*
X139911586Y-37377625D01*
X139911660Y-37377682D01*
X139919199Y-37384306D01*
X139920135Y-37385009D01*
X139921118Y-37385992D01*
X139921250Y-37386108D01*
X139954380Y-37419237D01*
X139960911Y-37425768D01*
X140127153Y-37546554D01*
X140310243Y-37639847D01*
X140505674Y-37703349D01*
X140708632Y-37735498D01*
X140763180Y-37735498D01*
X140763188Y-37735500D01*
X140811377Y-37735500D01*
X140859763Y-37735501D01*
X140859766Y-37735500D01*
X142995500Y-37735500D01*
X143053691Y-37754407D01*
X143089655Y-37803907D01*
X143094500Y-37834500D01*
X143094500Y-41672324D01*
X143090578Y-41699913D01*
X142979272Y-42083472D01*
X142970690Y-42113046D01*
X142969871Y-42117120D01*
X142969341Y-42117013D01*
X142962569Y-42141345D01*
X142958456Y-42150351D01*
X142939816Y-42279997D01*
X142939816Y-42280002D01*
X142958456Y-42409648D01*
X143012869Y-42528794D01*
X143098644Y-42627784D01*
X143208833Y-42698598D01*
X143334509Y-42735500D01*
X143334510Y-42735500D01*
X143431131Y-42735500D01*
X143489322Y-42754407D01*
X143525286Y-42803907D01*
X143525286Y-42865093D01*
X143524378Y-42867755D01*
X143483592Y-42982119D01*
X143478651Y-42993619D01*
X143383897Y-43180578D01*
X143377544Y-43191363D01*
X143259955Y-43364875D01*
X143252292Y-43374772D01*
X143111850Y-43534213D01*
X143107564Y-43538780D01*
X142566770Y-44079574D01*
X142533367Y-44101555D01*
X142137051Y-44259250D01*
X142132618Y-44261556D01*
X142132380Y-44261098D01*
X142112278Y-44270390D01*
X142108833Y-44271401D01*
X142108832Y-44271401D01*
X141998645Y-44342215D01*
X141998643Y-44342217D01*
X141912869Y-44441205D01*
X141858456Y-44560351D01*
X141839816Y-44689997D01*
X141839816Y-44690002D01*
X141858456Y-44819648D01*
X141873611Y-44852832D01*
X141912869Y-44938794D01*
X141998644Y-45037784D01*
X142108833Y-45108598D01*
X142234509Y-45145500D01*
X142234510Y-45145500D01*
X142365490Y-45145500D01*
X142365491Y-45145500D01*
X142491167Y-45108598D01*
X142601356Y-45037784D01*
X142687131Y-44938794D01*
X142712858Y-44882457D01*
X142719826Y-44869755D01*
X142730795Y-44852832D01*
X142888442Y-44456629D01*
X142910421Y-44423231D01*
X143409029Y-43924624D01*
X143409035Y-43924620D01*
X143422952Y-43910702D01*
X143422953Y-43910702D01*
X143424239Y-43909414D01*
X143424278Y-43909395D01*
X143453261Y-43880414D01*
X143453262Y-43880415D01*
X143533601Y-43800085D01*
X143677210Y-43624001D01*
X143802293Y-43434309D01*
X143907569Y-43232948D01*
X143991960Y-43021981D01*
X144019561Y-42925714D01*
X144019563Y-42925714D01*
X144019563Y-42925704D01*
X144032421Y-42880877D01*
X144054902Y-42802605D01*
X144093599Y-42597222D01*
X144110272Y-42418701D01*
X144134507Y-42362523D01*
X144187137Y-42331318D01*
X144248057Y-42337007D01*
X144293999Y-42377418D01*
X144302996Y-42397314D01*
X144308069Y-42412927D01*
X144308070Y-42412930D01*
X144396893Y-42587259D01*
X144511888Y-42745539D01*
X144511892Y-42745544D01*
X144546885Y-42780538D01*
X144546887Y-42780541D01*
X144568940Y-42802594D01*
X144581065Y-42814719D01*
X144625273Y-42858929D01*
X144625287Y-42858941D01*
X145624692Y-43858346D01*
X145624704Y-43858370D01*
X145655275Y-43888941D01*
X145655275Y-43888942D01*
X145724449Y-43958116D01*
X145724452Y-43958118D01*
X145724453Y-43958119D01*
X145814695Y-44023682D01*
X145850659Y-44073181D01*
X145850660Y-44134366D01*
X145814697Y-44183867D01*
X145810029Y-44187059D01*
X145708645Y-44252215D01*
X145708643Y-44252217D01*
X145622869Y-44351205D01*
X145568456Y-44470351D01*
X145549816Y-44599997D01*
X145549816Y-44600002D01*
X145568456Y-44729648D01*
X145581605Y-44758440D01*
X145622869Y-44848794D01*
X145708644Y-44947784D01*
X145818833Y-45018598D01*
X145944509Y-45055500D01*
X145944510Y-45055500D01*
X146075490Y-45055500D01*
X146075491Y-45055500D01*
X146187626Y-45022573D01*
X146194836Y-45020748D01*
X146199479Y-45019758D01*
X146591112Y-44851074D01*
X146630275Y-44843000D01*
X147932741Y-44843000D01*
X147932776Y-44842995D01*
X147946068Y-44842996D01*
X148089614Y-44814445D01*
X148224832Y-44758438D01*
X148346525Y-44677127D01*
X148350164Y-44673486D01*
X148350169Y-44673484D01*
X148364093Y-44659560D01*
X148364094Y-44659560D01*
X148384712Y-44638940D01*
X148384718Y-44638937D01*
X148398341Y-44625313D01*
X148398365Y-44625300D01*
X148428941Y-44594723D01*
X148428942Y-44594725D01*
X148498116Y-44525551D01*
X148610407Y-44370991D01*
X148659906Y-44335028D01*
X148721091Y-44335027D01*
X148770592Y-44370990D01*
X148789500Y-44429181D01*
X148789500Y-46290500D01*
X148770593Y-46348691D01*
X148721093Y-46384655D01*
X148690500Y-46389500D01*
X148229500Y-46389500D01*
X148171309Y-46370593D01*
X148135345Y-46321093D01*
X148130500Y-46290500D01*
X148130500Y-46245006D01*
X148130500Y-46245002D01*
X148124269Y-46176436D01*
X148075106Y-46018663D01*
X147989613Y-45877240D01*
X147872760Y-45760387D01*
X147872757Y-45760385D01*
X147872756Y-45760384D01*
X147731337Y-45674894D01*
X147573562Y-45625730D01*
X147505002Y-45619500D01*
X147504998Y-45619500D01*
X146895002Y-45619500D01*
X146894997Y-45619500D01*
X146826437Y-45625730D01*
X146668662Y-45674894D01*
X146527243Y-45760384D01*
X146410384Y-45877243D01*
X146324894Y-46018662D01*
X146275730Y-46176437D01*
X146269500Y-46244997D01*
X146269500Y-46290500D01*
X146250593Y-46348691D01*
X146201093Y-46384655D01*
X146170500Y-46389500D01*
X126709500Y-46389500D01*
X126651309Y-46370593D01*
X126615345Y-46321093D01*
X126610500Y-46290500D01*
X126610500Y-43569057D01*
X131249500Y-43569057D01*
X131290423Y-43721784D01*
X131369480Y-43858716D01*
X131481284Y-43970520D01*
X131618216Y-44049577D01*
X131770943Y-44090500D01*
X131770945Y-44090500D01*
X131929055Y-44090500D01*
X131929057Y-44090500D01*
X132081784Y-44049577D01*
X132218716Y-43970520D01*
X132330520Y-43858716D01*
X132409577Y-43721784D01*
X132450500Y-43569057D01*
X132450500Y-43410943D01*
X132409577Y-43258216D01*
X132330520Y-43121284D01*
X132218716Y-43009480D01*
X132081784Y-42930423D01*
X131929057Y-42889500D01*
X131770943Y-42889500D01*
X131618216Y-42930423D01*
X131481284Y-43009480D01*
X131369480Y-43121284D01*
X131290423Y-43258216D01*
X131249500Y-43410943D01*
X131249500Y-43569057D01*
X126610500Y-43569057D01*
X126610500Y-32309500D01*
X126629407Y-32251309D01*
X126678907Y-32215345D01*
X126709500Y-32210500D01*
X127170500Y-32210500D01*
X127228691Y-32229407D01*
G37*
%TD.AperFunction*%
%TA.AperFunction,Conductor*%
G36*
X136428691Y-32229407D02*
G01*
X136464655Y-32278907D01*
X136469500Y-32309500D01*
X136469500Y-32355002D01*
X136475730Y-32423562D01*
X136524894Y-32581337D01*
X136610384Y-32722756D01*
X136610385Y-32722757D01*
X136610387Y-32722760D01*
X136727240Y-32839613D01*
X136868663Y-32925106D01*
X137026436Y-32974269D01*
X137095002Y-32980500D01*
X137095007Y-32980500D01*
X137704993Y-32980500D01*
X137704998Y-32980500D01*
X137773564Y-32974269D01*
X137931337Y-32925106D01*
X138072760Y-32839613D01*
X138189613Y-32722760D01*
X138275106Y-32581337D01*
X138305483Y-32483851D01*
X138340845Y-32433922D01*
X138398803Y-32414312D01*
X138457218Y-32432515D01*
X138493778Y-32481576D01*
X138494503Y-32483808D01*
X138515367Y-32550762D01*
X138524894Y-32581337D01*
X138610384Y-32722756D01*
X138610385Y-32722757D01*
X138610387Y-32722760D01*
X138727240Y-32839613D01*
X138868663Y-32925106D01*
X139026436Y-32974269D01*
X139095002Y-32980500D01*
X139095007Y-32980500D01*
X139704993Y-32980500D01*
X139704998Y-32980500D01*
X139773564Y-32974269D01*
X139931337Y-32925106D01*
X140072760Y-32839613D01*
X140189613Y-32722760D01*
X140275106Y-32581337D01*
X140305483Y-32483851D01*
X140340845Y-32433922D01*
X140398803Y-32414312D01*
X140457218Y-32432515D01*
X140493778Y-32481576D01*
X140494503Y-32483808D01*
X140515367Y-32550762D01*
X140524894Y-32581337D01*
X140610384Y-32722756D01*
X140610385Y-32722757D01*
X140610387Y-32722760D01*
X140727240Y-32839613D01*
X140868663Y-32925106D01*
X141026436Y-32974269D01*
X141095002Y-32980500D01*
X141095007Y-32980500D01*
X141704993Y-32980500D01*
X141704998Y-32980500D01*
X141773564Y-32974269D01*
X141931337Y-32925106D01*
X142072760Y-32839613D01*
X142189613Y-32722760D01*
X142275106Y-32581337D01*
X142305483Y-32483851D01*
X142340845Y-32433922D01*
X142398803Y-32414312D01*
X142457218Y-32432515D01*
X142493778Y-32481576D01*
X142494503Y-32483808D01*
X142515367Y-32550762D01*
X142524894Y-32581337D01*
X142610384Y-32722756D01*
X142610385Y-32722757D01*
X142610387Y-32722760D01*
X142727240Y-32839613D01*
X142868663Y-32925106D01*
X143026436Y-32974269D01*
X143095002Y-32980500D01*
X143095007Y-32980500D01*
X143704993Y-32980500D01*
X143704998Y-32980500D01*
X143773564Y-32974269D01*
X143931337Y-32925106D01*
X144072760Y-32839613D01*
X144189613Y-32722760D01*
X144275106Y-32581337D01*
X144324269Y-32423564D01*
X144330500Y-32354998D01*
X144330500Y-32309500D01*
X144349407Y-32251309D01*
X144398907Y-32215345D01*
X144429500Y-32210500D01*
X148690500Y-32210500D01*
X148748691Y-32229407D01*
X148784655Y-32278907D01*
X148789500Y-32309500D01*
X148789500Y-40770500D01*
X148770593Y-40828691D01*
X148721093Y-40864655D01*
X148690500Y-40869500D01*
X148644997Y-40869500D01*
X148576437Y-40875730D01*
X148418662Y-40924894D01*
X148277243Y-41010384D01*
X148160384Y-41127243D01*
X148074894Y-41268662D01*
X148025730Y-41426437D01*
X148019500Y-41494997D01*
X148019500Y-42105002D01*
X148025730Y-42173564D01*
X148055680Y-42269679D01*
X148059140Y-42289619D01*
X148059374Y-42289587D01*
X148060051Y-42294404D01*
X148060051Y-42294407D01*
X148060052Y-42294410D01*
X148304213Y-43301455D01*
X148307000Y-43324782D01*
X148307000Y-43664956D01*
X148306999Y-43664970D01*
X148306999Y-43710930D01*
X148306522Y-43720632D01*
X148293411Y-43853770D01*
X148289626Y-43872801D01*
X148252209Y-43996155D01*
X148244785Y-44014079D01*
X148184021Y-44127763D01*
X148173239Y-44143900D01*
X148128705Y-44198164D01*
X148077176Y-44231152D01*
X148016097Y-44227551D01*
X147968799Y-44188736D01*
X147953350Y-44129533D01*
X147954186Y-44121271D01*
X147970184Y-44010002D01*
X147970184Y-44009997D01*
X147951543Y-43880351D01*
X147943835Y-43863474D01*
X147897131Y-43761206D01*
X147811356Y-43662216D01*
X147751886Y-43623997D01*
X147701171Y-43591404D01*
X147701168Y-43591403D01*
X147701167Y-43591402D01*
X147638329Y-43572951D01*
X147575492Y-43554500D01*
X147575491Y-43554500D01*
X147444509Y-43554500D01*
X147444507Y-43554500D01*
X147444503Y-43554501D01*
X147332401Y-43587416D01*
X147325196Y-43589241D01*
X147320531Y-43590237D01*
X147320516Y-43590242D01*
X146928889Y-43758924D01*
X146889726Y-43767000D01*
X146585043Y-43767000D01*
X146585031Y-43766999D01*
X146539069Y-43766999D01*
X146529367Y-43766522D01*
X146396229Y-43753411D01*
X146377200Y-43749627D01*
X146253841Y-43712208D01*
X146235920Y-43704785D01*
X146122239Y-43644023D01*
X146106102Y-43633241D01*
X146002766Y-43548437D01*
X145995566Y-43541912D01*
X144928163Y-42474509D01*
X144921638Y-42467309D01*
X144836766Y-42363890D01*
X144825984Y-42347754D01*
X144820240Y-42337007D01*
X144765219Y-42234067D01*
X144757799Y-42216150D01*
X144720382Y-42092800D01*
X144716597Y-42073767D01*
X144703477Y-41940528D01*
X144703000Y-41930824D01*
X144703001Y-41892942D01*
X144703000Y-41892939D01*
X144703000Y-39960273D01*
X144711075Y-39921110D01*
X144806998Y-39698403D01*
X144879806Y-39529364D01*
X144882172Y-39517982D01*
X144889043Y-39497018D01*
X144901543Y-39469649D01*
X144901544Y-39469644D01*
X144920184Y-39340002D01*
X144920184Y-39339997D01*
X144901543Y-39210351D01*
X144864687Y-39129648D01*
X144847131Y-39091206D01*
X144761356Y-38992216D01*
X144704077Y-38955405D01*
X144651171Y-38921404D01*
X144651169Y-38921403D01*
X144651167Y-38921402D01*
X144602990Y-38907255D01*
X144581917Y-38901068D01*
X144531410Y-38866531D01*
X144510849Y-38808904D01*
X144528088Y-38750197D01*
X144576541Y-38712835D01*
X144581053Y-38711347D01*
X144617201Y-38700382D01*
X144636227Y-38696597D01*
X144720983Y-38688251D01*
X144769471Y-38683477D01*
X144779172Y-38683000D01*
X144817058Y-38683001D01*
X144817061Y-38683000D01*
X146927935Y-38683000D01*
X146970783Y-38683000D01*
X147019122Y-38683000D01*
X147030129Y-38683000D01*
X147030210Y-38682990D01*
X147068609Y-38682992D01*
X147182395Y-38664971D01*
X147261848Y-38652389D01*
X147261850Y-38652388D01*
X147261852Y-38652388D01*
X147447929Y-38591930D01*
X147490688Y-38570142D01*
X147518173Y-38561933D01*
X147518013Y-38561173D01*
X147522772Y-38560170D01*
X147643249Y-38522123D01*
X147998973Y-38409785D01*
X148006213Y-38407333D01*
X148007128Y-38407002D01*
X148007135Y-38406997D01*
X148011967Y-38404630D01*
X148012163Y-38405031D01*
X148030501Y-38396729D01*
X148041167Y-38393598D01*
X148151356Y-38322784D01*
X148237131Y-38223794D01*
X148291543Y-38104649D01*
X148298412Y-38056873D01*
X148310184Y-37975002D01*
X148310184Y-37974997D01*
X148291543Y-37845351D01*
X148271516Y-37801499D01*
X148237131Y-37726206D01*
X148151356Y-37627216D01*
X148076595Y-37579170D01*
X148041171Y-37556404D01*
X148041168Y-37556403D01*
X148041167Y-37556402D01*
X147978329Y-37537951D01*
X147915492Y-37519500D01*
X147915491Y-37519500D01*
X147784509Y-37519500D01*
X147784507Y-37519500D01*
X147658833Y-37556402D01*
X147658828Y-37556404D01*
X147548648Y-37627213D01*
X147548643Y-37627217D01*
X147462869Y-37726204D01*
X147441608Y-37772759D01*
X147431397Y-37790165D01*
X147423087Y-37801499D01*
X147285077Y-38097506D01*
X147243351Y-38142257D01*
X147224088Y-38150409D01*
X147127803Y-38179616D01*
X147108767Y-38183402D01*
X146975528Y-38196522D01*
X146965826Y-38196999D01*
X146919969Y-38196999D01*
X146919957Y-38197000D01*
X145726329Y-38197000D01*
X145668138Y-38178093D01*
X145632174Y-38128593D01*
X145632174Y-38067407D01*
X145636276Y-38056873D01*
X145653874Y-38018339D01*
X145671543Y-37979649D01*
X145687306Y-37870016D01*
X145690184Y-37850002D01*
X145690184Y-37849997D01*
X145671543Y-37720351D01*
X145617131Y-37601206D01*
X145531356Y-37502216D01*
X145452537Y-37451562D01*
X145421166Y-37431401D01*
X145417712Y-37430387D01*
X145397459Y-37421083D01*
X145397258Y-37421473D01*
X145392937Y-37419237D01*
X144929410Y-37234502D01*
X144928387Y-37234205D01*
X144911081Y-37227352D01*
X144896930Y-37220142D01*
X144701485Y-37156640D01*
X144498530Y-37124498D01*
X144498527Y-37124498D01*
X144395782Y-37124500D01*
X141079203Y-37124500D01*
X141021012Y-37105593D01*
X140985048Y-37056093D01*
X140985048Y-36994907D01*
X140989150Y-36984374D01*
X141041542Y-36869651D01*
X141041541Y-36869651D01*
X141041543Y-36869649D01*
X141053562Y-36786051D01*
X141058019Y-36769459D01*
X141057739Y-36769378D01*
X141059100Y-36764707D01*
X141059102Y-36764703D01*
X141133236Y-36369645D01*
X141133289Y-36368330D01*
X141133551Y-36366868D01*
X141133641Y-36366086D01*
X141133691Y-36366091D01*
X141138051Y-36341785D01*
X141162397Y-36266854D01*
X141164121Y-36255972D01*
X141180725Y-36151128D01*
X141193002Y-36073609D01*
X141193000Y-35975783D01*
X141193000Y-35932935D01*
X141193000Y-35475878D01*
X141193000Y-35465320D01*
X141192990Y-35465229D01*
X141192992Y-35426391D01*
X141172482Y-35296882D01*
X141162389Y-35233151D01*
X141125624Y-35119997D01*
X141101930Y-35047071D01*
X141013108Y-34872743D01*
X141013106Y-34872740D01*
X140898109Y-34714456D01*
X140863114Y-34679460D01*
X140863114Y-34679461D01*
X140863113Y-34679459D01*
X140828936Y-34645282D01*
X140798638Y-34614983D01*
X140798636Y-34614982D01*
X140618941Y-34435287D01*
X140618938Y-34435282D01*
X140605310Y-34421655D01*
X140605298Y-34421632D01*
X140574724Y-34391058D01*
X140574725Y-34391058D01*
X140505551Y-34321884D01*
X140505547Y-34321881D01*
X140505545Y-34321879D01*
X140347265Y-34206884D01*
X140172934Y-34118061D01*
X140172929Y-34118059D01*
X139986852Y-34057602D01*
X139793612Y-34026998D01*
X139793609Y-34026998D01*
X139695783Y-34027000D01*
X136325043Y-34027000D01*
X136325031Y-34026999D01*
X136279069Y-34026999D01*
X136269367Y-34026522D01*
X136136229Y-34013411D01*
X136117200Y-34009627D01*
X135993841Y-33972208D01*
X135975920Y-33964785D01*
X135862239Y-33904023D01*
X135846102Y-33893241D01*
X135742766Y-33808437D01*
X135735566Y-33801912D01*
X135120424Y-33186770D01*
X135098442Y-33153367D01*
X134940748Y-32757052D01*
X134930342Y-32741181D01*
X134923080Y-32728025D01*
X134897132Y-32671207D01*
X134897131Y-32671206D01*
X134897130Y-32671205D01*
X134811356Y-32572216D01*
X134758684Y-32538366D01*
X134701171Y-32501404D01*
X134701168Y-32501403D01*
X134701167Y-32501402D01*
X134633646Y-32481576D01*
X134575492Y-32464500D01*
X134575491Y-32464500D01*
X134444509Y-32464500D01*
X134444507Y-32464500D01*
X134318833Y-32501402D01*
X134318828Y-32501404D01*
X134208648Y-32572213D01*
X134208643Y-32572217D01*
X134122869Y-32671205D01*
X134068456Y-32790351D01*
X134049816Y-32919997D01*
X134049816Y-32920002D01*
X134068456Y-33049648D01*
X134115824Y-33153367D01*
X134122869Y-33168794D01*
X134208644Y-33267784D01*
X134298989Y-33325845D01*
X134318833Y-33338598D01*
X134318835Y-33338599D01*
X134322386Y-33339642D01*
X134342651Y-33348943D01*
X134342848Y-33348564D01*
X134347163Y-33350793D01*
X134347165Y-33350793D01*
X134347167Y-33350795D01*
X134743368Y-33508442D01*
X134776770Y-33530424D01*
X135069347Y-33823001D01*
X135097124Y-33877518D01*
X135087553Y-33937950D01*
X135044288Y-33981215D01*
X134983856Y-33990786D01*
X134971451Y-33987995D01*
X134925492Y-33974500D01*
X134925491Y-33974500D01*
X134794509Y-33974500D01*
X134794505Y-33974500D01*
X134703580Y-34001198D01*
X134691124Y-34003997D01*
X134680154Y-34005728D01*
X134680146Y-34005730D01*
X134285880Y-34150902D01*
X134251673Y-34157000D01*
X131650274Y-34157000D01*
X131611111Y-34148925D01*
X131540793Y-34118638D01*
X131219363Y-33980193D01*
X131219362Y-33980192D01*
X131219358Y-33980191D01*
X131215331Y-33979354D01*
X131207599Y-33977418D01*
X131095492Y-33944500D01*
X131095489Y-33944500D01*
X130964507Y-33944500D01*
X130964505Y-33944500D01*
X130838831Y-33981402D01*
X130838826Y-33981404D01*
X130728646Y-34052213D01*
X130728641Y-34052217D01*
X130642867Y-34151205D01*
X130588454Y-34270351D01*
X130569814Y-34399997D01*
X130569814Y-34400002D01*
X130588454Y-34529648D01*
X130624849Y-34609341D01*
X130642867Y-34648794D01*
X130728642Y-34747784D01*
X130838831Y-34818598D01*
X130964507Y-34855500D01*
X130964508Y-34855500D01*
X131095488Y-34855500D01*
X131095489Y-34855500D01*
X131207624Y-34822573D01*
X131214834Y-34820748D01*
X131219477Y-34819758D01*
X131611110Y-34651074D01*
X131650273Y-34643000D01*
X134238312Y-34643000D01*
X134282935Y-34653627D01*
X134659946Y-34843997D01*
X134661444Y-34844720D01*
X134666330Y-34847455D01*
X134668829Y-34848596D01*
X134668830Y-34848596D01*
X134668833Y-34848598D01*
X134794509Y-34885500D01*
X134794510Y-34885500D01*
X134925490Y-34885500D01*
X134925491Y-34885500D01*
X135051167Y-34848598D01*
X135161356Y-34777784D01*
X135247131Y-34678794D01*
X135301543Y-34559649D01*
X135320184Y-34430000D01*
X135302626Y-34307883D01*
X135313059Y-34247593D01*
X135356937Y-34204951D01*
X135417499Y-34196243D01*
X135460767Y-34216565D01*
X135461302Y-34215830D01*
X135622734Y-34333115D01*
X135795936Y-34421363D01*
X135797067Y-34421939D01*
X135983146Y-34482397D01*
X136176391Y-34513002D01*
X136274217Y-34513000D01*
X136317065Y-34513000D01*
X138286280Y-34513000D01*
X138344471Y-34531907D01*
X138380435Y-34581407D01*
X138380435Y-34642593D01*
X138344471Y-34692093D01*
X138331900Y-34699430D01*
X138218648Y-34772213D01*
X138218643Y-34772217D01*
X138132869Y-34871205D01*
X138078456Y-34990351D01*
X138059816Y-35119997D01*
X138059816Y-35120002D01*
X138078455Y-35249643D01*
X138078457Y-35249649D01*
X138095194Y-35286299D01*
X138100648Y-35301362D01*
X138103604Y-35312198D01*
X138105526Y-35319239D01*
X138216758Y-35542216D01*
X138251525Y-35611909D01*
X138260582Y-35672421D01*
X138257674Y-35684838D01*
X138222212Y-35801749D01*
X138214785Y-35819680D01*
X138154025Y-35933357D01*
X138143243Y-35949494D01*
X138058461Y-36052803D01*
X138051936Y-36060003D01*
X137823139Y-36288800D01*
X137768622Y-36316577D01*
X137708190Y-36307006D01*
X137664925Y-36263741D01*
X137655143Y-36232885D01*
X137651543Y-36207851D01*
X137623993Y-36147525D01*
X137597131Y-36088706D01*
X137511356Y-35989716D01*
X137481372Y-35970446D01*
X137401171Y-35918904D01*
X137401168Y-35918903D01*
X137401167Y-35918902D01*
X137338329Y-35900451D01*
X137275492Y-35882000D01*
X137275491Y-35882000D01*
X137144509Y-35882000D01*
X137144507Y-35882000D01*
X137144503Y-35882001D01*
X137069918Y-35903900D01*
X137050555Y-35907542D01*
X137043042Y-35908191D01*
X137043038Y-35908191D01*
X137043038Y-35908192D01*
X136629913Y-36028078D01*
X136602325Y-36032000D01*
X135930327Y-36032000D01*
X135930185Y-36032008D01*
X135873970Y-36032008D01*
X135671016Y-36064149D01*
X135475579Y-36127649D01*
X135475578Y-36127649D01*
X135292483Y-36220938D01*
X135126241Y-36341718D01*
X135084517Y-36383439D01*
X135084518Y-36383440D01*
X135082029Y-36385929D01*
X135082025Y-36385932D01*
X133985931Y-37482025D01*
X132890316Y-38577641D01*
X132883117Y-38584165D01*
X132789170Y-38661265D01*
X132773031Y-38672048D01*
X132670158Y-38727032D01*
X132652229Y-38734458D01*
X132540610Y-38768316D01*
X132521575Y-38772102D01*
X132400526Y-38784022D01*
X132390824Y-38784499D01*
X132339431Y-38784499D01*
X132339419Y-38784500D01*
X132147674Y-38784500D01*
X132120083Y-38780577D01*
X131727187Y-38666560D01*
X131707058Y-38658223D01*
X131660545Y-38632634D01*
X131348615Y-38461025D01*
X131326331Y-38444289D01*
X130671099Y-37789057D01*
X131249500Y-37789057D01*
X131290423Y-37941784D01*
X131369480Y-38078716D01*
X131481284Y-38190520D01*
X131618216Y-38269577D01*
X131770943Y-38310500D01*
X131770945Y-38310500D01*
X131929055Y-38310500D01*
X131929057Y-38310500D01*
X132081784Y-38269577D01*
X132218716Y-38190520D01*
X132330520Y-38078716D01*
X132409577Y-37941784D01*
X132450500Y-37789057D01*
X132450500Y-37630943D01*
X132409577Y-37478216D01*
X132330520Y-37341284D01*
X132218716Y-37229480D01*
X132081784Y-37150423D01*
X131929057Y-37109500D01*
X131770943Y-37109500D01*
X131618216Y-37150423D01*
X131481284Y-37229480D01*
X131369480Y-37341284D01*
X131290423Y-37478216D01*
X131249500Y-37630943D01*
X131249500Y-37789057D01*
X130671099Y-37789057D01*
X130562358Y-37680316D01*
X130555834Y-37673117D01*
X130513613Y-37621671D01*
X130478733Y-37579168D01*
X130467951Y-37563031D01*
X130412967Y-37460158D01*
X130405541Y-37442229D01*
X130402257Y-37431402D01*
X130371682Y-37330606D01*
X130367897Y-37311575D01*
X130365627Y-37288527D01*
X130361355Y-37245138D01*
X130355977Y-37190526D01*
X130355500Y-37180822D01*
X130355500Y-37161848D01*
X130355501Y-37137404D01*
X130355500Y-37137400D01*
X130355500Y-35743994D01*
X130355500Y-35737162D01*
X130355490Y-35737022D01*
X130355492Y-35681473D01*
X130331150Y-35527770D01*
X130323350Y-35478516D01*
X130297309Y-35398368D01*
X130259851Y-35283080D01*
X130166563Y-35099986D01*
X130045781Y-34933741D01*
X130001569Y-34889527D01*
X130001568Y-34889526D01*
X129956030Y-34843988D01*
X129956029Y-34843986D01*
X129935476Y-34823432D01*
X129935454Y-34823412D01*
X128712358Y-33600316D01*
X128705834Y-33593117D01*
X128628734Y-33499170D01*
X128617951Y-33483032D01*
X128587668Y-33426374D01*
X128576913Y-33366141D01*
X128591913Y-33325845D01*
X128629561Y-33267784D01*
X128965030Y-32750419D01*
X128978095Y-32734277D01*
X128989613Y-32722760D01*
X128989614Y-32722758D01*
X129075103Y-32581342D01*
X129075103Y-32581341D01*
X129075106Y-32581337D01*
X129082120Y-32558825D01*
X129083784Y-32553942D01*
X129084960Y-32550762D01*
X129084962Y-32550758D01*
X129086844Y-32544226D01*
X129086844Y-32544220D01*
X129087665Y-32541374D01*
X129087688Y-32541380D01*
X129088487Y-32538390D01*
X129124269Y-32423564D01*
X129130500Y-32354998D01*
X129130500Y-32309500D01*
X129149407Y-32251309D01*
X129198907Y-32215345D01*
X129229500Y-32210500D01*
X136370500Y-32210500D01*
X136428691Y-32229407D01*
G37*
%TD.AperFunction*%
%TD*%
%TA.AperFunction,Conductor*%
%TO.N,USB_P*%
G36*
X132081561Y-38962551D02*
G01*
X132088551Y-38968147D01*
X132090000Y-38973787D01*
X132090000Y-39206212D01*
X132086573Y-39214485D01*
X132081561Y-39217448D01*
X131655265Y-39341157D01*
X131646364Y-39340172D01*
X131641210Y-39334435D01*
X131592292Y-39217448D01*
X131540886Y-39094512D01*
X131540857Y-39085559D01*
X131540856Y-39085559D01*
X131641211Y-38845562D01*
X131647563Y-38839254D01*
X131655262Y-38838842D01*
X132081561Y-38962551D01*
G37*
%TD.AperFunction*%
%TD*%
%TA.AperFunction,Conductor*%
%TO.N,USB_P*%
G36*
X137103635Y-36087327D02*
G01*
X137108789Y-36093064D01*
X137209112Y-36332986D01*
X137209142Y-36341941D01*
X137209112Y-36342014D01*
X137108789Y-36581935D01*
X137102436Y-36588245D01*
X137094734Y-36588657D01*
X136668439Y-36464948D01*
X136661449Y-36459352D01*
X136660000Y-36453712D01*
X136660000Y-36221287D01*
X136663427Y-36213014D01*
X136668439Y-36210051D01*
X137094736Y-36086342D01*
X137103635Y-36087327D01*
G37*
%TD.AperFunction*%
%TD*%
%TA.AperFunction,Conductor*%
%TO.N,USB_P*%
G36*
X128626367Y-32213810D02*
G01*
X128905050Y-32484646D01*
X128908595Y-32492869D01*
X128906713Y-32499401D01*
X128357743Y-33346029D01*
X128352403Y-33350473D01*
X128133668Y-33441073D01*
X128124713Y-33441073D01*
X128119461Y-33436762D01*
X127493466Y-32499437D01*
X127491721Y-32490654D01*
X127495035Y-32484555D01*
X127683169Y-32301522D01*
X127773323Y-32213814D01*
X127781482Y-32210500D01*
X128618213Y-32210500D01*
X128626367Y-32213810D01*
G37*
%TD.AperFunction*%
%TD*%
%TA.AperFunction,Conductor*%
%TO.N,USB_P*%
G36*
X131247176Y-38616938D02*
G01*
X131574796Y-38797179D01*
X131636090Y-38830900D01*
X131641686Y-38837890D01*
X131641274Y-38845592D01*
X131542563Y-39086180D01*
X131536253Y-39092533D01*
X131536180Y-39092563D01*
X131295592Y-39191274D01*
X131286637Y-39191244D01*
X131280900Y-39186090D01*
X131229446Y-39092563D01*
X131066938Y-38797177D01*
X131065954Y-38788278D01*
X131068915Y-38783268D01*
X131233267Y-38618916D01*
X131241539Y-38615490D01*
X131247176Y-38616938D01*
G37*
%TD.AperFunction*%
%TD*%
%TA.AperFunction,Conductor*%
%TO.N,3V3*%
G36*
X139599709Y-36489421D02*
G01*
X139605520Y-36495493D01*
X139705579Y-36734767D01*
X139705609Y-36743722D01*
X139705579Y-36743794D01*
X139605539Y-36983060D01*
X139599186Y-36989371D01*
X139590735Y-36989538D01*
X139254893Y-36867022D01*
X139248296Y-36860968D01*
X139247206Y-36856264D01*
X139242629Y-36622717D01*
X139245893Y-36614381D01*
X139250362Y-36611483D01*
X139590766Y-36488998D01*
X139599709Y-36489421D01*
G37*
%TD.AperFunction*%
%TD*%
%TA.AperFunction,Conductor*%
%TO.N,3V3*%
G36*
X131145982Y-34150562D02*
G01*
X131146034Y-34150583D01*
X131572927Y-34334454D01*
X131579169Y-34340873D01*
X131579998Y-34345199D01*
X131579998Y-34454800D01*
X131576571Y-34463073D01*
X131572926Y-34465546D01*
X131146096Y-34649389D01*
X131137142Y-34649514D01*
X131130722Y-34643271D01*
X131130674Y-34643157D01*
X131055132Y-34462500D01*
X131030884Y-34404512D01*
X131030855Y-34395559D01*
X131030854Y-34395559D01*
X131130674Y-34156841D01*
X131137027Y-34150532D01*
X131145982Y-34150562D01*
G37*
%TD.AperFunction*%
%TD*%
%TA.AperFunction,Conductor*%
%TO.N,3V3*%
G36*
X134753195Y-34180161D02*
G01*
X134759084Y-34186269D01*
X134859112Y-34425486D01*
X134859142Y-34434441D01*
X134859112Y-34434514D01*
X134759610Y-34672471D01*
X134753257Y-34678781D01*
X134744302Y-34678751D01*
X134743542Y-34678401D01*
X134322393Y-34465744D01*
X134316553Y-34458956D01*
X134315967Y-34455300D01*
X134315967Y-34345659D01*
X134319394Y-34337386D01*
X134323621Y-34334681D01*
X134744248Y-34179804D01*
X134753195Y-34180161D01*
G37*
%TD.AperFunction*%
%TD*%
%TA.AperFunction,Conductor*%
%TO.N,3V3*%
G36*
X139959830Y-36638055D02*
G01*
X139965567Y-36643209D01*
X140179528Y-37032120D01*
X140180513Y-37041021D01*
X140177550Y-37046033D01*
X140013201Y-37210382D01*
X140004928Y-37213809D01*
X139999288Y-37212360D01*
X139610377Y-36998399D01*
X139604781Y-36991409D01*
X139605193Y-36983707D01*
X139703904Y-36743119D01*
X139710214Y-36736766D01*
X139710287Y-36736736D01*
X139950875Y-36638025D01*
X139959830Y-36638055D01*
G37*
%TD.AperFunction*%
%TD*%
%TA.AperFunction,Conductor*%
%TO.N,3V3*%
G36*
X143524486Y-41733427D02*
G01*
X143527449Y-41738439D01*
X143651157Y-42164734D01*
X143650172Y-42173635D01*
X143644435Y-42178789D01*
X143404514Y-42279112D01*
X143395559Y-42279142D01*
X143395486Y-42279112D01*
X143155564Y-42178789D01*
X143149254Y-42172436D01*
X143148842Y-42164737D01*
X143272551Y-41738438D01*
X143278147Y-41731449D01*
X143283787Y-41730000D01*
X143516213Y-41730000D01*
X143524486Y-41733427D01*
G37*
%TD.AperFunction*%
%TD*%
%TA.AperFunction,Conductor*%
%TO.N,3V3*%
G36*
X145324262Y-37591558D02*
G01*
X145330678Y-37597805D01*
X145330799Y-37606759D01*
X145330756Y-37606865D01*
X145231821Y-37848190D01*
X145229240Y-37852053D01*
X145045513Y-38034553D01*
X145037229Y-38037952D01*
X145028967Y-38034497D01*
X145027612Y-38032859D01*
X144757929Y-37638750D01*
X144756085Y-37629987D01*
X144756776Y-37627666D01*
X144765436Y-37606759D01*
X144845601Y-37413215D01*
X144851932Y-37406884D01*
X144860740Y-37406824D01*
X145324262Y-37591558D01*
G37*
%TD.AperFunction*%
%TD*%
%TA.AperFunction,Conductor*%
%TO.N,3V3*%
G36*
X137767967Y-37756087D02*
G01*
X137982556Y-37844970D01*
X137988888Y-37851301D01*
X137989635Y-37853950D01*
X138062865Y-38316522D01*
X138060774Y-38325229D01*
X138053138Y-38329907D01*
X138051348Y-38330051D01*
X137791987Y-38330921D01*
X137787431Y-38330014D01*
X137787175Y-38329907D01*
X137700242Y-38293527D01*
X137547189Y-38229478D01*
X137540880Y-38223123D01*
X137540913Y-38214168D01*
X137541112Y-38213719D01*
X137752897Y-37761928D01*
X137759511Y-37755894D01*
X137767967Y-37756087D01*
G37*
%TD.AperFunction*%
%TD*%
%TA.AperFunction,Conductor*%
%TO.N,/TPWR_C*%
G36*
X144698053Y-39438542D02*
G01*
X144703157Y-39440676D01*
X144709467Y-39447029D01*
X144709437Y-39455984D01*
X144709389Y-39456098D01*
X144525546Y-39882928D01*
X144519126Y-39889171D01*
X144514800Y-39890000D01*
X144405200Y-39890000D01*
X144396927Y-39886573D01*
X144394454Y-39882928D01*
X144383539Y-39857588D01*
X144210609Y-39456096D01*
X144210485Y-39447144D01*
X144216728Y-39440724D01*
X144455487Y-39340886D01*
X144464441Y-39340857D01*
X144698053Y-39438542D01*
G37*
%TD.AperFunction*%
%TD*%
%TA.AperFunction,Conductor*%
%TO.N,/TPWR_C*%
G36*
X147409275Y-43766728D02*
G01*
X147409323Y-43766842D01*
X147509112Y-44005486D01*
X147509142Y-44014441D01*
X147509112Y-44014514D01*
X147409323Y-44253157D01*
X147402970Y-44259467D01*
X147394015Y-44259437D01*
X147393901Y-44259389D01*
X146967072Y-44075546D01*
X146960829Y-44069126D01*
X146960000Y-44064800D01*
X146960000Y-43955199D01*
X146963427Y-43946926D01*
X146967068Y-43944455D01*
X147393903Y-43760609D01*
X147402855Y-43760485D01*
X147409275Y-43766728D01*
G37*
%TD.AperFunction*%
%TD*%
%TA.AperFunction,Conductor*%
%TO.N,Net-(U3-PB8)*%
G36*
X142646513Y-44259869D02*
G01*
X142650158Y-44262342D01*
X142727657Y-44339841D01*
X142731084Y-44348114D01*
X142730255Y-44352440D01*
X142558438Y-44784251D01*
X142552195Y-44790671D01*
X142543241Y-44790796D01*
X142543126Y-44790749D01*
X142303819Y-44692563D01*
X142297466Y-44686253D01*
X142297436Y-44686180D01*
X142257940Y-44589918D01*
X142199250Y-44446871D01*
X142199280Y-44437918D01*
X142205633Y-44431608D01*
X142205683Y-44431587D01*
X142637561Y-44259744D01*
X142646513Y-44259869D01*
G37*
%TD.AperFunction*%
%TD*%
%TA.AperFunction,Conductor*%
%TO.N,Net-(U3-PB8)*%
G36*
X147606265Y-37874011D02*
G01*
X147701329Y-37913102D01*
X147846401Y-37972758D01*
X147852749Y-37979074D01*
X147852777Y-37979141D01*
X147950414Y-38217301D01*
X147950381Y-38226256D01*
X147944026Y-38232565D01*
X147943111Y-38232896D01*
X147466909Y-38383281D01*
X147457988Y-38382504D01*
X147452577Y-38376601D01*
X147410818Y-38275780D01*
X147410818Y-38266828D01*
X147411006Y-38266399D01*
X147591212Y-37879886D01*
X147597813Y-37873838D01*
X147606265Y-37874011D01*
G37*
%TD.AperFunction*%
%TD*%
%TA.AperFunction,Conductor*%
%TO.N,TPWR*%
G36*
X148788430Y-42001134D02*
G01*
X148789500Y-42006022D01*
X148789500Y-43145409D01*
X148786073Y-43153682D01*
X148784309Y-43155131D01*
X148615454Y-43268185D01*
X148608945Y-43270163D01*
X148496703Y-43270163D01*
X148488430Y-43266736D01*
X148485332Y-43261220D01*
X148392132Y-42876816D01*
X148240329Y-42250701D01*
X148241710Y-42241856D01*
X148246810Y-42237317D01*
X148772916Y-41995391D01*
X148781860Y-41995049D01*
X148788430Y-42001134D01*
G37*
%TD.AperFunction*%
%TD*%
%TA.AperFunction,Conductor*%
%TO.N,TPWR*%
G36*
X146125984Y-44350562D02*
G01*
X146126036Y-44350583D01*
X146552929Y-44534454D01*
X146559171Y-44540873D01*
X146560000Y-44545199D01*
X146560000Y-44654800D01*
X146556573Y-44663073D01*
X146552928Y-44665546D01*
X146126098Y-44849389D01*
X146117144Y-44849514D01*
X146110724Y-44843271D01*
X146110676Y-44843157D01*
X146035134Y-44662500D01*
X146010886Y-44604512D01*
X146010857Y-44595559D01*
X146010856Y-44595559D01*
X146110676Y-44356841D01*
X146117029Y-44350532D01*
X146125984Y-44350562D01*
G37*
%TD.AperFunction*%
%TD*%
%TA.AperFunction,Conductor*%
%TO.N,/iTXD*%
G36*
X136963073Y-38453427D02*
G01*
X136965546Y-38457072D01*
X137149389Y-38883901D01*
X137149514Y-38892855D01*
X137143271Y-38899275D01*
X137143157Y-38899323D01*
X136904514Y-38999112D01*
X136895559Y-38999142D01*
X136895486Y-38999112D01*
X136656842Y-38899323D01*
X136650532Y-38892970D01*
X136650562Y-38884015D01*
X136650565Y-38884007D01*
X136834454Y-38457072D01*
X136840874Y-38450829D01*
X136845200Y-38450000D01*
X136954800Y-38450000D01*
X136963073Y-38453427D01*
G37*
%TD.AperFunction*%
%TD*%
%TA.AperFunction,Conductor*%
%TO.N,/iTXD*%
G36*
X139669277Y-35646729D02*
G01*
X139669366Y-35646937D01*
X139769091Y-35885291D01*
X139769123Y-35894246D01*
X139769094Y-35894317D01*
X139669420Y-36132915D01*
X139663069Y-36139228D01*
X139654114Y-36139201D01*
X139653767Y-36139049D01*
X139252739Y-35956045D01*
X139246635Y-35949493D01*
X139246121Y-35947684D01*
X139224730Y-35840162D01*
X139226477Y-35831379D01*
X139231479Y-35827176D01*
X139653850Y-35640748D01*
X139662801Y-35640544D01*
X139669277Y-35646729D01*
G37*
%TD.AperFunction*%
%TD*%
%TA.AperFunction,Conductor*%
%TO.N,/iRXD*%
G36*
X138762713Y-35220487D02*
G01*
X138769022Y-35226841D01*
X138768990Y-35235796D01*
X138768748Y-35236336D01*
X138583137Y-35623668D01*
X138576472Y-35629648D01*
X138570304Y-35630087D01*
X138462241Y-35608594D01*
X138454795Y-35603619D01*
X138454053Y-35602342D01*
X138271518Y-35236433D01*
X138270892Y-35227500D01*
X138276765Y-35220740D01*
X138277450Y-35220426D01*
X138515682Y-35120904D01*
X138524635Y-35120878D01*
X138762713Y-35220487D01*
G37*
%TD.AperFunction*%
%TD*%
%TA.AperFunction,Conductor*%
%TO.N,/iRXD*%
G36*
X136255340Y-38670984D02*
G01*
X136263539Y-38674585D01*
X136265612Y-38677561D01*
X136448646Y-39053625D01*
X136449185Y-39062563D01*
X136443246Y-39069265D01*
X136442639Y-39069539D01*
X136204492Y-39169111D01*
X136195538Y-39169141D01*
X136195465Y-39169111D01*
X135957329Y-39069527D01*
X135951019Y-39063174D01*
X135951049Y-39054219D01*
X135951309Y-39053641D01*
X135951317Y-39053625D01*
X136134245Y-38675244D01*
X136140931Y-38669289D01*
X136145023Y-38668641D01*
X136255340Y-38670984D01*
G37*
%TD.AperFunction*%
%TD*%
%TA.AperFunction,Conductor*%
%TO.N,/LED0*%
G36*
X134762081Y-32819280D02*
G01*
X134768391Y-32825633D01*
X134768438Y-32825748D01*
X134940255Y-33257559D01*
X134940130Y-33266513D01*
X134937657Y-33270158D01*
X134860158Y-33347657D01*
X134851885Y-33351084D01*
X134847559Y-33350255D01*
X134415748Y-33178438D01*
X134409328Y-33172195D01*
X134409203Y-33163242D01*
X134507436Y-32923818D01*
X134513746Y-32917466D01*
X134513819Y-32917436D01*
X134753128Y-32819250D01*
X134762081Y-32819280D01*
G37*
%TD.AperFunction*%
%TD*%
%TA.AperFunction,Conductor*%
%TO.N,/LED0*%
G36*
X140842661Y-36280533D02*
G01*
X140943896Y-36322465D01*
X140950228Y-36328797D01*
X140950918Y-36335432D01*
X140876784Y-36730490D01*
X140871890Y-36737989D01*
X140865324Y-36740032D01*
X140607485Y-36740896D01*
X140599201Y-36737497D01*
X140596626Y-36733648D01*
X140498570Y-36495193D01*
X140498593Y-36486239D01*
X140503323Y-36480740D01*
X140832118Y-36281337D01*
X140840968Y-36279978D01*
X140842661Y-36280533D01*
G37*
%TD.AperFunction*%
%TD*%
M02*
