%TF.GenerationSoftware,KiCad,Pcbnew,8.0.0-rc2-74-g5f063dd458*%
%TF.CreationDate,2024-01-29T02:36:54+02:00*%
%TF.ProjectId,SamoBase,53616d6f-4261-4736-952e-6b696361645f,rev?*%
%TF.SameCoordinates,Original*%
%TF.FileFunction,Legend,Bot*%
%TF.FilePolarity,Positive*%
%FSLAX46Y46*%
G04 Gerber Fmt 4.6, Leading zero omitted, Abs format (unit mm)*
G04 Created by KiCad (PCBNEW 8.0.0-rc2-74-g5f063dd458) date 2024-01-29 02:36:54*
%MOMM*%
%LPD*%
G01*
G04 APERTURE LIST*
%ADD10C,0.211555*%
%ADD11C,0.120000*%
%ADD12C,0.400000*%
%ADD13C,0.000000*%
G04 APERTURE END LIST*
D10*
X126955778Y-69320002D02*
G75*
G02*
X126744224Y-69320002I-105777J0D01*
G01*
X126744224Y-69320002D02*
G75*
G02*
X126955778Y-69320002I105777J0D01*
G01*
D11*
X126212856Y-70051331D02*
X126212856Y-69451331D01*
X126212856Y-69451331D02*
X126069999Y-69451331D01*
X126069999Y-69451331D02*
X125984285Y-69479902D01*
X125984285Y-69479902D02*
X125927142Y-69537045D01*
X125927142Y-69537045D02*
X125898571Y-69594188D01*
X125898571Y-69594188D02*
X125869999Y-69708474D01*
X125869999Y-69708474D02*
X125869999Y-69794188D01*
X125869999Y-69794188D02*
X125898571Y-69908474D01*
X125898571Y-69908474D02*
X125927142Y-69965617D01*
X125927142Y-69965617D02*
X125984285Y-70022760D01*
X125984285Y-70022760D02*
X126069999Y-70051331D01*
X126069999Y-70051331D02*
X126212856Y-70051331D01*
X125355714Y-69651331D02*
X125355714Y-70051331D01*
X125498571Y-69422760D02*
X125641428Y-69851331D01*
X125641428Y-69851331D02*
X125269999Y-69851331D01*
%TO.C,D4*%
X126450000Y-69620002D02*
X126450000Y-71820002D01*
X126450000Y-71820002D02*
X128150000Y-71820002D01*
X128150000Y-69620002D02*
X126450000Y-69620002D01*
X128150000Y-71820002D02*
X128150000Y-69620002D01*
D12*
X126850001Y-69320002D02*
G75*
G02*
X126849999Y-69320002I-1J0D01*
G01*
X126849999Y-69320002D02*
G75*
G02*
X126850001Y-69320002I1J0D01*
G01*
D13*
%TO.C,G\u002A\u002A\u002A*%
G36*
X80615111Y-69041112D02*
G01*
X80586889Y-69069334D01*
X80558667Y-69041112D01*
X80586889Y-69012889D01*
X80615111Y-69041112D01*
G37*
G36*
X94274667Y-67686445D02*
G01*
X94246445Y-67714667D01*
X94218223Y-67686445D01*
X94246445Y-67658223D01*
X94274667Y-67686445D01*
G37*
G36*
X94895556Y-68928223D02*
G01*
X94867334Y-68956445D01*
X94839111Y-68928223D01*
X94867334Y-68900000D01*
X94895556Y-68928223D01*
G37*
G36*
X84396889Y-67714667D02*
G01*
X84392816Y-67744549D01*
X84359260Y-67752297D01*
X84352504Y-67744024D01*
X84359260Y-67677037D01*
X84376237Y-67668207D01*
X84396889Y-67714667D01*
G37*
G36*
X92163390Y-71769946D02*
G01*
X92145966Y-71795020D01*
X92098225Y-71835112D01*
X92090334Y-71834562D01*
X92077904Y-71801888D01*
X92138499Y-71745055D01*
X92170043Y-71731321D01*
X92163390Y-71769946D01*
G37*
G36*
X94423457Y-68927081D02*
G01*
X94491077Y-69018218D01*
X94478514Y-69157959D01*
X94436317Y-69208013D01*
X94317253Y-69228515D01*
X94221023Y-69185610D01*
X94190000Y-69069334D01*
X94216368Y-68958879D01*
X94317253Y-68910153D01*
X94423457Y-68927081D01*
G37*
G36*
X91113778Y-68032357D02*
G01*
X91476853Y-68038859D01*
X91794248Y-68056282D01*
X92033970Y-68085982D01*
X92214445Y-68129588D01*
X92282229Y-68151959D01*
X92387727Y-68190745D01*
X92391683Y-68203479D01*
X92299111Y-68193974D01*
X92127074Y-68170498D01*
X91681337Y-68116853D01*
X91310642Y-68088643D01*
X90988405Y-68087959D01*
X90688044Y-68116895D01*
X90382976Y-68177543D01*
X90046616Y-68271996D01*
X89652383Y-68402348D01*
X89434628Y-68477331D01*
X88988054Y-68629968D01*
X88625003Y-68751837D01*
X88329438Y-68847954D01*
X88085324Y-68923336D01*
X87876625Y-68982998D01*
X87687307Y-69031957D01*
X87501334Y-69075228D01*
X87451429Y-69086093D01*
X87267958Y-69120923D01*
X87083862Y-69144917D01*
X86876712Y-69159183D01*
X86624082Y-69164829D01*
X86303543Y-69162963D01*
X85892667Y-69154691D01*
X85863886Y-69153974D01*
X85457891Y-69138429D01*
X85045746Y-69113635D01*
X84644446Y-69081484D01*
X84270986Y-69043869D01*
X83942363Y-69002682D01*
X83675571Y-68959815D01*
X83487606Y-68917162D01*
X83395464Y-68876615D01*
X83391002Y-68869458D01*
X83433159Y-68855332D01*
X83550223Y-68866202D01*
X83679670Y-68886325D01*
X84096156Y-68938791D01*
X84568218Y-68984173D01*
X85062457Y-69020263D01*
X85545471Y-69044857D01*
X85983859Y-69055748D01*
X86344223Y-69050730D01*
X86430104Y-69046648D01*
X86781311Y-69022234D01*
X87111624Y-68983486D01*
X87441942Y-68925678D01*
X87793165Y-68844086D01*
X88186196Y-68733984D01*
X88641933Y-68590647D01*
X89181278Y-68409351D01*
X90295334Y-68026988D01*
X91113778Y-68032357D01*
G37*
G36*
X91578108Y-69274032D02*
G01*
X91637767Y-69324644D01*
X91698568Y-69376225D01*
X91791653Y-69478207D01*
X91799053Y-69497747D01*
X91827713Y-69573428D01*
X91827425Y-69603163D01*
X91826532Y-69695449D01*
X91826338Y-69697607D01*
X91813522Y-69786130D01*
X91802454Y-69862574D01*
X91776457Y-69918622D01*
X91750700Y-69974151D01*
X91645850Y-70065120D01*
X91591643Y-70095643D01*
X91462674Y-70168263D01*
X91283807Y-70251605D01*
X91090676Y-70300115D01*
X90938484Y-70271142D01*
X90831676Y-70186970D01*
X90972667Y-70186970D01*
X91113778Y-70191732D01*
X91217921Y-70183135D01*
X91339556Y-70141778D01*
X91353947Y-70132390D01*
X91395736Y-70095643D01*
X91339556Y-70091824D01*
X91254546Y-70104974D01*
X91113778Y-70141778D01*
X90972667Y-70186970D01*
X90831676Y-70186970D01*
X90803225Y-70164549D01*
X90704355Y-70019083D01*
X90830036Y-70019083D01*
X90863541Y-70077804D01*
X90915752Y-70087956D01*
X91050288Y-70069982D01*
X91226667Y-70021730D01*
X91537111Y-69918622D01*
X91198445Y-69950981D01*
X91043932Y-69968029D01*
X90900229Y-69989511D01*
X90835319Y-70007055D01*
X90830036Y-70019083D01*
X90704355Y-70019083D01*
X90637970Y-69921411D01*
X90603635Y-69817223D01*
X90732496Y-69817223D01*
X90737167Y-69828814D01*
X90813258Y-69884368D01*
X90971847Y-69892978D01*
X91223381Y-69855458D01*
X91406825Y-69816249D01*
X91506145Y-69786130D01*
X91497842Y-69766916D01*
X91380175Y-69756087D01*
X91151408Y-69751123D01*
X91032372Y-69750891D01*
X90846027Y-69758794D01*
X90750923Y-69780139D01*
X90732496Y-69817223D01*
X90603635Y-69817223D01*
X90533880Y-69605556D01*
X90641811Y-69605556D01*
X90676596Y-69643570D01*
X90807299Y-69679449D01*
X91007907Y-69678239D01*
X91254889Y-69638671D01*
X91323437Y-69622058D01*
X91359723Y-69603163D01*
X91304782Y-69585235D01*
X91148233Y-69560682D01*
X91093886Y-69552995D01*
X90854815Y-69525489D01*
X90709195Y-69524246D01*
X90642903Y-69550518D01*
X90641811Y-69605556D01*
X90533880Y-69605556D01*
X90528456Y-69589096D01*
X90514243Y-69372564D01*
X90605778Y-69372564D01*
X90606125Y-69381734D01*
X90635560Y-69432485D01*
X90729399Y-69457655D01*
X90911606Y-69464445D01*
X91029038Y-69466415D01*
X91206953Y-69476934D01*
X91320828Y-69493495D01*
X91338721Y-69497747D01*
X91334377Y-69484852D01*
X91244119Y-69438252D01*
X91224861Y-69429595D01*
X91035864Y-69363942D01*
X90834897Y-69317321D01*
X90701594Y-69301580D01*
X90625092Y-69316217D01*
X90605778Y-69372564D01*
X90514243Y-69372564D01*
X90503832Y-69213959D01*
X90510090Y-69140019D01*
X90605778Y-69140019D01*
X90610311Y-69161638D01*
X90689813Y-69217904D01*
X90873889Y-69255019D01*
X90951692Y-69265074D01*
X91131117Y-69293444D01*
X91254889Y-69320045D01*
X91280001Y-69324644D01*
X91251237Y-69300569D01*
X91142000Y-69243721D01*
X90994169Y-69176119D01*
X90782204Y-69100535D01*
X90650837Y-69088134D01*
X90605778Y-69140019D01*
X90510090Y-69140019D01*
X90517305Y-69054766D01*
X90544151Y-68952772D01*
X90645408Y-68952772D01*
X90673277Y-68999087D01*
X90811278Y-69038878D01*
X90824554Y-69041463D01*
X91015997Y-69093555D01*
X91182383Y-69160289D01*
X91191957Y-69165179D01*
X91296519Y-69209005D01*
X91339556Y-69208772D01*
X91299774Y-69164281D01*
X91183338Y-69099136D01*
X91025070Y-69030734D01*
X90860353Y-68972776D01*
X90724569Y-68938961D01*
X90653101Y-68942989D01*
X90645408Y-68952772D01*
X90544151Y-68952772D01*
X90562814Y-68881864D01*
X90650665Y-68805908D01*
X90795800Y-68817954D01*
X91013160Y-68909056D01*
X91130664Y-68972249D01*
X91368221Y-69120607D01*
X91488832Y-69208772D01*
X91578108Y-69274032D01*
G37*
G36*
X88078792Y-66456164D02*
G01*
X87994228Y-66476098D01*
X87834476Y-66530622D01*
X87435127Y-66666921D01*
X87432361Y-66667865D01*
X87151360Y-66791178D01*
X86884557Y-66908260D01*
X86841418Y-66927191D01*
X86466353Y-67123024D01*
X86205557Y-67259194D01*
X86162714Y-67284397D01*
X85926252Y-67423499D01*
X85508931Y-67668994D01*
X85398493Y-67736483D01*
X85115103Y-67906027D01*
X84850825Y-68059404D01*
X84631148Y-68181976D01*
X84481556Y-68259103D01*
X84410060Y-68289800D01*
X84073116Y-68376225D01*
X83728797Y-68382827D01*
X83418705Y-68307704D01*
X83235875Y-68260528D01*
X83036021Y-68291988D01*
X82880737Y-68418101D01*
X82879722Y-68420223D01*
X82779052Y-68630697D01*
X82739996Y-68921610D01*
X82754443Y-69140299D01*
X82815404Y-69316224D01*
X82834675Y-69371836D01*
X82983853Y-69514248D01*
X83094298Y-69540884D01*
X83200779Y-69566564D01*
X83484261Y-69527810D01*
X83527985Y-69517086D01*
X83734339Y-69496713D01*
X83945496Y-69533567D01*
X84178700Y-69634703D01*
X84451193Y-69807174D01*
X84780220Y-70058036D01*
X84929760Y-70176035D01*
X84985954Y-70220377D01*
X85082110Y-70292814D01*
X85165345Y-70355517D01*
X85296017Y-70446877D01*
X85307579Y-70453061D01*
X85358776Y-70480445D01*
X85412613Y-70498861D01*
X85511667Y-70568107D01*
X85565674Y-70612212D01*
X85594356Y-70632931D01*
X85731198Y-70731781D01*
X85949864Y-70878301D01*
X85979596Y-70897251D01*
X86191847Y-71032531D01*
X86244885Y-71064674D01*
X86427316Y-71175233D01*
X86554570Y-71246764D01*
X86626445Y-71287166D01*
X86658320Y-71303827D01*
X86692687Y-71319346D01*
X86969669Y-71444420D01*
X87219095Y-71557051D01*
X87756590Y-71735816D01*
X87796501Y-71749090D01*
X88069975Y-71806889D01*
X88348000Y-71865650D01*
X88437065Y-71876980D01*
X88872736Y-71905798D01*
X89355287Y-71902751D01*
X89845341Y-71870191D01*
X90303519Y-71810464D01*
X90690445Y-71725920D01*
X90906102Y-71655228D01*
X91172638Y-71550468D01*
X91452131Y-71426783D01*
X91724914Y-71294214D01*
X91971316Y-71162802D01*
X92171670Y-71042587D01*
X92306306Y-70943611D01*
X92355556Y-70875912D01*
X92366749Y-70820410D01*
X92460915Y-70736191D01*
X92639063Y-70706223D01*
X92737033Y-70692890D01*
X92770642Y-70644660D01*
X92708797Y-70572296D01*
X92555951Y-70487516D01*
X92516184Y-70468866D01*
X92276201Y-70294067D01*
X92125879Y-70058354D01*
X92074116Y-69774889D01*
X92062099Y-69642525D01*
X92017651Y-69423152D01*
X91951630Y-69199315D01*
X91888372Y-68980060D01*
X91879598Y-68804852D01*
X91941488Y-68705555D01*
X92075922Y-68674223D01*
X92135640Y-68658924D01*
X92271469Y-68589301D01*
X92428828Y-68482437D01*
X92569843Y-68376305D01*
X92760973Y-68247214D01*
X92907950Y-68184447D01*
X93037858Y-68184351D01*
X93177787Y-68243273D01*
X93354822Y-68357560D01*
X93468828Y-68429547D01*
X93699926Y-68551325D01*
X93911489Y-68637581D01*
X94190000Y-68726266D01*
X93936000Y-68695884D01*
X93827526Y-68673899D01*
X93607592Y-68597658D01*
X93399778Y-68493732D01*
X93274604Y-68424046D01*
X93108711Y-68350391D01*
X92993577Y-68321703D01*
X92983454Y-68322396D01*
X92870109Y-68363740D01*
X92705764Y-68456326D01*
X92522318Y-68582500D01*
X92491351Y-68605547D01*
X92317829Y-68726317D01*
X92176677Y-68811382D01*
X92095963Y-68843556D01*
X92045611Y-68851508D01*
X92022191Y-68895266D01*
X92040714Y-68997900D01*
X92101556Y-69182223D01*
X92114885Y-69222973D01*
X92165664Y-69447054D01*
X92186223Y-69660674D01*
X92186495Y-69697080D01*
X92219034Y-69989609D01*
X92316049Y-70203015D01*
X92492197Y-70358031D01*
X92762134Y-70475391D01*
X92778714Y-70480790D01*
X92876782Y-70506840D01*
X92962691Y-70505974D01*
X93062820Y-70469051D01*
X93203545Y-70386931D01*
X93411245Y-70250476D01*
X93515846Y-70180506D01*
X93696450Y-70058508D01*
X93829256Y-69967201D01*
X93891107Y-69922416D01*
X93891983Y-69921556D01*
X93856779Y-69906758D01*
X93735211Y-69900207D01*
X93552441Y-69903320D01*
X93335491Y-69903232D01*
X93095216Y-69863936D01*
X92929163Y-69771782D01*
X92818927Y-69619652D01*
X92791151Y-69554525D01*
X92778627Y-69438127D01*
X92788350Y-69413363D01*
X92927687Y-69413363D01*
X92945908Y-69526216D01*
X93023223Y-69653252D01*
X93103714Y-69711463D01*
X93200168Y-69746667D01*
X93208509Y-69745705D01*
X93206277Y-69708075D01*
X93128946Y-69632653D01*
X93020363Y-69516464D01*
X92959688Y-69392765D01*
X92947022Y-69332147D01*
X92935240Y-69318698D01*
X92927687Y-69413363D01*
X92788350Y-69413363D01*
X92833038Y-69299551D01*
X92894925Y-69139388D01*
X92926548Y-68973359D01*
X92927236Y-68958977D01*
X92939225Y-68883547D01*
X92959042Y-68914803D01*
X92992699Y-68984638D01*
X93037459Y-68977117D01*
X93075404Y-68890287D01*
X93093154Y-68741447D01*
X93093530Y-68722202D01*
X93099896Y-68605441D01*
X93118085Y-68588174D01*
X93157430Y-68658332D01*
X93189703Y-68815610D01*
X93163383Y-69059197D01*
X93135310Y-69249222D01*
X93146491Y-69411261D01*
X93216529Y-69526986D01*
X93358930Y-69608167D01*
X93587202Y-69666572D01*
X93914852Y-69713973D01*
X93930623Y-69715751D01*
X94272712Y-69697191D01*
X94593011Y-69571442D01*
X94877983Y-69343707D01*
X95014783Y-69177681D01*
X95114333Y-69003909D01*
X95148827Y-68863656D01*
X95109410Y-68778548D01*
X95065475Y-68742948D01*
X95108994Y-68731531D01*
X95181436Y-68760758D01*
X95215859Y-68866294D01*
X95183863Y-69025107D01*
X95139469Y-69119621D01*
X94961914Y-69355949D01*
X94705245Y-69581048D01*
X94437258Y-69745705D01*
X94392302Y-69773327D01*
X94358568Y-69790908D01*
X94157180Y-69907431D01*
X93901271Y-70068688D01*
X93620202Y-70255748D01*
X93343334Y-70449680D01*
X92666000Y-70938052D01*
X92627709Y-71268018D01*
X92621539Y-71298889D01*
X92593336Y-71440000D01*
X92568060Y-71566470D01*
X92426629Y-71904703D01*
X92222810Y-72166808D01*
X92168643Y-72212575D01*
X92039037Y-72268708D01*
X91943924Y-72217358D01*
X91883804Y-72058685D01*
X91867316Y-71968461D01*
X91852072Y-71757181D01*
X91892088Y-71599171D01*
X91994184Y-71457259D01*
X92140812Y-71298889D01*
X92017982Y-71467348D01*
X91952342Y-71573046D01*
X91919111Y-71706893D01*
X91933295Y-71890681D01*
X91939970Y-71934473D01*
X91974130Y-72110687D01*
X92014656Y-72189689D01*
X92075654Y-72184331D01*
X92171230Y-72107468D01*
X92223630Y-72051491D01*
X92319520Y-71917241D01*
X92401416Y-71769840D01*
X92451292Y-71643692D01*
X92451127Y-71573201D01*
X92449122Y-71571868D01*
X92411539Y-71609053D01*
X92357996Y-71716332D01*
X92280386Y-71856594D01*
X92172582Y-71986253D01*
X92148725Y-72006937D01*
X92105983Y-72034673D01*
X92122441Y-71990291D01*
X92200473Y-71863334D01*
X92238528Y-71800874D01*
X92327855Y-71630906D01*
X92380352Y-71496445D01*
X92381260Y-71492864D01*
X92400001Y-71410644D01*
X92480504Y-71410644D01*
X92487260Y-71477630D01*
X92504237Y-71486461D01*
X92524889Y-71440000D01*
X92520816Y-71410119D01*
X92487260Y-71402371D01*
X92480504Y-71410644D01*
X92400001Y-71410644D01*
X92401292Y-71404978D01*
X92386876Y-71409946D01*
X92327593Y-71510556D01*
X92269277Y-71601870D01*
X92216312Y-71660528D01*
X92201355Y-71648312D01*
X92240681Y-71556600D01*
X92275011Y-71487543D01*
X92296651Y-71408948D01*
X92254387Y-71420749D01*
X92152947Y-71524667D01*
X92007344Y-71694000D01*
X92125006Y-71489782D01*
X92152558Y-71441073D01*
X92216939Y-71318178D01*
X92224634Y-71298889D01*
X92299111Y-71298889D01*
X92327334Y-71327112D01*
X92355556Y-71298889D01*
X92327334Y-71270667D01*
X92299111Y-71298889D01*
X92224634Y-71298889D01*
X92242667Y-71253683D01*
X92230732Y-71252656D01*
X92143386Y-71285797D01*
X91989804Y-71357548D01*
X91792066Y-71457901D01*
X91636264Y-71540855D01*
X91478207Y-71633872D01*
X91389299Y-71706996D01*
X91350150Y-71777670D01*
X91341374Y-71863334D01*
X91342621Y-71921910D01*
X91346939Y-71939311D01*
X91357875Y-71983385D01*
X91396000Y-71948000D01*
X91427865Y-71910978D01*
X91451581Y-71927965D01*
X91418311Y-71984742D01*
X91313513Y-72095584D01*
X91157905Y-72238864D01*
X90972795Y-72396503D01*
X90779494Y-72550419D01*
X90599311Y-72682532D01*
X90453556Y-72774762D01*
X90428315Y-72788534D01*
X90259569Y-72880590D01*
X90040923Y-72999856D01*
X89813058Y-73124140D01*
X89618528Y-73224864D01*
X89005350Y-73478135D01*
X88319778Y-73669420D01*
X88063606Y-73718780D01*
X87705968Y-73748460D01*
X87402613Y-73713859D01*
X87128866Y-73613823D01*
X87096197Y-73595427D01*
X87507466Y-73595427D01*
X87525402Y-73641334D01*
X87587118Y-73618387D01*
X87607418Y-73595324D01*
X87739497Y-73595324D01*
X87741905Y-73605775D01*
X87811815Y-73619605D01*
X87946792Y-73618092D01*
X88113857Y-73604461D01*
X88280030Y-73581938D01*
X88412332Y-73553749D01*
X88474045Y-73524867D01*
X88587077Y-73524867D01*
X88684326Y-73489822D01*
X88777090Y-73411978D01*
X88924570Y-73411978D01*
X88991271Y-73393184D01*
X89089020Y-73336761D01*
X89168735Y-73233560D01*
X89170883Y-73228708D01*
X89327670Y-73228708D01*
X89359017Y-73223150D01*
X89444714Y-73171427D01*
X89466199Y-73148023D01*
X89507532Y-73070342D01*
X89663376Y-73070342D01*
X89684152Y-73062985D01*
X89773184Y-73037988D01*
X89792120Y-73032527D01*
X89837477Y-73007766D01*
X89873926Y-72953933D01*
X89894426Y-72893685D01*
X89985638Y-72893685D01*
X90027223Y-72906692D01*
X90054055Y-72904047D01*
X90147501Y-72845455D01*
X90208397Y-72719497D01*
X90342723Y-72719497D01*
X90367943Y-72710828D01*
X90449091Y-72657966D01*
X90469991Y-72638595D01*
X90531296Y-72510650D01*
X90683913Y-72510650D01*
X90708487Y-72493923D01*
X90789223Y-72433872D01*
X90792651Y-72431122D01*
X90846642Y-72340913D01*
X90873279Y-72232524D01*
X91013354Y-72232524D01*
X91039708Y-72265442D01*
X91103430Y-72217993D01*
X91124919Y-72186362D01*
X91157848Y-72074056D01*
X91169343Y-71939311D01*
X91157645Y-71826168D01*
X91120992Y-71778667D01*
X91107566Y-71786025D01*
X91067996Y-71868130D01*
X91034454Y-72011980D01*
X91028007Y-72055912D01*
X91020437Y-72107497D01*
X91013354Y-72232524D01*
X90873279Y-72232524D01*
X90880574Y-72202839D01*
X90891400Y-72055912D01*
X90876076Y-71939147D01*
X90831556Y-71891556D01*
X90810766Y-71896458D01*
X90788397Y-71934992D01*
X90772653Y-71962112D01*
X90770813Y-71985052D01*
X90763266Y-72037697D01*
X90753244Y-72107603D01*
X90723788Y-72272556D01*
X90711240Y-72338665D01*
X90689502Y-72462391D01*
X90683913Y-72510650D01*
X90531296Y-72510650D01*
X90538361Y-72495906D01*
X90583209Y-72253358D01*
X90587996Y-72206855D01*
X90594823Y-72037697D01*
X90576498Y-71972999D01*
X90552320Y-71995706D01*
X90537815Y-72009329D01*
X90532864Y-72021550D01*
X90483564Y-72143251D01*
X90418540Y-72371334D01*
X90379870Y-72530712D01*
X90350475Y-72664501D01*
X90342723Y-72719497D01*
X90208397Y-72719497D01*
X90217634Y-72700391D01*
X90271507Y-72455833D01*
X90302622Y-72280712D01*
X90336723Y-72124148D01*
X90362476Y-72043580D01*
X90369848Y-72021550D01*
X90325481Y-72013210D01*
X90319922Y-72017777D01*
X90316382Y-72020685D01*
X90268446Y-72104135D01*
X90248892Y-72147957D01*
X90201544Y-72254067D01*
X90127745Y-72439223D01*
X90059116Y-72628344D01*
X90007727Y-72790171D01*
X89985645Y-72893445D01*
X89985638Y-72893685D01*
X89894426Y-72893685D01*
X89909087Y-72850595D01*
X89950583Y-72677318D01*
X90006035Y-72413667D01*
X90030208Y-72290735D01*
X90050162Y-72147957D01*
X90041328Y-72078885D01*
X90003546Y-72060889D01*
X89958875Y-72083913D01*
X89932337Y-72165520D01*
X89928445Y-72177489D01*
X89921247Y-72250897D01*
X89878006Y-72389156D01*
X89853403Y-72444694D01*
X89798670Y-72595381D01*
X89739937Y-72780556D01*
X89704802Y-72902132D01*
X89671705Y-73025273D01*
X89663376Y-73070342D01*
X89507532Y-73070342D01*
X89525014Y-73037487D01*
X89591132Y-72869462D01*
X89656608Y-72671101D01*
X89713496Y-72469556D01*
X89753850Y-72291978D01*
X89769725Y-72165520D01*
X89753175Y-72117334D01*
X89731892Y-72122237D01*
X89677009Y-72187889D01*
X89673124Y-72199578D01*
X89669137Y-72211574D01*
X89627711Y-72330342D01*
X89562324Y-72514489D01*
X89483108Y-72735402D01*
X89445901Y-72840205D01*
X89380229Y-73034401D01*
X89338225Y-73172133D01*
X89327670Y-73228708D01*
X89170883Y-73228708D01*
X89244501Y-73062421D01*
X89330400Y-72802181D01*
X89377915Y-72636740D01*
X89424117Y-72447111D01*
X89452509Y-72296641D01*
X89461945Y-72199578D01*
X89451279Y-72170173D01*
X89419364Y-72222675D01*
X89419327Y-72222777D01*
X89365055Y-72371334D01*
X89353889Y-72404361D01*
X89275064Y-72611895D01*
X89169841Y-72864198D01*
X89058177Y-73114686D01*
X88960027Y-73316778D01*
X88933050Y-73373594D01*
X88924570Y-73411978D01*
X88777090Y-73411978D01*
X88834592Y-73363725D01*
X88959265Y-73143196D01*
X89029328Y-72960720D01*
X89097585Y-72747507D01*
X89154955Y-72535924D01*
X89194986Y-72352253D01*
X89211226Y-72222777D01*
X89197224Y-72173778D01*
X89158227Y-72221063D01*
X89151116Y-72235647D01*
X89096356Y-72347956D01*
X89025605Y-72526556D01*
X88963910Y-72687260D01*
X88848217Y-72961328D01*
X88735007Y-73203889D01*
X88657075Y-73362588D01*
X88602416Y-73480946D01*
X88587077Y-73524867D01*
X88474045Y-73524867D01*
X88477782Y-73523118D01*
X88481441Y-73517714D01*
X88579840Y-73344196D01*
X88687550Y-73112214D01*
X88792440Y-72853567D01*
X88882381Y-72600056D01*
X88945240Y-72383482D01*
X88968889Y-72235647D01*
X88968515Y-72219257D01*
X88947692Y-72164361D01*
X88901973Y-72201358D01*
X88841093Y-72317073D01*
X88774786Y-72498334D01*
X88742387Y-72595195D01*
X88654041Y-72824081D01*
X88551748Y-73056290D01*
X88448671Y-73264482D01*
X88357973Y-73421314D01*
X88292819Y-73499442D01*
X88286024Y-73503516D01*
X88240975Y-73511119D01*
X88254259Y-73442336D01*
X88327376Y-73287974D01*
X88328160Y-73286455D01*
X88392089Y-73145065D01*
X88466477Y-72955095D01*
X88542807Y-72742194D01*
X88612562Y-72532012D01*
X88667224Y-72350199D01*
X88698275Y-72222404D01*
X88697199Y-72174277D01*
X88673007Y-72203940D01*
X88613466Y-72319473D01*
X88531586Y-72501910D01*
X88437555Y-72729468D01*
X88371034Y-72889352D01*
X88260792Y-73129276D01*
X88157988Y-73326200D01*
X88078349Y-73448635D01*
X88030076Y-73503784D01*
X87976676Y-73547996D01*
X87983094Y-73500223D01*
X87995039Y-73468995D01*
X88047414Y-73332534D01*
X88123371Y-73134960D01*
X88210887Y-72907556D01*
X88244572Y-72818645D01*
X88327837Y-72586213D01*
X88392585Y-72387671D01*
X88427020Y-72258445D01*
X88458420Y-72089112D01*
X88438413Y-72138263D01*
X88389494Y-72258445D01*
X88374592Y-72293620D01*
X88293716Y-72469425D01*
X88160845Y-72745108D01*
X87976074Y-73120472D01*
X87739497Y-73595324D01*
X87607418Y-73595324D01*
X87696196Y-73494462D01*
X87819232Y-73267712D01*
X87953559Y-72943341D01*
X88096510Y-72526556D01*
X88125272Y-72433188D01*
X88177398Y-72235728D01*
X88189149Y-72138263D01*
X88163965Y-72143219D01*
X88105286Y-72253026D01*
X88016551Y-72470112D01*
X88015435Y-72473060D01*
X87918513Y-72706548D01*
X87793226Y-72979023D01*
X87666398Y-73232112D01*
X87555104Y-73457797D01*
X87507466Y-73595427D01*
X87096197Y-73595427D01*
X87055581Y-73572556D01*
X86999376Y-73532345D01*
X87193300Y-73532345D01*
X87239663Y-73578863D01*
X87330372Y-73565717D01*
X87439258Y-73448703D01*
X87563647Y-73231973D01*
X87700864Y-72919677D01*
X87848233Y-72515968D01*
X87908930Y-72336719D01*
X87966357Y-72163991D01*
X87995391Y-72064316D01*
X88000108Y-72017777D01*
X87984583Y-72004459D01*
X87952889Y-72004445D01*
X87932101Y-72009413D01*
X87895926Y-72075000D01*
X87894277Y-72087474D01*
X87858549Y-72191254D01*
X87785190Y-72362375D01*
X87686165Y-72576499D01*
X87573438Y-72809285D01*
X87458975Y-73036394D01*
X87354740Y-73233485D01*
X87272697Y-73376219D01*
X87224812Y-73440255D01*
X87201779Y-73460695D01*
X87193300Y-73532345D01*
X86999376Y-73532345D01*
X86838527Y-73417268D01*
X86751718Y-73344012D01*
X87002905Y-73344012D01*
X87032576Y-73420931D01*
X87077748Y-73437625D01*
X87149351Y-73384033D01*
X87252428Y-73238598D01*
X87303888Y-73147595D01*
X87389909Y-72968678D01*
X87482492Y-72753570D01*
X87572898Y-72525495D01*
X87652391Y-72307677D01*
X87712232Y-72123339D01*
X87743683Y-71995706D01*
X87738008Y-71948000D01*
X87725337Y-71956864D01*
X87670592Y-72040680D01*
X87591219Y-72191168D01*
X87499500Y-72381483D01*
X87407716Y-72584781D01*
X87328151Y-72774216D01*
X87273086Y-72922944D01*
X87254804Y-73004120D01*
X87253753Y-73029309D01*
X87211040Y-73060565D01*
X87208350Y-73060161D01*
X87144312Y-73099829D01*
X87064170Y-73202779D01*
X87050296Y-73225757D01*
X87002905Y-73344012D01*
X86751718Y-73344012D01*
X86575304Y-73195140D01*
X86365729Y-73000338D01*
X86495516Y-73000338D01*
X86682621Y-73149632D01*
X86797594Y-73232520D01*
X86883741Y-73251337D01*
X86957502Y-73186309D01*
X87047920Y-73027744D01*
X87072448Y-72978584D01*
X87087739Y-72921366D01*
X87041298Y-72933152D01*
X87013644Y-72940663D01*
X87055641Y-72897440D01*
X87133404Y-72807485D01*
X87230816Y-72650501D01*
X87329746Y-72458176D01*
X87418537Y-72257094D01*
X87485529Y-72073839D01*
X87519065Y-71934992D01*
X87507486Y-71867136D01*
X87496375Y-71869338D01*
X87442560Y-71938134D01*
X87363498Y-72080727D01*
X87272020Y-72274894D01*
X87237858Y-72353390D01*
X87161498Y-72535705D01*
X87112840Y-72662476D01*
X87101190Y-72710000D01*
X87095654Y-72724662D01*
X87037235Y-72801157D01*
X86934639Y-72921148D01*
X86865714Y-72995654D01*
X86771326Y-73084324D01*
X86724431Y-73109024D01*
X86726605Y-73081618D01*
X86769810Y-72979632D01*
X86849081Y-72833342D01*
X86863644Y-72808047D01*
X86954955Y-72633191D01*
X87047687Y-72433516D01*
X87131649Y-72234276D01*
X87196653Y-72060723D01*
X87232509Y-71938110D01*
X87229028Y-71891690D01*
X87191762Y-71928764D01*
X87117948Y-72042125D01*
X87027172Y-72205143D01*
X86953543Y-72338137D01*
X86812648Y-72567496D01*
X86679485Y-72759400D01*
X86495516Y-73000338D01*
X86365729Y-73000338D01*
X86281729Y-72922259D01*
X85973622Y-72614711D01*
X85935343Y-72574023D01*
X86074021Y-72574023D01*
X86233793Y-72740790D01*
X86269755Y-72777189D01*
X86374585Y-72870262D01*
X86438649Y-72907556D01*
X86488576Y-72876133D01*
X86579301Y-72761120D01*
X86688555Y-72583460D01*
X86802420Y-72366188D01*
X86906980Y-72132339D01*
X86944654Y-72038195D01*
X87018518Y-71836552D01*
X87025412Y-71806889D01*
X87219111Y-71806889D01*
X87247334Y-71835112D01*
X87275556Y-71806889D01*
X87247334Y-71778667D01*
X87219111Y-71806889D01*
X87025412Y-71806889D01*
X87041930Y-71735816D01*
X87014932Y-71736028D01*
X86937571Y-71837230D01*
X86809889Y-72039466D01*
X86787893Y-72075690D01*
X86616101Y-72346981D01*
X86470608Y-72556086D01*
X86360532Y-72690625D01*
X86294997Y-72738223D01*
X86293017Y-72736994D01*
X86314023Y-72680788D01*
X86382888Y-72557535D01*
X86486875Y-72390326D01*
X86591465Y-72213703D01*
X86697671Y-71999702D01*
X86775648Y-71804248D01*
X86815249Y-71653306D01*
X86806326Y-71572845D01*
X86772747Y-71598964D01*
X86700334Y-71701115D01*
X86606813Y-71856805D01*
X86525519Y-71992009D01*
X86383406Y-72202656D01*
X86253207Y-72369941D01*
X86074021Y-72574023D01*
X85935343Y-72574023D01*
X85744653Y-72371334D01*
X85840653Y-72371334D01*
X85853212Y-72360492D01*
X85875169Y-72382857D01*
X85976077Y-72475382D01*
X86033724Y-72512445D01*
X86038126Y-72511877D01*
X86104032Y-72456724D01*
X86202093Y-72329257D01*
X86314528Y-72154745D01*
X86423555Y-71958457D01*
X86438908Y-71928187D01*
X86556164Y-71679905D01*
X86616623Y-71517542D01*
X86622197Y-71444420D01*
X86574799Y-71463861D01*
X86476342Y-71579189D01*
X86328738Y-71793727D01*
X86324499Y-71800266D01*
X86192709Y-71991408D01*
X86065664Y-72156122D01*
X85970316Y-72259394D01*
X85853212Y-72360492D01*
X85849729Y-72356944D01*
X85840653Y-72371334D01*
X85744653Y-72371334D01*
X85666801Y-72288583D01*
X85571115Y-72180048D01*
X85679998Y-72180048D01*
X85839226Y-72346247D01*
X85849729Y-72356944D01*
X85939562Y-72214517D01*
X85944807Y-72206021D01*
X85998903Y-72081195D01*
X85999181Y-71994129D01*
X85986654Y-71966064D01*
X86020589Y-71968071D01*
X86026753Y-71970438D01*
X86088591Y-71933943D01*
X86173717Y-71828164D01*
X86264568Y-71683457D01*
X86343585Y-71530180D01*
X86393205Y-71398691D01*
X86395868Y-71319346D01*
X86388028Y-71310020D01*
X86333267Y-71328072D01*
X86256702Y-71445665D01*
X86193225Y-71551207D01*
X86065101Y-71730082D01*
X85919030Y-71908802D01*
X85679998Y-72180048D01*
X85571115Y-72180048D01*
X85400093Y-71986062D01*
X85525778Y-71986062D01*
X85541795Y-72054735D01*
X85603760Y-72066168D01*
X85700854Y-72000839D01*
X85820753Y-71870430D01*
X85951131Y-71686623D01*
X86079660Y-71461101D01*
X86115855Y-71386142D01*
X86165548Y-71246764D01*
X86153613Y-71199191D01*
X86088172Y-71248341D01*
X85977348Y-71399135D01*
X85931601Y-71466853D01*
X85798014Y-71640887D01*
X85674843Y-71774395D01*
X85658946Y-71789413D01*
X85564393Y-71900496D01*
X85525778Y-71986062D01*
X85400093Y-71986062D01*
X85377084Y-71959963D01*
X85196064Y-71737893D01*
X85328223Y-71737893D01*
X85335107Y-71781791D01*
X85392778Y-71814866D01*
X85496217Y-71765546D01*
X85629893Y-71638925D01*
X85672830Y-71588217D01*
X85796473Y-71422155D01*
X85895959Y-71261258D01*
X85955545Y-71132954D01*
X85959488Y-71064674D01*
X85924657Y-71078411D01*
X85833678Y-71155362D01*
X85710124Y-71276644D01*
X85575898Y-71418898D01*
X85452903Y-71558763D01*
X85363043Y-71672882D01*
X85328223Y-71737893D01*
X85196064Y-71737893D01*
X85120290Y-71644936D01*
X84912237Y-71359591D01*
X84835390Y-71242445D01*
X84923824Y-71242445D01*
X85062968Y-71454112D01*
X85104243Y-71514129D01*
X85191384Y-71622739D01*
X85246314Y-71665778D01*
X85283096Y-71650487D01*
X85373071Y-71563367D01*
X85481042Y-71423471D01*
X85589146Y-71258855D01*
X85679519Y-71097575D01*
X85734298Y-70967688D01*
X85735621Y-70897251D01*
X85734693Y-70896726D01*
X85684274Y-70929212D01*
X85578840Y-71022989D01*
X85439830Y-71159079D01*
X85434237Y-71164746D01*
X85289432Y-71303628D01*
X85172117Y-71402398D01*
X85107223Y-71440000D01*
X85101779Y-71422551D01*
X85151150Y-71345689D01*
X85254188Y-71228334D01*
X85322350Y-71152179D01*
X85435237Y-71001153D01*
X85497682Y-70881926D01*
X85499577Y-70875540D01*
X85508544Y-70817224D01*
X85476757Y-70813440D01*
X85389251Y-70870525D01*
X85231062Y-70994815D01*
X84923824Y-71242445D01*
X84835390Y-71242445D01*
X84741345Y-71099083D01*
X84818831Y-71099083D01*
X84865520Y-71147660D01*
X84943095Y-71135379D01*
X85056913Y-71030778D01*
X85081118Y-71003520D01*
X85192311Y-70863336D01*
X85279984Y-70730983D01*
X85328095Y-70632931D01*
X85320603Y-70595649D01*
X85270807Y-70615617D01*
X85163903Y-70694622D01*
X85038740Y-70809073D01*
X84921830Y-70932368D01*
X84839689Y-71037905D01*
X84818831Y-71099083D01*
X84741345Y-71099083D01*
X84703705Y-71041705D01*
X84555520Y-70795779D01*
X84651044Y-70795779D01*
X84696374Y-70866460D01*
X84701014Y-70870230D01*
X84779993Y-70895970D01*
X84868222Y-70828443D01*
X84918671Y-70750023D01*
X84919124Y-70678481D01*
X84907059Y-70660530D01*
X84944391Y-70670532D01*
X84957236Y-70674967D01*
X85030108Y-70642963D01*
X85099657Y-70555289D01*
X85130667Y-70453061D01*
X85125941Y-70450188D01*
X85062183Y-70480493D01*
X84945406Y-70555213D01*
X84803063Y-70656065D01*
X84662608Y-70764767D01*
X84651044Y-70795779D01*
X84555520Y-70795779D01*
X84508949Y-70718490D01*
X84448082Y-70597848D01*
X84540790Y-70597848D01*
X84549128Y-70609561D01*
X84615438Y-70649778D01*
X84671528Y-70623327D01*
X84762178Y-70542311D01*
X84852623Y-70438419D01*
X84914876Y-70344353D01*
X84920948Y-70292814D01*
X84860229Y-70298592D01*
X84754343Y-70357775D01*
X84642572Y-70446023D01*
X84559770Y-70535370D01*
X84540790Y-70597848D01*
X84448082Y-70597848D01*
X84381379Y-70465639D01*
X84339781Y-70341320D01*
X84396889Y-70341320D01*
X84419122Y-70413651D01*
X84494399Y-70397915D01*
X84622667Y-70282889D01*
X84641974Y-70261510D01*
X84699056Y-70176035D01*
X84685240Y-70141778D01*
X84557043Y-70173909D01*
X84444708Y-70251188D01*
X84396889Y-70341320D01*
X84339781Y-70341320D01*
X84317485Y-70274688D01*
X84313754Y-70137174D01*
X84366675Y-70044634D01*
X84385589Y-70032144D01*
X84374385Y-70071223D01*
X84366106Y-70087417D01*
X84369682Y-70136685D01*
X84427538Y-70127457D01*
X84505639Y-70062099D01*
X84531023Y-70011571D01*
X84500503Y-69940620D01*
X84385300Y-69840194D01*
X84221711Y-69727338D01*
X83958245Y-69607225D01*
X83702759Y-69580563D01*
X83441302Y-69649553D01*
X83420310Y-69662000D01*
X83317753Y-69722811D01*
X83159922Y-69816397D01*
X83150937Y-69824004D01*
X82844667Y-70083297D01*
X82791322Y-70132564D01*
X82596546Y-70302081D01*
X82366181Y-70491677D01*
X82124390Y-70682531D01*
X81895337Y-70855822D01*
X81703187Y-70992731D01*
X81572105Y-71074436D01*
X81387031Y-71141712D01*
X81218403Y-71128771D01*
X81072454Y-71021732D01*
X80986136Y-70885609D01*
X81094889Y-70885609D01*
X81120263Y-70940672D01*
X81208513Y-71021897D01*
X81230253Y-71035575D01*
X81311439Y-71062719D01*
X81410142Y-71039666D01*
X81564292Y-70959794D01*
X81666079Y-70892830D01*
X81826153Y-70776081D01*
X82024170Y-70625315D01*
X82241856Y-70455133D01*
X82460940Y-70280136D01*
X82663147Y-70114924D01*
X82830204Y-69974098D01*
X82943839Y-69872257D01*
X82985778Y-69824004D01*
X82944698Y-69840612D01*
X82833238Y-69904806D01*
X82676075Y-70002628D01*
X82525844Y-70092620D01*
X82287424Y-70225108D01*
X82010958Y-70371301D01*
X81730631Y-70512754D01*
X81705531Y-70525119D01*
X81467463Y-70647402D01*
X81273406Y-70755827D01*
X81142750Y-70839020D01*
X81094889Y-70885609D01*
X80986136Y-70885609D01*
X80940941Y-70814337D01*
X80816476Y-70502481D01*
X80897334Y-70502481D01*
X80909212Y-70556706D01*
X80967889Y-70666044D01*
X80999699Y-70699601D01*
X81052943Y-70714665D01*
X81140024Y-70692539D01*
X81282383Y-70627031D01*
X81501458Y-70511950D01*
X81697054Y-70403902D01*
X81940509Y-70262905D01*
X82183472Y-70116581D01*
X82406423Y-69977170D01*
X82589841Y-69856911D01*
X82714207Y-69768045D01*
X82760000Y-69722811D01*
X82728852Y-69727899D01*
X82613749Y-69769611D01*
X82433668Y-69842863D01*
X82209667Y-69939370D01*
X82073245Y-69998397D01*
X81781651Y-70118752D01*
X81501503Y-70227832D01*
X81278334Y-70307633D01*
X81262102Y-70313046D01*
X81077710Y-70384208D01*
X80946992Y-70452022D01*
X80897334Y-70502481D01*
X80816476Y-70502481D01*
X80815617Y-70500329D01*
X80814166Y-70496029D01*
X80742421Y-70255239D01*
X80702929Y-70093121D01*
X80793515Y-70093121D01*
X80808429Y-70229653D01*
X80841232Y-70319784D01*
X80884298Y-70366867D01*
X80920734Y-70358148D01*
X81049910Y-70308989D01*
X81244267Y-70225470D01*
X81481318Y-70117887D01*
X81738578Y-69996532D01*
X81993560Y-69871699D01*
X82223778Y-69753682D01*
X82334750Y-69694330D01*
X82392913Y-69662000D01*
X82816445Y-69662000D01*
X82844667Y-69690223D01*
X82872889Y-69662000D01*
X82844667Y-69633778D01*
X82816445Y-69662000D01*
X82392913Y-69662000D01*
X82490642Y-69607677D01*
X82579894Y-69553237D01*
X82585715Y-69540884D01*
X82301590Y-69621462D01*
X81987823Y-69707846D01*
X81680428Y-69790259D01*
X81404950Y-69861952D01*
X81186936Y-69916173D01*
X81051933Y-69946174D01*
X80989015Y-69958890D01*
X80847318Y-70010310D01*
X80793515Y-70093121D01*
X80702929Y-70093121D01*
X80676871Y-69986152D01*
X80622470Y-69716138D01*
X80613788Y-69660927D01*
X80675523Y-69660927D01*
X80678248Y-69727974D01*
X80690034Y-69823718D01*
X80722772Y-69884142D01*
X80790800Y-69909124D01*
X80908455Y-69898543D01*
X81090075Y-69852276D01*
X81349998Y-69770203D01*
X81702561Y-69652200D01*
X81974551Y-69559563D01*
X82240990Y-69466556D01*
X82450249Y-69390977D01*
X82585670Y-69338856D01*
X82630595Y-69316224D01*
X82588869Y-69316196D01*
X82451138Y-69328100D01*
X82235198Y-69351174D01*
X81959468Y-69383432D01*
X81642366Y-69422885D01*
X81402178Y-69453910D01*
X81114957Y-69493226D01*
X80914599Y-69525589D01*
X80785790Y-69554770D01*
X80713217Y-69584540D01*
X80681566Y-69618669D01*
X80675523Y-69660927D01*
X80613788Y-69660927D01*
X80584169Y-69472570D01*
X80566922Y-69282819D01*
X80575681Y-69174258D01*
X80580015Y-69165296D01*
X80600151Y-69179406D01*
X80610655Y-69281000D01*
X80613845Y-69338733D01*
X80645716Y-69437707D01*
X80725146Y-69464445D01*
X80753710Y-69462439D01*
X80884500Y-69443684D01*
X81086599Y-69408885D01*
X81337209Y-69362564D01*
X81613532Y-69309243D01*
X81892768Y-69253445D01*
X82152120Y-69199692D01*
X82368789Y-69152507D01*
X82519977Y-69116413D01*
X82582884Y-69095931D01*
X82550461Y-69088157D01*
X82422516Y-69079554D01*
X82214219Y-69071966D01*
X81943029Y-69066007D01*
X81626408Y-69062292D01*
X81298778Y-69057808D01*
X81055157Y-69049159D01*
X80923294Y-69036784D01*
X80902642Y-69020934D01*
X80992658Y-69001856D01*
X81192795Y-68979800D01*
X81502508Y-68955014D01*
X81921251Y-68927747D01*
X81949325Y-68926020D01*
X82199896Y-68906621D01*
X82392173Y-68884569D01*
X82507994Y-68862404D01*
X82529196Y-68842670D01*
X82514313Y-68836485D01*
X82390690Y-68807707D01*
X82160121Y-68768915D01*
X81826844Y-68720730D01*
X81395095Y-68663776D01*
X80869111Y-68598676D01*
X80843112Y-68592304D01*
X80892067Y-68583910D01*
X81028081Y-68577219D01*
X81236000Y-68573280D01*
X81307094Y-68573007D01*
X81618496Y-68578431D01*
X81934165Y-68592436D01*
X82195556Y-68612622D01*
X82233921Y-68616566D01*
X82432502Y-68634498D01*
X82576963Y-68643433D01*
X82638283Y-68641479D01*
X82636807Y-68635831D01*
X82567315Y-68602857D01*
X82418168Y-68550206D01*
X82211298Y-68484475D01*
X81995407Y-68420223D01*
X82590667Y-68420223D01*
X82618889Y-68448445D01*
X82647111Y-68420223D01*
X82618889Y-68392000D01*
X82590667Y-68420223D01*
X81995407Y-68420223D01*
X81968637Y-68412256D01*
X81712116Y-68340144D01*
X81463666Y-68274734D01*
X81245220Y-68222619D01*
X81163368Y-68204097D01*
X80957634Y-68153055D01*
X80806207Y-68108924D01*
X80737220Y-68079624D01*
X80736486Y-68067380D01*
X80817817Y-68064609D01*
X81008271Y-68089578D01*
X81307656Y-68142261D01*
X81715778Y-68222628D01*
X81812542Y-68242317D01*
X82055741Y-68291608D01*
X82261449Y-68333044D01*
X82393111Y-68359254D01*
X82405702Y-68361449D01*
X82433028Y-68352734D01*
X82376274Y-68309781D01*
X82252746Y-68240957D01*
X82079749Y-68154625D01*
X81874590Y-68059151D01*
X81654575Y-67962899D01*
X81437010Y-67874233D01*
X81239202Y-67801520D01*
X81192459Y-67785642D01*
X80981483Y-67719394D01*
X80848733Y-67703735D01*
X80769820Y-67750793D01*
X80720357Y-67872691D01*
X80675956Y-68081556D01*
X80671894Y-68102374D01*
X80625748Y-68335239D01*
X80596136Y-68470510D01*
X80578930Y-68520625D01*
X80569999Y-68498022D01*
X80565215Y-68415140D01*
X80564821Y-68397141D01*
X80587124Y-68173656D01*
X80649912Y-67886545D01*
X80743147Y-67564936D01*
X80757926Y-67522413D01*
X80822849Y-67522413D01*
X80837234Y-67579985D01*
X80917359Y-67619253D01*
X81085299Y-67662296D01*
X81180115Y-67687531D01*
X81403747Y-67756122D01*
X81670598Y-67845600D01*
X81941556Y-67943136D01*
X82117928Y-68008979D01*
X82344251Y-68092978D01*
X82520506Y-68157813D01*
X82618889Y-68193219D01*
X82633791Y-68195562D01*
X82604166Y-68161761D01*
X82500328Y-68083554D01*
X82336667Y-67972209D01*
X82217039Y-67895811D01*
X81976041Y-67751492D01*
X81719057Y-67607039D01*
X81468574Y-67474213D01*
X81247078Y-67364775D01*
X81077053Y-67290488D01*
X80980986Y-67263112D01*
X80980047Y-67263125D01*
X80912279Y-67312220D01*
X80850932Y-67427900D01*
X80822849Y-67522413D01*
X80757926Y-67522413D01*
X80856788Y-67237958D01*
X80889672Y-67157553D01*
X80961220Y-67157553D01*
X80976780Y-67199364D01*
X81053256Y-67206667D01*
X81094123Y-67216306D01*
X81229411Y-67268245D01*
X81433560Y-67357557D01*
X81687079Y-67475593D01*
X81970478Y-67613705D01*
X82152533Y-67704274D01*
X82412403Y-67833368D01*
X82626215Y-67939353D01*
X82775643Y-68013149D01*
X82842358Y-68045676D01*
X82846851Y-68047479D01*
X82833842Y-68024667D01*
X82752363Y-67949168D01*
X82620139Y-67836181D01*
X82454892Y-67700906D01*
X82274347Y-67558542D01*
X82195238Y-67499447D01*
X82004654Y-67366814D01*
X81789093Y-67225839D01*
X81572144Y-67090996D01*
X81377399Y-66976759D01*
X81228447Y-66897602D01*
X81148878Y-66868000D01*
X81087666Y-66906642D01*
X81019283Y-67011767D01*
X81001370Y-67051381D01*
X80961220Y-67157553D01*
X80889672Y-67157553D01*
X80980796Y-66934741D01*
X81097934Y-66698903D01*
X81201959Y-66698903D01*
X81256185Y-66784806D01*
X81401312Y-66890346D01*
X81644750Y-67025502D01*
X81734904Y-67073831D01*
X82019131Y-67238835D01*
X82321684Y-67428698D01*
X82590667Y-67611283D01*
X83070445Y-67954896D01*
X82788223Y-67652164D01*
X82489381Y-67342236D01*
X82153338Y-67023756D01*
X81861702Y-66783194D01*
X81619500Y-66624231D01*
X81431762Y-66550544D01*
X81303515Y-66565813D01*
X81231229Y-66622659D01*
X81201959Y-66698903D01*
X81097934Y-66698903D01*
X81105131Y-66684412D01*
X81219753Y-66516102D01*
X81293907Y-66455783D01*
X81405230Y-66416445D01*
X81446289Y-66422808D01*
X81597574Y-66492543D01*
X81804985Y-66630085D01*
X82054404Y-66824063D01*
X82331708Y-67063109D01*
X82622779Y-67335851D01*
X82913496Y-67630920D01*
X83015858Y-67738999D01*
X83223626Y-67954896D01*
X83226889Y-67958287D01*
X83317930Y-68047479D01*
X83383647Y-68111862D01*
X83482308Y-68195562D01*
X83501931Y-68212209D01*
X83597542Y-68271812D01*
X83686278Y-68303157D01*
X83783940Y-68318728D01*
X83926359Y-68315730D01*
X84114922Y-68285968D01*
X84315389Y-68237704D01*
X84496850Y-68179582D01*
X84628394Y-68120248D01*
X84679111Y-68068348D01*
X84669245Y-68039507D01*
X84616350Y-67933927D01*
X84533024Y-67785750D01*
X84461821Y-67656212D01*
X84416274Y-67542861D01*
X84434818Y-67519152D01*
X84512747Y-67586705D01*
X84645350Y-67747138D01*
X84727304Y-67850080D01*
X84813625Y-67938225D01*
X84842207Y-67930301D01*
X84812412Y-67827261D01*
X84723603Y-67630058D01*
X84682984Y-67552904D01*
X84594939Y-67431240D01*
X84526047Y-67400999D01*
X84462124Y-67405042D01*
X84477216Y-67338824D01*
X84572732Y-67206667D01*
X84607880Y-67165655D01*
X84659878Y-67121418D01*
X84656310Y-67168517D01*
X84652006Y-67203548D01*
X84692088Y-67344548D01*
X84801314Y-67535406D01*
X84891505Y-67668885D01*
X84967471Y-67778014D01*
X85008599Y-67826011D01*
X85031473Y-67831091D01*
X85052680Y-67811469D01*
X85055103Y-67806277D01*
X85037010Y-67728269D01*
X84975315Y-67584310D01*
X84881107Y-67400934D01*
X84674633Y-67025301D01*
X84685705Y-67010410D01*
X84792000Y-67010410D01*
X84792018Y-67011034D01*
X84821880Y-67080344D01*
X84897789Y-67214521D01*
X85003667Y-67385103D01*
X85007930Y-67391708D01*
X85118755Y-67554231D01*
X85208619Y-67669942D01*
X85258425Y-67714173D01*
X85269031Y-67698945D01*
X85250797Y-67609342D01*
X85194938Y-67462208D01*
X85112015Y-67283900D01*
X85012592Y-67100775D01*
X84956812Y-67001138D01*
X84914915Y-66904002D01*
X84927450Y-66885133D01*
X84985017Y-66937881D01*
X85078215Y-67055598D01*
X85197641Y-67231636D01*
X85300252Y-67384803D01*
X85399756Y-67508399D01*
X85449731Y-67535470D01*
X85448121Y-67469819D01*
X85392872Y-67315249D01*
X85281932Y-67075563D01*
X85254986Y-67020673D01*
X85170636Y-66839334D01*
X85116563Y-66707506D01*
X85103451Y-66650624D01*
X85114820Y-66656971D01*
X85173231Y-66728598D01*
X85264261Y-66856894D01*
X85370289Y-67015233D01*
X85473693Y-67176986D01*
X85556853Y-67315525D01*
X85602148Y-67404223D01*
X85610904Y-67420294D01*
X85662483Y-67424420D01*
X85663333Y-67423499D01*
X85657809Y-67355649D01*
X85612495Y-67218672D01*
X85540125Y-67041821D01*
X85453437Y-66854344D01*
X85365167Y-66685492D01*
X85288052Y-66564516D01*
X85239338Y-66512315D01*
X85189465Y-66509783D01*
X85117291Y-66572154D01*
X84999195Y-66711440D01*
X84911104Y-66823346D01*
X84825217Y-66944907D01*
X84792000Y-67010410D01*
X84685705Y-67010410D01*
X84911470Y-66706762D01*
X84956389Y-66647250D01*
X85174671Y-66386729D01*
X85293524Y-66386729D01*
X85333860Y-66491131D01*
X85435679Y-66661098D01*
X85517515Y-66789721D01*
X85639611Y-66984639D01*
X85733020Y-67137220D01*
X85779316Y-67210650D01*
X85846665Y-67292469D01*
X85873726Y-67284397D01*
X85860992Y-67196791D01*
X85808957Y-67040008D01*
X85718115Y-66824407D01*
X85700133Y-66785043D01*
X85583550Y-66538279D01*
X85497933Y-66380711D01*
X85432926Y-66298783D01*
X85378174Y-66278939D01*
X85323320Y-66307624D01*
X85307119Y-66324134D01*
X85293524Y-66386729D01*
X85174671Y-66386729D01*
X85292427Y-66246187D01*
X85395542Y-66140246D01*
X85509502Y-66140246D01*
X85533536Y-66251692D01*
X85615526Y-66432763D01*
X85758652Y-66695034D01*
X85851159Y-66855619D01*
X85958655Y-67037017D01*
X86035812Y-67160848D01*
X86070182Y-67206667D01*
X86079192Y-67197681D01*
X86090223Y-67123024D01*
X86088763Y-67107108D01*
X86055597Y-66994556D01*
X85988323Y-66825912D01*
X85899766Y-66627933D01*
X85802750Y-66427374D01*
X85710100Y-66250991D01*
X85634642Y-66125541D01*
X85589201Y-66077778D01*
X85540246Y-66086846D01*
X85509502Y-66140246D01*
X85395542Y-66140246D01*
X85538751Y-65993112D01*
X85651991Y-65993112D01*
X85941662Y-66513425D01*
X86036030Y-66678717D01*
X86147793Y-66862642D01*
X86232705Y-66988473D01*
X86277471Y-67035536D01*
X86296158Y-67026877D01*
X86296666Y-66963741D01*
X86254868Y-66830954D01*
X86167309Y-66618450D01*
X86030533Y-66316163D01*
X85986962Y-66220956D01*
X85900547Y-66019003D01*
X85865563Y-65913263D01*
X85879347Y-65902004D01*
X85939235Y-65983493D01*
X86042564Y-66155996D01*
X86186672Y-66417781D01*
X86226487Y-66491311D01*
X86352790Y-66710696D01*
X86450136Y-66857944D01*
X86512624Y-66926113D01*
X86534351Y-66908260D01*
X86509417Y-66797445D01*
X86505087Y-66784110D01*
X86451150Y-66642800D01*
X86370268Y-66454224D01*
X86274388Y-66243534D01*
X86175459Y-66035882D01*
X86085428Y-65856419D01*
X86016244Y-65730297D01*
X85979854Y-65682667D01*
X85971767Y-65684734D01*
X85900308Y-65737076D01*
X85797000Y-65837889D01*
X85651991Y-65993112D01*
X85538751Y-65993112D01*
X85677674Y-65850382D01*
X85929232Y-65622662D01*
X86036952Y-65622662D01*
X86084888Y-65713712D01*
X86111665Y-65752837D01*
X86183873Y-65879125D01*
X86283742Y-66066032D01*
X86398150Y-66289445D01*
X86480947Y-66449201D01*
X86585951Y-66636325D01*
X86667901Y-66764202D01*
X86713930Y-66811556D01*
X86746720Y-66810014D01*
X86760123Y-66791178D01*
X86746939Y-66733176D01*
X86702040Y-66614131D01*
X86620296Y-66412167D01*
X86518679Y-66168440D01*
X86383144Y-65871556D01*
X86273547Y-65673363D01*
X86186447Y-65567944D01*
X86118400Y-65549383D01*
X86098166Y-65557927D01*
X86036952Y-65622662D01*
X85929232Y-65622662D01*
X86097430Y-65470402D01*
X86141776Y-65434730D01*
X86296055Y-65434730D01*
X86332450Y-65574522D01*
X86423908Y-65790365D01*
X86573143Y-66091889D01*
X86636687Y-66213697D01*
X86779155Y-66471878D01*
X86879414Y-66630794D01*
X86937319Y-66694468D01*
X86952723Y-66666921D01*
X86925482Y-66552178D01*
X86855450Y-66354261D01*
X86742480Y-66077194D01*
X86586428Y-65725000D01*
X86572842Y-65695619D01*
X86483356Y-65517365D01*
X86408155Y-65391614D01*
X86362317Y-65344000D01*
X86312007Y-65361359D01*
X86296055Y-65434730D01*
X86141776Y-65434730D01*
X86364410Y-65255643D01*
X86501577Y-65255643D01*
X86506116Y-65330974D01*
X86550237Y-65459523D01*
X86639403Y-65656230D01*
X86779078Y-65936034D01*
X86855955Y-66085793D01*
X86983540Y-66328621D01*
X87071565Y-66484538D01*
X87126470Y-66563525D01*
X87154691Y-66575559D01*
X87162667Y-66530622D01*
X87150486Y-66468696D01*
X87101287Y-66316485D01*
X87024726Y-66111407D01*
X86932045Y-65882033D01*
X86834485Y-65656937D01*
X86743287Y-65464691D01*
X86728507Y-65435796D01*
X86639085Y-65280584D01*
X86573800Y-65215376D01*
X86519512Y-65226168D01*
X86501577Y-65255643D01*
X86364410Y-65255643D01*
X86536992Y-65116818D01*
X86557505Y-65102212D01*
X86715054Y-65102212D01*
X86723024Y-65182608D01*
X86769415Y-65317597D01*
X86859480Y-65521995D01*
X86998470Y-65810617D01*
X87068909Y-65953574D01*
X87196160Y-66209584D01*
X87284337Y-66381008D01*
X87340546Y-66479613D01*
X87371895Y-66517163D01*
X87385492Y-66505425D01*
X87388445Y-66456164D01*
X87385070Y-66422402D01*
X87343176Y-66267421D01*
X87258059Y-66032835D01*
X87135566Y-65734019D01*
X86981547Y-65386351D01*
X86924192Y-65264765D01*
X86843406Y-65118492D01*
X86783769Y-65056843D01*
X86734480Y-65065807D01*
X86715054Y-65102212D01*
X86557505Y-65102212D01*
X86718059Y-64987890D01*
X86928874Y-64987890D01*
X86971872Y-65135451D01*
X87069470Y-65371820D01*
X87223202Y-65701118D01*
X87268794Y-65794903D01*
X87390320Y-66039480D01*
X87492187Y-66236750D01*
X87564825Y-66368482D01*
X87598664Y-66416445D01*
X87613001Y-66404672D01*
X87606957Y-66309702D01*
X87555416Y-66127224D01*
X87461249Y-65866543D01*
X87327327Y-65536962D01*
X87240951Y-65334804D01*
X87143175Y-65116495D01*
X87072475Y-64980234D01*
X87020104Y-64912431D01*
X86977319Y-64899493D01*
X86935371Y-64927830D01*
X86928874Y-64987890D01*
X86718059Y-64987890D01*
X86956895Y-64817828D01*
X87138923Y-64817828D01*
X87145661Y-64893729D01*
X87188855Y-65022157D01*
X87273764Y-65218961D01*
X87405648Y-65499993D01*
X87428701Y-65548346D01*
X87545424Y-65798744D01*
X87640214Y-66011217D01*
X87703850Y-66164603D01*
X87727111Y-66237741D01*
X87730686Y-66259618D01*
X87789675Y-66303556D01*
X87805979Y-66300008D01*
X87826448Y-66244603D01*
X87803005Y-66115100D01*
X87733440Y-65902548D01*
X87615547Y-65598000D01*
X87541650Y-65415616D01*
X87429186Y-65143248D01*
X87346540Y-64955312D01*
X87286294Y-64838266D01*
X87241028Y-64778568D01*
X87203323Y-64762676D01*
X87165760Y-64777050D01*
X87163382Y-64778603D01*
X87138923Y-64817828D01*
X86956895Y-64817828D01*
X86981658Y-64800196D01*
X87212883Y-64657183D01*
X87377715Y-64657183D01*
X87385351Y-64749080D01*
X87433594Y-64904172D01*
X87525789Y-65135024D01*
X87665278Y-65454203D01*
X87722774Y-65582607D01*
X87852152Y-65868036D01*
X87944784Y-66064101D01*
X88006565Y-66181248D01*
X88043393Y-66229925D01*
X88061165Y-66220577D01*
X88065778Y-66163650D01*
X88048271Y-66080565D01*
X87996651Y-65920277D01*
X87919915Y-65708133D01*
X87827146Y-65466702D01*
X87727425Y-65218557D01*
X87629835Y-64986266D01*
X87543459Y-64792400D01*
X87477378Y-64659529D01*
X87440675Y-64610223D01*
X87407342Y-64615914D01*
X87377715Y-64657183D01*
X87212883Y-64657183D01*
X87331801Y-64583632D01*
X87598866Y-64583632D01*
X87628297Y-64713986D01*
X87704515Y-64919188D01*
X87830440Y-65211750D01*
X87931118Y-65438891D01*
X88038158Y-65683282D01*
X88123972Y-65882331D01*
X88176041Y-66007223D01*
X88205832Y-66078556D01*
X88251458Y-66163650D01*
X88261483Y-66182348D01*
X88290485Y-66192658D01*
X88291406Y-66121360D01*
X88262814Y-65980330D01*
X88203274Y-65781445D01*
X88181467Y-65717413D01*
X88077131Y-65425500D01*
X87969136Y-65143129D01*
X87865640Y-64889714D01*
X87774800Y-64684667D01*
X87704772Y-64547403D01*
X87663714Y-64497334D01*
X87613300Y-64515614D01*
X87598866Y-64583632D01*
X87331801Y-64583632D01*
X87416727Y-64531105D01*
X87607981Y-64432868D01*
X87830612Y-64432868D01*
X87839047Y-64539352D01*
X87904689Y-64740568D01*
X88027876Y-65037610D01*
X88099101Y-65200843D01*
X88211791Y-65464639D01*
X88309021Y-65698591D01*
X88375443Y-65866112D01*
X88424354Y-65985939D01*
X88490341Y-66105777D01*
X88527025Y-66119628D01*
X88526455Y-66029621D01*
X88480684Y-65837889D01*
X88447487Y-65734793D01*
X88379663Y-65543126D01*
X88293192Y-65310347D01*
X88197631Y-65060984D01*
X88102541Y-64819562D01*
X88017480Y-64610608D01*
X87952007Y-64458648D01*
X87915681Y-64388208D01*
X87900886Y-64383248D01*
X87837828Y-64420484D01*
X87830612Y-64432868D01*
X87607981Y-64432868D01*
X87778405Y-64345330D01*
X88056292Y-64345330D01*
X88058250Y-64421465D01*
X88098778Y-64559876D01*
X88181983Y-64773393D01*
X88311972Y-65074847D01*
X88336709Y-65130945D01*
X88453050Y-65400230D01*
X88552580Y-65639163D01*
X88625406Y-65823571D01*
X88661634Y-65929280D01*
X88700214Y-66029775D01*
X88749231Y-66077778D01*
X88763696Y-66077999D01*
X88784577Y-66073441D01*
X88790444Y-66047909D01*
X88777004Y-65984231D01*
X88739963Y-65865236D01*
X88675028Y-65673752D01*
X88577905Y-65392608D01*
X88570534Y-65371297D01*
X88434682Y-64986707D01*
X88326305Y-64699630D01*
X88240613Y-64499958D01*
X88172819Y-64377583D01*
X88118133Y-64322400D01*
X88071767Y-64324299D01*
X88056292Y-64345330D01*
X87778405Y-64345330D01*
X87827497Y-64320114D01*
X87899025Y-64292731D01*
X88281110Y-64292731D01*
X88296164Y-64366104D01*
X88341273Y-64492140D01*
X88421345Y-64687828D01*
X88541286Y-64970156D01*
X88620223Y-65158315D01*
X88723833Y-65415337D01*
X88808061Y-65635771D01*
X88859878Y-65786241D01*
X88880639Y-65849639D01*
X88934302Y-65972523D01*
X88977824Y-66021334D01*
X88997216Y-66021347D01*
X89017556Y-66011467D01*
X89016101Y-65967666D01*
X88989778Y-65865069D01*
X88935515Y-65678801D01*
X88928898Y-65656388D01*
X88843136Y-65388373D01*
X88743567Y-65109065D01*
X88638472Y-64838187D01*
X88536133Y-64595458D01*
X88444832Y-64400600D01*
X88372852Y-64273333D01*
X88328476Y-64233379D01*
X88321541Y-64236019D01*
X88291205Y-64255032D01*
X88281110Y-64292731D01*
X87899025Y-64292731D01*
X88057020Y-64232246D01*
X88530755Y-64232246D01*
X88531976Y-64280116D01*
X88563762Y-64378141D01*
X88630505Y-64544293D01*
X88736597Y-64796545D01*
X88779419Y-64898853D01*
X88894335Y-65180651D01*
X89001693Y-65452888D01*
X89082827Y-65668556D01*
X89088433Y-65684075D01*
X89172718Y-65900107D01*
X89228580Y-66011467D01*
X89228690Y-66011686D01*
X89254651Y-66023806D01*
X89248908Y-65941459D01*
X89209765Y-65769637D01*
X89135527Y-65513334D01*
X89061027Y-65280623D01*
X88941542Y-64934491D01*
X88829295Y-64640830D01*
X88730138Y-64413683D01*
X88649925Y-64267095D01*
X88636121Y-64254147D01*
X88794287Y-64254147D01*
X88820139Y-64356262D01*
X88898170Y-64539667D01*
X88947864Y-64652733D01*
X89047111Y-64893311D01*
X89157803Y-65174745D01*
X89263934Y-65456889D01*
X89316228Y-65595737D01*
X89391162Y-65774021D01*
X89437216Y-65853853D01*
X89454689Y-65842103D01*
X89443879Y-65745637D01*
X89405086Y-65571326D01*
X89338609Y-65326035D01*
X89244748Y-65016635D01*
X89165769Y-64775958D01*
X89067570Y-64512631D01*
X88983974Y-64341471D01*
X89098490Y-64341471D01*
X89220651Y-64646329D01*
X89344093Y-64969177D01*
X89453972Y-65270756D01*
X89540238Y-65523461D01*
X89592846Y-65699687D01*
X89617650Y-65788100D01*
X89637671Y-65842103D01*
X89670270Y-65930031D01*
X89715657Y-66001139D01*
X89744033Y-66001667D01*
X89740760Y-65929624D01*
X89735839Y-65912325D01*
X89701042Y-65787345D01*
X89648350Y-65596020D01*
X89587100Y-65372223D01*
X89560710Y-65276771D01*
X89440220Y-64876494D01*
X89332150Y-64579013D01*
X89247326Y-64406853D01*
X89374023Y-64406853D01*
X89385686Y-64463428D01*
X89422714Y-64573433D01*
X89489699Y-64754353D01*
X89591235Y-65023674D01*
X89668934Y-65234453D01*
X89754469Y-65478170D01*
X89818978Y-65675474D01*
X89852526Y-65796961D01*
X89891335Y-65925733D01*
X89937998Y-65999015D01*
X89944786Y-66001667D01*
X89952683Y-66004752D01*
X89965522Y-65984248D01*
X89957476Y-65911633D01*
X89925605Y-65772918D01*
X89866966Y-65554115D01*
X89778618Y-65241237D01*
X89757679Y-65168604D01*
X89649506Y-64818621D01*
X89558997Y-64574339D01*
X89495239Y-64452218D01*
X89638989Y-64452218D01*
X89645682Y-64543704D01*
X89701699Y-64709000D01*
X89716044Y-64744761D01*
X89791109Y-64946708D01*
X89878768Y-65199478D01*
X89962893Y-65456889D01*
X90021564Y-65635053D01*
X90094438Y-65832242D01*
X90152449Y-65962460D01*
X90167829Y-65984248D01*
X90190086Y-66015778D01*
X90201838Y-65982268D01*
X90182195Y-65852000D01*
X90143850Y-65693310D01*
X90081742Y-65473181D01*
X90006191Y-65226173D01*
X89926018Y-64979390D01*
X89850042Y-64759937D01*
X89787085Y-64594921D01*
X89774878Y-64570139D01*
X89894079Y-64570139D01*
X89901674Y-64652556D01*
X89902162Y-64653718D01*
X89937090Y-64746075D01*
X89999809Y-64919994D01*
X90081578Y-65150985D01*
X90173654Y-65414556D01*
X90245450Y-65615030D01*
X90332667Y-65839294D01*
X90395999Y-65982268D01*
X90401466Y-65994610D01*
X90418392Y-66023806D01*
X90432365Y-66047909D01*
X90447334Y-66073730D01*
X90465756Y-66069408D01*
X90452217Y-65974395D01*
X90402203Y-65781445D01*
X90273619Y-65344937D01*
X90160637Y-64993992D01*
X90068290Y-64747290D01*
X90011776Y-64634389D01*
X90153607Y-64634389D01*
X90161433Y-64712005D01*
X90209519Y-64867202D01*
X90299453Y-65113289D01*
X90335117Y-65209496D01*
X90426308Y-65467650D01*
X90503863Y-65703354D01*
X90553979Y-65875289D01*
X90577845Y-65958683D01*
X90622660Y-66069408D01*
X90628824Y-66084637D01*
X90659805Y-66119628D01*
X90661338Y-66121360D01*
X90672727Y-66134223D01*
X90697667Y-66117356D01*
X90697608Y-66035445D01*
X90687996Y-66001041D01*
X90650594Y-65858981D01*
X90606052Y-65682667D01*
X90597289Y-65647680D01*
X90522132Y-65373040D01*
X90440906Y-65112425D01*
X90361990Y-64889705D01*
X90302165Y-64748559D01*
X90450109Y-64748559D01*
X90467803Y-64871928D01*
X90529599Y-65099030D01*
X90635506Y-65429953D01*
X90670666Y-65534650D01*
X90776684Y-65841356D01*
X90854279Y-66047883D01*
X90886320Y-66117356D01*
X90906239Y-66160544D01*
X90935352Y-66185651D01*
X90944405Y-66129519D01*
X90930272Y-66028765D01*
X90888009Y-65844727D01*
X90826595Y-65614013D01*
X90755143Y-65367908D01*
X90682767Y-65137698D01*
X90618581Y-64954671D01*
X90572625Y-64852174D01*
X90686856Y-64852174D01*
X90703042Y-64919467D01*
X90747879Y-65070590D01*
X90815045Y-65284850D01*
X90898218Y-65541556D01*
X90908092Y-65571505D01*
X91009792Y-65867896D01*
X91094375Y-66092664D01*
X91110512Y-66129519D01*
X91158299Y-66238656D01*
X91162232Y-66244603D01*
X91198025Y-66298721D01*
X91210011Y-66265706D01*
X91190718Y-66132459D01*
X91152921Y-65953894D01*
X91081626Y-65668455D01*
X91002380Y-65396969D01*
X90922980Y-65163565D01*
X90892938Y-65091894D01*
X90999633Y-65091894D01*
X91036628Y-65236324D01*
X91112607Y-65472206D01*
X91134915Y-65539643D01*
X91210183Y-65776012D01*
X91271863Y-65982494D01*
X91308357Y-66120670D01*
X91342895Y-66233011D01*
X91360908Y-66265706D01*
X91392248Y-66322593D01*
X91434519Y-66346821D01*
X91452445Y-66285902D01*
X91451448Y-66263766D01*
X91429488Y-66125378D01*
X91384777Y-65928667D01*
X91325324Y-65701689D01*
X91259139Y-65472501D01*
X91194230Y-65269159D01*
X91165810Y-65192804D01*
X91287751Y-65192804D01*
X91296214Y-65265844D01*
X91310423Y-65315626D01*
X91353525Y-65466212D01*
X91414281Y-65678211D01*
X91484363Y-65922556D01*
X91533231Y-66085613D01*
X91600027Y-66285452D01*
X91600207Y-66285902D01*
X91654613Y-66422201D01*
X91688467Y-66472889D01*
X91711330Y-66470572D01*
X91726138Y-66451283D01*
X91725246Y-66396421D01*
X91706193Y-66287389D01*
X91666520Y-66105590D01*
X91603767Y-65832426D01*
X91576590Y-65718557D01*
X91503476Y-65457836D01*
X91464693Y-65363742D01*
X91583222Y-65363742D01*
X91589166Y-65401193D01*
X91619816Y-65527767D01*
X91670778Y-65721911D01*
X91736250Y-65960977D01*
X91791747Y-66152059D01*
X91861380Y-66370381D01*
X91890957Y-66451283D01*
X91919820Y-66530232D01*
X91958340Y-66606251D01*
X91985459Y-66631399D01*
X92006336Y-66636345D01*
X92009756Y-66595429D01*
X91994023Y-66492553D01*
X91957442Y-66311618D01*
X91898316Y-66036526D01*
X91879711Y-65953703D01*
X91811232Y-65695564D01*
X91777020Y-65600999D01*
X91906172Y-65600999D01*
X91921548Y-65720861D01*
X91959869Y-65909680D01*
X92017073Y-66145063D01*
X92057016Y-66293107D01*
X92131464Y-66535473D01*
X92155244Y-66595429D01*
X92190656Y-66684710D01*
X92230915Y-66737890D01*
X92248567Y-66692087D01*
X92239937Y-66544374D01*
X92201351Y-66291825D01*
X92145319Y-66025989D01*
X92085398Y-65829309D01*
X92202488Y-65829309D01*
X92214795Y-65919597D01*
X92216505Y-65926532D01*
X92246716Y-66052644D01*
X92292237Y-66246205D01*
X92343908Y-66468284D01*
X92402051Y-66692087D01*
X92405447Y-66705159D01*
X92462037Y-66862247D01*
X92502090Y-66910060D01*
X92521160Y-66850347D01*
X92514801Y-66684857D01*
X92478566Y-66415337D01*
X92446248Y-66232611D01*
X92413472Y-66093001D01*
X92521790Y-66093001D01*
X92541347Y-66253477D01*
X92595338Y-66515223D01*
X92598595Y-66529579D01*
X92663642Y-66790723D01*
X92682237Y-66850347D01*
X92720774Y-66973914D01*
X92766235Y-67071008D01*
X92796266Y-67073859D01*
X92807111Y-66974323D01*
X92806741Y-66950788D01*
X92790964Y-66775090D01*
X92757410Y-66564604D01*
X92713636Y-66356077D01*
X92693055Y-66280815D01*
X92814274Y-66280815D01*
X92818011Y-66365446D01*
X92845667Y-66530703D01*
X92897378Y-66791407D01*
X92900656Y-66807396D01*
X92939479Y-66974323D01*
X92955307Y-67042379D01*
X93006509Y-67210363D01*
X93049219Y-67300502D01*
X93078399Y-67301945D01*
X93089007Y-67203845D01*
X93079488Y-67036459D01*
X93047621Y-66809180D01*
X93000758Y-66588610D01*
X92973171Y-66497604D01*
X93107528Y-66497604D01*
X93114477Y-66584064D01*
X93138713Y-66745796D01*
X93176269Y-66955273D01*
X93227969Y-67197117D01*
X93229885Y-67203845D01*
X93279027Y-67376435D01*
X93319704Y-67459049D01*
X93346100Y-67441670D01*
X93354317Y-67321009D01*
X93340456Y-67093778D01*
X93311993Y-66878216D01*
X93307196Y-66857640D01*
X93412638Y-66857640D01*
X93429526Y-66989515D01*
X93467284Y-67215658D01*
X93469490Y-67228432D01*
X93487785Y-67321009D01*
X93521326Y-67490730D01*
X93567996Y-67663398D01*
X93605518Y-67742347D01*
X93629913Y-67723488D01*
X93637201Y-67602736D01*
X93623401Y-67376000D01*
X93606329Y-67224432D01*
X93588179Y-67137696D01*
X93712810Y-67137696D01*
X93731241Y-67293541D01*
X93770367Y-67545334D01*
X93781572Y-67602736D01*
X93806122Y-67728510D01*
X93849657Y-67886769D01*
X93888524Y-67968667D01*
X93895400Y-67973716D01*
X93919782Y-67942501D01*
X93925737Y-67833582D01*
X93916419Y-67674742D01*
X93894980Y-67493762D01*
X93864573Y-67318423D01*
X93828350Y-67176507D01*
X93789465Y-67095794D01*
X93788132Y-67094407D01*
X93740613Y-67053274D01*
X93715720Y-67062655D01*
X93712810Y-67137696D01*
X93588179Y-67137696D01*
X93556094Y-66984373D01*
X93485571Y-66848769D01*
X93444829Y-66809367D01*
X93417460Y-66803200D01*
X93412638Y-66857640D01*
X93307196Y-66857640D01*
X93266604Y-66683533D01*
X93214364Y-66571321D01*
X93155062Y-66512562D01*
X93109267Y-66490586D01*
X93107528Y-66497604D01*
X92973171Y-66497604D01*
X92946628Y-66410042D01*
X92892961Y-66308771D01*
X92878013Y-66294154D01*
X92834319Y-66261991D01*
X92814274Y-66280815D01*
X92693055Y-66280815D01*
X92667197Y-66186256D01*
X92625652Y-66091889D01*
X92587809Y-66050329D01*
X92537125Y-66027413D01*
X92521790Y-66093001D01*
X92413472Y-66093001D01*
X92398418Y-66028881D01*
X92347974Y-65906477D01*
X92288555Y-65846351D01*
X92247764Y-65826203D01*
X92202488Y-65829309D01*
X92085398Y-65829309D01*
X92070418Y-65780138D01*
X91991358Y-65624268D01*
X91912695Y-65569778D01*
X91906172Y-65600999D01*
X91777020Y-65600999D01*
X91744758Y-65511825D01*
X91686738Y-65421237D01*
X91630320Y-65383446D01*
X91583222Y-65363742D01*
X91464693Y-65363742D01*
X91436220Y-65294663D01*
X91370651Y-65218047D01*
X91344039Y-65203742D01*
X91287751Y-65192804D01*
X91165810Y-65192804D01*
X91138608Y-65119720D01*
X91100280Y-65052241D01*
X91040908Y-65020038D01*
X91001200Y-65024578D01*
X90999633Y-65091894D01*
X90892938Y-65091894D01*
X90851222Y-64992373D01*
X90794904Y-64907524D01*
X90735012Y-64868125D01*
X90687155Y-64850695D01*
X90686856Y-64852174D01*
X90572625Y-64852174D01*
X90571700Y-64850112D01*
X90546989Y-64812665D01*
X90476507Y-64728834D01*
X90450109Y-64748559D01*
X90302165Y-64748559D01*
X90293768Y-64728747D01*
X90244620Y-64653420D01*
X90184455Y-64621045D01*
X90153607Y-64634389D01*
X90011776Y-64634389D01*
X89995373Y-64601621D01*
X89940680Y-64553778D01*
X89894079Y-64570139D01*
X89774878Y-64570139D01*
X89745966Y-64511445D01*
X89679177Y-64445444D01*
X89638989Y-64452218D01*
X89495239Y-64452218D01*
X89484240Y-64431150D01*
X89423325Y-64384445D01*
X89408419Y-64384056D01*
X89383131Y-64386224D01*
X89374023Y-64406853D01*
X89247326Y-64406853D01*
X89237698Y-64387311D01*
X89158063Y-64304372D01*
X89106775Y-64294483D01*
X89098490Y-64341471D01*
X88983974Y-64341471D01*
X88982943Y-64339361D01*
X88905686Y-64244179D01*
X88829600Y-64215112D01*
X88817050Y-64216449D01*
X88794287Y-64254147D01*
X88636121Y-64254147D01*
X88594507Y-64215112D01*
X88555707Y-64216562D01*
X88530755Y-64232246D01*
X88057020Y-64232246D01*
X88199267Y-64177790D01*
X88517334Y-64114702D01*
X88522431Y-64114368D01*
X88758649Y-64127043D01*
X89072208Y-64184059D01*
X89440373Y-64278894D01*
X89840409Y-64405025D01*
X90249580Y-64555930D01*
X90645149Y-64725088D01*
X90783342Y-64791558D01*
X91276923Y-65063848D01*
X91808186Y-65403163D01*
X92353490Y-65792052D01*
X92889191Y-66213060D01*
X93391649Y-66648734D01*
X93837223Y-67081621D01*
X93936410Y-67187505D01*
X94080924Y-67353446D01*
X94179851Y-67482759D01*
X94215963Y-67553957D01*
X94214963Y-67562363D01*
X94184945Y-67556699D01*
X94126879Y-67469788D01*
X94119969Y-67457255D01*
X94055406Y-67360443D01*
X94015330Y-67334300D01*
X94013126Y-67339104D01*
X94012463Y-67421692D01*
X94027033Y-67580837D01*
X94054340Y-67787545D01*
X94061383Y-67833582D01*
X94072655Y-67907264D01*
X94105931Y-68080548D01*
X94144624Y-68181866D01*
X94201701Y-68238077D01*
X94290124Y-68276042D01*
X94300511Y-68279783D01*
X94469591Y-68360592D01*
X94636532Y-68466943D01*
X94658176Y-68482914D01*
X94800749Y-68577163D01*
X94913245Y-68635646D01*
X94965473Y-68669310D01*
X94976745Y-68736295D01*
X94955247Y-68760726D01*
X94902612Y-68745143D01*
X94823693Y-68670382D01*
X94665798Y-68603396D01*
X94509270Y-68599116D01*
X94467250Y-68605819D01*
X94342070Y-68580921D01*
X94254485Y-68507222D01*
X94242105Y-68411179D01*
X94246078Y-68374986D01*
X94190362Y-68335556D01*
X94172970Y-68331503D01*
X94074460Y-68274370D01*
X93926758Y-68163840D01*
X93754690Y-68018010D01*
X93609587Y-67892279D01*
X93038193Y-67458789D01*
X92407485Y-67062364D01*
X91753876Y-66724400D01*
X91113778Y-66466290D01*
X90902877Y-66397743D01*
X90677606Y-66337411D01*
X90456771Y-66298596D01*
X90201270Y-66274784D01*
X89872000Y-66259462D01*
X89663835Y-66254958D01*
X89094121Y-66274763D01*
X88542867Y-66346770D01*
X88297233Y-66404672D01*
X88078792Y-66456164D01*
G37*
%TD*%
M02*
