M48
; DRILL file {KiCad 8.0.0-rc2-74-g5f063dd458} date 2024-01-29T02:36:53+0200
; FORMAT={-:-/ absolute / metric / decimal}
; #@! TF.CreationDate,2024-01-29T02:36:53+02:00
; #@! TF.GenerationSoftware,Kicad,Pcbnew,8.0.0-rc2-74-g5f063dd458
; #@! TF.FileFunction,Plated,1,2,PTH
FMAT,2
METRIC
; #@! TA.AperFunction,Plated,PTH,ViaDrill
T1C0.300
; #@! TA.AperFunction,Plated,PTH,ComponentDrill
T2C0.650
%
G90
G05
T1
X50.75Y-65.73
X50.75Y-66.73
X50.75Y-70.53
X50.75Y-71.53
X50.77Y-64.75
X51.25Y-71.03
X51.55Y-60.43
X51.65Y-64.73
X51.65Y-65.73
X51.65Y-66.73
X51.75Y-70.53
X51.75Y-71.53
X52.05Y-59.23
X52.45Y-60.93
X52.47Y-66.73
X52.5Y-65.73
X52.55Y-64.73
X53.05Y-58.23
X53.2Y-71.25
X53.25Y-59.83
X53.45Y-61.03
X53.55Y-63.83
X53.75Y-61.93
X53.75Y-62.93
X53.95Y-65.83
X53.95Y-66.83
X53.95Y-67.83
X53.98Y-71.56
X54.02Y-70.35
X54.55Y-57.73
X54.75Y-66.93
X54.79Y-71.22
X54.94Y-65.04
X55.15Y-58.13
X55.25Y-67.83
X55.35Y-59.63
X55.35Y-63.13
X55.35Y-64.03
X55.35Y-65.93
X55.35Y-101.13
X55.55Y-73.03
X55.65Y-73.93
X55.65Y-75.13
X55.65Y-76.43
X55.65Y-77.53
X55.65Y-79.73
X55.65Y-81.03
X55.65Y-82.13
X55.65Y-83.53
X55.75Y-85.88
X55.86Y-78.51
X56.15Y-87.43
X56.45Y-97.73
X56.45Y-99.33
X56.65Y-84.83
X56.65Y-89.33
X56.65Y-95.63
X56.68Y-60.09
X56.75Y-91.73
X56.75Y-93.53
X56.89Y-83.47
X57.05Y-58.03
X57.25Y-86.53
X57.43Y-81.87
X57.45Y-60.53
X57.46Y-75.03
X57.48Y-61.59
X57.48Y-69.44
X57.48Y-79.74
X57.49Y-63.05
X57.49Y-67.04
X57.49Y-77.24
X57.51Y-72.33
X57.52Y-64.72
X57.65Y-98.43
X57.75Y-101.63
X57.85Y-90.43
X57.95Y-96.43
X58.25Y-93.93
X58.325Y-80.63
X58.48Y-84.0
X58.65Y-88.43
X58.725Y-83.055
X58.75Y-81.83
X58.85Y-89.63
X58.875Y-77.28
X58.9Y-68.755
X58.9Y-71.905
X58.9Y-73.955
X58.925Y-79.33
X59.0Y-65.205
X59.05Y-90.93
X59.48Y-66.2
X59.48Y-59.88
X59.69Y-63.3
X59.89Y-65.0
X60.05Y-70.06
X60.05Y-80.0
X60.08Y-67.35
X60.08Y-86.43
X60.1Y-75.505
X60.15Y-78.53
X60.15Y-83.63
X60.15Y-101.63
X60.45Y-90.53
X60.664Y-60.361
X61.56Y-84.85
X61.57Y-86.49
X62.305Y-59.882
X62.49Y-80.91
X62.53Y-68.38
X62.55Y-76.63
X62.55Y-77.83
X62.55Y-79.23
X62.55Y-72.52
X62.575Y-65.98
X62.575Y-70.755
X62.675Y-88.255
X62.85Y-101.83
X62.95Y-85.03
X63.28Y-66.8
X63.4Y-64.5
X63.45Y-82.63
X63.52Y-63.25
X63.653Y-85.847
X63.68Y-101.05
X63.85Y-83.63
X63.85Y-99.73
X63.95Y-95.43
X64.05Y-98.13
X64.225Y-67.63
X64.25Y-94.33
X64.275Y-69.705
X64.35Y-80.53
X64.425Y-73.105
X64.45Y-90.03
X64.643Y-86.927
X64.68Y-74.55
X64.98Y-76.32
X65.25Y-99.23
X65.71Y-80.87
X65.78Y-90.4
X66.05Y-97.13
X66.21Y-63.69
X66.45Y-75.105
X66.55Y-89.93
X66.55Y-92.03
X66.575Y-65.38
X66.625Y-70.755
X67.07Y-72.12
X67.3Y-87.34
X67.32Y-89.26
X67.42Y-82.02
X67.45Y-98.43
X67.73Y-101.49
X67.83Y-78.21
X67.89Y-65.45
X67.95Y-91.13
X67.95Y-93.63
X68.2Y-74.95
X68.275Y-72.805
X68.55Y-95.03
X68.64Y-80.23
X68.65Y-98.83
X68.67Y-77.36
X68.675Y-96.43
X68.85Y-67.84
X68.95Y-92.03
X69.05Y-85.16
X69.35Y-65.655
X69.54Y-86.81
X69.55Y-70.355
X69.56Y-89.33
X69.73Y-62.68
X69.91Y-63.86
X70.25Y-78.48
X70.33Y-75.68
X70.49Y-96.71
X70.62Y-81.28
X70.95Y-97.63
X70.99Y-66.39
X71.08Y-93.62
X71.2Y-65.405
X71.275Y-63.705
X71.3Y-79.96
X71.32Y-67.3
X71.32Y-70.16
X71.32Y-72.67
X71.33Y-68.19
X71.33Y-71.45
X71.33Y-74.09
X71.55Y-60.88
X71.97Y-100.94
X72.05Y-58.805
X72.06Y-86.75
X72.13Y-76.43
X72.2Y-61.53
X72.2Y-85.47
X72.45Y-98.73
X72.52Y-79.27
X72.62Y-77.76
X72.75Y-95.03
X72.88Y-75.05
X73.05Y-60.96
X73.15Y-59.13
X73.15Y-93.63
X73.2Y-78.51
X73.73Y-96.75
X73.91Y-102.11
X74.225Y-58.58
X74.25Y-62.13
X74.25Y-76.05
X74.3Y-64.98
X74.5Y-68.08
X74.54Y-71.05
X74.58Y-74.07
X74.63Y-67.25
X74.71Y-87.59
X74.77Y-72.67
X74.78Y-80.93
X74.865Y-63.43
X74.865Y-78.33
X74.915Y-59.165
X75.08Y-76.2
X75.08Y-74.93
X75.13Y-70.32
X75.615Y-72.125
X75.65Y-98.83
X75.72Y-67.54
X75.74Y-76.91
X75.75Y-95.03
X75.76Y-74.18
X75.81Y-65.81
X76.65Y-93.63
X76.68Y-100.58
X76.71Y-61.53
X76.81Y-77.43
X77.06Y-83.55
X77.26Y-79.37
X77.54Y-85.56
X77.75Y-61.755
X78.025Y-60.055
X78.06Y-96.75
X78.475Y-58.705
X78.61Y-81.47
X78.68Y-93.58
X78.71Y-77.89
X78.725Y-61.005
X78.75Y-95.03
X78.94Y-99.19
X79.08Y-70.3
X79.35Y-60.48
X79.42Y-100.61
X79.475Y-59.23
X80.07Y-79.4
X80.45Y-65.68
X80.475Y-63.155
X80.525Y-60.955
X80.575Y-59.955
X80.75Y-58.655
X80.75Y-93.63
X80.88Y-100.85
X80.95Y-96.83
X81.13Y-84.55
X81.55Y-98.83
X81.65Y-95.03
X81.68Y-69.19
X81.8Y-101.27
X82.48Y-74.74
X82.5Y-82.71
X82.93Y-84.47
X83.9Y-93.63
X83.975Y-96.73
X84.0Y-95.03
X84.34Y-77.2
X84.47Y-72.4
X84.475Y-98.855
X84.51Y-81.73
X84.93Y-84.58
X85.275Y-101.655
X86.0Y-79.905
X86.275Y-78.33
X86.45Y-71.87
X86.53Y-74.46
X86.76Y-82.81
X87.24Y-98.79
X87.39Y-85.6
X87.54Y-96.76
X88.63Y-72.13
X88.875Y-93.78
X88.9Y-74.16
X89.14Y-83.08
X89.15Y-81.555
X89.17Y-101.77
X89.27Y-77.29
X89.425Y-91.805
X89.9Y-89.755
X89.925Y-85.705
X89.925Y-87.805
X90.28Y-96.3
X90.55Y-92.805
X90.76Y-101.41
X91.125Y-96.05
X91.15Y-89.005
X91.46Y-71.79
X91.6Y-87.28
X91.65Y-85.38
X91.66Y-99.21
X91.69Y-83.17
X91.77Y-90.1
X91.88Y-96.5
X92.2Y-101.38
X92.21Y-79.93
X92.25Y-94.755
X92.28Y-97.88
X92.3Y-91.225
X92.6Y-76.02
X92.69Y-78.03
X92.95Y-90.55
X93.2Y-99.34
X93.55Y-86.855
X93.575Y-83.205
X93.59Y-97.19
X93.61Y-89.4
X93.75Y-94.54
X94.125Y-92.9
X94.38Y-90.0
X94.48Y-100.7
X95.08Y-72.0
X95.33Y-79.98
X95.34Y-95.34
X95.375Y-86.83
X95.44Y-83.0
X95.45Y-97.105
X95.52Y-94.13
X95.6Y-78.89
X95.73Y-91.07
X95.81Y-76.06
X95.88Y-69.16
X95.98Y-88.7
X96.38Y-95.6
X96.475Y-100.605
X96.65Y-67.25
X96.7Y-86.93
X96.78Y-92.1
X97.0Y-92.9
X97.325Y-97.155
X97.37Y-61.94
X97.52Y-95.88
X98.425Y-100.53
X98.58Y-96.9
X99.225Y-92.825
X99.33Y-65.23
X99.375Y-67.85
X99.38Y-69.3
X99.425Y-72.275
X99.45Y-97.28
X99.45Y-59.4
X99.57Y-75.3
X99.58Y-73.3
X99.775Y-62.5
X100.15Y-70.375
X100.52Y-93.24
X100.575Y-68.425
X100.9Y-95.73
X101.15Y-87.475
X101.48Y-74.6
X101.68Y-69.1
X101.9Y-97.28
X102.22Y-89.05
X102.44Y-60.56
X102.468Y-83.7
X102.6Y-74.85
X102.78Y-95.38
X103.225Y-73.75
X103.35Y-83.75
X103.375Y-86.925
X103.425Y-68.275
X103.475Y-75.325
X103.5Y-70.5
X103.85Y-81.27
X103.95Y-78.37
X103.98Y-87.75
X104.21Y-82.77
X104.49Y-93.76
X104.54Y-96.45
X104.72Y-59.48
X105.13Y-61.97
X105.13Y-69.92
X105.175Y-72.975
X105.18Y-67.72
X105.24Y-64.91
X105.25Y-74.45
X105.28Y-75.5
X105.66Y-80.92
X105.7Y-83.925
X105.7Y-86.8
X105.825Y-97.225
X106.03Y-67.39
X106.05Y-93.04
X106.19Y-88.18
X106.2Y-90.475
X106.25Y-75.48
X106.575Y-81.875
X106.58Y-65.45
X106.78Y-73.04
X106.825Y-59.375
X106.95Y-96.13
X107.26Y-75.34
X107.475Y-84.15
X107.475Y-86.625
X107.58Y-102.06
X107.9Y-94.305
X107.9Y-89.73
X107.975Y-91.5
X108.325Y-81.85
X108.66Y-75.29
X108.71Y-96.45
X109.29Y-65.38
X109.37Y-87.82
X109.475Y-84.05
X109.475Y-86.675
X109.52Y-80.92
X109.58Y-67.45
X109.65Y-61.175
X109.65Y-75.25
X109.68Y-69.18
X109.75Y-76.37
X109.775Y-77.375
X109.78Y-70.99
X109.82Y-59.75
X109.85Y-64.39
X109.85Y-72.74
X109.86Y-62.42
X109.89Y-79.39
X109.98Y-90.67
X110.09Y-81.87
X110.11Y-94.44
X110.48Y-97.1
X110.75Y-89.205
X110.75Y-96.2
X110.775Y-92.305
X111.075Y-88.2
X111.15Y-94.25
X111.8Y-84.925
X112.125Y-81.875
X112.175Y-98.6
X112.925Y-102.18
X113.18Y-84.51
X113.74Y-100.142
X113.88Y-95.4
X113.925Y-96.305
X113.975Y-92.305
X113.98Y-82.8
X113.98Y-91.3
X113.98Y-93.3
X114.125Y-88.305
X114.175Y-98.625
X114.18Y-85.7
X114.2Y-90.305
X114.28Y-87.3
X115.03Y-82.12
X115.25Y-97.5
X115.3Y-98.95
X115.79Y-83.02
X116.575Y-82.0
X116.825Y-96.305
X117.125Y-97.5
X117.375Y-100.15
X117.429Y-102.142
X117.65Y-99.42
X118.175Y-97.475
X120.325Y-97.53
X123.162Y-97.555
X123.6Y-101.83
X123.725Y-65.65
X124.38Y-76.13
X124.425Y-74.855
X124.675Y-100.105
X124.85Y-101.68
X125.2Y-71.08
X125.25Y-72.705
X125.375Y-58.005
X125.38Y-67.5
X125.45Y-98.83
X125.575Y-64.655
X125.875Y-92.4
X125.95Y-68.88
X125.975Y-60.73
X125.975Y-89.025
X125.975Y-94.95
X126.04Y-65.3
X126.05Y-86.125
X126.17Y-66.546
X126.34Y-99.67
X126.34Y-101.1
X127.12Y-90.42
X127.225Y-60.555
X127.25Y-65.155
X127.3Y-73.705
X127.35Y-87.0
X127.4Y-82.45
X127.45Y-94.3
X127.675Y-72.405
T2
X125.9Y-76.88
X125.9Y-79.42
X125.9Y-81.96
X125.9Y-84.5
X126.125Y-75.625
X126.125Y-78.165
X126.125Y-80.705
X126.125Y-83.245
M30
