%TF.GenerationSoftware,KiCad,Pcbnew,8.0.0-rc2-74-g5f063dd458*%
%TF.CreationDate,2024-01-29T02:36:54+02:00*%
%TF.ProjectId,SamoBase,53616d6f-4261-4736-952e-6b696361645f,rev?*%
%TF.SameCoordinates,Original*%
%TF.FileFunction,Paste,Top*%
%TF.FilePolarity,Positive*%
%FSLAX46Y46*%
G04 Gerber Fmt 4.6, Leading zero omitted, Abs format (unit mm)*
G04 Created by KiCad (PCBNEW 8.0.0-rc2-74-g5f063dd458) date 2024-01-29 02:36:54*
%MOMM*%
%LPD*%
G01*
G04 APERTURE LIST*
G04 Aperture macros list*
%AMRoundRect*
0 Rectangle with rounded corners*
0 $1 Rounding radius*
0 $2 $3 $4 $5 $6 $7 $8 $9 X,Y pos of 4 corners*
0 Add a 4 corners polygon primitive as box body*
4,1,4,$2,$3,$4,$5,$6,$7,$8,$9,$2,$3,0*
0 Add four circle primitives for the rounded corners*
1,1,$1+$1,$2,$3*
1,1,$1+$1,$4,$5*
1,1,$1+$1,$6,$7*
1,1,$1+$1,$8,$9*
0 Add four rect primitives between the rounded corners*
20,1,$1+$1,$2,$3,$4,$5,0*
20,1,$1+$1,$4,$5,$6,$7,0*
20,1,$1+$1,$6,$7,$8,$9,0*
20,1,$1+$1,$8,$9,$2,$3,0*%
G04 Aperture macros list end*
%ADD10C,0.010000*%
%ADD11RoundRect,0.200000X0.275000X-0.200000X0.275000X0.200000X-0.275000X0.200000X-0.275000X-0.200000X0*%
%ADD12RoundRect,0.125000X0.125000X-0.125000X0.125000X0.125000X-0.125000X0.125000X-0.125000X-0.125000X0*%
%ADD13R,0.340000X0.700000*%
%ADD14RoundRect,0.225000X0.225000X0.250000X-0.225000X0.250000X-0.225000X-0.250000X0.225000X-0.250000X0*%
%ADD15RoundRect,0.135000X0.135000X0.185000X-0.135000X0.185000X-0.135000X-0.185000X0.135000X-0.185000X0*%
%ADD16RoundRect,0.140000X0.140000X0.170000X-0.140000X0.170000X-0.140000X-0.170000X0.140000X-0.170000X0*%
%ADD17RoundRect,0.135000X0.185000X-0.135000X0.185000X0.135000X-0.185000X0.135000X-0.185000X-0.135000X0*%
%ADD18RoundRect,0.381000X-1.369000X-0.381000X1.369000X-0.381000X1.369000X0.381000X-1.369000X0.381000X0*%
%ADD19RoundRect,0.218750X0.218750X0.256250X-0.218750X0.256250X-0.218750X-0.256250X0.218750X-0.256250X0*%
%ADD20RoundRect,0.135000X-0.185000X0.135000X-0.185000X-0.135000X0.185000X-0.135000X0.185000X0.135000X0*%
%ADD21RoundRect,0.135000X-0.135000X-0.185000X0.135000X-0.185000X0.135000X0.185000X-0.135000X0.185000X0*%
%ADD22RoundRect,0.140000X-0.170000X0.140000X-0.170000X-0.140000X0.170000X-0.140000X0.170000X0.140000X0*%
%ADD23RoundRect,0.250000X1.100000X-0.325000X1.100000X0.325000X-1.100000X0.325000X-1.100000X-0.325000X0*%
%ADD24RoundRect,0.140000X-0.140000X-0.170000X0.140000X-0.170000X0.140000X0.170000X-0.140000X0.170000X0*%
%ADD25RoundRect,0.375000X-0.625000X-0.375000X0.625000X-0.375000X0.625000X0.375000X-0.625000X0.375000X0*%
%ADD26RoundRect,0.225000X-0.250000X0.225000X-0.250000X-0.225000X0.250000X-0.225000X0.250000X0.225000X0*%
%ADD27RoundRect,0.200000X-0.200000X-0.275000X0.200000X-0.275000X0.200000X0.275000X-0.200000X0.275000X0*%
%ADD28RoundRect,0.225000X-0.225000X-0.250000X0.225000X-0.250000X0.225000X0.250000X-0.225000X0.250000X0*%
%ADD29R,0.800000X0.400000*%
%ADD30R,0.700000X0.450000*%
%ADD31RoundRect,0.225000X0.250000X-0.225000X0.250000X0.225000X-0.250000X0.225000X-0.250000X-0.225000X0*%
%ADD32RoundRect,0.381000X0.381000X-1.369000X0.381000X1.369000X-0.381000X1.369000X-0.381000X-1.369000X0*%
%ADD33RoundRect,0.150000X-0.512500X-0.150000X0.512500X-0.150000X0.512500X0.150000X-0.512500X0.150000X0*%
%ADD34R,1.300000X3.400000*%
%ADD35RoundRect,0.125000X0.125000X0.125000X-0.125000X0.125000X-0.125000X-0.125000X0.125000X-0.125000X0*%
%ADD36R,0.450000X0.700000*%
%ADD37R,2.000000X1.500000*%
%ADD38RoundRect,0.140000X0.170000X-0.140000X0.170000X0.140000X-0.170000X0.140000X-0.170000X-0.140000X0*%
G04 APERTURE END LIST*
D10*
%TO.C,J5*%
X86749196Y-95606435D02*
X86154461Y-95624190D01*
X86142226Y-95214373D01*
X86736964Y-95196617D01*
X86749196Y-95606435D01*
G36*
X86749196Y-95606435D02*
G01*
X86154461Y-95624190D01*
X86142226Y-95214373D01*
X86736964Y-95196617D01*
X86749196Y-95606435D01*
G37*
X86883181Y-100094435D02*
X86288446Y-100112190D01*
X86276808Y-99722364D01*
X86871543Y-99704609D01*
X86883181Y-100094435D01*
G36*
X86883181Y-100094435D02*
G01*
X86288446Y-100112190D01*
X86276808Y-99722364D01*
X86871543Y-99704609D01*
X86883181Y-100094435D01*
G37*
X87976781Y-94669385D02*
X86127605Y-94724591D01*
X86100748Y-93824992D01*
X87949924Y-93769786D01*
X87976781Y-94669385D01*
G36*
X87976781Y-94669385D02*
G01*
X86127605Y-94724591D01*
X86100748Y-93824992D01*
X87949924Y-93769786D01*
X87976781Y-94669385D01*
G37*
X88179697Y-101466357D02*
X86330521Y-101521562D01*
X86303665Y-100621963D01*
X88152841Y-100566758D01*
X88179697Y-101466357D01*
G36*
X88179697Y-101466357D02*
G01*
X86330521Y-101521562D01*
X86303665Y-100621963D01*
X88152841Y-100566758D01*
X88179697Y-101466357D01*
G37*
X89455605Y-96451050D02*
X88805895Y-96470446D01*
X88798435Y-96220557D01*
X89448145Y-96201161D01*
X89455605Y-96451050D01*
G36*
X89455605Y-96451050D02*
G01*
X88805895Y-96470446D01*
X88798435Y-96220557D01*
X89448145Y-96201161D01*
X89455605Y-96451050D01*
G37*
X89470526Y-96950827D02*
X88820815Y-96970223D01*
X88813355Y-96720335D01*
X89463066Y-96700938D01*
X89470526Y-96950827D01*
G36*
X89470526Y-96950827D02*
G01*
X88820815Y-96970223D01*
X88813355Y-96720335D01*
X89463066Y-96700938D01*
X89470526Y-96950827D01*
G37*
X89485446Y-97450604D02*
X88835736Y-97470001D01*
X88828275Y-97220112D01*
X89477986Y-97200716D01*
X89485446Y-97450604D01*
G36*
X89485446Y-97450604D02*
G01*
X88835736Y-97470001D01*
X88828275Y-97220112D01*
X89477986Y-97200716D01*
X89485446Y-97450604D01*
G37*
X89500366Y-97950382D02*
X88850656Y-97969778D01*
X88843196Y-97719889D01*
X89492906Y-97700493D01*
X89500366Y-97950382D01*
G36*
X89500366Y-97950382D02*
G01*
X88850656Y-97969778D01*
X88843196Y-97719889D01*
X89492906Y-97700493D01*
X89500366Y-97950382D01*
G37*
X89515287Y-98450159D02*
X88865576Y-98469554D01*
X88858116Y-98219667D01*
X89507827Y-98200270D01*
X89515287Y-98450159D01*
G36*
X89515287Y-98450159D02*
G01*
X88865576Y-98469554D01*
X88858116Y-98219667D01*
X89507827Y-98200270D01*
X89515287Y-98450159D01*
G37*
X89530207Y-98949936D02*
X88880497Y-98969333D01*
X88873036Y-98719444D01*
X89522747Y-98700048D01*
X89530207Y-98949936D01*
G36*
X89530207Y-98949936D02*
G01*
X88880497Y-98969333D01*
X88873036Y-98719444D01*
X89522747Y-98700048D01*
X89530207Y-98949936D01*
G37*
%TO.C,J4*%
X75790000Y-62530000D02*
X73940000Y-62530000D01*
X73940000Y-63430000D01*
X75790000Y-63430000D01*
X75790000Y-62530000D01*
G36*
X75790000Y-62530000D02*
G01*
X73940000Y-62530000D01*
X73940000Y-63430000D01*
X75790000Y-63430000D01*
X75790000Y-62530000D01*
G37*
X75790000Y-78330000D02*
X73940000Y-78330000D01*
X73940000Y-79230000D01*
X75790000Y-79230000D01*
X75790000Y-78330000D01*
G36*
X75790000Y-78330000D02*
G01*
X73940000Y-78330000D01*
X73940000Y-79230000D01*
X75790000Y-79230000D01*
X75790000Y-78330000D01*
G37*
X77240000Y-65250000D02*
X76590000Y-65250000D01*
X76590000Y-65000000D01*
X77240000Y-65000000D01*
X77240000Y-65250000D01*
G36*
X77240000Y-65250000D02*
G01*
X76590000Y-65250000D01*
X76590000Y-65000000D01*
X77240000Y-65000000D01*
X77240000Y-65250000D01*
G37*
X77240000Y-65750000D02*
X76590000Y-65750000D01*
X76590000Y-65500000D01*
X77240000Y-65500000D01*
X77240000Y-65750000D01*
G36*
X77240000Y-65750000D02*
G01*
X76590000Y-65750000D01*
X76590000Y-65500000D01*
X77240000Y-65500000D01*
X77240000Y-65750000D01*
G37*
X77240000Y-66250000D02*
X76590000Y-66250000D01*
X76590000Y-66000000D01*
X77240000Y-66000000D01*
X77240000Y-66250000D01*
G36*
X77240000Y-66250000D02*
G01*
X76590000Y-66250000D01*
X76590000Y-66000000D01*
X77240000Y-66000000D01*
X77240000Y-66250000D01*
G37*
X77240000Y-66750000D02*
X76590000Y-66750000D01*
X76590000Y-66500000D01*
X77240000Y-66500000D01*
X77240000Y-66750000D01*
G36*
X77240000Y-66750000D02*
G01*
X76590000Y-66750000D01*
X76590000Y-66500000D01*
X77240000Y-66500000D01*
X77240000Y-66750000D01*
G37*
X77240000Y-67250000D02*
X76590000Y-67250000D01*
X76590000Y-67000000D01*
X77240000Y-67000000D01*
X77240000Y-67250000D01*
G36*
X77240000Y-67250000D02*
G01*
X76590000Y-67250000D01*
X76590000Y-67000000D01*
X77240000Y-67000000D01*
X77240000Y-67250000D01*
G37*
X77240000Y-67750000D02*
X76590000Y-67750000D01*
X76590000Y-67500000D01*
X77240000Y-67500000D01*
X77240000Y-67750000D01*
G36*
X77240000Y-67750000D02*
G01*
X76590000Y-67750000D01*
X76590000Y-67500000D01*
X77240000Y-67500000D01*
X77240000Y-67750000D01*
G37*
X77240000Y-68250000D02*
X76590000Y-68250000D01*
X76590000Y-68000000D01*
X77240000Y-68000000D01*
X77240000Y-68250000D01*
G36*
X77240000Y-68250000D02*
G01*
X76590000Y-68250000D01*
X76590000Y-68000000D01*
X77240000Y-68000000D01*
X77240000Y-68250000D01*
G37*
X77240000Y-68750000D02*
X76590000Y-68750000D01*
X76590000Y-68500000D01*
X77240000Y-68500000D01*
X77240000Y-68750000D01*
G36*
X77240000Y-68750000D02*
G01*
X76590000Y-68750000D01*
X76590000Y-68500000D01*
X77240000Y-68500000D01*
X77240000Y-68750000D01*
G37*
X77240000Y-69250000D02*
X76590000Y-69250000D01*
X76590000Y-69000000D01*
X77240000Y-69000000D01*
X77240000Y-69250000D01*
G36*
X77240000Y-69250000D02*
G01*
X76590000Y-69250000D01*
X76590000Y-69000000D01*
X77240000Y-69000000D01*
X77240000Y-69250000D01*
G37*
X77240000Y-69750000D02*
X76590000Y-69750000D01*
X76590000Y-69500000D01*
X77240000Y-69500000D01*
X77240000Y-69750000D01*
G36*
X77240000Y-69750000D02*
G01*
X76590000Y-69750000D01*
X76590000Y-69500000D01*
X77240000Y-69500000D01*
X77240000Y-69750000D01*
G37*
X77240000Y-70250000D02*
X76590000Y-70250000D01*
X76590000Y-70000000D01*
X77240000Y-70000000D01*
X77240000Y-70250000D01*
G36*
X77240000Y-70250000D02*
G01*
X76590000Y-70250000D01*
X76590000Y-70000000D01*
X77240000Y-70000000D01*
X77240000Y-70250000D01*
G37*
X77240000Y-70750000D02*
X76590000Y-70750000D01*
X76590000Y-70500000D01*
X77240000Y-70500000D01*
X77240000Y-70750000D01*
G36*
X77240000Y-70750000D02*
G01*
X76590000Y-70750000D01*
X76590000Y-70500000D01*
X77240000Y-70500000D01*
X77240000Y-70750000D01*
G37*
X77240000Y-71250000D02*
X76590000Y-71250000D01*
X76590000Y-71000000D01*
X77240000Y-71000000D01*
X77240000Y-71250000D01*
G36*
X77240000Y-71250000D02*
G01*
X76590000Y-71250000D01*
X76590000Y-71000000D01*
X77240000Y-71000000D01*
X77240000Y-71250000D01*
G37*
X77240000Y-71750000D02*
X76590000Y-71750000D01*
X76590000Y-71500000D01*
X77240000Y-71500000D01*
X77240000Y-71750000D01*
G36*
X77240000Y-71750000D02*
G01*
X76590000Y-71750000D01*
X76590000Y-71500000D01*
X77240000Y-71500000D01*
X77240000Y-71750000D01*
G37*
X77240000Y-72250000D02*
X76590000Y-72250000D01*
X76590000Y-72000000D01*
X77240000Y-72000000D01*
X77240000Y-72250000D01*
G36*
X77240000Y-72250000D02*
G01*
X76590000Y-72250000D01*
X76590000Y-72000000D01*
X77240000Y-72000000D01*
X77240000Y-72250000D01*
G37*
X77240000Y-72750000D02*
X76590000Y-72750000D01*
X76590000Y-72500000D01*
X77240000Y-72500000D01*
X77240000Y-72750000D01*
G36*
X77240000Y-72750000D02*
G01*
X76590000Y-72750000D01*
X76590000Y-72500000D01*
X77240000Y-72500000D01*
X77240000Y-72750000D01*
G37*
X77240000Y-73250000D02*
X76590000Y-73250000D01*
X76590000Y-73000000D01*
X77240000Y-73000000D01*
X77240000Y-73250000D01*
G36*
X77240000Y-73250000D02*
G01*
X76590000Y-73250000D01*
X76590000Y-73000000D01*
X77240000Y-73000000D01*
X77240000Y-73250000D01*
G37*
X77240000Y-73750000D02*
X76590000Y-73750000D01*
X76590000Y-73500000D01*
X77240000Y-73500000D01*
X77240000Y-73750000D01*
G36*
X77240000Y-73750000D02*
G01*
X76590000Y-73750000D01*
X76590000Y-73500000D01*
X77240000Y-73500000D01*
X77240000Y-73750000D01*
G37*
X77240000Y-74250000D02*
X76590000Y-74250000D01*
X76590000Y-74000000D01*
X77240000Y-74000000D01*
X77240000Y-74250000D01*
G36*
X77240000Y-74250000D02*
G01*
X76590000Y-74250000D01*
X76590000Y-74000000D01*
X77240000Y-74000000D01*
X77240000Y-74250000D01*
G37*
X77240000Y-74750000D02*
X76590000Y-74750000D01*
X76590000Y-74500000D01*
X77240000Y-74500000D01*
X77240000Y-74750000D01*
G36*
X77240000Y-74750000D02*
G01*
X76590000Y-74750000D01*
X76590000Y-74500000D01*
X77240000Y-74500000D01*
X77240000Y-74750000D01*
G37*
X77240000Y-75250000D02*
X76590000Y-75250000D01*
X76590000Y-75000000D01*
X77240000Y-75000000D01*
X77240000Y-75250000D01*
G36*
X77240000Y-75250000D02*
G01*
X76590000Y-75250000D01*
X76590000Y-75000000D01*
X77240000Y-75000000D01*
X77240000Y-75250000D01*
G37*
X77240000Y-75750000D02*
X76590000Y-75750000D01*
X76590000Y-75500000D01*
X77240000Y-75500000D01*
X77240000Y-75750000D01*
G36*
X77240000Y-75750000D02*
G01*
X76590000Y-75750000D01*
X76590000Y-75500000D01*
X77240000Y-75500000D01*
X77240000Y-75750000D01*
G37*
X77240000Y-76250000D02*
X76590000Y-76250000D01*
X76590000Y-76000000D01*
X77240000Y-76000000D01*
X77240000Y-76250000D01*
G36*
X77240000Y-76250000D02*
G01*
X76590000Y-76250000D01*
X76590000Y-76000000D01*
X77240000Y-76000000D01*
X77240000Y-76250000D01*
G37*
X77240000Y-76750000D02*
X76590000Y-76750000D01*
X76590000Y-76500000D01*
X77240000Y-76500000D01*
X77240000Y-76750000D01*
G36*
X77240000Y-76750000D02*
G01*
X76590000Y-76750000D01*
X76590000Y-76500000D01*
X77240000Y-76500000D01*
X77240000Y-76750000D01*
G37*
%TD*%
D11*
%TO.C,R15*%
X100930000Y-61375000D03*
X100930000Y-59725000D03*
%TD*%
D12*
%TO.C,D6*%
X126250000Y-70100000D03*
X126250000Y-67900000D03*
%TD*%
D13*
%TO.C,Q3*%
X62080000Y-62300000D03*
X62580000Y-62300000D03*
X63080000Y-62300000D03*
X63080000Y-60800000D03*
X62580000Y-60800000D03*
X62080000Y-60800000D03*
%TD*%
D12*
%TO.C,D9*%
X102657500Y-61627500D03*
X102657500Y-59427500D03*
%TD*%
D14*
%TO.C,C24*%
X80475000Y-67000000D03*
X78925000Y-67000000D03*
%TD*%
D15*
%TO.C,R6*%
X116210000Y-93300000D03*
X115190000Y-93300000D03*
%TD*%
D16*
%TO.C,C18*%
X71820000Y-62510000D03*
X70860000Y-62510000D03*
%TD*%
D17*
%TO.C,R12*%
X64190000Y-61810000D03*
X64190000Y-60790000D03*
%TD*%
D18*
%TO.C,C15*%
X72055000Y-88375000D03*
X72055000Y-90875000D03*
%TD*%
D19*
%TO.C,FB1*%
X66175000Y-59300000D03*
X64600000Y-59300000D03*
%TD*%
D20*
%TO.C,R2*%
X116180000Y-99800000D03*
X116180000Y-100820000D03*
%TD*%
D12*
%TO.C,D5*%
X66930000Y-83300000D03*
X66930000Y-81100000D03*
%TD*%
D21*
%TO.C,R10*%
X62170000Y-59300000D03*
X63190000Y-59300000D03*
%TD*%
D16*
%TO.C,C7*%
X73140000Y-80800000D03*
X72180000Y-80800000D03*
%TD*%
D22*
%TO.C,C3*%
X114910000Y-99830000D03*
X114910000Y-100790000D03*
%TD*%
%TO.C,C9*%
X68410000Y-89070000D03*
X68410000Y-90030000D03*
%TD*%
D15*
%TO.C,R1*%
X117200000Y-98570000D03*
X116180000Y-98570000D03*
%TD*%
D16*
%TO.C,C23*%
X79680000Y-69300000D03*
X78720000Y-69300000D03*
%TD*%
%TO.C,C17*%
X68560000Y-62700000D03*
X67600000Y-62700000D03*
%TD*%
D23*
%TO.C,C31*%
X101680000Y-66775000D03*
X101680000Y-63825000D03*
%TD*%
D20*
%TO.C,R3*%
X58330000Y-61040000D03*
X58330000Y-62060000D03*
%TD*%
D17*
%TO.C,R11*%
X60830000Y-62060000D03*
X60830000Y-61040000D03*
%TD*%
D24*
%TO.C,C6*%
X69950000Y-85550000D03*
X70910000Y-85550000D03*
%TD*%
D16*
%TO.C,C22*%
X80760000Y-70300000D03*
X79800000Y-70300000D03*
%TD*%
D18*
%TO.C,C12*%
X107180000Y-68875000D03*
X107180000Y-71375000D03*
%TD*%
D25*
%TO.C,J1*%
X51250000Y-68280000D03*
%TD*%
D16*
%TO.C,C27*%
X79680000Y-68300000D03*
X78720000Y-68300000D03*
%TD*%
D15*
%TO.C,R14*%
X116200000Y-91300000D03*
X115180000Y-91300000D03*
%TD*%
D26*
%TO.C,C2*%
X54800000Y-68800000D03*
X54800000Y-70350000D03*
%TD*%
D27*
%TO.C,R9*%
X75575000Y-58800000D03*
X77225000Y-58800000D03*
%TD*%
D28*
%TO.C,C4*%
X66655000Y-86050000D03*
X68205000Y-86050000D03*
%TD*%
D29*
%TO.C,J4*%
X74340000Y-64125000D03*
X74340000Y-77625000D03*
%TD*%
D18*
%TO.C,C13*%
X107180000Y-76875000D03*
X107180000Y-79375000D03*
%TD*%
D30*
%TO.C,D7*%
X66700000Y-78350000D03*
X66700000Y-79650000D03*
X68700000Y-79000000D03*
%TD*%
D31*
%TO.C,C16*%
X66200000Y-62350000D03*
X66200000Y-60800000D03*
%TD*%
D17*
%TO.C,R5*%
X126250000Y-72760000D03*
X126250000Y-71740000D03*
%TD*%
D16*
%TO.C,C5*%
X56670000Y-61020000D03*
X55710000Y-61020000D03*
%TD*%
D20*
%TO.C,R7*%
X75400000Y-60690000D03*
X75400000Y-61710000D03*
%TD*%
D32*
%TO.C,C14*%
X119255000Y-99675000D03*
X121755000Y-99675000D03*
%TD*%
D30*
%TO.C,Q2*%
X74100000Y-60700000D03*
X74100000Y-59400000D03*
X72100000Y-60050000D03*
%TD*%
D12*
%TO.C,D8*%
X77077500Y-62777500D03*
X77077500Y-60577500D03*
%TD*%
D20*
%TO.C,R4*%
X59580000Y-61050000D03*
X59580000Y-62070000D03*
%TD*%
D33*
%TO.C,U1*%
X69405000Y-82300000D03*
X69405000Y-83250000D03*
X69405000Y-84200000D03*
X71680000Y-84200000D03*
X71680000Y-83250000D03*
X71680000Y-82300000D03*
%TD*%
D24*
%TO.C,C19*%
X78720000Y-63100000D03*
X79680000Y-63100000D03*
%TD*%
D16*
%TO.C,C26*%
X79680000Y-62100000D03*
X78720000Y-62100000D03*
%TD*%
D14*
%TO.C,C28*%
X80205000Y-74050000D03*
X78655000Y-74050000D03*
%TD*%
D34*
%TO.C,L2*%
X68150000Y-60100000D03*
X70250000Y-60100000D03*
%TD*%
D26*
%TO.C,C1*%
X53200000Y-68800000D03*
X53200000Y-70350000D03*
%TD*%
D16*
%TO.C,C8*%
X102180000Y-73600000D03*
X101220000Y-73600000D03*
%TD*%
D14*
%TO.C,C11*%
X79480000Y-83550000D03*
X77930000Y-83550000D03*
%TD*%
D15*
%TO.C,R13*%
X116200000Y-89310000D03*
X115180000Y-89310000D03*
%TD*%
D24*
%TO.C,C20*%
X78720000Y-65700000D03*
X79680000Y-65700000D03*
%TD*%
D35*
%TO.C,D2*%
X60530000Y-59300000D03*
X58330000Y-59300000D03*
%TD*%
D36*
%TO.C,Q1*%
X101050000Y-72100000D03*
X102350000Y-72100000D03*
X101700000Y-70100000D03*
%TD*%
D14*
%TO.C,C25*%
X80475000Y-64400000D03*
X78925000Y-64400000D03*
%TD*%
D37*
%TO.C,J2*%
X51250000Y-71030000D03*
%TD*%
D38*
%TO.C,C29*%
X102500000Y-82480000D03*
X102500000Y-81520000D03*
%TD*%
D21*
%TO.C,R16*%
X55670000Y-62200000D03*
X56690000Y-62200000D03*
%TD*%
D23*
%TO.C,C30*%
X101680000Y-79525000D03*
X101680000Y-76575000D03*
%TD*%
D14*
%TO.C,C21*%
X80205000Y-75550000D03*
X78655000Y-75550000D03*
%TD*%
D21*
%TO.C,R8*%
X61570000Y-63550000D03*
X62590000Y-63550000D03*
%TD*%
D35*
%TO.C,D1*%
X56680000Y-59300000D03*
X54480000Y-59300000D03*
%TD*%
D18*
%TO.C,C10*%
X107180000Y-60875000D03*
X107180000Y-63375000D03*
%TD*%
D34*
%TO.C,L1*%
X73930000Y-83550000D03*
X76030000Y-83550000D03*
%TD*%
M02*
