%TF.GenerationSoftware,KiCad,Pcbnew,8.0.0-rc2-74-g5f063dd458*%
%TF.CreationDate,2024-01-29T02:36:54+02:00*%
%TF.ProjectId,SamoBase,53616d6f-4261-4736-952e-6b696361645f,rev?*%
%TF.SameCoordinates,Original*%
%TF.FileFunction,Profile,NP*%
%FSLAX46Y46*%
G04 Gerber Fmt 4.6, Leading zero omitted, Abs format (unit mm)*
G04 Created by KiCad (PCBNEW 8.0.0-rc2-74-g5f063dd458) date 2024-01-29 02:36:54*
%MOMM*%
%LPD*%
G01*
G04 APERTURE LIST*
%TA.AperFunction,Profile*%
%ADD10C,0.100000*%
%TD*%
%TA.AperFunction,Profile*%
%ADD11C,0.120000*%
%TD*%
G04 APERTURE END LIST*
D10*
X126600000Y-98000000D02*
G75*
G02*
X126600000Y-96000000I0J1000000D01*
G01*
X50000000Y-64000000D02*
X50000000Y-72500000D01*
X53880000Y-72500000D02*
X50000000Y-72500000D01*
X125500000Y-103000000D02*
X53000000Y-103000000D01*
X54680000Y-73300001D02*
X54680000Y-99200000D01*
X125500000Y-57000000D02*
G75*
G02*
X128500000Y-60000000I0J-3000000D01*
G01*
X53000000Y-57000000D02*
X125500000Y-57000000D01*
X50000000Y-60000000D02*
G75*
G02*
X53000000Y-57000000I3000000J0D01*
G01*
X53000000Y-103000000D02*
G75*
G02*
X50000000Y-100000000I0J3000000D01*
G01*
X51900000Y-62000000D02*
X50000000Y-62000000D01*
X53880000Y-72500000D02*
G75*
G02*
X54680000Y-73300000I0J-800000D01*
G01*
X126600000Y-96000000D02*
X128500000Y-96000000D01*
X126600000Y-98000000D02*
X128500000Y-98000000D01*
X51900000Y-62000000D02*
G75*
G02*
X51900000Y-64000000I0J-1000000D01*
G01*
X128500000Y-100000000D02*
X128500000Y-98000000D01*
X126600000Y-64000000D02*
X128500000Y-64000000D01*
X128500000Y-62000000D02*
X128500000Y-60000000D01*
X126600000Y-64000000D02*
G75*
G02*
X126600000Y-62000000I0J1000000D01*
G01*
X54680000Y-99200000D02*
G75*
G02*
X53880000Y-100000000I-800000J0D01*
G01*
X50000000Y-60000000D02*
X50000000Y-62000000D01*
X128500000Y-100000000D02*
G75*
G02*
X125500000Y-103000000I-3000000J0D01*
G01*
X50000000Y-100000000D02*
X53880000Y-100000000D01*
X51900000Y-64000000D02*
X50000000Y-64000000D01*
X126600000Y-62000000D02*
X128500000Y-62000000D01*
X128500000Y-96000000D02*
X128500000Y-64000000D01*
D11*
%TO.C,C15*%
X75555000Y-87175000D02*
X75555000Y-92075000D01*
X76055000Y-92575000D02*
X88055000Y-92575000D01*
X88055000Y-86675000D02*
X76055000Y-86675000D01*
X88555000Y-92075000D02*
X88555000Y-87175000D01*
X75555000Y-87175000D02*
G75*
G02*
X76055000Y-86675000I500000J0D01*
G01*
X76055000Y-92575000D02*
G75*
G02*
X75555000Y-92075000I0J500000D01*
G01*
X88055000Y-86675000D02*
G75*
G02*
X88555000Y-87175000I0J-500000D01*
G01*
X88555000Y-92075000D02*
G75*
G02*
X88055000Y-92575000I-500000J0D01*
G01*
%TO.C,C12*%
X110680000Y-67675000D02*
X110680000Y-72575000D01*
X111180000Y-73075000D02*
X123180000Y-73075000D01*
X123180000Y-67175000D02*
X111180000Y-67175000D01*
X123680000Y-72575000D02*
X123680000Y-67675000D01*
X110680000Y-67675000D02*
G75*
G02*
X111180000Y-67175000I500000J0D01*
G01*
X111180000Y-73075000D02*
G75*
G02*
X110680000Y-72575000I0J500000D01*
G01*
X123180000Y-67175000D02*
G75*
G02*
X123680000Y-67675000I0J-500000D01*
G01*
X123680000Y-72575000D02*
G75*
G02*
X123180000Y-73075000I-500000J0D01*
G01*
%TO.C,C13*%
X110680000Y-75675000D02*
X110680000Y-80575000D01*
X111180000Y-81075000D02*
X123180000Y-81075000D01*
X123180000Y-75175000D02*
X111180000Y-75175000D01*
X123680000Y-80575000D02*
X123680000Y-75675000D01*
X110680000Y-75675000D02*
G75*
G02*
X111180000Y-75175000I500000J0D01*
G01*
X111180000Y-81075000D02*
G75*
G02*
X110680000Y-80575000I0J500000D01*
G01*
X123180000Y-75175000D02*
G75*
G02*
X123680000Y-75675000I0J-500000D01*
G01*
X123680000Y-80575000D02*
G75*
G02*
X123180000Y-81075000I-500000J0D01*
G01*
%TO.C,C14*%
X117555000Y-83675000D02*
X117555000Y-95675000D01*
X118055000Y-96175000D02*
X122955000Y-96175000D01*
X122955000Y-83175000D02*
X118055000Y-83175000D01*
X123455000Y-95675000D02*
X123455000Y-83675000D01*
X117555000Y-83675000D02*
G75*
G02*
X118055000Y-83175000I500000J0D01*
G01*
X118055000Y-96175000D02*
G75*
G02*
X117555000Y-95675000I0J500000D01*
G01*
X122955000Y-83175000D02*
G75*
G02*
X123455000Y-83675000I0J-500000D01*
G01*
X123455000Y-95675000D02*
G75*
G02*
X122955000Y-96175000I-500000J0D01*
G01*
%TO.C,C10*%
X110680000Y-59675000D02*
X110680000Y-64575000D01*
X111180000Y-65075000D02*
X123180000Y-65075000D01*
X123180000Y-59175000D02*
X111180000Y-59175000D01*
X123680000Y-64575000D02*
X123680000Y-59675000D01*
X110680000Y-59675000D02*
G75*
G02*
X111180000Y-59175000I500000J0D01*
G01*
X111180000Y-65075000D02*
G75*
G02*
X110680000Y-64575000I0J500000D01*
G01*
X123180000Y-59175000D02*
G75*
G02*
X123680000Y-59675000I0J-500000D01*
G01*
X123680000Y-64575000D02*
G75*
G02*
X123180000Y-65075000I-500000J0D01*
G01*
%TD*%
M02*
