%TF.GenerationSoftware,KiCad,Pcbnew,8.0.0-rc2-74-g5f063dd458*%
%TF.CreationDate,2024-01-29T02:36:54+02:00*%
%TF.ProjectId,SamoBase,53616d6f-4261-4736-952e-6b696361645f,rev?*%
%TF.SameCoordinates,Original*%
%TF.FileFunction,Copper,L2,Bot*%
%TF.FilePolarity,Positive*%
%FSLAX46Y46*%
G04 Gerber Fmt 4.6, Leading zero omitted, Abs format (unit mm)*
G04 Created by KiCad (PCBNEW 8.0.0-rc2-74-g5f063dd458) date 2024-01-29 02:36:54*
%MOMM*%
%LPD*%
G01*
G04 APERTURE LIST*
%TA.AperFunction,ComponentPad*%
%ADD10R,1.400000X1.100000*%
%TD*%
%TA.AperFunction,ComponentPad*%
%ADD11O,1.400000X1.100000*%
%TD*%
%TA.AperFunction,SMDPad,CuDef*%
%ADD12R,0.600000X0.600000*%
%TD*%
%TA.AperFunction,ViaPad*%
%ADD13C,0.550000*%
%TD*%
%TA.AperFunction,Conductor*%
%ADD14C,0.125000*%
%TD*%
%TA.AperFunction,Conductor*%
%ADD15C,0.500000*%
%TD*%
%TA.AperFunction,Conductor*%
%ADD16C,0.250000*%
%TD*%
%TA.AperFunction,Conductor*%
%ADD17C,0.400000*%
%TD*%
G04 APERTURE END LIST*
D10*
%TO.P,J6,1,Pin_1*%
%TO.N,+3.3*%
X126125000Y-75625001D03*
D11*
%TO.P,J6,2,Pin_2*%
%TO.N,/RX*%
X125900000Y-76880001D03*
%TO.P,J6,3,Pin_3*%
%TO.N,/TX*%
X126125000Y-78165001D03*
%TO.P,J6,4,Pin_4*%
%TO.N,GND*%
X125900000Y-79420001D03*
%TO.P,J6,5,Pin_5*%
%TO.N,/SWDIO*%
X126125000Y-80705001D03*
%TO.P,J6,6,Pin_6*%
%TO.N,/USB_P*%
X125900000Y-81960001D03*
%TO.P,J6,7,Pin_7*%
%TO.N,/SWDCK*%
X126125000Y-83245001D03*
%TO.P,J6,8,Pin_8*%
%TO.N,/RES*%
X125900000Y-84500001D03*
%TD*%
D12*
%TO.P,D4,1,A1*%
%TO.N,Net-(D2-K)*%
X126850000Y-70020002D03*
%TO.P,D4,2,K1*%
%TO.N,/HV*%
X126850000Y-71420002D03*
%TO.P,D4,3,A2*%
%TO.N,Net-(D3-A2)*%
X127700000Y-70020002D03*
%TO.P,D4,4,K2*%
%TO.N,/HV*%
X127700000Y-71420002D03*
%TD*%
D13*
%TO.N,/IN_DT*%
X58480000Y-84000000D03*
X114280000Y-87300000D03*
%TO.N,GND*%
X71330000Y-68190000D03*
X57249998Y-86529999D03*
X125374998Y-58004999D03*
X116575000Y-82000000D03*
X55349998Y-101129999D03*
X66574998Y-65379999D03*
X127400000Y-82450000D03*
X57449998Y-60529999D03*
X68274998Y-72804999D03*
X115790000Y-83020000D03*
X80880000Y-100850000D03*
X88900000Y-74160000D03*
X81130000Y-84550000D03*
X126050000Y-86125000D03*
X109780000Y-70990000D03*
X107899998Y-94304999D03*
X57649998Y-98429999D03*
X71320000Y-70160000D03*
X93200000Y-99340000D03*
X89170000Y-101770000D03*
X85999998Y-79904999D03*
X58749998Y-81829999D03*
X58724998Y-83054999D03*
X109860000Y-62420000D03*
X73149998Y-93629999D03*
X62949998Y-85029999D03*
X106825000Y-59375000D03*
X117125000Y-97500000D03*
X67830000Y-78210000D03*
X99775000Y-62500000D03*
X59890000Y-65000000D03*
X74865002Y-78329999D03*
X60080000Y-86430000D03*
X55649998Y-79729999D03*
X80524998Y-60954999D03*
X78710000Y-77890000D03*
X93574998Y-83204999D03*
X70490000Y-96710000D03*
X123599998Y-101829999D03*
X71300000Y-79960000D03*
X52449998Y-60929999D03*
X72200000Y-85470000D03*
X92690000Y-78030000D03*
X72060000Y-86750000D03*
X103500000Y-70500000D03*
X117375000Y-100150000D03*
X69730000Y-62680000D03*
X78680000Y-93580000D03*
X120324998Y-97529999D03*
X66549998Y-92029999D03*
X74710000Y-87590000D03*
X68640000Y-80230000D03*
X127249998Y-65154999D03*
X53749998Y-62929999D03*
X105825000Y-97225000D03*
X91460000Y-71790000D03*
X91770000Y-90100000D03*
X64980000Y-76320000D03*
X78060000Y-96750000D03*
X73200000Y-78510000D03*
X60050000Y-70060000D03*
X87240000Y-98790000D03*
X91599998Y-87279999D03*
X77540000Y-85560000D03*
X58899998Y-68754999D03*
X51649998Y-65729999D03*
X67730000Y-101490000D03*
X78610000Y-81470000D03*
X86450000Y-71870000D03*
X52469998Y-66729999D03*
X74249998Y-62129999D03*
X57430000Y-81870000D03*
X73730000Y-96750000D03*
X52049998Y-59229999D03*
X83899998Y-93629999D03*
X93549998Y-86854999D03*
X116824998Y-96304999D03*
X74540000Y-71050000D03*
X89899998Y-89754999D03*
X109980000Y-90670000D03*
X54019998Y-70349999D03*
X104490000Y-93760000D03*
X127674998Y-72404999D03*
X115030000Y-82120000D03*
X71970000Y-100940000D03*
X96699998Y-86929999D03*
X107900000Y-89730000D03*
X50769998Y-64749997D03*
X62549998Y-79229999D03*
X76810000Y-77430000D03*
X110090000Y-81870000D03*
X53949998Y-65829999D03*
X62490000Y-80910000D03*
X55649998Y-82129999D03*
X86530000Y-74460000D03*
X57049998Y-58029999D03*
X124850000Y-101680000D03*
X62549998Y-76629999D03*
X64449998Y-90029999D03*
X53979998Y-71559999D03*
X104720000Y-59480000D03*
X109520000Y-80920000D03*
X80749998Y-93629999D03*
X95440000Y-83000000D03*
X63400000Y-64500000D03*
X56449998Y-97729999D03*
X125574998Y-64654999D03*
X106190000Y-88180000D03*
X89424998Y-91804999D03*
X84510000Y-81730000D03*
X107580000Y-102060000D03*
X70250000Y-78480000D03*
X97520000Y-95880000D03*
X97000000Y-92900000D03*
X105175000Y-72975000D03*
X106030000Y-67390000D03*
X91660000Y-99210000D03*
X51249998Y-71029999D03*
X62550000Y-72520000D03*
X61570000Y-86490000D03*
X53749998Y-61929999D03*
X75760000Y-74180000D03*
X54789998Y-71219999D03*
X71199998Y-65404999D03*
X66210000Y-63690000D03*
X55649998Y-76429999D03*
X125974998Y-60729999D03*
X111075000Y-88200000D03*
X84470000Y-72400000D03*
X67949998Y-93629999D03*
X57520000Y-64720000D03*
X109775000Y-77375000D03*
X60149998Y-101629999D03*
X124674998Y-100104999D03*
X66549998Y-89929999D03*
X103225000Y-73750000D03*
X51649998Y-64729999D03*
X62530000Y-68380000D03*
X99330000Y-65230000D03*
X67300000Y-87340000D03*
X57490000Y-67040000D03*
X78024998Y-60054999D03*
X84930000Y-84580000D03*
X80070000Y-79400000D03*
X81549998Y-98829999D03*
X109750000Y-76370000D03*
X115300000Y-98950000D03*
X93750000Y-94540000D03*
X113180000Y-84510000D03*
X67449998Y-98429999D03*
X51549998Y-60429999D03*
X86274998Y-78329999D03*
X64643008Y-86926992D03*
X103980000Y-87750000D03*
X74580000Y-74070000D03*
X81800000Y-101270000D03*
X74224998Y-58579999D03*
X77749998Y-61754999D03*
X125975000Y-89025000D03*
X95330000Y-79980000D03*
X82500000Y-82710000D03*
X57949998Y-96429999D03*
X56449998Y-99329999D03*
X69050000Y-85160000D03*
X74299998Y-64979999D03*
X99225000Y-92825000D03*
X74500000Y-68080000D03*
X106050000Y-93040000D03*
X53949998Y-67829999D03*
X53199998Y-71249999D03*
X80949998Y-96829999D03*
X53449998Y-61029999D03*
X77260000Y-79370000D03*
X97370000Y-61940000D03*
X56149998Y-87429999D03*
X108660000Y-75290000D03*
X59480000Y-59880000D03*
X52499998Y-65729999D03*
X79349998Y-60479999D03*
X109850000Y-72740000D03*
X109370000Y-87820000D03*
X72200000Y-61530000D03*
X127350000Y-87000000D03*
X111150000Y-94250000D03*
X75749998Y-95029999D03*
X55649998Y-77529999D03*
X89924998Y-87804999D03*
X69349998Y-65654999D03*
X67420000Y-82020000D03*
X58249998Y-93929999D03*
X55549998Y-73029999D03*
X60449998Y-90529999D03*
X92249998Y-94754999D03*
X109680000Y-69180000D03*
X113924998Y-96304999D03*
X51649998Y-66729999D03*
X71330000Y-71450000D03*
X51749998Y-71529999D03*
X93610000Y-89400000D03*
X54749998Y-66929999D03*
X64424998Y-73104999D03*
X115250000Y-97500000D03*
X50749998Y-66729999D03*
X51749998Y-70529999D03*
X55649998Y-83529999D03*
X56890000Y-83470000D03*
X110750000Y-96200000D03*
X107475000Y-84150000D03*
X106949998Y-96129999D03*
X57480000Y-79740000D03*
X103425000Y-68275000D03*
X65249998Y-99229999D03*
X58649998Y-88429999D03*
X72130000Y-76430000D03*
X55349998Y-65929999D03*
X126340000Y-101100000D03*
X109290000Y-65380000D03*
X58999998Y-65204999D03*
X55349998Y-63129999D03*
X90760000Y-101410000D03*
X112125000Y-81875000D03*
X91649998Y-85379999D03*
X107975000Y-91500000D03*
X104210000Y-82770000D03*
X127120000Y-90420000D03*
X63653008Y-85846992D03*
X74770000Y-72670000D03*
X102440000Y-60560000D03*
X57480000Y-69440000D03*
X95449998Y-97104999D03*
X105240000Y-64910000D03*
X105130000Y-61970000D03*
X57480000Y-61590000D03*
X101150000Y-87475000D03*
X103350000Y-83750000D03*
X71330000Y-74090000D03*
X72620000Y-77760000D03*
X69560000Y-89330000D03*
X60080000Y-67350000D03*
X93590000Y-97190000D03*
X87390000Y-85600000D03*
X85274998Y-101654999D03*
X58324998Y-80629999D03*
X78724998Y-61004999D03*
X101899998Y-97279999D03*
X104540000Y-96450000D03*
X58874998Y-77279999D03*
X76649998Y-93629999D03*
X92300000Y-91225000D03*
X64680000Y-74550000D03*
X57460000Y-75030000D03*
X75649998Y-98829999D03*
X82930000Y-84470000D03*
X55149998Y-58129999D03*
X106575000Y-81875000D03*
X102600000Y-74850000D03*
X71274998Y-63704999D03*
X73149998Y-59129999D03*
X68850000Y-67840000D03*
X89149998Y-81554999D03*
X64274998Y-69704999D03*
X71320000Y-67300000D03*
X100150000Y-70375000D03*
X57749998Y-101629999D03*
X92600000Y-76020000D03*
X55349998Y-59629999D03*
X103475000Y-75325000D03*
X89140000Y-83080000D03*
X90549998Y-92804999D03*
X58899998Y-73954999D03*
X105250000Y-74450000D03*
X68670000Y-77360000D03*
X92199998Y-101379999D03*
X53549998Y-63829999D03*
X100520000Y-93240000D03*
X106200000Y-90475000D03*
X57849998Y-90429999D03*
X91125000Y-96050000D03*
X69540000Y-86810000D03*
X105660000Y-80920000D03*
X78749998Y-95029999D03*
X110110000Y-94440000D03*
X109820000Y-59750000D03*
X79474998Y-59229999D03*
X80474998Y-63154999D03*
X74250000Y-76050000D03*
X63849998Y-83629999D03*
X78940000Y-99190000D03*
X113974998Y-92304999D03*
X67890000Y-65450000D03*
X60149998Y-83629999D03*
X67070000Y-72120000D03*
X63849998Y-99729999D03*
X103950000Y-78370000D03*
X106250000Y-75480000D03*
X53049998Y-58229999D03*
X69549998Y-70354999D03*
X103375000Y-86925000D03*
X91149998Y-89004999D03*
X56749998Y-91729999D03*
X64249998Y-94329999D03*
X108325000Y-81850000D03*
X92210000Y-79930000D03*
X76680000Y-100580000D03*
X56749998Y-93529999D03*
X59049998Y-90929999D03*
X82480000Y-74740000D03*
X109650000Y-61175000D03*
X56649998Y-84829999D03*
X55649998Y-73929999D03*
X79420000Y-100610000D03*
X50749998Y-65729999D03*
X50749998Y-70529999D03*
X54940000Y-65040000D03*
X74864999Y-63430002D03*
X125949998Y-68879999D03*
X95880000Y-69160000D03*
X83999998Y-95029999D03*
X99425000Y-72275000D03*
X55860000Y-78510000D03*
X102780000Y-95380000D03*
X74630000Y-67250000D03*
X109650000Y-75250000D03*
X114199998Y-90304999D03*
X63449998Y-82629999D03*
X125875000Y-92400000D03*
X60050000Y-80000000D03*
X103850000Y-81270000D03*
X66449998Y-75104999D03*
X84340000Y-77200000D03*
X123162498Y-97554999D03*
X78474998Y-58704999D03*
X62849998Y-101829999D03*
X123725000Y-65650000D03*
X127224998Y-60554999D03*
X109850000Y-64390000D03*
X125449998Y-98829999D03*
X80574998Y-59954999D03*
X106780000Y-73040000D03*
X107475000Y-86625000D03*
X127299998Y-73704999D03*
X71080000Y-93620000D03*
X76710000Y-61530000D03*
X84474998Y-98854999D03*
X74780000Y-80930000D03*
X53249998Y-59829999D03*
X60149998Y-78529999D03*
X63520000Y-63250000D03*
X109475000Y-84050000D03*
X113740000Y-100142499D03*
X62574998Y-70754999D03*
X70330000Y-75680000D03*
X117429331Y-102142499D03*
X92280000Y-97880000D03*
X58924998Y-79329999D03*
X71320000Y-72670000D03*
X70949998Y-97629999D03*
X105700000Y-86800000D03*
X55750000Y-85880000D03*
X67949998Y-91129999D03*
X66049998Y-97129999D03*
X58849998Y-89629999D03*
X68549998Y-95029999D03*
X118175000Y-97475000D03*
X95374998Y-86829999D03*
X112175000Y-98600000D03*
X50749998Y-71529999D03*
X88630000Y-72130000D03*
X127450000Y-94300000D03*
X55349998Y-64029999D03*
X105180000Y-67720000D03*
X100900000Y-95730000D03*
X106580000Y-65450000D03*
X62549998Y-77829999D03*
X65710000Y-80870000D03*
X124380000Y-76129999D03*
X126340000Y-99670000D03*
X89924998Y-85704999D03*
X124424998Y-74854999D03*
X109475000Y-86675000D03*
X95340000Y-95340000D03*
X64224998Y-67629999D03*
X125975000Y-94950000D03*
X68674998Y-96429999D03*
X110774998Y-92304999D03*
X55249998Y-67829999D03*
X57510000Y-72330000D03*
X89270000Y-77290000D03*
X75130000Y-70320000D03*
X83974998Y-96729999D03*
X125249998Y-72704999D03*
X71550000Y-60880000D03*
X97324998Y-97154999D03*
X53949998Y-66829999D03*
X86760000Y-82810000D03*
X64049998Y-98129999D03*
X80749998Y-58654999D03*
X62574998Y-65979999D03*
X64349998Y-80529999D03*
X99449998Y-97279999D03*
X56649998Y-89329999D03*
X94125000Y-92900000D03*
X100575000Y-68425000D03*
X69910000Y-63860000D03*
X105130000Y-69920000D03*
X109580000Y-67450000D03*
X102220000Y-89050000D03*
X99450000Y-59400000D03*
X95810000Y-76060000D03*
X72880000Y-75050000D03*
X114124998Y-88304999D03*
X55649998Y-81029999D03*
X96650000Y-67250000D03*
X109890000Y-79390000D03*
X62674998Y-88254999D03*
X68649998Y-98829999D03*
X52549998Y-64729999D03*
X63949998Y-95429999D03*
X87540000Y-96760000D03*
X80449998Y-65679999D03*
X110749998Y-89204999D03*
X92950000Y-90550000D03*
X91690000Y-83170000D03*
X55649998Y-75129999D03*
X72049998Y-58804999D03*
X72749998Y-95029999D03*
X56649998Y-95629999D03*
X60099998Y-75504999D03*
X111800000Y-84925000D03*
X125199998Y-71079999D03*
X112924998Y-102179999D03*
X57490000Y-77240000D03*
X59690000Y-63300000D03*
X75720000Y-67540000D03*
X72449998Y-98729999D03*
X67320000Y-89260000D03*
X58899998Y-71904999D03*
X114175000Y-98625000D03*
X81649998Y-95029999D03*
X88874998Y-93779999D03*
X108710000Y-96450000D03*
X57490000Y-63050000D03*
X68949998Y-92029999D03*
X54549998Y-57729999D03*
X63680000Y-101050000D03*
X73910000Y-102110000D03*
X70620000Y-81280000D03*
X66624998Y-70754999D03*
X95520000Y-94130000D03*
X99375000Y-67850000D03*
X95600000Y-78890000D03*
X75740000Y-76910000D03*
X105700000Y-83925000D03*
%TO.N,/HV*%
X56680000Y-60090000D03*
X61560000Y-84849996D03*
X117650000Y-99420000D03*
X113980000Y-82800000D03*
X81680000Y-69190000D03*
X107260000Y-75340000D03*
%TO.N,/MCU_OK*%
X113980000Y-93300000D03*
X101480000Y-74600000D03*
%TO.N,+3.3*%
X114180000Y-85700000D03*
X102467500Y-83700000D03*
X72520000Y-79270000D03*
X77060000Y-83550000D03*
X95980000Y-88700000D03*
X79080000Y-70300000D03*
X105280000Y-75500000D03*
X68200000Y-74950000D03*
%TO.N,/PREVGL*%
X75810000Y-65810000D03*
X70990000Y-66390000D03*
%TO.N,Net-(D2-K)*%
X126170000Y-66545550D03*
%TO.N,Net-(D3-A2)*%
X126040000Y-65300000D03*
%TO.N,Net-(D6-A)*%
X125380000Y-67500000D03*
X101680000Y-69100000D03*
%TO.N,/E_RES*%
X75614994Y-72124997D03*
X62305000Y-59881992D03*
%TO.N,/RESE*%
X73050000Y-60960000D03*
X74915000Y-59165000D03*
%TO.N,/GDR*%
X75080010Y-74930010D03*
X75080006Y-76200006D03*
%TO.N,/SDA*%
X90280000Y-96300000D03*
X96780000Y-92100000D03*
%TO.N,/SCL*%
X91880000Y-96500000D03*
X113980000Y-91300000D03*
%TO.N,/T_RES*%
X65780000Y-90400000D03*
X63280000Y-66800000D03*
%TO.N,/RES*%
X94480000Y-100700000D03*
%TO.N,/RES_TC*%
X94380000Y-90000000D03*
X60664188Y-60360954D03*
%TO.N,/TX*%
X96380000Y-95600000D03*
X95080000Y-72000000D03*
X96474998Y-100604999D03*
%TO.N,/SWDCK*%
X99570000Y-75300000D03*
X110480000Y-97100000D03*
%TO.N,/RX*%
X98424998Y-100529999D03*
X98580000Y-96900000D03*
X99380000Y-69300000D03*
%TO.N,/SWDIO*%
X99580000Y-73300000D03*
X113880000Y-95400000D03*
%TO.N,/RES_D*%
X95730000Y-91070000D03*
X59479997Y-66200003D03*
%TD*%
D14*
%TO.N,/IN_DT*%
X58480000Y-86556574D02*
X58480000Y-84000000D01*
X114280000Y-87300000D02*
X114354214Y-87374214D01*
X114940000Y-88788427D02*
X114940000Y-96221573D01*
X114354213Y-97635787D02*
X112575786Y-99414214D01*
X70509212Y-99414213D02*
X59065786Y-87970787D01*
X111161573Y-100000000D02*
X71923426Y-100000000D01*
X59065786Y-87970787D02*
G75*
G02*
X58480019Y-86556574I1414214J1414187D01*
G01*
X112575785Y-99414213D02*
G75*
G02*
X111161573Y-99999980I-1414185J1414213D01*
G01*
X114354213Y-87374215D02*
G75*
G02*
X114939980Y-88788427I-1414213J-1414185D01*
G01*
X114354212Y-97635786D02*
G75*
G03*
X114939980Y-96221573I-1414212J1414186D01*
G01*
X70509212Y-99414213D02*
G75*
G03*
X71923426Y-99999981I1414188J1414213D01*
G01*
D15*
%TO.N,/HV*%
X59018427Y-58580000D02*
X61530000Y-58580000D01*
X63115787Y-59165787D02*
X63964214Y-60014214D01*
X61530000Y-58580000D02*
X61530000Y-84819996D01*
X69418427Y-69190000D02*
X81680000Y-69190000D01*
X61530000Y-84819996D02*
X61560000Y-84849996D01*
X56680000Y-60090000D02*
X57604214Y-59165786D01*
X116665787Y-98435787D02*
X117650000Y-99420000D01*
D16*
X126850000Y-71420002D02*
X126850000Y-72191573D01*
X127700000Y-71420002D02*
X126850000Y-71420002D01*
D15*
X65135787Y-65735787D02*
X68004214Y-68604214D01*
X116080000Y-85728427D02*
X116080000Y-97021573D01*
X61530000Y-58580000D02*
X61701573Y-58580000D01*
D16*
X107894213Y-74705787D02*
X107260000Y-75340000D01*
D15*
X64550000Y-61428427D02*
X64550000Y-64321573D01*
D16*
X125335786Y-74120000D02*
X109308427Y-74120000D01*
D15*
X113980000Y-82800000D02*
X115494214Y-84314214D01*
D16*
X126264213Y-73605787D02*
X126042893Y-73827107D01*
D15*
X68004215Y-68604213D02*
G75*
G03*
X69418427Y-69189980I1414185J1414213D01*
G01*
X64550000Y-61428427D02*
G75*
G03*
X63964228Y-60014200I-2000000J27D01*
G01*
X65135788Y-65735786D02*
G75*
G02*
X64550020Y-64321573I1414212J1414186D01*
G01*
D16*
X126850000Y-72191573D02*
G75*
G02*
X126264227Y-73605801I-2000000J-27D01*
G01*
D15*
X116665788Y-98435786D02*
G75*
G02*
X116080020Y-97021573I1414212J1414186D01*
G01*
X61701573Y-58580000D02*
G75*
G02*
X63115801Y-59165773I27J-2000000D01*
G01*
X59018427Y-58580000D02*
G75*
G03*
X57604200Y-59165772I-27J-2000000D01*
G01*
D16*
X126042893Y-73827107D02*
G75*
G02*
X125335786Y-74119990I-707093J707107D01*
G01*
X109308427Y-74120000D02*
G75*
G03*
X107894199Y-74705773I-27J-2000000D01*
G01*
D15*
X116080000Y-85728427D02*
G75*
G03*
X115494228Y-84314200I-2000000J27D01*
G01*
D14*
%TO.N,/MCU_OK*%
X108415535Y-93300000D02*
X113980000Y-93300000D01*
X101480000Y-74600000D02*
X101480000Y-86364465D01*
X102065787Y-87778679D02*
X107001322Y-92714214D01*
X102065787Y-87778679D02*
G75*
G02*
X101480025Y-86364465I1414213J1414179D01*
G01*
X107001322Y-92714214D02*
G75*
G03*
X108415535Y-93299975I1414178J1414214D01*
G01*
D16*
%TO.N,+3.3*%
X75251573Y-73300000D02*
X70678427Y-73300000D01*
X92708427Y-88700000D02*
X95980000Y-88700000D01*
D17*
X75155787Y-79855787D02*
X76474214Y-81174214D01*
X72520000Y-79270000D02*
X73741573Y-79270000D01*
D16*
X69264213Y-73885787D02*
X68200000Y-74950000D01*
X77060000Y-83550000D02*
X85901573Y-83550000D01*
X87315787Y-84135787D02*
X91294214Y-88114214D01*
X102467500Y-79140927D02*
X102467500Y-83700000D01*
D17*
X77060000Y-82588427D02*
X77060000Y-83550000D01*
D16*
X103194213Y-85114213D02*
X102467500Y-84387500D01*
X114180000Y-85700000D02*
X104608427Y-85700000D01*
X105280000Y-75500000D02*
X103053286Y-77726714D01*
X102467500Y-84387500D02*
X102467500Y-83700000D01*
D17*
X68200000Y-74950000D02*
X72520000Y-79270000D01*
D16*
X79080000Y-70300000D02*
X76665786Y-72714214D01*
D17*
X76474213Y-81174215D02*
G75*
G02*
X77059980Y-82588427I-1414213J-1414185D01*
G01*
D16*
X104608427Y-85700000D02*
G75*
G02*
X103194199Y-85114227I-27J2000000D01*
G01*
X91294215Y-88114213D02*
G75*
G03*
X92708427Y-88699980I1414185J1414213D01*
G01*
X70678427Y-73300000D02*
G75*
G03*
X69264199Y-73885773I-27J-2000000D01*
G01*
X87315786Y-84135788D02*
G75*
G03*
X85901573Y-83550020I-1414186J-1414212D01*
G01*
D17*
X75155786Y-79855788D02*
G75*
G03*
X73741573Y-79270020I-1414186J-1414212D01*
G01*
D16*
X102467500Y-79140927D02*
G75*
G02*
X103053272Y-77726700I2000000J27D01*
G01*
X75251573Y-73300000D02*
G75*
G03*
X76665800Y-72714228I27J2000000D01*
G01*
D14*
%TO.N,/PREVGL*%
X70990000Y-66390000D02*
X75810000Y-65810000D01*
D16*
%TO.N,Net-(D2-K)*%
X126850000Y-70020002D02*
X126850000Y-68053977D01*
X126264213Y-66639763D02*
X126170000Y-66545550D01*
X126850000Y-68053977D02*
G75*
G03*
X126264202Y-66639774I-2000000J-23D01*
G01*
%TO.N,Net-(D3-A2)*%
X127114213Y-66374213D02*
X126040000Y-65300000D01*
X127700000Y-70020002D02*
X127700000Y-67788427D01*
X127700000Y-67788427D02*
G75*
G03*
X127114227Y-66374199I-2000000J27D01*
G01*
D14*
%TO.N,Net-(D6-A)*%
X125380000Y-67200000D02*
X125380000Y-67500000D01*
X101680000Y-69100000D02*
X103994214Y-66785786D01*
X124965787Y-66785787D02*
X125380000Y-67200000D01*
X105408427Y-66200000D02*
X123551573Y-66200000D01*
X124965786Y-66785788D02*
G75*
G03*
X123551573Y-66200020I-1414186J-1414212D01*
G01*
X103994215Y-66785787D02*
G75*
G02*
X105408427Y-66200020I1414185J-1414213D01*
G01*
%TO.N,/E_RES*%
X70693424Y-72124997D02*
X75614994Y-72124997D01*
X62890787Y-65150787D02*
X69279211Y-71539211D01*
X62305000Y-59881992D02*
X62305000Y-63736573D01*
X62305000Y-63736573D02*
G75*
G03*
X62890773Y-65150801I2000000J-27D01*
G01*
X69279212Y-71539210D02*
G75*
G03*
X70693424Y-72124980I1414188J1414210D01*
G01*
%TO.N,/RESE*%
X73120000Y-60960000D02*
X73050000Y-60960000D01*
X74915000Y-59165000D02*
X73120000Y-60960000D01*
%TO.N,/GDR*%
X75080006Y-74930014D02*
X75080010Y-74930010D01*
X75080006Y-76200006D02*
X75080006Y-74930014D01*
%TO.N,/SDA*%
X94798427Y-92100000D02*
X96780000Y-92100000D01*
X90572893Y-95497107D02*
X93384214Y-92685786D01*
X90280000Y-96300000D02*
X90280000Y-96204214D01*
X93384215Y-92685787D02*
G75*
G02*
X94798427Y-92100020I1414185J-1414213D01*
G01*
X90280000Y-96204214D02*
G75*
G02*
X90572886Y-95497100I1000000J14D01*
G01*
%TO.N,/SCL*%
X114567500Y-95784073D02*
X114567500Y-92715927D01*
X113981713Y-91301713D02*
X113980000Y-91300000D01*
X113865787Y-97314213D02*
X113981714Y-97198286D01*
X94108427Y-97900000D02*
X112451573Y-97900000D01*
X91880000Y-96500000D02*
X92694214Y-97314214D01*
X114567500Y-95784073D02*
G75*
G02*
X113981728Y-97198300I-2000000J-27D01*
G01*
X114567500Y-92715927D02*
G75*
G03*
X113981727Y-91301699I-2000000J27D01*
G01*
X113865786Y-97314212D02*
G75*
G02*
X112451573Y-97899980I-1414186J1414212D01*
G01*
X94108427Y-97900000D02*
G75*
G02*
X92694200Y-97314228I-27J2000000D01*
G01*
%TO.N,/T_RES*%
X63300000Y-80795786D02*
X63300000Y-66820000D01*
X62380000Y-86171573D02*
X62380000Y-82958427D01*
X62965787Y-81544213D02*
X63007107Y-81502893D01*
X65780000Y-90400000D02*
X62965786Y-87585786D01*
X63300000Y-66820000D02*
X63280000Y-66800000D01*
X62380000Y-82958427D02*
G75*
G02*
X62965773Y-81544199I2000000J27D01*
G01*
X62380000Y-86171573D02*
G75*
G03*
X62965772Y-87585800I2000000J-27D01*
G01*
X63007107Y-81502893D02*
G75*
G03*
X63299990Y-80795786I-707107J707093D01*
G01*
%TO.N,/RES*%
X124961411Y-97469425D02*
X124961411Y-86134084D01*
X96092855Y-101379999D02*
X120852827Y-101379999D01*
X125453199Y-84946802D02*
X125900000Y-84500001D01*
X94480000Y-100700000D02*
X94500370Y-100720370D01*
X122288098Y-100785490D02*
X124506917Y-98566671D01*
X94500370Y-100720370D02*
G75*
G03*
X96092855Y-101380035I1592530J1592470D01*
G01*
X124961411Y-86134084D02*
G75*
G02*
X125453203Y-84946806I1679089J-16D01*
G01*
X120852827Y-101379999D02*
G75*
G03*
X122288089Y-100785481I-27J2029799D01*
G01*
X124961411Y-97469425D02*
G75*
G02*
X124506898Y-98566652I-1551711J25D01*
G01*
%TO.N,/RES_TC*%
X94380000Y-90000000D02*
X90565786Y-93814214D01*
X60750000Y-60446766D02*
X60664188Y-60360954D01*
X89151573Y-94400000D02*
X68728427Y-94400000D01*
X67314213Y-93814213D02*
X61335786Y-87835786D01*
X60750000Y-86421573D02*
X60750000Y-60446766D01*
X90565785Y-93814213D02*
G75*
G02*
X89151573Y-94399980I-1414185J1414213D01*
G01*
X67314214Y-93814212D02*
G75*
G03*
X68728427Y-94399980I1414186J1414212D01*
G01*
X60750000Y-86421573D02*
G75*
G03*
X61335772Y-87835800I2000000J-27D01*
G01*
%TO.N,/TX*%
X96994213Y-94985787D02*
X96380000Y-95600000D01*
X97531140Y-101042499D02*
X120788636Y-101042499D01*
X97580000Y-75328427D02*
X97580000Y-93571573D01*
X121945056Y-100563494D02*
X124201879Y-98306671D01*
X95080000Y-72000000D02*
X96994214Y-73914214D01*
X125372095Y-78165001D02*
X126125000Y-78165001D01*
X124647680Y-97230412D02*
X124647680Y-79206760D01*
X96474999Y-100604998D02*
G75*
G03*
X97531140Y-101042480I1056101J1055998D01*
G01*
X124647680Y-79206760D02*
G75*
G02*
X125018569Y-78311466I1266120J-40D01*
G01*
X124647680Y-97230412D02*
G75*
G02*
X124201877Y-98306669I-1522080J12D01*
G01*
X125372095Y-78165001D02*
G75*
G03*
X125018549Y-78311446I5J-499999D01*
G01*
X96994212Y-94985786D02*
G75*
G03*
X97579980Y-93571573I-1414212J1414186D01*
G01*
X96994213Y-73914215D02*
G75*
G02*
X97579980Y-75328427I-1414213J-1414185D01*
G01*
X121945055Y-100563493D02*
G75*
G02*
X120788636Y-101042531I-1156455J1156393D01*
G01*
%TO.N,/SWDCK*%
X99570000Y-89261573D02*
X99570000Y-75300000D01*
X110480000Y-97100000D02*
X107408427Y-97100000D01*
X105994213Y-96514213D02*
X100155786Y-90675786D01*
X99570000Y-89261573D02*
G75*
G03*
X100155772Y-90675800I2000000J-27D01*
G01*
X105994214Y-96514212D02*
G75*
G03*
X107408427Y-97099980I1414186J1414212D01*
G01*
%TO.N,/RX*%
X124978549Y-77026448D02*
X124869457Y-77135540D01*
X98580000Y-96900000D02*
X98580000Y-70928427D01*
X120785784Y-100729999D02*
X98832105Y-100729999D01*
X125900000Y-76880001D02*
X125332103Y-76880001D01*
X98478551Y-100583552D02*
X98424998Y-100529999D01*
X99165787Y-69514213D02*
X99380000Y-69300000D01*
X124007105Y-97922892D02*
X121492891Y-100437106D01*
X124299998Y-78510334D02*
X124299998Y-97215785D01*
X98478552Y-100583551D02*
G75*
G03*
X98832105Y-100729995I353548J353551D01*
G01*
X124978549Y-77026448D02*
G75*
G02*
X125332103Y-76880003I353551J-353552D01*
G01*
X98580000Y-70928427D02*
G75*
G02*
X99165773Y-69514199I2000000J27D01*
G01*
X124299998Y-78510334D02*
G75*
G02*
X124869450Y-77135533I1944202J34D01*
G01*
X120785784Y-100729999D02*
G75*
G03*
X121492899Y-100437114I16J999999D01*
G01*
X124299998Y-97215785D02*
G75*
G02*
X124007112Y-97922899I-999998J-15D01*
G01*
%TO.N,/SWDIO*%
X101165787Y-89385787D02*
X106594214Y-94814214D01*
X108008427Y-95400000D02*
X113880000Y-95400000D01*
X99726447Y-74016447D02*
X99994214Y-74284214D01*
X100580000Y-75698427D02*
X100580000Y-87971573D01*
X99580000Y-73300000D02*
X99580000Y-73662893D01*
X100580000Y-75698427D02*
G75*
G03*
X99994228Y-74284200I-2000000J27D01*
G01*
X101165788Y-89385786D02*
G75*
G02*
X100580020Y-87971573I1414212J1414186D01*
G01*
X99580000Y-73662893D02*
G75*
G03*
X99726444Y-74016450I500000J-7D01*
G01*
X106594215Y-94814213D02*
G75*
G03*
X108008427Y-95399980I1414185J1414213D01*
G01*
%TO.N,/RES_D*%
X68823426Y-95700000D02*
X89051573Y-95700000D01*
X95338427Y-91070000D02*
X95730000Y-91070000D01*
X60065784Y-87770785D02*
X67409213Y-95114214D01*
X90465787Y-95114213D02*
X93924214Y-91655786D01*
X59479997Y-66200003D02*
X59479997Y-86356571D01*
X68823426Y-95700000D02*
G75*
G02*
X67409200Y-95114227I-26J2000000D01*
G01*
X95338427Y-91070000D02*
G75*
G03*
X93924200Y-91655772I-27J-2000000D01*
G01*
X90465786Y-95114212D02*
G75*
G02*
X89051573Y-95699980I-1414186J1414212D01*
G01*
X59479997Y-86356571D02*
G75*
G03*
X60065769Y-87770800I2000003J-29D01*
G01*
%TD*%
%TA.AperFunction,Conductor*%
%TO.N,GND*%
G36*
X125502777Y-57410655D02*
G01*
X125784385Y-57426470D01*
X125795408Y-57427712D01*
X126070747Y-57474494D01*
X126081541Y-57476957D01*
X126349921Y-57554276D01*
X126360392Y-57557940D01*
X126618407Y-57664814D01*
X126628409Y-57669631D01*
X126872828Y-57804717D01*
X126882228Y-57810623D01*
X127109997Y-57972233D01*
X127118669Y-57979149D01*
X127326915Y-58165249D01*
X127334750Y-58173084D01*
X127520848Y-58381327D01*
X127527766Y-58390002D01*
X127689376Y-58617771D01*
X127695282Y-58627171D01*
X127830368Y-58871590D01*
X127835185Y-58881592D01*
X127942057Y-59139603D01*
X127945724Y-59150082D01*
X127989014Y-59300345D01*
X128019627Y-59406605D01*
X128023038Y-59418443D01*
X128025508Y-59429267D01*
X128072286Y-59704586D01*
X128073529Y-59715618D01*
X128089344Y-59997222D01*
X128089500Y-60002773D01*
X128089500Y-61490500D01*
X128070593Y-61548691D01*
X128021093Y-61584655D01*
X127990500Y-61589500D01*
X126488988Y-61589500D01*
X126269711Y-61624229D01*
X126058555Y-61692838D01*
X125860739Y-61793630D01*
X125770929Y-61858881D01*
X125681121Y-61924130D01*
X125524130Y-62081121D01*
X125467950Y-62158447D01*
X125393630Y-62260739D01*
X125292838Y-62458555D01*
X125224229Y-62669711D01*
X125189500Y-62888987D01*
X125189500Y-63111012D01*
X125224229Y-63330288D01*
X125292838Y-63541444D01*
X125390456Y-63733031D01*
X125393632Y-63739263D01*
X125524130Y-63918879D01*
X125681121Y-64075870D01*
X125860737Y-64206368D01*
X126058556Y-64307162D01*
X126269707Y-64375769D01*
X126269708Y-64375769D01*
X126269711Y-64375770D01*
X126488988Y-64410500D01*
X126488991Y-64410500D01*
X126545957Y-64410500D01*
X127990500Y-64410500D01*
X128048691Y-64429407D01*
X128084655Y-64478907D01*
X128089500Y-64509500D01*
X128089500Y-66993572D01*
X128070593Y-67051763D01*
X128021093Y-67087727D01*
X127959907Y-67087727D01*
X127910407Y-67051763D01*
X127897056Y-67026272D01*
X127851859Y-66897100D01*
X127738533Y-66661771D01*
X127699605Y-66599816D01*
X127599576Y-66440615D01*
X127575328Y-66410208D01*
X127436723Y-66236399D01*
X127374678Y-66174353D01*
X127374678Y-66174352D01*
X126701862Y-65501536D01*
X126685126Y-65479252D01*
X126677331Y-65465084D01*
X126479150Y-65104853D01*
X126479149Y-65104851D01*
X126473626Y-65097894D01*
X126461114Y-65077474D01*
X126444130Y-65040282D01*
X126354589Y-64936945D01*
X126239561Y-64863022D01*
X126239558Y-64863021D01*
X126108368Y-64824500D01*
X126108367Y-64824500D01*
X125971633Y-64824500D01*
X125971631Y-64824500D01*
X125840441Y-64863021D01*
X125840439Y-64863021D01*
X125840439Y-64863022D01*
X125725411Y-64936945D01*
X125725410Y-64936945D01*
X125725410Y-64936946D01*
X125635868Y-65040284D01*
X125579069Y-65164654D01*
X125579067Y-65164662D01*
X125559610Y-65299997D01*
X125559610Y-65300002D01*
X125579067Y-65435337D01*
X125579069Y-65435342D01*
X125635868Y-65559715D01*
X125635869Y-65559716D01*
X125635870Y-65559718D01*
X125688532Y-65620494D01*
X125725412Y-65663056D01*
X125840634Y-65737104D01*
X125846396Y-65739999D01*
X126117898Y-65889366D01*
X126159769Y-65933981D01*
X126167419Y-65994687D01*
X126137926Y-66048295D01*
X126098070Y-66071096D01*
X125970441Y-66108571D01*
X125970439Y-66108571D01*
X125970439Y-66108572D01*
X125855411Y-66182495D01*
X125855410Y-66182495D01*
X125855410Y-66182496D01*
X125765868Y-66285834D01*
X125709069Y-66410204D01*
X125709067Y-66410212D01*
X125689610Y-66545547D01*
X125689610Y-66545552D01*
X125709067Y-66680887D01*
X125709069Y-66680895D01*
X125765868Y-66805265D01*
X125765869Y-66805266D01*
X125765870Y-66805268D01*
X125820338Y-66868128D01*
X125855412Y-66908606D01*
X125956747Y-66973729D01*
X125963501Y-66978478D01*
X125964622Y-66979338D01*
X125964624Y-66979340D01*
X126249230Y-67156369D01*
X126279249Y-67185426D01*
X126296559Y-67211331D01*
X126303033Y-67222544D01*
X126394174Y-67407354D01*
X126399130Y-67419319D01*
X126465367Y-67614441D01*
X126468719Y-67626949D01*
X126508922Y-67829053D01*
X126510612Y-67841892D01*
X126524288Y-68050502D01*
X126524500Y-68056978D01*
X126524500Y-69329108D01*
X126511014Y-69378991D01*
X126377030Y-69608676D01*
X126377025Y-69608687D01*
X126370293Y-69624767D01*
X126361301Y-69641517D01*
X126361136Y-69641763D01*
X126360963Y-69642181D01*
X126356964Y-69655291D01*
X126357247Y-69655388D01*
X126356191Y-69658464D01*
X126354599Y-69664337D01*
X126347783Y-69706240D01*
X126347784Y-69706245D01*
X126348127Y-69708284D01*
X126349500Y-69724712D01*
X126349500Y-70339748D01*
X126349501Y-70339760D01*
X126361132Y-70398229D01*
X126361134Y-70398235D01*
X126385929Y-70435342D01*
X126405448Y-70464554D01*
X126471769Y-70508869D01*
X126516231Y-70517713D01*
X126530241Y-70520500D01*
X126530246Y-70520500D01*
X126530252Y-70520502D01*
X126530253Y-70520502D01*
X127169747Y-70520502D01*
X127169748Y-70520502D01*
X127228231Y-70508869D01*
X127228236Y-70508865D01*
X127237113Y-70505189D01*
X127298110Y-70500388D01*
X127312887Y-70505189D01*
X127321765Y-70508866D01*
X127321769Y-70508869D01*
X127380252Y-70520502D01*
X127380253Y-70520502D01*
X127990500Y-70520502D01*
X128048691Y-70539409D01*
X128084655Y-70588909D01*
X128089500Y-70619502D01*
X128089500Y-70820502D01*
X128070593Y-70878693D01*
X128021093Y-70914657D01*
X127990500Y-70919502D01*
X127378343Y-70919502D01*
X127375934Y-70919648D01*
X127373375Y-70919707D01*
X127373367Y-70919708D01*
X127364496Y-70920916D01*
X127364494Y-70920916D01*
X127364491Y-70920917D01*
X127359016Y-70922803D01*
X127346097Y-70926295D01*
X127321768Y-70931135D01*
X127312878Y-70934817D01*
X127251881Y-70939613D01*
X127237111Y-70934813D01*
X127227803Y-70930957D01*
X127214755Y-70926973D01*
X127214656Y-70927262D01*
X127211571Y-70926203D01*
X127210169Y-70925823D01*
X127205689Y-70924608D01*
X127163772Y-70917787D01*
X127163771Y-70917787D01*
X127163769Y-70917787D01*
X127162041Y-70918078D01*
X127161725Y-70918131D01*
X127145308Y-70919502D01*
X126530252Y-70919502D01*
X126530251Y-70919502D01*
X126530241Y-70919503D01*
X126471772Y-70931134D01*
X126471766Y-70931136D01*
X126405451Y-70975447D01*
X126405445Y-70975453D01*
X126361134Y-71041768D01*
X126361132Y-71041774D01*
X126349501Y-71100243D01*
X126349500Y-71100255D01*
X126349500Y-71741657D01*
X126349646Y-71744069D01*
X126349705Y-71746625D01*
X126350915Y-71755509D01*
X126352800Y-71760981D01*
X126356291Y-71773895D01*
X126360235Y-71793722D01*
X126361133Y-71798234D01*
X126363302Y-71801480D01*
X126374587Y-71824234D01*
X126377028Y-71831322D01*
X126417872Y-71901339D01*
X126511014Y-72061010D01*
X126524500Y-72110893D01*
X126524500Y-72188338D01*
X126524288Y-72194812D01*
X126510601Y-72403669D01*
X126508911Y-72416508D01*
X126468714Y-72618606D01*
X126465362Y-72631114D01*
X126399128Y-72826241D01*
X126394173Y-72838206D01*
X126303037Y-73023016D01*
X126296562Y-73034231D01*
X126182083Y-73205565D01*
X126174199Y-73215839D01*
X126036392Y-73372979D01*
X126031964Y-73377708D01*
X125816168Y-73593504D01*
X125808968Y-73600029D01*
X125718055Y-73674638D01*
X125701918Y-73685420D01*
X125602507Y-73738555D01*
X125584577Y-73745981D01*
X125476709Y-73778701D01*
X125457674Y-73782487D01*
X125340529Y-73794023D01*
X125330827Y-73794500D01*
X109259413Y-73794500D01*
X109259116Y-73794518D01*
X109177834Y-73794518D01*
X108918282Y-73823760D01*
X108663641Y-73881876D01*
X108663637Y-73881877D01*
X108417100Y-73968141D01*
X108417098Y-73968141D01*
X108417095Y-73968143D01*
X108181768Y-74081468D01*
X107960615Y-74220423D01*
X107756395Y-74383280D01*
X107694352Y-74445322D01*
X107694348Y-74445324D01*
X107461540Y-74678131D01*
X107439257Y-74694867D01*
X107066401Y-74899996D01*
X107060654Y-74902884D01*
X107060439Y-74903021D01*
X107060439Y-74903022D01*
X106945411Y-74976945D01*
X106945410Y-74976945D01*
X106945410Y-74976946D01*
X106855868Y-75080284D01*
X106799069Y-75204654D01*
X106799067Y-75204662D01*
X106779610Y-75339997D01*
X106779610Y-75340002D01*
X106799067Y-75475337D01*
X106799069Y-75475345D01*
X106855868Y-75599715D01*
X106855869Y-75599716D01*
X106855870Y-75599718D01*
X106945411Y-75703055D01*
X107060439Y-75776978D01*
X107191633Y-75815500D01*
X107191634Y-75815500D01*
X107328366Y-75815500D01*
X107328367Y-75815500D01*
X107459561Y-75776978D01*
X107574589Y-75703055D01*
X107664130Y-75599718D01*
X107681444Y-75561803D01*
X107695736Y-75539204D01*
X107699150Y-75535146D01*
X107905129Y-75160742D01*
X107921858Y-75138467D01*
X108122089Y-74938236D01*
X108126789Y-74933835D01*
X108284178Y-74795811D01*
X108294441Y-74787936D01*
X108465789Y-74673447D01*
X108476988Y-74666982D01*
X108661806Y-74575842D01*
X108673763Y-74570890D01*
X108868892Y-74504654D01*
X108881384Y-74501307D01*
X109083507Y-74461106D01*
X109096322Y-74459419D01*
X109248735Y-74449431D01*
X109305497Y-74445712D01*
X109311970Y-74445500D01*
X125385469Y-74445500D01*
X125385607Y-74445490D01*
X125422659Y-74445491D01*
X125594928Y-74422814D01*
X125762764Y-74377845D01*
X125762769Y-74377842D01*
X125762772Y-74377842D01*
X125923288Y-74311355D01*
X125923287Y-74311355D01*
X125923293Y-74311353D01*
X126006106Y-74263541D01*
X126073767Y-74224480D01*
X126079045Y-74220430D01*
X126211621Y-74118703D01*
X126235642Y-74094681D01*
X126235653Y-74094673D01*
X126242753Y-74087572D01*
X126242755Y-74087572D01*
X126465367Y-73864958D01*
X126465426Y-73864928D01*
X126494391Y-73835961D01*
X126494392Y-73835962D01*
X126586738Y-73743614D01*
X126749589Y-73539401D01*
X126888551Y-73318239D01*
X127001877Y-73082908D01*
X127088142Y-72836369D01*
X127146260Y-72581721D01*
X127175502Y-72322167D01*
X127175500Y-72191569D01*
X127175500Y-72171518D01*
X127175500Y-72110893D01*
X127188986Y-72061010D01*
X127213199Y-72019502D01*
X127245756Y-71963688D01*
X127291407Y-71922953D01*
X127347171Y-71915859D01*
X127362491Y-71918352D01*
X127386240Y-71922217D01*
X127388279Y-71921873D01*
X127404703Y-71920502D01*
X127990500Y-71920502D01*
X128048691Y-71939409D01*
X128084655Y-71988909D01*
X128089500Y-72019502D01*
X128089500Y-95490500D01*
X128070593Y-95548691D01*
X128021093Y-95584655D01*
X127990500Y-95589500D01*
X126488988Y-95589500D01*
X126269711Y-95624229D01*
X126058555Y-95692838D01*
X125860739Y-95793630D01*
X125805516Y-95833752D01*
X125681121Y-95924130D01*
X125681119Y-95924132D01*
X125524127Y-96081124D01*
X125403503Y-96247149D01*
X125354003Y-96283113D01*
X125292818Y-96283112D01*
X125243318Y-96247148D01*
X125224411Y-96188958D01*
X125224411Y-86137322D01*
X125224623Y-86130846D01*
X125229067Y-86063053D01*
X125236102Y-85955722D01*
X125237790Y-85942897D01*
X125271401Y-85773932D01*
X125274748Y-85761443D01*
X125330126Y-85598309D01*
X125335071Y-85586373D01*
X125411271Y-85431855D01*
X125417727Y-85420673D01*
X125511654Y-85280102D01*
X125559702Y-85242225D01*
X125613283Y-85238009D01*
X125676073Y-85250500D01*
X125676080Y-85250500D01*
X125676082Y-85250501D01*
X125676083Y-85250501D01*
X126123917Y-85250501D01*
X126123918Y-85250501D01*
X126268913Y-85221659D01*
X126405495Y-85165085D01*
X126528416Y-85082952D01*
X126632951Y-84978417D01*
X126715084Y-84855496D01*
X126771658Y-84718914D01*
X126800500Y-84573919D01*
X126800500Y-84426083D01*
X126771658Y-84281088D01*
X126715084Y-84144506D01*
X126635687Y-84025680D01*
X126619079Y-83966794D01*
X126640256Y-83909390D01*
X126663001Y-83888365D01*
X126753416Y-83827952D01*
X126857951Y-83723417D01*
X126940084Y-83600496D01*
X126996658Y-83463914D01*
X127025500Y-83318919D01*
X127025500Y-83171083D01*
X126996658Y-83026088D01*
X126940084Y-82889506D01*
X126857951Y-82766585D01*
X126753416Y-82662050D01*
X126698094Y-82625085D01*
X126647445Y-82591242D01*
X126609566Y-82543192D01*
X126607164Y-82482054D01*
X126630318Y-82442554D01*
X126629862Y-82442180D01*
X126632228Y-82439295D01*
X126632450Y-82438917D01*
X126632951Y-82438417D01*
X126715084Y-82315496D01*
X126771658Y-82178914D01*
X126800500Y-82033919D01*
X126800500Y-81886083D01*
X126771658Y-81741088D01*
X126715084Y-81604506D01*
X126635687Y-81485680D01*
X126619079Y-81426794D01*
X126640256Y-81369390D01*
X126663001Y-81348365D01*
X126753416Y-81287952D01*
X126857951Y-81183417D01*
X126940084Y-81060496D01*
X126996658Y-80923914D01*
X127025500Y-80778919D01*
X127025500Y-80631083D01*
X126996658Y-80486088D01*
X126940084Y-80349506D01*
X126857951Y-80226585D01*
X126857941Y-80226575D01*
X126856450Y-80224757D01*
X126856055Y-80223749D01*
X126855249Y-80222542D01*
X126855513Y-80222365D01*
X126834151Y-80167780D01*
X126849600Y-80108577D01*
X126862981Y-80091944D01*
X126865593Y-80089331D01*
X126980491Y-79917375D01*
X126980498Y-79917361D01*
X127059648Y-79726277D01*
X127059650Y-79726270D01*
X127070843Y-79670001D01*
X126109618Y-79670001D01*
X126160064Y-79619555D01*
X126202851Y-79545446D01*
X126225000Y-79462788D01*
X126225000Y-79377214D01*
X126202851Y-79294556D01*
X126160064Y-79220447D01*
X126109618Y-79170001D01*
X127070842Y-79170001D01*
X127059650Y-79113731D01*
X127059648Y-79113724D01*
X126980498Y-78922640D01*
X126980491Y-78922626D01*
X126862888Y-78746621D01*
X126864984Y-78745220D01*
X126846164Y-78697299D01*
X126861543Y-78638078D01*
X126862625Y-78636420D01*
X126940084Y-78520496D01*
X126996658Y-78383914D01*
X127025500Y-78238919D01*
X127025500Y-78091083D01*
X126996658Y-77946088D01*
X126940084Y-77809506D01*
X126857951Y-77686585D01*
X126753416Y-77582050D01*
X126698094Y-77545085D01*
X126647445Y-77511242D01*
X126609566Y-77463192D01*
X126607164Y-77402054D01*
X126630318Y-77362554D01*
X126629862Y-77362180D01*
X126632228Y-77359295D01*
X126632450Y-77358917D01*
X126632951Y-77358417D01*
X126715084Y-77235496D01*
X126771658Y-77098914D01*
X126800500Y-76953919D01*
X126800500Y-76806083D01*
X126771658Y-76661088D01*
X126715084Y-76524506D01*
X126715083Y-76524505D01*
X126713300Y-76521168D01*
X126702545Y-76460935D01*
X126729248Y-76405884D01*
X126783209Y-76377042D01*
X126800611Y-76375501D01*
X126844747Y-76375501D01*
X126844748Y-76375501D01*
X126903231Y-76363868D01*
X126969552Y-76319553D01*
X127013867Y-76253232D01*
X127025500Y-76194749D01*
X127025500Y-75055253D01*
X127013867Y-74996770D01*
X126969552Y-74930449D01*
X126958178Y-74922849D01*
X126903233Y-74886135D01*
X126903231Y-74886134D01*
X126903228Y-74886133D01*
X126903227Y-74886133D01*
X126844758Y-74874502D01*
X126844748Y-74874501D01*
X125405252Y-74874501D01*
X125405251Y-74874501D01*
X125405241Y-74874502D01*
X125346772Y-74886133D01*
X125346766Y-74886135D01*
X125280451Y-74930446D01*
X125280445Y-74930452D01*
X125236134Y-74996767D01*
X125236132Y-74996773D01*
X125224501Y-75055242D01*
X125224500Y-75055252D01*
X125224500Y-75055253D01*
X125224500Y-76194749D01*
X125236133Y-76253232D01*
X125236133Y-76253233D01*
X125238036Y-76262795D01*
X125235231Y-76263352D01*
X125238832Y-76309179D01*
X125212576Y-76356056D01*
X125167048Y-76401584D01*
X125084915Y-76524506D01*
X125034599Y-76645981D01*
X124994862Y-76692506D01*
X124981026Y-76699557D01*
X124970686Y-76703840D01*
X124970681Y-76703843D01*
X124845718Y-76787340D01*
X124829570Y-76803487D01*
X124829571Y-76803488D01*
X124712492Y-76920567D01*
X124712463Y-76920581D01*
X124595833Y-77037210D01*
X124441257Y-77231040D01*
X124309357Y-77440958D01*
X124278696Y-77504629D01*
X124236413Y-77548854D01*
X124176211Y-77559779D01*
X124121085Y-77533232D01*
X124092091Y-77479352D01*
X124090500Y-77461675D01*
X124090500Y-75585325D01*
X124090499Y-75585321D01*
X124087719Y-75571343D01*
X124055510Y-75409417D01*
X124023430Y-75331968D01*
X123986877Y-75243720D01*
X123986871Y-75243708D01*
X123915533Y-75136946D01*
X123887232Y-75094590D01*
X123760410Y-74967768D01*
X123712794Y-74935952D01*
X123611291Y-74868128D01*
X123611279Y-74868122D01*
X123445583Y-74799490D01*
X123269678Y-74764500D01*
X123269676Y-74764500D01*
X123234043Y-74764500D01*
X111239021Y-74764500D01*
X111180000Y-74764500D01*
X111090324Y-74764500D01*
X111090321Y-74764500D01*
X110914417Y-74799490D01*
X110914415Y-74799490D01*
X110748720Y-74868122D01*
X110748708Y-74868128D01*
X110599590Y-74967768D01*
X110599586Y-74967771D01*
X110472771Y-75094586D01*
X110472768Y-75094590D01*
X110373128Y-75243708D01*
X110373122Y-75243720D01*
X110304490Y-75409415D01*
X110304490Y-75409417D01*
X110269500Y-75585321D01*
X110269500Y-80664678D01*
X110304490Y-80840582D01*
X110304490Y-80840584D01*
X110373122Y-81006279D01*
X110373128Y-81006291D01*
X110430089Y-81091537D01*
X110472768Y-81155410D01*
X110599590Y-81282232D01*
X110656534Y-81320281D01*
X110748708Y-81381871D01*
X110748720Y-81381877D01*
X110797358Y-81402023D01*
X110914417Y-81450510D01*
X111090324Y-81485500D01*
X111090325Y-81485500D01*
X123269675Y-81485500D01*
X123269676Y-81485500D01*
X123445583Y-81450510D01*
X123611284Y-81381875D01*
X123611286Y-81381873D01*
X123611291Y-81381871D01*
X123661435Y-81348365D01*
X123760410Y-81282232D01*
X123867994Y-81174648D01*
X123922511Y-81146871D01*
X123982943Y-81156442D01*
X124026208Y-81199707D01*
X124036998Y-81244652D01*
X124036998Y-83442337D01*
X124018091Y-83500528D01*
X123968591Y-83536492D01*
X123907405Y-83536492D01*
X123857905Y-83500528D01*
X123840900Y-83461651D01*
X123837058Y-83442337D01*
X123830510Y-83409417D01*
X123761875Y-83243716D01*
X123761871Y-83243708D01*
X123704713Y-83158167D01*
X123662232Y-83094590D01*
X123535410Y-82967768D01*
X123486874Y-82935337D01*
X123386291Y-82868128D01*
X123386279Y-82868122D01*
X123220583Y-82799490D01*
X123044678Y-82764500D01*
X123044676Y-82764500D01*
X123009043Y-82764500D01*
X118114021Y-82764500D01*
X118055000Y-82764500D01*
X117965324Y-82764500D01*
X117965321Y-82764500D01*
X117789417Y-82799490D01*
X117789415Y-82799490D01*
X117623720Y-82868122D01*
X117623708Y-82868128D01*
X117474590Y-82967768D01*
X117474586Y-82967771D01*
X117347771Y-83094586D01*
X117347768Y-83094590D01*
X117248128Y-83243708D01*
X117248122Y-83243720D01*
X117179490Y-83409415D01*
X117179490Y-83409417D01*
X117144500Y-83585321D01*
X117144500Y-95764678D01*
X117167826Y-95881947D01*
X117178285Y-95934527D01*
X117179490Y-95940582D01*
X117179490Y-95940584D01*
X117248122Y-96106279D01*
X117248128Y-96106291D01*
X117303366Y-96188958D01*
X117347768Y-96255410D01*
X117474590Y-96382232D01*
X117516896Y-96410500D01*
X117623708Y-96481871D01*
X117623720Y-96481877D01*
X117667467Y-96499997D01*
X117789417Y-96550510D01*
X117965324Y-96585500D01*
X117965325Y-96585500D01*
X123044675Y-96585500D01*
X123044676Y-96585500D01*
X123220583Y-96550510D01*
X123386284Y-96481875D01*
X123386286Y-96481873D01*
X123386291Y-96481871D01*
X123435781Y-96448802D01*
X123535410Y-96382232D01*
X123662232Y-96255410D01*
X123743124Y-96134347D01*
X123761871Y-96106291D01*
X123761877Y-96106279D01*
X123766518Y-96095074D01*
X123830510Y-95940583D01*
X123840900Y-95888347D01*
X123870797Y-95834964D01*
X123926362Y-95809348D01*
X123986372Y-95821285D01*
X124027904Y-95866215D01*
X124036998Y-95907662D01*
X124036998Y-97210930D01*
X124036521Y-97220633D01*
X124023794Y-97349868D01*
X124020009Y-97368898D01*
X123983730Y-97488501D01*
X123976306Y-97506425D01*
X123917392Y-97616648D01*
X123906609Y-97632786D01*
X123824289Y-97733093D01*
X123817765Y-97740292D01*
X121322747Y-100235312D01*
X121322744Y-100235314D01*
X121310357Y-100247700D01*
X121303160Y-100254223D01*
X121202778Y-100336602D01*
X121186641Y-100347384D01*
X121076425Y-100406294D01*
X121058495Y-100413720D01*
X120938895Y-100449999D01*
X120919866Y-100453784D01*
X120840592Y-100461591D01*
X120790515Y-100466522D01*
X120780814Y-100466998D01*
X120731441Y-100466998D01*
X120731429Y-100466999D01*
X99062235Y-100466999D01*
X99004044Y-100448092D01*
X98989256Y-100434895D01*
X98983757Y-100428896D01*
X98958374Y-100373224D01*
X98970562Y-100313265D01*
X99015666Y-100271921D01*
X99056736Y-100263000D01*
X111223980Y-100263000D01*
X111224167Y-100262980D01*
X111288656Y-100262982D01*
X111541232Y-100234527D01*
X111789034Y-100177971D01*
X112028945Y-100094026D01*
X112257949Y-99983746D01*
X112473165Y-99848520D01*
X112490818Y-99834443D01*
X112671883Y-99690052D01*
X112671883Y-99690051D01*
X112671888Y-99690048D01*
X112710835Y-99651099D01*
X112710840Y-99651097D01*
X112761753Y-99600186D01*
X112808464Y-99553475D01*
X112808468Y-99553469D01*
X114493468Y-97868469D01*
X114493471Y-97868467D01*
X114507392Y-97854546D01*
X114507393Y-97854546D01*
X114510412Y-97851525D01*
X114510468Y-97851497D01*
X114540197Y-97821768D01*
X114630062Y-97731902D01*
X114788536Y-97533178D01*
X114923763Y-97317959D01*
X115034044Y-97088953D01*
X115117990Y-96849040D01*
X115174547Y-96601236D01*
X115203002Y-96348658D01*
X115203000Y-96221569D01*
X115203000Y-96203502D01*
X115203000Y-88736113D01*
X115203000Y-88726218D01*
X115202980Y-88726022D01*
X115202982Y-88661344D01*
X115174527Y-88408768D01*
X115117971Y-88160966D01*
X115034026Y-87921055D01*
X114923746Y-87692051D01*
X114880229Y-87622793D01*
X114869201Y-87598470D01*
X114744306Y-87180568D01*
X114741168Y-87166307D01*
X114740931Y-87164658D01*
X114739778Y-87162135D01*
X114734971Y-87149335D01*
X114734660Y-87148292D01*
X114731494Y-87138583D01*
X114731109Y-87137495D01*
X114725140Y-87127996D01*
X114718926Y-87116476D01*
X114684130Y-87040282D01*
X114594589Y-86936945D01*
X114479561Y-86863022D01*
X114479558Y-86863021D01*
X114348368Y-86824500D01*
X114348367Y-86824500D01*
X114211633Y-86824500D01*
X114211631Y-86824500D01*
X114080441Y-86863021D01*
X114080439Y-86863021D01*
X114080439Y-86863022D01*
X113965411Y-86936945D01*
X113965410Y-86936945D01*
X113965410Y-86936946D01*
X113875868Y-87040284D01*
X113819069Y-87164654D01*
X113819067Y-87164662D01*
X113799610Y-87299997D01*
X113799610Y-87300002D01*
X113819067Y-87435337D01*
X113819069Y-87435345D01*
X113875868Y-87559715D01*
X113875869Y-87559716D01*
X113875870Y-87559718D01*
X113930524Y-87622793D01*
X113965412Y-87663056D01*
X114080439Y-87736978D01*
X114086885Y-87739922D01*
X114086667Y-87740398D01*
X114092211Y-87742828D01*
X114092396Y-87742440D01*
X114096788Y-87744521D01*
X114096792Y-87744524D01*
X114406214Y-87891148D01*
X114450703Y-87933153D01*
X114452611Y-87936826D01*
X114541897Y-88117884D01*
X114546852Y-88129849D01*
X114615713Y-88332715D01*
X114619065Y-88345223D01*
X114660857Y-88555337D01*
X114662547Y-88568176D01*
X114676788Y-88785494D01*
X114677000Y-88791968D01*
X114677000Y-91328358D01*
X114658093Y-91386549D01*
X114608593Y-91422513D01*
X114547407Y-91422513D01*
X114497907Y-91386549D01*
X114481598Y-91350890D01*
X114446481Y-91200646D01*
X114444892Y-91192215D01*
X114440931Y-91164658D01*
X114437067Y-91156197D01*
X114432837Y-91145257D01*
X114432366Y-91143786D01*
X114432362Y-91143776D01*
X114432347Y-91143727D01*
X114430837Y-91139191D01*
X114430836Y-91139190D01*
X114430836Y-91139188D01*
X114428473Y-91135398D01*
X114422431Y-91124151D01*
X114384130Y-91040282D01*
X114294589Y-90936945D01*
X114179561Y-90863022D01*
X114175246Y-90861755D01*
X114048368Y-90824500D01*
X114048367Y-90824500D01*
X113911633Y-90824500D01*
X113911631Y-90824500D01*
X113780441Y-90863021D01*
X113780439Y-90863021D01*
X113780439Y-90863022D01*
X113665411Y-90936945D01*
X113665410Y-90936945D01*
X113665410Y-90936946D01*
X113575868Y-91040284D01*
X113519069Y-91164654D01*
X113519067Y-91164662D01*
X113499610Y-91299997D01*
X113499610Y-91300002D01*
X113519067Y-91435337D01*
X113519069Y-91435345D01*
X113575868Y-91559715D01*
X113575869Y-91559716D01*
X113575870Y-91559718D01*
X113665411Y-91663055D01*
X113665412Y-91663056D01*
X113780389Y-91736946D01*
X113780439Y-91736978D01*
X113780443Y-91736979D01*
X113784940Y-91739033D01*
X113788691Y-91740843D01*
X113791225Y-91742132D01*
X113791227Y-91742133D01*
X114067031Y-91882394D01*
X114110329Y-91925625D01*
X114110945Y-91926852D01*
X114169397Y-92045384D01*
X114174352Y-92057349D01*
X114243213Y-92260215D01*
X114246565Y-92272723D01*
X114288357Y-92482837D01*
X114290047Y-92495676D01*
X114304288Y-92712994D01*
X114304500Y-92719468D01*
X114304500Y-92767458D01*
X114285593Y-92825649D01*
X114236093Y-92861613D01*
X114177609Y-92862448D01*
X114048370Y-92824500D01*
X114048367Y-92824500D01*
X113911633Y-92824500D01*
X113911629Y-92824500D01*
X113792569Y-92859459D01*
X113785362Y-92861284D01*
X113784516Y-92861464D01*
X113782607Y-92861872D01*
X113782602Y-92861874D01*
X113394766Y-93028924D01*
X113355603Y-93037000D01*
X108469889Y-93037000D01*
X108469877Y-93036999D01*
X108418766Y-93036999D01*
X108412293Y-93036787D01*
X108195281Y-93022568D01*
X108182441Y-93020878D01*
X107972323Y-92979086D01*
X107959815Y-92975735D01*
X107885500Y-92950510D01*
X107756943Y-92906873D01*
X107744979Y-92901917D01*
X107552840Y-92807168D01*
X107541625Y-92800693D01*
X107363496Y-92681674D01*
X107353222Y-92673791D01*
X107190001Y-92530654D01*
X107185271Y-92526225D01*
X102254041Y-87594995D01*
X102249612Y-87590265D01*
X102106228Y-87426763D01*
X102098345Y-87416489D01*
X102020513Y-87300002D01*
X101979325Y-87238358D01*
X101972856Y-87227154D01*
X101878103Y-87035005D01*
X101873152Y-87023053D01*
X101804286Y-86820170D01*
X101800937Y-86807668D01*
X101800633Y-86806141D01*
X101759145Y-86597548D01*
X101757457Y-86584723D01*
X101743211Y-86367323D01*
X101743000Y-86360849D01*
X101743000Y-86352998D01*
X101743001Y-86318096D01*
X101743000Y-86318093D01*
X101743000Y-83700002D01*
X101987110Y-83700002D01*
X102006567Y-83835336D01*
X102006569Y-83835342D01*
X102010813Y-83844636D01*
X102017019Y-83867955D01*
X102018093Y-83867755D01*
X102018982Y-83872527D01*
X102018983Y-83872533D01*
X102018984Y-83872535D01*
X102128344Y-84249386D01*
X102138078Y-84282928D01*
X102142000Y-84310519D01*
X102142000Y-84344647D01*
X102142000Y-84430353D01*
X102161562Y-84503363D01*
X102164183Y-84513143D01*
X102207031Y-84587357D01*
X102207032Y-84587358D01*
X102207033Y-84587359D01*
X102207035Y-84587362D01*
X102573348Y-84953675D01*
X102935797Y-85316124D01*
X102935826Y-85316181D01*
X103040305Y-85420657D01*
X103056386Y-85436738D01*
X103160556Y-85519809D01*
X103249597Y-85590816D01*
X103260599Y-85599589D01*
X103481761Y-85738551D01*
X103579715Y-85785721D01*
X103717080Y-85851872D01*
X103717085Y-85851874D01*
X103717092Y-85851877D01*
X103963631Y-85938142D01*
X104218279Y-85996260D01*
X104477833Y-86025502D01*
X104608430Y-86025500D01*
X104608432Y-86025500D01*
X113569482Y-86025500D01*
X113597073Y-86029422D01*
X114007462Y-86148515D01*
X114019187Y-86149863D01*
X114035767Y-86153223D01*
X114111633Y-86175500D01*
X114111634Y-86175500D01*
X114248366Y-86175500D01*
X114248367Y-86175500D01*
X114379561Y-86136978D01*
X114494589Y-86063055D01*
X114584130Y-85959718D01*
X114640931Y-85835342D01*
X114649759Y-85773942D01*
X114660390Y-85700002D01*
X114660390Y-85699997D01*
X114640932Y-85564662D01*
X114640930Y-85564654D01*
X114584131Y-85440284D01*
X114584130Y-85440283D01*
X114584130Y-85440282D01*
X114494589Y-85336945D01*
X114379561Y-85263022D01*
X114379558Y-85263021D01*
X114248368Y-85224500D01*
X114248367Y-85224500D01*
X114111633Y-85224500D01*
X114111631Y-85224500D01*
X114111627Y-85224501D01*
X114034345Y-85247192D01*
X114014982Y-85250834D01*
X114007468Y-85251483D01*
X114007464Y-85251483D01*
X114007464Y-85251484D01*
X113780154Y-85317448D01*
X113597070Y-85370578D01*
X113569479Y-85374500D01*
X104611662Y-85374500D01*
X104605188Y-85374288D01*
X104396330Y-85360601D01*
X104383491Y-85358911D01*
X104181393Y-85318714D01*
X104168885Y-85315362D01*
X103973758Y-85249128D01*
X103961793Y-85244173D01*
X103776983Y-85153037D01*
X103765768Y-85146562D01*
X103594439Y-85032086D01*
X103584165Y-85024203D01*
X103427018Y-84886391D01*
X103422289Y-84881962D01*
X102844230Y-84303903D01*
X102816453Y-84249386D01*
X102819155Y-84206311D01*
X102916015Y-83872537D01*
X102916015Y-83872533D01*
X102916017Y-83872528D01*
X102916835Y-83868461D01*
X102917473Y-83868589D01*
X102924061Y-83844909D01*
X102928431Y-83835342D01*
X102933084Y-83802978D01*
X102947890Y-83700002D01*
X102947890Y-83699997D01*
X102928432Y-83564661D01*
X102928431Y-83564658D01*
X102924188Y-83555368D01*
X102918118Y-83532014D01*
X102916905Y-83532241D01*
X102916015Y-83527465D01*
X102916015Y-83527462D01*
X102796922Y-83117069D01*
X102793000Y-83089479D01*
X102793000Y-82800002D01*
X113499610Y-82800002D01*
X113519067Y-82935337D01*
X113519069Y-82935345D01*
X113575868Y-83059715D01*
X113575869Y-83059716D01*
X113575870Y-83059718D01*
X113662928Y-83160189D01*
X113665412Y-83163056D01*
X113769905Y-83230209D01*
X113786386Y-83243489D01*
X115173365Y-84630468D01*
X115177786Y-84635188D01*
X115305024Y-84780278D01*
X115312895Y-84790538D01*
X115372207Y-84879305D01*
X115418292Y-84948278D01*
X115424767Y-84959494D01*
X115508672Y-85129642D01*
X115513627Y-85141606D01*
X115574600Y-85321234D01*
X115577952Y-85333742D01*
X115614961Y-85519809D01*
X115616651Y-85532648D01*
X115629288Y-85725491D01*
X115629500Y-85731965D01*
X115629500Y-97087218D01*
X115629518Y-97087506D01*
X115629518Y-97159186D01*
X115659246Y-97423052D01*
X115660331Y-97432687D01*
X115721573Y-97701021D01*
X115797802Y-97918879D01*
X115812478Y-97960821D01*
X115931892Y-98208790D01*
X116078316Y-98441830D01*
X116078321Y-98441836D01*
X116249924Y-98657024D01*
X116249927Y-98657027D01*
X116300998Y-98708099D01*
X116301015Y-98708118D01*
X116333306Y-98740410D01*
X116333307Y-98740410D01*
X116347232Y-98754335D01*
X116347232Y-98754336D01*
X116389170Y-98796274D01*
X116389172Y-98796275D01*
X117210761Y-99617864D01*
X117230808Y-99646738D01*
X117245870Y-99679718D01*
X117335411Y-99783055D01*
X117450439Y-99856978D01*
X117581633Y-99895500D01*
X117581634Y-99895500D01*
X117718366Y-99895500D01*
X117718367Y-99895500D01*
X117849561Y-99856978D01*
X117964589Y-99783055D01*
X118054130Y-99679718D01*
X118082556Y-99617475D01*
X118110930Y-99555345D01*
X118110932Y-99555337D01*
X118130390Y-99420002D01*
X118130390Y-99419997D01*
X118110932Y-99284662D01*
X118110930Y-99284654D01*
X118054131Y-99160284D01*
X118054130Y-99160283D01*
X118054130Y-99160282D01*
X117964589Y-99056945D01*
X117964588Y-99056944D01*
X117964587Y-99056943D01*
X117860096Y-98989792D01*
X117843615Y-98976512D01*
X116998379Y-98131276D01*
X116986618Y-98119514D01*
X116982205Y-98114801D01*
X116916032Y-98039343D01*
X116854981Y-97969726D01*
X116847106Y-97959463D01*
X116741705Y-97801717D01*
X116735233Y-97790507D01*
X116714536Y-97748537D01*
X116651326Y-97620356D01*
X116646372Y-97608393D01*
X116585399Y-97428765D01*
X116582047Y-97416257D01*
X116565059Y-97330846D01*
X116545037Y-97230184D01*
X116543349Y-97217357D01*
X116530712Y-97024507D01*
X116530500Y-97018034D01*
X116530500Y-85662546D01*
X116530480Y-85662253D01*
X116530482Y-85590816D01*
X116499669Y-85317313D01*
X116438427Y-85048980D01*
X116347526Y-84789191D01*
X116228110Y-84541213D01*
X116155771Y-84426083D01*
X116081684Y-84308170D01*
X116060086Y-84281086D01*
X115910077Y-84092977D01*
X115860351Y-84043250D01*
X115860339Y-84043236D01*
X115812774Y-83995670D01*
X115812768Y-83995665D01*
X115767374Y-83950270D01*
X115767374Y-83950271D01*
X114419239Y-82602136D01*
X114399190Y-82573259D01*
X114397666Y-82569923D01*
X114384130Y-82540282D01*
X114294589Y-82436945D01*
X114179561Y-82363022D01*
X114179558Y-82363021D01*
X114048368Y-82324500D01*
X114048367Y-82324500D01*
X113911633Y-82324500D01*
X113911631Y-82324500D01*
X113780441Y-82363021D01*
X113780439Y-82363021D01*
X113780439Y-82363022D01*
X113665411Y-82436945D01*
X113665410Y-82436945D01*
X113665410Y-82436946D01*
X113575868Y-82540284D01*
X113519069Y-82664654D01*
X113519067Y-82664662D01*
X113499610Y-82799997D01*
X113499610Y-82800002D01*
X102793000Y-82800002D01*
X102793000Y-79144161D01*
X102793212Y-79137688D01*
X102796009Y-79095001D01*
X102806899Y-78928821D01*
X102808586Y-78916002D01*
X102848787Y-78713883D01*
X102852133Y-78701395D01*
X102918374Y-78506245D01*
X102923323Y-78494301D01*
X102945791Y-78448739D01*
X103014464Y-78309479D01*
X103020929Y-78298280D01*
X103135424Y-78126922D01*
X103143288Y-78116674D01*
X103281107Y-77959517D01*
X103285506Y-77954819D01*
X105078468Y-76161857D01*
X105100743Y-76145128D01*
X105473591Y-75940005D01*
X105479366Y-75937103D01*
X105499141Y-75924395D01*
X105594589Y-75863055D01*
X105684130Y-75759718D01*
X105736012Y-75646113D01*
X105740930Y-75635345D01*
X105740932Y-75635337D01*
X105760390Y-75500002D01*
X105760390Y-75499997D01*
X105740932Y-75364662D01*
X105740930Y-75364654D01*
X105684131Y-75240284D01*
X105684130Y-75240283D01*
X105684130Y-75240282D01*
X105594589Y-75136945D01*
X105479561Y-75063022D01*
X105453106Y-75055254D01*
X105348368Y-75024500D01*
X105348367Y-75024500D01*
X105211633Y-75024500D01*
X105211631Y-75024500D01*
X105080441Y-75063021D01*
X105080439Y-75063021D01*
X105080439Y-75063022D01*
X104965411Y-75136945D01*
X104965410Y-75136945D01*
X104965410Y-75136946D01*
X104875870Y-75240282D01*
X104858555Y-75278193D01*
X104844268Y-75300786D01*
X104840855Y-75304843D01*
X104840849Y-75304851D01*
X104634870Y-75679253D01*
X104618134Y-75701537D01*
X102852891Y-77466781D01*
X102852835Y-77466809D01*
X102730764Y-77588883D01*
X102567906Y-77793105D01*
X102428950Y-78014259D01*
X102315627Y-78249581D01*
X102286962Y-78331502D01*
X102242087Y-78459755D01*
X102229357Y-78496136D01*
X102171239Y-78750780D01*
X102141998Y-79010331D01*
X102141998Y-79010334D01*
X102142000Y-79115413D01*
X102142000Y-83089478D01*
X102138078Y-83117069D01*
X102018982Y-83527472D01*
X102018163Y-83531546D01*
X102017531Y-83531419D01*
X102010941Y-83555082D01*
X102006568Y-83564659D01*
X101987110Y-83699997D01*
X101987110Y-83700002D01*
X101743000Y-83700002D01*
X101743000Y-75224398D01*
X101751075Y-75185235D01*
X101751076Y-75185232D01*
X101918175Y-74797276D01*
X101920536Y-74785916D01*
X101927407Y-74764953D01*
X101940931Y-74735342D01*
X101945874Y-74700966D01*
X101960390Y-74600002D01*
X101960390Y-74599997D01*
X101940932Y-74464662D01*
X101940930Y-74464654D01*
X101884131Y-74340284D01*
X101884130Y-74340283D01*
X101884130Y-74340282D01*
X101794589Y-74236945D01*
X101679561Y-74163022D01*
X101679558Y-74163021D01*
X101548368Y-74124500D01*
X101548367Y-74124500D01*
X101411633Y-74124500D01*
X101411631Y-74124500D01*
X101280441Y-74163021D01*
X101280439Y-74163021D01*
X101280439Y-74163022D01*
X101165411Y-74236945D01*
X101165410Y-74236945D01*
X101165410Y-74236946D01*
X101075868Y-74340284D01*
X101019069Y-74464654D01*
X101019067Y-74464662D01*
X100999610Y-74599997D01*
X100999610Y-74600002D01*
X101019067Y-74735337D01*
X101019069Y-74735342D01*
X101032514Y-74764784D01*
X101039279Y-74785244D01*
X101041869Y-74797379D01*
X101041874Y-74797396D01*
X101208924Y-75185232D01*
X101217000Y-75224395D01*
X101217000Y-86426398D01*
X101217023Y-86426641D01*
X101217023Y-86491549D01*
X101228631Y-86594586D01*
X101245477Y-86744123D01*
X101302032Y-86991925D01*
X101335052Y-87086295D01*
X101385976Y-87231838D01*
X101496256Y-87460843D01*
X101631476Y-87676052D01*
X101671792Y-87726608D01*
X101789953Y-87874781D01*
X101842825Y-87927654D01*
X101842826Y-87927656D01*
X104315167Y-90399997D01*
X106782564Y-92867394D01*
X106786925Y-92871755D01*
X106786962Y-92871828D01*
X106815338Y-92900203D01*
X106905204Y-92990067D01*
X107103929Y-93148541D01*
X107319148Y-93283767D01*
X107548154Y-93394047D01*
X107788068Y-93477992D01*
X108035873Y-93534548D01*
X108288451Y-93563002D01*
X108415540Y-93563000D01*
X113355603Y-93563000D01*
X113394765Y-93571074D01*
X113782723Y-93738174D01*
X113784951Y-93738637D01*
X113792665Y-93740567D01*
X113911633Y-93775500D01*
X113911634Y-93775500D01*
X114048366Y-93775500D01*
X114048367Y-93775500D01*
X114177609Y-93737551D01*
X114238769Y-93739298D01*
X114287222Y-93776661D01*
X114304500Y-93832541D01*
X114304500Y-94926276D01*
X114285593Y-94984467D01*
X114236093Y-95020431D01*
X114174907Y-95020431D01*
X114151978Y-95009561D01*
X114079561Y-94963022D01*
X114013964Y-94943761D01*
X113948368Y-94924500D01*
X113948367Y-94924500D01*
X113811633Y-94924500D01*
X113811629Y-94924500D01*
X113692569Y-94959459D01*
X113685362Y-94961284D01*
X113684516Y-94961464D01*
X113682607Y-94961872D01*
X113682602Y-94961874D01*
X113294766Y-95128924D01*
X113255603Y-95137000D01*
X108011661Y-95137000D01*
X108005188Y-95136788D01*
X107978541Y-95135041D01*
X107788174Y-95122567D01*
X107775335Y-95120877D01*
X107565211Y-95079083D01*
X107552706Y-95075732D01*
X107349842Y-95006872D01*
X107337884Y-95001919D01*
X107145736Y-94907165D01*
X107134521Y-94900690D01*
X106956389Y-94781669D01*
X106946125Y-94773795D01*
X106782825Y-94630587D01*
X106778111Y-94626172D01*
X101354041Y-89202102D01*
X101349627Y-89197389D01*
X101206220Y-89033861D01*
X101198351Y-89023605D01*
X101079324Y-88845465D01*
X101072852Y-88834254D01*
X100978102Y-88642114D01*
X100973147Y-88630150D01*
X100904286Y-88427284D01*
X100900936Y-88414784D01*
X100859140Y-88204652D01*
X100857453Y-88191830D01*
X100845109Y-88003456D01*
X100843212Y-87974504D01*
X100843000Y-87968031D01*
X100843000Y-75636218D01*
X100842980Y-75636022D01*
X100842980Y-75630250D01*
X100842982Y-75571344D01*
X100814527Y-75318768D01*
X100757971Y-75070966D01*
X100674026Y-74831055D01*
X100563746Y-74602051D01*
X100506442Y-74510850D01*
X100428524Y-74386840D01*
X100421351Y-74377845D01*
X100270048Y-74188112D01*
X100231097Y-74149161D01*
X100231095Y-74149157D01*
X100180185Y-74098246D01*
X100180185Y-74098247D01*
X100147394Y-74065455D01*
X100147392Y-74065454D01*
X99931787Y-73849849D01*
X99931787Y-73849848D01*
X99931784Y-73849846D01*
X99917004Y-73835065D01*
X99908447Y-73825304D01*
X99907750Y-73824395D01*
X99887346Y-73766712D01*
X99899202Y-73717116D01*
X99910899Y-73695455D01*
X100008747Y-73514252D01*
X100013427Y-73505038D01*
X100013928Y-73503987D01*
X100015994Y-73494913D01*
X100022468Y-73475769D01*
X100040931Y-73435342D01*
X100040931Y-73435340D01*
X100040932Y-73435339D01*
X100060390Y-73300002D01*
X100060390Y-73299997D01*
X100040932Y-73164662D01*
X100040930Y-73164654D01*
X99984131Y-73040284D01*
X99984130Y-73040283D01*
X99984130Y-73040282D01*
X99894589Y-72936945D01*
X99779561Y-72863022D01*
X99779558Y-72863021D01*
X99648368Y-72824500D01*
X99648367Y-72824500D01*
X99511633Y-72824500D01*
X99511631Y-72824500D01*
X99380441Y-72863021D01*
X99380439Y-72863021D01*
X99380439Y-72863022D01*
X99265411Y-72936945D01*
X99265410Y-72936945D01*
X99265410Y-72936946D01*
X99175868Y-73040284D01*
X99119069Y-73164654D01*
X99119067Y-73164662D01*
X99099610Y-73299997D01*
X99099610Y-73300002D01*
X99119068Y-73435340D01*
X99141356Y-73484146D01*
X99145717Y-73495492D01*
X99152022Y-73515484D01*
X99152024Y-73515488D01*
X99172025Y-73551943D01*
X99175275Y-73558418D01*
X99175867Y-73559714D01*
X99176897Y-73561317D01*
X99180401Y-73567209D01*
X99334052Y-73847248D01*
X99344355Y-73875554D01*
X99346322Y-73885444D01*
X99346326Y-73885457D01*
X99403838Y-74024306D01*
X99403839Y-74024307D01*
X99487333Y-74149270D01*
X99487335Y-74149272D01*
X99487338Y-74149276D01*
X99526553Y-74188491D01*
X99526556Y-74188496D01*
X99558490Y-74220429D01*
X99558492Y-74220430D01*
X99805943Y-74467881D01*
X99810372Y-74472611D01*
X99953775Y-74636135D01*
X99961658Y-74646408D01*
X100080674Y-74824534D01*
X100087145Y-74835742D01*
X100130100Y-74922849D01*
X100138879Y-74983401D01*
X100110389Y-75037549D01*
X100055513Y-75064610D01*
X99995212Y-75054247D01*
X99966489Y-75031464D01*
X99884591Y-74936947D01*
X99884590Y-74936946D01*
X99884589Y-74936945D01*
X99769561Y-74863022D01*
X99733788Y-74852518D01*
X99638368Y-74824500D01*
X99638367Y-74824500D01*
X99501633Y-74824500D01*
X99501631Y-74824500D01*
X99370441Y-74863021D01*
X99370439Y-74863021D01*
X99370439Y-74863022D01*
X99255411Y-74936945D01*
X99255410Y-74936945D01*
X99255410Y-74936946D01*
X99165868Y-75040284D01*
X99109069Y-75164654D01*
X99109067Y-75164662D01*
X99089610Y-75299997D01*
X99089610Y-75300002D01*
X99109067Y-75435337D01*
X99109069Y-75435342D01*
X99122514Y-75464784D01*
X99129279Y-75485244D01*
X99131869Y-75497379D01*
X99131874Y-75497396D01*
X99298924Y-75885232D01*
X99307000Y-75924395D01*
X99307000Y-89323516D01*
X99307018Y-89323708D01*
X99307018Y-89388658D01*
X99322322Y-89524500D01*
X99335473Y-89641232D01*
X99392029Y-89889034D01*
X99475974Y-90128945D01*
X99475978Y-90128953D01*
X99475979Y-90128956D01*
X99586255Y-90357951D01*
X99721475Y-90573159D01*
X99721480Y-90573165D01*
X99879952Y-90771888D01*
X99924675Y-90816611D01*
X99924678Y-90816615D01*
X99932824Y-90824761D01*
X99932825Y-90824763D01*
X99969815Y-90861753D01*
X99969816Y-90861755D01*
X100016517Y-90908457D01*
X100016531Y-90908469D01*
X105775453Y-96667391D01*
X105775454Y-96667393D01*
X105778474Y-96670413D01*
X105778503Y-96670469D01*
X105872693Y-96764657D01*
X105898098Y-96790062D01*
X106096822Y-96948536D01*
X106312041Y-97083763D01*
X106312044Y-97083764D01*
X106312045Y-97083765D01*
X106322818Y-97088953D01*
X106541047Y-97194044D01*
X106780960Y-97277990D01*
X107028764Y-97334547D01*
X107281342Y-97363002D01*
X107408431Y-97363000D01*
X109855603Y-97363000D01*
X109894765Y-97371074D01*
X110001495Y-97417045D01*
X110071217Y-97447075D01*
X110117181Y-97487460D01*
X110130630Y-97547149D01*
X110106427Y-97603343D01*
X110053815Y-97634579D01*
X110032054Y-97637000D01*
X94111661Y-97637000D01*
X94105188Y-97636788D01*
X94078541Y-97635041D01*
X93888174Y-97622567D01*
X93875335Y-97620877D01*
X93665211Y-97579083D01*
X93652706Y-97575732D01*
X93449842Y-97506872D01*
X93437884Y-97501919D01*
X93245736Y-97407165D01*
X93234521Y-97400690D01*
X93056389Y-97281669D01*
X93046125Y-97273795D01*
X92882817Y-97130580D01*
X92878103Y-97126165D01*
X92651940Y-96900002D01*
X98099610Y-96900002D01*
X98119067Y-97035337D01*
X98119069Y-97035345D01*
X98175868Y-97159715D01*
X98175869Y-97159716D01*
X98175870Y-97159718D01*
X98265411Y-97263055D01*
X98380439Y-97336978D01*
X98511633Y-97375500D01*
X98511634Y-97375500D01*
X98648366Y-97375500D01*
X98648367Y-97375500D01*
X98779561Y-97336978D01*
X98894589Y-97263055D01*
X98984130Y-97159718D01*
X99013377Y-97095677D01*
X99040930Y-97035345D01*
X99040932Y-97035337D01*
X99060390Y-96900002D01*
X99060390Y-96899997D01*
X99042490Y-96775499D01*
X99040931Y-96764658D01*
X99027483Y-96735213D01*
X99020718Y-96714752D01*
X99018127Y-96702612D01*
X99018126Y-96702611D01*
X99018126Y-96702608D01*
X98865674Y-96348660D01*
X98851075Y-96314764D01*
X98843000Y-96275601D01*
X98843000Y-72664678D01*
X110269500Y-72664678D01*
X110304490Y-72840582D01*
X110304490Y-72840584D01*
X110373122Y-73006279D01*
X110373128Y-73006291D01*
X110439252Y-73105250D01*
X110472768Y-73155410D01*
X110599590Y-73282232D01*
X110653478Y-73318239D01*
X110748708Y-73381871D01*
X110748720Y-73381877D01*
X110793495Y-73400423D01*
X110914417Y-73450510D01*
X111090324Y-73485500D01*
X111090325Y-73485500D01*
X123269675Y-73485500D01*
X123269676Y-73485500D01*
X123445583Y-73450510D01*
X123611284Y-73381875D01*
X123611286Y-73381873D01*
X123611291Y-73381871D01*
X123676151Y-73338532D01*
X123760410Y-73282232D01*
X123887232Y-73155410D01*
X123966536Y-73036724D01*
X123986871Y-73006291D01*
X123986877Y-73006279D01*
X124000040Y-72974500D01*
X124055510Y-72840583D01*
X124090500Y-72664676D01*
X124090500Y-72575000D01*
X124090500Y-72515979D01*
X124090500Y-67620957D01*
X124090500Y-67585324D01*
X124055510Y-67409417D01*
X123986875Y-67243716D01*
X123986871Y-67243708D01*
X123918781Y-67141806D01*
X123887232Y-67094590D01*
X123760410Y-66967768D01*
X123711878Y-66935340D01*
X123611291Y-66868128D01*
X123611279Y-66868122D01*
X123445583Y-66799490D01*
X123269678Y-66764500D01*
X123269676Y-66764500D01*
X123234043Y-66764500D01*
X111239021Y-66764500D01*
X111180000Y-66764500D01*
X111090324Y-66764500D01*
X111090321Y-66764500D01*
X110914417Y-66799490D01*
X110914415Y-66799490D01*
X110748720Y-66868122D01*
X110748708Y-66868128D01*
X110599590Y-66967768D01*
X110599586Y-66967771D01*
X110472771Y-67094586D01*
X110472768Y-67094590D01*
X110373128Y-67243708D01*
X110373122Y-67243720D01*
X110304490Y-67409415D01*
X110304490Y-67409417D01*
X110269500Y-67585321D01*
X110269500Y-72664678D01*
X98843000Y-72664678D01*
X98843000Y-70931660D01*
X98843212Y-70925187D01*
X98843575Y-70919648D01*
X98857433Y-70708166D01*
X98859120Y-70695343D01*
X98900918Y-70485201D01*
X98904263Y-70472716D01*
X98973129Y-70269838D01*
X98978079Y-70257886D01*
X99072843Y-70065718D01*
X99079305Y-70054527D01*
X99171563Y-69916448D01*
X99217833Y-69879244D01*
X99548976Y-69749794D01*
X99551193Y-69748912D01*
X99551376Y-69748838D01*
X99551384Y-69748832D01*
X99555735Y-69746547D01*
X99556065Y-69747175D01*
X99575416Y-69738194D01*
X99579561Y-69736978D01*
X99694589Y-69663055D01*
X99784130Y-69559718D01*
X99840931Y-69435342D01*
X99843050Y-69420604D01*
X99860390Y-69300002D01*
X99860390Y-69299997D01*
X99840932Y-69164662D01*
X99840930Y-69164654D01*
X99811404Y-69100002D01*
X101199610Y-69100002D01*
X101219067Y-69235337D01*
X101219069Y-69235345D01*
X101275868Y-69359715D01*
X101275869Y-69359716D01*
X101275870Y-69359718D01*
X101365411Y-69463055D01*
X101480439Y-69536978D01*
X101611633Y-69575500D01*
X101611634Y-69575500D01*
X101748366Y-69575500D01*
X101748367Y-69575500D01*
X101879561Y-69536978D01*
X101994589Y-69463055D01*
X102084130Y-69359718D01*
X102111537Y-69299703D01*
X102118508Y-69286995D01*
X102129378Y-69270226D01*
X102285501Y-68877854D01*
X102307480Y-68844456D01*
X104177896Y-66974041D01*
X104182596Y-66969640D01*
X104301349Y-66865499D01*
X104346135Y-66826224D01*
X104356398Y-66818348D01*
X104534545Y-66699318D01*
X104545730Y-66692860D01*
X104737890Y-66598099D01*
X104749849Y-66593147D01*
X104952715Y-66524286D01*
X104965211Y-66520937D01*
X105175349Y-66479140D01*
X105188167Y-66477453D01*
X105354175Y-66466574D01*
X105405496Y-66463212D01*
X105411969Y-66463000D01*
X105454797Y-66463000D01*
X123505203Y-66463000D01*
X123548339Y-66463000D01*
X123554812Y-66463212D01*
X123771831Y-66477433D01*
X123784658Y-66479121D01*
X123994794Y-66520917D01*
X124007287Y-66524264D01*
X124210155Y-66593127D01*
X124222118Y-66598082D01*
X124414264Y-66692835D01*
X124425479Y-66699310D01*
X124603611Y-66818331D01*
X124613872Y-66826204D01*
X124777183Y-66969420D01*
X124781896Y-66973834D01*
X124909209Y-67101147D01*
X124936986Y-67155664D01*
X124937442Y-67183420D01*
X124902720Y-67461429D01*
X124901549Y-67473879D01*
X124901464Y-67475222D01*
X124901465Y-67475223D01*
X124901054Y-67481888D01*
X124901010Y-67481885D01*
X124900456Y-67494114D01*
X124899610Y-67499999D01*
X124899610Y-67500002D01*
X124919067Y-67635337D01*
X124919069Y-67635345D01*
X124975868Y-67759715D01*
X124975869Y-67759716D01*
X124975870Y-67759718D01*
X125065411Y-67863055D01*
X125180439Y-67936978D01*
X125311633Y-67975500D01*
X125311634Y-67975500D01*
X125448366Y-67975500D01*
X125448367Y-67975500D01*
X125579561Y-67936978D01*
X125694589Y-67863055D01*
X125784130Y-67759718D01*
X125827924Y-67663823D01*
X125840930Y-67635345D01*
X125840932Y-67635337D01*
X125860390Y-67500002D01*
X125860390Y-67499997D01*
X125840932Y-67364662D01*
X125840930Y-67364654D01*
X125784131Y-67240283D01*
X125784130Y-67240281D01*
X125728532Y-67176116D01*
X125721078Y-67166349D01*
X125711394Y-67151879D01*
X125647140Y-67087727D01*
X125400884Y-66841862D01*
X125400880Y-66841859D01*
X125387730Y-66833084D01*
X125372677Y-66820739D01*
X125198470Y-66646532D01*
X125198468Y-66646529D01*
X125181525Y-66629586D01*
X125181496Y-66629530D01*
X125061901Y-66509937D01*
X124863178Y-66351464D01*
X124758192Y-66285499D01*
X124647959Y-66216237D01*
X124647958Y-66216236D01*
X124647954Y-66216234D01*
X124418957Y-66105958D01*
X124418953Y-66105956D01*
X124179040Y-66022010D01*
X124179039Y-66022009D01*
X124179034Y-66022008D01*
X123931236Y-65965453D01*
X123678658Y-65936998D01*
X123551569Y-65937000D01*
X105346675Y-65937000D01*
X105346477Y-65937018D01*
X105281341Y-65937018D01*
X105028767Y-65965473D01*
X104823173Y-66012396D01*
X104780966Y-66022029D01*
X104541055Y-66105974D01*
X104541048Y-66105976D01*
X104541043Y-66105979D01*
X104312048Y-66216255D01*
X104096840Y-66351475D01*
X103898108Y-66509955D01*
X103850883Y-66557178D01*
X103850884Y-66557179D01*
X103850881Y-66557182D01*
X103850880Y-66557182D01*
X103808247Y-66599813D01*
X103808248Y-66599814D01*
X103808247Y-66599815D01*
X103775455Y-66632606D01*
X103775454Y-66632607D01*
X103775452Y-66632608D01*
X101935545Y-68472515D01*
X101902143Y-68494496D01*
X101509654Y-68650669D01*
X101505224Y-68652973D01*
X101504966Y-68652478D01*
X101485142Y-68661640D01*
X101480443Y-68663019D01*
X101480435Y-68663023D01*
X101365412Y-68736943D01*
X101275868Y-68840284D01*
X101219069Y-68964654D01*
X101219067Y-68964662D01*
X101199610Y-69099997D01*
X101199610Y-69100002D01*
X99811404Y-69100002D01*
X99784131Y-69040284D01*
X99784130Y-69040283D01*
X99784130Y-69040282D01*
X99694589Y-68936945D01*
X99579561Y-68863022D01*
X99579558Y-68863021D01*
X99448368Y-68824500D01*
X99448367Y-68824500D01*
X99311633Y-68824500D01*
X99311631Y-68824500D01*
X99180441Y-68863021D01*
X99180439Y-68863021D01*
X99180439Y-68863022D01*
X99065411Y-68936945D01*
X99065410Y-68936945D01*
X99065410Y-68936946D01*
X98975868Y-69040283D01*
X98943488Y-69111185D01*
X98938833Y-69120139D01*
X98927742Y-69139049D01*
X98927740Y-69139053D01*
X98790908Y-69533237D01*
X98774786Y-69562496D01*
X98731463Y-69616822D01*
X98596234Y-69832045D01*
X98485958Y-70061042D01*
X98485956Y-70061047D01*
X98479957Y-70078193D01*
X98402008Y-70300965D01*
X98345453Y-70548763D01*
X98316998Y-70801339D01*
X98316998Y-70801342D01*
X98317000Y-70916392D01*
X98317000Y-96275601D01*
X98308925Y-96314764D01*
X98141824Y-96702724D01*
X98139461Y-96714085D01*
X98132591Y-96735046D01*
X98119069Y-96764657D01*
X98119067Y-96764662D01*
X98099610Y-96899997D01*
X98099610Y-96900002D01*
X92651940Y-96900002D01*
X92507482Y-96755544D01*
X92485500Y-96722141D01*
X92479424Y-96706872D01*
X92329331Y-96329658D01*
X92319016Y-96313926D01*
X92311754Y-96300770D01*
X92293471Y-96260737D01*
X92284130Y-96240282D01*
X92194589Y-96136945D01*
X92079561Y-96063022D01*
X92079558Y-96063021D01*
X91948368Y-96024500D01*
X91948367Y-96024500D01*
X91811633Y-96024500D01*
X91811631Y-96024500D01*
X91680441Y-96063021D01*
X91680439Y-96063021D01*
X91680439Y-96063022D01*
X91565411Y-96136945D01*
X91565410Y-96136945D01*
X91565410Y-96136946D01*
X91475868Y-96240284D01*
X91419069Y-96364654D01*
X91419067Y-96364662D01*
X91399610Y-96499997D01*
X91399610Y-96500002D01*
X91419067Y-96635337D01*
X91419069Y-96635345D01*
X91475868Y-96759715D01*
X91475869Y-96759716D01*
X91475870Y-96759718D01*
X91545680Y-96840284D01*
X91565412Y-96863056D01*
X91622899Y-96900000D01*
X91680439Y-96936978D01*
X91685238Y-96938386D01*
X91705227Y-96947563D01*
X91705445Y-96947142D01*
X91709769Y-96949375D01*
X91709773Y-96949378D01*
X92102142Y-97105500D01*
X92135544Y-97127482D01*
X92475454Y-97467392D01*
X92475455Y-97467394D01*
X92478475Y-97470414D01*
X92478504Y-97470470D01*
X92598099Y-97590063D01*
X92786483Y-97740292D01*
X92796823Y-97748537D01*
X93012041Y-97883764D01*
X93241047Y-97994044D01*
X93480961Y-98077990D01*
X93728765Y-98134547D01*
X93981343Y-98163002D01*
X94108431Y-98163000D01*
X112451569Y-98163000D01*
X112503887Y-98163000D01*
X112513980Y-98163000D01*
X112514167Y-98162980D01*
X112578656Y-98162982D01*
X112831232Y-98134527D01*
X113079034Y-98077971D01*
X113318946Y-97994025D01*
X113318954Y-97994020D01*
X113318957Y-97994020D01*
X113382467Y-97963436D01*
X113443099Y-97955223D01*
X113496978Y-97984217D01*
X113523525Y-98039343D01*
X113512600Y-98099546D01*
X113495425Y-98122636D01*
X112392118Y-99225943D01*
X112387388Y-99230372D01*
X112223864Y-99373775D01*
X112213591Y-99381658D01*
X112035473Y-99500670D01*
X112024258Y-99507145D01*
X111832115Y-99601897D01*
X111820150Y-99606852D01*
X111617284Y-99675713D01*
X111604776Y-99679065D01*
X111394662Y-99720857D01*
X111381823Y-99722547D01*
X111164505Y-99736788D01*
X111158031Y-99737000D01*
X71926661Y-99737000D01*
X71920188Y-99736788D01*
X71893852Y-99735062D01*
X71703173Y-99722567D01*
X71690334Y-99720877D01*
X71480217Y-99679084D01*
X71467709Y-99675732D01*
X71264840Y-99606870D01*
X71252876Y-99601915D01*
X71060734Y-99507164D01*
X71049518Y-99500689D01*
X70871392Y-99381671D01*
X70861119Y-99373788D01*
X70697816Y-99230578D01*
X70693086Y-99226149D01*
X59254050Y-87787113D01*
X59249630Y-87782394D01*
X59106219Y-87618861D01*
X59098350Y-87608605D01*
X58979323Y-87430465D01*
X58972851Y-87419255D01*
X58972660Y-87418868D01*
X58878100Y-87227115D01*
X58873146Y-87215151D01*
X58804285Y-87012285D01*
X58800935Y-86999785D01*
X58759139Y-86789653D01*
X58757452Y-86776831D01*
X58743212Y-86559519D01*
X58743000Y-86553046D01*
X58743000Y-84624398D01*
X58751075Y-84585235D01*
X58782128Y-84513139D01*
X58918175Y-84197276D01*
X58920536Y-84185916D01*
X58927407Y-84164953D01*
X58940931Y-84135342D01*
X58945519Y-84103437D01*
X58960390Y-84000002D01*
X58960390Y-83999997D01*
X58940932Y-83864662D01*
X58940930Y-83864654D01*
X58884131Y-83740284D01*
X58884130Y-83740283D01*
X58884130Y-83740282D01*
X58794589Y-83636945D01*
X58679561Y-83563022D01*
X58679558Y-83563021D01*
X58548368Y-83524500D01*
X58548367Y-83524500D01*
X58411633Y-83524500D01*
X58411631Y-83524500D01*
X58280441Y-83563021D01*
X58280439Y-83563021D01*
X58280439Y-83563022D01*
X58165411Y-83636945D01*
X58165410Y-83636945D01*
X58165410Y-83636946D01*
X58075868Y-83740284D01*
X58019069Y-83864654D01*
X58019067Y-83864662D01*
X57999610Y-83999997D01*
X57999610Y-84000002D01*
X58019067Y-84135337D01*
X58019069Y-84135342D01*
X58032514Y-84164784D01*
X58039279Y-84185244D01*
X58041869Y-84197379D01*
X58041874Y-84197396D01*
X58208924Y-84585232D01*
X58217000Y-84624395D01*
X58217000Y-86618642D01*
X58217017Y-86618820D01*
X58217017Y-86683659D01*
X58245472Y-86936233D01*
X58302026Y-87184029D01*
X58302027Y-87184034D01*
X58302028Y-87184035D01*
X58377531Y-87399818D01*
X58385978Y-87423957D01*
X58496254Y-87652952D01*
X58631474Y-87868161D01*
X58755660Y-88023887D01*
X58789952Y-88066889D01*
X58834675Y-88111612D01*
X58834678Y-88111616D01*
X58842824Y-88119762D01*
X58842825Y-88119764D01*
X58879815Y-88156754D01*
X58879816Y-88156756D01*
X58926517Y-88203458D01*
X58926531Y-88203470D01*
X70290452Y-99567391D01*
X70290453Y-99567393D01*
X70293473Y-99570413D01*
X70293502Y-99570469D01*
X70323231Y-99600197D01*
X70413097Y-99690061D01*
X70611821Y-99848535D01*
X70827040Y-99983763D01*
X70970026Y-100052619D01*
X71056037Y-100094039D01*
X71056036Y-100094039D01*
X71056042Y-100094041D01*
X71056046Y-100094043D01*
X71295959Y-100177990D01*
X71543763Y-100234546D01*
X71796341Y-100263002D01*
X71923429Y-100263000D01*
X94012706Y-100263000D01*
X94070897Y-100281907D01*
X94106861Y-100331407D01*
X94106861Y-100392593D01*
X94087525Y-100426831D01*
X94075869Y-100440281D01*
X94075868Y-100440283D01*
X94019069Y-100564654D01*
X94019067Y-100564662D01*
X93999610Y-100699997D01*
X93999610Y-100700002D01*
X94019067Y-100835337D01*
X94019069Y-100835345D01*
X94075868Y-100959715D01*
X94075869Y-100959716D01*
X94075870Y-100959718D01*
X94165411Y-101063055D01*
X94280439Y-101136978D01*
X94309653Y-101145556D01*
X94325761Y-101151860D01*
X94333904Y-101155900D01*
X94774730Y-101275139D01*
X94801549Y-101286880D01*
X94874335Y-101332617D01*
X94957831Y-101372828D01*
X95128852Y-101455191D01*
X95395487Y-101548497D01*
X95533189Y-101579929D01*
X95670887Y-101611361D01*
X95670888Y-101611361D01*
X95670892Y-101611362D01*
X95951605Y-101642996D01*
X96025878Y-101642996D01*
X96025891Y-101642999D01*
X96092850Y-101642999D01*
X96139224Y-101643000D01*
X96139227Y-101642999D01*
X120806457Y-101642999D01*
X120811810Y-101642999D01*
X120811850Y-101643011D01*
X120852830Y-101643011D01*
X120852830Y-101643012D01*
X120981590Y-101643011D01*
X121237490Y-101614175D01*
X121488553Y-101556868D01*
X121488565Y-101556863D01*
X121488569Y-101556863D01*
X121634322Y-101505859D01*
X121731621Y-101471813D01*
X121963637Y-101360078D01*
X122181685Y-101223068D01*
X122383021Y-101062506D01*
X122445071Y-101000454D01*
X122445075Y-101000452D01*
X122506859Y-100938668D01*
X122506859Y-100938667D01*
X124681951Y-98763575D01*
X124692882Y-98752645D01*
X124692881Y-98752644D01*
X124721850Y-98723679D01*
X124721874Y-98723651D01*
X124729878Y-98715648D01*
X124729878Y-98715646D01*
X124737004Y-98708521D01*
X124737158Y-98708332D01*
X124776967Y-98668526D01*
X124776974Y-98668518D01*
X124921787Y-98479804D01*
X124921788Y-98479802D01*
X124921792Y-98479797D01*
X125040740Y-98273783D01*
X125067663Y-98208790D01*
X125131778Y-98054010D01*
X125131778Y-98054009D01*
X125131780Y-98054005D01*
X125193355Y-97824225D01*
X125201751Y-97760455D01*
X125228092Y-97705231D01*
X125281863Y-97676037D01*
X125342525Y-97684023D01*
X125386907Y-97726141D01*
X125388113Y-97728432D01*
X125392406Y-97736858D01*
X125393632Y-97739263D01*
X125524130Y-97918879D01*
X125681121Y-98075870D01*
X125860737Y-98206368D01*
X126058556Y-98307162D01*
X126269707Y-98375769D01*
X126269708Y-98375769D01*
X126269711Y-98375770D01*
X126488988Y-98410500D01*
X126488991Y-98410500D01*
X126545957Y-98410500D01*
X127990500Y-98410500D01*
X128048691Y-98429407D01*
X128084655Y-98478907D01*
X128089500Y-98509500D01*
X128089500Y-99997226D01*
X128089344Y-100002777D01*
X128073529Y-100284381D01*
X128072286Y-100295413D01*
X128025508Y-100570732D01*
X128023038Y-100581556D01*
X127945724Y-100849917D01*
X127942057Y-100860396D01*
X127835185Y-101118407D01*
X127830368Y-101128409D01*
X127695282Y-101372828D01*
X127689376Y-101382228D01*
X127527766Y-101609997D01*
X127520844Y-101618677D01*
X127334758Y-101826907D01*
X127326907Y-101834758D01*
X127118677Y-102020844D01*
X127109997Y-102027766D01*
X126882228Y-102189376D01*
X126872828Y-102195282D01*
X126628409Y-102330368D01*
X126618407Y-102335185D01*
X126360396Y-102442057D01*
X126349917Y-102445724D01*
X126081556Y-102523038D01*
X126070732Y-102525508D01*
X125795413Y-102572286D01*
X125784381Y-102573529D01*
X125502778Y-102589344D01*
X125497227Y-102589500D01*
X53002773Y-102589500D01*
X52997222Y-102589344D01*
X52715618Y-102573529D01*
X52704586Y-102572286D01*
X52429267Y-102525508D01*
X52418443Y-102523038D01*
X52150082Y-102445724D01*
X52139603Y-102442057D01*
X51881592Y-102335185D01*
X51871590Y-102330368D01*
X51627171Y-102195282D01*
X51617771Y-102189376D01*
X51390002Y-102027766D01*
X51381327Y-102020848D01*
X51173084Y-101834750D01*
X51165249Y-101826915D01*
X50979149Y-101618669D01*
X50972233Y-101609997D01*
X50810623Y-101382228D01*
X50804717Y-101372828D01*
X50669631Y-101128409D01*
X50664814Y-101118407D01*
X50659049Y-101104488D01*
X50557940Y-100860392D01*
X50554275Y-100849917D01*
X50476957Y-100581541D01*
X50474496Y-100570756D01*
X50466905Y-100526080D01*
X50475800Y-100465545D01*
X50518577Y-100421799D01*
X50564507Y-100410500D01*
X53975271Y-100410500D01*
X54069363Y-100395596D01*
X54163459Y-100380693D01*
X54344671Y-100321814D01*
X54514440Y-100235312D01*
X54515495Y-100234546D01*
X54668582Y-100123322D01*
X54668588Y-100123318D01*
X54803318Y-99988588D01*
X54898937Y-99856978D01*
X54915310Y-99834443D01*
X54915312Y-99834440D01*
X55001814Y-99664671D01*
X55060693Y-99483459D01*
X55077388Y-99378050D01*
X55090500Y-99295271D01*
X55090500Y-73204728D01*
X55067873Y-73061876D01*
X55060693Y-73016541D01*
X55001814Y-72835329D01*
X54981424Y-72795313D01*
X54971853Y-72734883D01*
X54999626Y-72680370D01*
X56049998Y-71629999D01*
X56049998Y-66200005D01*
X58999607Y-66200005D01*
X59019064Y-66335340D01*
X59019066Y-66335345D01*
X59032511Y-66364787D01*
X59039276Y-66385247D01*
X59041866Y-66397382D01*
X59041871Y-66397399D01*
X59208921Y-66785235D01*
X59216997Y-66824398D01*
X59216997Y-86418476D01*
X59217017Y-86418688D01*
X59217017Y-86483656D01*
X59231789Y-86614776D01*
X59245472Y-86736230D01*
X59302027Y-86984032D01*
X59365803Y-87166298D01*
X59385977Y-87223954D01*
X59496253Y-87452949D01*
X59631473Y-87668158D01*
X59642422Y-87681888D01*
X59789950Y-87866887D01*
X59789953Y-87866890D01*
X59837177Y-87914115D01*
X59837181Y-87914120D01*
X59857985Y-87934925D01*
X59857986Y-87934925D01*
X59879813Y-87956752D01*
X59879813Y-87956753D01*
X59926515Y-88003456D01*
X59926529Y-88003468D01*
X67190453Y-95267392D01*
X67190454Y-95267394D01*
X67194237Y-95271177D01*
X67194265Y-95271231D01*
X67298749Y-95375713D01*
X67313098Y-95390062D01*
X67511822Y-95548536D01*
X67727041Y-95683763D01*
X67956046Y-95794044D01*
X68195960Y-95877990D01*
X68443763Y-95934546D01*
X68696341Y-95963002D01*
X68823429Y-95963000D01*
X89051569Y-95963000D01*
X89103887Y-95963000D01*
X89113980Y-95963000D01*
X89114167Y-95962980D01*
X89178656Y-95962982D01*
X89431232Y-95934527D01*
X89679034Y-95877971D01*
X89805409Y-95833751D01*
X89866573Y-95832380D01*
X89916868Y-95867224D01*
X89937076Y-95924976D01*
X89920567Y-95981973D01*
X89904939Y-96005501D01*
X89897297Y-96015551D01*
X89875868Y-96040284D01*
X89865048Y-96063975D01*
X89859976Y-96073633D01*
X89852557Y-96086046D01*
X89851502Y-96088018D01*
X89847903Y-96095071D01*
X89847107Y-96098502D01*
X89840728Y-96117229D01*
X89819070Y-96164657D01*
X89819068Y-96164661D01*
X89819067Y-96164663D01*
X89799610Y-96299997D01*
X89799610Y-96300002D01*
X89819067Y-96435337D01*
X89819069Y-96435345D01*
X89875868Y-96559715D01*
X89875869Y-96559716D01*
X89875870Y-96559718D01*
X89965411Y-96663055D01*
X90080439Y-96736978D01*
X90211633Y-96775500D01*
X90211634Y-96775500D01*
X90348366Y-96775500D01*
X90348367Y-96775500D01*
X90479561Y-96736978D01*
X90594589Y-96663055D01*
X90684130Y-96559718D01*
X90719682Y-96481871D01*
X90740930Y-96435345D01*
X90740932Y-96435337D01*
X90760390Y-96300002D01*
X90760390Y-96299997D01*
X90740932Y-96164662D01*
X90740931Y-96164660D01*
X90740931Y-96164658D01*
X90738313Y-96158925D01*
X90732362Y-96138953D01*
X90731943Y-96139060D01*
X90662141Y-95864445D01*
X90666130Y-95803390D01*
X90681558Y-95777256D01*
X90755712Y-95686897D01*
X90762218Y-95679718D01*
X93567896Y-92874041D01*
X93572596Y-92869640D01*
X93689115Y-92767458D01*
X93736135Y-92726224D01*
X93746398Y-92718348D01*
X93924545Y-92599318D01*
X93935730Y-92592860D01*
X94127890Y-92498099D01*
X94139849Y-92493147D01*
X94342715Y-92424286D01*
X94355211Y-92420937D01*
X94565349Y-92379140D01*
X94578167Y-92377453D01*
X94744175Y-92366574D01*
X94795496Y-92363212D01*
X94801969Y-92363000D01*
X94844797Y-92363000D01*
X96155603Y-92363000D01*
X96194765Y-92371074D01*
X96582723Y-92538174D01*
X96584951Y-92538637D01*
X96592665Y-92540567D01*
X96711633Y-92575500D01*
X96711634Y-92575500D01*
X96848366Y-92575500D01*
X96848367Y-92575500D01*
X96979561Y-92536978D01*
X97094589Y-92463055D01*
X97143180Y-92406976D01*
X97195576Y-92375380D01*
X97256537Y-92380615D01*
X97302778Y-92420683D01*
X97317000Y-92471807D01*
X97317000Y-93568339D01*
X97316788Y-93574813D01*
X97302567Y-93791825D01*
X97300877Y-93804664D01*
X97259084Y-94014786D01*
X97255732Y-94027295D01*
X97186872Y-94230155D01*
X97181917Y-94242118D01*
X97087164Y-94434264D01*
X97080689Y-94445480D01*
X96961671Y-94623607D01*
X96953788Y-94633881D01*
X96810586Y-94797174D01*
X96806157Y-94801903D01*
X96635545Y-94972515D01*
X96602143Y-94994496D01*
X96209654Y-95150669D01*
X96205224Y-95152973D01*
X96204966Y-95152478D01*
X96185142Y-95161640D01*
X96180443Y-95163019D01*
X96180435Y-95163023D01*
X96065412Y-95236943D01*
X95975868Y-95340284D01*
X95919069Y-95464654D01*
X95919067Y-95464662D01*
X95899610Y-95599997D01*
X95899610Y-95600002D01*
X95919067Y-95735337D01*
X95919069Y-95735345D01*
X95975868Y-95859715D01*
X95975869Y-95859716D01*
X95975870Y-95859718D01*
X96065411Y-95963055D01*
X96180439Y-96036978D01*
X96311633Y-96075500D01*
X96311634Y-96075500D01*
X96448366Y-96075500D01*
X96448367Y-96075500D01*
X96579561Y-96036978D01*
X96694589Y-95963055D01*
X96784130Y-95859718D01*
X96811537Y-95799703D01*
X96818508Y-95786995D01*
X96829378Y-95770226D01*
X96985501Y-95377854D01*
X97007480Y-95344456D01*
X97133468Y-95218469D01*
X97133471Y-95218467D01*
X97147392Y-95204546D01*
X97147393Y-95204546D01*
X97150412Y-95201525D01*
X97150468Y-95201497D01*
X97180197Y-95171768D01*
X97270062Y-95081902D01*
X97428536Y-94883178D01*
X97563763Y-94667959D01*
X97674044Y-94438953D01*
X97757990Y-94199040D01*
X97814547Y-93951236D01*
X97843002Y-93698658D01*
X97843000Y-93571569D01*
X97843000Y-93554283D01*
X97843000Y-75276113D01*
X97843000Y-75266218D01*
X97842980Y-75266022D01*
X97842982Y-75201344D01*
X97814527Y-74948768D01*
X97757971Y-74700966D01*
X97674026Y-74461055D01*
X97563746Y-74232051D01*
X97520373Y-74163021D01*
X97428524Y-74016840D01*
X97323752Y-73885457D01*
X97270048Y-73818112D01*
X97231096Y-73779160D01*
X97231094Y-73779156D01*
X97180185Y-73728246D01*
X97180185Y-73728247D01*
X97147394Y-73695455D01*
X97147392Y-73695454D01*
X95707482Y-72255544D01*
X95685500Y-72222141D01*
X95673335Y-72191569D01*
X95529331Y-71829658D01*
X95524598Y-71822440D01*
X95519016Y-71813926D01*
X95511754Y-71800770D01*
X95499486Y-71773908D01*
X95484130Y-71740282D01*
X95394589Y-71636945D01*
X95279561Y-71563022D01*
X95279558Y-71563021D01*
X95148368Y-71524500D01*
X95148367Y-71524500D01*
X95011633Y-71524500D01*
X95011631Y-71524500D01*
X94880441Y-71563021D01*
X94880439Y-71563021D01*
X94880439Y-71563022D01*
X94765411Y-71636945D01*
X94765410Y-71636945D01*
X94765410Y-71636946D01*
X94675868Y-71740284D01*
X94619069Y-71864654D01*
X94619067Y-71864662D01*
X94599610Y-71999997D01*
X94599610Y-72000002D01*
X94619067Y-72135337D01*
X94619069Y-72135345D01*
X94675868Y-72259715D01*
X94675869Y-72259716D01*
X94675870Y-72259718D01*
X94762368Y-72359543D01*
X94765412Y-72363056D01*
X94804225Y-72387999D01*
X94880439Y-72436978D01*
X94885238Y-72438386D01*
X94905227Y-72447563D01*
X94905445Y-72447142D01*
X94909769Y-72449375D01*
X94909773Y-72449378D01*
X95302142Y-72605500D01*
X95335544Y-72627482D01*
X96805943Y-74097881D01*
X96810372Y-74102611D01*
X96953775Y-74266135D01*
X96961658Y-74276408D01*
X97080674Y-74454534D01*
X97087145Y-74465741D01*
X97181897Y-74657884D01*
X97186852Y-74669849D01*
X97255713Y-74872715D01*
X97259065Y-74885223D01*
X97300857Y-75095337D01*
X97302547Y-75108176D01*
X97316788Y-75325494D01*
X97317000Y-75331968D01*
X97317000Y-91728192D01*
X97298093Y-91786383D01*
X97248593Y-91822347D01*
X97187407Y-91822347D01*
X97143180Y-91793023D01*
X97094589Y-91736945D01*
X96979561Y-91663022D01*
X96979558Y-91663021D01*
X96848368Y-91624500D01*
X96848367Y-91624500D01*
X96711633Y-91624500D01*
X96711629Y-91624500D01*
X96592569Y-91659459D01*
X96585362Y-91661284D01*
X96584516Y-91661464D01*
X96582607Y-91661872D01*
X96582602Y-91661874D01*
X96194766Y-91828924D01*
X96155603Y-91837000D01*
X94736675Y-91837000D01*
X94736477Y-91837018D01*
X94671341Y-91837018D01*
X94418767Y-91865473D01*
X94346594Y-91881945D01*
X94285655Y-91876460D01*
X94239579Y-91836203D01*
X94225965Y-91776551D01*
X94250013Y-91720290D01*
X94259293Y-91710993D01*
X94276136Y-91696223D01*
X94286398Y-91688348D01*
X94464545Y-91569318D01*
X94475730Y-91562860D01*
X94667890Y-91468099D01*
X94679849Y-91463147D01*
X94882715Y-91394286D01*
X94895211Y-91390937D01*
X95105347Y-91349140D01*
X95118167Y-91347453D01*
X95153639Y-91345128D01*
X95201830Y-91354135D01*
X95523531Y-91503629D01*
X95525570Y-91504753D01*
X95530438Y-91506977D01*
X95530439Y-91506978D01*
X95661633Y-91545500D01*
X95661634Y-91545500D01*
X95798366Y-91545500D01*
X95798367Y-91545500D01*
X95929561Y-91506978D01*
X96044589Y-91433055D01*
X96134130Y-91329718D01*
X96183561Y-91221480D01*
X96190930Y-91205345D01*
X96190932Y-91205337D01*
X96210390Y-91070002D01*
X96210390Y-91069997D01*
X96190932Y-90934662D01*
X96190930Y-90934654D01*
X96134131Y-90810284D01*
X96134130Y-90810283D01*
X96134130Y-90810282D01*
X96044589Y-90706945D01*
X95929561Y-90633022D01*
X95929558Y-90633021D01*
X95798368Y-90594500D01*
X95798367Y-90594500D01*
X95661633Y-90594500D01*
X95661631Y-90594500D01*
X95530438Y-90633022D01*
X95524362Y-90635795D01*
X95523641Y-90636189D01*
X95143106Y-90809778D01*
X95113102Y-90818085D01*
X94958768Y-90835473D01*
X94783393Y-90875499D01*
X94710966Y-90892029D01*
X94471055Y-90975974D01*
X94471048Y-90975976D01*
X94471043Y-90975979D01*
X94242048Y-91086255D01*
X94026840Y-91221475D01*
X93828108Y-91379955D01*
X93780882Y-91427179D01*
X93780883Y-91427180D01*
X93780880Y-91427183D01*
X93780879Y-91427183D01*
X93738247Y-91469813D01*
X93738248Y-91469814D01*
X93738247Y-91469815D01*
X93705455Y-91502606D01*
X93705454Y-91502607D01*
X93705452Y-91502608D01*
X90312611Y-94895451D01*
X90312609Y-94895452D01*
X90282111Y-94925949D01*
X90277384Y-94930377D01*
X90113874Y-95073769D01*
X90103600Y-95081652D01*
X89925470Y-95200672D01*
X89914254Y-95207147D01*
X89722114Y-95301897D01*
X89710150Y-95306852D01*
X89507284Y-95375713D01*
X89494776Y-95379065D01*
X89284662Y-95420857D01*
X89271823Y-95422547D01*
X89054505Y-95436788D01*
X89048031Y-95437000D01*
X68826661Y-95437000D01*
X68820188Y-95436788D01*
X68793852Y-95435062D01*
X68603173Y-95422567D01*
X68590334Y-95420877D01*
X68380210Y-95379082D01*
X68367705Y-95375731D01*
X68164841Y-95306871D01*
X68152883Y-95301918D01*
X67960735Y-95207164D01*
X67949520Y-95200689D01*
X67771388Y-95081668D01*
X67761124Y-95073794D01*
X67597808Y-94930572D01*
X67593094Y-94926157D01*
X60254038Y-87587101D01*
X60249609Y-87582371D01*
X60229743Y-87559718D01*
X60136111Y-87452947D01*
X60106225Y-87418868D01*
X60098342Y-87408594D01*
X60019151Y-87290073D01*
X59979324Y-87230466D01*
X59972852Y-87219256D01*
X59878100Y-87027112D01*
X59873145Y-87015148D01*
X59804284Y-86812282D01*
X59800934Y-86799782D01*
X59759139Y-86589652D01*
X59757452Y-86576829D01*
X59743776Y-86368122D01*
X59743209Y-86359471D01*
X59742997Y-86352998D01*
X59742997Y-66824401D01*
X59751072Y-66785238D01*
X59764934Y-66753055D01*
X59918172Y-66397279D01*
X59920533Y-66385919D01*
X59927404Y-66364956D01*
X59940928Y-66335345D01*
X59942488Y-66324500D01*
X59960387Y-66200005D01*
X59960387Y-66200000D01*
X59940929Y-66064665D01*
X59940927Y-66064657D01*
X59884128Y-65940287D01*
X59884127Y-65940286D01*
X59884127Y-65940285D01*
X59794586Y-65836948D01*
X59679558Y-65763025D01*
X59679555Y-65763024D01*
X59548365Y-65724503D01*
X59548364Y-65724503D01*
X59411630Y-65724503D01*
X59411628Y-65724503D01*
X59280438Y-65763024D01*
X59280436Y-65763024D01*
X59280436Y-65763025D01*
X59165408Y-65836948D01*
X59165407Y-65836948D01*
X59165407Y-65836949D01*
X59075865Y-65940287D01*
X59019066Y-66064657D01*
X59019064Y-66064665D01*
X58999607Y-66200000D01*
X58999607Y-66200005D01*
X56049998Y-66200005D01*
X56049998Y-60310223D01*
X56068905Y-60252032D01*
X56118405Y-60216068D01*
X56179591Y-60216068D01*
X56229091Y-60252032D01*
X56239049Y-60269092D01*
X56275870Y-60349718D01*
X56365411Y-60453055D01*
X56480439Y-60526978D01*
X56611633Y-60565500D01*
X56611634Y-60565500D01*
X56748366Y-60565500D01*
X56748367Y-60565500D01*
X56879561Y-60526978D01*
X56994589Y-60453055D01*
X57084130Y-60349718D01*
X57099189Y-60316740D01*
X57119236Y-60287865D01*
X57920483Y-59486619D01*
X57925172Y-59482228D01*
X58070288Y-59354967D01*
X58080528Y-59347110D01*
X58238289Y-59241700D01*
X58249488Y-59235235D01*
X58419642Y-59151326D01*
X58431600Y-59146374D01*
X58611237Y-59085398D01*
X58623739Y-59082047D01*
X58809817Y-59045036D01*
X58822640Y-59043349D01*
X58979092Y-59033097D01*
X59015493Y-59030712D01*
X59021966Y-59030500D01*
X59077730Y-59030500D01*
X60980500Y-59030500D01*
X61038691Y-59049407D01*
X61074655Y-59098907D01*
X61079500Y-59129500D01*
X61079500Y-59881325D01*
X61060593Y-59939516D01*
X61011093Y-59975480D01*
X60949907Y-59975480D01*
X60926978Y-59964610D01*
X60908892Y-59952987D01*
X60863749Y-59923976D01*
X60798152Y-59904715D01*
X60732556Y-59885454D01*
X60732555Y-59885454D01*
X60595821Y-59885454D01*
X60595819Y-59885454D01*
X60464629Y-59923975D01*
X60464627Y-59923975D01*
X60464627Y-59923976D01*
X60349599Y-59997899D01*
X60349598Y-59997899D01*
X60349598Y-59997900D01*
X60260056Y-60101238D01*
X60203257Y-60225608D01*
X60203255Y-60225616D01*
X60183798Y-60360951D01*
X60183798Y-60360956D01*
X60203255Y-60496291D01*
X60203256Y-60496293D01*
X60203256Y-60496294D01*
X60203257Y-60496296D01*
X60240135Y-60577047D01*
X60242044Y-60581517D01*
X60245329Y-60589764D01*
X60245331Y-60589767D01*
X60247565Y-60594089D01*
X60247446Y-60594150D01*
X60250429Y-60599590D01*
X60260057Y-60620671D01*
X60260057Y-60620672D01*
X60276694Y-60639872D01*
X60284935Y-60650833D01*
X60348592Y-60748985D01*
X60468791Y-60934321D01*
X60471061Y-60937820D01*
X60487000Y-60991689D01*
X60487000Y-86483516D01*
X60487018Y-86483708D01*
X60487018Y-86548658D01*
X60502227Y-86683657D01*
X60515473Y-86801232D01*
X60572029Y-87049034D01*
X60655974Y-87288945D01*
X60655978Y-87288953D01*
X60655979Y-87288956D01*
X60766255Y-87517951D01*
X60901475Y-87733159D01*
X60907248Y-87740398D01*
X61059952Y-87931888D01*
X61104675Y-87976611D01*
X61104678Y-87976615D01*
X61112824Y-87984761D01*
X61112825Y-87984763D01*
X61149815Y-88021753D01*
X61149816Y-88021755D01*
X61196517Y-88068457D01*
X61196531Y-88068469D01*
X67095453Y-93967391D01*
X67095454Y-93967393D01*
X67098474Y-93970413D01*
X67098503Y-93970469D01*
X67203749Y-94075713D01*
X67218098Y-94090062D01*
X67416822Y-94248536D01*
X67632041Y-94383763D01*
X67861047Y-94494044D01*
X68100960Y-94577990D01*
X68348764Y-94634547D01*
X68601342Y-94663002D01*
X68728431Y-94663000D01*
X89151569Y-94663000D01*
X89203887Y-94663000D01*
X89213980Y-94663000D01*
X89214167Y-94662980D01*
X89278656Y-94662982D01*
X89531232Y-94634527D01*
X89779034Y-94577971D01*
X90018945Y-94494026D01*
X90247949Y-94383746D01*
X90463165Y-94248520D01*
X90471194Y-94242118D01*
X90661883Y-94090052D01*
X90661883Y-94090051D01*
X90661888Y-94090048D01*
X90700835Y-94051099D01*
X90700840Y-94051097D01*
X90751753Y-94000186D01*
X90798464Y-93953475D01*
X90798467Y-93953469D01*
X94124458Y-90627479D01*
X94157856Y-90605500D01*
X94550341Y-90449331D01*
X94550344Y-90449328D01*
X94554771Y-90447027D01*
X94555031Y-90447527D01*
X94574870Y-90438355D01*
X94579561Y-90436978D01*
X94694589Y-90363055D01*
X94784130Y-90259718D01*
X94821515Y-90177857D01*
X94840930Y-90135345D01*
X94840932Y-90135337D01*
X94860390Y-90000002D01*
X94860390Y-89999997D01*
X94840932Y-89864662D01*
X94840930Y-89864654D01*
X94784131Y-89740284D01*
X94784130Y-89740283D01*
X94784130Y-89740282D01*
X94694589Y-89636945D01*
X94579561Y-89563022D01*
X94579558Y-89563021D01*
X94448368Y-89524500D01*
X94448367Y-89524500D01*
X94311633Y-89524500D01*
X94311631Y-89524500D01*
X94180441Y-89563021D01*
X94180439Y-89563021D01*
X94180439Y-89563022D01*
X94065411Y-89636945D01*
X94065410Y-89636945D01*
X94065410Y-89636946D01*
X93975869Y-89740283D01*
X93948466Y-89800286D01*
X93941489Y-89813005D01*
X93930622Y-89829771D01*
X93916739Y-89864662D01*
X93774498Y-90222140D01*
X93752516Y-90255543D01*
X90382118Y-93625943D01*
X90377388Y-93630372D01*
X90213864Y-93773775D01*
X90203591Y-93781658D01*
X90025473Y-93900670D01*
X90014258Y-93907145D01*
X89822115Y-94001897D01*
X89810150Y-94006852D01*
X89607284Y-94075713D01*
X89594776Y-94079065D01*
X89384662Y-94120857D01*
X89371823Y-94122547D01*
X89154505Y-94136788D01*
X89148031Y-94137000D01*
X68731661Y-94137000D01*
X68725188Y-94136788D01*
X68698541Y-94135041D01*
X68508174Y-94122567D01*
X68495335Y-94120877D01*
X68285213Y-94079084D01*
X68272704Y-94075732D01*
X68069844Y-94006872D01*
X68057881Y-94001917D01*
X67865735Y-93907164D01*
X67854520Y-93900689D01*
X67676388Y-93781668D01*
X67666124Y-93773794D01*
X67502816Y-93630579D01*
X67498102Y-93626164D01*
X66036616Y-92164678D01*
X75144500Y-92164678D01*
X75179490Y-92340582D01*
X75179490Y-92340584D01*
X75248122Y-92506279D01*
X75248128Y-92506291D01*
X75310296Y-92599329D01*
X75347768Y-92655410D01*
X75474590Y-92782232D01*
X75537848Y-92824500D01*
X75623708Y-92881871D01*
X75623720Y-92881877D01*
X75667964Y-92900203D01*
X75789417Y-92950510D01*
X75965324Y-92985500D01*
X75965325Y-92985500D01*
X88144675Y-92985500D01*
X88144676Y-92985500D01*
X88320583Y-92950510D01*
X88486284Y-92881875D01*
X88486286Y-92881873D01*
X88486291Y-92881871D01*
X88529349Y-92853099D01*
X88635410Y-92782232D01*
X88762232Y-92655410D01*
X88833099Y-92549349D01*
X88861871Y-92506291D01*
X88861877Y-92506279D01*
X88896703Y-92422201D01*
X88930510Y-92340583D01*
X88965500Y-92164676D01*
X88965500Y-92075000D01*
X88965500Y-92015979D01*
X88965500Y-87120957D01*
X88965500Y-87085324D01*
X88930510Y-86909417D01*
X88861875Y-86743716D01*
X88861871Y-86743708D01*
X88779974Y-86621143D01*
X88762232Y-86594590D01*
X88635410Y-86467768D01*
X88592927Y-86439382D01*
X88486291Y-86368128D01*
X88486279Y-86368122D01*
X88320583Y-86299490D01*
X88144678Y-86264500D01*
X88144676Y-86264500D01*
X88109043Y-86264500D01*
X76114021Y-86264500D01*
X76055000Y-86264500D01*
X75965324Y-86264500D01*
X75965321Y-86264500D01*
X75789417Y-86299490D01*
X75789415Y-86299490D01*
X75623720Y-86368122D01*
X75623708Y-86368128D01*
X75474590Y-86467768D01*
X75474586Y-86467771D01*
X75347771Y-86594586D01*
X75347768Y-86594590D01*
X75248128Y-86743708D01*
X75248122Y-86743720D01*
X75179490Y-86909415D01*
X75179490Y-86909417D01*
X75144500Y-87085321D01*
X75144500Y-92164678D01*
X66036616Y-92164678D01*
X61524056Y-87652118D01*
X61519627Y-87647388D01*
X61376224Y-87483864D01*
X61368341Y-87473591D01*
X61249322Y-87295461D01*
X61242854Y-87284258D01*
X61234812Y-87267951D01*
X61148101Y-87092114D01*
X61143147Y-87080150D01*
X61074286Y-86877284D01*
X61070936Y-86864784D01*
X61029140Y-86654652D01*
X61027453Y-86641830D01*
X61013212Y-86424504D01*
X61013000Y-86418031D01*
X61013000Y-85210262D01*
X61031907Y-85152071D01*
X61081407Y-85116107D01*
X61142593Y-85116107D01*
X61186818Y-85145431D01*
X61245411Y-85213051D01*
X61360439Y-85286974D01*
X61491633Y-85325496D01*
X61491634Y-85325496D01*
X61628366Y-85325496D01*
X61628367Y-85325496D01*
X61759561Y-85286974D01*
X61874589Y-85213051D01*
X61943181Y-85133890D01*
X61995576Y-85102295D01*
X62056537Y-85107530D01*
X62102778Y-85147598D01*
X62117000Y-85198722D01*
X62117000Y-86233516D01*
X62117018Y-86233708D01*
X62117018Y-86298658D01*
X62137844Y-86483516D01*
X62145473Y-86551232D01*
X62202029Y-86799034D01*
X62285974Y-87038945D01*
X62285978Y-87038953D01*
X62285979Y-87038956D01*
X62396255Y-87267951D01*
X62531475Y-87483159D01*
X62559220Y-87517951D01*
X62689952Y-87681888D01*
X62734675Y-87726611D01*
X62734678Y-87726615D01*
X62742824Y-87734761D01*
X62742825Y-87734763D01*
X62779815Y-87771753D01*
X62779816Y-87771755D01*
X62826517Y-87818457D01*
X62826531Y-87818469D01*
X65152516Y-90144454D01*
X65174498Y-90177857D01*
X65330668Y-90570342D01*
X65330673Y-90570351D01*
X65340984Y-90586077D01*
X65348246Y-90599232D01*
X65363678Y-90633022D01*
X65375870Y-90659718D01*
X65465411Y-90763055D01*
X65580439Y-90836978D01*
X65711633Y-90875500D01*
X65711634Y-90875500D01*
X65848366Y-90875500D01*
X65848367Y-90875500D01*
X65979561Y-90836978D01*
X66094589Y-90763055D01*
X66184130Y-90659718D01*
X66223658Y-90573165D01*
X66240930Y-90535345D01*
X66240932Y-90535337D01*
X66260390Y-90400002D01*
X66260390Y-90399997D01*
X66240932Y-90264662D01*
X66240930Y-90264654D01*
X66184131Y-90140284D01*
X66184130Y-90140283D01*
X66184130Y-90140282D01*
X66094589Y-90036945D01*
X66094588Y-90036944D01*
X66094587Y-90036943D01*
X65979560Y-89963021D01*
X65974751Y-89961609D01*
X65954766Y-89952436D01*
X65954550Y-89952855D01*
X65950231Y-89950624D01*
X65950230Y-89950623D01*
X65950226Y-89950621D01*
X65646501Y-89829769D01*
X65557856Y-89794497D01*
X65524453Y-89772515D01*
X63154056Y-87402118D01*
X63149627Y-87397388D01*
X63006224Y-87233864D01*
X62998341Y-87223591D01*
X62992702Y-87215151D01*
X62879322Y-87045461D01*
X62872854Y-87034258D01*
X62867325Y-87023047D01*
X62778101Y-86842114D01*
X62773147Y-86830150D01*
X62704286Y-86627284D01*
X62700936Y-86614784D01*
X62659140Y-86404652D01*
X62657453Y-86391830D01*
X62643212Y-86174504D01*
X62643000Y-86168031D01*
X62643000Y-82961660D01*
X62643212Y-82955187D01*
X62644513Y-82935337D01*
X62657433Y-82738166D01*
X62659120Y-82725343D01*
X62700918Y-82515201D01*
X62704263Y-82502716D01*
X62773129Y-82299838D01*
X62778082Y-82287881D01*
X62830886Y-82180802D01*
X62872838Y-82095729D01*
X62879310Y-82084520D01*
X62947494Y-81982473D01*
X62998335Y-81906381D01*
X63006204Y-81896126D01*
X63149404Y-81732833D01*
X63153825Y-81728114D01*
X63164080Y-81717860D01*
X63164104Y-81717847D01*
X63193084Y-81688866D01*
X63193085Y-81688867D01*
X63263371Y-81618579D01*
X63380221Y-81457744D01*
X63470473Y-81280610D01*
X63531904Y-81091537D01*
X63532714Y-81086426D01*
X63556860Y-80933956D01*
X63563001Y-80895183D01*
X63563000Y-80795782D01*
X63563000Y-80778842D01*
X63563000Y-67416040D01*
X63569742Y-67380131D01*
X63624176Y-67240281D01*
X63721432Y-66990413D01*
X63722997Y-66981861D01*
X63730323Y-66958567D01*
X63740931Y-66935342D01*
X63756511Y-66826978D01*
X63760390Y-66800002D01*
X63760390Y-66799997D01*
X63740932Y-66664662D01*
X63740931Y-66664660D01*
X63740931Y-66664658D01*
X63723613Y-66626739D01*
X63716639Y-66565953D01*
X63746725Y-66512676D01*
X63802381Y-66487258D01*
X63862348Y-66499409D01*
X63883671Y-66515609D01*
X69064236Y-71696174D01*
X69064260Y-71696222D01*
X69166273Y-71798233D01*
X69183097Y-71815057D01*
X69381821Y-71973531D01*
X69597039Y-72108759D01*
X69826045Y-72219040D01*
X70065958Y-72302986D01*
X70313761Y-72359543D01*
X70566339Y-72387999D01*
X70693427Y-72387997D01*
X74990597Y-72387997D01*
X75029759Y-72396071D01*
X75417717Y-72563171D01*
X75419945Y-72563634D01*
X75427659Y-72565564D01*
X75546627Y-72600497D01*
X75546628Y-72600497D01*
X75683360Y-72600497D01*
X75683361Y-72600497D01*
X75814555Y-72561975D01*
X75929583Y-72488052D01*
X76019124Y-72384715D01*
X76075925Y-72260339D01*
X76075926Y-72260334D01*
X76095384Y-72124999D01*
X76095384Y-72124994D01*
X76075926Y-71989659D01*
X76075924Y-71989651D01*
X76019125Y-71865281D01*
X76019124Y-71865280D01*
X76019124Y-71865279D01*
X75929583Y-71761942D01*
X75814555Y-71688019D01*
X75814552Y-71688018D01*
X75683362Y-71649497D01*
X75683361Y-71649497D01*
X75546627Y-71649497D01*
X75546623Y-71649497D01*
X75427563Y-71684456D01*
X75420356Y-71686281D01*
X75419510Y-71686461D01*
X75417601Y-71686869D01*
X75417596Y-71686871D01*
X75029760Y-71853921D01*
X74990597Y-71861997D01*
X70696660Y-71861997D01*
X70690186Y-71861785D01*
X70473171Y-71847563D01*
X70460332Y-71845873D01*
X70250209Y-71804079D01*
X70237704Y-71800728D01*
X70034840Y-71731868D01*
X70022882Y-71726915D01*
X69830734Y-71632161D01*
X69819518Y-71625686D01*
X69641388Y-71506664D01*
X69631114Y-71498781D01*
X69619950Y-71488991D01*
X69467799Y-71355560D01*
X69463074Y-71351134D01*
X69444696Y-71332758D01*
X69444693Y-71332754D01*
X69444693Y-71332755D01*
X63079051Y-64967113D01*
X63074631Y-64962394D01*
X62931220Y-64798861D01*
X62923351Y-64788605D01*
X62804324Y-64610465D01*
X62797852Y-64599254D01*
X62703102Y-64407114D01*
X62698147Y-64395150D01*
X62629286Y-64192284D01*
X62625936Y-64179784D01*
X62584140Y-63969652D01*
X62582453Y-63956830D01*
X62568212Y-63739504D01*
X62568000Y-63733031D01*
X62568000Y-60506390D01*
X62576075Y-60467227D01*
X62609258Y-60390185D01*
X62743175Y-60079268D01*
X62745536Y-60067908D01*
X62752407Y-60046945D01*
X62765931Y-60017334D01*
X62767250Y-60008165D01*
X62785390Y-59881994D01*
X62785390Y-59881989D01*
X62765932Y-59746654D01*
X62765931Y-59746650D01*
X62747078Y-59705369D01*
X62740103Y-59644583D01*
X62770189Y-59591305D01*
X62825845Y-59565887D01*
X62885812Y-59578038D01*
X62907135Y-59594238D01*
X63643365Y-60330468D01*
X63647786Y-60335188D01*
X63775024Y-60480278D01*
X63782895Y-60490538D01*
X63888292Y-60648278D01*
X63894767Y-60659494D01*
X63978672Y-60829642D01*
X63983627Y-60841606D01*
X64044600Y-61021234D01*
X64047952Y-61033742D01*
X64084961Y-61219809D01*
X64086651Y-61232648D01*
X64099288Y-61425491D01*
X64099500Y-61431965D01*
X64099500Y-64387218D01*
X64099518Y-64387506D01*
X64099518Y-64459186D01*
X64129889Y-64728765D01*
X64130331Y-64732687D01*
X64191573Y-65001021D01*
X64245624Y-65155495D01*
X64282478Y-65260821D01*
X64401892Y-65508790D01*
X64548316Y-65741830D01*
X64565218Y-65763025D01*
X64719924Y-65957024D01*
X64719927Y-65957027D01*
X64770998Y-66008099D01*
X64771015Y-66008118D01*
X64803306Y-66040410D01*
X64803307Y-66040410D01*
X64817232Y-66054335D01*
X64817232Y-66054336D01*
X64859170Y-66096274D01*
X64859172Y-66096275D01*
X67643725Y-68880828D01*
X67643727Y-68880831D01*
X67655894Y-68892998D01*
X67655923Y-68893054D01*
X67685652Y-68922782D01*
X67782964Y-69020092D01*
X67902958Y-69115782D01*
X67996028Y-69190002D01*
X67998153Y-69191696D01*
X68231203Y-69338128D01*
X68479183Y-69457545D01*
X68738975Y-69548446D01*
X69007310Y-69609689D01*
X69280815Y-69640502D01*
X69418433Y-69640500D01*
X78949718Y-69640500D01*
X79007909Y-69659407D01*
X79043873Y-69708907D01*
X79043873Y-69770093D01*
X79007909Y-69819593D01*
X78977610Y-69834490D01*
X78880441Y-69863021D01*
X78880439Y-69863021D01*
X78880439Y-69863022D01*
X78765411Y-69936945D01*
X78765410Y-69936945D01*
X78765410Y-69936946D01*
X78675870Y-70040282D01*
X78658555Y-70078193D01*
X78644268Y-70100786D01*
X78640855Y-70104843D01*
X78640849Y-70104851D01*
X78434870Y-70479253D01*
X78418134Y-70501537D01*
X76437918Y-72481754D01*
X76433188Y-72486183D01*
X76275820Y-72624188D01*
X76265547Y-72632071D01*
X76094217Y-72746548D01*
X76083001Y-72753023D01*
X75898194Y-72844156D01*
X75886231Y-72849111D01*
X75691115Y-72915342D01*
X75678605Y-72918694D01*
X75476505Y-72958891D01*
X75463667Y-72960581D01*
X75254504Y-72974288D01*
X75248030Y-72974500D01*
X70629413Y-72974500D01*
X70629116Y-72974518D01*
X70547834Y-72974518D01*
X70288282Y-73003760D01*
X70033641Y-73061876D01*
X70033637Y-73061877D01*
X69787100Y-73148141D01*
X69787098Y-73148141D01*
X69787095Y-73148143D01*
X69551768Y-73261468D01*
X69330615Y-73400423D01*
X69126394Y-73563280D01*
X69064353Y-73625320D01*
X69064345Y-73625326D01*
X68401536Y-74288134D01*
X68379253Y-74304870D01*
X68006401Y-74509996D01*
X68000654Y-74512884D01*
X68000439Y-74513021D01*
X68000439Y-74513022D01*
X67885411Y-74586945D01*
X67885410Y-74586945D01*
X67885410Y-74586946D01*
X67795868Y-74690284D01*
X67739069Y-74814654D01*
X67739067Y-74814662D01*
X67719610Y-74949997D01*
X67719610Y-74950002D01*
X67739067Y-75085337D01*
X67739069Y-75085345D01*
X67795868Y-75209716D01*
X67795869Y-75209718D01*
X67835300Y-75255223D01*
X67885411Y-75313055D01*
X67897399Y-75320759D01*
X67903773Y-75325219D01*
X67907988Y-75328423D01*
X68315004Y-75637756D01*
X68315009Y-75637759D01*
X68315011Y-75637760D01*
X68315404Y-75637968D01*
X68315837Y-75638288D01*
X68318394Y-75639922D01*
X68318283Y-75640095D01*
X68339042Y-75655435D01*
X71814472Y-79130864D01*
X71829021Y-79151262D01*
X71829692Y-79150850D01*
X71832237Y-79154985D01*
X71832238Y-79154986D01*
X71832239Y-79154988D01*
X72107456Y-79517115D01*
X72111599Y-79524044D01*
X72112042Y-79523760D01*
X72115870Y-79529718D01*
X72123254Y-79538239D01*
X72127253Y-79543166D01*
X72153845Y-79578155D01*
X72162388Y-79588660D01*
X72163353Y-79589771D01*
X72164743Y-79591353D01*
X72164746Y-79591356D01*
X72167112Y-79593048D01*
X72184348Y-79608747D01*
X72205411Y-79633055D01*
X72320439Y-79706978D01*
X72451633Y-79745500D01*
X72536463Y-79745500D01*
X72542484Y-79745683D01*
X72543286Y-79745731D01*
X72560998Y-79746811D01*
X72563953Y-79746407D01*
X72577328Y-79745500D01*
X72588364Y-79745500D01*
X72588367Y-79745500D01*
X72596632Y-79743072D01*
X72611128Y-79739974D01*
X73087647Y-79674995D01*
X73088075Y-79674863D01*
X73088597Y-79674784D01*
X73091581Y-79674128D01*
X73091625Y-79674330D01*
X73117142Y-79670500D01*
X73683995Y-79670500D01*
X73738340Y-79670500D01*
X73744813Y-79670712D01*
X73943885Y-79683757D01*
X73956711Y-79685445D01*
X74140280Y-79721957D01*
X74149202Y-79723732D01*
X74161697Y-79727079D01*
X74347548Y-79790165D01*
X74359498Y-79795115D01*
X74535515Y-79881914D01*
X74546726Y-79888386D01*
X74709913Y-79997422D01*
X74720176Y-80005297D01*
X74837947Y-80108577D01*
X74869932Y-80136626D01*
X74874662Y-80141055D01*
X76188720Y-81455113D01*
X76193141Y-81459833D01*
X76324692Y-81609841D01*
X76332564Y-81620101D01*
X76378506Y-81688860D01*
X76441593Y-81783278D01*
X76448068Y-81794494D01*
X76534866Y-81970509D01*
X76539819Y-81982467D01*
X76602897Y-82168294D01*
X76606248Y-82180802D01*
X76644533Y-82373282D01*
X76646223Y-82386121D01*
X76659288Y-82585493D01*
X76659500Y-82591967D01*
X76659500Y-82952725D01*
X76655362Y-82977437D01*
X76656131Y-82977620D01*
X76655002Y-82982358D01*
X76583186Y-83509004D01*
X76581801Y-83522487D01*
X76581696Y-83523999D01*
X76581192Y-83531728D01*
X76581121Y-83531723D01*
X76580586Y-83543209D01*
X76579610Y-83549999D01*
X76579610Y-83550002D01*
X76599067Y-83685337D01*
X76599069Y-83685345D01*
X76655868Y-83809715D01*
X76655869Y-83809716D01*
X76655870Y-83809718D01*
X76745411Y-83913055D01*
X76860439Y-83986978D01*
X76991633Y-84025500D01*
X76991634Y-84025500D01*
X77128362Y-84025500D01*
X77128367Y-84025500D01*
X77205653Y-84002805D01*
X77225037Y-83999162D01*
X77232537Y-83998515D01*
X77642927Y-83879422D01*
X77670518Y-83875500D01*
X85850023Y-83875500D01*
X85898338Y-83875500D01*
X85904811Y-83875712D01*
X85928921Y-83877291D01*
X86113676Y-83889399D01*
X86126499Y-83891086D01*
X86328614Y-83931287D01*
X86341114Y-83934637D01*
X86536241Y-84000871D01*
X86548205Y-84005825D01*
X86733021Y-84096965D01*
X86744226Y-84103434D01*
X86915560Y-84217913D01*
X86925833Y-84225795D01*
X86988883Y-84281088D01*
X87082980Y-84363607D01*
X87087709Y-84368036D01*
X91034281Y-88314608D01*
X91034310Y-88314665D01*
X91140791Y-88421143D01*
X91156387Y-88436739D01*
X91313089Y-88561701D01*
X91360605Y-88599593D01*
X91520402Y-88699997D01*
X91581762Y-88738551D01*
X91679243Y-88785494D01*
X91817081Y-88851872D01*
X91817086Y-88851874D01*
X91817093Y-88851877D01*
X92063632Y-88938142D01*
X92318280Y-88996260D01*
X92577834Y-89025502D01*
X92708430Y-89025500D01*
X92708432Y-89025500D01*
X95369482Y-89025500D01*
X95397073Y-89029422D01*
X95807462Y-89148515D01*
X95819187Y-89149863D01*
X95835767Y-89153223D01*
X95911633Y-89175500D01*
X95911634Y-89175500D01*
X96048366Y-89175500D01*
X96048367Y-89175500D01*
X96179561Y-89136978D01*
X96294589Y-89063055D01*
X96384130Y-88959718D01*
X96440931Y-88835342D01*
X96440932Y-88835337D01*
X96460390Y-88700002D01*
X96460390Y-88699997D01*
X96440932Y-88564662D01*
X96440930Y-88564654D01*
X96384131Y-88440284D01*
X96384130Y-88440283D01*
X96384130Y-88440282D01*
X96294589Y-88336945D01*
X96179561Y-88263022D01*
X96179558Y-88263021D01*
X96048368Y-88224500D01*
X96048367Y-88224500D01*
X95911633Y-88224500D01*
X95911631Y-88224500D01*
X95911627Y-88224501D01*
X95834345Y-88247192D01*
X95814982Y-88250834D01*
X95807468Y-88251483D01*
X95807464Y-88251483D01*
X95807464Y-88251484D01*
X95587346Y-88315361D01*
X95397070Y-88370578D01*
X95369479Y-88374500D01*
X92711662Y-88374500D01*
X92705188Y-88374288D01*
X92496330Y-88360601D01*
X92483491Y-88358911D01*
X92281386Y-88318712D01*
X92268881Y-88315361D01*
X92073759Y-88249129D01*
X92061801Y-88244176D01*
X91876985Y-88153038D01*
X91865769Y-88146563D01*
X91813466Y-88111616D01*
X91694432Y-88032081D01*
X91684172Y-88024210D01*
X91527018Y-87886392D01*
X91522304Y-87881977D01*
X87575719Y-83935392D01*
X87575689Y-83935334D01*
X87453617Y-83813265D01*
X87453614Y-83813262D01*
X87335813Y-83719321D01*
X87249403Y-83650412D01*
X87249399Y-83650410D01*
X87028241Y-83511450D01*
X86792919Y-83398127D01*
X86792908Y-83398123D01*
X86546369Y-83311858D01*
X86506994Y-83302871D01*
X86291720Y-83253739D01*
X86032167Y-83224498D01*
X85901568Y-83224500D01*
X77670518Y-83224500D01*
X77642927Y-83220577D01*
X77623435Y-83214920D01*
X77553293Y-83194565D01*
X77502678Y-83160189D01*
X77482793Y-83112864D01*
X77464996Y-82982352D01*
X77464996Y-82982349D01*
X77464864Y-82981920D01*
X77464783Y-82981387D01*
X77464131Y-82978422D01*
X77464332Y-82978377D01*
X77460500Y-82952852D01*
X77460500Y-82529308D01*
X77460480Y-82529005D01*
X77460480Y-82497368D01*
X77460481Y-82453624D01*
X77430297Y-82185701D01*
X77370305Y-81922843D01*
X77281259Y-81668355D01*
X77164279Y-81425437D01*
X77136908Y-81381875D01*
X77020841Y-81197149D01*
X76987555Y-81155409D01*
X76852735Y-80986346D01*
X76800335Y-80933946D01*
X76800327Y-80933935D01*
X76794694Y-80928302D01*
X76794694Y-80928301D01*
X75467990Y-79601597D01*
X75467961Y-79601541D01*
X75343671Y-79477254D01*
X75343668Y-79477251D01*
X75218223Y-79377214D01*
X75132871Y-79309149D01*
X75132867Y-79309147D01*
X74904576Y-79165705D01*
X74661665Y-79048728D01*
X74661662Y-79048727D01*
X74661654Y-79048723D01*
X74407163Y-78959676D01*
X74144302Y-78899683D01*
X73876377Y-78869499D01*
X73741568Y-78869500D01*
X73117273Y-78869500D01*
X73092557Y-78865359D01*
X73092374Y-78866130D01*
X73087641Y-78865002D01*
X72734927Y-78816904D01*
X72688401Y-78797632D01*
X72404988Y-78582239D01*
X72404985Y-78582237D01*
X72404588Y-78582027D01*
X72404153Y-78581705D01*
X72401591Y-78580068D01*
X72401702Y-78579894D01*
X72380953Y-78564561D01*
X70016401Y-76200008D01*
X74599616Y-76200008D01*
X74619073Y-76335343D01*
X74619075Y-76335351D01*
X74675874Y-76459721D01*
X74675875Y-76459722D01*
X74675876Y-76459724D01*
X74765417Y-76563061D01*
X74880445Y-76636984D01*
X75011639Y-76675506D01*
X75011640Y-76675506D01*
X75148372Y-76675506D01*
X75148373Y-76675506D01*
X75279567Y-76636984D01*
X75394595Y-76563061D01*
X75484136Y-76459724D01*
X75540937Y-76335348D01*
X75543209Y-76319549D01*
X75560396Y-76200008D01*
X75560396Y-76200003D01*
X75545801Y-76098499D01*
X75540937Y-76064664D01*
X75527489Y-76035219D01*
X75520724Y-76014758D01*
X75518133Y-76002618D01*
X75518132Y-76002617D01*
X75518132Y-76002614D01*
X75364581Y-75646113D01*
X75351081Y-75614770D01*
X75343006Y-75575607D01*
X75343006Y-75554406D01*
X75351082Y-75515243D01*
X75358772Y-75497389D01*
X75518184Y-75127288D01*
X75520545Y-75115928D01*
X75527416Y-75094965D01*
X75540941Y-75065352D01*
X75540991Y-75065009D01*
X75560400Y-74930012D01*
X75560400Y-74930007D01*
X75540942Y-74794672D01*
X75540940Y-74794664D01*
X75484141Y-74670294D01*
X75484140Y-74670293D01*
X75484140Y-74670292D01*
X75394599Y-74566955D01*
X75279571Y-74493032D01*
X75279568Y-74493031D01*
X75148378Y-74454510D01*
X75148377Y-74454510D01*
X75011643Y-74454510D01*
X75011641Y-74454510D01*
X74880451Y-74493031D01*
X74880449Y-74493031D01*
X74880449Y-74493032D01*
X74765421Y-74566955D01*
X74765420Y-74566955D01*
X74765420Y-74566956D01*
X74675878Y-74670294D01*
X74619079Y-74794664D01*
X74619077Y-74794672D01*
X74599620Y-74930007D01*
X74599620Y-74930012D01*
X74619077Y-75065349D01*
X74624586Y-75077411D01*
X74632524Y-75094792D01*
X74639287Y-75115246D01*
X74641881Y-75127398D01*
X74808931Y-75515243D01*
X74817006Y-75554405D01*
X74817006Y-75575607D01*
X74808931Y-75614770D01*
X74641830Y-76002730D01*
X74639467Y-76014091D01*
X74632597Y-76035052D01*
X74619075Y-76064663D01*
X74619073Y-76064668D01*
X74599616Y-76200003D01*
X74599616Y-76200008D01*
X70016401Y-76200008D01*
X68905527Y-75089134D01*
X68890983Y-75068739D01*
X68890310Y-75069154D01*
X68887759Y-75065009D01*
X68808059Y-74960141D01*
X68787902Y-74902372D01*
X68800138Y-74852521D01*
X68845128Y-74770743D01*
X68861857Y-74748468D01*
X69492089Y-74118236D01*
X69496789Y-74113835D01*
X69654178Y-73975811D01*
X69664441Y-73967936D01*
X69835789Y-73853447D01*
X69846988Y-73846982D01*
X70031806Y-73755842D01*
X70043763Y-73750890D01*
X70238892Y-73684654D01*
X70251384Y-73681307D01*
X70453507Y-73641106D01*
X70466322Y-73639419D01*
X70618735Y-73629431D01*
X70675497Y-73625712D01*
X70681970Y-73625500D01*
X75300998Y-73625500D01*
X75301286Y-73625480D01*
X75382165Y-73625482D01*
X75641717Y-73596241D01*
X75896362Y-73538123D01*
X76142900Y-73451859D01*
X76378228Y-73338534D01*
X76573501Y-73215839D01*
X76599383Y-73199577D01*
X76599384Y-73199575D01*
X76599389Y-73199573D01*
X76803599Y-73036724D01*
X76858964Y-72981359D01*
X76858976Y-72981349D01*
X76865644Y-72974680D01*
X76865648Y-72974679D01*
X78878468Y-70961857D01*
X78900743Y-70945128D01*
X79273591Y-70740005D01*
X79279366Y-70737103D01*
X79324380Y-70708175D01*
X79394589Y-70663055D01*
X79484130Y-70559718D01*
X79523868Y-70472704D01*
X79540930Y-70435345D01*
X79540932Y-70435337D01*
X79560390Y-70300002D01*
X79560390Y-70299997D01*
X79540932Y-70164662D01*
X79540930Y-70164654D01*
X79484131Y-70040284D01*
X79484130Y-70040283D01*
X79484130Y-70040282D01*
X79394589Y-69936945D01*
X79279561Y-69863022D01*
X79182390Y-69834490D01*
X79131883Y-69799954D01*
X79111322Y-69742327D01*
X79128560Y-69683620D01*
X79177013Y-69646257D01*
X79210282Y-69640500D01*
X81512256Y-69640500D01*
X81540147Y-69644509D01*
X81611633Y-69665500D01*
X81611634Y-69665500D01*
X81748366Y-69665500D01*
X81748367Y-69665500D01*
X81879561Y-69626978D01*
X81994589Y-69553055D01*
X82084130Y-69449718D01*
X82125233Y-69359715D01*
X82140930Y-69325345D01*
X82140932Y-69325337D01*
X82160390Y-69190002D01*
X82160390Y-69189997D01*
X82140932Y-69054662D01*
X82140930Y-69054654D01*
X82084131Y-68930284D01*
X82084130Y-68930283D01*
X82084130Y-68930282D01*
X81994589Y-68826945D01*
X81879561Y-68753022D01*
X81879558Y-68753021D01*
X81748368Y-68714500D01*
X81748367Y-68714500D01*
X81611633Y-68714500D01*
X81611631Y-68714500D01*
X81540148Y-68735490D01*
X81512256Y-68739500D01*
X69421660Y-68739500D01*
X69415186Y-68739288D01*
X69222644Y-68726670D01*
X69209805Y-68724980D01*
X69023739Y-68687972D01*
X69011230Y-68684620D01*
X68831593Y-68623643D01*
X68819630Y-68618688D01*
X68649487Y-68534786D01*
X68638271Y-68528311D01*
X68480534Y-68422917D01*
X68470261Y-68415034D01*
X68325407Y-68288003D01*
X68320677Y-68283574D01*
X66427105Y-66390002D01*
X70509610Y-66390002D01*
X70529067Y-66525337D01*
X70529069Y-66525345D01*
X70585868Y-66649715D01*
X70585869Y-66649716D01*
X70585870Y-66649718D01*
X70675411Y-66753055D01*
X70790439Y-66826978D01*
X70921633Y-66865500D01*
X70921634Y-66865500D01*
X71058366Y-66865500D01*
X71058367Y-66865500D01*
X71189561Y-66826978D01*
X71197282Y-66822016D01*
X71209726Y-66815232D01*
X71209786Y-66815196D01*
X71209792Y-66815195D01*
X71598916Y-66589707D01*
X71636724Y-66577075D01*
X75225880Y-66145184D01*
X75265780Y-66148539D01*
X75400134Y-66188274D01*
X75636411Y-66258152D01*
X75636413Y-66258152D01*
X75636416Y-66258153D01*
X75648455Y-66259582D01*
X75664669Y-66262900D01*
X75741633Y-66285500D01*
X75741634Y-66285500D01*
X75878366Y-66285500D01*
X75878367Y-66285500D01*
X76009561Y-66246978D01*
X76124589Y-66173055D01*
X76214130Y-66069718D01*
X76248396Y-65994687D01*
X76270930Y-65945345D01*
X76270932Y-65945337D01*
X76290390Y-65810002D01*
X76290390Y-65809997D01*
X76270932Y-65674662D01*
X76270930Y-65674654D01*
X76214131Y-65550284D01*
X76214130Y-65550283D01*
X76214130Y-65550282D01*
X76124589Y-65446945D01*
X76009561Y-65373022D01*
X75997723Y-65369546D01*
X75878368Y-65334500D01*
X75878367Y-65334500D01*
X75741633Y-65334500D01*
X75741631Y-65334500D01*
X75664587Y-65357122D01*
X75610439Y-65373022D01*
X75610437Y-65373022D01*
X75610437Y-65373023D01*
X75602715Y-65377985D01*
X75590216Y-65384798D01*
X75201078Y-65610291D01*
X75163270Y-65622924D01*
X71574120Y-66054814D01*
X71534216Y-66051458D01*
X71163585Y-65941847D01*
X71163572Y-65941844D01*
X71151533Y-65940414D01*
X71135325Y-65937096D01*
X71058370Y-65914500D01*
X71058367Y-65914500D01*
X70921633Y-65914500D01*
X70921631Y-65914500D01*
X70790441Y-65953021D01*
X70790439Y-65953021D01*
X70790439Y-65953022D01*
X70675411Y-66026945D01*
X70675410Y-66026945D01*
X70675410Y-66026946D01*
X70585868Y-66130284D01*
X70529069Y-66254654D01*
X70529067Y-66254662D01*
X70509610Y-66389997D01*
X70509610Y-66390002D01*
X66427105Y-66390002D01*
X65472445Y-65435342D01*
X65472443Y-65435339D01*
X65456624Y-65419519D01*
X65452197Y-65414792D01*
X65424729Y-65383470D01*
X65324981Y-65269726D01*
X65317106Y-65259463D01*
X65211705Y-65101717D01*
X65205233Y-65090507D01*
X65204215Y-65088443D01*
X65121326Y-64920356D01*
X65116372Y-64908393D01*
X65104670Y-64873918D01*
X83809500Y-64873918D01*
X83838342Y-65018914D01*
X83873939Y-65104853D01*
X83894916Y-65155495D01*
X83977049Y-65278416D01*
X84081584Y-65382951D01*
X84204505Y-65465084D01*
X84341087Y-65521658D01*
X84486082Y-65550500D01*
X84486083Y-65550500D01*
X84633917Y-65550500D01*
X84633918Y-65550500D01*
X84778913Y-65521658D01*
X84915495Y-65465084D01*
X85038416Y-65382951D01*
X85142951Y-65278416D01*
X85225084Y-65155495D01*
X85281658Y-65018913D01*
X85310500Y-64873918D01*
X85310500Y-64193544D01*
X85329407Y-64135353D01*
X85378907Y-64099389D01*
X85440093Y-64099389D01*
X85489593Y-64135353D01*
X85495230Y-64144035D01*
X85509480Y-64168716D01*
X85621284Y-64280520D01*
X85758216Y-64359577D01*
X85910943Y-64400500D01*
X85910945Y-64400500D01*
X86069055Y-64400500D01*
X86069057Y-64400500D01*
X86221784Y-64359577D01*
X86358716Y-64280520D01*
X86470520Y-64168716D01*
X86549577Y-64031784D01*
X86590500Y-63879057D01*
X91169500Y-63879057D01*
X91210423Y-64031784D01*
X91289480Y-64168716D01*
X91401284Y-64280520D01*
X91538216Y-64359577D01*
X91690943Y-64400500D01*
X91690945Y-64400500D01*
X91849055Y-64400500D01*
X91849057Y-64400500D01*
X92001784Y-64359577D01*
X92138716Y-64280520D01*
X92250520Y-64168716D01*
X92264764Y-64144043D01*
X92310232Y-64103104D01*
X92371082Y-64096707D01*
X92424070Y-64127299D01*
X92448958Y-64183194D01*
X92449500Y-64193544D01*
X92449500Y-64873918D01*
X92478342Y-65018914D01*
X92513939Y-65104853D01*
X92534916Y-65155495D01*
X92617049Y-65278416D01*
X92721584Y-65382951D01*
X92844505Y-65465084D01*
X92981087Y-65521658D01*
X93126082Y-65550500D01*
X93126083Y-65550500D01*
X93273917Y-65550500D01*
X93273918Y-65550500D01*
X93418913Y-65521658D01*
X93555495Y-65465084D01*
X93678416Y-65382951D01*
X93782951Y-65278416D01*
X93865084Y-65155495D01*
X93921658Y-65018913D01*
X93950500Y-64873918D01*
X93950500Y-64664678D01*
X110269500Y-64664678D01*
X110304490Y-64840582D01*
X110304490Y-64840584D01*
X110373122Y-65006279D01*
X110373128Y-65006291D01*
X110428022Y-65088443D01*
X110472768Y-65155410D01*
X110599590Y-65282232D01*
X110663167Y-65324713D01*
X110748708Y-65381871D01*
X110748720Y-65381877D01*
X110809929Y-65407230D01*
X110914417Y-65450510D01*
X111090324Y-65485500D01*
X111090325Y-65485500D01*
X123269675Y-65485500D01*
X123269676Y-65485500D01*
X123445583Y-65450510D01*
X123611284Y-65381875D01*
X123611286Y-65381873D01*
X123611291Y-65381871D01*
X123678815Y-65336752D01*
X123760410Y-65282232D01*
X123887232Y-65155410D01*
X123978437Y-65018913D01*
X123986871Y-65006291D01*
X123986877Y-65006279D01*
X124022466Y-64920358D01*
X124055510Y-64840583D01*
X124090500Y-64664676D01*
X124090500Y-64575000D01*
X124090500Y-64515979D01*
X124090500Y-59620957D01*
X124090500Y-59585324D01*
X124055510Y-59409417D01*
X124029698Y-59347101D01*
X123986877Y-59243720D01*
X123986871Y-59243708D01*
X123929713Y-59158167D01*
X123887232Y-59094590D01*
X123760410Y-58967768D01*
X123701405Y-58928342D01*
X123611291Y-58868128D01*
X123611279Y-58868122D01*
X123445583Y-58799490D01*
X123269678Y-58764500D01*
X123269676Y-58764500D01*
X123234043Y-58764500D01*
X111239021Y-58764500D01*
X111180000Y-58764500D01*
X111090324Y-58764500D01*
X111090321Y-58764500D01*
X110914417Y-58799490D01*
X110914415Y-58799490D01*
X110748720Y-58868122D01*
X110748708Y-58868128D01*
X110599590Y-58967768D01*
X110599586Y-58967771D01*
X110472771Y-59094586D01*
X110472768Y-59094590D01*
X110373128Y-59243708D01*
X110373122Y-59243720D01*
X110304490Y-59409415D01*
X110304490Y-59409417D01*
X110269500Y-59585321D01*
X110269500Y-64664678D01*
X93950500Y-64664678D01*
X93950500Y-63726082D01*
X93921658Y-63581087D01*
X93865084Y-63444505D01*
X93782951Y-63321584D01*
X93678416Y-63217049D01*
X93555495Y-63134916D01*
X93497786Y-63111012D01*
X93418914Y-63078342D01*
X93273918Y-63049500D01*
X93126082Y-63049500D01*
X93126081Y-63049500D01*
X92981085Y-63078342D01*
X92844506Y-63134915D01*
X92721585Y-63217048D01*
X92617048Y-63321585D01*
X92534916Y-63444504D01*
X92496125Y-63538153D01*
X92456388Y-63584679D01*
X92396893Y-63598962D01*
X92340365Y-63575547D01*
X92318927Y-63549769D01*
X92250520Y-63431284D01*
X92138716Y-63319480D01*
X92001784Y-63240423D01*
X91849057Y-63199500D01*
X91690943Y-63199500D01*
X91538216Y-63240423D01*
X91401284Y-63319480D01*
X91289480Y-63431284D01*
X91210423Y-63568216D01*
X91169500Y-63720943D01*
X91169500Y-63879057D01*
X86590500Y-63879057D01*
X86590500Y-63720943D01*
X86549577Y-63568216D01*
X86470520Y-63431284D01*
X86358716Y-63319480D01*
X86221784Y-63240423D01*
X86069057Y-63199500D01*
X85910943Y-63199500D01*
X85758216Y-63240423D01*
X85621284Y-63319480D01*
X85509480Y-63431284D01*
X85441073Y-63549768D01*
X85395605Y-63590708D01*
X85334755Y-63597104D01*
X85281767Y-63566511D01*
X85263874Y-63538152D01*
X85225084Y-63444506D01*
X85225084Y-63444505D01*
X85142951Y-63321584D01*
X85038416Y-63217049D01*
X84915495Y-63134916D01*
X84857786Y-63111012D01*
X84778914Y-63078342D01*
X84633918Y-63049500D01*
X84486082Y-63049500D01*
X84486081Y-63049500D01*
X84341085Y-63078342D01*
X84204506Y-63134915D01*
X84081585Y-63217048D01*
X83977048Y-63321585D01*
X83894915Y-63444506D01*
X83838342Y-63581085D01*
X83809500Y-63726081D01*
X83809500Y-64873918D01*
X65104670Y-64873918D01*
X65055399Y-64728765D01*
X65052047Y-64716257D01*
X65041788Y-64664678D01*
X65015037Y-64530184D01*
X65013349Y-64517357D01*
X65000712Y-64324507D01*
X65000500Y-64318034D01*
X65000500Y-61362546D01*
X65000480Y-61362253D01*
X65000481Y-61315084D01*
X65000482Y-61290816D01*
X64969669Y-61017313D01*
X64956589Y-60960002D01*
X72569610Y-60960002D01*
X72589067Y-61095337D01*
X72589069Y-61095345D01*
X72645868Y-61219715D01*
X72645869Y-61219716D01*
X72645870Y-61219718D01*
X72735411Y-61323055D01*
X72850439Y-61396978D01*
X72981633Y-61435500D01*
X72981634Y-61435500D01*
X73118366Y-61435500D01*
X73118367Y-61435500D01*
X73249561Y-61396978D01*
X73364589Y-61323055D01*
X73454130Y-61219718D01*
X73473918Y-61176386D01*
X73486127Y-61156348D01*
X73492202Y-61148618D01*
X73679737Y-60779119D01*
X73698009Y-60753927D01*
X73728018Y-60723918D01*
X83809500Y-60723918D01*
X83838342Y-60868914D01*
X83866884Y-60937820D01*
X83894916Y-61005495D01*
X83977049Y-61128416D01*
X84081584Y-61232951D01*
X84204505Y-61315084D01*
X84341087Y-61371658D01*
X84486082Y-61400500D01*
X84486083Y-61400500D01*
X84633917Y-61400500D01*
X84633918Y-61400500D01*
X84778913Y-61371658D01*
X84915495Y-61315084D01*
X85038416Y-61232951D01*
X85142951Y-61128416D01*
X85225084Y-61005495D01*
X85281658Y-60868913D01*
X85310500Y-60723918D01*
X92449500Y-60723918D01*
X92478342Y-60868914D01*
X92506884Y-60937820D01*
X92534916Y-61005495D01*
X92617049Y-61128416D01*
X92721584Y-61232951D01*
X92844505Y-61315084D01*
X92981087Y-61371658D01*
X93126082Y-61400500D01*
X93126083Y-61400500D01*
X93273917Y-61400500D01*
X93273918Y-61400500D01*
X93418913Y-61371658D01*
X93555495Y-61315084D01*
X93678416Y-61232951D01*
X93782951Y-61128416D01*
X93865084Y-61005495D01*
X93921658Y-60868913D01*
X93950500Y-60723918D01*
X93950500Y-59576082D01*
X93921658Y-59431087D01*
X93865084Y-59294505D01*
X93782951Y-59171584D01*
X93678416Y-59067049D01*
X93555495Y-58984916D01*
X93555493Y-58984915D01*
X93418914Y-58928342D01*
X93273918Y-58899500D01*
X93126082Y-58899500D01*
X93126081Y-58899500D01*
X92981085Y-58928342D01*
X92844506Y-58984915D01*
X92721585Y-59067048D01*
X92617048Y-59171585D01*
X92534915Y-59294506D01*
X92478342Y-59431085D01*
X92449500Y-59576081D01*
X92449500Y-60723918D01*
X85310500Y-60723918D01*
X85310500Y-59576082D01*
X85281658Y-59431087D01*
X85225084Y-59294505D01*
X85142951Y-59171584D01*
X85038416Y-59067049D01*
X84915495Y-58984916D01*
X84915493Y-58984915D01*
X84778914Y-58928342D01*
X84633918Y-58899500D01*
X84486082Y-58899500D01*
X84486081Y-58899500D01*
X84341085Y-58928342D01*
X84204506Y-58984915D01*
X84081585Y-59067048D01*
X83977048Y-59171585D01*
X83894915Y-59294506D01*
X83838342Y-59431085D01*
X83809500Y-59576081D01*
X83809500Y-60723918D01*
X73728018Y-60723918D01*
X74659457Y-59792479D01*
X74692855Y-59770500D01*
X75085341Y-59614331D01*
X75085344Y-59614328D01*
X75089771Y-59612027D01*
X75090031Y-59612527D01*
X75109870Y-59603355D01*
X75114561Y-59601978D01*
X75229589Y-59528055D01*
X75319130Y-59424718D01*
X75375931Y-59300342D01*
X75376770Y-59294506D01*
X75395390Y-59165002D01*
X75395390Y-59164997D01*
X75375932Y-59029662D01*
X75375930Y-59029654D01*
X75319131Y-58905284D01*
X75319130Y-58905283D01*
X75319130Y-58905282D01*
X75229589Y-58801945D01*
X75114561Y-58728022D01*
X75114558Y-58728021D01*
X74983368Y-58689500D01*
X74983367Y-58689500D01*
X74846633Y-58689500D01*
X74846631Y-58689500D01*
X74715441Y-58728021D01*
X74715439Y-58728021D01*
X74715439Y-58728022D01*
X74600411Y-58801945D01*
X74600410Y-58801945D01*
X74600410Y-58801946D01*
X74510869Y-58905283D01*
X74483466Y-58965286D01*
X74476489Y-58978005D01*
X74472010Y-58984916D01*
X74465622Y-58994771D01*
X74451321Y-59030712D01*
X74309497Y-59387142D01*
X74287515Y-59420545D01*
X73343035Y-60365025D01*
X73300321Y-60390185D01*
X72900667Y-60504794D01*
X72889721Y-60508266D01*
X72888518Y-60508685D01*
X72883519Y-60511081D01*
X72883321Y-60510669D01*
X72865952Y-60518466D01*
X72850441Y-60523021D01*
X72850434Y-60523024D01*
X72735412Y-60596943D01*
X72645868Y-60700284D01*
X72589069Y-60824654D01*
X72589067Y-60824662D01*
X72569610Y-60959997D01*
X72569610Y-60960002D01*
X64956589Y-60960002D01*
X64908427Y-60748980D01*
X64817526Y-60489191D01*
X64698110Y-60241213D01*
X64625543Y-60125720D01*
X64551684Y-60008170D01*
X64525615Y-59975480D01*
X64380077Y-59792977D01*
X64330351Y-59743250D01*
X64330339Y-59743236D01*
X64282774Y-59695670D01*
X64282768Y-59695665D01*
X64237374Y-59650270D01*
X64237374Y-59650271D01*
X63476275Y-58889172D01*
X63476274Y-58889170D01*
X63476273Y-58889169D01*
X63463343Y-58876238D01*
X63463315Y-58876184D01*
X63337041Y-58749912D01*
X63337038Y-58749909D01*
X63171338Y-58617771D01*
X63121850Y-58578306D01*
X63121846Y-58578304D01*
X63060988Y-58540065D01*
X62888798Y-58431873D01*
X62760237Y-58369962D01*
X62640819Y-58312455D01*
X62381080Y-58221573D01*
X62381026Y-58221554D01*
X62381025Y-58221553D01*
X62381023Y-58221553D01*
X62112690Y-58160311D01*
X61839185Y-58129498D01*
X61701567Y-58129500D01*
X58952870Y-58129500D01*
X58952577Y-58129518D01*
X58880813Y-58129518D01*
X58607313Y-58160330D01*
X58338985Y-58221571D01*
X58277103Y-58243223D01*
X58079191Y-58312474D01*
X58079184Y-58312476D01*
X58079179Y-58312479D01*
X57831210Y-58431891D01*
X57598170Y-58578315D01*
X57382972Y-58749926D01*
X57330092Y-58802804D01*
X57330093Y-58802805D01*
X57330085Y-58802813D01*
X57330084Y-58802813D01*
X57285665Y-58847230D01*
X57285666Y-58847231D01*
X57243727Y-58889169D01*
X57243725Y-58889171D01*
X57243724Y-58889172D01*
X56486383Y-59646512D01*
X56469903Y-59659792D01*
X56365411Y-59726945D01*
X56275869Y-59830283D01*
X56239051Y-59910903D01*
X56197679Y-59955980D01*
X56137712Y-59968131D01*
X56082056Y-59942713D01*
X56051970Y-59889436D01*
X56049998Y-59869776D01*
X56049998Y-57930000D01*
X56049998Y-57929999D01*
X55949998Y-57829999D01*
X55849998Y-57829999D01*
X55749998Y-57929999D01*
X55749998Y-57930000D01*
X55749998Y-71488991D01*
X55731091Y-71547182D01*
X55721002Y-71558995D01*
X55178994Y-72101003D01*
X55124477Y-72128780D01*
X55108990Y-72129999D01*
X54212047Y-72129999D01*
X54181455Y-72125154D01*
X54163456Y-72119306D01*
X53975271Y-72089500D01*
X53975268Y-72089500D01*
X53934043Y-72089500D01*
X50509500Y-72089500D01*
X50451309Y-72070593D01*
X50415345Y-72021093D01*
X50410500Y-71990500D01*
X50410500Y-64509500D01*
X50429407Y-64451309D01*
X50478907Y-64415345D01*
X50509500Y-64410500D01*
X52011012Y-64410500D01*
X52230288Y-64375770D01*
X52230289Y-64375769D01*
X52230293Y-64375769D01*
X52441444Y-64307162D01*
X52639263Y-64206368D01*
X52818879Y-64075870D01*
X52975870Y-63918879D01*
X53106368Y-63739263D01*
X53207162Y-63541444D01*
X53275769Y-63330293D01*
X53277148Y-63321585D01*
X53310500Y-63111012D01*
X53310500Y-62888987D01*
X53275770Y-62669711D01*
X53275769Y-62669707D01*
X53207162Y-62458556D01*
X53106368Y-62260737D01*
X52975870Y-62081121D01*
X52818879Y-61924130D01*
X52639263Y-61793632D01*
X52639262Y-61793631D01*
X52639260Y-61793630D01*
X52441444Y-61692838D01*
X52230288Y-61624229D01*
X52011012Y-61589500D01*
X52011009Y-61589500D01*
X51954043Y-61589500D01*
X50509500Y-61589500D01*
X50451309Y-61570593D01*
X50415345Y-61521093D01*
X50410500Y-61490500D01*
X50410500Y-60002773D01*
X50410656Y-59997222D01*
X50414769Y-59923975D01*
X50426470Y-59715612D01*
X50427713Y-59704586D01*
X50436302Y-59654036D01*
X50474495Y-59429248D01*
X50476956Y-59418462D01*
X50554278Y-59150072D01*
X50557938Y-59139613D01*
X50664817Y-58881585D01*
X50669631Y-58871590D01*
X50804721Y-58627163D01*
X50810618Y-58617778D01*
X50972237Y-58389996D01*
X50979141Y-58381338D01*
X51165257Y-58173075D01*
X51173075Y-58165257D01*
X51381338Y-57979141D01*
X51389996Y-57972237D01*
X51617778Y-57810618D01*
X51627163Y-57804721D01*
X51871596Y-57669627D01*
X51881585Y-57664817D01*
X52139613Y-57557938D01*
X52150072Y-57554278D01*
X52418462Y-57476956D01*
X52429248Y-57474495D01*
X52704593Y-57427712D01*
X52715612Y-57426470D01*
X52997222Y-57410655D01*
X53002773Y-57410500D01*
X53059021Y-57410500D01*
X125440979Y-57410500D01*
X125497227Y-57410500D01*
X125502777Y-57410655D01*
G37*
%TD.AperFunction*%
%TA.AperFunction,Conductor*%
G36*
X100206559Y-75127752D02*
G01*
X100229309Y-75164928D01*
X100255713Y-75242715D01*
X100259065Y-75255223D01*
X100300857Y-75465337D01*
X100302547Y-75478176D01*
X100316788Y-75695494D01*
X100317000Y-75701968D01*
X100317000Y-88033516D01*
X100317018Y-88033708D01*
X100317018Y-88098658D01*
X100333412Y-88244176D01*
X100345473Y-88351232D01*
X100402029Y-88599034D01*
X100485975Y-88838946D01*
X100485979Y-88838954D01*
X100485980Y-88838957D01*
X100492202Y-88851877D01*
X100596254Y-89067950D01*
X100719755Y-89264504D01*
X100731484Y-89283170D01*
X100756016Y-89313933D01*
X100889953Y-89481889D01*
X100934676Y-89526612D01*
X100934679Y-89526616D01*
X100942825Y-89534762D01*
X100942826Y-89534764D01*
X100979816Y-89571754D01*
X100979817Y-89571756D01*
X101026518Y-89618458D01*
X101026531Y-89618469D01*
X106379238Y-94971177D01*
X106379266Y-94971232D01*
X106498099Y-95090063D01*
X106682286Y-95236945D01*
X106696823Y-95248537D01*
X106912041Y-95383764D01*
X107141047Y-95494044D01*
X107380961Y-95577990D01*
X107628765Y-95634547D01*
X107881343Y-95663002D01*
X108008431Y-95663000D01*
X113255603Y-95663000D01*
X113294765Y-95671074D01*
X113682723Y-95838174D01*
X113684951Y-95838637D01*
X113692665Y-95840567D01*
X113811633Y-95875500D01*
X113811634Y-95875500D01*
X113948366Y-95875500D01*
X113948367Y-95875500D01*
X114079561Y-95836978D01*
X114145623Y-95794522D01*
X114204797Y-95778968D01*
X114261813Y-95801167D01*
X114294893Y-95852640D01*
X114297933Y-95884280D01*
X114290067Y-96004324D01*
X114288377Y-96017164D01*
X114246583Y-96227288D01*
X114243232Y-96239796D01*
X114174375Y-96442651D01*
X114169419Y-96454615D01*
X114074665Y-96646763D01*
X114068190Y-96657979D01*
X113949172Y-96836106D01*
X113941289Y-96846380D01*
X113798079Y-97009682D01*
X113793650Y-97014410D01*
X113712611Y-97095450D01*
X113712609Y-97095452D01*
X113682111Y-97125949D01*
X113677384Y-97130377D01*
X113599241Y-97198904D01*
X113587685Y-97209040D01*
X113513874Y-97273769D01*
X113503600Y-97281652D01*
X113325470Y-97400672D01*
X113314254Y-97407147D01*
X113122114Y-97501897D01*
X113110150Y-97506852D01*
X112907284Y-97575713D01*
X112894776Y-97579065D01*
X112684662Y-97620857D01*
X112671823Y-97622547D01*
X112454505Y-97636788D01*
X112448031Y-97637000D01*
X110859275Y-97637000D01*
X110801084Y-97618093D01*
X110765120Y-97568593D01*
X110765120Y-97507407D01*
X110790604Y-97468971D01*
X110789952Y-97468406D01*
X110794329Y-97463353D01*
X110794445Y-97463180D01*
X110794586Y-97463057D01*
X110794586Y-97463056D01*
X110794589Y-97463055D01*
X110884130Y-97359718D01*
X110920991Y-97279005D01*
X110940930Y-97235345D01*
X110940932Y-97235337D01*
X110960390Y-97100002D01*
X110960390Y-97099997D01*
X110940932Y-96964662D01*
X110940930Y-96964654D01*
X110884131Y-96840284D01*
X110884130Y-96840283D01*
X110884130Y-96840282D01*
X110794589Y-96736945D01*
X110679561Y-96663022D01*
X110679558Y-96663021D01*
X110548368Y-96624500D01*
X110548367Y-96624500D01*
X110411633Y-96624500D01*
X110411629Y-96624500D01*
X110292569Y-96659459D01*
X110285362Y-96661284D01*
X110284516Y-96661464D01*
X110282607Y-96661872D01*
X110282602Y-96661874D01*
X109894766Y-96828924D01*
X109855603Y-96837000D01*
X107411661Y-96837000D01*
X107405188Y-96836788D01*
X107378541Y-96835041D01*
X107188174Y-96822567D01*
X107175335Y-96820877D01*
X106965213Y-96779084D01*
X106952704Y-96775732D01*
X106749844Y-96706872D01*
X106737881Y-96701917D01*
X106545735Y-96607164D01*
X106534520Y-96600689D01*
X106356388Y-96481668D01*
X106346124Y-96473794D01*
X106182816Y-96330579D01*
X106178102Y-96326164D01*
X100344056Y-90492118D01*
X100339627Y-90487388D01*
X100196224Y-90323864D01*
X100188341Y-90313591D01*
X100069322Y-90135461D01*
X100062854Y-90124258D01*
X99982646Y-89961609D01*
X99968101Y-89932114D01*
X99963147Y-89920150D01*
X99894286Y-89717284D01*
X99890936Y-89704784D01*
X99849140Y-89494652D01*
X99847453Y-89481830D01*
X99833212Y-89264504D01*
X99833000Y-89258031D01*
X99833000Y-75924398D01*
X99841075Y-75885235D01*
X99895138Y-75759715D01*
X100008175Y-75497276D01*
X100010536Y-75485916D01*
X100017407Y-75464953D01*
X100030931Y-75435342D01*
X100034659Y-75409417D01*
X100050390Y-75300002D01*
X100050390Y-75299997D01*
X100037571Y-75210838D01*
X100048004Y-75150549D01*
X100091882Y-75107906D01*
X100152445Y-75099199D01*
X100206559Y-75127752D01*
G37*
%TD.AperFunction*%
%TA.AperFunction,Conductor*%
G36*
X62159593Y-64469762D02*
G01*
X62172942Y-64495250D01*
X62210975Y-64603946D01*
X62210979Y-64603954D01*
X62210980Y-64603957D01*
X62234361Y-64652509D01*
X62321254Y-64832950D01*
X62456481Y-65048166D01*
X62614953Y-65246889D01*
X62659676Y-65291612D01*
X62659679Y-65291616D01*
X62667825Y-65299762D01*
X62667826Y-65299764D01*
X62704816Y-65336754D01*
X62704817Y-65336756D01*
X62751518Y-65383458D01*
X62751532Y-65383470D01*
X63561365Y-66193303D01*
X63589142Y-66247820D01*
X63579571Y-66308252D01*
X63536306Y-66351517D01*
X63475874Y-66361088D01*
X63463469Y-66358297D01*
X63348368Y-66324500D01*
X63348367Y-66324500D01*
X63211633Y-66324500D01*
X63211631Y-66324500D01*
X63080441Y-66363021D01*
X63080439Y-66363021D01*
X63080439Y-66363022D01*
X62965411Y-66436945D01*
X62965410Y-66436945D01*
X62965410Y-66436946D01*
X62875868Y-66540284D01*
X62819069Y-66664654D01*
X62819067Y-66664662D01*
X62799610Y-66799997D01*
X62799610Y-66800002D01*
X62819068Y-66935341D01*
X62835928Y-66972258D01*
X62841769Y-66988782D01*
X62845998Y-67005266D01*
X63027252Y-67382894D01*
X63037000Y-67425733D01*
X63037000Y-80790931D01*
X63036523Y-80800634D01*
X63023796Y-80929869D01*
X63020011Y-80948899D01*
X62983732Y-81068502D01*
X62976308Y-81086426D01*
X62917394Y-81196649D01*
X62906611Y-81212787D01*
X62824296Y-81313089D01*
X62817778Y-81320281D01*
X62812614Y-81325446D01*
X62812611Y-81325443D01*
X62812595Y-81325466D01*
X62809575Y-81328485D01*
X62809522Y-81328511D01*
X62689937Y-81448098D01*
X62531464Y-81646821D01*
X62396234Y-81862045D01*
X62285958Y-82091042D01*
X62202008Y-82330965D01*
X62176018Y-82444843D01*
X62144637Y-82497368D01*
X62088375Y-82521416D01*
X62028724Y-82507802D01*
X61988467Y-82461725D01*
X61980500Y-82422815D01*
X61980500Y-64527953D01*
X61999407Y-64469762D01*
X62048907Y-64433798D01*
X62110093Y-64433798D01*
X62159593Y-64469762D01*
G37*
%TD.AperFunction*%
%TD*%
%TA.AperFunction,Conductor*%
%TO.N,/IN_DT*%
G36*
X58718053Y-84098542D02*
G01*
X58723157Y-84100676D01*
X58729467Y-84107029D01*
X58729437Y-84115984D01*
X58729389Y-84116098D01*
X58545546Y-84542928D01*
X58539126Y-84549171D01*
X58534800Y-84550000D01*
X58425200Y-84550000D01*
X58416927Y-84546573D01*
X58414454Y-84542928D01*
X58403539Y-84517588D01*
X58230609Y-84116096D01*
X58230485Y-84107144D01*
X58236728Y-84100724D01*
X58475487Y-84000886D01*
X58484441Y-84000857D01*
X58718053Y-84098542D01*
G37*
%TD.AperFunction*%
%TD*%
%TA.AperFunction,Conductor*%
%TO.N,/IN_DT*%
G36*
X114531071Y-87199693D02*
G01*
X114537380Y-87206048D01*
X114537765Y-87207136D01*
X114676178Y-87670271D01*
X114675264Y-87679179D01*
X114670818Y-87683754D01*
X114575887Y-87738560D01*
X114567009Y-87739728D01*
X114565027Y-87739000D01*
X114184791Y-87558819D01*
X114178782Y-87552179D01*
X114178978Y-87543803D01*
X114277643Y-87303655D01*
X114283955Y-87297307D01*
X114522118Y-87199661D01*
X114531071Y-87199693D01*
G37*
%TD.AperFunction*%
%TD*%
%TA.AperFunction,Conductor*%
%TO.N,/HV*%
G36*
X126858258Y-71427287D02*
G01*
X127077882Y-71647644D01*
X127143644Y-71713625D01*
X127147057Y-71721903D01*
X127145463Y-71727779D01*
X126978386Y-72014197D01*
X126971258Y-72019617D01*
X126968280Y-72020002D01*
X126731720Y-72020002D01*
X126723447Y-72016575D01*
X126721614Y-72014197D01*
X126671490Y-71928271D01*
X126554535Y-71727777D01*
X126553327Y-71718906D01*
X126556353Y-71713626D01*
X126841714Y-71427315D01*
X126849981Y-71423875D01*
X126858258Y-71427287D01*
G37*
%TD.AperFunction*%
%TD*%
%TA.AperFunction,Conductor*%
%TO.N,/HV*%
G36*
X127157775Y-71124537D02*
G01*
X127444196Y-71291616D01*
X127449615Y-71298743D01*
X127450000Y-71301721D01*
X127450000Y-71538282D01*
X127446573Y-71546555D01*
X127444195Y-71548388D01*
X127157777Y-71715465D01*
X127148904Y-71716674D01*
X127143623Y-71713646D01*
X126975975Y-71546555D01*
X126857313Y-71428287D01*
X126853873Y-71420021D01*
X126857285Y-71411743D01*
X127143624Y-71126356D01*
X127151901Y-71122944D01*
X127157775Y-71124537D01*
G37*
%TD.AperFunction*%
%TD*%
%TA.AperFunction,Conductor*%
%TO.N,/HV*%
G36*
X127406376Y-71126357D02*
G01*
X127692685Y-71411715D01*
X127696126Y-71419983D01*
X127692713Y-71428261D01*
X127692685Y-71428289D01*
X127406376Y-71713646D01*
X127398098Y-71717059D01*
X127392222Y-71715465D01*
X127105805Y-71548388D01*
X127100385Y-71541260D01*
X127100000Y-71538282D01*
X127100000Y-71301721D01*
X127103427Y-71293448D01*
X127105800Y-71291618D01*
X127392224Y-71124537D01*
X127401095Y-71123329D01*
X127406376Y-71126357D01*
G37*
%TD.AperFunction*%
%TD*%
%TA.AperFunction,Conductor*%
%TO.N,/HV*%
G36*
X107566733Y-74868917D02*
G01*
X107731082Y-75033266D01*
X107734509Y-75041539D01*
X107733060Y-75047179D01*
X107519099Y-75436090D01*
X107512109Y-75441686D01*
X107504407Y-75441274D01*
X107263819Y-75342563D01*
X107257466Y-75336253D01*
X107257436Y-75336180D01*
X107158725Y-75095592D01*
X107158755Y-75086637D01*
X107163907Y-75080901D01*
X107552822Y-74866938D01*
X107561721Y-74865954D01*
X107566733Y-74868917D01*
G37*
%TD.AperFunction*%
%TD*%
%TA.AperFunction,Conductor*%
%TO.N,/MCU_OK*%
G36*
X113879275Y-93056728D02*
G01*
X113879323Y-93056842D01*
X113979112Y-93295486D01*
X113979142Y-93304441D01*
X113979112Y-93304514D01*
X113879323Y-93543157D01*
X113872970Y-93549467D01*
X113864015Y-93549437D01*
X113863901Y-93549389D01*
X113437072Y-93365546D01*
X113430829Y-93359126D01*
X113430000Y-93354800D01*
X113430000Y-93245199D01*
X113433427Y-93236926D01*
X113437068Y-93234455D01*
X113863903Y-93050609D01*
X113872855Y-93050485D01*
X113879275Y-93056728D01*
G37*
%TD.AperFunction*%
%TD*%
%TA.AperFunction,Conductor*%
%TO.N,/MCU_OK*%
G36*
X101718053Y-74698542D02*
G01*
X101723157Y-74700676D01*
X101729467Y-74707029D01*
X101729437Y-74715984D01*
X101729389Y-74716098D01*
X101545546Y-75142928D01*
X101539126Y-75149171D01*
X101534800Y-75150000D01*
X101425200Y-75150000D01*
X101416927Y-75146573D01*
X101414454Y-75142928D01*
X101403539Y-75117588D01*
X101230609Y-74716096D01*
X101230485Y-74707144D01*
X101236728Y-74700724D01*
X101475487Y-74600886D01*
X101484441Y-74600857D01*
X101718053Y-74698542D01*
G37*
%TD.AperFunction*%
%TD*%
%TA.AperFunction,Conductor*%
%TO.N,+3.3*%
G36*
X95873635Y-88449827D02*
G01*
X95878789Y-88455564D01*
X95979112Y-88695486D01*
X95979142Y-88704441D01*
X95979112Y-88704514D01*
X95878789Y-88944435D01*
X95872436Y-88950745D01*
X95864734Y-88951157D01*
X95438439Y-88827448D01*
X95431449Y-88821852D01*
X95430000Y-88816212D01*
X95430000Y-88583787D01*
X95433427Y-88575514D01*
X95438439Y-88572551D01*
X95864736Y-88448842D01*
X95873635Y-88449827D01*
G37*
%TD.AperFunction*%
%TD*%
%TA.AperFunction,Conductor*%
%TO.N,+3.3*%
G36*
X72533226Y-78996803D02*
G01*
X73059881Y-79068620D01*
X73067615Y-79073134D01*
X73070000Y-79080213D01*
X73070000Y-79459786D01*
X73066573Y-79468059D01*
X73059881Y-79471379D01*
X72533232Y-79543195D01*
X72524572Y-79540917D01*
X72520058Y-79533183D01*
X72519951Y-79531645D01*
X72519000Y-79270086D01*
X72519000Y-79270000D01*
X72519951Y-79008354D01*
X72523408Y-79000094D01*
X72531694Y-78996697D01*
X72533226Y-78996803D01*
G37*
%TD.AperFunction*%
%TD*%
%TA.AperFunction,Conductor*%
%TO.N,+3.3*%
G36*
X68506733Y-74478917D02*
G01*
X68671082Y-74643266D01*
X68674509Y-74651539D01*
X68673060Y-74657179D01*
X68459099Y-75046090D01*
X68452109Y-75051686D01*
X68444407Y-75051274D01*
X68203819Y-74952563D01*
X68197466Y-74946253D01*
X68197436Y-74946180D01*
X68098725Y-74705592D01*
X68098755Y-74696637D01*
X68103907Y-74690901D01*
X68492822Y-74476938D01*
X68501721Y-74475954D01*
X68506733Y-74478917D01*
G37*
%TD.AperFunction*%
%TD*%
%TA.AperFunction,Conductor*%
%TO.N,+3.3*%
G36*
X77601561Y-83422551D02*
G01*
X77608551Y-83428147D01*
X77610000Y-83433787D01*
X77610000Y-83666212D01*
X77606573Y-83674485D01*
X77601561Y-83677448D01*
X77175265Y-83801157D01*
X77166364Y-83800172D01*
X77161210Y-83794435D01*
X77112292Y-83677448D01*
X77060886Y-83554512D01*
X77060857Y-83545559D01*
X77060856Y-83545559D01*
X77161211Y-83305562D01*
X77167563Y-83299254D01*
X77175262Y-83298842D01*
X77601561Y-83422551D01*
G37*
%TD.AperFunction*%
%TD*%
%TA.AperFunction,Conductor*%
%TO.N,+3.3*%
G36*
X102591986Y-83153427D02*
G01*
X102594949Y-83158439D01*
X102718657Y-83584734D01*
X102717672Y-83593635D01*
X102711935Y-83598789D01*
X102472014Y-83699112D01*
X102463059Y-83699142D01*
X102462986Y-83699112D01*
X102223064Y-83598789D01*
X102216754Y-83592436D01*
X102216342Y-83584737D01*
X102340051Y-83158438D01*
X102345647Y-83151449D01*
X102351287Y-83150000D01*
X102583713Y-83150000D01*
X102591986Y-83153427D01*
G37*
%TD.AperFunction*%
%TD*%
%TA.AperFunction,Conductor*%
%TO.N,+3.3*%
G36*
X77258060Y-83003427D02*
G01*
X77261380Y-83010119D01*
X77333195Y-83536767D01*
X77330917Y-83545427D01*
X77323183Y-83549941D01*
X77321645Y-83550048D01*
X77060043Y-83550999D01*
X77059957Y-83550999D01*
X76798354Y-83550048D01*
X76790094Y-83546591D01*
X76786697Y-83538305D01*
X76786804Y-83536767D01*
X76858620Y-83010119D01*
X76863134Y-83002385D01*
X76870213Y-83000000D01*
X77249787Y-83000000D01*
X77258060Y-83003427D01*
G37*
%TD.AperFunction*%
%TD*%
%TA.AperFunction,Conductor*%
%TO.N,+3.3*%
G36*
X114073635Y-85449827D02*
G01*
X114078789Y-85455564D01*
X114179112Y-85695486D01*
X114179142Y-85704441D01*
X114179112Y-85704514D01*
X114078789Y-85944435D01*
X114072436Y-85950745D01*
X114064734Y-85951157D01*
X113638439Y-85827448D01*
X113631449Y-85821852D01*
X113630000Y-85816212D01*
X113630000Y-85583787D01*
X113633427Y-85575514D01*
X113638439Y-85572551D01*
X114064736Y-85448842D01*
X114073635Y-85449827D01*
G37*
%TD.AperFunction*%
%TD*%
%TA.AperFunction,Conductor*%
%TO.N,+3.3*%
G36*
X105035592Y-75398725D02*
G01*
X105276180Y-75497436D01*
X105282533Y-75503746D01*
X105282563Y-75503819D01*
X105381274Y-75744407D01*
X105381244Y-75753362D01*
X105376090Y-75759099D01*
X104987179Y-75973060D01*
X104978278Y-75974045D01*
X104973266Y-75971082D01*
X104808917Y-75806733D01*
X104805490Y-75798460D01*
X104806937Y-75792824D01*
X105020901Y-75403907D01*
X105027890Y-75398313D01*
X105035592Y-75398725D01*
G37*
%TD.AperFunction*%
%TD*%
%TA.AperFunction,Conductor*%
%TO.N,+3.3*%
G36*
X102711935Y-83801210D02*
G01*
X102718245Y-83807563D01*
X102718657Y-83815265D01*
X102594949Y-84241561D01*
X102589353Y-84248551D01*
X102583713Y-84250000D01*
X102351287Y-84250000D01*
X102343014Y-84246573D01*
X102340051Y-84241561D01*
X102216342Y-83815263D01*
X102217327Y-83806364D01*
X102223062Y-83801211D01*
X102462987Y-83700886D01*
X102471941Y-83700857D01*
X102711935Y-83801210D01*
G37*
%TD.AperFunction*%
%TD*%
%TA.AperFunction,Conductor*%
%TO.N,+3.3*%
G36*
X68401522Y-74765014D02*
G01*
X68402534Y-74766178D01*
X68724149Y-75189356D01*
X68726427Y-75198016D01*
X68723107Y-75204708D01*
X68454708Y-75473107D01*
X68446435Y-75476534D01*
X68439356Y-75474149D01*
X68016178Y-75152534D01*
X68011664Y-75144800D01*
X68013942Y-75136140D01*
X68014944Y-75134986D01*
X68199293Y-74949293D01*
X68384978Y-74764953D01*
X68393261Y-74761557D01*
X68401522Y-74765014D01*
G37*
%TD.AperFunction*%
%TD*%
%TA.AperFunction,Conductor*%
%TO.N,+3.3*%
G36*
X72280643Y-78745850D02*
G01*
X72703821Y-79067465D01*
X72708335Y-79075199D01*
X72706057Y-79083859D01*
X72705045Y-79085023D01*
X72520767Y-79270647D01*
X72520707Y-79270707D01*
X72335023Y-79455045D01*
X72326737Y-79458442D01*
X72318477Y-79454985D01*
X72317465Y-79453821D01*
X71995850Y-79030643D01*
X71993572Y-79021983D01*
X71996891Y-79015292D01*
X72265292Y-78746891D01*
X72273564Y-78743465D01*
X72280643Y-78745850D01*
G37*
%TD.AperFunction*%
%TD*%
%TA.AperFunction,Conductor*%
%TO.N,+3.3*%
G36*
X78835592Y-70198725D02*
G01*
X79076180Y-70297436D01*
X79082533Y-70303746D01*
X79082563Y-70303819D01*
X79181274Y-70544407D01*
X79181244Y-70553362D01*
X79176090Y-70559099D01*
X78787179Y-70773060D01*
X78778278Y-70774045D01*
X78773266Y-70771082D01*
X78608917Y-70606733D01*
X78605490Y-70598460D01*
X78606937Y-70592824D01*
X78820901Y-70203907D01*
X78827890Y-70198313D01*
X78835592Y-70198725D01*
G37*
%TD.AperFunction*%
%TD*%
%TA.AperFunction,Conductor*%
%TO.N,/PREVGL*%
G36*
X71516757Y-66260594D02*
G01*
X71523718Y-66266226D01*
X71525054Y-66270415D01*
X71538147Y-66379224D01*
X71535733Y-66387848D01*
X71532397Y-66390745D01*
X71106759Y-66637390D01*
X71097883Y-66638573D01*
X71090770Y-66633133D01*
X71090099Y-66631782D01*
X70990895Y-66394631D01*
X70990864Y-66385677D01*
X71091191Y-66145615D01*
X71097542Y-66139306D01*
X71105301Y-66138909D01*
X71516757Y-66260594D01*
G37*
%TD.AperFunction*%
%TD*%
%TA.AperFunction,Conductor*%
%TO.N,/PREVGL*%
G36*
X75709229Y-65566866D02*
G01*
X75709900Y-65568217D01*
X75809104Y-65805368D01*
X75809135Y-65814323D01*
X75809105Y-65814395D01*
X75708809Y-66054382D01*
X75702457Y-66060693D01*
X75694696Y-66061090D01*
X75693353Y-66060693D01*
X75283243Y-65939406D01*
X75276281Y-65933773D01*
X75274946Y-65929587D01*
X75261852Y-65820774D01*
X75264266Y-65812151D01*
X75267600Y-65809255D01*
X75693241Y-65562608D01*
X75702116Y-65561426D01*
X75709229Y-65566866D01*
G37*
%TD.AperFunction*%
%TD*%
%TA.AperFunction,Conductor*%
%TO.N,Net-(D2-K)*%
G36*
X126976553Y-69423429D02*
G01*
X126978386Y-69425807D01*
X127145463Y-69712224D01*
X127146672Y-69721097D01*
X127143644Y-69726378D01*
X126858287Y-70012687D01*
X126850019Y-70016128D01*
X126841741Y-70012715D01*
X126841713Y-70012687D01*
X126556355Y-69726378D01*
X126552942Y-69718100D01*
X126554534Y-69712227D01*
X126721614Y-69425807D01*
X126728742Y-69420387D01*
X126731720Y-69420002D01*
X126968280Y-69420002D01*
X126976553Y-69423429D01*
G37*
%TD.AperFunction*%
%TD*%
%TA.AperFunction,Conductor*%
%TO.N,Net-(D2-K)*%
G36*
X126422616Y-66444609D02*
G01*
X126428741Y-66450538D01*
X126473843Y-66549207D01*
X126590694Y-66804843D01*
X126626026Y-66882137D01*
X126626349Y-66891086D01*
X126621235Y-66897133D01*
X126420019Y-67013307D01*
X126411141Y-67014476D01*
X126407989Y-67013110D01*
X126073164Y-66804843D01*
X126067949Y-66797563D01*
X126068521Y-66790465D01*
X126167642Y-66549205D01*
X126173954Y-66542857D01*
X126413664Y-66444577D01*
X126422616Y-66444609D01*
G37*
%TD.AperFunction*%
%TD*%
%TA.AperFunction,Conductor*%
%TO.N,Net-(D3-A2)*%
G36*
X126293362Y-65198755D02*
G01*
X126299099Y-65203909D01*
X126513060Y-65592820D01*
X126514045Y-65601721D01*
X126511082Y-65606733D01*
X126346733Y-65771082D01*
X126338460Y-65774509D01*
X126332820Y-65773060D01*
X125943909Y-65559099D01*
X125938313Y-65552109D01*
X125938725Y-65544407D01*
X126037436Y-65303819D01*
X126043746Y-65297466D01*
X126043819Y-65297436D01*
X126284407Y-65198725D01*
X126293362Y-65198755D01*
G37*
%TD.AperFunction*%
%TD*%
%TA.AperFunction,Conductor*%
%TO.N,Net-(D3-A2)*%
G36*
X127826553Y-69423429D02*
G01*
X127828386Y-69425807D01*
X127995463Y-69712224D01*
X127996672Y-69721097D01*
X127993644Y-69726378D01*
X127708287Y-70012687D01*
X127700019Y-70016128D01*
X127691741Y-70012715D01*
X127691713Y-70012687D01*
X127406355Y-69726378D01*
X127402942Y-69718100D01*
X127404534Y-69712227D01*
X127571614Y-69425807D01*
X127578742Y-69420387D01*
X127581720Y-69420002D01*
X127818280Y-69420002D01*
X127826553Y-69423429D01*
G37*
%TD.AperFunction*%
%TD*%
%TA.AperFunction,Conductor*%
%TO.N,Net-(D6-A)*%
G36*
X125255689Y-66987288D02*
G01*
X125335947Y-67067418D01*
X125566197Y-67297303D01*
X125569630Y-67305574D01*
X125566233Y-67313826D01*
X125384151Y-67497237D01*
X125375891Y-67500694D01*
X125375818Y-67500694D01*
X125118218Y-67500033D01*
X125109954Y-67496585D01*
X125106548Y-67488303D01*
X125106638Y-67486883D01*
X125129284Y-67305574D01*
X125158532Y-67071399D01*
X125161868Y-67064579D01*
X125239152Y-66987295D01*
X125247424Y-66983869D01*
X125255689Y-66987288D01*
G37*
%TD.AperFunction*%
%TD*%
%TA.AperFunction,Conductor*%
%TO.N,Net-(D6-A)*%
G36*
X102026513Y-68669869D02*
G01*
X102030158Y-68672342D01*
X102107657Y-68749841D01*
X102111084Y-68758114D01*
X102110255Y-68762440D01*
X101938438Y-69194251D01*
X101932195Y-69200671D01*
X101923241Y-69200796D01*
X101923126Y-69200749D01*
X101683819Y-69102563D01*
X101677466Y-69096253D01*
X101677436Y-69096180D01*
X101637940Y-68999918D01*
X101579250Y-68856871D01*
X101579280Y-68847918D01*
X101585633Y-68841608D01*
X101585683Y-68841587D01*
X102017561Y-68669744D01*
X102026513Y-68669869D01*
G37*
%TD.AperFunction*%
%TD*%
%TA.AperFunction,Conductor*%
%TO.N,/E_RES*%
G36*
X75514269Y-71881725D02*
G01*
X75514317Y-71881839D01*
X75614106Y-72120483D01*
X75614136Y-72129438D01*
X75614106Y-72129511D01*
X75514317Y-72368154D01*
X75507964Y-72374464D01*
X75499009Y-72374434D01*
X75498895Y-72374386D01*
X75072066Y-72190543D01*
X75065823Y-72184123D01*
X75064994Y-72179797D01*
X75064994Y-72070196D01*
X75068421Y-72061923D01*
X75072062Y-72059452D01*
X75498897Y-71875606D01*
X75507849Y-71875482D01*
X75514269Y-71881725D01*
G37*
%TD.AperFunction*%
%TD*%
%TA.AperFunction,Conductor*%
%TO.N,/E_RES*%
G36*
X62543053Y-59980534D02*
G01*
X62548157Y-59982668D01*
X62554467Y-59989021D01*
X62554437Y-59997976D01*
X62554389Y-59998090D01*
X62370546Y-60424920D01*
X62364126Y-60431163D01*
X62359800Y-60431992D01*
X62250200Y-60431992D01*
X62241927Y-60428565D01*
X62239454Y-60424920D01*
X62228539Y-60399580D01*
X62055609Y-59998088D01*
X62055485Y-59989136D01*
X62061728Y-59982716D01*
X62300487Y-59882878D01*
X62309441Y-59882849D01*
X62543053Y-59980534D01*
G37*
%TD.AperFunction*%
%TD*%
%TA.AperFunction,Conductor*%
%TO.N,/RESE*%
G36*
X73425024Y-60571773D02*
G01*
X73427625Y-60573733D01*
X73505139Y-60651247D01*
X73508566Y-60659520D01*
X73507299Y-60664815D01*
X73308953Y-61055611D01*
X73302153Y-61061438D01*
X73294079Y-61061140D01*
X73053819Y-60962563D01*
X73047466Y-60956253D01*
X73047436Y-60956180D01*
X72949721Y-60718019D01*
X72949751Y-60709064D01*
X72956104Y-60702754D01*
X72957307Y-60702335D01*
X73416129Y-60570759D01*
X73425024Y-60571773D01*
G37*
%TD.AperFunction*%
%TD*%
%TA.AperFunction,Conductor*%
%TO.N,/RESE*%
G36*
X74814918Y-59122940D02*
G01*
X74911180Y-59162436D01*
X74917533Y-59168746D01*
X74917563Y-59168819D01*
X75015749Y-59408126D01*
X75015719Y-59417081D01*
X75009366Y-59423391D01*
X75009251Y-59423438D01*
X74577440Y-59595255D01*
X74568486Y-59595130D01*
X74564841Y-59592657D01*
X74487342Y-59515158D01*
X74483915Y-59506885D01*
X74484743Y-59502563D01*
X74656562Y-59070746D01*
X74662804Y-59064328D01*
X74671757Y-59064203D01*
X74814918Y-59122940D01*
G37*
%TD.AperFunction*%
%TD*%
%TA.AperFunction,Conductor*%
%TO.N,/GDR*%
G36*
X75318063Y-75028552D02*
G01*
X75323167Y-75030686D01*
X75329477Y-75037039D01*
X75329447Y-75045994D01*
X75329399Y-75046108D01*
X75145552Y-75472937D01*
X75139131Y-75479180D01*
X75134806Y-75480009D01*
X75025206Y-75480009D01*
X75016933Y-75476582D01*
X75014460Y-75472937D01*
X74830619Y-75046106D01*
X74830495Y-75037154D01*
X74836738Y-75030734D01*
X75075497Y-74930896D01*
X75084451Y-74930867D01*
X75318063Y-75028552D01*
G37*
%TD.AperFunction*%
%TD*%
%TA.AperFunction,Conductor*%
%TO.N,/GDR*%
G36*
X75143079Y-75653433D02*
G01*
X75145552Y-75657078D01*
X75329395Y-76083907D01*
X75329520Y-76092861D01*
X75323277Y-76099281D01*
X75323163Y-76099329D01*
X75084520Y-76199118D01*
X75075565Y-76199148D01*
X75075492Y-76199118D01*
X74836848Y-76099329D01*
X74830538Y-76092976D01*
X74830568Y-76084021D01*
X74830571Y-76084013D01*
X75014460Y-75657078D01*
X75020880Y-75650835D01*
X75025206Y-75650006D01*
X75134806Y-75650006D01*
X75143079Y-75653433D01*
G37*
%TD.AperFunction*%
%TD*%
%TA.AperFunction,Conductor*%
%TO.N,/SDA*%
G36*
X96679275Y-91856728D02*
G01*
X96679323Y-91856842D01*
X96779112Y-92095486D01*
X96779142Y-92104441D01*
X96779112Y-92104514D01*
X96679323Y-92343157D01*
X96672970Y-92349467D01*
X96664015Y-92349437D01*
X96663901Y-92349389D01*
X96237072Y-92165546D01*
X96230829Y-92159126D01*
X96230000Y-92154800D01*
X96230000Y-92045199D01*
X96233427Y-92036926D01*
X96237068Y-92034455D01*
X96663903Y-91850609D01*
X96672855Y-91850485D01*
X96679275Y-91856728D01*
G37*
%TD.AperFunction*%
%TD*%
%TA.AperFunction,Conductor*%
%TO.N,/SDA*%
G36*
X90327598Y-95757667D02*
G01*
X90396961Y-95786398D01*
X90428771Y-95799574D01*
X90435103Y-95805906D01*
X90435633Y-95807501D01*
X90531578Y-96184971D01*
X90530295Y-96193833D01*
X90524744Y-96198651D01*
X90284129Y-96299040D01*
X90275174Y-96299063D01*
X90275107Y-96299035D01*
X90038998Y-96200229D01*
X90032689Y-96193874D01*
X90032722Y-96184919D01*
X90033764Y-96182971D01*
X90313378Y-95762002D01*
X90320809Y-95757008D01*
X90327598Y-95757667D01*
G37*
%TD.AperFunction*%
%TD*%
%TA.AperFunction,Conductor*%
%TO.N,/SCL*%
G36*
X92132081Y-96399280D02*
G01*
X92138391Y-96405633D01*
X92138438Y-96405748D01*
X92310255Y-96837559D01*
X92310130Y-96846513D01*
X92307657Y-96850158D01*
X92230158Y-96927657D01*
X92221885Y-96931084D01*
X92217559Y-96930255D01*
X91785748Y-96758438D01*
X91779328Y-96752195D01*
X91779203Y-96743242D01*
X91877436Y-96503818D01*
X91883746Y-96497466D01*
X91883819Y-96497436D01*
X92123128Y-96399250D01*
X92132081Y-96399280D01*
G37*
%TD.AperFunction*%
%TD*%
%TA.AperFunction,Conductor*%
%TO.N,/SCL*%
G36*
X114230315Y-91200003D02*
G01*
X114236624Y-91206358D01*
X114237192Y-91208133D01*
X114344690Y-91668050D01*
X114343236Y-91676886D01*
X114339147Y-91680846D01*
X114243909Y-91735830D01*
X114235031Y-91736998D01*
X114232755Y-91736126D01*
X113884381Y-91558959D01*
X113878560Y-91552154D01*
X113878862Y-91544085D01*
X113977643Y-91303655D01*
X113983955Y-91297307D01*
X114221362Y-91199971D01*
X114230315Y-91200003D01*
G37*
%TD.AperFunction*%
%TD*%
%TA.AperFunction,Conductor*%
%TO.N,/T_RES*%
G36*
X63523538Y-66900835D02*
G01*
X63529848Y-66907188D01*
X63529927Y-66915873D01*
X63365402Y-67338566D01*
X63359208Y-67345033D01*
X63354499Y-67346022D01*
X63244862Y-67346022D01*
X63236589Y-67342595D01*
X63234314Y-67339385D01*
X63031263Y-66916343D01*
X63030773Y-66907401D01*
X63036748Y-66900732D01*
X63037297Y-66900486D01*
X63275487Y-66800886D01*
X63284441Y-66800857D01*
X63523538Y-66900835D01*
G37*
%TD.AperFunction*%
%TD*%
%TA.AperFunction,Conductor*%
%TO.N,/T_RES*%
G36*
X65442437Y-89969743D02*
G01*
X65874251Y-90141561D01*
X65880671Y-90147804D01*
X65880796Y-90156758D01*
X65880749Y-90156873D01*
X65782563Y-90396180D01*
X65776253Y-90402533D01*
X65776180Y-90402563D01*
X65536873Y-90500749D01*
X65527918Y-90500719D01*
X65521608Y-90494366D01*
X65521561Y-90494251D01*
X65349744Y-90062438D01*
X65349869Y-90053486D01*
X65352339Y-90049844D01*
X65429842Y-89972341D01*
X65438114Y-89968915D01*
X65442437Y-89969743D01*
G37*
%TD.AperFunction*%
%TD*%
%TA.AperFunction,Conductor*%
%TO.N,/RES*%
G36*
X94732866Y-100598960D02*
G01*
X94738875Y-100604631D01*
X94917283Y-100970804D01*
X94917826Y-100979743D01*
X94916897Y-100981779D01*
X94862004Y-101076851D01*
X94854900Y-101082302D01*
X94848817Y-101082295D01*
X94387562Y-100957529D01*
X94380471Y-100952061D01*
X94379323Y-100943180D01*
X94379788Y-100941806D01*
X94477279Y-100704023D01*
X94483586Y-100697670D01*
X94723912Y-100598934D01*
X94732866Y-100598960D01*
G37*
%TD.AperFunction*%
%TD*%
%TA.AperFunction,Conductor*%
%TO.N,/RES_TC*%
G36*
X94279918Y-89957940D02*
G01*
X94376180Y-89997436D01*
X94382533Y-90003746D01*
X94382563Y-90003819D01*
X94480749Y-90243126D01*
X94480719Y-90252081D01*
X94474366Y-90258391D01*
X94474251Y-90258438D01*
X94042440Y-90430255D01*
X94033486Y-90430130D01*
X94029841Y-90427657D01*
X93952342Y-90350158D01*
X93948915Y-90341885D01*
X93949743Y-90337563D01*
X94121562Y-89905746D01*
X94127804Y-89899328D01*
X94136757Y-89899203D01*
X94279918Y-89957940D01*
G37*
%TD.AperFunction*%
%TD*%
%TA.AperFunction,Conductor*%
%TO.N,/RES_TC*%
G36*
X60909005Y-60462324D02*
G01*
X60915314Y-60468676D01*
X60915848Y-60475925D01*
X60814699Y-60884993D01*
X60809386Y-60892202D01*
X60803341Y-60893885D01*
X60693857Y-60893885D01*
X60685584Y-60890458D01*
X60684041Y-60888551D01*
X60592711Y-60747729D01*
X60417743Y-60477945D01*
X60416117Y-60469142D01*
X60421194Y-60461765D01*
X60423042Y-60460789D01*
X60659675Y-60361840D01*
X60668629Y-60361811D01*
X60909005Y-60462324D01*
G37*
%TD.AperFunction*%
%TD*%
%TA.AperFunction,Conductor*%
%TO.N,/TX*%
G36*
X96726513Y-95169869D02*
G01*
X96730158Y-95172342D01*
X96807657Y-95249841D01*
X96811084Y-95258114D01*
X96810255Y-95262440D01*
X96638438Y-95694251D01*
X96632195Y-95700671D01*
X96623241Y-95700796D01*
X96623126Y-95700749D01*
X96383819Y-95602563D01*
X96377466Y-95596253D01*
X96377436Y-95596180D01*
X96337940Y-95499918D01*
X96279250Y-95356871D01*
X96279280Y-95347918D01*
X96285633Y-95341608D01*
X96285683Y-95341587D01*
X96717561Y-95169744D01*
X96726513Y-95169869D01*
G37*
%TD.AperFunction*%
%TD*%
%TA.AperFunction,Conductor*%
%TO.N,/TX*%
G36*
X95332081Y-71899280D02*
G01*
X95338391Y-71905633D01*
X95338438Y-71905748D01*
X95510255Y-72337559D01*
X95510130Y-72346513D01*
X95507657Y-72350158D01*
X95430158Y-72427657D01*
X95421885Y-72431084D01*
X95417559Y-72430255D01*
X94985748Y-72258438D01*
X94979328Y-72252195D01*
X94979203Y-72243242D01*
X95077436Y-72003818D01*
X95083746Y-71997466D01*
X95083819Y-71997436D01*
X95323128Y-71899250D01*
X95332081Y-71899280D01*
G37*
%TD.AperFunction*%
%TD*%
%TA.AperFunction,Conductor*%
%TO.N,/TX*%
G36*
X96728412Y-100503734D02*
G01*
X96734123Y-100508832D01*
X96916324Y-100835544D01*
X96917361Y-100844439D01*
X96916531Y-100846555D01*
X96866585Y-100944576D01*
X96859775Y-100950391D01*
X96854013Y-100950765D01*
X96484519Y-100881776D01*
X96477015Y-100876889D01*
X96474966Y-100870315D01*
X96474133Y-100612412D01*
X96477533Y-100604130D01*
X96481384Y-100601554D01*
X96719458Y-100503709D01*
X96728412Y-100503734D01*
G37*
%TD.AperFunction*%
%TD*%
%TA.AperFunction,Conductor*%
%TO.N,/SWDCK*%
G36*
X99808053Y-75398542D02*
G01*
X99813157Y-75400676D01*
X99819467Y-75407029D01*
X99819437Y-75415984D01*
X99819389Y-75416098D01*
X99635546Y-75842928D01*
X99629126Y-75849171D01*
X99624800Y-75850000D01*
X99515200Y-75850000D01*
X99506927Y-75846573D01*
X99504454Y-75842928D01*
X99493539Y-75817588D01*
X99320609Y-75416096D01*
X99320485Y-75407144D01*
X99326728Y-75400724D01*
X99565487Y-75300886D01*
X99574441Y-75300857D01*
X99808053Y-75398542D01*
G37*
%TD.AperFunction*%
%TD*%
%TA.AperFunction,Conductor*%
%TO.N,/SWDCK*%
G36*
X110379275Y-96856728D02*
G01*
X110379323Y-96856842D01*
X110479112Y-97095486D01*
X110479142Y-97104441D01*
X110479112Y-97104514D01*
X110379323Y-97343157D01*
X110372970Y-97349467D01*
X110364015Y-97349437D01*
X110363901Y-97349389D01*
X109937072Y-97165546D01*
X109930829Y-97159126D01*
X109930000Y-97154800D01*
X109930000Y-97045199D01*
X109933427Y-97036926D01*
X109937068Y-97034455D01*
X110363903Y-96850609D01*
X110372855Y-96850485D01*
X110379275Y-96856728D01*
G37*
%TD.AperFunction*%
%TD*%
%TA.AperFunction,Conductor*%
%TO.N,/RX*%
G36*
X98643073Y-96353427D02*
G01*
X98645546Y-96357072D01*
X98829389Y-96783901D01*
X98829514Y-96792855D01*
X98823271Y-96799275D01*
X98823157Y-96799323D01*
X98584514Y-96899112D01*
X98575559Y-96899142D01*
X98575486Y-96899112D01*
X98336842Y-96799323D01*
X98330532Y-96792970D01*
X98330562Y-96784015D01*
X98330565Y-96784007D01*
X98514454Y-96357072D01*
X98520874Y-96350829D01*
X98525200Y-96350000D01*
X98634800Y-96350000D01*
X98643073Y-96353427D01*
G37*
%TD.AperFunction*%
%TD*%
%TA.AperFunction,Conductor*%
%TO.N,/RX*%
G36*
X99137356Y-69199446D02*
G01*
X99376083Y-69297351D01*
X99382435Y-69303658D01*
X99382466Y-69303732D01*
X99480718Y-69543059D01*
X99480690Y-69552013D01*
X99474338Y-69558325D01*
X99474155Y-69558399D01*
X99076660Y-69713789D01*
X99067707Y-69713609D01*
X99065278Y-69712174D01*
X98978044Y-69645239D01*
X98973566Y-69637484D01*
X98974113Y-69632120D01*
X98999704Y-69558399D01*
X99121880Y-69206437D01*
X99127828Y-69199748D01*
X99136768Y-69199224D01*
X99137356Y-69199446D01*
G37*
%TD.AperFunction*%
%TD*%
%TA.AperFunction,Conductor*%
%TO.N,/RX*%
G36*
X98627356Y-100344184D02*
G01*
X98627687Y-100344531D01*
X98757372Y-100486032D01*
X98920610Y-100664144D01*
X98923685Y-100672048D01*
X98923685Y-100781088D01*
X98920258Y-100789361D01*
X98912278Y-100792784D01*
X98436947Y-100804699D01*
X98428591Y-100801481D01*
X98424958Y-100793296D01*
X98424954Y-100793089D01*
X98424015Y-100534885D01*
X98427410Y-100526603D01*
X98610811Y-100344141D01*
X98619092Y-100340736D01*
X98627356Y-100344184D01*
G37*
%TD.AperFunction*%
%TD*%
%TA.AperFunction,Conductor*%
%TO.N,/SWDIO*%
G36*
X113779275Y-95156728D02*
G01*
X113779323Y-95156842D01*
X113879112Y-95395486D01*
X113879142Y-95404441D01*
X113879112Y-95404514D01*
X113779323Y-95643157D01*
X113772970Y-95649467D01*
X113764015Y-95649437D01*
X113763901Y-95649389D01*
X113337072Y-95465546D01*
X113330829Y-95459126D01*
X113330000Y-95454800D01*
X113330000Y-95345199D01*
X113333427Y-95336926D01*
X113337068Y-95334455D01*
X113763903Y-95150609D01*
X113772855Y-95150485D01*
X113779275Y-95156728D01*
G37*
%TD.AperFunction*%
%TD*%
%TA.AperFunction,Conductor*%
%TO.N,/SWDIO*%
G36*
X99822139Y-73400257D02*
G01*
X99828452Y-73406606D01*
X99828426Y-73415560D01*
X99827925Y-73416611D01*
X99653115Y-73740341D01*
X99646169Y-73745993D01*
X99645848Y-73746083D01*
X99538848Y-73774752D01*
X99529970Y-73773583D01*
X99525563Y-73769079D01*
X99332188Y-73416639D01*
X99331212Y-73407737D01*
X99336817Y-73400754D01*
X99337922Y-73400221D01*
X99575232Y-73300921D01*
X99584184Y-73300890D01*
X99822139Y-73400257D01*
G37*
%TD.AperFunction*%
%TD*%
%TA.AperFunction,Conductor*%
%TO.N,/RES_D*%
G36*
X95629274Y-90826734D02*
G01*
X95629423Y-90827075D01*
X95729103Y-91065358D01*
X95729134Y-91074312D01*
X95729104Y-91074384D01*
X95629453Y-91312840D01*
X95623101Y-91319152D01*
X95614147Y-91319124D01*
X95613727Y-91318939D01*
X95553662Y-91291027D01*
X95221454Y-91136650D01*
X95215397Y-91130057D01*
X95214788Y-91127576D01*
X95200441Y-91018590D01*
X95202759Y-91009942D01*
X95207183Y-91006421D01*
X95613775Y-90820944D01*
X95622722Y-90820629D01*
X95629274Y-90826734D01*
G37*
%TD.AperFunction*%
%TD*%
%TA.AperFunction,Conductor*%
%TO.N,/RES_D*%
G36*
X59718050Y-66298545D02*
G01*
X59723154Y-66300679D01*
X59729464Y-66307032D01*
X59729434Y-66315987D01*
X59729386Y-66316101D01*
X59545543Y-66742931D01*
X59539123Y-66749174D01*
X59534797Y-66750003D01*
X59425197Y-66750003D01*
X59416924Y-66746576D01*
X59414451Y-66742931D01*
X59403536Y-66717591D01*
X59230606Y-66316099D01*
X59230482Y-66307147D01*
X59236725Y-66300727D01*
X59475484Y-66200889D01*
X59484438Y-66200860D01*
X59718050Y-66298545D01*
G37*
%TD.AperFunction*%
%TD*%
M02*
